<?xml version="1.0" encoding="UTF-8" standalone="no"?><svg xmlns="http://www.w3.org/2000/svg" xmlns:cc="http://creativecommons.org/ns#" xmlns:dc="http://purl.org/dc/elements/1.1/" xmlns:rdf="http://www.w3.org/1999/02/22-rdf-syntax-ns#" xmlns:svg="http://www.w3.org/2000/svg" height="45" id="svg2" style="enable-background:new 0 0 45 45;" version="1.1" viewBox="0 0 45 45" width="45" xml:space="preserve"><metadata id="metadata8"><rdf:RDF><cc:Work rdf:about=""><dc:format>image/svg+xml</dc:format><dc:type rdf:resource="http://purl.org/dc/dcmitype/StillImage"/></cc:Work></rdf:RDF></metadata><defs id="defs6"><clipPath clipPathUnits="userSpaceOnUse" id="clipPath16"><path d="M 0,36 36,36 36,0 0,0 0,36 Z" id="path18"/></clipPath></defs><g id="g10" transform="matrix(1.25,0,0,-1.25,0,45)"><g id="g12"><g clip-path="url(#clipPath16)" id="g14"><g id="g20" transform="translate(32,31)"><path d="m 0,0 -8,0 0,-26 8,0 c 2.209,0 4,1.791 4,4 L 4,-4 C 4,-1.791 2.209,0 0,0" id="path22" style="fill:#dd2e44;fill-opacity:1;fill-rule:nonzero;stroke:none"/></g><g id="g24" transform="translate(4,31)"><path d="m 0,0 c -2.209,0 -4,-1.791 -4,-4 l 0,-18 c 0,-2.209 1.791,-4 4,-4 l 8,0 0,26 -8,0 z" id="path26" style="fill:#265fb5;fill-opacity:1;fill-rule:nonzero;stroke:none"/></g><path d="M 12,5 24,5 24,31 12,31 12,5 Z" id="path28" style="fill:#ffcc4d;fill-opacity:1;fill-rule:nonzero;stroke:none"/><path d="m 20,18 -4,0 0,3 4,0 0,-3 z" id="path30" style="fill:#dd2e44;fill-opacity:1;fill-rule:nonzero;stroke:none"/><g id="g32" transform="translate(16,18)"><path d="M 0,0 0,-2 2,-3 4,-2 4,0 0,0 Z" id="path34" style="fill:#226699;fill-opacity:1;fill-rule:nonzero;stroke:none"/></g><g id="g36" transform="translate(16,25)"><path d="m 0,0 0,-1 1,0 0,-2 2,0 0,2 0,1 -3,0 z" id="path38" style="fill:#a0724a;fill-opacity:1;fill-rule:nonzero;stroke:none"/></g><g id="g40" transform="translate(19,15)"><path d="M 0,0 -1,-0.625 -2,0 -3,-3 -1,-4 1,-3 0,0 Z" id="path42" style="fill:#a0724a;fill-opacity:1;fill-rule:nonzero;stroke:none"/></g><g id="g44" transform="translate(15,23)"><path d="m 0,0 -1,1 -1,-1 0,-8 0,-2 2,2 0,7 1,0 -1,1 z" id="path46" style="fill:#a0724a;fill-opacity:1;fill-rule:nonzero;stroke:none"/></g><g id="g48" transform="translate(22,24)"><path d="m 0,0 -1,-1 -1,-1 1,0 0,-7 2,-2 0,2 0,8 -1,1 z" id="path50" style="fill:#a0724a;fill-opacity:1;fill-rule:nonzero;stroke:none"/></g><path d="m 16.766,18 -0.531,0 0,0.406 0.531,0 0,-0.406 z" id="path52" style="fill:#ffcc4d;fill-opacity:1;fill-rule:nonzero;stroke:none"/><path d="m 19.766,18 -0.531,0 0,0.406 0.531,0 0,-0.406 z" id="path54" style="fill:#ffcc4d;fill-opacity:1;fill-rule:nonzero;stroke:none"/><g id="g56" transform="translate(15.6372,13.2568)"><path d="m 0,0 c -0.106,-0.062 -0.263,0.01 -0.35,0.159 l -2.232,3.866 c -0.086,0.151 -0.07,0.322 0.037,0.383 l 0.135,0.078 c 0.107,0.062 0.264,-0.009 0.349,-0.159 L 0.172,0.46 C 0.259,0.311 0.242,0.14 0.136,0.078 L 0,0 Z" id="path58" style="fill:#77b255;fill-opacity:1;fill-rule:nonzero;stroke:none"/></g><g id="g60" transform="translate(22.8174,17.6074)"><path d="M 0,0 C 0.107,-0.061 0.125,-0.23 0.039,-0.377 L -2.152,-4.175 C -2.238,-4.322 -2.393,-4.391 -2.5,-4.33 l -0.135,0.078 c -0.106,0.063 -0.124,0.231 -0.039,0.378 l 2.193,3.798 c 0.085,0.146 0.24,0.217 0.346,0.154 L 0,0 Z" id="path62" style="fill:#ffcc4d;fill-opacity:1;fill-rule:nonzero;stroke:none"/></g><g id="g64" transform="translate(16,15)"><path d="m 0,0 -1,-1 0,-1 1,1 0,1 z" id="path66" style="fill:#dd2e44;fill-opacity:1;fill-rule:nonzero;stroke:none"/></g><g id="g68" transform="translate(20,15)"><path d="M 0,0 0,-1 1,-2 1,-1 0,0 Z" id="path70" style="fill:#dd2e44;fill-opacity:1;fill-rule:nonzero;stroke:none"/></g><g id="g72" transform="translate(18,19)"><path d="M 0,0 -1,1 -1,0 -1,-1.958 0,-3 1,-1.958 1,0 1,1 0,0 Z" id="path74" style="fill:#ffcc4d;fill-opacity:1;fill-rule:nonzero;stroke:none"/></g></g></g></g></svg>