<?xml version="1.0" encoding="UTF-8" standalone="no"?><svg xmlns="http://www.w3.org/2000/svg" xmlns:cc="http://creativecommons.org/ns#" xmlns:dc="http://purl.org/dc/elements/1.1/" xmlns:rdf="http://www.w3.org/1999/02/22-rdf-syntax-ns#" xmlns:svg="http://www.w3.org/2000/svg" height="45" id="svg2" style="enable-background:new 0 0 45 45;" version="1.1" viewBox="0 0 45 45" width="45" xml:space="preserve"><metadata id="metadata8"><rdf:RDF><cc:Work rdf:about=""><dc:format>image/svg+xml</dc:format><dc:type rdf:resource="http://purl.org/dc/dcmitype/StillImage"/></cc:Work></rdf:RDF></metadata><defs id="defs6"><clipPath clipPathUnits="userSpaceOnUse" id="clipPath16"><path d="M 0,36 36,36 36,0 0,0 0,36 Z" id="path18"/></clipPath></defs><g id="g10" transform="matrix(1.25,0,0,-1.25,0,45)"><g id="g12"><g clip-path="url(#clipPath16)" id="g14"><g id="g20" transform="translate(36,9)"><path d="m 0,0 c 0,-2.209 -1.791,-4 -4,-4 l -28,0 c -2.209,0 -4,1.791 -4,4 l 0,18 c 0,2.209 1.791,4 4,4 l 28,0 c 2.209,0 4,-1.791 4,-4 L 0,0 Z" id="path22" style="fill:#006b3f;fill-opacity:1;fill-rule:nonzero;stroke:none"/></g><g id="g24" transform="translate(36,21)"><path d="m 0,0 -15,0 0,10 -6,0 0,-10 -15,0 0,-6 15,0 0,-10 6,0 0,10 15,0 0,6 z" id="path26" style="fill:#eeeeee;fill-opacity:1;fill-rule:nonzero;stroke:none"/></g><path d="m 17,5 -2,0 0,26 2,0 0,-26 z" id="path28" style="fill:#fcd116;fill-opacity:1;fill-rule:nonzero;stroke:none"/><path d="m 36,19 -36,0 0,2 36,0 0,-2 z" id="path30" style="fill:#fcd116;fill-opacity:1;fill-rule:nonzero;stroke:none"/><path d="m 19,5 -2,0 0,26 2,0 0,-26 z" id="path32" style="fill:#141414;fill-opacity:1;fill-rule:nonzero;stroke:none"/><path d="m 36,17 -36,0 0,2 36,0 0,-2 z" id="path34" style="fill:#141414;fill-opacity:1;fill-rule:nonzero;stroke:none"/><g id="g36" transform="translate(23.999,18.001)"><path d="m 0,0 c 0,-3.314 -2.687,-6 -6,-6 -3.314,0 -6,2.686 -6,6 0,3.313 2.686,5.999 6,5.999 3.313,0 6,-2.686 6,-5.999" id="path38" style="fill:#dd2e44;fill-opacity:1;fill-rule:nonzero;stroke:none"/></g><g id="g40" transform="translate(18,23.3604)"><path d="m 0,0 -0.169,-0.524 -0.555,0 0.451,-0.326 -0.173,-0.523 0.446,0.325 0.445,-0.325 -0.171,0.528 0.449,0.319 -0.552,0 L 0,0 Z" id="path42" style="fill:#006000;fill-opacity:1;fill-rule:nonzero;stroke:none"/></g><g id="g44" transform="translate(14.9199,22.3599)"><path d="m 0,0 0.171,-0.523 -0.448,-0.326 0.555,0.001 0.168,-0.525 0.169,0.525 0.552,-0.001 -0.448,0.327 0.175,0.521 L 0.447,-0.325 0,0 Z" id="path46" style="fill:#006000;fill-opacity:1;fill-rule:nonzero;stroke:none"/></g><g id="g48" transform="translate(13.0156,19.7393)"><path d="M 0,0 0.446,-0.322 0.275,-0.849 0.725,-0.522 1.169,-0.848 0.997,-0.324 1.444,0 0.89,0 0.724,0.525 0.554,0 0,0 Z" id="path50" style="fill:#006000;fill-opacity:1;fill-rule:nonzero;stroke:none"/></g><g id="g52" transform="translate(13.0156,16.5)"><path d="M 0,0 0.551,0.002 0.722,-0.525 0.893,0.004 1.444,0.002 0.997,0.324 1.169,0.849 0.72,0.524 0.277,0.851 0.448,0.326 0,0 Z" id="path54" style="fill:#006000;fill-opacity:1;fill-rule:nonzero;stroke:none"/></g><g id="g56" transform="translate(14.9199,13.8809)"><path d="M 0,0 0.444,0.324 0.893,-0.002 0.72,0.527 1.168,0.85 0.616,0.848 0.446,1.373 0.274,0.846 -0.275,0.85 0.171,0.525 0,0 Z" id="path58" style="fill:#006000;fill-opacity:1;fill-rule:nonzero;stroke:none"/></g><g id="g60" transform="translate(18,12.8809)"><path d="m 0,0 0.169,0.523 0.554,0 L 0.273,0.85 0.445,1.373 0,1.047 l -0.445,0.326 0.17,-0.527 -0.448,-0.321 0.552,0 L 0,0 Z" id="path62" style="fill:#006000;fill-opacity:1;fill-rule:nonzero;stroke:none"/></g><g id="g64" transform="translate(21.0801,13.8809)"><path d="M 0,0 -0.172,0.523 0.276,0.85 -0.279,0.848 -0.447,1.373 -0.616,0.848 -1.168,0.85 -0.72,0.523 -0.895,0 -0.447,0.326 0,0 Z" id="path66" style="fill:#006000;fill-opacity:1;fill-rule:nonzero;stroke:none"/></g><g id="g68" transform="translate(22.9834,16.502)"><path d="M 0,0 -0.446,0.322 -0.275,0.849 -0.725,0.522 -1.168,0.848 -0.997,0.324 -1.443,0 -0.89,0 -0.724,-0.525 -0.553,0 0,0 Z" id="path70" style="fill:#006000;fill-opacity:1;fill-rule:nonzero;stroke:none"/></g><g id="g72" transform="translate(22.9824,19.7402)"><path d="m 0,0 -0.55,-0.001 -0.171,0.527 -0.171,-0.529 -0.551,0.002 0.447,-0.323 -0.172,-0.525 0.449,0.326 0.443,-0.327 -0.171,0.525 L 0,0 Z" id="path74" style="fill:#006000;fill-opacity:1;fill-rule:nonzero;stroke:none"/></g><g id="g76" transform="translate(21.0791,22.3604)"><path d="m 0,0 -0.444,-0.325 -0.449,0.326 0.172,-0.528 -0.447,-0.322 0.552,0.001 0.17,-0.525 0.172,0.527 0.549,-0.005 -0.446,0.325 L 0,0 Z" id="path78" style="fill:#006000;fill-opacity:1;fill-rule:nonzero;stroke:none"/></g><g id="g80" transform="translate(16.9893,20.8188)"><path d="M 0,0 C 0,-0.097 0,-0.262 0.238,-0.292 0.386,-0.238 0.335,0.09 0.29,0.18 0.186,0.173 0.039,0.058 0,0" id="path82" style="fill:#ffffff;fill-opacity:1;fill-rule:nonzero;stroke:none"/></g><g id="g84" transform="translate(17.2793,20.9087)"><path d="M 0,0 C -0.161,-0.084 -0.367,-0.238 -0.348,-0.489 -0.631,-0.29 -0.649,0.289 -0.335,0.373 -0.219,0.379 0.019,0.219 0,0" id="path86" style="fill:#ffffff;fill-opacity:1;fill-rule:nonzero;stroke:none"/></g><g id="g88" transform="translate(17.1465,20.3384)"><path d="m 0,0 c 0.147,-0.128 0.428,-0.105 0.564,-0.028 0.244,-0.141 0.507,-0.16 0.848,-0.051 0.065,-0.02 0.237,-0.045 0.302,-0.02 0.039,0.039 0.077,0.065 0.116,0.091 -0.077,0.064 -0.154,0.179 -0.193,0.295 0,0 0.064,0.078 0.09,0.116 C 1.663,0.467 1.534,0.57 1.47,0.609 1.509,0.647 1.547,0.763 1.547,0.763 1.418,0.802 1.29,0.892 1.238,0.943 L 1.251,1.021 C 1.041,1.033 1.05,1.291 0.596,1.368 0.287,1.42 -0.176,1.291 -0.202,0.943 -0.03,0.776 0.231,0.553 0.081,0.189 0.042,0.137 -0.03,0.069 -0.073,0.047 -0.048,0.017 -0.03,0.013 0,0" id="path90" style="fill:#7d76b6;fill-opacity:1;fill-rule:nonzero;stroke:none"/></g><g id="g92" transform="translate(18.4023,16.5527)"><path d="m 0,0 c 0.111,-0.471 0.402,-1.354 0.48,-1.551 0.077,-0.197 0.188,-0.599 0.437,-0.67 0.111,-0.058 0.266,-0.015 0.197,0.498 0.077,0.018 0.094,0.215 0.077,0.352 -0.017,0.137 -0.06,0.652 -0.069,1.062 C 1.114,0.104 -0.009,0.747 0,0" id="path94" style="fill:#00693f;fill-opacity:1;fill-rule:nonzero;stroke:none"/></g><g id="g96" transform="translate(17.3564,17.4624)"><path d="m 0,0 c -0.043,-0.309 0.034,-0.91 0.18,-1.14 l 0.677,-0.154 c 0.069,0.043 0.146,0.144 0.171,0.23 0.163,0.053 0.292,0.182 0.334,0.43 C 1.166,-0.163 0.463,0.463 0,0" id="path98" style="fill:#00693f;fill-opacity:1;fill-rule:nonzero;stroke:none"/></g><g id="g100" transform="translate(18.8604,20.2397)"><path d="M 0,0 C 0.013,-0.102 0.077,-0.206 0.154,-0.27 0.104,-0.309 0.077,-0.36 0.064,-0.398 -0.219,-0.643 -0.874,-2.34 -0.887,-2.713 -0.932,-2.912 -1.022,-3.227 -1.1,-3.363 c -0.436,0.392 -0.886,1.126 -0.811,1.456 -0.026,0.004 -0.065,0.008 -0.108,0.021 0.009,0.03 0.026,0.18 0.031,0.27 -0.027,0 -0.074,0 -0.113,0.013 0.009,0.056 0.027,0.219 0.027,0.292 -0.043,0.012 -0.095,0.055 -0.133,0.098 0.029,0.077 0.106,0.227 0.145,0.318 -0.064,0.008 -0.111,0.072 -0.132,0.111 0.055,0.034 0.129,0.133 0.158,0.193 -0.047,0.038 -0.103,0.094 -0.111,0.12 0.06,0.056 0.236,0.248 0.313,0.355 -0.048,0 -0.064,0.005 -0.103,0.014 0.064,0.025 0.137,0.12 0.223,0.201 C -1.566,-0.03 -1.286,-0.006 -1.15,0.071 -0.906,-0.07 -0.643,-0.09 -0.302,0.02 -0.237,0 -0.064,-0.025 0,0" id="path102" style="fill:#7d76b6;fill-opacity:1;fill-rule:nonzero;stroke:none"/></g><g id="g104" transform="translate(19.8379,15.5723)"><path d="M 0,0 C 0.051,1.813 -0.258,3.472 -0.733,4.076 -1.209,4.681 -2.082,4.546 -2.327,4.025 -2.431,3.806 -2.445,3.284 -2.341,3.06 -2.16,2.674 -1.466,1.453 -0.99,0.99 -0.515,0.527 -0.181,0.219 0,0" id="path106" style="fill:#00693f;fill-opacity:1;fill-rule:nonzero;stroke:none"/></g><g id="g108" transform="translate(19.1221,16.0039)"><path d="m 0,0 c -0.137,-0.016 -0.3,0.018 -0.429,0.078 -0.129,0.061 -0.24,0.119 -0.377,0.119 -0.137,0 -0.883,0.053 -1.003,0.096 -0.12,0.043 -0.455,0.102 -0.591,0.094 -0.137,-0.008 -0.352,-0.104 -0.438,-0.104 -0.086,0 -0.128,-0.068 -0.128,-0.137 0,-0.068 0.017,-0.197 0.119,-0.265 0.181,0.008 0.438,0.025 0.472,0.06 0.249,-0.068 0.583,-0.138 0.789,-0.146 0.206,-0.008 0.574,-0.025 0.712,-0.018 0.137,0.01 0.162,0.053 0.343,-0.007 0.179,-0.061 0.42,-0.19 0.531,-0.223 0.111,-0.035 0.18,0.076 0.205,0.197 C 0.231,-0.137 0.145,0.01 0,0" id="path110" style="fill:#ffd420;fill-opacity:1;fill-rule:nonzero;stroke:none"/></g><g id="g112" transform="translate(19.1221,15.5508)"><path d="M 0,0 C 0.111,-0.035 0.18,0.076 0.205,0.197 0.231,0.316 0.145,0.463 0,0.453 -0.107,0.432 -0.246,0.164 0,0" id="path114" style="fill:#ffd420;fill-opacity:1;fill-rule:nonzero;stroke:none"/></g><g id="g116" transform="translate(17.6729,16.3906)"><path d="m 0,0 c -0.146,0.119 -0.399,0.006 -0.437,-0.283 -0.034,-0.266 0.103,-0.455 0.3,-0.446 C -0.18,-0.584 -0.146,-0.061 0,0" id="path118" style="fill:#ffffff;fill-opacity:1;fill-rule:nonzero;stroke:none"/></g><g id="g120" transform="translate(17.8965,16.3906)"><path d="M 0,0 C -0.138,0.111 -0.315,0.002 -0.395,-0.104 -0.506,-0.248 -0.498,-0.523 -0.429,-0.66 -0.36,-0.797 -0.154,-0.746 -0.111,-0.678 -0.138,-0.541 -0.111,-0.086 0,0" id="path122" style="fill:#ffffff;fill-opacity:1;fill-rule:nonzero;stroke:none"/></g><g id="g124" transform="translate(18.166,16.2852)"><path d="m 0,0 c -0.097,0.162 -0.364,0.113 -0.45,-0.006 -0.085,-0.121 -0.103,-0.377 0,-0.506 0.103,-0.129 0.215,-0.111 0.308,-0.043 C -0.167,-0.436 -0.128,-0.129 0,0" id="path126" style="fill:#ffffff;fill-opacity:1;fill-rule:nonzero;stroke:none"/></g><g id="g128" transform="translate(18.3252,16.2109)"><path d="m 0,0 c -0.095,0.162 -0.272,0.092 -0.344,-0.01 -0.102,-0.144 -0.093,-0.478 0.129,-0.531 0.113,-0.025 0.197,0.068 0.232,0.111 -0.086,0.01 -0.171,0.104 -0.171,0.18 0,0.078 0.008,0.232 0.154,0.25" id="path130" style="fill:#ffffff;fill-opacity:1;fill-rule:nonzero;stroke:none"/></g><g id="g132" transform="translate(17.5615,21.4102)"><path d="M 0,0 C -0.231,0 -0.225,-0.347 0,-0.347 0.226,-0.347 0.231,0 0,0" id="path134" style="fill:#ffd420;fill-opacity:1;fill-rule:nonzero;stroke:none"/></g><g id="g136" transform="translate(17.5615,21.2798)"><path d="M 0,0 C -0.058,0 -0.056,-0.086 0,-0.086 0.057,-0.086 0.059,0 0,0" id="path138" style="fill:#000000;fill-opacity:1;fill-rule:nonzero;stroke:none"/></g></g></g></g></svg>