<?xml version="1.0" encoding="UTF-8" standalone="no"?><svg xmlns="http://www.w3.org/2000/svg" xmlns:cc="http://creativecommons.org/ns#" xmlns:dc="http://purl.org/dc/elements/1.1/" xmlns:rdf="http://www.w3.org/1999/02/22-rdf-syntax-ns#" xmlns:svg="http://www.w3.org/2000/svg" height="45" id="svg2" style="enable-background:new 0 0 45 45;" version="1.1" viewBox="0 0 45 45" width="45" xml:space="preserve"><metadata id="metadata8"><rdf:RDF><cc:Work rdf:about=""><dc:format>image/svg+xml</dc:format><dc:type rdf:resource="http://purl.org/dc/dcmitype/StillImage"/></cc:Work></rdf:RDF></metadata><defs id="defs6"><clipPath clipPathUnits="userSpaceOnUse" id="clipPath16"><path d="M 0,36 36,36 36,0 0,0 0,36 Z" id="path18"/></clipPath></defs><g id="g10" transform="matrix(1.25,0,0,-1.25,0,45)"><g id="g12"><g clip-path="url(#clipPath16)" id="g14"><g id="g20" transform="translate(36,9)"><path d="m 0,0 c 0,-2.209 -1.791,-4 -4,-4 l -28,0 c -2.209,0 -4,1.791 -4,4 l 0,17.999 c 0,2.21 1.791,4.001 4,4.001 l 28,0 c 2.209,0 4,-1.791 4,-4.001 L 0,0 Z" id="path22" style="fill:#292f33;fill-opacity:1;fill-rule:nonzero;stroke:none"/></g><g id="g24" transform="translate(34,15)"><path d="m 0,0 c 0,-1.104 -0.895,-2 -2,-2 l -28,0 c -1.104,0 -2,0.896 -2,2 l 0,12 c 0,1.105 0.896,2 2,2 l 28,0 c 1.105,0 2,-0.895 2,-2 L 0,0 Z" id="path26" style="fill:#c6e5b3;fill-opacity:1;fill-rule:nonzero;stroke:none"/></g><g id="g28" transform="translate(14,9)"><path d="m 0,0 c 0,-1.104 -0.895,-2 -2,-2 l -8,0 c -1.104,0 -2,0.896 -2,2 0,1.105 0.896,2 2,2 l 8,0 C -0.895,2 0,1.105 0,0" id="path30" style="fill:#66757f;fill-opacity:1;fill-rule:nonzero;stroke:none"/></g><g id="g32" transform="translate(28,9)"><path d="m 0,0 c 0,-1.104 -0.895,-2 -2,-2 l -8,0 c -1.104,0 -2,0.896 -2,2 0,1.105 0.896,2 2,2 l 8,0 C -0.895,2 0,1.105 0,0" id="path34" style="fill:#66757f;fill-opacity:1;fill-rule:nonzero;stroke:none"/></g><g id="g36" transform="translate(30,9)"><path d="M 0,0 C 0,-1.104 0.896,-2 2,-2 3.105,-2 4,-1.104 4,0 4,1.105 3.105,2 2,2 0.896,2 0,1.105 0,0" id="path38" style="fill:#dd2e44;fill-opacity:1;fill-rule:nonzero;stroke:none"/></g><g id="g40" transform="translate(26.0488,22.3061)"><path d="M 0,0 -0.012,0 -0.815,-1.659 0,-1.659 0,0 Z m -1.433,-2.444 c -0.291,0 -0.416,0.196 -0.416,0.351 0,0.13 0.047,0.202 0.083,0.261 l 1.332,2.415 c 0.131,0.238 0.297,0.345 0.606,0.345 0.345,0 0.684,-0.22 0.684,-0.761 l 0,-1.826 0.102,0 c 0.231,0 0.416,-0.155 0.416,-0.393 0,-0.238 -0.185,-0.392 -0.416,-0.392 l -0.102,0 0,-0.506 C 0.856,-3.265 0.731,-3.413 0.428,-3.413 0.125,-3.413 0,-3.265 0,-2.95 l 0,0.506 -1.433,0 z" id="path42" style="fill:#77b255;fill-opacity:1;fill-rule:nonzero;stroke:none"/></g><g id="g44" transform="translate(22.5108,21.1348)"><path d="m 0,0 c 0,0.448 -0.041,1.368 -0.643,1.368 -0.601,0 -0.643,-0.92 -0.643,-1.368 0,-0.419 0.042,-1.368 0.643,-1.368 C -0.041,-1.368 0,-0.419 0,0 m -2.206,0 c 0,0.961 0.372,2.171 1.563,2.171 1.192,0 1.563,-1.21 1.563,-2.171 0,-0.961 -0.371,-2.171 -1.563,-2.171 -1.191,0 -1.563,1.21 -1.563,2.171" id="path46" style="fill:#77b255;fill-opacity:1;fill-rule:nonzero;stroke:none"/></g><g id="g48" transform="translate(18.1628,22.3776)"><path d="M 0,0 -0.012,0 -0.815,-1.659 0,-1.659 0,0 Z m -1.433,-2.444 c -0.291,0 -0.416,0.196 -0.416,0.351 0,0.13 0.047,0.202 0.083,0.261 l 1.332,2.415 c 0.131,0.238 0.297,0.345 0.606,0.345 0.345,0 0.684,-0.22 0.684,-0.761 l 0,-1.826 0.102,0 c 0.231,0 0.416,-0.155 0.416,-0.393 0,-0.238 -0.185,-0.392 -0.416,-0.392 l -0.102,0 0,-0.506 C 0.856,-3.265 0.731,-3.413 0.428,-3.413 0.125,-3.413 0,-3.265 0,-2.95 l 0,0.506 -1.433,0 z" id="path50" style="fill:#77b255;fill-opacity:1;fill-rule:nonzero;stroke:none"/></g><g id="g52" transform="translate(14.6248,21.0633)"><path d="m 0,0 c 0,0.448 -0.041,1.368 -0.643,1.368 -0.601,0 -0.643,-0.92 -0.643,-1.368 0,-0.419 0.042,-1.368 0.643,-1.368 C -0.041,-1.368 0,-0.419 0,0 m -2.206,0 c 0,0.961 0.372,2.17 1.563,2.17 1.192,0 1.563,-1.209 1.563,-2.17 0,-0.961 -0.371,-2.171 -1.563,-2.171 -1.191,0 -1.563,1.21 -1.563,2.171" id="path54" style="fill:#77b255;fill-opacity:1;fill-rule:nonzero;stroke:none"/></g><g id="g56" transform="translate(10.2768,22.3061)"><path d="M 0,0 -0.012,0 -0.815,-1.659 0,-1.659 0,0 Z m -1.433,-2.444 c -0.291,0 -0.416,0.196 -0.416,0.351 0,0.13 0.047,0.202 0.083,0.261 l 1.332,2.415 c 0.131,0.238 0.297,0.345 0.606,0.345 0.345,0 0.684,-0.22 0.684,-0.761 l 0,-1.826 0.102,0 c 0.231,0 0.416,-0.155 0.416,-0.393 0,-0.238 -0.185,-0.392 -0.416,-0.392 l -0.102,0 0,-0.506 C 0.856,-3.265 0.731,-3.413 0.428,-3.413 0.125,-3.413 0,-3.265 0,-2.95 l 0,0.506 -1.433,0 z" id="path58" style="fill:#77b255;fill-opacity:1;fill-rule:nonzero;stroke:none"/></g></g></g></g></svg>