<?xml version="1.0" encoding="UTF-8" standalone="no"?><svg xmlns="http://www.w3.org/2000/svg" xmlns:cc="http://creativecommons.org/ns#" xmlns:dc="http://purl.org/dc/elements/1.1/" xmlns:rdf="http://www.w3.org/1999/02/22-rdf-syntax-ns#" xmlns:svg="http://www.w3.org/2000/svg" height="45" id="svg2" style="enable-background:new 0 0 45 45;" version="1.1" viewBox="0 0 45 45" width="45" xml:space="preserve"><metadata id="metadata8"><rdf:RDF><cc:Work rdf:about=""><dc:format>image/svg+xml</dc:format><dc:type rdf:resource="http://purl.org/dc/dcmitype/StillImage"/></cc:Work></rdf:RDF></metadata><defs id="defs6"><clipPath clipPathUnits="userSpaceOnUse" id="clipPath16"><path d="M 0,36 36,36 36,0 0,0 0,36 Z" id="path18"/></clipPath></defs><g id="g10" transform="matrix(1.25,0,0,-1.25,0,45)"><g id="g12"><g clip-path="url(#clipPath16)" id="g14"><g id="g20" transform="translate(36,4)"><path d="m 0,0 c 0,-2.209 -1.791,-4 -4,-4 l -28,0 c -2.209,0 -4,1.791 -4,4 l 0,28 c 0,2.209 1.791,4 4,4 l 28,0 c 2.209,0 4,-1.791 4,-4 L 0,0 Z" id="path22" style="fill:#9266cc;fill-opacity:1;fill-rule:nonzero;stroke:none"/></g><g id="g24" transform="translate(6.5239,25.1304)"><path d="M 0,0 11.485,-20.044 23.85,-0.007 0,0 Z m 11.476,-23.287 c -1.011,0 -1.928,0.588 -2.516,1.615 L -2.713,-1.298 c -0.602,1.05 -0.66,2.149 -0.159,3.013 C -2.399,2.532 -1.509,3 -0.431,3 l 24.816,0 c 1.09,0 1.979,-0.473 2.439,-1.296 0.485,-0.87 0.396,-1.962 -0.242,-2.998 L 13.951,-21.761 c -0.597,-0.969 -1.499,-1.526 -2.475,-1.526" id="path26" style="fill:#f5f8fa;fill-opacity:1;fill-rule:nonzero;stroke:none"/></g><g id="g28" transform="translate(6.5283,11.5068)"><path d="M 0,0 23.85,-0.007 11.48,20.037 0,0 Z m 24.381,-3.007 -24.816,0 c -1.079,0 -1.968,0.469 -2.441,1.285 -0.501,0.866 -0.444,1.963 0.158,3.013 L 8.956,21.665 c 0.588,1.026 1.505,1.614 2.515,1.614 0.976,0 1.879,-0.556 2.476,-1.527 L 26.577,1.286 c 0.639,-1.035 0.728,-2.127 0.242,-2.996 -0.46,-0.824 -1.348,-1.297 -2.438,-1.297" id="path30" style="fill:#f5f8fa;fill-opacity:1;fill-rule:nonzero;stroke:none"/></g><g id="g32" transform="translate(22,18)"><path d="m 0,0 c 0,-2.209 -1.791,-4 -4,-4 -2.209,0 -4,1.791 -4,4 0,2.209 1.791,4 4,4 2.209,0 4,-1.791 4,-4" id="path34" style="fill:#f5f8fa;fill-opacity:1;fill-rule:nonzero;stroke:none"/></g></g></g></g></svg>