<?xml version="1.0" encoding="UTF-8" standalone="no"?><svg xmlns="http://www.w3.org/2000/svg" xmlns:cc="http://creativecommons.org/ns#" xmlns:dc="http://purl.org/dc/elements/1.1/" xmlns:rdf="http://www.w3.org/1999/02/22-rdf-syntax-ns#" xmlns:svg="http://www.w3.org/2000/svg" height="45" id="svg2" style="enable-background:new 0 0 45 45;" version="1.1" viewBox="0 0 45 45" width="45" xml:space="preserve"><metadata id="metadata8"><rdf:RDF><cc:Work rdf:about=""><dc:format>image/svg+xml</dc:format><dc:type rdf:resource="http://purl.org/dc/dcmitype/StillImage"/></cc:Work></rdf:RDF></metadata><defs id="defs6"><clipPath clipPathUnits="userSpaceOnUse" id="clipPath16"><path d="M 0,36 36,36 36,0 0,0 0,36 Z" id="path18"/></clipPath></defs><g id="g10" transform="matrix(1.25,0,0,-1.25,0,45)"><g id="g12"><g clip-path="url(#clipPath16)" id="g14"><g id="g20" transform="translate(36,18)"><path d="m 0,0 c 0,-9.941 -8.059,-18 -18,-18 -9.941,0 -18,8.059 -18,18 0,9.941 8.059,18 18,18 C -8.059,18 0,9.941 0,0" id="path22" style="fill:#ffcc4d;fill-opacity:1;fill-rule:nonzero;stroke:none"/></g><g id="g24" transform="translate(10.5146,12.3789)"><path d="m 0,0 c 0.045,-0.179 1.168,-4.379 7.485,-4.379 6.318,0 7.441,4.2 7.485,4.379 0.055,0.217 -0.043,0.442 -0.237,0.554 C 14.538,0.665 14.294,0.632 14.134,0.477 14.115,0.458 12.18,-1.379 7.485,-1.379 2.791,-1.379 0.855,0.458 0.837,0.477 0.741,0.571 0.613,0.621 0.485,0.621 0.401,0.621 0.316,0.6 0.239,0.557 0.043,0.445 -0.055,0.218 0,0" id="path26" style="fill:#664500;fill-opacity:1;fill-rule:nonzero;stroke:none"/></g><g id="g28" transform="translate(14.5,22.5)"><path d="M 0,0 C 0,-1.934 -1.119,-3.5 -2.5,-3.5 -3.881,-3.5 -5,-1.934 -5,0 -5,1.933 -3.881,3.5 -2.5,3.5 -1.119,3.5 0,1.933 0,0" id="path30" style="fill:#664500;fill-opacity:1;fill-rule:nonzero;stroke:none"/></g><g id="g32" transform="translate(26.5,22.5)"><path d="M 0,0 C 0,-1.934 -1.119,-3.5 -2.5,-3.5 -3.881,-3.5 -5,-1.934 -5,0 -5,1.933 -3.881,3.5 -2.5,3.5 -1.119,3.5 0,1.933 0,0" id="path34" style="fill:#664500;fill-opacity:1;fill-rule:nonzero;stroke:none"/></g></g></g></g></svg>