<?xml version="1.0" encoding="UTF-8" standalone="no"?><svg xmlns="http://www.w3.org/2000/svg" xmlns:cc="http://creativecommons.org/ns#" xmlns:dc="http://purl.org/dc/elements/1.1/" xmlns:rdf="http://www.w3.org/1999/02/22-rdf-syntax-ns#" xmlns:svg="http://www.w3.org/2000/svg" height="45" id="svg2" style="enable-background:new 0 0 45 45;" version="1.1" viewBox="0 0 45 45" width="45" xml:space="preserve"><metadata id="metadata8"><rdf:RDF><cc:Work rdf:about=""><dc:format>image/svg+xml</dc:format><dc:type rdf:resource="http://purl.org/dc/dcmitype/StillImage"/></cc:Work></rdf:RDF></metadata><defs id="defs6"><clipPath clipPathUnits="userSpaceOnUse" id="clipPath16"><path d="M 0,36 36,36 36,0 0,0 0,36 Z" id="path18"/></clipPath></defs><g id="g10" transform="matrix(1.25,0,0,-1.25,0,45)"><g id="g12"><g clip-path="url(#clipPath16)" id="g14"><g id="g20" transform="translate(36,4)"><path d="m 0,0 c 0,-2.209 -1.791,-4 -4,-4 l -28,0 c -2.209,0 -4,1.791 -4,4 l 0,28 c 0,2.209 1.791,4 4,4 l 28,0 c 2.209,0 4,-1.791 4,-4 L 0,0 Z" id="path22" style="fill:#dd2e44;fill-opacity:1;fill-rule:nonzero;stroke:none"/></g><g id="g24" transform="translate(9.7622,23.4824)"><path d="m 0,0 c 0,-0.78 -0.52,-1.48 -1.34,-1.48 -0.82,0 -1.46,0.6 -2.66,0.6 -0.861,0 -1.641,-0.46 -1.641,-1.3 0,-2.06 6.681,-0.74 6.681,-5.901 0,-2.861 -2.36,-4.642 -5.121,-4.642 -1.54,0 -4.861,0.361 -4.861,2.241 0,0.78 0.521,1.42 1.34,1.42 0.941,0 2.061,-0.78 3.361,-0.78 1.321,0 2.041,0.74 2.041,1.721 0,2.36 -6.682,0.939 -6.682,5.58 C -8.882,0.26 -6.581,2 -3.92,2 -2.8,2 0,1.581 0,0" id="path26" style="fill:#ffffff;fill-opacity:1;fill-rule:nonzero;stroke:none"/></g><g id="g28" transform="translate(21.7627,18.1211)"><path d="m 0,0 c 0,2.421 -1.261,4.602 -3.761,4.602 -2.5,0 -3.76,-2.181 -3.76,-4.602 0,-2.44 1.22,-4.601 3.76,-4.601 C -1.22,-4.601 0,-2.44 0,0 m -10.643,0 c 0,4.161 2.801,7.362 6.882,7.362 4.021,0 6.881,-3.3 6.881,-7.362 0,-4.141 -2.78,-7.361 -6.881,-7.361 -4.061,0 -6.882,3.22 -6.882,7.361" id="path30" style="fill:#ffffff;fill-opacity:1;fill-rule:nonzero;stroke:none"/></g><g id="g32" transform="translate(34.1426,23.4824)"><path d="m 0,0 c 0,-0.78 -0.521,-1.48 -1.342,-1.48 -0.82,0 -1.459,0.6 -2.66,0.6 -0.859,0 -1.641,-0.46 -1.641,-1.3 0,-2.06 6.682,-0.74 6.682,-5.901 0,-2.861 -2.359,-4.642 -5.121,-4.642 -1.539,0 -4.861,0.361 -4.861,2.241 0,0.78 0.521,1.42 1.341,1.42 0.94,0 2.061,-0.78 3.36,-0.78 1.32,0 2.041,0.74 2.041,1.721 0,2.36 -6.682,0.939 -6.682,5.58 C -8.883,0.26 -6.582,2 -3.922,2 -2.801,2 0,1.581 0,0" id="path34" style="fill:#ffffff;fill-opacity:1;fill-rule:nonzero;stroke:none"/></g></g></g></g></svg>