<?xml version="1.0" encoding="UTF-8" standalone="no"?><svg xmlns="http://www.w3.org/2000/svg" xmlns:cc="http://creativecommons.org/ns#" xmlns:dc="http://purl.org/dc/elements/1.1/" xmlns:rdf="http://www.w3.org/1999/02/22-rdf-syntax-ns#" xmlns:svg="http://www.w3.org/2000/svg" height="45" id="svg2" style="enable-background:new 0 0 45 45;" version="1.1" viewBox="0 0 45 45" width="45" xml:space="preserve"><metadata id="metadata8"><rdf:RDF><cc:Work rdf:about=""><dc:format>image/svg+xml</dc:format><dc:type rdf:resource="http://purl.org/dc/dcmitype/StillImage"/></cc:Work></rdf:RDF></metadata><defs id="defs6"><clipPath clipPathUnits="userSpaceOnUse" id="clipPath18"><path d="M 0,36 36,36 36,0 0,0 0,36 Z" id="path20"/></clipPath></defs><g id="g10" transform="matrix(1.25,0,0,-1.25,0,45)"><path d="m 21,6 -6,0 0,4 6,0 0,-4 z" id="path12" style="fill:#f4900c;fill-opacity:1;fill-rule:nonzero;stroke:none"/><g id="g14"><g clip-path="url(#clipPath18)" id="g16"><g id="g22" transform="translate(30,18)"><path d="m 0,0 c 0,-7 3,-4 3,-7 0,0 0,-2 -2,-2 l -26,0 c -2,0 -2,2 -2,2 0,3 3,0 3,7 0,5.523 6.477,8 12,8 C -6.477,8 0,5.523 0,0" id="path24" style="fill:#ffac33;fill-opacity:1;fill-rule:nonzero;stroke:none"/></g><g id="g26" transform="translate(21,26)"><path d="m 0,0 c 0,1.657 -1.344,3 -3,3 -1.657,0 -3,-1.343 -3,-3 0,-1.657 1.343,-3 3,-3 1.656,0 3,1.343 3,3" id="path28" style="fill:#ffac33;fill-opacity:1;fill-rule:nonzero;stroke:none"/></g><g id="g30" transform="translate(35,3)"><path d="m 0,0 c 0,-1.105 -0.895,-2 -2,-2 l -30,0 c -1.104,0 -2,0.895 -2,2 0,1.105 0.896,2 2,2 L -2,2 C -0.895,2 0,1.105 0,0" id="path32" style="fill:#c1694f;fill-opacity:1;fill-rule:nonzero;stroke:none"/></g><g id="g34" transform="translate(33,5)"><path d="m 0,0 c 0,-1.105 -0.895,-2 -2,-2 l -26,0 c -1.104,0 -2,0.895 -2,2 0,1.105 0.896,2 2,2 L -2,2 C -0.895,2 0,1.105 0,0" id="path36" style="fill:#c1694f;fill-opacity:1;fill-rule:nonzero;stroke:none"/></g></g></g></g></svg>