<?xml version="1.0" encoding="UTF-8" standalone="no"?><svg xmlns="http://www.w3.org/2000/svg" xmlns:cc="http://creativecommons.org/ns#" xmlns:dc="http://purl.org/dc/elements/1.1/" xmlns:rdf="http://www.w3.org/1999/02/22-rdf-syntax-ns#" xmlns:svg="http://www.w3.org/2000/svg" height="45" id="svg2" style="enable-background:new 0 0 45 45;" version="1.1" viewBox="0 0 45 45" width="45" xml:space="preserve"><metadata id="metadata8"><rdf:RDF><cc:Work rdf:about=""><dc:format>image/svg+xml</dc:format><dc:type rdf:resource="http://purl.org/dc/dcmitype/StillImage"/></cc:Work></rdf:RDF></metadata><defs id="defs6"><clipPath clipPathUnits="userSpaceOnUse" id="clipPath16"><path d="M 0,36 36,36 36,0 0,0 0,36 Z" id="path18"/></clipPath><clipPath clipPathUnits="userSpaceOnUse" id="clipPath140"><path d="M 4,31 C 1.791,31 0,29.209 0,27 l 0,0 0,-9 19,0 0,13 -15,0 z" id="path142"/></clipPath><clipPath clipPathUnits="userSpaceOnUse" id="clipPath156"><path d="M 0,36 36,36 36,0 0,0 0,36 Z" id="path158"/></clipPath></defs><g id="g10" transform="matrix(1.25,0,0,-1.25,0,45)"><g id="g12"><g clip-path="url(#clipPath16)" id="g14"><g id="g20" transform="translate(36,9)"><path d="m 0,0 c 0,-2.209 -1.791,-4 -4,-4 l -28,0 c -2.209,0 -4,1.791 -4,4 l 0,18 c 0,2.209 1.791,4 4,4 l 28,0 c 2.209,0 4,-1.791 4,-4 L 0,0 Z" id="path22" style="fill:#68bfe5;fill-opacity:1;fill-rule:nonzero;stroke:none"/></g><g id="g24" transform="translate(27.6465,24.375)"><path d="m 0,0 -4.875,0 0,-8.25 c 0,-2.791 4.875,-4.354 4.875,-4.354 0,0 4.875,1.563 4.875,4.354 L 4.875,0 0,0 Z" id="path26" style="fill:#000000;fill-opacity:1;fill-rule:nonzero;stroke:none"/></g><g id="g28" transform="translate(27.6465,11.9814)"><path d="m 0,0 c -0.555,0.191 -4.675,1.694 -4.675,4.144 l 0,8.049 9.35,0 0,-8.049 C 4.675,1.694 0.555,0.191 0,0" id="path30" style="fill:#ffffff;fill-opacity:1;fill-rule:nonzero;stroke:none"/></g><path d="m 32.321,24.175 -9.35,0 0,-3.071 9.35,0 0,3.071 z" id="path32" style="fill:#d21034;fill-opacity:1;fill-rule:nonzero;stroke:none"/><g id="g34" transform="translate(26.9795,12.2373)"><path d="m 0,0 c 0.317,-0.132 0.56,-0.219 0.667,-0.256 0.104,0.036 0.338,0.12 0.645,0.247 l 0,9.167 L 0,9.158 0,0 Z" id="path36" style="fill:#d21034;fill-opacity:1;fill-rule:nonzero;stroke:none"/></g><path d="m 32.321,16.396 -9.35,0 0,1.312 9.35,0 0,-1.312 z" id="path38" style="fill:#d21034;fill-opacity:1;fill-rule:nonzero;stroke:none"/><g id="g40" transform="translate(24.1836,22.3076)"><path d="m 0,0 c 0,-0.275 -0.257,-0.498 -0.572,-0.498 -0.317,0 -0.572,0.223 -0.572,0.498 0,0.275 0.255,0.498 0.572,0.498 C -0.257,0.498 0,0.275 0,0" id="path42" style="fill:#ffffff;fill-opacity:1;fill-rule:nonzero;stroke:none"/></g><g id="g44" transform="translate(23.7188,22.7031)"><path d="m 0,0 c -0.326,-0.057 -0.484,0.141 -0.422,0.328 0.063,0.188 0.375,0.359 0.672,0.391 0.297,0.031 0.578,-0.266 0.812,-0.282 0.235,-0.015 0.36,0.115 0.407,0.284 0.047,0.17 0.375,0.557 0.172,0.654 0.265,0 0.265,-0.281 0.265,-0.281 0,0 0.297,0.297 0.516,0.281 0.125,-0.219 0,-0.531 0,-0.531 0,0 0.312,0.125 0.531,-0.016 C 2.531,0.766 2.469,0.516 2.469,0.516 c 0,0 0.078,-0.204 -0.031,-0.313 -0.11,-0.109 0.859,-0.312 1.39,-0.156 0.531,0.156 1.547,0.515 2.203,0.515 0.656,0 0.797,-0.25 0.953,-0.031 C 7.141,0.75 6.797,0.984 6.234,0.937 5.672,0.891 4.719,0.239 4.344,0.674 4.25,0.674 4.203,0.562 4.203,0.562 c 0,0 -0.234,0.079 -0.469,0.204 C 3.5,0.891 3.547,0.469 3.672,0.406 3.281,0.422 3.294,0.674 3.294,0.674 c 0,0 -0.481,0.357 -0.169,0.623 C 3.148,0.812 3.578,0.953 3.813,1.047 4.047,1.141 4.344,1.062 4.484,0.937 4.625,0.812 5.031,0.703 5.547,1 6.062,1.297 7.453,1.406 7.469,0.781 7.484,0.156 6.781,0.109 6.781,0.109 c 0,0 0.078,-0.375 0.516,-0.296 0.437,0.078 0.719,0.203 0.844,-0.141 C 8.266,-0.672 8.547,-0.687 8.453,-0.969 8.359,-1.25 8.047,-1.381 7.625,-1.308 7.203,-1.234 7.156,-1.062 7.5,-1 c 0.344,0.063 0.406,0.328 0.281,0.391 -0.125,0.062 -0.359,-0.188 -0.672,-0.063 -0.312,0.125 -0.718,0.375 -0.718,0.375 0,0 0.015,-0.172 -0.266,-0.265 C 5.844,-0.656 6.078,-0.766 6.156,-0.937 6.234,-1.109 5.875,-1.249 5.5,-1.328 5.125,-1.406 4.844,-1.609 4.484,-1.172 c -0.359,0.438 0.094,0.563 0.282,0.422 0.187,-0.141 0.375,-0.391 0.531,-0.266 0.156,0.125 -0.11,0.204 -0.141,0.438 -0.031,0.234 0.016,0.515 0.016,0.515 0,0 -0.5,-0.781 -1.563,-0.937 -1.062,-0.156 -1.25,-0.156 -1.25,-0.156 l -0.312,0.219 -0.375,-0.25 -0.016,0.281 c 0,0 -0.594,-0.466 -0.906,-0.538 -0.313,-0.072 -1.166,0.132 -1.185,0.366 -0.018,0.234 0.076,0.344 0.357,0.437 0.281,0.094 0.328,-0.062 0.469,-0.187 0.14,-0.125 0.296,-0.297 0.5,-0.125 0.203,0.172 0.312,0.234 0.312,0.234 l 0.063,0.297 -0.297,0.016 0.109,0.343 c 0,0 -0.219,-0.046 -0.375,0.094 C 0.547,0.172 0.531,0.312 0.391,0.266 0.25,0.219 0.359,0.062 0,0" id="path46" style="fill:#ffd101;fill-opacity:1;fill-rule:nonzero;stroke:none"/></g><g id="g48" transform="translate(24.4688,18.1719)"><path d="M 0,0 C -0.266,-0.109 -0.672,0.766 -0.437,1.016 -0.203,1.266 0.266,0.109 0,0" id="path50" style="fill:#964b36;fill-opacity:1;fill-rule:nonzero;stroke:none"/></g><g id="g52" transform="translate(24.9844,18.2812)"><path d="M 0,0 C -0.249,-0.022 -0.156,1.187 0,1.187 0.156,1.187 0.344,0.031 0,0" id="path54" style="fill:#964b36;fill-opacity:1;fill-rule:nonzero;stroke:none"/></g><g id="g56" transform="translate(25.4219,18.0903)"><path d="M 0,0 C -0.311,0.057 0.156,0.785 0.281,0.785 0.406,0.785 0.359,-0.066 0,0" id="path58" style="fill:#964b36;fill-opacity:1;fill-rule:nonzero;stroke:none"/></g><g id="g60" transform="translate(30.3594,17.8906)"><path d="m 0,0 c -0.609,-0.017 -0.266,0.107 -0.203,0.272 0.062,0.165 0.025,1.4 0.025,1.4 l 0.35,0 c 0,0 -0.11,-1.064 0,-1.282 C 0.281,0.172 0.562,0.016 0,0" id="path62" style="fill:#964b36;fill-opacity:1;fill-rule:nonzero;stroke:none"/></g><g id="g64" transform="translate(31.5625,15.7344)"><path d="m 0,0 c 0.145,0.162 -0.219,0.422 -0.469,0.422 -0.25,0 -0.533,-0.141 -0.743,-0.734 -0.21,-0.594 0.235,-0.422 0.349,-0.094 0.113,0.328 0.207,0.515 0.379,0.531 C -0.312,0.141 -0.25,-0.281 0,0" id="path66" style="fill:#964b36;fill-opacity:1;fill-rule:nonzero;stroke:none"/></g><g id="g68" transform="translate(29.1719,13.6562)"><path d="m 0,0 c -0.321,0.023 -0.594,-0.812 -0.594,-0.812 0,0 1.438,0.75 0.594,0.812" id="path70" style="fill:#964b36;fill-opacity:1;fill-rule:nonzero;stroke:none"/></g><g id="g72" transform="translate(24.1836,18.875)"><path d="m 0,0 c 0.078,-0.249 -0.715,0.04 -0.73,-0.394 -0.329,0.05 0.14,0.691 0.437,0.597 -0.062,0.344 -0.506,0.484 -0.55,-0.078 -0.497,0.437 0.136,0.859 0.421,0.672 -0.152,0.531 -0.443,0.522 -0.479,0.203 -0.376,0.312 0.003,0.812 0.329,0.578 0.326,-0.234 0.349,-0.484 0.349,-0.484 0,0 0.227,0.808 0.805,0.545 C -0.116,1.343 -0.254,0.812 0,0" id="path74" style="fill:#00a651;fill-opacity:1;fill-rule:nonzero;stroke:none"/></g><g id="g76" transform="translate(25.0039,19.2227)"><path d="m 0,0 c -0.207,0.199 -0.332,0.418 -0.332,0.418 0,0 0.221,-0.594 -0.124,-0.844 0.015,0.547 -0.36,0.735 -0.157,0.953 0.203,0.219 0.547,0 0.547,0 0,0 0.081,0.128 -0.271,0.438 -0.352,0.31 -0.604,0.297 -0.62,0.562 C -0.605,1.318 -0.064,1.316 0,0.73 0.074,1.434 0.391,1.449 0.537,1.465 0.684,1.48 1.027,1.402 1.152,1.527 1.152,1.277 0.871,1.355 0.684,1.277 0.934,1.105 0.949,0.551 0.949,0.551 c 0,0 -0.359,0.633 -0.515,0.586 C 0.277,1.09 0.174,0.621 0.174,0.621 c 0,0 0.571,0.017 0.363,-0.75 C 0.449,0.293 0.355,0.34 0.246,0.34 0.137,0.34 0,0 0,0" id="path78" style="fill:#00a651;fill-opacity:1;fill-rule:nonzero;stroke:none"/></g><g id="g80" transform="translate(25.541,18.6929)"><path d="M 0,0 C 0.021,0.292 0.162,0.792 0.318,0.831 0.37,1.151 0.537,1.604 0.881,1.682 1.225,1.76 1.303,1.401 1.225,1.198 1.021,1.495 0.74,1.573 0.678,0.87 0.975,0.948 1.146,0.713 1.068,0.401 0.787,0.729 0.584,0.768 0.459,0.53 0.787,0.401 0.793,0.12 0.626,-0.115 0.553,0.292 0.336,0.26 0.221,-0.115 0.105,-0.489 0,0 0,0" id="path82" style="fill:#00a651;fill-opacity:1;fill-rule:nonzero;stroke:none"/></g><g id="g84" transform="translate(30.2949,19.2227)"><path d="m 0,0 c -0.357,0 -0.826,-0.369 -0.857,-0.942 -0.375,0.563 0.084,1.188 0.565,1.407 -0.847,-0.016 -1.159,-0.391 -1.269,-0.703 -0.109,0.828 0.944,1.156 1.269,1.015 -0.206,0.36 -1.019,0.329 -1.425,0.032 0,0.687 1.215,0.852 1.717,0.231 -0.061,0.503 0.143,0.628 0.143,0.628 l 0,-0.672 c 0,0 1.13,1.063 1.752,-0.219 C 0.893,1.293 0.404,0.762 0.404,0.762 c 0,0 1.039,0.25 0.897,-0.953 -0.33,0.734 -1.018,0.656 -1.018,0.656 0,0 0.797,-0.361 0.485,-1.251 C 0.455,0.074 0,0 0,0" id="path86" style="fill:#00a651;fill-opacity:1;fill-rule:nonzero;stroke:none"/></g><g id="g88" transform="translate(29.5313,15.3125)"><path d="m 0,0 c -0.047,0.469 0.547,0.734 0.547,0.734 0,0 1,-0.609 1.14,-0.734 C 1.828,-0.125 1.602,-0.648 1.168,-0.785 0.734,-0.922 0,0 0,0" id="path90" style="fill:#fff202;fill-opacity:1;fill-rule:nonzero;stroke:none"/></g><g id="g92" transform="translate(29.2559,13.6445)"><path d="M 0,0 C -0.235,0.148 -0.385,0.98 0,1.059 -0.146,1.559 0.166,1.809 0.275,1.84 0.385,1.871 0.789,1.687 1.095,1.396 1.4,1.105 1.666,1.035 1.689,0.922 1.713,0.809 1.498,0.465 1.129,0.434 1.244,0.09 0.365,-0.23 0,0" id="path94" style="fill:#00a651;fill-opacity:1;fill-rule:nonzero;stroke:none"/></g><g id="g96" transform="translate(24.0469,15.5928)"><path d="m 0,0 c 0,0 0.234,0.095 0.375,0.235 0.141,0.141 0.328,0.141 0.484,-0.117 0.157,-0.258 0.272,-0.586 0.272,-0.586 0,0 -0.053,0.469 0.431,0.719 0.485,0.25 0.558,0.312 0.558,0.312 L 1.953,-0.105 c 0,0 0.578,0.356 0.672,0.559 0.125,-0.797 -0.469,-1.367 -0.844,-1.52 0.203,-0.339 0.11,-0.621 0.11,-0.621 l 0.687,-0.562 -0.75,-0.234 -0.334,0.718 c 0,0 -0.867,-0.031 -0.993,0.625 -0.126,0.657 0.173,1.008 0,1.035 C 0.328,-0.077 0,0 0,0" id="path98" style="fill:#000000;fill-opacity:1;fill-rule:nonzero;stroke:none"/></g><g id="g100" transform="translate(25.6035,13.9307)"><path d="m 0,0 -0.067,-0.003 c -0.147,0 -0.791,0.028 -0.89,0.544 -0.066,0.343 -0.01,0.597 0.028,0.765 C -0.9,1.435 -0.882,1.52 -0.93,1.59 l -0.024,0.036 -0.086,0.03 c -0.064,0.01 -0.148,0.028 -0.23,0.045 0.055,0.035 0.112,0.078 0.159,0.126 0.03,0.029 0.076,0.065 0.128,0.065 0.065,0 0.136,-0.058 0.2,-0.163 0.149,-0.247 0.262,-0.565 0.263,-0.568 l 0.194,0.044 C -0.328,1.222 -0.362,1.61 0.052,1.824 0.209,1.905 0.323,1.967 0.407,2.014 L 0.24,1.344 0.449,1.473 C 0.52,1.517 0.794,1.688 0.984,1.863 0.964,1.225 0.451,0.797 0.187,0.689 L 0.079,0.646 0.139,0.545 C 0.314,0.253 0.242,0.017 0.239,0.007 L 0.219,-0.059 0.814,-0.547 0.325,-0.7 0,0 Z" id="path102" style="fill:#ffffff;fill-opacity:1;fill-rule:nonzero;stroke:none"/></g><g id="g104" transform="translate(24.2549,15.7012)"><path d="m 0,0 c -0.114,0.268 -0.114,0.268 -0.294,0.346 -0.008,-0.172 0,-0.282 0,-0.282 0,0 -0.101,0.329 -0.258,0.282 -0.093,-0.375 0.242,-0.454 0.242,-0.454 0,0 -0.148,-0.048 -0.132,-0.313 0.265,-0.108 0.234,0.126 0.234,0.126 0,0 -0.055,-0.24 0.137,-0.378 C 0.058,-0.467 0,0 0,0" id="path106" style="fill:#00a651;fill-opacity:1;fill-rule:nonzero;stroke:none"/></g><g id="g108" transform="translate(19,31)"><path d="m 0,0 -15,0 c -2.209,0 -4,-1.791 -4,-4 l 0,-9 19,0 0,13 z" id="path110" style="fill:#00247d;fill-opacity:1;fill-rule:nonzero;stroke:none"/></g><g id="g112" transform="translate(19,18)"><path d="M 0,0 0,2.029 -7.1,7 -12.329,7 -2.332,0 0,0 Z" id="path114" style="fill:#eeeeee;fill-opacity:1;fill-rule:nonzero;stroke:none"/></g><g id="g116" transform="translate(19,19.418)"><path d="m 0,0 -7.971,5.582 -1.743,0 L 0,-1.22 0,0 Z" id="path118" style="fill:#cf1b2b;fill-opacity:1;fill-rule:nonzero;stroke:none"/></g><g id="g120" transform="translate(8.0996,25)"><path d="M 0,0 -8.1,-5.766 -8.1,-7 -4.768,-7 5.23,0 0,0 Z" id="path122" style="fill:#eeeeee;fill-opacity:1;fill-rule:nonzero;stroke:none"/></g><g id="g124" transform="translate(10.7139,25)"><path d="m 0,0 -9.98,-7 0.266,0 1.461,0 L 1.744,0 0,0 Z" id="path126" style="fill:#cf1b2b;fill-opacity:1;fill-rule:nonzero;stroke:none"/></g><g id="g128" transform="translate(16.6689,31)"><path d="m 0,0 -9.997,-7 5.229,0 7.099,4.971 L 2.331,0 0,0 Z" id="path130" style="fill:#eeeeee;fill-opacity:1;fill-rule:nonzero;stroke:none"/></g><g id="g132" transform="translate(17.5391,31)"><path d="m 0,0 -9.996,-7 1.743,0 9.714,6.802 L 1.461,0 0,0 Z" id="path134" style="fill:#cf1b2b;fill-opacity:1;fill-rule:nonzero;stroke:none"/></g></g></g><g id="g136"><g clip-path="url(#clipPath140)" id="g138"><g id="g144" transform="translate(10,24)"><path d="M 0,0 3.328,0 -6.668,7 -9,7 -9.625,5.406 0,-1.331 0,0 Z" id="path146" style="fill:#eeeeee;fill-opacity:1;fill-rule:nonzero;stroke:none"/></g><g id="g148" transform="translate(10,24)"><path d="M 0,0 0.714,0 -9,6.802 -9.5,5.937 0,-0.722 0,0 Z" id="path150" style="fill:#cf1b2b;fill-opacity:1;fill-rule:nonzero;stroke:none"/></g></g></g><g id="g152"><g clip-path="url(#clipPath156)" id="g154"><g id="g160" transform="translate(19,27)"><path d="m 0,0 -7,0 0,4 -5,0 0,-4 -7,0 0,-5 7,0 0,-4 5,0 0,4 7,0 0,5 z" id="path162" style="fill:#eeeeee;fill-opacity:1;fill-rule:nonzero;stroke:none"/></g><path d="m 11,18 -3,0 0,13 3,0 0,-13 z" id="path164" style="fill:#cf1b2b;fill-opacity:1;fill-rule:nonzero;stroke:none"/><path d="m 19,23 -19,0 0,3 19,0 0,-3 z" id="path166" style="fill:#cf1b2b;fill-opacity:1;fill-rule:nonzero;stroke:none"/></g></g></g></svg>