<?xml version="1.0" encoding="UTF-8" standalone="no"?><svg xmlns="http://www.w3.org/2000/svg" xmlns:cc="http://creativecommons.org/ns#" xmlns:dc="http://purl.org/dc/elements/1.1/" xmlns:rdf="http://www.w3.org/1999/02/22-rdf-syntax-ns#" xmlns:svg="http://www.w3.org/2000/svg" height="45" id="svg2" style="enable-background:new 0 0 45 45;" version="1.1" viewBox="0 0 45 45" width="45" xml:space="preserve"><metadata id="metadata8"><rdf:RDF><cc:Work rdf:about=""><dc:format>image/svg+xml</dc:format><dc:type rdf:resource="http://purl.org/dc/dcmitype/StillImage"/></cc:Work></rdf:RDF></metadata><defs id="defs6"><clipPath clipPathUnits="userSpaceOnUse" id="clipPath16"><path d="M 0,36 36,36 36,0 0,0 0,36 Z" id="path18"/></clipPath></defs><g id="g10" transform="matrix(1.25,0,0,-1.25,0,45)"><g id="g12"><g clip-path="url(#clipPath16)" id="g14"><g id="g20" transform="translate(31,36)"><path d="m 0,0 -26,0 c -2.209,0 -4,-1.791 -4,-4 l 0,-6 0,-16 0,-6 c 0,-2.209 1.791,-4 4,-4 l 26,0 c 2.209,0 4,1.791 4,4 l 0,6 0,16 0,6 C 4,-1.791 2.209,0 0,0" id="path22" style="fill:#292f33;fill-opacity:1;fill-rule:nonzero;stroke:none"/></g><g id="g24" transform="translate(14,25)"><path d="m 0,0 c 0,-2.209 -1.791,-4 -4,-4 l -1,0 c -2.209,0 -4,1.791 -4,4 l 0,2 c 0,2.209 1.791,4 4,4 l 1,0 C -1.791,6 0,4.209 0,2 L 0,0 Z" id="path26" style="fill:#292f33;fill-opacity:1;fill-rule:nonzero;stroke:none"/></g><g id="g28" transform="translate(22,9)"><path d="m 0,0 c 0,-1.104 -0.895,-2 -2,-2 l -15,0 c -1.104,0 -2,0.896 -2,2 l 0,8 c 0,1.105 0.896,2 2,2 l 15,0 C -0.895,10 0,9.105 0,8 L 0,0 Z" id="path30" style="fill:#be1931;fill-opacity:1;fill-rule:nonzero;stroke:none"/></g><g id="g32" transform="translate(33,17)"><path d="M 0,0 C 0,1.105 -0.895,2 -2,2 L -7,2 C -8.104,2 -9,1.105 -9,0 l 0,-8 c 0,-1.104 0.896,-2 2,-2 l 5,0 c 1.105,0 2,0.896 2,2 l 0,8 z" id="path34" style="fill:#be1931;fill-opacity:1;fill-rule:nonzero;stroke:none"/></g><g id="g36" transform="translate(16,32)"><path d="m 0,0 c 0,1.104 0.896,2 2,2 l 13,0 c 1.105,0 2,-0.896 2,-2 l 0,-9 c 0,-1.104 -0.895,-2 -2,-2 l -13,0 c -1.104,0 -2,0.896 -2,2 l 0,9 z" id="path38" style="fill:#be1931;fill-opacity:1;fill-rule:nonzero;stroke:none"/></g><g id="g40" transform="translate(14,23)"><path d="m 0,0 c 0,-1.104 -0.895,-2 -2,-2 l -7,0 c -1.104,0 -2,0.896 -2,2 l 0,9 c 0,1.104 0.896,2 2,2 l 7,0 c 1.105,0 2,-0.896 2,-2 L 0,0 Z" id="path42" style="fill:#be1931;fill-opacity:1;fill-rule:nonzero;stroke:none"/></g><g id="g44" transform="translate(14,23)"><path d="m 0,0 c 0,-1.104 -0.895,-2 -2,-2 l -7,0 c -1.104,0 -2,0.896 -2,2 l 0,6 c 0,1.104 0.896,2 2,2 l 7,0 C -0.895,8 0,7.104 0,6 L 0,0 Z" id="path46" style="fill:#dd2e44;fill-opacity:1;fill-rule:nonzero;stroke:none"/></g><g id="g48" transform="translate(33,23)"><path d="m 0,0 c 0,-1.104 -0.895,-2 -2,-2 l -13,0 c -1.104,0 -2,0.896 -2,2 l 0,6 c 0,1.104 0.896,2 2,2 L -2,8 C -0.895,8 0,7.104 0,6 L 0,0 Z" id="path50" style="fill:#dd2e44;fill-opacity:1;fill-rule:nonzero;stroke:none"/></g><g id="g52" transform="translate(22,9)"><path d="m 0,0 c 0,-1.104 -0.895,-2 -2,-2 l -15,0 c -1.104,0 -2,0.896 -2,2 l 0,5 c 0,1.105 0.896,2 2,2 L -2,7 C -0.895,7 0,6.105 0,5 L 0,0 Z" id="path54" style="fill:#e1e8ed;fill-opacity:1;fill-rule:nonzero;stroke:none"/></g><g id="g56" transform="translate(33,9)"><path d="m 0,0 c 0,-1.104 -0.895,-2 -2,-2 l -5,0 c -1.104,0 -2,0.896 -2,2 l 0,5 c 0,1.105 0.896,2 2,2 l 5,0 C -0.895,7 0,6.105 0,5 L 0,0 Z" id="path58" style="fill:#dd2e44;fill-opacity:1;fill-rule:nonzero;stroke:none"/></g><g id="g60" transform="translate(27.0146,26.7598)"><path d="M 0,0 C 1.315,-1.478 1.908,-3.098 1.322,-3.619 L 0.264,-4.56 c -0.585,-0.522 -2.126,0.255 -3.441,1.733 l -3.571,4.013 c -1.314,1.479 -1.907,3.099 -1.321,3.62 l 1.059,0.941 c 0.586,0.521 2.124,-0.255 3.439,-1.733 L 0,0 Z" id="path62" style="fill:#ffac33;fill-opacity:1;fill-rule:nonzero;stroke:none"/></g><g id="g64" transform="translate(22.2803,24.9238)"><path d="m 0,0 c -0.598,-1.538 -1.477,-2.633 -1.961,-2.444 l -0.877,0.342 c -0.485,0.188 -0.392,1.588 0.205,3.125 l 1.625,4.178 c 0.599,1.538 1.477,2.633 1.962,2.444 L 1.83,7.304 C 2.315,7.115 2.224,5.715 1.625,4.177 L 0,0 Z" id="path66" style="fill:#ffd983;fill-opacity:1;fill-rule:nonzero;stroke:none"/></g><g id="g68" transform="translate(23.1133,24.4639)"><path d="m 0,0 c -1.562,-0.535 -2.965,-0.568 -3.133,-0.076 l -0.305,0.891 c -0.168,0.492 0.962,1.324 2.523,1.858 l 4.242,1.45 C 4.889,4.656 6.291,4.69 6.46,4.197 L 6.764,3.308 C 6.933,2.815 5.803,1.983 4.241,1.45 L 0,0 Z" id="path70" style="fill:#ffd983;fill-opacity:1;fill-rule:nonzero;stroke:none"/></g><g id="g72" transform="translate(6.4424,28.127)"><path d="M 0,0 C 0.373,4.106 4.907,0.961 7.135,-1.049 5.795,-2.534 -0.452,-4.979 0,0" id="path74" style="fill:#5c913b;fill-opacity:1;fill-rule:nonzero;stroke:none"/></g><g id="g76" transform="translate(6.5845,28.2158)"><path d="M 0,0 C 3.739,1.737 3.293,-3.763 2.672,-6.698 0.716,-6.284 -4.534,-2.108 0,0" id="path78" style="fill:#5c913b;fill-opacity:1;fill-rule:nonzero;stroke:none"/></g><g id="g80" transform="translate(5,28)"><path d="M 0,0 C -1.2,1.6 1,5 6,5 7,4 3,-4 0,0" id="path82" style="fill:#77b255;fill-opacity:1;fill-rule:nonzero;stroke:none"/></g><g id="g84" transform="translate(6,9)"><path d="m 0,0 c -0.256,0 -0.512,0.098 -0.707,0.293 -0.391,0.391 -0.391,1.023 0,1.414 l 1,1 c 0.391,0.391 1.023,0.391 1.414,0 0.391,-0.391 0.391,-1.023 0,-1.414 l -1,-1 C 0.512,0.098 0.256,0 0,0" id="path86" style="fill:#b2c2cc;fill-opacity:1;fill-rule:nonzero;stroke:none"/></g><g id="g88" transform="translate(18.417,8.501)"><path d="m 0,0 c -0.256,0 -0.512,0.098 -0.707,0.293 l -1.001,1 c -0.39,0.391 -0.39,1.023 0,1.414 0.391,0.391 1.024,0.391 1.414,0 l 1.001,-1 C 1.098,1.316 1.098,0.684 0.707,0.293 0.512,0.098 0.256,0 0,0" id="path90" style="fill:#b2c2cc;fill-opacity:1;fill-rule:nonzero;stroke:none"/></g><g id="g92" transform="translate(12.2505,12.792)"><path d="M 0,0 C -0.255,0 -0.511,0.098 -0.707,0.292 L -1.165,0.75 c -0.391,0.391 -0.392,1.023 -0.002,1.414 0.389,0.392 1.023,0.392 1.414,0.002 L 0.706,1.708 C 1.097,1.317 1.098,0.685 0.708,0.294 0.513,0.098 0.256,0 0,0" id="path94" style="fill:#b2c2cc;fill-opacity:1;fill-rule:nonzero;stroke:none"/></g><g id="g96" transform="translate(32.1494,12.5879)"><path d="m 0,0 c 0.707,-0.848 0.592,-2.109 -0.257,-2.816 l -2.304,-1.921 c -0.848,-0.707 -2.11,-0.592 -2.817,0.257 l -1.921,2.304 c -0.707,0.848 -0.592,2.11 0.257,2.817 l 2.305,1.92 c 0.847,0.707 2.109,0.592 2.816,-0.256 L 0,0 Z" id="path98" style="fill:#b26304;fill-opacity:1;fill-rule:nonzero;stroke:none"/></g><g id="g100" transform="translate(32.1494,14.5879)"><path d="m 0,0 c 0.707,-0.848 0.592,-2.109 -0.257,-2.816 l -2.304,-1.921 c -0.848,-0.707 -2.11,-0.592 -2.817,0.257 l -1.921,2.304 c -0.707,0.848 -0.592,2.11 0.257,2.817 l 2.305,1.92 c 0.847,0.707 2.109,0.592 2.816,-0.256 L 0,0 Z" id="path102" style="fill:#f4900c;fill-opacity:1;fill-rule:nonzero;stroke:none"/></g><g id="g104" transform="translate(13,10)"><path d="m 0,0 c 0,-0.553 -0.448,-1 -1,-1 -0.552,0 -1,0.447 -1,1 0,0.553 0.448,1 1,1 0.552,0 1,-0.447 1,-1" id="path106" style="fill:#ccd6dd;fill-opacity:1;fill-rule:nonzero;stroke:none"/></g><g id="g108" transform="translate(21,14)"><path d="m 0,0 c 0,-0.553 -0.447,-1 -1,-1 -0.553,0 -1,0.447 -1,1 0,0.553 0.447,1 1,1 0.553,0 1,-0.447 1,-1" id="path110" style="fill:#ccd6dd;fill-opacity:1;fill-rule:nonzero;stroke:none"/></g></g></g></g></svg>