<?xml version="1.0" encoding="UTF-8" standalone="no"?><svg xmlns="http://www.w3.org/2000/svg" xmlns:cc="http://creativecommons.org/ns#" xmlns:dc="http://purl.org/dc/elements/1.1/" xmlns:rdf="http://www.w3.org/1999/02/22-rdf-syntax-ns#" xmlns:svg="http://www.w3.org/2000/svg" height="45" id="svg2" style="enable-background:new 0 0 45 45;" version="1.1" viewBox="0 0 45 45" width="45" xml:space="preserve"><metadata id="metadata8"><rdf:RDF><cc:Work rdf:about=""><dc:format>image/svg+xml</dc:format><dc:type rdf:resource="http://purl.org/dc/dcmitype/StillImage"/></cc:Work></rdf:RDF></metadata><defs id="defs6"><clipPath clipPathUnits="userSpaceOnUse" id="clipPath16"><path d="M 4,31 C 1.791,31 0,29.209 0,27 L 0,27 0,9 C 0,6.791 1.791,5 4,5 l 0,0 28,0 c 2.209,0 4,1.791 4,4 l 0,0 0,18 c 0,2.209 -1.791,4 -4,4 l 0,0 -28,0 z" id="path18"/></clipPath></defs><g id="g10" transform="matrix(1.25,0,0,-1.25,0,45)"><g id="g12"><g clip-path="url(#clipPath16)" id="g14"><g id="g20" transform="translate(0,31)"><path d="m 0,0 9,-6.5 27,0 L 36,0 0,0 Z" id="path22" style="fill:#ffc61e;fill-opacity:1;fill-rule:nonzero;stroke:none"/></g><g id="g24" transform="translate(18,18)"><path d="M 0,0 18,0 18,6.5 -9,6.5 0,0 Z" id="path26" style="fill:#eeeeee;fill-opacity:1;fill-rule:nonzero;stroke:none"/></g><g id="g28" transform="translate(9,11.5)"><path d="M 0,0 27,0 27,6.5 9,6.5 0,0 Z" id="path30" style="fill:#ce1126;fill-opacity:1;fill-rule:nonzero;stroke:none"/></g><g id="g32" transform="translate(0,5)"><path d="M 0,0 36,0 36,6.5 9,6.5 0,0 Z" id="path34" style="fill:#3a75c4;fill-opacity:1;fill-rule:nonzero;stroke:none"/></g><g id="g36" transform="translate(18,18)"><path d="m 0,0 -9,6.5 -9,6.5 0,-6.5 0,-6.5 0,-6.5 0,-6.5 9,6.5 9,6.5 z" id="path38" style="fill:#3d8e33;fill-opacity:1;fill-rule:nonzero;stroke:none"/></g><g id="g40" transform="translate(3.926,18)"><path d="M 0,0 C 0,2.627 1.837,4.822 4.295,5.38 3.899,5.47 3.49,5.522 3.068,5.522 0.018,5.522 -2.454,3.05 -2.454,0 c 0,-3.05 2.472,-5.522 5.522,-5.522 0.422,0 0.831,0.052 1.227,0.142 C 1.837,-4.822 0,-2.627 0,0" id="path42" style="fill:#ffffff;fill-opacity:1;fill-rule:nonzero;stroke:none"/></g><g id="g44" transform="translate(7.2482,14.3639)"><path d="M 0,0 0.743,0 0.972,0.707 1.202,0 1.945,0 1.344,-0.437 1.573,-1.143 0.972,-0.707 0.371,-1.143 0.601,-0.437 0,0 Z m 0.743,2.635 0.229,0.706 0.23,-0.706 0.743,0 L 1.344,2.198 1.573,1.491 0.972,1.928 0.371,1.491 0.601,2.198 0,2.635 l 0.743,0 z m 0,2.634 0.229,0.707 0.23,-0.707 0.743,0 L 1.344,4.833 1.573,4.126 0.972,4.563 0.371,4.126 0.601,4.833 0,5.269 l 0.743,0 z m 0,2.635 0.229,0.707 0.23,-0.707 0.743,0 L 1.344,7.468 1.573,6.761 0.972,7.198 0.371,6.761 0.601,7.468 0,7.904 l 0.743,0 z" id="path46" style="fill:#3d8e33;fill-opacity:1;fill-rule:nonzero;stroke:none"/></g><g id="g48" transform="translate(7.6197,21.1249)"><path d="M 0,0 0.601,0.437 1.202,0 0.972,0.707 1.573,1.143 0.83,1.143 0.601,1.85 0.371,1.143 l -0.742,0 0.6,-0.436 L 0,0 Z" id="path50" style="fill:#ffffff;fill-opacity:1;fill-rule:nonzero;stroke:none"/></g><g id="g52" transform="translate(7.6197,18.4901)"><path d="M 0,0 0.601,0.437 1.202,0 0.972,0.707 1.573,1.143 0.83,1.143 0.601,1.85 0.371,1.143 l -0.742,0 0.6,-0.436 L 0,0 Z" id="path54" style="fill:#ffffff;fill-opacity:1;fill-rule:nonzero;stroke:none"/></g><g id="g56" transform="translate(7.6197,15.8554)"><path d="M 0,0 0.601,0.437 1.202,0 0.972,0.707 1.573,1.143 0.83,1.143 0.601,1.85 0.371,1.143 l -0.742,0 0.6,-0.436 L 0,0 Z" id="path58" style="fill:#ffffff;fill-opacity:1;fill-rule:nonzero;stroke:none"/></g><g id="g60" transform="translate(8.2207,13.6573)"><path d="M 0,0 0.601,-0.437 0.371,0.27 0.972,0.707 0.229,0.707 0,1.413 -0.23,0.707 -0.972,0.707 -0.371,0.27 -0.601,-0.437 0,0 Z" id="path62" style="fill:#ffffff;fill-opacity:1;fill-rule:nonzero;stroke:none"/></g></g></g></g></svg>