<?xml version="1.0" encoding="UTF-8" standalone="no"?><svg xmlns="http://www.w3.org/2000/svg" xmlns:cc="http://creativecommons.org/ns#" xmlns:dc="http://purl.org/dc/elements/1.1/" xmlns:rdf="http://www.w3.org/1999/02/22-rdf-syntax-ns#" xmlns:svg="http://www.w3.org/2000/svg" height="45" id="svg2" style="enable-background:new 0 0 45 45;" version="1.1" viewBox="0 0 45 45" width="45" xml:space="preserve"><metadata id="metadata8"><rdf:RDF><cc:Work rdf:about=""><dc:format>image/svg+xml</dc:format><dc:type rdf:resource="http://purl.org/dc/dcmitype/StillImage"/></cc:Work></rdf:RDF></metadata><defs id="defs6"><clipPath clipPathUnits="userSpaceOnUse" id="clipPath16"><path d="M 0,0 36,0 36,36 0,36 0,0 Z" id="path18"/></clipPath><clipPath clipPathUnits="userSpaceOnUse" id="clipPath80"><path d="M 0,36 36,36 36,0 0,0 0,36 Z" id="path82"/></clipPath></defs><g id="g10" transform="matrix(1.25,0,0,-1.25,0,45)"><g id="g12"><g clip-path="url(#clipPath16)" id="g14"><g id="g20" transform="translate(28.026,17.1011)"><path d="m 0,0 -14.849,14.849 c 0,0 -0.707,-2.121 0.707,-3.535 C -12.728,9.9 -1.414,-1.414 -1.414,-1.414 L 0,0 Z" id="path22" style="fill:#9aaab4;fill-opacity:1;fill-rule:nonzero;stroke:none"/></g><g id="g24" transform="translate(26.6118,19.9296)"><path d="M 0,0 C 0.391,0.391 1.657,-0.243 2.828,-1.414 4,-2.586 4.633,-3.852 4.243,-4.243 3.852,-4.633 2.586,-4 1.414,-2.828 0.243,-1.657 -0.391,-0.391 0,0 M 5.657,-5.657 C 6.829,-4.485 6.195,-1.952 4.243,0 2.29,1.952 -0.242,2.586 -1.414,1.414 -2.586,0.242 -1.952,-2.29 0,-4.243 1.952,-6.195 4.485,-6.829 5.657,-5.657" id="path26" style="fill:#67757f;fill-opacity:1;fill-rule:nonzero;stroke:none"/></g><g id="g28" transform="translate(8.8591,35.6602)"><path d="m 0,0 c -1.527,0 -2.969,-0.348 -4.266,-0.954 -0.225,0.019 0.913,0.035 0.684,0.035 -4.5,0 -8.146,-3.647 -8.146,-8.147 0,-3.564 2.293,-6.586 5.482,-7.691 1.854,-2.12 3.208,-3.466 6.246,-3.466 5.584,0 10.111,4.527 10.111,10.112 C 10.111,-4.527 5.584,0 0,0" id="path30" style="fill:#ffac33;fill-opacity:1;fill-rule:nonzero;stroke:none"/></g><g id="g32" transform="translate(-1,31)"><path d="m 0,0 0,-12 c 0,-4.971 4.029,-9 9,-9 4.971,0 9,4.029 9,9 L 18,0 0,0 Z" id="path34" style="fill:#ffdc5d;fill-opacity:1;fill-rule:nonzero;stroke:none"/></g><g id="g36" transform="translate(4,14)"><path d="M 0,0 4,0 8,0 C 8,0 7,-2 4,-2 1,-2 0,0 0,0" id="path38" style="fill:#c1694f;fill-opacity:1;fill-rule:nonzero;stroke:none"/></g><g id="g40" transform="translate(4,20)"><path d="m 0,0 c -0.552,0 -1,0.448 -1,1 l 0,1 C -1,2.552 -0.552,3 0,3 0.552,3 1,2.552 1,2 L 1,1 C 1,0.448 0.552,0 0,0" id="path42" style="fill:#662113;fill-opacity:1;fill-rule:nonzero;stroke:none"/></g><g id="g44" transform="translate(12,20)"><path d="m 0,0 c -0.552,0 -1,0.448 -1,1 l 0,1 C -1,2.552 -0.552,3 0,3 0.552,3 1,2.552 1,2 L 1,1 C 1,0.448 0.552,0 0,0" id="path46" style="fill:#662113;fill-opacity:1;fill-rule:nonzero;stroke:none"/></g><g id="g48" transform="translate(9,16.5)"><path d="M 0,0 -2,0 C -2.276,0 -2.5,0.224 -2.5,0.5 -2.5,0.776 -2.276,1 -2,1 L 0,1 C 0.276,1 0.5,0.776 0.5,0.5 0.5,0.224 0.276,0 0,0" id="path50" style="fill:#c1694f;fill-opacity:1;fill-rule:nonzero;stroke:none"/></g><g id="g52" transform="translate(0.8472,22.2848)"><path d="m 0,0 c 0,-1.58 -0.801,-2.861 -1.788,-2.861 -0.988,0 -1.788,1.281 -1.788,2.861 0,1.58 0.8,2.861 1.788,2.861 C -0.801,2.861 0,1.58 0,0" id="path54" style="fill:#ffdc5d;fill-opacity:1;fill-rule:nonzero;stroke:none"/></g><g id="g56" transform="translate(18.7292,22.2848)"><path d="m 0,0 c 0,-1.58 -0.8,-2.861 -1.788,-2.861 -0.988,0 -1.788,1.281 -1.788,2.861 0,1.58 0.8,2.861 1.788,2.861 C -0.8,2.861 0,1.58 0,0" id="path58" style="fill:#ffdc5d;fill-opacity:1;fill-rule:nonzero;stroke:none"/></g><g id="g60" transform="translate(17,9)"><path d="m 0,0 -1,0 -16,0 -1,0 c -2.209,0 -4,-1.791 -4,-4 l 0,-5 5,0 16,0 5,0 0,5 C 4,-1.791 2.209,0 0,0" id="path62" style="fill:#4289c1;fill-opacity:1;fill-rule:nonzero;stroke:none"/></g><path d="m 17,0 -1,0 0,4 1,0 0,-4 z" id="path64" style="fill:#2a6797;fill-opacity:1;fill-rule:nonzero;stroke:none"/><path d="M 0,0 -1,0 -1,4 0,4 0,0 Z" id="path66" style="fill:#2a6797;fill-opacity:1;fill-rule:nonzero;stroke:none"/><g id="g68" transform="translate(5,12)"><path d="m 0,0 0,-4 c 0,-1.657 1.343,-3 3,-3 1.657,0 3,1.343 3,3 L 6,0 0,0 Z" id="path70" style="fill:#ffdc5d;fill-opacity:1;fill-rule:nonzero;stroke:none"/></g><g id="g72" transform="translate(-1.25,25.2209)"><path d="M 0,0 0.232,5.842 3.423,7.987 18.25,5.967 18.312,-0.075 C 11.386,-0.075 7.361,2.939 5.299,5.252 4.655,3.229 3.135,0 0,0" id="path74" style="fill:#ffac33;fill-opacity:1;fill-rule:nonzero;stroke:none"/></g></g></g><g id="g76"><g clip-path="url(#clipPath80)" id="g78"><g id="g84" transform="translate(16.5897,25.2096)"><path d="m 0,0 c 0,0 5.848,-0.553 9.91,2.509 0,0 -6.437,0.688 -12.031,5.281 C -5.567,10.62 0,0 0,0" id="path86" style="fill:#ffac33;fill-opacity:1;fill-rule:nonzero;stroke:none"/></g><g id="g88" transform="translate(22.1434,14.2596)"><path d="m 0,0 -0.001,21 c 0,0 2,-1 2,-3 C 1.999,15.999 2,0 2,0 L 0,0 Z" id="path90" style="fill:#9aaab4;fill-opacity:1;fill-rule:nonzero;stroke:none"/></g><g id="g92" transform="translate(22.1434,14.2596)"><path d="M 0,0 C 0,-1.657 -0.448,-3 -1.001,-3 -1.554,-3.001 -2,-1.657 -2,0 c 0,1.657 0.447,2.999 1,3 0.552,0 0.999,-1.343 1,-3 m 2,0 c -10e-4,2.761 -1.343,4.999 -3,4.999 -1.657,0 -3.001,-2.238 -3,-5 C -4,-2.761 -2.658,-5 -1.001,-5 0.657,-5 2,-2.762 2,0" id="path94" style="fill:#67757f;fill-opacity:1;fill-rule:nonzero;stroke:none"/></g><g id="g96" transform="translate(22.3692,19.9296)"><path d="m 0,0 c -0.39,0.39 -0.391,1.023 0,1.414 0.391,0.391 1.024,0.391 1.414,0 C 1.805,1.024 1.805,0.391 1.414,0 1.023,-0.391 0.39,-0.39 0,0" id="path98" style="fill:#67757f;fill-opacity:1;fill-rule:nonzero;stroke:none"/></g></g></g></g></svg>