<?xml version="1.0" encoding="UTF-8" standalone="no"?><svg xmlns="http://www.w3.org/2000/svg" xmlns:cc="http://creativecommons.org/ns#" xmlns:dc="http://purl.org/dc/elements/1.1/" xmlns:rdf="http://www.w3.org/1999/02/22-rdf-syntax-ns#" xmlns:svg="http://www.w3.org/2000/svg" height="45" id="svg2" style="enable-background:new 0 0 45 45;" version="1.1" viewBox="0 0 45 45" width="45" xml:space="preserve"><metadata id="metadata8"><rdf:RDF><cc:Work rdf:about=""><dc:format>image/svg+xml</dc:format><dc:type rdf:resource="http://purl.org/dc/dcmitype/StillImage"/></cc:Work></rdf:RDF></metadata><defs id="defs6"><clipPath clipPathUnits="userSpaceOnUse" id="clipPath16"><path d="M 0,36 36,36 36,0 0,0 0,36 Z" id="path18"/></clipPath><clipPath clipPathUnits="userSpaceOnUse" id="clipPath32"><path d="M 4,31 C 1.791,31 0,29.209 0,27 L 0,27 0,9 C 0,6.791 1.791,5 4,5 l 0,0 28,0 c 2.209,0 4,1.791 4,4 l 0,0 0,18 c 0,2.209 -1.791,4 -4,4 l 0,0 -28,0 z" id="path34"/></clipPath><clipPath clipPathUnits="userSpaceOnUse" id="clipPath48"><path d="M 0,36 36,36 36,0 0,0 0,36 Z" id="path50"/></clipPath></defs><g id="g10" transform="matrix(1.25,0,0,-1.25,0,45)"><g id="g12"><g clip-path="url(#clipPath16)" id="g14"><g id="g20" transform="translate(36,9)"><path d="m 0,0 c 0,-2.209 -1.791,-4 -4,-4 l -28,0 c -2.209,0 -4,1.791 -4,4 l 0,18 c 0,2.209 1.791,4 4,4 l 28,0 c 2.209,0 4,-1.791 4,-4 L 0,0 Z" id="path22" style="fill:#003580;fill-opacity:1;fill-rule:nonzero;stroke:none"/></g><g id="g24" transform="translate(1.0669,6.2988)"><path d="m 0,0 c 0.731,-0.794 1.769,-1.299 2.933,-1.299 l 28,0 c 2.209,0 4,1.791 4,4 l 0,18 c 0,1.018 -0.392,1.937 -1.018,2.643 L 0,0 Z" id="path26" style="fill:#009543;fill-opacity:1;fill-rule:nonzero;stroke:none"/></g></g></g><g id="g28"><g clip-path="url(#clipPath32)" id="g30"><g id="g36" transform="translate(44.2959,32.75)"><path d="M 0,0 -49.149,-34.414 -52.591,-29.5 -3.441,4.915 0,0 Z" id="path38" style="fill:#eeeeee;fill-opacity:1;fill-rule:nonzero;stroke:none"/></g><g id="g40" transform="translate(43.7217,33.5684)"><path d="m 0,0 -49.148,-34.415 -2.263,3.231 L -2.261,3.231 0,0 Z" id="path42" style="fill:#d20f34;fill-opacity:1;fill-rule:nonzero;stroke:none"/></g></g></g><g id="g44"><g clip-path="url(#clipPath48)" id="g46"><g id="g52" transform="translate(8,28)"><path d="M 0,0 0.809,-1.981 2.5,-0.67 2.21,-2.79 4.33,-2.5 3.019,-4.191 5,-5 3.019,-5.809 4.33,-7.5 2.21,-7.21 2.5,-9.33 0.809,-8.019 0,-10 -0.809,-8.019 -2.5,-9.33 -2.21,-7.21 -4.33,-7.5 -3.019,-5.809 -5,-5 -3.019,-4.191 -4.33,-2.5 -2.21,-2.79 -2.5,-0.67 -0.809,-1.981 0,0 Z" id="path54" style="fill:#ffce00;fill-opacity:1;fill-rule:nonzero;stroke:none"/></g><g id="g56" transform="translate(11.1748,23)"><path d="m 0,0 c 0,-1.753 -1.421,-3.175 -3.175,-3.175 -1.753,0 -3.175,1.422 -3.175,3.175 0,1.753 1.422,3.175 3.175,3.175 C -1.421,3.175 0,1.753 0,0" id="path58" style="fill:#004a77;fill-opacity:1;fill-rule:nonzero;stroke:none"/></g><g id="g60" transform="translate(10.4668,23)"><path d="m 0,0 c 0,-1.362 -1.104,-2.467 -2.467,-2.467 -1.362,0 -2.467,1.105 -2.467,2.467 0,1.362 1.105,2.467 2.467,2.467 C -1.104,2.467 0,1.362 0,0" id="path62" style="fill:#ffce00;fill-opacity:1;fill-rule:nonzero;stroke:none"/></g></g></g></g></svg>