<?xml version="1.0" encoding="UTF-8" standalone="no"?><svg xmlns="http://www.w3.org/2000/svg" xmlns:cc="http://creativecommons.org/ns#" xmlns:dc="http://purl.org/dc/elements/1.1/" xmlns:rdf="http://www.w3.org/1999/02/22-rdf-syntax-ns#" xmlns:svg="http://www.w3.org/2000/svg" height="45" id="svg2" style="enable-background:new 0 0 45 45;" version="1.1" viewBox="0 0 45 45" width="45" xml:space="preserve"><metadata id="metadata8"><rdf:RDF><cc:Work rdf:about=""><dc:format>image/svg+xml</dc:format><dc:type rdf:resource="http://purl.org/dc/dcmitype/StillImage"/></cc:Work></rdf:RDF></metadata><defs id="defs6"><clipPath clipPathUnits="userSpaceOnUse" id="clipPath16"><path d="M 0,36 36,36 36,0 0,0 0,36 Z" id="path18"/></clipPath></defs><g id="g10" transform="matrix(1.25,0,0,-1.25,0,45)"><g id="g12"><g clip-path="url(#clipPath16)" id="g14"><g id="g20" transform="translate(36,4)"><path d="m 0,0 c 0,0 0,-4 -4,-4 l -28,0 c 0,0 -4,0 -4,4 l 0,28 c 0,4 4,4 4,4 l 28,0 c 4,0 4,-4 4,-4 L 0,0 Z" id="path22" style="fill:#88c9f9;fill-opacity:1;fill-rule:nonzero;stroke:none"/></g><g id="g24" transform="translate(31.3135,33.3218)"><path d="m 0,0 c -0.274,0 -0.539,-0.042 -0.787,-0.119 -0.296,0.844 -1.096,1.45 -2.04,1.45 -1.013,0 -1.86,-0.697 -2.096,-1.637 C -5.173,-0.117 -5.482,0 -5.821,0 c -0.827,0 -1.497,-0.67 -1.497,-1.497 0,-0.201 0.041,-0.391 0.114,-0.566 -0.144,0.04 -0.292,0.067 -0.446,0.067 -0.919,0 -1.664,-0.744 -1.664,-1.663 0,-0.919 0.745,-1.663 1.664,-1.663 l 7.65,0 c 1.469,0 2.661,1.192 2.661,2.661 C 2.661,-1.191 1.469,0 0,0" id="path26" style="fill:#f5f8fa;fill-opacity:1;fill-rule:nonzero;stroke:none"/></g><g id="g28" transform="translate(2,2)"><path d="M 0,0 1,-1 12,5 11,6 0,0 Z" id="path30" style="fill:#be1931;fill-opacity:1;fill-rule:nonzero;stroke:none"/></g><g id="g32" transform="translate(15,2)"><path d="M 0,0 -1,-1 -12,5 -11,6 0,0 Z" id="path34" style="fill:#be1931;fill-opacity:1;fill-rule:nonzero;stroke:none"/></g><g id="g36" transform="translate(3,8)"><path d="M 0,0 1,-1 10.154,5 9,6 0,0 Z" id="path38" style="fill:#be1931;fill-opacity:1;fill-rule:nonzero;stroke:none"/></g><g id="g40" transform="translate(14,8)"><path d="M 0,0 -1,-1 -10.154,5 -9,6 0,0 Z" id="path42" style="fill:#be1931;fill-opacity:1;fill-rule:nonzero;stroke:none"/></g><g id="g44" transform="translate(4,14)"><path d="M 0,0 1,-1 8.308,5 6.23,5 0,0 Z" id="path46" style="fill:#be1931;fill-opacity:1;fill-rule:nonzero;stroke:none"/></g><g id="g48" transform="translate(13,14)"><path d="M 0,0 -1,-1 -8.308,5 -6.23,5 0,0 Z" id="path50" style="fill:#be1931;fill-opacity:1;fill-rule:nonzero;stroke:none"/></g><g id="g52" transform="translate(5.9473,21.834)"><path d="m 0,0 c -0.517,0.092 -1.009,-0.253 -1.1,-0.77 l -3.546,-20.113 c 0.62,-0.504 1.338,-0.74 1.88,-0.85 l 3.635,20.616 c 0.091,0.516 -0.253,1.009 -0.77,1.1 L 0,0 Z" id="path54" style="fill:#be1931;fill-opacity:1;fill-rule:nonzero;stroke:none"/></g><g id="g56" transform="translate(15.8018,0)"><path d="m 0,0 c 0.017,0.105 0.027,0.213 0.008,0.323 l -3.65,20.7 c -0.095,0.539 -0.609,0.899 -1.147,0.804 l -0.02,-0.003 C -5.348,21.729 -5.707,21.215 -5.611,20.676 L -1.966,0 0,0 Z" id="path58" style="fill:#be1931;fill-opacity:1;fill-rule:nonzero;stroke:none"/></g><g id="g60" transform="translate(9,22.5)"><path d="M 0,0 C 0,-0.276 -0.224,-0.5 -0.5,-0.5 -0.776,-0.5 -1,-0.276 -1,0 l 0,8 c 0,0.276 0.224,0.5 0.5,0.5 C -0.224,8.5 0,8.276 0,8 L 0,0 Z" id="path62" style="fill:#be1931;fill-opacity:1;fill-rule:nonzero;stroke:none"/></g><g id="g64" transform="translate(3.3071,22.2725)"><path d="m 0,0 c -0.128,-0.18 -0.415,-0.197 -0.64,-0.037 -0.225,0.16 -0.304,0.435 -0.175,0.616 L 4.744,8.415 C 4.873,8.596 5.159,8.612 5.383,8.452 5.609,8.292 5.688,8.017 5.56,7.837 L 0,0 Z" id="path66" style="fill:#be1931;fill-opacity:1;fill-rule:nonzero;stroke:none"/></g><g id="g68" transform="translate(30.8574,21.7603)"><path d="M 0,0 C 0.256,-0.107 0.377,-0.398 0.271,-0.654 0.164,-0.909 -0.127,-1.03 -0.383,-0.924 l -22.166,9.202 c -0.255,0.106 -0.376,0.398 -0.27,0.653 0.106,0.255 0.399,0.376 0.654,0.27 L 0,0 Z" id="path70" style="fill:#be1931;fill-opacity:1;fill-rule:nonzero;stroke:none"/></g><g id="g72" transform="translate(12,22)"><path d="m 0,0 c 0,-0.552 -0.448,-1 -1,-1 l -5,0 c -0.552,0 -1,0.448 -1,1 l 0,2 c 0,0.552 0.448,1 1,1 l 5,0 C -0.448,3 0,2.552 0,2 L 0,0 Z" id="path74" style="fill:#be1931;fill-opacity:1;fill-rule:nonzero;stroke:none"/></g><g id="g76" transform="translate(27,22.7373)"><path d="m 0,0 c 0,0.145 -0.117,0.263 -0.263,0.263 l -0.474,0 C -0.883,0.263 -1,0.145 -1,0 l 0,-11.475 c 0,-0.145 0.117,-0.262 0.263,-0.262 l 0.474,0 c 0.146,0 0.263,0.117 0.263,0.262 L 0,0 Z" id="path78" style="fill:#66757f;fill-opacity:1;fill-rule:nonzero;stroke:none"/></g><g id="g80" transform="translate(28,11.5)"><path d="M 0,0 C 0,-0.828 -0.672,-1.5 -1.5,-1.5 -2.328,-1.5 -3,-0.828 -3,0 -3,0.828 -2.328,1.5 -1.5,1.5 -0.672,1.5 0,0.828 0,0" id="path82" style="fill:#f4900c;fill-opacity:1;fill-rule:nonzero;stroke:none"/></g><g id="g84" transform="translate(27.5,9)"><path d="m 0,0 c 0,-0.553 -0.447,-1 -1,-1 -0.553,0 -1,0.447 -1,1 0,0.553 0.447,1 1,1 0.553,0 1,-0.447 1,-1" id="path86" style="fill:#f4900c;fill-opacity:1;fill-rule:nonzero;stroke:none"/></g><g id="g88" transform="translate(33,20)"><path d="m 0,0 c 0,-0.552 -0.447,-1 -1,-1 l -29,0 c -0.552,0 -1,0.448 -1,1 l 0,2 c 0,0.552 0.448,1 1,1 L -1,3 C -0.447,3 0,2.552 0,2 L 0,0 Z" id="path90" style="fill:#be1931;fill-opacity:1;fill-rule:nonzero;stroke:none"/></g><path d="m 14,20 -1.16,0 0,2 1.16,0 0,-2 z" id="path92" style="fill:#88c9f9;fill-opacity:1;fill-rule:nonzero;stroke:none"/><path d="m 17,20 -2,0 0,2 2,0 0,-2 z" id="path94" style="fill:#88c9f9;fill-opacity:1;fill-rule:nonzero;stroke:none"/><path d="m 20,20 -2,0 0,2 2,0 0,-2 z" id="path96" style="fill:#88c9f9;fill-opacity:1;fill-rule:nonzero;stroke:none"/><path d="m 23,20 -2,0 0,2 2,0 0,-2 z" id="path98" style="fill:#88c9f9;fill-opacity:1;fill-rule:nonzero;stroke:none"/><path d="m 26,20 -2,0 0,2 2,0 0,-2 z" id="path100" style="fill:#88c9f9;fill-opacity:1;fill-rule:nonzero;stroke:none"/><path d="m 29,20 -2,0 0,2 2,0 0,-2 z" id="path102" style="fill:#88c9f9;fill-opacity:1;fill-rule:nonzero;stroke:none"/><g id="g104" transform="translate(31.5,22)"><path d="m 0,0 -0.5,0 -0.5,0 -0.5,0 0,-0.5 0,-1 0,-0.5 0.5,0 0.5,0 0.5,0 c 0.276,0 0.5,0.224 0.5,0.5 l 0,1 C 0.5,-0.224 0.276,0 0,0" id="path106" style="fill:#88c9f9;fill-opacity:1;fill-rule:nonzero;stroke:none"/></g><path d="M 33,5 20,5 20,8 33,8 33,5 Z" id="path108" style="fill:#66757f;fill-opacity:1;fill-rule:nonzero;stroke:none"/><g id="g110" transform="translate(11,24)"><path d="m 0,0 -2,0 c -0.552,0 -1,-0.448 -1,-1 l 0,-2 c 0,-0.552 0.448,-1 1,-1 l 2,0 1,0 0,1 0,2 0,1 -1,0 z" id="path112" style="fill:#55aced;fill-opacity:1;fill-rule:nonzero;stroke:none"/></g><path d="m 12,20 -2,0 0,4 2,0 0,-4 z" id="path114" style="fill:#88c9f9;fill-opacity:1;fill-rule:nonzero;stroke:none"/></g></g></g></svg>