<?xml version="1.0" encoding="UTF-8" standalone="no"?><svg xmlns="http://www.w3.org/2000/svg" xmlns:cc="http://creativecommons.org/ns#" xmlns:dc="http://purl.org/dc/elements/1.1/" xmlns:rdf="http://www.w3.org/1999/02/22-rdf-syntax-ns#" xmlns:svg="http://www.w3.org/2000/svg" height="45" id="svg2" style="enable-background:new 0 0 45 45;" version="1.1" viewBox="0 0 45 45" width="45" xml:space="preserve"><metadata id="metadata8"><rdf:RDF><cc:Work rdf:about=""><dc:format>image/svg+xml</dc:format><dc:type rdf:resource="http://purl.org/dc/dcmitype/StillImage"/></cc:Work></rdf:RDF></metadata><defs id="defs6"><clipPath clipPathUnits="userSpaceOnUse" id="clipPath16"><path d="M 4,31 C 1.791,31 0,29.209 0,27 L 0,27 0,9 C 0,6.791 1.791,5 4,5 l 0,0 28,0 c 2.209,0 4,1.791 4,4 l 0,0 0,18 c 0,2.209 -1.791,4 -4,4 l 0,0 -28,0 z" id="path18"/></clipPath></defs><g id="g10" transform="matrix(1.25,0,0,-1.25,0,45)"><g id="g12"><g clip-path="url(#clipPath16)" id="g14"><g id="g20" transform="translate(6,23.312)"><path d="m 0,0 -2.078,-1.51 0.794,2.443 -2.078,1.51 2.568,0 L 0,4.886 0.794,2.443 3.362,2.443 1.284,0.933 2.078,-1.51 0,0 Z m 6,-1.668 0,2.167 0,2.56 0,2.167 0,2.462 -12,0 0,-11.917 12,0 0,2.561 z" id="path22" style="fill:#002868;fill-opacity:1;fill-rule:nonzero;stroke:none"/></g><path d="m 0,5 36,0 0,2.462 -36,0 L 0,5 Z" id="path24" style="fill:#bf0a30;fill-opacity:1;fill-rule:nonzero;stroke:none"/><path d="m 0,9.629 36,0 0,2.561 -36,0 0,-2.561 z" id="path26" style="fill:#bf0a30;fill-opacity:1;fill-rule:nonzero;stroke:none"/><path d="m 12,23.811 24,0 0,2.561 -24,0 0,-2.561 z" id="path28" style="fill:#bf0a30;fill-opacity:1;fill-rule:nonzero;stroke:none"/><path d="m 12,28.538 24,0 0,2.462 -24,0 0,-2.462 z" id="path30" style="fill:#bf0a30;fill-opacity:1;fill-rule:nonzero;stroke:none"/><path d="m 12,19.083 24,0 0,2.561 -24,0 0,-2.561 z" id="path32" style="fill:#bf0a30;fill-opacity:1;fill-rule:nonzero;stroke:none"/><path d="m 0,14.356 36,0 0,2.561 -36,0 0,-2.561 z" id="path34" style="fill:#bf0a30;fill-opacity:1;fill-rule:nonzero;stroke:none"/><path d="m 12,21.644 24,0 0,2.167 -24,0 0,-2.167 z" id="path36" style="fill:#eeeeee;fill-opacity:1;fill-rule:nonzero;stroke:none"/><g id="g38" transform="translate(0,19.0834)"><path d="m 0,0 0,-0.083 0,-2.084 36,0 L 36,0 12,0 0,0 Z" id="path40" style="fill:#eeeeee;fill-opacity:1;fill-rule:nonzero;stroke:none"/></g><path d="m 12,26.371 24,0 0,2.167 -24,0 0,-2.167 z" id="path42" style="fill:#eeeeee;fill-opacity:1;fill-rule:nonzero;stroke:none"/><path d="m 0,12.189 36,0 0,2.167 -36,0 0,-2.167 z" id="path44" style="fill:#eeeeee;fill-opacity:1;fill-rule:nonzero;stroke:none"/><path d="m 0,7.462 36,0 0,2.167 -36,0 0,-2.167 z" id="path46" style="fill:#eeeeee;fill-opacity:1;fill-rule:nonzero;stroke:none"/><g id="g48" transform="translate(9.3625,25.7549)"><path d="M 0,0 -2.569,0 -3.362,2.443 -4.156,0 l -2.569,0 2.078,-1.51 -0.794,-2.443 2.079,1.51 2.078,-1.51 L -2.078,-1.51 0,0 Z" id="path50" style="fill:#ffffff;fill-opacity:1;fill-rule:nonzero;stroke:none"/></g></g></g></g></svg>