<?xml version="1.0" encoding="UTF-8" standalone="no"?><svg xmlns="http://www.w3.org/2000/svg" xmlns:cc="http://creativecommons.org/ns#" xmlns:dc="http://purl.org/dc/elements/1.1/" xmlns:rdf="http://www.w3.org/1999/02/22-rdf-syntax-ns#" xmlns:svg="http://www.w3.org/2000/svg" height="45" id="svg2" style="enable-background:new 0 0 45 45;" version="1.1" viewBox="0 0 45 45" width="45" xml:space="preserve"><metadata id="metadata8"><rdf:RDF><cc:Work rdf:about=""><dc:format>image/svg+xml</dc:format><dc:type rdf:resource="http://purl.org/dc/dcmitype/StillImage"/></cc:Work></rdf:RDF></metadata><defs id="defs6"><clipPath clipPathUnits="userSpaceOnUse" id="clipPath16"><path d="M 0,36 36,36 36,0 0,0 0,36 Z" id="path18"/></clipPath></defs><g id="g10" transform="matrix(1.25,0,0,-1.25,0,45)"><g id="g12"><g clip-path="url(#clipPath16)" id="g14"><g id="g20" transform="translate(18,0)"><path d="m 0,0 c -9.941,0 -18,8.059 -18,18 0,9.941 8.059,18 18,18 C 9.941,36 18,27.941 18,18 18,8.059 9.94,0 0,0" id="path22" style="fill:#292f33;fill-opacity:1;fill-rule:nonzero;stroke:none"/></g><g id="g24" transform="translate(27,18)"><path d="m 0,0 c 0,-4.971 -4.029,-9 -9,-9 -4.971,0 -9,4.029 -9,9 0,4.971 4.029,9 9,9 4.971,0 9,-4.029 9,-9" id="path26" style="fill:#e1e8ed;fill-opacity:1;fill-rule:nonzero;stroke:none"/></g><g id="g28" transform="translate(16.7793,21.0703)"><path d="m 0,0 c 0,-0.791 0.457,-1.336 1.266,-1.336 0.808,0 1.283,0.545 1.283,1.336 0,0.756 -0.457,1.336 -1.283,1.336 C 0.439,1.336 0,0.756 0,0 m -0.334,-5.098 c 0,-0.896 0.527,-1.757 1.6,-1.757 1.002,0 1.599,0.861 1.599,1.757 0,1.108 -0.633,1.758 -1.599,1.758 -1.02,0 -1.6,-0.773 -1.6,-1.758 m -2.742,-0.175 c 0,1.406 0.773,2.443 1.881,3.041 -0.826,0.597 -1.336,1.406 -1.336,2.513 0,2.057 1.705,3.375 3.797,3.375 2.039,0 3.814,-1.301 3.814,-3.375 0,-0.984 -0.492,-1.968 -1.353,-2.513 1.195,-0.598 1.88,-1.688 1.88,-3.041 0,-2.444 -1.986,-4.008 -4.341,-4.008 -2.426,0 -4.342,1.652 -4.342,4.008" id="path30" style="fill:#292f33;fill-opacity:1;fill-rule:nonzero;stroke:none"/></g></g></g></g></svg>