<?xml version="1.0" encoding="UTF-8" standalone="no"?><svg xmlns="http://www.w3.org/2000/svg" xmlns:cc="http://creativecommons.org/ns#" xmlns:dc="http://purl.org/dc/elements/1.1/" xmlns:rdf="http://www.w3.org/1999/02/22-rdf-syntax-ns#" xmlns:svg="http://www.w3.org/2000/svg" height="45" id="svg2" style="enable-background:new 0 0 45 45;" version="1.1" viewBox="0 0 45 45" width="45" xml:space="preserve"><metadata id="metadata8"><rdf:RDF><cc:Work rdf:about=""><dc:format>image/svg+xml</dc:format><dc:type rdf:resource="http://purl.org/dc/dcmitype/StillImage"/></cc:Work></rdf:RDF></metadata><defs id="defs6"><clipPath clipPathUnits="userSpaceOnUse" id="clipPath18"><path d="M 0,36 36,36 36,0 0,0 0,36 Z" id="path20"/></clipPath><clipPath clipPathUnits="userSpaceOnUse" id="clipPath50"><path d="M 10,15 C 7.791,15 7,13.209 7,11 L 7,11 7,7 C 7,4.791 7.791,3 10,3 l 0,0 25,0 c 2.209,0 -4,3.791 -4,6 l 0,0 c 0,2.209 6.209,6 4,6 l 0,0 -25,0 z" id="path52"/></clipPath><clipPath clipPathUnits="userSpaceOnUse" id="clipPath62"><path d="M 0,36 36,36 36,0 0,0 0,36 Z" id="path64"/></clipPath><clipPath clipPathUnits="userSpaceOnUse" id="clipPath90"><path d="M 10,31 C 7.791,31 7,29.209 7,27 l 0,0 0,-4 c 0,-2.209 0.791,-4 3,-4 l 0,0 25,0 c 2.209,0 -4,3.791 -4,6 l 0,0 c 0,2.209 6.209,6 4,6 l 0,0 -25,0 z" id="path92"/></clipPath></defs><g id="g10" transform="matrix(1.25,0,0,-1.25,0,45)"><path d="m 3,0 2.001,0 0,33 L 3,33 3,0 Z" id="path12" style="fill:#ccd6dd;fill-opacity:1;fill-rule:nonzero;stroke:none"/><g id="g14"><g clip-path="url(#clipPath18)" id="g16"><g id="g22" transform="translate(7,33)"><path d="m 0,0 c 0,-1.657 -1.343,-3 -3,-3 -1.657,0 -3,1.343 -3,3 0,1.657 1.343,3 3,3 1.657,0 3,-1.343 3,-3" id="path24" style="fill:#f4900c;fill-opacity:1;fill-rule:nonzero;stroke:none"/></g><g id="g26" transform="translate(9,8)"><path d="m 0,0 -5,0 c -0.552,0 -1,0.447 -1,1 0,0.553 0.448,1 1,1 L 0,2 C 0.552,2 1,1.553 1,1 1,0.447 0.552,0 0,0" id="path28" style="fill:#66757f;fill-opacity:1;fill-rule:nonzero;stroke:none"/></g><g id="g30" transform="translate(27,14)"><path d="m 0,0 c 0,-1.656 -2.463,-3 -5.5,-3 -3.038,0 -5.5,1.344 -5.5,3 0,1.656 0.462,4 3.5,4 C -4.463,4 0,1.656 0,0" id="path32" style="fill:#dd2e44;fill-opacity:1;fill-rule:nonzero;stroke:none"/></g><g id="g34" transform="translate(31,9)"><path d="m 0,0 c 0,-2.209 6.209,-6 4,-6 l -25,0 c -2.209,0 -3,1.791 -3,4 l 0,4 c 0,2.209 0.791,4 3,4 L 4,6 C 6.209,6 0,2.209 0,0" id="path36" style="fill:#dd2e44;fill-opacity:1;fill-rule:nonzero;stroke:none"/></g><g id="g38" transform="translate(15,11)"><path d="m 0,0 c 0,-1.656 -1.343,-3 -3,-3 -1.657,0 -3,1.344 -3,3 0,1.656 1.343,3 3,3 1.657,0 3,-1.344 3,-3" id="path40" style="fill:#ffffff;fill-opacity:1;fill-rule:nonzero;stroke:none"/></g><g id="g42" transform="translate(13,11.5)"><path d="M 0,0 C 0,-0.828 -0.671,-1.5 -1.5,-1.5 -2.329,-1.5 -3,-0.828 -3,0 -3,0.828 -2.329,1.5 -1.5,1.5 -0.671,1.5 0,0.828 0,0" id="path44" style="fill:#000000;fill-opacity:1;fill-rule:nonzero;stroke:none"/></g></g></g><g id="g46"><g clip-path="url(#clipPath50)" id="g48"><g id="g54" transform="translate(15,16)"><path d="m 0,0 c 2,-2 7,-7 0,-14 4,-1 10,-1.458 16,-1 6,0.458 6,4.75 6,7.209 C 22,-5.334 28,0 21,1 14,2 0,0 0,0" id="path56" style="fill:#f4abba;fill-opacity:1;fill-rule:nonzero;stroke:none"/></g></g></g><g id="g58"><g clip-path="url(#clipPath62)" id="g60"><g id="g66" transform="translate(9,24)"><path d="m 0,0 -5,0 c -0.552,0 -1,0.448 -1,1 0,0.552 0.448,1 1,1 L 0,2 C 0.552,2 1,1.552 1,1 1,0.448 0.552,0 0,0" id="path68" style="fill:#66757f;fill-opacity:1;fill-rule:nonzero;stroke:none"/></g><g id="g70" transform="translate(27,30)"><path d="m 0,0 c 0,-1.657 -2.463,-3 -5.5,-3 -3.038,0 -5.5,1.343 -5.5,3 0,1.657 0.462,4 3.5,4 C -4.463,4 0,1.657 0,0" id="path72" style="fill:#55acee;fill-opacity:1;fill-rule:nonzero;stroke:none"/></g><g id="g74" transform="translate(31,25)"><path d="m 0,0 c 0,-2.209 6.209,-6 4,-6 l -25,0 c -2.209,0 -3,1.791 -3,4 l 0,4 c 0,2.209 0.791,4 3,4 L 4,6 C 6.209,6 0,2.209 0,0" id="path76" style="fill:#55acee;fill-opacity:1;fill-rule:nonzero;stroke:none"/></g><g id="g78" transform="translate(15,27)"><path d="m 0,0 c 0,-1.657 -1.343,-3 -3,-3 -1.657,0 -3,1.343 -3,3 0,1.657 1.343,3 3,3 1.657,0 3,-1.343 3,-3" id="path80" style="fill:#ffffff;fill-opacity:1;fill-rule:nonzero;stroke:none"/></g><g id="g82" transform="translate(13,27.5)"><path d="M 0,0 C 0,-0.829 -0.671,-1.5 -1.5,-1.5 -2.329,-1.5 -3,-0.829 -3,0 -3,0.829 -2.329,1.5 -1.5,1.5 -0.671,1.5 0,0.829 0,0" id="path84" style="fill:#000000;fill-opacity:1;fill-rule:nonzero;stroke:none"/></g></g></g><g id="g86"><g clip-path="url(#clipPath90)" id="g88"><g id="g94" transform="translate(15,32)"><path d="m 0,0 c 2,-2 7,-7 0,-14 4,-1 10,-1.458 16,-1 6,0.458 6,4.751 6,7.208 C 22,-5.333 28,0 21,1 14,2 0,0 0,0" id="path96" style="fill:#bbddf5;fill-opacity:1;fill-rule:nonzero;stroke:none"/></g></g></g></g></svg>