<?xml version="1.0" encoding="UTF-8" standalone="no"?><svg xmlns="http://www.w3.org/2000/svg" xmlns:cc="http://creativecommons.org/ns#" xmlns:dc="http://purl.org/dc/elements/1.1/" xmlns:rdf="http://www.w3.org/1999/02/22-rdf-syntax-ns#" xmlns:svg="http://www.w3.org/2000/svg" height="45" id="svg2" style="enable-background:new 0 0 45 45;" version="1.1" viewBox="0 0 45 45" width="45" xml:space="preserve"><metadata id="metadata8"><rdf:RDF><cc:Work rdf:about=""><dc:format>image/svg+xml</dc:format><dc:type rdf:resource="http://purl.org/dc/dcmitype/StillImage"/></cc:Work></rdf:RDF></metadata><defs id="defs6"><clipPath clipPathUnits="userSpaceOnUse" id="clipPath16"><path d="M 0,36 36,36 36,0 0,0 0,36 Z" id="path18"/></clipPath><clipPath clipPathUnits="userSpaceOnUse" id="clipPath28"><path d="M 1,18 C 1,8.61 8.611,1 18,1 l 0,0 c 9.39,0 17,7.61 17,17 l 0,0 c 0,9.389 -7.61,17 -17,17 l 0,0 C 8.611,35 1,27.389 1,18" id="path30"/></clipPath><clipPath clipPathUnits="userSpaceOnUse" id="clipPath40"><path d="M 0,36 36,36 36,0 0,0 0,36 Z" id="path42"/></clipPath><clipPath clipPathUnits="userSpaceOnUse" id="clipPath84"><path d="m 9.514,18 c 0,-4.686 3.8,-8.486 8.486,-8.486 l 0,0 c 4.686,0.001 8.486,3.8 8.486,8.486 l 0,0 c 0,4.687 -3.8,8.486 -8.485,8.486 l 0,0 C 13.314,26.486 9.514,22.687 9.514,18" id="path86"/></clipPath></defs><g id="g10" transform="matrix(1.25,0,0,-1.25,0,45)"><g id="g12"><g clip-path="url(#clipPath16)" id="g14"><g id="g20" transform="translate(1,18)"><path d="M 0,0 C 0,9.389 7.611,17 17,17 26.39,17 34,9.389 34,0 34,-9.39 26.39,-17 17,-17 7.611,-17 0,-9.39 0,0" id="path22" style="fill:#9aaab4;fill-opacity:1;fill-rule:nonzero;stroke:none"/></g></g></g><g id="g24"><g clip-path="url(#clipPath28)" id="g26"><g id="g32" transform="translate(35,8)"><path d="m 0,0 c 0.55,1.671 0,8.146 0,10 0,9.389 -7.61,17 -17,17 -9.389,0 -17,-7.611 -17,-17 0,-1.854 -0.424,-8.329 0.125,-10 L -17,10 0,0 Z" id="path34" style="fill:#ccd6dd;fill-opacity:1;fill-rule:nonzero;stroke:none"/></g></g></g><g id="g36"><g clip-path="url(#clipPath40)" id="g38"><g id="g44" transform="translate(19.457,31.5996)"><path d="m 0,0 c 0,-0.804 -0.652,-1.457 -1.457,-1.457 -0.804,0 -1.457,0.653 -1.457,1.457 0,0.805 0.653,1.458 1.457,1.458 C -0.652,1.458 0,0.805 0,0" id="path46" style="fill:#da2f47;fill-opacity:1;fill-rule:nonzero;stroke:none"/></g><g id="g48" transform="translate(12.6582,29.6567)"><path d="m 0,0 c 0,-0.804 -0.653,-1.458 -1.458,-1.458 -0.804,0 -1.457,0.654 -1.457,1.458 0,0.805 0.653,1.458 1.457,1.458 C -0.653,1.458 0,0.805 0,0" id="path50" style="fill:#da2f47;fill-opacity:1;fill-rule:nonzero;stroke:none"/></g><g id="g52" transform="translate(26.2588,29.6567)"><path d="m 0,0 c 0,-0.804 -0.654,-1.458 -1.459,-1.458 -0.803,0 -1.457,0.654 -1.457,1.458 0,0.805 0.654,1.458 1.457,1.458 C -0.654,1.458 0,0.805 0,0" id="path54" style="fill:#da2f47;fill-opacity:1;fill-rule:nonzero;stroke:none"/></g><g id="g56" transform="translate(7.8008,24.7998)"><path d="m 0,0 c 0,-0.805 -0.653,-1.458 -1.458,-1.458 -0.805,0 -1.457,0.653 -1.457,1.458 0,0.805 0.652,1.457 1.457,1.457 C -0.653,1.457 0,0.805 0,0" id="path58" style="fill:#da2f47;fill-opacity:1;fill-rule:nonzero;stroke:none"/></g><g id="g60" transform="translate(31.1143,24.7998)"><path d="m 0,0 c 0,-0.805 -0.652,-1.458 -1.457,-1.458 -0.805,0 -1.457,0.653 -1.457,1.458 0,0.805 0.652,1.457 1.457,1.457 C -0.652,1.457 0,0.805 0,0" id="path62" style="fill:#67757f;fill-opacity:1;fill-rule:nonzero;stroke:none"/></g><g id="g64" transform="translate(5.8579,17.9995)"><path d="m 0,0 c 0,-0.805 -0.653,-1.456 -1.458,-1.456 -0.805,0 -1.457,0.651 -1.457,1.456 0,0.804 0.652,1.457 1.457,1.457 C -0.653,1.457 0,0.804 0,0" id="path66" style="fill:#da2f47;fill-opacity:1;fill-rule:nonzero;stroke:none"/></g><g id="g68" transform="translate(33.0586,17.9995)"><path d="m 0,0 c 0,-0.805 -0.654,-1.456 -1.457,-1.456 -0.806,0 -1.457,0.651 -1.457,1.456 0,0.804 0.651,1.457 1.457,1.457 C -0.654,1.457 0,0.804 0,0" id="path70" style="fill:#67757f;fill-opacity:1;fill-rule:nonzero;stroke:none"/></g><g id="g72" transform="translate(7.6284,18)"><path d="m 0,0 c 0,5.728 4.644,10.372 10.372,10.372 5.726,0 10.371,-4.644 10.371,-10.372 0,-5.727 -4.645,-10.371 -10.371,-10.371 C 4.644,-10.371 0,-5.727 0,0" id="path74" style="fill:#000000;fill-opacity:1;fill-rule:nonzero;stroke:none"/></g><g id="g76" transform="translate(18.0005,26.4858)"><path d="m 0,0 c 4.686,0.001 8.486,-3.799 8.486,-8.486 0,-4.686 -3.8,-8.485 -8.487,-8.486 -4.686,0 -8.485,3.8 -8.486,8.486 C -8.486,-3.799 -4.687,0 0,0" id="path78" style="fill:#292f33;fill-opacity:1;fill-rule:nonzero;stroke:none"/></g></g></g><g id="g80"><g clip-path="url(#clipPath84)" id="g82"><g id="g88" transform="translate(18.707,17.293)"><path d="m 0,0 c -0.391,-0.391 -1.023,-0.391 -1.414,0 -0.391,0.391 -0.391,1.023 0,1.414 l 4.95,4.95 c 0.39,0.39 1.024,0.39 1.414,0 C 5.341,5.973 5.341,5.34 4.95,4.95 L 0,0 Z" id="path90" style="fill:#e1e8ed;fill-opacity:1;fill-rule:nonzero;stroke:none"/></g></g></g></g></svg>