<?xml version="1.0" encoding="UTF-8" standalone="no"?><svg xmlns="http://www.w3.org/2000/svg" xmlns:cc="http://creativecommons.org/ns#" xmlns:dc="http://purl.org/dc/elements/1.1/" xmlns:rdf="http://www.w3.org/1999/02/22-rdf-syntax-ns#" xmlns:svg="http://www.w3.org/2000/svg" height="45" id="svg2" style="enable-background:new 0 0 45 45;" version="1.1" viewBox="0 0 45 45" width="45" xml:space="preserve"><metadata id="metadata8"><rdf:RDF><cc:Work rdf:about=""><dc:format>image/svg+xml</dc:format><dc:type rdf:resource="http://purl.org/dc/dcmitype/StillImage"/></cc:Work></rdf:RDF></metadata><defs id="defs6"><clipPath clipPathUnits="userSpaceOnUse" id="clipPath16"><path d="M 0,36 36,36 36,0 0,0 0,36 Z" id="path18"/></clipPath></defs><g id="g10" transform="matrix(1.25,0,0,-1.25,0,45)"><g id="g12"><g clip-path="url(#clipPath16)" id="g14"><g id="g20" transform="translate(36,0)"><path d="m 0,0 0,2 c 0,3.314 -2.686,6 -6,6 l -16,0 c -3.313,0 -6,-2.686 -6,-6 l 0,-2 28,0 z" id="path22" style="fill:#77b255;fill-opacity:1;fill-rule:nonzero;stroke:none"/></g><g id="g24" transform="translate(22,2)"><path d="M 0,0 C 0.767,0 5,3 5,6 L -5,6 C -5,3 -0.767,0 0,0" id="path26" style="fill:#3e721d;fill-opacity:1;fill-rule:nonzero;stroke:none"/></g><g id="g28" transform="translate(17.6396,7.9619)"><path d="m 0,0 c 0,-2.846 8.72,-2.962 8.72,0 l 0,3.749 L 0,3.749 0,0 Z" id="path30" style="fill:#d5ab88;fill-opacity:1;fill-rule:nonzero;stroke:none"/></g><g id="g32" transform="translate(17.6318,10.0273)"><path d="m 0,0 c 1.216,-1.374 2.724,-1.746 4.364,-1.746 1.639,0 3.147,0.373 4.364,1.746 l 0,3.491 L 0,3.491 0,0 Z" id="path34" style="fill:#cc9b7a;fill-opacity:1;fill-rule:nonzero;stroke:none"/></g><g id="g36" transform="translate(15.4443,20.0645)"><path d="m 0,0 c 0,-1.448 -0.734,-2.622 -1.639,-2.622 -0.905,0 -1.639,1.174 -1.639,2.622 0,1.448 0.734,2.623 1.639,2.623 C -0.734,2.623 0,1.448 0,0" id="path38" style="fill:#d5ab88;fill-opacity:1;fill-rule:nonzero;stroke:none"/></g><g id="g40" transform="translate(31.833,20.0645)"><path d="m 0,0 c 0,-1.448 -0.733,-2.622 -1.639,-2.622 -0.905,0 -1.638,1.174 -1.638,2.622 0,1.448 0.733,2.623 1.638,2.623 C -0.733,2.623 0,1.448 0,0" id="path42" style="fill:#d5ab88;fill-opacity:1;fill-rule:nonzero;stroke:none"/></g><g id="g44" transform="translate(13.4775,19.0405)"><path d="m 0,0 c 0,5.589 3.816,10.121 8.523,10.121 4.707,0 8.522,-4.532 8.522,-10.121 0,-5.589 -3.815,-10.121 -8.522,-10.121 C 3.816,-10.121 0,-5.589 0,0" id="path46" style="fill:#d5ab88;fill-opacity:1;fill-rule:nonzero;stroke:none"/></g><g id="g48" transform="translate(22,12.1982)"><path d="m 0,0 c -2.754,0 -3.6,0.705 -3.741,0.848 -0.256,0.256 -0.256,0.671 0,0.927 0.248,0.248 0.645,0.254 0.902,0.023 C -2.787,1.761 -2.118,1.311 0,1.311 c 2.2,0 2.836,0.485 2.842,0.49 C 3.098,2.056 3.499,2.044 3.755,1.786 4.011,1.53 3.997,1.104 3.741,0.848 3.6,0.705 2.754,0 0,0" id="path50" style="fill:#c1694f;fill-opacity:1;fill-rule:nonzero;stroke:none"/></g><g id="g52" transform="translate(22,32.5205)"><path d="m 0,0 c 5.648,0 9.178,-4.168 9.178,-7.641 0,-3.473 -0.706,-4.863 -1.412,-3.473 -0.706,1.389 -1.412,2.778 -1.412,2.778 0,0 -4.236,0 -5.648,1.39 0,0 2.118,-4.168 -2.118,0 0,0 0.706,-2.779 -3.53,0.694 0,0 -2.118,-1.389 -2.824,-4.862 -0.196,-0.964 -1.412,0 -1.412,3.473 C -9.178,-4.168 -6.354,0 0,0" id="path54" style="fill:#963b22;fill-opacity:1;fill-rule:nonzero;stroke:none"/></g><g id="g56" transform="translate(18,19)"><path d="m 0,0 0,0 c -0.55,0 -1,0.45 -1,1 l 0,1 C -1,2.55 -0.55,3 0,3 0.55,3 1,2.55 1,2 L 1,1 C 1,0.45 0.55,0 0,0" id="path58" style="fill:#662113;fill-opacity:1;fill-rule:nonzero;stroke:none"/></g><g id="g60" transform="translate(26,19)"><path d="m 0,0 0,0 c -0.55,0 -1,0.45 -1,1 l 0,1 C -1,2.55 -0.55,3 0,3 0.55,3 1,2.55 1,2 L 1,1 C 1,0.45 0.55,0 0,0" id="path62" style="fill:#662113;fill-opacity:1;fill-rule:nonzero;stroke:none"/></g><g id="g64" transform="translate(22.75,16.25)"><path d="m 0,0 -1.5,0 c -0.413,0 -0.75,0.337 -0.75,0.75 0,0.413 0.337,0.75 0.75,0.75 L 0,1.5 C 0.413,1.5 0.75,1.163 0.75,0.75 0.75,0.337 0.413,0 0,0" id="path66" style="fill:#c1694f;fill-opacity:1;fill-rule:nonzero;stroke:none"/></g><path d="m 16,0 -3,0 0,8 3,0 0,-8 z" id="path68" style="fill:#3b88c3;fill-opacity:1;fill-rule:nonzero;stroke:none"/><path d="m 31,0 -3,0 0,8 3,0 0,-8 z" id="path70" style="fill:#3b88c3;fill-opacity:1;fill-rule:nonzero;stroke:none"/><path d="m 31,1 -17.875,0 0,-1 L 31,0 31,1 Z" id="path72" style="fill:#3b88c3;fill-opacity:1;fill-rule:nonzero;stroke:none"/><g id="g74" transform="translate(30,27.2002)"><path d="m 0,0 c 0,-1.32 -3.092,-2.2 -8,-2.2 -4.909,0 -8,0.88 -8,2.2 0,3.546 4,8.8 5.333,8.8 1.334,0 2.223,-1.76 2.667,-1.76 0.444,0 1.333,1.76 2.667,1.76 C -4,8.8 0,3.546 0,0" id="path76" style="fill:#c1694f;fill-opacity:1;fill-rule:nonzero;stroke:none"/></g><g id="g78" transform="translate(35.9414,28)"><path d="m 0,0 c 0,-1.657 -3.5,-6 -14,-6 -10.5,0 -14,4.343 -14,6 0,1.657 6.82,1 14,1 7.18,0 14,0.657 14,-1" id="path80" style="fill:#c1694f;fill-opacity:1;fill-rule:nonzero;stroke:none"/></g><g id="g82" transform="translate(30,27.2002)"><path d="m 0,0 c 0,-1.32 -3.092,-2.2 -8,-2.2 -4.909,0 -8,0.88 -8,2.2 0,0.566 0.102,1.175 0.279,1.8 2.388,-2 13.054,-2 15.443,-0.005 C -0.102,1.172 0,0.564 0,0" id="path84" style="fill:#292f33;fill-opacity:1;fill-rule:nonzero;stroke:none"/></g><g id="g86" transform="translate(7,4.25)"><path d="M 0,0 C 0,0.69 -0.56,1.25 -1.25,1.25 -1.94,1.25 -2.5,0.69 -2.5,0 l 0,-4.25 2.5,0 L 0,0 Z" id="path88" style="fill:#c1694f;fill-opacity:1;fill-rule:nonzero;stroke:none"/></g><g id="g90" transform="translate(10.0029,13.25)"><path d="m 0,0 c 0,-2.35 -1.904,-4.253 -4.253,-4.253 -2.349,0 -4.253,1.903 -4.253,4.253 0,0.086 -1.497,0.084 -1.497,0 0,-3.176 2.575,-5.75 5.75,-5.75 3.175,0 5.75,2.574 5.75,5.75 C 1.497,0.084 0,0.086 0,0" id="path92" style="fill:#66757f;fill-opacity:1;fill-rule:nonzero;stroke:none"/></g><g id="g94" transform="translate(1.5,13.25)"><path d="m 0,0 c 0,-0.414 -0.336,-0.75 -0.75,-0.75 -0.414,0 -0.75,0.336 -0.75,0.75 l 0,8.5 c 0,0.414 0.336,0.75 0.75,0.75 C -0.336,9.25 0,8.914 0,8.5 L 0,0 Z" id="path96" style="fill:#66757f;fill-opacity:1;fill-rule:nonzero;stroke:none"/></g><g id="g98" transform="translate(11.5,13.25)"><path d="m 0,0 c 0,-0.414 -0.336,-0.75 -0.75,-0.75 -0.414,0 -0.75,0.336 -0.75,0.75 l 0,8.5 c 0,0.414 0.336,0.75 0.75,0.75 C -0.336,9.25 0,8.914 0,8.5 L 0,0 Z" id="path100" style="fill:#66757f;fill-opacity:1;fill-rule:nonzero;stroke:none"/></g><g id="g102" transform="translate(6.5,5)"><path d="m 0,0 c 0,-0.414 -0.336,-0.75 -0.75,-0.75 -0.414,0 -0.75,0.336 -0.75,0.75 l 0,16.75 c 0,0.414 0.336,0.75 0.75,0.75 C -0.336,17.5 0,17.164 0,16.75 L 0,0 Z" id="path104" style="fill:#66757f;fill-opacity:1;fill-rule:nonzero;stroke:none"/></g></g></g></g></svg>