<?xml version="1.0" encoding="UTF-8" standalone="no"?><svg xmlns="http://www.w3.org/2000/svg" xmlns:cc="http://creativecommons.org/ns#" xmlns:dc="http://purl.org/dc/elements/1.1/" xmlns:rdf="http://www.w3.org/1999/02/22-rdf-syntax-ns#" xmlns:svg="http://www.w3.org/2000/svg" height="45" id="svg2" style="enable-background:new 0 0 45 45;" version="1.1" viewBox="0 0 45 45" width="45" xml:space="preserve"><metadata id="metadata8"><rdf:RDF><cc:Work rdf:about=""><dc:format>image/svg+xml</dc:format><dc:type rdf:resource="http://purl.org/dc/dcmitype/StillImage"/></cc:Work></rdf:RDF></metadata><defs id="defs6"><clipPath clipPathUnits="userSpaceOnUse" id="clipPath16"><path d="M 0,36 36,36 36,0 0,0 0,36 Z" id="path18"/></clipPath></defs><g id="g10" transform="matrix(1.25,0,0,-1.25,0,45)"><g id="g12"><g clip-path="url(#clipPath16)" id="g14"><g id="g20" transform="translate(11,19)"><path d="m 0,0 c 1,-3 0.209,-5 -2,-5 -2.209,0 -5.012,2.024 -6,4 -1,2 0.904,4.301 3,5 3,1 4.368,-2.102 5,-4" id="path22" style="fill:#af7e57;fill-opacity:1;fill-rule:nonzero;stroke:none"/></g><g id="g24" transform="translate(9,23.0005)"><path d="m 0,0 c 0,0.999 -3,2 -6,-1 -3,-3 1.021,-5.001 1.021,-5.001 0,0 3.979,-3 2.979,0 -1,3 2,5.002 2,6.001" id="path26" style="fill:#60352a;fill-opacity:1;fill-rule:nonzero;stroke:none"/></g><g id="g28" transform="translate(30,20)"><path d="M 0,0 C 0,-0.552 0.896,-1 2,-1 3.105,-1 4,-0.552 4,0 4,0.552 3.105,1 2,1 0.896,1 0,0.552 0,0" id="path30" style="fill:#99aab5;fill-opacity:1;fill-rule:nonzero;stroke:none"/></g><g id="g32" transform="translate(33,15)"><path d="m 0,0 c -0.553,0 -1,0.447 -1,1 l 0,16 c 0,1.582 -1.962,2 -3,2 -1.038,0 -3,-0.418 -3,-2 0,-0.552 -0.447,-1 -1,-1 -0.553,0 -1,0.448 -1,1 0,2.626 2.516,4 5,4 2.484,0 5,-1.374 5,-4 L 1,1 C 1,0.447 0.553,0 0,0" id="path34" style="fill:#ccd6dd;fill-opacity:1;fill-rule:nonzero;stroke:none"/></g><g id="g36" transform="translate(28,30)"><path d="m 0,0 c 0,-1.104 -1.343,-1 -3,-1 -1.657,0 -3,-0.104 -3,1 0,1.105 1.343,2 3,2 1.657,0 3,-0.895 3,-2" id="path38" style="fill:#99aab5;fill-opacity:1;fill-rule:nonzero;stroke:none"/></g><g id="g40" transform="translate(29,29)"><path d="m 0,0 c 0,-0.552 -0.447,-1 -1,-1 l -6,0 c -0.553,0 -1,0.448 -1,1 0,0.552 0.447,1 1,1 l 6,0 C -0.447,1 0,0.552 0,0" id="path42" style="fill:#ccd6dd;fill-opacity:1;fill-rule:nonzero;stroke:none"/></g><g id="g44" transform="translate(14,2)"><path d="m 0,0 c 0,-1.104 -0.895,-2 -2,-2 -1.104,0 -2,0.896 -2,2 0,1.104 0.896,2 2,2 1.105,0 2,-0.896 2,-2" id="path46" style="fill:#99aab5;fill-opacity:1;fill-rule:nonzero;stroke:none"/></g><g id="g48" transform="translate(30,2)"><path d="m 0,0 c 0,-1.104 -0.895,-2 -2,-2 -1.104,0 -2,0.896 -2,2 0,1.104 0.896,2 2,2 1.105,0 2,-0.896 2,-2" id="path50" style="fill:#99aab5;fill-opacity:1;fill-rule:nonzero;stroke:none"/></g><g id="g52" transform="translate(30,2)"><path d="m 0,0 -18,0 c -5,0 -10,6 -11,14 -0.248,1.984 0.812,1 3.021,1 0,0 12.979,-2 25.979,-2 2,0 5,1.209 5,-1 C 5,12 4,0 0,0" id="path54" style="fill:#ccd6dd;fill-opacity:1;fill-rule:nonzero;stroke:none"/></g><g id="g56" transform="translate(36,15)"><path d="m 0,0 c 0,-0.553 -0.447,-1 -1,-1 l -34,2 c -0.552,0 -1,0.447 -1,1 0,0.553 0.448,1 1,1 L -1,1 C -0.447,1 0,0.553 0,0" id="path58" style="fill:#99aab5;fill-opacity:1;fill-rule:nonzero;stroke:none"/></g></g></g></g></svg>