<?xml version="1.0" encoding="UTF-8" standalone="no"?><svg xmlns="http://www.w3.org/2000/svg" xmlns:cc="http://creativecommons.org/ns#" xmlns:dc="http://purl.org/dc/elements/1.1/" xmlns:rdf="http://www.w3.org/1999/02/22-rdf-syntax-ns#" xmlns:svg="http://www.w3.org/2000/svg" height="45" id="svg2" style="enable-background:new 0 0 45 45;" version="1.1" viewBox="0 0 45 45" width="45" xml:space="preserve"><metadata id="metadata8"><rdf:RDF><cc:Work rdf:about=""><dc:format>image/svg+xml</dc:format><dc:type rdf:resource="http://purl.org/dc/dcmitype/StillImage"/></cc:Work></rdf:RDF></metadata><defs id="defs6"><clipPath clipPathUnits="userSpaceOnUse" id="clipPath16"><path d="M 0,36 36,36 36,0 0,0 0,36 Z" id="path18"/></clipPath></defs><g id="g10" transform="matrix(1.25,0,0,-1.25,0,45)"><g id="g12"><g clip-path="url(#clipPath16)" id="g14"><g id="g20" transform="translate(35.999,24.0825)"><path d="m 0,0 c 0,-3.803 -3.082,-6.885 -6.885,-6.885 -3.802,0 -6.884,3.082 -6.884,6.885 0,3.802 3.082,6.884 6.884,6.884 C -3.082,6.884 0,3.802 0,0" id="path22" style="fill:#8899a6;fill-opacity:1;fill-rule:nonzero;stroke:none"/></g><g id="g24" transform="translate(32.8096,17.4316)"><path d="m 0,0 c -0.336,-0.336 -0.881,-0.336 -1.217,0 l -9.127,9.128 c -0.336,0.336 -0.336,0.881 0,1.217 l 1.217,1.217 c 0.336,0.336 0.881,0.336 1.217,0 L 1.217,2.434 c 0.336,-0.336 0.336,-0.881 0,-1.217 L 0,0 Z" id="path26" style="fill:#292f33;fill-opacity:1;fill-rule:nonzero;stroke:none"/></g><g id="g28" transform="translate(26.7393,17.2959)"><path d="M 0,0 -4.325,4.327 C -5.104,5.105 -6.32,5.06 -7.044,4.226 l -9.158,-10.575 c -1.219,-1.408 -1.462,-3.353 -0.711,-4.73 l -4.911,-4.912 1.409,-1.409 4.877,4.877 c 1.382,-0.84 3.411,-0.61 4.863,0.648 l 10.574,9.157 C 0.732,-1.994 0.779,-0.777 0,0" id="path30" style="fill:#292f33;fill-opacity:1;fill-rule:nonzero;stroke:none"/></g><g id="g32" transform="translate(4,30)"><path d="m 0,0 0,-8.122 c -0.314,0.075 -0.648,0.123 -1,0.123 -1.657,0 -3,-0.896 -3,-2 0,-1.105 1.343,-2 3,-2 1.656,0 2.999,0.895 3,1.999 l 0,0 0,6.111 5,-2.222 0,-5.011 c -0.314,0.075 -0.648,0.123 -1,0.123 -1.657,0 -3,-0.896 -3,-2.001 0,-1.104 1.343,-2 3,-2 1.656,0 2.999,0.896 2.999,2 L 9,-13 9,-4 9,-4 0,0 Z" id="path34" style="fill:#55acee;fill-opacity:1;fill-rule:nonzero;stroke:none"/></g><g id="g36" transform="translate(18,35)"><path d="M 0,0 0,-8.123 C -0.314,-8.048 -0.647,-8 -1,-8 c -1.657,0 -3,-0.895 -3,-2 0,-1.104 1.343,-2 3,-2 1.656,0 3,0.896 3,2 L 2,0 0,0 Z" id="path38" style="fill:#55acee;fill-opacity:1;fill-rule:nonzero;stroke:none"/></g></g></g></g></svg>