<?xml version="1.0" encoding="UTF-8" standalone="no"?><svg xmlns="http://www.w3.org/2000/svg" xmlns:cc="http://creativecommons.org/ns#" xmlns:dc="http://purl.org/dc/elements/1.1/" xmlns:rdf="http://www.w3.org/1999/02/22-rdf-syntax-ns#" xmlns:svg="http://www.w3.org/2000/svg" height="45" id="svg2" style="enable-background:new 0 0 45 45;" version="1.1" viewBox="0 0 45 45" width="45" xml:space="preserve"><metadata id="metadata8"><rdf:RDF><cc:Work rdf:about=""><dc:format>image/svg+xml</dc:format><dc:type rdf:resource="http://purl.org/dc/dcmitype/StillImage"/></cc:Work></rdf:RDF></metadata><defs id="defs6"/><g id="g10" transform="matrix(1.25,0,0,-1.25,0,45)"><g id="g12" transform="translate(12,33)"><path d="M 0,0 -9,-8.985 -9,-21 l 9,-9 12,0 9,9 0,12.015 L 12,0 0,0 Z" id="path14" style="fill:#dd2e44;fill-opacity:1;fill-rule:nonzero;stroke:none"/></g><g id="g16" transform="translate(33,12)"><path d="m 0,0 -9,-9 -12,0 -9,9 0,12.015 L -21,21 -9,21 0,12.015 0,0 Z M -8.173,23 -21.827,23 -32,12.844 -32,-0.828 -21.828,-11 -8.172,-11 2,-0.828 2,12.844 -8.173,23 Z" id="path18" style="fill:#ccd6dd;fill-opacity:1;fill-rule:nonzero;stroke:none"/></g></g></svg>