<?xml version="1.0" encoding="UTF-8" standalone="no"?><svg xmlns="http://www.w3.org/2000/svg" xmlns:cc="http://creativecommons.org/ns#" xmlns:dc="http://purl.org/dc/elements/1.1/" xmlns:rdf="http://www.w3.org/1999/02/22-rdf-syntax-ns#" xmlns:svg="http://www.w3.org/2000/svg" height="45" id="svg2" style="enable-background:new 0 0 45 45;" version="1.1" viewBox="0 0 45 45" width="45" xml:space="preserve"><metadata id="metadata8"><rdf:RDF><cc:Work rdf:about=""><dc:format>image/svg+xml</dc:format><dc:type rdf:resource="http://purl.org/dc/dcmitype/StillImage"/></cc:Work></rdf:RDF></metadata><defs id="defs6"><clipPath clipPathUnits="userSpaceOnUse" id="clipPath30"><path d="M 0,36 36,36 36,0 0,0 0,36 Z" id="path32"/></clipPath></defs><g id="g10" transform="matrix(1.25,0,0,-1.25,0,45)"><g id="g12" transform="translate(21.9996,36)"><path d="M 0,0 -2,-10.577 4.001,-27 l 9,0.885 L 8,-2.808 3.001,0 0,0 Z" id="path14" style="fill:#3b88c3;fill-opacity:1;fill-rule:nonzero;stroke:none"/></g><g id="g16" transform="translate(10.9998,36)"><path d="M 0,0 -4.999,-2.808 -10,-26.115 -1,-27 5,-10.577 3.001,0 0,0 Z" id="path18" style="fill:#3b88c3;fill-opacity:1;fill-rule:nonzero;stroke:none"/></g><path d="M 11,0 25,0 25,31 11,31 11,0 Z" id="path20" style="fill:#3b88c3;fill-opacity:1;fill-rule:nonzero;stroke:none"/><g id="g22" transform="translate(17.9849,27.2388)"><path d="m 0,0 -6.985,-5.239 2,0 5.094,5.094 L 0,0 Z" id="path24" style="fill:#226699;fill-opacity:1;fill-rule:nonzero;stroke:none"/></g><g id="g26"><g clip-path="url(#clipPath30)" id="g28"><g id="g34" transform="translate(25,16)"><path d="m 0,0 c 0,0 -1.167,-1 -7,-1 -5.833,0 -7,1 -7,1 l 0,6 14,0 0,-6 z" id="path36" style="fill:#88c9f9;fill-opacity:1;fill-rule:nonzero;stroke:none"/></g><g id="g38" transform="translate(25,18)"><path d="m 0,0 c 0,0 -1.167,-1 -7,-1 -5.833,0 -7,1 -7,1 l 0,2 7,0 7,0 0,-2 z" id="path40" style="fill:#ffffff;fill-opacity:1;fill-rule:nonzero;stroke:none"/></g><g id="g42" transform="translate(25,36)"><path d="M 0,0 -7,-9 -14,0 0,0 Z" id="path44" style="fill:#ffffff;fill-opacity:1;fill-rule:nonzero;stroke:none"/></g><g id="g46" transform="translate(20.333,36)"><path d="M 0,0 -2.333,-3 -4.666,0 0,0 Z" id="path48" style="fill:#99aab5;fill-opacity:1;fill-rule:nonzero;stroke:none"/></g><g id="g50" transform="translate(25,11)"><path d="M 0,0 0,21 2,-2 0,0 Z" id="path52" style="fill:#226699;fill-opacity:1;fill-rule:nonzero;stroke:none"/></g><g id="g54" transform="translate(11,11)"><path d="M 0,0 0,21 -2,-2 0,0 Z" id="path56" style="fill:#226699;fill-opacity:1;fill-rule:nonzero;stroke:none"/></g></g></g></g></svg>