<?xml version="1.0" encoding="UTF-8" standalone="no"?><svg xmlns="http://www.w3.org/2000/svg" xmlns:cc="http://creativecommons.org/ns#" xmlns:dc="http://purl.org/dc/elements/1.1/" xmlns:rdf="http://www.w3.org/1999/02/22-rdf-syntax-ns#" xmlns:svg="http://www.w3.org/2000/svg" height="45" id="svg2" style="enable-background:new 0 0 45 45;" version="1.1" viewBox="0 0 45 45" width="45" xml:space="preserve"><metadata id="metadata8"><rdf:RDF><cc:Work rdf:about=""><dc:format>image/svg+xml</dc:format><dc:type rdf:resource="http://purl.org/dc/dcmitype/StillImage"/></cc:Work></rdf:RDF></metadata><defs id="defs6"><clipPath clipPathUnits="userSpaceOnUse" id="clipPath16"><path d="M 0,36 36,36 36,0 0,0 0,36 Z" id="path18"/></clipPath></defs><g id="g10" transform="matrix(1.25,0,0,-1.25,0,45)"><g id="g12"><g clip-path="url(#clipPath16)" id="g14"><g id="g20" transform="translate(12.9082,5.25)"><path d="m 0,0 c -0.276,-2.209 -2.291,-3 -4.5,-3 -2.209,0 -3.776,1.791 -3.5,4 l 1,9 c 0.276,2.209 2.291,4 4.5,4 2.209,0 6.468,0 3.5,-4 C -1.968,6 0,0 0,0" id="path22" style="fill:#be1931;fill-opacity:1;fill-rule:nonzero;stroke:none"/></g><g id="g24" transform="translate(35.8252,21.25)"><path d="m 0,0 c 0,-6.902 -1.544,-12.5 -3.45,-12.5 -1.905,0 -20.45,5.598 -20.45,12.5 0,6.903 18.545,12.5 20.45,12.5 C -1.544,12.5 0,6.903 0,0" id="path26" style="fill:#ccd6dd;fill-opacity:1;fill-rule:nonzero;stroke:none"/></g><g id="g28" transform="translate(35.8252,21.25)"><path d="m 0,0 c 0,-6.902 -1.544,-12.5 -3.45,-12.5 -1.905,0 -3.45,5.598 -3.45,12.5 0,6.903 1.545,12.5 3.45,12.5 C -1.544,12.5 0,6.903 0,0" id="path30" style="fill:#66757f;fill-opacity:1;fill-rule:nonzero;stroke:none"/></g><g id="g32" transform="translate(17.9248,14.25)"><path d="m 0,0 -14,1 c -5,0 -5,12 0,12 L 0,14 C -3,11 -3,3 0,0" id="path34" style="fill:#dd2e44;fill-opacity:1;fill-rule:nonzero;stroke:none"/></g><g id="g36" transform="translate(32.8252,21.25)"><path d="M 0,0 C 0,-2.401 -0.672,-4.348 -1.5,-4.348 -2.328,-4.348 -3,-2.401 -3,0 -3,2.401 -2.328,4.348 -1.5,4.348 -0.672,4.348 0,2.401 0,0" id="path38" style="fill:#99aab5;fill-opacity:1;fill-rule:nonzero;stroke:none"/></g></g></g></g></svg>