<?xml version="1.0" encoding="UTF-8" standalone="no"?><svg xmlns="http://www.w3.org/2000/svg" xmlns:cc="http://creativecommons.org/ns#" xmlns:dc="http://purl.org/dc/elements/1.1/" xmlns:rdf="http://www.w3.org/1999/02/22-rdf-syntax-ns#" xmlns:svg="http://www.w3.org/2000/svg" height="45" id="svg2" style="enable-background:new 0 0 45 45;" version="1.1" viewBox="0 0 45 45" width="45" xml:space="preserve"><metadata id="metadata8"><rdf:RDF><cc:Work rdf:about=""><dc:format>image/svg+xml</dc:format><dc:type rdf:resource="http://purl.org/dc/dcmitype/StillImage"/></cc:Work></rdf:RDF></metadata><defs id="defs6"><clipPath clipPathUnits="userSpaceOnUse" id="clipPath16"><path d="M 4,31 C 1.791,31 0,29.209 0,27 L 0,27 0,9 C 0,6.791 1.791,5 4,5 l 0,0 28,0 c 2.209,0 4,1.791 4,4 l 0,0 0,18 c 0,2.209 -1.791,4 -4,4 l 0,0 -28,0 z" id="path18"/></clipPath></defs><g id="g10" transform="matrix(1.25,0,0,-1.25,0,45)"><g id="g12"><g clip-path="url(#clipPath16)" id="g14"><g id="g20" transform="translate(32.5839,31)"><path d="M 0,0 -29.168,0 -14.584,-10.533 0,0 Z" id="path22" style="fill:#009b3a;fill-opacity:1;fill-rule:nonzero;stroke:none"/></g><g id="g24" transform="translate(36,7.4673)"><path d="M 0,0 0,21.065 -14.584,10.533 0,0 Z" id="path26" style="fill:#141414;fill-opacity:1;fill-rule:nonzero;stroke:none"/></g><g id="g28" transform="translate(0,28.5327)"><path d="M 0,0 0,-21.065 14.584,-10.533 0,0 Z" id="path30" style="fill:#141414;fill-opacity:1;fill-rule:nonzero;stroke:none"/></g><g id="g32" transform="translate(3.4161,5)"><path d="M 0,0 29.168,0 14.584,10.533 0,0 Z" id="path34" style="fill:#009b3a;fill-opacity:1;fill-rule:nonzero;stroke:none"/></g><g id="g36" transform="translate(36,31)"><path d="M 0,0 -3.416,0 -18,-10.533 -32.584,0 -36,0 -36,-2.467 -21.416,-13 -36,-23.533 -36,-26 -32.584,-26 -18,-15.467 -3.416,-26 0,-26 0,-23.533 -14.584,-13 0,-2.467 0,0 Z" id="path38" style="fill:#ffd202;fill-opacity:1;fill-rule:nonzero;stroke:none"/></g></g></g></g></svg>