<?xml version="1.0" encoding="UTF-8" standalone="no"?><svg xmlns="http://www.w3.org/2000/svg" xmlns:cc="http://creativecommons.org/ns#" xmlns:dc="http://purl.org/dc/elements/1.1/" xmlns:rdf="http://www.w3.org/1999/02/22-rdf-syntax-ns#" xmlns:svg="http://www.w3.org/2000/svg" height="45" id="svg2" style="enable-background:new 0 0 45 45;" version="1.1" viewBox="0 0 45 45" width="45" xml:space="preserve"><metadata id="metadata8"><rdf:RDF><cc:Work rdf:about=""><dc:format>image/svg+xml</dc:format><dc:type rdf:resource="http://purl.org/dc/dcmitype/StillImage"/></cc:Work></rdf:RDF></metadata><defs id="defs6"><clipPath clipPathUnits="userSpaceOnUse" id="clipPath16"><path d="M 0,36 36,36 36,0 0,0 0,36 Z" id="path18"/></clipPath></defs><g id="g10" transform="matrix(1.25,0,0,-1.25,0,45)"><g id="g12"><g clip-path="url(#clipPath16)" id="g14"><g id="g20" transform="translate(34,30)"><path d="m 0,0 c -2,3 -9,4 -16,4 -7,0 -15,-1 -16,-3 -1.907,-3.814 -1,-20 -1,-21 0,-1 5,-1 5,-1 l 0,13 1,2 0,-23 c 0,0 3,-1 11,-1 8,0 11,1 11,1 l 0,23 1,-2 0,-13 c 0,0 5,0 5,1 0,1 1.365,16.452 -1,20" id="path22" style="fill:#e1e8ed;fill-opacity:1;fill-rule:nonzero;stroke:none"/></g><g id="g24" transform="translate(7,9)"><path d="m 0,0 -1,0 0,13 c 0,1 1,2 1,2 L 0,0 Z" id="path26" style="fill:#99aab5;fill-opacity:1;fill-rule:nonzero;stroke:none"/></g><g id="g28" transform="translate(30,9)"><path d="m 0,0 -1,0 0,15 c 0,0 1,-1 1,-2 L 0,0 Z" id="path30" style="fill:#99aab5;fill-opacity:1;fill-rule:nonzero;stroke:none"/></g><g id="g32" transform="translate(11.7813,34)"><path d="M 0,0 6.281,-11.344 12.219,0 6.109,1.25 0,0 Z" id="path34" style="fill:#66757f;fill-opacity:1;fill-rule:nonzero;stroke:none"/></g><g id="g36" transform="translate(12,35.375)"><path d="M 0,0 C 0,0 2.25,0.547 6,0.547 9.75,0.547 12,0 12,0 l 0,-2.375 c 0,0 -1.625,1 -6,1 -4.375,0 -6,-1 -6,-1 L 0,0 Z" id="path38" style="fill:#ccd6dd;fill-opacity:1;fill-rule:nonzero;stroke:none"/></g><g id="g40" transform="translate(7,1)"><path d="m 0,0 c 0,0 17.748,31.659 17.748,32.638 0,1 -0.748,1.737 -0.748,1.737 L 0,3 0,0 Z" id="path42" style="fill:#99aab5;fill-opacity:1;fill-rule:nonzero;stroke:none"/></g><g id="g44" transform="translate(17.8184,21.2778)"><path d="m 0,0 c 0,0 -6.692,11.381 -6.692,12.36 0,1 0.874,1.737 0.874,1.737 L 0.943,1.524 0,0 Z" id="path46" style="fill:#99aab5;fill-opacity:1;fill-rule:nonzero;stroke:none"/></g><g id="g48" transform="translate(7,14)"><path d="m 0,0 c 0,0 5,-2 11,-2 6,0 11,2 11,2 l 0,-3 C 22,-3 18,-5 11,-5 4,-5 0,-3 0,-3 l 0,3 z" id="path50" style="fill:#292f33;fill-opacity:1;fill-rule:nonzero;stroke:none"/></g><g id="g52" transform="translate(21,12)"><path d="m 0,0 c 0,0 -2,1 -3,1 -1,0 -3,-1 -3,-1 0,0 -1,0 -1,-1 0,-1 1,-2 1,-2 0,0 2,-1 3,-1 1,0 3,1 3,1 0,0 1,1 1,2 0,1 -1,1 -1,1" id="path54" style="fill:#292f33;fill-opacity:1;fill-rule:nonzero;stroke:none"/></g><g id="g56" transform="translate(12,3)"><path d="m 0,0 3,-1 c 0,0 1,5 3,7 L 4,9 C 4,9 1,5 0,0" id="path58" style="fill:#292f33;fill-opacity:1;fill-rule:nonzero;stroke:none"/></g><g id="g60" transform="translate(24,3)"><path d="m 0,0 -3,-1 c 0,0 -1,5 -3,7 l 2,3 c 0,0 3,-4 4,-9" id="path62" style="fill:#292f33;fill-opacity:1;fill-rule:nonzero;stroke:none"/></g></g></g></g></svg>