<?xml version="1.0" encoding="UTF-8" standalone="no"?><svg xmlns="http://www.w3.org/2000/svg" xmlns:cc="http://creativecommons.org/ns#" xmlns:dc="http://purl.org/dc/elements/1.1/" xmlns:rdf="http://www.w3.org/1999/02/22-rdf-syntax-ns#" xmlns:svg="http://www.w3.org/2000/svg" height="45" id="svg2" style="enable-background:new 0 0 45 45;" version="1.1" viewBox="0 0 45 45" width="45" xml:space="preserve"><metadata id="metadata8"><rdf:RDF><cc:Work rdf:about=""><dc:format>image/svg+xml</dc:format><dc:type rdf:resource="http://purl.org/dc/dcmitype/StillImage"/></cc:Work></rdf:RDF></metadata><defs id="defs6"><clipPath clipPathUnits="userSpaceOnUse" id="clipPath16"><path d="M 0,36 36,36 36,0 0,0 0,36 Z" id="path18"/></clipPath><clipPath clipPathUnits="userSpaceOnUse" id="clipPath42"><path d="m 15,21 6,0 0,-6 -6,0 0,6 z" id="path44"/></clipPath></defs><g id="g10" transform="matrix(1.25,0,0,-1.25,0,45)"><g id="g12"><g clip-path="url(#clipPath16)" id="g14"><g id="g20" transform="translate(0,9)"><path d="m 0,0 c 0,-2.209 1.791,-4 4,-4 l 28,0 c 2.209,0 4,1.791 4,4 L 36,4 0,4 0,0 Z" id="path22" style="fill:#138808;fill-opacity:1;fill-rule:nonzero;stroke:none"/></g><path d="M 0,13 36,13 36,23 0,23 0,13 Z" id="path24" style="fill:#eeeeee;fill-opacity:1;fill-rule:nonzero;stroke:none"/><g id="g26" transform="translate(36,23)"><path d="m 0,0 0,4 c 0,2.209 -1.791,4 -4,4 l -28,0 c -2.209,0 -4,-1.791 -4,-4 l 0,-4 36,0 z" id="path28" style="fill:#ff9933;fill-opacity:1;fill-rule:nonzero;stroke:none"/></g><g id="g30" transform="translate(22,18)"><path d="m 0,0 c 0,2.21 -1.791,4.001 -4.001,4.001 -2.209,0 -4,-1.791 -4,-4.001 0,-2.209 1.791,-4 4,-4 C -1.791,-4 0,-2.209 0,0" id="path32" style="fill:#000080;fill-opacity:1;fill-rule:nonzero;stroke:none"/></g><g id="g34" transform="translate(21,18)"><path d="m 0,0 c 0,1.657 -1.344,3.001 -3.001,3.001 -1.657,0 -3,-1.344 -3,-3.001 0,-1.657 1.343,-3 3,-3 C -1.344,-3 0,-1.657 0,0" id="path36" style="fill:#eeeeee;fill-opacity:1;fill-rule:nonzero;stroke:none"/></g><g id="g38"><g id="g40"/><g id="g46"><g clip-path="url(#clipPath42)" id="g48" style="opacity:0.60000598"><g id="g50" transform="translate(18,21)"><path d="M 0,0 0.146,-2.264 1.148,-0.229 0.417,-2.376 2.121,-0.878 0.624,-2.583 2.771,-1.852 0.736,-2.854 3,-3 0.736,-3.146 2.771,-4.147 0.624,-3.417 2.121,-5.121 0.417,-3.624 1.148,-5.771 0.146,-3.736 0,-6 l -0.146,2.264 -1.002,-2.035 0.731,2.147 -1.705,-1.497 1.498,1.704 -2.147,-0.73 2.035,1.001 L -3,-3 l 2.264,0.146 -2.035,1.002 2.147,-0.731 -1.498,1.705 1.705,-1.498 -0.731,2.147 1.002,-2.035 L 0,0 Z" id="path52" style="fill:#000080;fill-opacity:1;fill-rule:nonzero;stroke:none"/></g></g></g></g><g id="g54" transform="translate(17,18)"><path d="M 0,0 C 0,0.552 0.448,1 1,1 1.552,1 2,0.552 2,0 2,-0.552 1.552,-1 1,-1 0.448,-1 0,-0.552 0,0" id="path56" style="fill:#000080;fill-opacity:1;fill-rule:nonzero;stroke:none"/></g></g></g></g></svg>