<?xml version="1.0" encoding="UTF-8" standalone="no"?><svg xmlns="http://www.w3.org/2000/svg" xmlns:cc="http://creativecommons.org/ns#" xmlns:dc="http://purl.org/dc/elements/1.1/" xmlns:rdf="http://www.w3.org/1999/02/22-rdf-syntax-ns#" xmlns:svg="http://www.w3.org/2000/svg" height="45" id="svg2" style="enable-background:new 0 0 45 45;" version="1.1" viewBox="0 0 45 45" width="45" xml:space="preserve"><metadata id="metadata8"><rdf:RDF><cc:Work rdf:about=""><dc:format>image/svg+xml</dc:format><dc:type rdf:resource="http://purl.org/dc/dcmitype/StillImage"/></cc:Work></rdf:RDF></metadata><defs id="defs6"><clipPath clipPathUnits="userSpaceOnUse" id="clipPath16"><path d="M 0,36 36,36 36,0 0,0 0,36 Z" id="path18"/></clipPath></defs><g id="g10" transform="matrix(1.25,0,0,-1.25,0,45)"><g id="g12"><g clip-path="url(#clipPath16)" id="g14"><g id="g20" transform="translate(4,28)"><path d="m 0,0 c 0,0 -4,-2 -4,-11 0,0 6,1 7,3 0,0 2,12.25 -3,8" id="path22" style="fill:#99aab5;fill-opacity:1;fill-rule:nonzero;stroke:none"/></g><g id="g24" transform="translate(31.9951,27.9565)"><path d="m 0,0 c 0,0 4,-2 4,-11 0,0 -6,1 -7,3 0,0 -2,12.25 3,8" id="path26" style="fill:#99aab5;fill-opacity:1;fill-rule:nonzero;stroke:none"/></g><g id="g28" transform="translate(1,35)"><path d="m 0,0 c -1.01,-0.99 1,-8 5,-9 4,-1 4,5 3,5 -4,0 -5.958,6 -8,4" id="path30" style="fill:#ffe8b6;fill-opacity:1;fill-rule:nonzero;stroke:none"/></g><g id="g32" transform="translate(35.2969,35)"><path d="m 0,0 c 1.011,-0.99 -1,-8 -5,-9 -4,-1 -4,5 -3,5 4,0 5.959,6 8,4" id="path34" style="fill:#ffe8b6;fill-opacity:1;fill-rule:nonzero;stroke:none"/></g><g id="g36" transform="translate(21.9756,5)"><path d="m 0,0 -7.951,0 c -5.536,0 -10.025,4.488 -10.025,10.024 l 0,8.951 c 0,5.537 4.489,10.025 10.025,10.025 L 0,29 c 5.536,0 10.024,-4.488 10.024,-10.025 l 0,-8.951 C 10.024,4.488 5.536,0 0,0" id="path38" style="fill:#ccd6dd;fill-opacity:1;fill-rule:nonzero;stroke:none"/></g><g id="g40" transform="translate(35,8)"><path d="m 0,0 c 0,-5.523 -4.477,-8 -10,-8 l -14,0 c -5.523,0 -10,2.477 -10,8 0,5.523 4.477,10 10,10 l 14,0 C -4.477,10 0,5.523 0,0" id="path42" style="fill:#e6aaaa;fill-opacity:1;fill-rule:nonzero;stroke:none"/></g><g id="g44" transform="translate(11,10)"><path d="M 0,0 C 0,-1.657 -0.671,-3 -1.5,-3 -2.329,-3 -3,-1.657 -3,0 -3,1.657 -2.329,3 -1.5,3 -0.671,3 0,1.657 0,0" id="path46" style="fill:#c1694f;fill-opacity:1;fill-rule:nonzero;stroke:none"/></g><g id="g48" transform="translate(28,10)"><path d="M 0,0 C 0,-1.657 -0.672,-3 -1.5,-3 -2.328,-3 -3,-1.657 -3,0 -3,1.657 -2.328,3 -1.5,3 -0.672,3 0,1.657 0,0" id="path50" style="fill:#c1694f;fill-opacity:1;fill-rule:nonzero;stroke:none"/></g><g id="g52" transform="translate(11,24)"><path d="M 0,0 C 0,0 0,2 2,2 4,2 4,0 4,0 l 0,-2 c 0,0 0,-2 -2,-2 -2,0 -2,2 -2,2 l 0,2 z" id="path54" style="fill:#272b2b;fill-opacity:1;fill-rule:nonzero;stroke:none"/></g><g id="g56" transform="translate(21,24)"><path d="M 0,0 C 0,0 0,2 2,2 4,2 4,0 4,0 l 0,-2 c 0,0 0,-2 -2,-2 -2,0 -2,2 -2,2 l 0,2 z" id="path58" style="fill:#272b2b;fill-opacity:1;fill-rule:nonzero;stroke:none"/></g></g></g></g></svg>