<?xml version="1.0" encoding="UTF-8" standalone="no"?><svg xmlns="http://www.w3.org/2000/svg" xmlns:cc="http://creativecommons.org/ns#" xmlns:dc="http://purl.org/dc/elements/1.1/" xmlns:rdf="http://www.w3.org/1999/02/22-rdf-syntax-ns#" xmlns:svg="http://www.w3.org/2000/svg" height="45" id="svg2" style="enable-background:new 0 0 45 45;" version="1.1" viewBox="0 0 45 45" width="45" xml:space="preserve"><metadata id="metadata8"><rdf:RDF><cc:Work rdf:about=""><dc:format>image/svg+xml</dc:format><dc:type rdf:resource="http://purl.org/dc/dcmitype/StillImage"/></cc:Work></rdf:RDF></metadata><defs id="defs6"><clipPath clipPathUnits="userSpaceOnUse" id="clipPath16"><path d="M 0,36 36,36 36,0 0,0 0,36 Z" id="path18"/></clipPath></defs><g id="g10" transform="matrix(1.25,0,0,-1.25,0,45)"><g id="g12"><g clip-path="url(#clipPath16)" id="g14"><g id="g20" transform="translate(27.6102,20.9519)"><path d="m 0,0 -1.213,-2.022 -0.208,2.349 -2.298,0.528 2.17,0.924 -0.207,2.349 1.548,-1.779 2.17,0.924 L 0.75,1.25 2.298,-0.529 0,0 Z m -5.11,-10.424 c -4.142,0 -7.5,3.358 -7.5,7.5 0,3.72 2.711,6.798 6.263,7.389 -2.221,-1.034 -3.763,-3.279 -3.763,-5.889 0,-3.59 2.91,-6.5 6.5,-6.5 2.61,0 4.855,1.542 5.889,3.763 -0.591,-3.552 -3.669,-6.263 -7.389,-6.263 m 9.5,20.472 -23,0 0,-26 23,0 c 2.209,0 4,1.791 4,4 l 0,18 c 0,2.209 -1.791,4 -4,4" id="path22" style="fill:#004600;fill-opacity:1;fill-rule:nonzero;stroke:none"/></g><g id="g24" transform="translate(4,31)"><path d="m 0,0 c -2.209,0 -4,-1.791 -4,-4 l 0,-18 c 0,-2.209 1.791,-4 4,-4 l 5,0 0,26 -5,0 z" id="path26" style="fill:#eeeeee;fill-opacity:1;fill-rule:nonzero;stroke:none"/></g><g id="g28" transform="translate(29.5723,24.2247)"><path d="m 0,0 -2.17,-0.924 -1.548,1.779 0.207,-2.349 -2.17,-0.923 2.298,-0.528 0.208,-2.35 1.213,2.022 2.298,-0.529 -1.548,1.779 L 0,0 Z" id="path30" style="fill:#ffffff;fill-opacity:1;fill-rule:nonzero;stroke:none"/></g><g id="g32" transform="translate(24,13.0276)"><path d="m 0,0 c -3.59,0 -6.5,2.91 -6.5,6.5 0,2.611 1.543,4.856 3.763,5.89 C -6.289,11.799 -9,8.72 -9,5 c 0,-4.142 3.358,-7.5 7.5,-7.5 3.72,0 6.799,2.711 7.39,6.263 C 4.856,1.543 2.611,0 0,0" id="path34" style="fill:#ffffff;fill-opacity:1;fill-rule:nonzero;stroke:none"/></g></g></g></g></svg>