<?xml version="1.0" encoding="UTF-8" standalone="no"?><svg xmlns="http://www.w3.org/2000/svg" xmlns:cc="http://creativecommons.org/ns#" xmlns:dc="http://purl.org/dc/elements/1.1/" xmlns:rdf="http://www.w3.org/1999/02/22-rdf-syntax-ns#" xmlns:svg="http://www.w3.org/2000/svg" height="45" id="svg2" style="enable-background:new 0 0 45 45;" version="1.1" viewBox="0 0 45 45" width="45" xml:space="preserve"><metadata id="metadata8"><rdf:RDF><cc:Work rdf:about=""><dc:format>image/svg+xml</dc:format><dc:type rdf:resource="http://purl.org/dc/dcmitype/StillImage"/></cc:Work></rdf:RDF></metadata><defs id="defs6"><clipPath clipPathUnits="userSpaceOnUse" id="clipPath16"><path d="M 0,36 36,36 36,0 0,0 0,36 Z" id="path18"/></clipPath></defs><g id="g10" transform="matrix(1.25,0,0,-1.25,0,45)"><g id="g12"><g clip-path="url(#clipPath16)" id="g14"><g id="g20" transform="translate(31.543,18.4702)"><path d="m 0,0 c 0.77,0.782 0.767,2.039 -0.01,2.817 l -13.556,13.557 c -0.782,0.78 -2.048,0.78 -2.829,0 l -3,-3 c -0.781,-0.782 -0.781,-2.048 0,-2.829 L -5.839,-3.011 c 0.781,-0.781 2.048,-0.781 2.829,0 l 0.182,0.181 c 1.936,-1.949 3.223,-3.834 3.223,-6.64 l 0,-6.707 c 0,-1.105 0.895,-2 2,-2 1.104,0 2,0.895 2,2 l 0,6.707 C 4.395,-5.04 2.185,-2.197 0,0" id="path22" style="fill:#66757f;fill-opacity:1;fill-rule:nonzero;stroke:none"/></g><g id="g24" transform="translate(32.1035,15.0293)"><path d="m 0,0 c -0.781,-0.78 -2.048,-0.78 -2.829,0 l -17.556,17.557 c -0.781,0.78 -0.781,2.047 0,2.828 0.781,0.781 2.047,0.781 2.828,0 L 0,2.829 C 0.78,2.048 0.78,0.781 0,0" id="path26" style="fill:#99aab5;fill-opacity:1;fill-rule:nonzero;stroke:none"/></g><g id="g28" transform="translate(17.4141,20.4141)"><path d="m 0,0 c 0.391,-0.391 0.391,-1.024 0,-1.414 l -15.707,-15.707 c -0.39,-0.391 -1.023,-0.391 -1.414,0 -0.391,0.39 -0.39,1.024 0,1.414 L -1.414,0 C -1.024,0.391 -0.391,0.391 0,0" id="path30" style="fill:#55acee;fill-opacity:1;fill-rule:nonzero;stroke:none"/></g><g id="g32" transform="translate(14.4141,23.4141)"><path d="m 0,0 c 0.391,-0.391 0.391,-1.024 0,-1.414 l -12.707,-12.707 c -0.39,-0.391 -1.023,-0.391 -1.414,0 -0.391,0.39 -0.39,1.024 0,1.414 L -1.414,0 C -1.023,0.391 -0.391,0.391 0,0" id="path34" style="fill:#55acee;fill-opacity:1;fill-rule:nonzero;stroke:none"/></g><g id="g36" transform="translate(11.4141,26.4141)"><path d="m 0,0 c 0.391,-0.391 0.391,-1.024 0,-1.414 l -9.414,-9.414 c -0.391,-0.391 -1.024,-0.391 -1.415,0 -0.39,0.39 -0.39,1.024 0,1.414 L -1.414,0 C -1.023,0.391 -0.391,0.391 0,0" id="path38" style="fill:#55acee;fill-opacity:1;fill-rule:nonzero;stroke:none"/></g><g id="g40" transform="translate(20.4141,17.4141)"><path d="m 0,0 c 0.391,-0.391 0.391,-1.024 0,-1.414 l -12.707,-12.707 c -0.39,-0.391 -1.023,-0.391 -1.414,0 -0.391,0.39 -0.39,1.024 0,1.414 L -1.414,0 C -1.024,0.391 -0.391,0.391 0,0" id="path42" style="fill:#55acee;fill-opacity:1;fill-rule:nonzero;stroke:none"/></g><g id="g44" transform="translate(23.4141,14.4141)"><path d="m 0,0 c 0.391,-0.391 0.391,-1.023 0,-1.414 l -9.414,-9.414 c -0.391,-0.391 -1.024,-0.391 -1.415,0 -0.39,0.39 -0.39,1.024 0,1.414 L -1.414,0 C -1.024,0.391 -0.391,0.391 0,0" id="path46" style="fill:#55acee;fill-opacity:1;fill-rule:nonzero;stroke:none"/></g></g></g></g></svg>