<?xml version="1.0" encoding="UTF-8" standalone="no"?><svg xmlns="http://www.w3.org/2000/svg" xmlns:cc="http://creativecommons.org/ns#" xmlns:dc="http://purl.org/dc/elements/1.1/" xmlns:rdf="http://www.w3.org/1999/02/22-rdf-syntax-ns#" xmlns:svg="http://www.w3.org/2000/svg" height="45" id="svg2" style="enable-background:new 0 0 45 45;" version="1.1" viewBox="0 0 45 45" width="45" xml:space="preserve"><metadata id="metadata8"><rdf:RDF><cc:Work rdf:about=""><dc:format>image/svg+xml</dc:format><dc:type rdf:resource="http://purl.org/dc/dcmitype/StillImage"/></cc:Work></rdf:RDF></metadata><defs id="defs6"><clipPath clipPathUnits="userSpaceOnUse" id="clipPath16"><path d="M 0,36 36,36 36,0 0,0 0,36 Z" id="path18"/></clipPath></defs><g id="g10" transform="matrix(1.25,0,0,-1.25,0,45)"><g id="g12"><g clip-path="url(#clipPath16)" id="g14"><g id="g20" transform="translate(34,4)"><path d="m 0,0 -3,0 0,28 c 0,2.209 -1.791,4 -4,4 l -18,0 c -2.209,0 -4,-1.791 -4,-4 l 0,-28 -3,0 c -1.104,0 -2,-0.895 -2,-2 0,-1.105 0.896,-2 2,-2 l 32,0 c 1.105,0 2,0.895 2,2 0,1.105 -0.895,2 -2,2" id="path22" style="fill:#bcbec0;fill-opacity:1;fill-rule:nonzero;stroke:none"/></g><g id="g24" transform="translate(29,3)"><path d="m 0,0 c 0,-1.657 -1.343,-3 -3,-3 l -16,0 c -1.657,0 -3,1.343 -3,3 l 0,28 c 0,1.657 1.343,3 3,3 l 16,0 c 1.657,0 3,-1.343 3,-3 L 0,0 Z" id="path26" style="fill:#be1931;fill-opacity:1;fill-rule:nonzero;stroke:none"/></g><g id="g28" transform="translate(14,16.5)"><path d="M 0,0 C 0,-1.38 -1.119,-2.5 -2.5,-2.5 -3.881,-2.5 -5,-1.38 -5,0 -5,1.381 -3.881,2.5 -2.5,2.5 -1.119,2.5 0,1.381 0,0" id="path30" style="fill:#f4900c;fill-opacity:1;fill-rule:nonzero;stroke:none"/></g><g id="g32" transform="translate(13,16.5)"><path d="M 0,0 C 0,-0.828 -0.671,-1.5 -1.5,-1.5 -2.329,-1.5 -3,-0.828 -3,0 -3,0.829 -2.329,1.5 -1.5,1.5 -0.671,1.5 0,0.829 0,0" id="path34" style="fill:#ffd983;fill-opacity:1;fill-rule:nonzero;stroke:none"/></g><g id="g36" transform="translate(26,20)"><path d="m 0,0 -4,0 c -0.553,0 -1,0.448 -1,1 0,0.552 0.447,1 1,1 l 3,0 0,7 c 0,0.552 0.447,1 1,1 0.553,0 1,-0.448 1,-1 L 1,1 C 1,0.448 0.553,0 0,0" id="path38" style="fill:#ea596e;fill-opacity:1;fill-rule:nonzero;stroke:none"/></g><g id="g40" transform="translate(20,22)"><path d="m 0,0 c -0.553,0 -1,0.448 -1,1 l 0,8 c 0,0.552 0.447,1 1,1 l 4,0 C 4.553,10 5,9.552 5,9 5,8.448 4.553,8 4,8 L 1,8 1,1 C 1,0.448 0.553,0 0,0" id="path42" style="fill:#a0041e;fill-opacity:1;fill-rule:nonzero;stroke:none"/></g><g id="g44" transform="translate(16,20)"><path d="m 0,0 -4,0 c -0.552,0 -1,0.448 -1,1 0,0.552 0.448,1 1,1 l 3,0 0,7 c 0,0.552 0.448,1 1,1 0.552,0 1,-0.448 1,-1 L 1,1 C 1,0.448 0.552,0 0,0" id="path46" style="fill:#ea596e;fill-opacity:1;fill-rule:nonzero;stroke:none"/></g><g id="g48" transform="translate(10,22)"><path d="m 0,0 c -0.552,0 -1,0.448 -1,1 l 0,8 c 0,0.552 0.448,1 1,1 l 4,0 C 4.552,10 5,9.552 5,9 5,8.448 4.552,8 4,8 L 1,8 1,1 C 1,0.448 0.552,0 0,0" id="path50" style="fill:#a0041e;fill-opacity:1;fill-rule:nonzero;stroke:none"/></g><g id="g52" transform="translate(26,2)"><path d="m 0,0 -4,0 c -0.553,0 -1,0.447 -1,1 0,0.553 0.447,1 1,1 l 3,0 0,6 C -1,8.553 -0.553,9 0,9 0.553,9 1,8.553 1,8 L 1,1 C 1,0.447 0.553,0 0,0" id="path54" style="fill:#ea596e;fill-opacity:1;fill-rule:nonzero;stroke:none"/></g><g id="g56" transform="translate(20,4)"><path d="m 0,0 c -0.553,0 -1,0.447 -1,1 l 0,7 c 0,0.553 0.447,1 1,1 L 4,9 C 4.553,9 5,8.553 5,8 5,7.447 4.553,7 4,7 L 1,7 1,1 C 1,0.447 0.553,0 0,0" id="path58" style="fill:#a0041e;fill-opacity:1;fill-rule:nonzero;stroke:none"/></g><g id="g60" transform="translate(16,2)"><path d="m 0,0 -4,0 c -0.552,0 -1,0.447 -1,1 0,0.553 0.448,1 1,1 l 3,0 0,6 C -1,8.553 -0.552,9 0,9 0.552,9 1,8.553 1,8 L 1,1 C 1,0.447 0.552,0 0,0" id="path62" style="fill:#ea596e;fill-opacity:1;fill-rule:nonzero;stroke:none"/></g><g id="g64" transform="translate(10,4)"><path d="m 0,0 c -0.552,0 -1,0.447 -1,1 l 0,7 c 0,0.553 0.448,1 1,1 L 4,9 C 4.552,9 5,8.553 5,8 5,7.447 4.552,7 4,7 L 1,7 1,1 C 1,0.447 0.552,0 0,0" id="path66" style="fill:#a0041e;fill-opacity:1;fill-rule:nonzero;stroke:none"/></g></g></g></g></svg>