<?xml version="1.0" encoding="UTF-8" standalone="no"?><svg xmlns="http://www.w3.org/2000/svg" xmlns:cc="http://creativecommons.org/ns#" xmlns:dc="http://purl.org/dc/elements/1.1/" xmlns:rdf="http://www.w3.org/1999/02/22-rdf-syntax-ns#" xmlns:svg="http://www.w3.org/2000/svg" height="45" id="svg2" style="enable-background:new 0 0 45 45;" version="1.1" viewBox="0 0 45 45" width="45" xml:space="preserve"><metadata id="metadata8"><rdf:RDF><cc:Work rdf:about=""><dc:format>image/svg+xml</dc:format><dc:type rdf:resource="http://purl.org/dc/dcmitype/StillImage"/></cc:Work></rdf:RDF></metadata><defs id="defs6"><clipPath clipPathUnits="userSpaceOnUse" id="clipPath16"><path d="M 0,36 36,36 36,0 0,0 0,36 Z" id="path18"/></clipPath></defs><g id="g10" transform="matrix(1.25,0,0,-1.25,0,45)"><g id="g12"><g clip-path="url(#clipPath16)" id="g14"><g id="g20" transform="translate(33,0)"><path d="m 0,0 -29,0 c 4,0 3,9 3,9 0,2.209 1.791,15 4,15 l 21,0 c 0,0 4,0 4,-4 L 3,3 C 3,3 3,0 0,0" id="path22" style="fill:#99aab5;fill-opacity:1;fill-rule:nonzero;stroke:none"/></g><g id="g24" transform="translate(30,3)"><path d="m 0,0 c 0,-3 3,-3 3,-3 l -30,0 c 0,0 -3,0 -3,4 l 0,28 c 0,2.209 1.791,4 4,4 l 22,0 c 2.209,0 4,-1.791 4,-4 L 0,0 Z" id="path26" style="fill:#ccd6dd;fill-opacity:1;fill-rule:nonzero;stroke:none"/></g><g id="g28" transform="translate(27,16)"><path d="m 0,0 c 0,-0.553 -0.447,-1 -1,-1 l -8,0 c -0.552,0 -1,0.447 -1,1 0,0.553 0.448,1 1,1 l 8,0 C -0.447,1 0,0.553 0,0" id="path30" style="fill:#99aab5;fill-opacity:1;fill-rule:nonzero;stroke:none"/></g><g id="g32" transform="translate(27,20)"><path d="m 0,0 c 0,-0.553 -0.447,-1 -1,-1 l -8,0 c -0.552,0 -1,0.447 -1,1 0,0.553 0.448,1 1,1 l 8,0 C -0.447,1 0,0.553 0,0" id="path34" style="fill:#99aab5;fill-opacity:1;fill-rule:nonzero;stroke:none"/></g><g id="g36" transform="translate(27,24)"><path d="m 0,0 c 0,-0.553 -0.447,-1 -1,-1 l -8,0 c -0.552,0 -1,0.447 -1,1 0,0.553 0.448,1 1,1 l 8,0 C -0.447,1 0,0.553 0,0" id="path38" style="fill:#99aab5;fill-opacity:1;fill-rule:nonzero;stroke:none"/></g><g id="g40" transform="translate(27,12)"><path d="m 0,0 c 0,-0.553 -0.447,-1 -1,-1 l -22,0 c -0.552,0 -1,0.447 -1,1 0,0.553 0.448,1 1,1 L -1,1 C -0.447,1 0,0.553 0,0" id="path42" style="fill:#99aab5;fill-opacity:1;fill-rule:nonzero;stroke:none"/></g><g id="g44" transform="translate(27,8)"><path d="m 0,0 c 0,-0.553 -0.447,-1 -1,-1 l -22,0 c -0.552,0 -1,0.447 -1,1 0,0.553 0.448,1 1,1 L -1,1 C -0.447,1 0,0.553 0,0" id="path46" style="fill:#99aab5;fill-opacity:1;fill-rule:nonzero;stroke:none"/></g><g id="g48" transform="translate(27,4)"><path d="m 0,0 c 0,-0.553 -0.447,-1 -1,-1 l -22,0 c -0.552,0 -1,0.447 -1,1 0,0.553 0.448,1 1,1 L -1,1 C -0.447,1 0,0.553 0,0" id="path50" style="fill:#99aab5;fill-opacity:1;fill-rule:nonzero;stroke:none"/></g><g id="g52" transform="translate(25,27)"><path d="M 0,0 C 0,0 2,0 2,2 L 2,4 C 2,4 2,6 0,6 l -20,0 c 0,0 -2,0 -2,-2 l 0,-2 c 0,0 0,-2 2,-2 L 0,0 Z" id="path54" style="fill:#99aab5;fill-opacity:1;fill-rule:nonzero;stroke:none"/></g><g id="g56" transform="translate(13,15)"><path d="m 0,0 c 0,0 2,0 2,2 l 0,6 c 0,0 0,2 -2,2 l -8,0 c 0,0 -2,0 -2,-2 l 0,-6 c 0,0 0,-2 2,-2 l 8,0 z" id="path58" style="fill:#55acee;fill-opacity:1;fill-rule:nonzero;stroke:none"/></g></g></g></g></svg>