<?xml version="1.0" encoding="UTF-8" standalone="no"?><svg xmlns="http://www.w3.org/2000/svg" xmlns:cc="http://creativecommons.org/ns#" xmlns:dc="http://purl.org/dc/elements/1.1/" xmlns:rdf="http://www.w3.org/1999/02/22-rdf-syntax-ns#" xmlns:svg="http://www.w3.org/2000/svg" height="45" id="svg2" style="enable-background:new 0 0 45 45;" version="1.1" viewBox="0 0 45 45" width="45" xml:space="preserve"><metadata id="metadata8"><rdf:RDF><cc:Work rdf:about=""><dc:format>image/svg+xml</dc:format><dc:type rdf:resource="http://purl.org/dc/dcmitype/StillImage"/></cc:Work></rdf:RDF></metadata><defs id="defs6"><clipPath clipPathUnits="userSpaceOnUse" id="clipPath16"><path d="M 0,36 36,36 36,0 0,0 0,36 Z" id="path18"/></clipPath><clipPath clipPathUnits="userSpaceOnUse" id="clipPath32"><path d="M 4,8.912 C 2.895,8.912 2.333,7.908 2,6.904 l 0,0 L 0,2.009 C 0,0.899 0.895,0 2,0 l 0,0 32,0 c 1.105,0 2,0.899 2,2.009 l 0,0 -2,4.895 c -0.417,0.963 -0.895,2.008 -2,2.008 l 0,0 -28,0 z" id="path34"/></clipPath><clipPath clipPathUnits="userSpaceOnUse" id="clipPath44"><path d="M 0,36 36,36 36,0 0,0 0,36 Z" id="path46"/></clipPath></defs><g id="g10" transform="matrix(1.25,0,0,-1.25,0,45)"><g id="g12"><g clip-path="url(#clipPath16)" id="g14"><g id="g20" transform="translate(33,10.9205)"><path d="m 0,0 c 0,-1.109 -0.895,-2.008 -2,-2.008 l -26,0 c -1.104,0 -2,0.899 -2,2.008 l 0,17.071 c 0,1.109 0.896,2.008 2,2.008 l 26,0 c 1.105,0 2,-0.899 2,-2.008 L 0,0 Z" id="path22" style="fill:#ccd6dd;fill-opacity:1;fill-rule:nonzero;stroke:none"/></g><g id="g24" transform="translate(36,2.0084)"><path d="m 0,0 c 0,-1.109 -0.895,-2.008 -2,-2.008 l -32,0 c -1.104,0 -2,0.899 -2,2.008 l 2,4.895 c 0.333,1.005 0.896,2.009 2,2.009 l 28,0 c 1.105,0 1.583,-1.046 2,-2.009 L 0,0 Z" id="path26" style="fill:#ccd6dd;fill-opacity:1;fill-rule:nonzero;stroke:none"/></g></g></g><g id="g28"><g clip-path="url(#clipPath32)" id="g30"><g id="g36" transform="translate(38,1.925)"><path d="m 0,0 -38,0 1,-4.059 37,0 L 0,0 Z" id="path38" style="fill:#9aaab4;fill-opacity:1;fill-rule:nonzero;stroke:none"/></g></g></g><g id="g40"><g clip-path="url(#clipPath44)" id="g42"><g id="g48" transform="translate(31,11.9247)"><path d="m 0,0 c 0,-0.555 -0.447,-1.004 -1,-1.004 l -24,0 c -0.552,0 -1,0.449 -1,1.004 l 0,15.063 c 0,0.554 0.448,1.004 1,1.004 l 24,0 c 0.553,0 1,-0.45 1,-1.004 L 0,0 Z" id="path50" style="fill:#5dadec;fill-opacity:1;fill-rule:nonzero;stroke:none"/></g><g id="g52" transform="translate(32.9063,4.9582)"><path d="m 0,0 -0.76,2.175 c -0.239,0.46 -0.635,0.838 -1.187,0.838 l -25.849,0 c -0.552,0 -0.906,-0.408 -1.156,-1.036 L -29.64,0 c -0.218,-0.596 0.448,-1.004 1,-1.004 l 7.578,0 c 0,0 0.937,0.047 1.103,0.608 0.192,0.648 0.415,1.624 0.463,1.795 0.074,0.264 0.388,0.531 0.856,0.531 l 8.577,0 c 0.5,0 0.747,-0.253 0.811,-0.566 0.042,-0.204 0.313,-1.141 0.438,-1.782 0.111,-0.57 1.22,-0.586 1.22,-0.586 l 6.594,0 c 0.553,0 1.219,0.471 1,1.004" id="path54" style="fill:#aebbc1;fill-opacity:1;fill-rule:nonzero;stroke:none"/></g><g id="g56" transform="translate(22.375,2.887)"><path d="m 0,0 -7.781,0 c -0.375,0 -0.538,0.343 -0.485,0.675 0.054,0.331 0.36,1.792 0.383,1.963 0.024,0.171 0.275,0.375 0.524,0.375 l 7.015,0 c 0.297,0 0.49,-0.163 0.55,-0.49 C 0.266,2.197 0.508,0.883 0.527,0.583 0.547,0.282 0.359,0 0,0" id="path58" style="fill:#9aaab4;fill-opacity:1;fill-rule:nonzero;stroke:none"/></g></g></g></g></svg>