<?xml version="1.0" encoding="UTF-8" standalone="no"?><svg xmlns="http://www.w3.org/2000/svg" xmlns:cc="http://creativecommons.org/ns#" xmlns:dc="http://purl.org/dc/elements/1.1/" xmlns:rdf="http://www.w3.org/1999/02/22-rdf-syntax-ns#" xmlns:svg="http://www.w3.org/2000/svg" height="45" id="svg2" style="enable-background:new 0 0 45 45;" version="1.1" viewBox="0 0 45 45" width="45" xml:space="preserve"><metadata id="metadata8"><rdf:RDF><cc:Work rdf:about=""><dc:format>image/svg+xml</dc:format><dc:type rdf:resource="http://purl.org/dc/dcmitype/StillImage"/></cc:Work></rdf:RDF></metadata><defs id="defs6"><clipPath clipPathUnits="userSpaceOnUse" id="clipPath16"><path d="M 0,36 36,36 36,0 0,0 0,36 Z" id="path18"/></clipPath></defs><g id="g10" transform="matrix(1.25,0,0,-1.25,0,45)"><g id="g12"><g clip-path="url(#clipPath16)" id="g14"><g id="g20" transform="translate(10,31)"><path d="m 0,0 -6,0 c -2.209,0 -4,-1.791 -4,-4 l 0,-6 10,0 0,10 z" id="path22" style="fill:#ef2b2d;fill-opacity:1;fill-rule:nonzero;stroke:none"/></g><g id="g24" transform="translate(32,31)"><path d="m 0,0 -16,0 0,-10 20,0 0,6 C 4,-1.791 2.209,0 0,0" id="path26" style="fill:#ef2b2d;fill-opacity:1;fill-rule:nonzero;stroke:none"/></g><g id="g28" transform="translate(10,5)"><path d="m 0,0 -6,0 c -2.209,0 -4,1.791 -4,4 l 0,6 10,0 0,-10 z" id="path30" style="fill:#ef2b2d;fill-opacity:1;fill-rule:nonzero;stroke:none"/></g><g id="g32" transform="translate(32,5)"><path d="m 0,0 -16,0 0,10 20,0 0,-6 C 4,1.791 2.209,0 0,0" id="path34" style="fill:#ef2b2d;fill-opacity:1;fill-rule:nonzero;stroke:none"/></g><g id="g36" transform="translate(14.5,31)"><path d="m 0,0 -2.944,0 -0.025,-11.5 -0.031,0 -11.5,0 0,-3 11.5,0 0.025,0 L -3,-26 l 3,0 0,11.5 21.5,0 0,3 L 0,-11.5 0,0 Z" id="path38" style="fill:#002868;fill-opacity:1;fill-rule:nonzero;stroke:none"/></g><g id="g40" transform="translate(14.5,5)"><path d="m 0,0 1.5,0 0,10 20,0 0,1.5 L 0,11.5 0,0 Z" id="path42" style="fill:#eeeeee;fill-opacity:1;fill-rule:nonzero;stroke:none"/></g><g id="g44" transform="translate(16,31)"><path d="m 0,0 -1.5,0 0,-11.5 21.5,0 0,1.5 -20,0 0,10 z" id="path46" style="fill:#eeeeee;fill-opacity:1;fill-rule:nonzero;stroke:none"/></g><g id="g48" transform="translate(11.5,31)"><path d="m 0,0 -1.5,0 0,-10 -10,0 0,-1.5 11.5,0 L 0,0 Z" id="path50" style="fill:#eeeeee;fill-opacity:1;fill-rule:nonzero;stroke:none"/></g><g id="g52" transform="translate(0,16.5)"><path d="m 0,0 0,-1.5 10,0 0,-10 1.5,0 L 11.5,0 0,0 Z" id="path54" style="fill:#eeeeee;fill-opacity:1;fill-rule:nonzero;stroke:none"/></g></g></g></g></svg>