<?xml version="1.0" encoding="UTF-8" standalone="no"?><svg xmlns="http://www.w3.org/2000/svg" xmlns:cc="http://creativecommons.org/ns#" xmlns:dc="http://purl.org/dc/elements/1.1/" xmlns:rdf="http://www.w3.org/1999/02/22-rdf-syntax-ns#" xmlns:svg="http://www.w3.org/2000/svg" height="45" id="svg2" style="enable-background:new 0 0 45 45;" version="1.1" viewBox="0 0 45 45" width="45" xml:space="preserve"><metadata id="metadata8"><rdf:RDF><cc:Work rdf:about=""><dc:format>image/svg+xml</dc:format><dc:type rdf:resource="http://purl.org/dc/dcmitype/StillImage"/></cc:Work></rdf:RDF></metadata><defs id="defs6"><clipPath clipPathUnits="userSpaceOnUse" id="clipPath16"><path d="M 0,36 36,36 36,0 0,0 0,36 Z" id="path18"/></clipPath></defs><g id="g10" transform="matrix(1.25,0,0,-1.25,0,45)"><g id="g12"><g clip-path="url(#clipPath16)" id="g14"><g id="g20" transform="translate(11,36)"><path d="m 0,0 c -4.418,0 -8,-3.581 -8,-8 l 0,-8 2,0 0,8 c 0,3.314 2.687,6 6,6 3.314,0 6,-2.686 6,-6 l 0,-8 2,0 0,8 C 8,-3.581 4.418,0 0,0" id="path22" style="fill:#f4900c;fill-opacity:1;fill-rule:nonzero;stroke:none"/></g><g id="g24" transform="translate(1,28)"><path d="m 0,0 2,-2 2,2 2,-2 2,2 2,-2 2,2 2,-2 2,2 2,-2 2,2 0,-23 -20,0 0,23 z" id="path26" style="fill:#dd2e44;fill-opacity:1;fill-rule:nonzero;stroke:none"/></g><g id="g28" transform="translate(25,31)"><path d="m 0,0 c -4.418,0 -7.999,-3.581 -7.999,-8 l 0,-8 1.999,0 0,8 c 0,3.314 2.687,6 6,6 3.314,0 6,-2.686 6,-6 l 0,-8 2,0 0,8 C 8,-3.581 4.418,0 0,0" id="path30" style="fill:#ffcc4d;fill-opacity:1;fill-rule:nonzero;stroke:none"/></g><g id="g32" transform="translate(15,23)"><path d="M 0,0 2.001,-2 4,0 l 2,-2 2,2 2,-2 2,2 2,-2 2,2 2,-2 2,2 0,-23 L 0.001,-23 0,0 Z" id="path34" style="fill:#744eaa;fill-opacity:1;fill-rule:nonzero;stroke:none"/></g></g></g></g></svg>