<?xml version="1.0" encoding="UTF-8" standalone="no"?><svg xmlns="http://www.w3.org/2000/svg" xmlns:cc="http://creativecommons.org/ns#" xmlns:dc="http://purl.org/dc/elements/1.1/" xmlns:rdf="http://www.w3.org/1999/02/22-rdf-syntax-ns#" xmlns:svg="http://www.w3.org/2000/svg" height="45" id="svg2" style="enable-background:new 0 0 45 45;" version="1.1" viewBox="0 0 45 45" width="45" xml:space="preserve"><metadata id="metadata8"><rdf:RDF><cc:Work rdf:about=""><dc:format>image/svg+xml</dc:format><dc:type rdf:resource="http://purl.org/dc/dcmitype/StillImage"/></cc:Work></rdf:RDF></metadata><defs id="defs6"><clipPath clipPathUnits="userSpaceOnUse" id="clipPath16"><path d="M 0,36 36,36 36,0 0,0 0,36 Z" id="path18"/></clipPath></defs><g id="g10" transform="matrix(1.25,0,0,-1.25,0,45)"><g id="g12"><g clip-path="url(#clipPath16)" id="g14"><g id="g20" transform="translate(28,15)"><path d="m 0,0 c 0,-2.209 -3,-15 -9,-15 l -8,0 c -6,0 -9,12.791 -9,15 l 0,17 c 0,2.209 1.791,4 4,4 l 18,0 c 2.209,0 4,-1.791 4,-4 L 0,0 Z" id="path22" style="fill:#da2f47;fill-opacity:1;fill-rule:nonzero;stroke:none"/></g><g id="g24" transform="translate(14.4409,26.8286)"><path d="m 0,0 c 2.138,-2.343 2.715,-5.509 1.29,-7.071 -1.423,-1.562 -4.312,-0.928 -6.449,1.414 -2.136,2.343 -2.715,5.51 -1.289,7.071 C -5.024,2.976 -2.135,2.343 0,0" id="path26" style="fill:#f5f8fa;fill-opacity:1;fill-rule:nonzero;stroke:none"/></g><g id="g28" transform="translate(15.9336,23.2935)"><path d="m 0,0 c 0.609,-0.781 0.609,-2.048 0,-2.829 -0.606,-0.781 -1.593,-0.781 -2.201,0 -0.609,0.781 -0.609,2.048 0,2.828 C -1.593,0.781 -0.606,0.781 0,0" id="path30" style="fill:#292f33;fill-opacity:1;fill-rule:nonzero;stroke:none"/></g><g id="g32" transform="translate(21.7266,26.729)"><path d="m 0,0 c -1.826,-2.342 -2.318,-5.509 -1.1,-7.071 1.215,-1.562 3.68,-0.928 5.504,1.414 1.824,2.343 2.317,5.509 1.1,7.071 C 4.289,2.976 1.824,2.343 0,0" id="path34" style="fill:#f5f8fa;fill-opacity:1;fill-rule:nonzero;stroke:none"/></g><g id="g36" transform="translate(21.1758,23.1934)"><path d="m 0,0 c -0.609,-0.781 -0.609,-2.047 0,-2.828 0.607,-0.781 1.596,-0.781 2.201,0 0.612,0.781 0.612,2.047 0,2.828 C 1.596,0.781 0.607,0.781 0,0" id="path38" style="fill:#292f33;fill-opacity:1;fill-rule:nonzero;stroke:none"/></g><g id="g40" transform="translate(20.8916,25)"><path d="M 0,0 C -0.43,0 -0.862,0.138 -1.227,0.422 -2.099,1.1 -2.256,2.357 -1.577,3.229 l 4.67,6 C 3.771,10.101 5.026,10.257 5.899,9.578 6.77,8.9 6.928,7.643 6.249,6.771 l -4.67,-6 C 1.185,0.265 0.596,0 0,0" id="path42" style="fill:#292f33;fill-opacity:1;fill-rule:nonzero;stroke:none"/></g><g id="g44" transform="translate(16.2212,25)"><path d="m 0,0 c -0.596,0 -1.185,0.265 -1.58,0.771 l -4.672,6 c -0.679,0.872 -0.522,2.128 0.349,2.807 0.872,0.679 2.129,0.523 2.807,-0.349 l 4.673,-6 C 2.255,2.357 2.099,1.101 1.227,0.422 0.862,0.138 0.429,0 0,0" id="path46" style="fill:#292f33;fill-opacity:1;fill-rule:nonzero;stroke:none"/></g><g id="g48" transform="translate(24,4.999)"><path d="M 0,0 C -0.81,0 -1.571,0.496 -1.873,1.299 -1.977,1.558 -3.04,4.001 -6,4.001 c -2.96,0 -4.023,-2.443 -4.135,-2.722 -0.407,-1.017 -1.563,-1.527 -2.583,-1.133 -1.023,0.397 -1.539,1.531 -1.155,2.557 0.081,0.217 2.054,5.298 7.873,5.298 5.819,0 7.792,-5.081 7.873,-5.298 C 2.261,1.669 1.736,0.517 0.702,0.128 0.471,0.042 0.233,0 0,0" id="path50" style="fill:#fdd888;fill-opacity:1;fill-rule:nonzero;stroke:none"/></g><g id="g52" transform="translate(18.5547,14)"><path d="M 0,0 C 0,0 4.482,0.553 7.05,-4 9.869,-9 9.869,1 9.164,2 8.46,3 7.713,0.614 6.344,1.1 3.523,2.1 0,0 0,0" id="path54" style="fill:#292f33;fill-opacity:1;fill-rule:nonzero;stroke:none"/></g><g id="g56" transform="translate(18.5547,14)"><path d="m 0,0 c 0,0 -5.888,0.553 -9.263,-4 -3.703,-5 -3.703,5 -2.778,6 0.927,1 1.908,-1.725 3.706,-1.239 C -4.63,1.761 0,0 0,0" id="path58" style="fill:#292f33;fill-opacity:1;fill-rule:nonzero;stroke:none"/></g><g id="g60" transform="translate(32.2617,21)"><path d="m 0,0 c -0.09,0 -0.174,-0.02 -0.262,-0.029 l 0,0.029 -13.845,0 c -1.511,0 -2.735,-1.343 -2.735,-3 0,-1.657 1.224,-3 2.735,-3 l 13.845,0 0,0.029 C -0.174,-5.98 -0.09,-6 0,-6 c 1.513,0 2.738,1.343 2.738,3 0,1.656 -1.225,3 -2.738,3" id="path62" style="fill:#e75a70;fill-opacity:1;fill-rule:nonzero;stroke:none"/></g></g></g></g></svg>