<?xml version="1.0" encoding="UTF-8" standalone="no"?><svg xmlns="http://www.w3.org/2000/svg" xmlns:cc="http://creativecommons.org/ns#" xmlns:dc="http://purl.org/dc/elements/1.1/" xmlns:rdf="http://www.w3.org/1999/02/22-rdf-syntax-ns#" xmlns:svg="http://www.w3.org/2000/svg" height="45" id="svg2" style="enable-background:new 0 0 45 45;" version="1.1" viewBox="0 0 45 45" width="45" xml:space="preserve"><metadata id="metadata8"><rdf:RDF><cc:Work rdf:about=""><dc:format>image/svg+xml</dc:format><dc:type rdf:resource="http://purl.org/dc/dcmitype/StillImage"/></cc:Work></rdf:RDF></metadata><defs id="defs6"><clipPath clipPathUnits="userSpaceOnUse" id="clipPath16"><path d="M 0,36 36,36 36,0 0,0 0,36 Z" id="path18"/></clipPath></defs><g id="g10" transform="matrix(1.25,0,0,-1.25,0,45)"><g id="g12"><g clip-path="url(#clipPath16)" id="g14"><g id="g20" transform="translate(14,20)"><path d="m 0,0 -5,-10 c 0,0 -1,-2 1,-2 1,0 2,2 2,2 L 12,9 c 0,0 2,4 8,1 L 20,8 C 17,9 16,7 16,7 L 1,-17 c 0,0 -2,-3 -7,-3 -6,0 -7,5 -7,8 0,2 1,4 2,6 1,2 -2,6 -2,6 L 0,0 Z" id="path22" style="fill:#fcab40;fill-opacity:1;fill-rule:evenodd;stroke:none"/></g><g id="g24" transform="translate(7.5,16)"><path d="M 0,0 C -3.46,0 -7.5,1.048 -7.5,4 -7.5,6.953 -3.46,8 0,8 3.46,8 7.5,6.953 7.5,4 7.5,1.048 3.46,0 0,0" id="path26" style="fill:#fdcb58;fill-opacity:1;fill-rule:nonzero;stroke:none"/></g><g id="g28" transform="translate(21,19)"><path d="m 0,0 c 0,-1.104 -0.895,-2 -2,-2 -1.104,0 -2,0.896 -2,2 0,1.105 0.896,2 2,2 1.105,0 2,-0.895 2,-2" id="path30" style="fill:#ccd6dd;fill-opacity:1;fill-rule:nonzero;stroke:none"/></g><g id="g32" transform="translate(24,23)"><path d="m 0,0 c 0,-1.104 -0.895,-2 -2,-2 -1.104,0 -2,0.896 -2,2 0,1.105 0.896,2 2,2 1.105,0 2,-0.895 2,-2" id="path34" style="fill:#ccd6dd;fill-opacity:1;fill-rule:nonzero;stroke:none"/></g><g id="g36" transform="translate(27,27)"><path d="m 0,0 c 0,-1.104 -0.895,-2 -2,-2 -1.104,0 -2,0.896 -2,2 0,1.105 0.896,2 2,2 1.105,0 2,-0.895 2,-2" id="path38" style="fill:#ccd6dd;fill-opacity:1;fill-rule:nonzero;stroke:none"/></g><g id="g40" transform="translate(33.998,25.9995)"><path d="m 0,0 c -0.3,0 -0.605,0.068 -0.893,0.211 l -2,1 c -0.988,0.495 -1.388,1.696 -0.894,2.684 0.493,0.986 1.693,1.39 2.683,0.895 l 2,-1 C 1.885,3.295 2.285,2.094 1.791,1.106 1.441,0.405 0.734,0 0,0" id="path42" style="fill:#9aaab4;fill-opacity:1;fill-rule:nonzero;stroke:none"/></g><g id="g44" transform="translate(16.2651,10.7754)"><path d="M 0,0 -1.268,-1.548 -7.458,3.52 -6.192,5.067 0,0 Z" id="path46" style="fill:#fcab40;fill-opacity:1;fill-rule:evenodd;stroke:none"/></g></g></g></g></svg>