<?xml version="1.0" encoding="UTF-8" standalone="no"?><svg xmlns="http://www.w3.org/2000/svg" xmlns:cc="http://creativecommons.org/ns#" xmlns:dc="http://purl.org/dc/elements/1.1/" xmlns:rdf="http://www.w3.org/1999/02/22-rdf-syntax-ns#" xmlns:svg="http://www.w3.org/2000/svg" height="45" id="svg2" style="enable-background:new 0 0 45 45;" version="1.1" viewBox="0 0 45 45" width="45" xml:space="preserve"><metadata id="metadata8"><rdf:RDF><cc:Work rdf:about=""><dc:format>image/svg+xml</dc:format><dc:type rdf:resource="http://purl.org/dc/dcmitype/StillImage"/></cc:Work></rdf:RDF></metadata><defs id="defs6"><clipPath clipPathUnits="userSpaceOnUse" id="clipPath16"><path d="M 0,36 36,36 36,0 0,0 0,36 Z" id="path18"/></clipPath></defs><g id="g10" transform="matrix(1.25,0,0,-1.25,0,45)"><g id="g12"><g clip-path="url(#clipPath16)" id="g14"><g id="g20" transform="translate(36,13)"><path d="m 0,0 c 0,-2.071 -8.059,-5 -18,-5 -9.941,0 -18,2.929 -18,5 0,2.071 8.059,5 18,5 C -8.059,5 0,2.071 0,0" id="path22" style="fill:#ffd983;fill-opacity:1;fill-rule:nonzero;stroke:none"/></g><g id="g24" transform="translate(29,19)"><path d="m 0,0 c 0,-1.566 -4.925,-6 -11,-6 -6.075,0 -10.957,4.434 -10.957,6 0,7 6.957,10 10.957,10 C -7,10 0,7 0,0" id="path26" style="fill:#ffd983;fill-opacity:1;fill-rule:nonzero;stroke:none"/></g><g id="g28" transform="translate(29,15)"><path d="m 0,0 c -5,-3 -17,-3 -22,0 0,0.492 0.043,3.535 0.043,4 C -16,1 -6,1 0,4 -0.003,3.535 0,0.492 0,0" id="path30" style="fill:#9266cc;fill-opacity:1;fill-rule:nonzero;stroke:none"/></g><g id="g32" transform="translate(19,12)"><path d="m 0,0 c 0,-1.104 -0.448,-2 -1,-2 -0.553,0 -1,0.896 -1,2 0,1.105 0.447,2 1,2 0.552,0 1,-0.895 1,-2" id="path34" style="fill:#ffffff;fill-opacity:1;fill-rule:nonzero;stroke:none"/></g><g id="g36" transform="translate(19,18)"><path d="m 0,0 c 0,-1.104 -0.448,-2 -1,-2 -0.553,0 -1,0.896 -1,2 0,1.105 0.447,2 1,2 0.552,0 1,-0.895 1,-2" id="path38" style="fill:#ffffff;fill-opacity:1;fill-rule:nonzero;stroke:none"/></g><g id="g40" transform="translate(16.5859,12.1719)"><path d="m 0,0 c -0.781,-0.781 -1.731,-1.098 -2.122,-0.707 -0.39,0.391 -0.073,1.34 0.707,2.121 0.782,0.781 1.731,1.098 2.122,0.707 C 1.098,1.73 0.781,0.78 0,0" id="path42" style="fill:#ffffff;fill-opacity:1;fill-rule:nonzero;stroke:none"/></g><g id="g44" transform="translate(20.8281,16.4141)"><path d="m 0,0 c -0.78,-0.781 -1.73,-1.098 -2.121,-0.707 -0.391,0.391 -0.074,1.34 0.707,2.121 0.781,0.781 1.73,1.098 2.121,0.707 C 1.098,1.731 0.781,0.781 0,0" id="path46" style="fill:#ffffff;fill-opacity:1;fill-rule:nonzero;stroke:none"/></g><g id="g48" transform="translate(15.0005,14)"><path d="m 0,0 c -1.105,0 -2.001,0.448 -2.001,1 0,0.553 0.896,1 2,1 1.105,0 2,-0.447 2,-1 C 1.999,0.447 1.104,0 0,0" id="path50" style="fill:#ffffff;fill-opacity:1;fill-rule:nonzero;stroke:none"/></g><g id="g52" transform="translate(21,14)"><path d="M 0,0 C -1.104,-0.001 -2,0.447 -2,1 -2,1.553 -1.104,2 0,2 1.105,2 2,1.553 2,1 2,0.448 1.105,0 0,0" id="path54" style="fill:#ffffff;fill-opacity:1;fill-rule:nonzero;stroke:none"/></g><g id="g56" transform="translate(15.1719,16.4131)"><path d="M 0,0 C -0.782,0.782 -1.098,1.732 -0.708,2.122 -0.317,2.513 0.633,2.196 1.413,1.415 2.195,0.633 2.512,-0.315 2.121,-0.706 1.73,-1.098 0.78,-0.78 0,0" id="path58" style="fill:#ffffff;fill-opacity:1;fill-rule:nonzero;stroke:none"/></g><g id="g60" transform="translate(19.4141,12.1709)"><path d="M 0,0 C -0.782,0.78 -1.098,1.73 -0.707,2.121 -0.316,2.513 0.633,2.195 1.414,1.414 2.195,0.634 2.512,-0.316 2.121,-0.707 1.731,-1.097 0.781,-0.781 0,0" id="path62" style="fill:#ffffff;fill-opacity:1;fill-rule:nonzero;stroke:none"/></g><g id="g64" transform="translate(20,15)"><path d="m 0,0 c 0,-1.104 -0.895,-2 -2,-2 -1.105,0 -2,0.896 -2,2 0,1.105 0.895,2 2,2 1.105,0 2,-0.895 2,-2" id="path66" style="fill:#ffac33;fill-opacity:1;fill-rule:nonzero;stroke:none"/></g></g></g></g></svg>