<?xml version="1.0" encoding="UTF-8" standalone="no"?><svg xmlns="http://www.w3.org/2000/svg" xmlns:cc="http://creativecommons.org/ns#" xmlns:dc="http://purl.org/dc/elements/1.1/" xmlns:rdf="http://www.w3.org/1999/02/22-rdf-syntax-ns#" xmlns:svg="http://www.w3.org/2000/svg" height="45" id="svg2" style="enable-background:new 0 0 45 45;" version="1.1" viewBox="0 0 45 45" width="45" xml:space="preserve"><metadata id="metadata8"><rdf:RDF><cc:Work rdf:about=""><dc:format>image/svg+xml</dc:format><dc:type rdf:resource="http://purl.org/dc/dcmitype/StillImage"/></cc:Work></rdf:RDF></metadata><defs id="defs6"><clipPath clipPathUnits="userSpaceOnUse" id="clipPath16"><path d="M 0,36 36,36 36,0 0,0 0,36 Z" id="path18"/></clipPath></defs><g id="g10" transform="matrix(1.25,0,0,-1.25,0,45)"><g id="g12"><g clip-path="url(#clipPath16)" id="g14"><g id="g20" transform="translate(36,4)"><path d="m 0,0 c 0,-4 -4,-4 -4,-4 l -28,0 c -4,0 -4,4 -4,4 l 0,28 c 0,4 4,4 4,4 l 28,0 c 0,0 4,0 4,-4 L 0,0 Z" id="path22" style="fill:#f4900c;fill-opacity:1;fill-rule:nonzero;stroke:none"/></g><path d="M 25,8 11,8 11,28 25,28 25,8 Z M 24,33 12,33 C 9,33 9,30 9,30 L 9,6 C 9,3 12,3 12,3 l 12,0 c 3,0 3,3 3,3 l 0,24 c 0,3 -3,3 -3,3" id="path24" style="fill:#ffffff;fill-opacity:1;fill-rule:nonzero;stroke:none"/><g id="g26" transform="translate(2,21)"><path d="m 0,0 0,-5 5,2 0,1 -5,2 z" id="path28" style="fill:#ffffff;fill-opacity:1;fill-rule:nonzero;stroke:none"/></g><g id="g30" transform="translate(3,23)"><path d="M 0,0 4,-2 4,0 0,3 0,0 Z" id="path32" style="fill:#ffffff;fill-opacity:1;fill-rule:nonzero;stroke:none"/></g><g id="g34" transform="translate(3,14)"><path d="M 0,0 4,2 4,0 0,-3 0,0 Z" id="path36" style="fill:#ffffff;fill-opacity:1;fill-rule:nonzero;stroke:none"/></g><g id="g38" transform="translate(34,21)"><path d="m 0,0 0,-5 -5,2 0,1 5,2 z" id="path40" style="fill:#ffffff;fill-opacity:1;fill-rule:nonzero;stroke:none"/></g><g id="g42" transform="translate(33,23)"><path d="M 0,0 -4,-2 -4,0 0,3 0,0 Z" id="path44" style="fill:#ffffff;fill-opacity:1;fill-rule:nonzero;stroke:none"/></g><g id="g46" transform="translate(33,14)"><path d="M 0,0 -4,2 -4,0 0,-3 0,0 Z" id="path48" style="fill:#ffffff;fill-opacity:1;fill-rule:nonzero;stroke:none"/></g></g></g></g></svg>