<?xml version="1.0" encoding="UTF-8" standalone="no"?><svg xmlns="http://www.w3.org/2000/svg" xmlns:cc="http://creativecommons.org/ns#" xmlns:dc="http://purl.org/dc/elements/1.1/" xmlns:rdf="http://www.w3.org/1999/02/22-rdf-syntax-ns#" xmlns:svg="http://www.w3.org/2000/svg" height="45" id="svg2" style="enable-background:new 0 0 45 45;" version="1.1" viewBox="0 0 45 45" width="45" xml:space="preserve"><metadata id="metadata8"><rdf:RDF><cc:Work rdf:about=""><dc:format>image/svg+xml</dc:format><dc:type rdf:resource="http://purl.org/dc/dcmitype/StillImage"/></cc:Work></rdf:RDF></metadata><defs id="defs6"><clipPath clipPathUnits="userSpaceOnUse" id="clipPath16"><path d="M 4,36 C 1.791,36 0,34.209 0,32 L 0,32 0,4 C 0,1.791 1.791,0 4,0 l 0,0 28,0 c 2.209,0 4,1.791 4,4 l 0,0 0,28 c 0,2.209 -1.791,4 -4,4 l 0,0 -28,0 z" id="path18"/></clipPath><clipPath clipPathUnits="userSpaceOnUse" id="clipPath28"><path d="M 0,36 36,36 36,0 0,0 0,36 Z" id="path30"/></clipPath><clipPath clipPathUnits="userSpaceOnUse" id="clipPath72"><path d="M 2.948,9.504 2.944,10.363 C 2.947,9.824 2.951,9.257 2.951,9.247 l 0,0 C 2.978,6.473 9.711,4.064 17.987,3.988 l 0,0 c 8.277,-0.074 14.962,2.264 14.935,5.038 l 0,0 c 0,0.02 -0.01,0.207 -0.011,0.207 l 0,0 -0.009,1.826 -0.077,7.82 -29.972,0.27 0.095,-9.645 z" id="path74"/></clipPath><clipPath clipPathUnits="userSpaceOnUse" id="clipPath100"><path d="M 0,36 36,36 36,0 0,0 0,36 Z" id="path102"/></clipPath></defs><g id="g10" transform="matrix(1.25,0,0,-1.25,0,45)"><g id="g12"><g clip-path="url(#clipPath16)" id="g14"><path d="m 38,21 -39,0 0,-24 39,0 0,24 z" id="path20" style="fill:#78b159;fill-opacity:1;fill-rule:nonzero;stroke:none"/><path d="m 39,21 -41,0 0,17 41,0 0,-17 z" id="path22" style="fill:#88c9f9;fill-opacity:1;fill-rule:nonzero;stroke:none"/></g></g><g id="g24"><g clip-path="url(#clipPath28)" id="g26"><g id="g32" transform="translate(5.7085,28.8125)"><path d="M 0,0 C 1.314,-0.239 3.274,-0.98 3.776,-1.267 4.278,-1.554 3.968,-1.697 3.49,-1.912 3.012,-2.127 0.43,-2.82 0.048,-2.892 -0.335,-2.964 0,0 0,0" id="path34" style="fill:#dd2e44;fill-opacity:1;fill-rule:nonzero;stroke:none"/></g><g id="g36" transform="translate(5.5,18)"><path d="M 0,0 0,11" id="path38" style="fill:#ffffff;fill-opacity:1;fill-rule:nonzero;stroke:#66757f;stroke-width:1;stroke-linecap:round;stroke-linejoin:round;stroke-miterlimit:10;stroke-dasharray:none;stroke-opacity:1"/></g><g id="g40" transform="translate(13.7085,30.8125)"><path d="M 0,0 C 1.314,-0.239 3.274,-0.98 3.776,-1.267 4.278,-1.554 3.968,-1.697 3.49,-1.912 3.012,-2.127 0.43,-2.82 0.048,-2.892 -0.335,-2.964 0,0 0,0" id="path42" style="fill:#226699;fill-opacity:1;fill-rule:nonzero;stroke:none"/></g><g id="g44" transform="translate(13.5,20)"><path d="M 0,0 0,11" id="path46" style="fill:#ffffff;fill-opacity:1;fill-rule:nonzero;stroke:#66757f;stroke-width:1;stroke-linecap:round;stroke-linejoin:round;stroke-miterlimit:10;stroke-dasharray:none;stroke-opacity:1"/></g><g id="g48" transform="translate(22.709,30.8125)"><path d="M 0,0 C 1.314,-0.239 3.273,-0.98 3.775,-1.267 4.277,-1.554 3.967,-1.697 3.489,-1.912 3.012,-2.127 0.43,-2.82 0.047,-2.892 -0.336,-2.964 0,0 0,0" id="path50" style="fill:#dd2e44;fill-opacity:1;fill-rule:nonzero;stroke:none"/></g><g id="g52" transform="translate(22.5,20)"><path d="M 0,0 0,11" id="path54" style="fill:#ffffff;fill-opacity:1;fill-rule:nonzero;stroke:#66757f;stroke-width:1;stroke-linecap:round;stroke-linejoin:round;stroke-miterlimit:10;stroke-dasharray:none;stroke-opacity:1"/></g><g id="g56" transform="translate(30.709,28.8125)"><path d="M 0,0 C 1.314,-0.239 3.273,-0.98 3.775,-1.267 4.277,-1.554 3.967,-1.697 3.489,-1.912 3.012,-2.127 0.43,-2.82 0.047,-2.892 -0.336,-2.964 0,0 0,0" id="path58" style="fill:#226699;fill-opacity:1;fill-rule:nonzero;stroke:none"/></g><g id="g60" transform="translate(30.5,18)"><path d="M 0,0 0,11" id="path62" style="fill:#ffffff;fill-opacity:1;fill-rule:nonzero;stroke:#66757f;stroke-width:1;stroke-linecap:round;stroke-linejoin:round;stroke-miterlimit:10;stroke-dasharray:none;stroke-opacity:1"/></g><g id="g64" transform="translate(32.8252,18.8789)"><path d="m 0,0 -29.972,0.27 0.095,-9.645 -0.009,1.826 c -0.001,0 0.011,-2.063 0.011,-2.083 0.028,-2.774 6.761,-5.183 15.037,-5.259 8.277,-0.074 14.962,2.264 14.935,5.038 0,0.02 -0.01,0.207 -0.011,0.207 L 0.077,-7.819 0,0 Z" id="path66" style="fill:#ccd6dd;fill-opacity:1;fill-rule:nonzero;stroke:none"/></g></g></g><g id="g68"><g clip-path="url(#clipPath72)" id="g70"><g id="g76" transform="translate(21.958,7.5928)"><path d="m 0,0 c 0.09,-9.133 -1.744,-4.551 -3.952,-4.53 -2.206,0.019 -3.887,-10.923 -4.041,4.602 -0.036,3.653 1.744,4.55 3.951,4.53 C -1.835,4.582 -0.036,3.652 0,0" id="path78" style="fill:#66757f;fill-opacity:1;fill-rule:nonzero;stroke:none"/></g><g id="g80" transform="translate(8.9971,2.9697)"><path d="M 0,0 3.006,-0.94 2.934,6.366 c 0,0 0.018,-1.827 0,0 -0.018,1.826 -3.024,2.767 -3.006,0.94 0.018,-1.826 0,0 0,0 L 0,0 Z" id="path82" style="fill:#66757f;fill-opacity:1;fill-rule:nonzero;stroke:none"/></g><g id="g84" transform="translate(26.9893,1.8945)"><path d="m 0,0 -2.997,0.027 -0.072,7.306 c 0,0 0.017,-1.827 0,0 -0.019,1.826 2.969,2.712 2.988,0.886 0.017,-1.826 0,0 0,0 L 0,0 Z" id="path86" style="fill:#66757f;fill-opacity:1;fill-rule:nonzero;stroke:none"/></g><g id="g88" transform="translate(6.9897,3.9014)"><path d="m 0,0 -0.063,6.393 c 0,0 0.009,-0.913 -0.009,0.913 -0.018,1.826 -2.025,2.757 -2.007,0.931 0.017,-1.827 0,0 0,0 L -2.007,0.932 0,0 Z" id="path90" style="fill:#66757f;fill-opacity:1;fill-rule:nonzero;stroke:none"/></g><g id="g92" transform="translate(28.9785,2.79)"><path d="m 0,0 -0.072,7.306 c 0,0 0.009,-0.913 -0.01,0.913 -0.018,1.826 1.972,2.722 1.989,0.895 0.019,-1.827 0,0 0,0 L 1.998,-0.018 0,0 Z" id="path94" style="fill:#66757f;fill-opacity:1;fill-rule:nonzero;stroke:none"/></g></g></g><g id="g96"><g clip-path="url(#clipPath100)" id="g98"><g id="g104" transform="translate(32.8252,18.8223)"><path d="m 0,0 c 0.027,-2.774 -6.659,-4.963 -14.936,-4.888 -8.276,0.075 -15.008,2.385 -15.036,5.158 -0.027,2.774 6.66,4.962 14.937,4.888 C -6.759,5.083 -0.027,2.773 0,0" id="path106" style="fill:#e9f0f4;fill-opacity:1;fill-rule:nonzero;stroke:none"/></g><g id="g108" transform="translate(30.6465,18.1807)"><path d="m 0,0 c 0.024,-2.509 -5.686,-4.491 -12.755,-4.428 -7.071,0.065 -12.821,2.151 -12.846,4.659 -0.025,2.509 5.686,4.491 12.756,4.427 C -5.776,4.594 -0.024,2.509 0,0" id="path110" style="fill:#744eaa;fill-opacity:1;fill-rule:nonzero;stroke:none"/></g><g id="g112" transform="translate(25.8594,16.1455)"><path d="m 0,0 c 0.015,-1.48 -3.553,-2.648 -7.966,-2.607 -4.414,0.04 -8.005,1.272 -8.019,2.752 C -16,1.624 -12.434,2.79 -8.019,2.751 -3.605,2.711 -0.015,1.479 0,0" id="path114" style="fill:#e9f0f4;fill-opacity:1;fill-rule:nonzero;stroke:none"/></g><g id="g116" transform="translate(24.9248,15.959)"><path d="m 0,0 c 0.011,-1.107 -3.126,-1.975 -7.005,-1.939 -3.88,0.035 -7.034,0.96 -7.045,2.066 -0.011,1.105 3.126,1.974 7.005,1.938 C -3.166,2.031 -0.012,1.105 0,0" id="path118" style="fill:#5c913b;fill-opacity:1;fill-rule:nonzero;stroke:none"/></g><g id="g120" transform="translate(12.5542,23.0854)"><path d="M 0,0 2.359,-4.958 3.169,-4.823 2.058,0.21 0,0 Z" id="path122" style="fill:#e9f0f4;fill-opacity:1;fill-rule:nonzero;stroke:none"/></g><g id="g124" transform="translate(23.6689,22.9854)"><path d="m 0,0 -2.262,-4.917 -0.813,0.15 1.012,5.014 L 0,0 Z" id="path126" style="fill:#e9f0f4;fill-opacity:1;fill-rule:nonzero;stroke:none"/></g><g id="g128" transform="translate(11.6108,17.4443)"><path d="m 0,0 c -0.347,0.374 -4.412,4.177 -4.412,4.177 l -1.489,-0.9 5.28,-3.614 L 0,0 Z" id="path130" style="fill:#e9f0f4;fill-opacity:1;fill-rule:nonzero;stroke:none"/></g><g id="g132" transform="translate(24.2549,17.3301)"><path d="M 0,0 C 0.34,0.367 4.33,4.098 4.33,4.098 L 5.838,3.171 0.628,-0.349 0,0 Z" id="path134" style="fill:#e9f0f4;fill-opacity:1;fill-rule:nonzero;stroke:none"/></g></g></g></g></svg>