<?xml version="1.0" encoding="UTF-8" standalone="no"?><svg xmlns="http://www.w3.org/2000/svg" xmlns:cc="http://creativecommons.org/ns#" xmlns:dc="http://purl.org/dc/elements/1.1/" xmlns:rdf="http://www.w3.org/1999/02/22-rdf-syntax-ns#" xmlns:svg="http://www.w3.org/2000/svg" height="45" id="svg2" style="enable-background:new 0 0 45 45;" version="1.1" viewBox="0 0 45 45" width="45" xml:space="preserve"><metadata id="metadata8"><rdf:RDF><cc:Work rdf:about=""><dc:format>image/svg+xml</dc:format><dc:type rdf:resource="http://purl.org/dc/dcmitype/StillImage"/></cc:Work></rdf:RDF></metadata><defs id="defs6"><clipPath clipPathUnits="userSpaceOnUse" id="clipPath16"><path d="M 0,36 36,36 36,0 0,0 0,36 Z" id="path18"/></clipPath></defs><g id="g10" transform="matrix(1.25,0,0,-1.25,0,45)"><g id="g12"><g clip-path="url(#clipPath16)" id="g14"><g id="g20" transform="translate(30,0)"><path d="m 0,0 0,11 c 0,2.209 -1.791,4 -4,4 l -4,0 -8,0 -4,0 c -2.209,0 -4,-1.791 -4,-4 L -24,0 0,0 Z" id="path22" style="fill:#292f33;fill-opacity:1;fill-rule:nonzero;stroke:none"/></g><g id="g24" transform="translate(18,1)"><path d="M 0,0 0,0 -4,14 4,14 0,0 Z" id="path26" style="fill:#e1e8ed;fill-opacity:1;fill-rule:nonzero;stroke:none"/></g><g id="g28" transform="translate(15.125,20.1876)"><path d="M 0,0 0,-5.48 2.875,-6.355 5.75,-5.48 5.75,0 0,0 Z" id="path30" style="fill:#7c533e;fill-opacity:1;fill-rule:nonzero;stroke:none"/></g><g id="g32" transform="translate(14,15)"><path d="M 0,0 -2,-6 0.5,-6.687 -0.875,-8.937 4,-14 0,0 Z" id="path34" style="fill:#66757f;fill-opacity:1;fill-rule:nonzero;stroke:none"/></g><g id="g36" transform="translate(22,15)"><path d="M 0,0 2,-6 -0.5,-6.687 0.875,-8.937 -4,-14 0,0 Z" id="path38" style="fill:#66757f;fill-opacity:1;fill-rule:nonzero;stroke:none"/></g><g id="g40" transform="translate(15.125,15.875)"><path d="M 0,0 2.875,-2.042 1,-4.031 -1.125,-0.875 0,0 Z" id="path42" style="fill:#f5f8fa;fill-opacity:1;fill-rule:nonzero;stroke:none"/></g><g id="g44" transform="translate(20.875,15.875)"><path d="M 0,0 -2.875,-2.042 -1,-4.031 1.125,-0.875 0,0 Z" id="path46" style="fill:#f5f8fa;fill-opacity:1;fill-rule:nonzero;stroke:none"/></g><g id="g48" transform="translate(17.9993,13.2497)"><path d="m 0,0 2.066,-1.136 0,2.272 L 0,0 Z" id="path50" style="fill:#292f33;fill-opacity:1;fill-rule:nonzero;stroke:none"/></g><g id="g52" transform="translate(17.9993,13.2497)"><path d="m 0,0 2.066,-1.136 0,2.272 L 0,0 Z" id="path54" style="fill:none;stroke:#292f33;stroke-width:0.46599999;stroke-linecap:round;stroke-linejoin:round;stroke-miterlimit:10;stroke-dasharray:none;stroke-opacity:1"/></g><g id="g56" transform="translate(17.9993,13.2497)"><path d="m 0,0 -2.066,-1.136 0,2.272 L 0,0 Z" id="path58" style="fill:#292f33;fill-opacity:1;fill-rule:nonzero;stroke:none"/></g><g id="g60" transform="translate(17.9993,13.2497)"><path d="m 0,0 -2.066,-1.136 0,2.272 L 0,0 Z" id="path62" style="fill:none;stroke:#292f33;stroke-width:0.46599999;stroke-linecap:round;stroke-linejoin:round;stroke-miterlimit:10;stroke-dasharray:none;stroke-opacity:1"/></g><g id="g64" transform="translate(18.493,10.8618)"><path d="m 0,0 c 0,-0.273 -0.221,-0.494 -0.494,-0.494 -0.272,0 -0.493,0.221 -0.493,0.494 0,0.273 0.221,0.493 0.493,0.493 C -0.221,0.493 0,0.273 0,0" id="path66" style="fill:#292f33;fill-opacity:1;fill-rule:nonzero;stroke:none"/></g><g id="g68" transform="translate(18.493,8.8447)"><path d="m 0,0 c 0,-0.273 -0.221,-0.494 -0.494,-0.494 -0.272,0 -0.493,0.221 -0.493,0.494 0,0.273 0.221,0.493 0.493,0.493 C -0.221,0.493 0,0.273 0,0" id="path70" style="fill:#292f33;fill-opacity:1;fill-rule:nonzero;stroke:none"/></g><g id="g72" transform="translate(18.493,6.8275)"><path d="m 0,0 c 0,-0.273 -0.221,-0.494 -0.494,-0.494 -0.272,0 -0.493,0.221 -0.493,0.494 0,0.273 0.221,0.493 0.493,0.493 C -0.221,0.493 0,0.273 0,0" id="path74" style="fill:#292f33;fill-opacity:1;fill-rule:nonzero;stroke:none"/></g><g id="g76" transform="translate(12.25,24.4251)"><path d="m 0,0 c 0,-1.27 -0.644,-2.3 -1.437,-2.3 -0.794,0 -1.438,1.03 -1.438,2.3 0,1.27 0.644,2.3 1.438,2.3 C -0.644,2.3 0,1.27 0,0" id="path78" style="fill:#7c533e;fill-opacity:1;fill-rule:nonzero;stroke:none"/></g><g id="g80" transform="translate(26.625,24.4251)"><path d="m 0,0 c 0,-1.27 -0.643,-2.3 -1.437,-2.3 -0.795,0 -1.438,1.03 -1.438,2.3 0,1.27 0.643,2.3 1.438,2.3 C -0.643,2.3 0,1.27 0,0" id="path82" style="fill:#7c533e;fill-opacity:1;fill-rule:nonzero;stroke:none"/></g><g id="g84" transform="translate(10.525,24.5266)"><path d="M 0,0 C 0,4.902 3.347,8.877 7.475,8.877 11.603,8.877 14.95,4.902 14.95,0 14.95,-4.902 11.603,-8.877 7.475,-8.877 3.347,-8.877 0,-4.902 0,0" id="path86" style="fill:#7c533e;fill-opacity:1;fill-rule:nonzero;stroke:none"/></g><g id="g88" transform="translate(18,35.3505)"><path d="m 0,0 c 4.954,0 8.05,-3.656 8.05,-6.702 0,-3.047 -0.619,-4.266 -1.239,-3.047 -0.619,1.219 -1.238,2.437 -1.238,2.437 0,0 -3.715,0 -4.954,1.219 0,0 1.858,-3.656 -1.857,0 0,0 0.619,-2.437 -3.097,0.609 0,0 -1.857,-1.218 -2.477,-4.265 -0.171,-0.845 -1.238,0 -1.238,3.047 C -8.05,-3.656 -5.573,0 0,0" id="path90" style="fill:#0b0200;fill-opacity:1;fill-rule:nonzero;stroke:none"/></g><g id="g92" transform="translate(20.8389,19.7529)"><path d="m 0,0 c -0.033,0.055 -0.093,0.088 -0.157,0.088 l -5.267,0 c -0.064,0 -0.123,-0.033 -0.157,-0.088 -0.033,-0.055 -0.036,-0.123 -0.006,-0.18 0.031,-0.062 0.799,-1.512 2.796,-1.512 1.999,0 2.766,1.45 2.798,1.512 C 0.036,-0.123 0.033,-0.055 0,0" id="path94" style="fill:#3d2e24;fill-opacity:1;fill-rule:nonzero;stroke:none"/></g><g id="g96" transform="translate(18.1249,22.0259)"><path d="m 0,0 c -0.57,0 -1.014,0.104 -1.369,0.262 0.117,-0.425 0.444,-1.017 1.369,-1.017 0.925,0 1.252,0.592 1.37,1.017 C 1.014,0.104 0.57,0 0,0" id="path98" style="fill:#3d2e24;fill-opacity:1;fill-rule:nonzero;stroke:none"/></g><g id="g100" transform="translate(20.5714,23.5625)"><path d="m 0,0 -0.009,0 c -0.309,0 -0.562,0.253 -0.562,0.562 l 0,0.875 C -0.571,1.747 -0.318,2 -0.009,2 L 0,2 C 0.309,2 0.562,1.747 0.562,1.437 l 0,-0.875 C 0.562,0.253 0.309,0 0,0" id="path102" style="fill:#000000;fill-opacity:1;fill-rule:nonzero;stroke:none"/></g><g id="g104" transform="translate(15.4375,23.5625)"><path d="m 0,0 -0.009,0 c -0.309,0 -0.562,0.253 -0.562,0.562 l 0,0.875 C -0.571,1.747 -0.318,2 -0.009,2 L 0,2 C 0.309,2 0.562,1.747 0.562,1.437 l 0,-0.875 C 0.562,0.253 0.309,0 0,0" id="path106" style="fill:#000000;fill-opacity:1;fill-rule:nonzero;stroke:none"/></g></g></g></g></svg>