<?xml version="1.0" encoding="UTF-8" standalone="no"?><svg xmlns="http://www.w3.org/2000/svg" xmlns:cc="http://creativecommons.org/ns#" xmlns:dc="http://purl.org/dc/elements/1.1/" xmlns:rdf="http://www.w3.org/1999/02/22-rdf-syntax-ns#" xmlns:svg="http://www.w3.org/2000/svg" height="45" id="svg2" style="enable-background:new 0 0 45 45;" version="1.1" viewBox="0 0 45 45" width="45" xml:space="preserve"><metadata id="metadata8"><rdf:RDF><cc:Work rdf:about=""><dc:format>image/svg+xml</dc:format><dc:type rdf:resource="http://purl.org/dc/dcmitype/StillImage"/></cc:Work></rdf:RDF></metadata><defs id="defs6"><clipPath clipPathUnits="userSpaceOnUse" id="clipPath16"><path d="M 0,36 36,36 36,0 0,0 0,36 Z" id="path18"/></clipPath></defs><g id="g10" transform="matrix(1.25,0,0,-1.25,0,45)"><g id="g12"><g clip-path="url(#clipPath16)" id="g14"><g id="g20" transform="translate(36,9)"><path d="m 0,0 c 0,-2.209 -1.791,-4 -4,-4 l -28,0 c -2.209,0 -4,1.791 -4,4 l 0,18 c 0,2.209 1.791,4 4,4 l 28,0 c 2.209,0 4,-1.791 4,-4 L 0,0 Z" id="path22" style="fill:#009b3a;fill-opacity:1;fill-rule:nonzero;stroke:none"/></g><g id="g24" transform="translate(32.7275,18)"><path d="M 0,0 -14.728,-11.124 -29.456,0 -14.728,11.125 0,0 Z" id="path26" style="fill:#fedf01;fill-opacity:1;fill-rule:nonzero;stroke:none"/></g><g id="g28" transform="translate(24.4336,18.0762)"><path d="m 0,0 c 0,3.567 -2.892,6.458 -6.458,6.458 -3.567,0 -6.458,-2.891 -6.458,-6.458 0,-3.566 2.891,-6.458 6.458,-6.458 C -2.892,-6.458 0,-3.566 0,0" id="path30" style="fill:#002776;fill-opacity:1;fill-rule:nonzero;stroke:none"/></g><g id="g32" transform="translate(12.2769,21.1128)"><path d="m 0,0 c -0.332,-0.621 -0.558,-1.303 -0.672,-2.023 3.994,0.29 9.417,-1.892 11.744,-4.596 0.402,0.604 0.7,1.281 0.882,2.004 C 9.083,-1.806 4.038,0.016 0,0" id="path34" style="fill:#cbe9d4;fill-opacity:1;fill-rule:nonzero;stroke:none"/></g><path d="m 13,16.767 -1,0 0,1 1,0 0,-1 z" id="path36" style="fill:#88c9f9;fill-opacity:1;fill-rule:nonzero;stroke:none"/><path d="m 14,14.767 -1,0 0,1 1,0 0,-1 z" id="path38" style="fill:#88c9f9;fill-opacity:1;fill-rule:nonzero;stroke:none"/><path d="m 16,16.767 -1,0 0,1 1,0 0,-1 z" id="path40" style="fill:#55acee;fill-opacity:1;fill-rule:nonzero;stroke:none"/><path d="m 18,15.767 -1,0 0,1 1,0 0,-1 z" id="path42" style="fill:#55acee;fill-opacity:1;fill-rule:nonzero;stroke:none"/><path d="m 22,13.767 -1,0 0,1 1,0 0,-1 z" id="path44" style="fill:#55acee;fill-opacity:1;fill-rule:nonzero;stroke:none"/><path d="m 19,12.767 -1,0 0,1 1,0 0,-1 z" id="path46" style="fill:#55acee;fill-opacity:1;fill-rule:nonzero;stroke:none"/><path d="m 22,18.767 -1,0 0,1 1,0 0,-1 z" id="path48" style="fill:#55acee;fill-opacity:1;fill-rule:nonzero;stroke:none"/><path d="m 20,14.767 -1,0 0,1 1,0 0,-1 z" id="path50" style="fill:#3b88c3;fill-opacity:1;fill-rule:nonzero;stroke:none"/></g></g></g></svg>