<?xml version="1.0" encoding="UTF-8" standalone="no"?><svg xmlns="http://www.w3.org/2000/svg" xmlns:cc="http://creativecommons.org/ns#" xmlns:dc="http://purl.org/dc/elements/1.1/" xmlns:rdf="http://www.w3.org/1999/02/22-rdf-syntax-ns#" xmlns:svg="http://www.w3.org/2000/svg" height="45" id="svg2" style="enable-background:new 0 0 45 45;" version="1.1" viewBox="0 0 45 45" width="45" xml:space="preserve"><metadata id="metadata8"><rdf:RDF><cc:Work rdf:about=""><dc:format>image/svg+xml</dc:format><dc:type rdf:resource="http://purl.org/dc/dcmitype/StillImage"/></cc:Work></rdf:RDF></metadata><defs id="defs6"><clipPath clipPathUnits="userSpaceOnUse" id="clipPath16"><path d="M 0,36 36,36 36,0 0,0 0,36 Z" id="path18"/></clipPath></defs><g id="g10" transform="matrix(1.25,0,0,-1.25,0,45)"><g id="g12"><g clip-path="url(#clipPath16)" id="g14"><g id="g20" transform="translate(33.7299,17.8132)"><path d="m 0,0 c -0.491,-1.982 -1.376,-2.514 -3.356,-2.023 l -11.655,2.888 3.332,13.447 11.656,-2.887 C 1.956,10.934 2.491,10.049 2,8.068 L 0,0 Z" id="path22" style="fill:#e8eaeb;fill-opacity:1;fill-rule:nonzero;stroke:none"/></g><g id="g24" transform="translate(14.0995,1.6169)"><path d="m 0,0 c -0.073,0 -0.147,0.009 -0.221,0.027 -0.495,0.121 -0.798,0.622 -0.676,1.118 l 7.609,30.918 c 0.122,0.496 0.622,0.798 1.117,0.676 0.495,-0.122 0.798,-0.622 0.675,-1.117 L 0.896,0.703 C 0.793,0.282 0.416,0 0,0" id="path26" style="fill:#66757f;fill-opacity:1;fill-rule:nonzero;stroke:none"/></g><g id="g28" transform="translate(30.2475,22.9583)"><path d="m 0,0 c -0.43,-1.733 -2.183,-2.79 -3.915,-2.36 -1.733,0.429 -2.791,2.182 -2.361,3.915 0.429,1.733 2.183,2.79 3.916,2.36 C -0.628,3.486 0.429,1.733 0,0" id="path30" style="fill:#be1931;fill-opacity:1;fill-rule:nonzero;stroke:none"/></g><g id="g32" transform="translate(2.2699,17.8132)"><path d="M 0,0 C 0.491,-1.982 1.375,-2.514 3.356,-2.023 L 15.011,0.865 11.678,14.312 0.023,11.425 C -1.957,10.934 -2.491,10.049 -2,8.068 L 0,0 Z" id="path34" style="fill:#e8eaeb;fill-opacity:1;fill-rule:nonzero;stroke:none"/></g><g id="g36" transform="translate(21.8998,1.6169)"><path d="m 0,0 c -0.415,0 -0.792,0.282 -0.896,0.703 l -7.608,30.919 c -0.122,0.495 0.181,0.995 0.676,1.117 0.499,0.121 0.996,-0.181 1.118,-0.676 L 0.897,1.145 C 1.02,0.649 0.717,0.148 0.222,0.027 0.147,0.009 0.073,0 0,0" id="path38" style="fill:#66757f;fill-opacity:1;fill-rule:nonzero;stroke:none"/></g><g id="g40" transform="translate(5.7524,22.9583)"><path d="m 0,0 c 0.43,-1.733 2.183,-2.79 3.916,-2.36 1.732,0.429 2.79,2.182 2.36,3.915 C 5.847,3.288 4.093,4.345 2.361,3.915 0.628,3.486 -0.429,1.733 0,0" id="path42" style="fill:#be1931;fill-opacity:1;fill-rule:nonzero;stroke:none"/></g></g></g></g></svg>