<?xml version="1.0" encoding="UTF-8" standalone="no"?><svg xmlns="http://www.w3.org/2000/svg" xmlns:cc="http://creativecommons.org/ns#" xmlns:dc="http://purl.org/dc/elements/1.1/" xmlns:rdf="http://www.w3.org/1999/02/22-rdf-syntax-ns#" xmlns:svg="http://www.w3.org/2000/svg" height="45" id="svg2" style="enable-background:new 0 0 45 45;" version="1.1" viewBox="0 0 45 45" width="45" xml:space="preserve"><metadata id="metadata8"><rdf:RDF><cc:Work rdf:about=""><dc:format>image/svg+xml</dc:format><dc:type rdf:resource="http://purl.org/dc/dcmitype/StillImage"/></cc:Work></rdf:RDF></metadata><defs id="defs6"><clipPath clipPathUnits="userSpaceOnUse" id="clipPath16"><path d="M 0,36 36,36 36,0 0,0 0,36 Z" id="path18"/></clipPath></defs><g id="g10" transform="matrix(1.25,0,0,-1.25,0,45)"><g id="g12"><g clip-path="url(#clipPath16)" id="g14"><g id="g20" transform="translate(35.4472,3.8796)"><path d="m 0,0 c 0,0 -1.098,-1.88 -2.874,-1.88 l -13.23,0 c -3.635,0 -4.391,4.18 -7.605,10.605 -3.212,6.427 -6.905,3.048 -6.905,3.048 l -1.215,-14.653 -1.284,0 c 0,0 -0.615,12.552 -1.25,14.596 -1.445,4.65 -0.625,8.182 -0.625,8.182 L -26.969,19.355 -16.87,3.831 0,0 Z" id="path22" style="fill:#292f33;fill-opacity:1;fill-rule:nonzero;stroke:none"/></g><g id="g24" transform="translate(30.4491,9.5026)"><path d="M 0,0 0,0 C -1.137,0.31 -1.874,0.625 -1.874,0.625 -2.387,0.091 -3.105,0 -3.749,0 c -3.825,0 -5.807,1.556 -8.122,6.873 -4.998,11.48 -13.224,16.244 -15.619,16.244 -2.552,0 -3.964,-11.871 -2.5,-11.871 4.607,0 8.415,-0.928 11.12,-3.749 4.042,-4.217 5.513,-13.12 8.116,-13.12 l 15.752,0 c 0,0 0.625,4.061 -4.998,5.623" id="path26" style="fill:#dd2e44;fill-opacity:1;fill-rule:nonzero;stroke:none"/></g></g></g></g></svg>