<?xml version="1.0" encoding="UTF-8" standalone="no"?><svg xmlns="http://www.w3.org/2000/svg" xmlns:cc="http://creativecommons.org/ns#" xmlns:dc="http://purl.org/dc/elements/1.1/" xmlns:rdf="http://www.w3.org/1999/02/22-rdf-syntax-ns#" xmlns:svg="http://www.w3.org/2000/svg" height="45" id="svg2" style="enable-background:new 0 0 45 45;" version="1.1" viewBox="0 0 45 45" width="45" xml:space="preserve"><metadata id="metadata8"><rdf:RDF><cc:Work rdf:about=""><dc:format>image/svg+xml</dc:format><dc:type rdf:resource="http://purl.org/dc/dcmitype/StillImage"/></cc:Work></rdf:RDF></metadata><defs id="defs6"><clipPath clipPathUnits="userSpaceOnUse" id="clipPath16"><path d="M 0,36 36,36 36,0 0,0 0,36 Z" id="path18"/></clipPath></defs><g id="g10" transform="matrix(1.25,0,0,-1.25,0,45)"><g id="g12"><g clip-path="url(#clipPath16)" id="g14"><g id="g20" transform="translate(32,12)"><path d="m 0,0 -1,0 c -0.55,0 -1,0.45 -1,1 0,0.55 0.45,1 1,1 L 0,2 C 0.55,2 1,1.55 1,1 1,0.45 0.55,0 0,0" id="path22" style="fill:#f4900c;fill-opacity:1;fill-rule:nonzero;stroke:none"/></g><g id="g24" transform="translate(10,4.5)"><path d="M 0,0 C 0,-2.485 -2.015,-4.5 -4.5,-4.5 -6.985,-4.5 -9,-2.485 -9,0 -9,2.485 -6.985,4.5 -4.5,4.5 -2.015,4.5 0,2.485 0,0" id="path26" style="fill:#292f33;fill-opacity:1;fill-rule:nonzero;stroke:none"/></g><g id="g28" transform="translate(34,4.5)"><path d="M 0,0 C 0,-2.485 -2.015,-4.5 -4.5,-4.5 -6.985,-4.5 -9,-2.485 -9,0 -9,2.485 -6.985,4.5 -4.5,4.5 -2.015,4.5 0,2.485 0,0" id="path30" style="fill:#292f33;fill-opacity:1;fill-rule:nonzero;stroke:none"/></g><g id="g32" transform="translate(8,4.5)"><path d="M 0,0 C 0,-1.381 -1.119,-2.5 -2.5,-2.5 -3.881,-2.5 -5,-1.381 -5,0 -5,1.381 -3.881,2.5 -2.5,2.5 -1.119,2.5 0,1.381 0,0" id="path34" style="fill:#99aab5;fill-opacity:1;fill-rule:nonzero;stroke:none"/></g><g id="g36" transform="translate(32,4.5)"><path d="M 0,0 C 0,-1.381 -1.119,-2.5 -2.5,-2.5 -3.881,-2.5 -5,-1.381 -5,0 -5,1.381 -3.881,2.5 -2.5,2.5 -1.119,2.5 0,1.381 0,0" id="path38" style="fill:#99aab5;fill-opacity:1;fill-rule:nonzero;stroke:none"/></g><g id="g40" transform="translate(5.8535,11.918)"><path d="M 0,0 2.615,6.989 2.146,8.083 c 0,0 -0.916,-0.008 -1,1 -0.083,1.006 2.408,3.079 3,3 0.593,-0.081 0,-2 0,-2 0,0 2.32,-0.558 2,-2 -0.319,-1.444 -2.375,-8.688 -2.375,-8.688 0,0 1.75,-0.875 2.375,-2.312 0.449,-1.032 1.681,-1.018 3,-1 1.319,0.016 4.393,0.007 5,2 0.607,1.991 1,3 1,3 l -1,1 10,2 c 0,0 -0.89,-1.982 1,-3 2.168,-1.169 2.861,-2.669 4,-5 0.749,-1.534 0.449,-1.897 -1,-2 -1.941,-0.14 -4.44,-0.386 -5.79,-0.535 -1.197,-0.134 -2.284,-1.651 -4.164,-1.651 -1.88,0 -10.052,-0.049 -12.046,0.186 -3.496,0.409 -4.758,3 -10,3 -2.072,0 -1.06,1.563 0.028,2.665 C -2.617,-1.026 -0.025,0.148 0,0" id="path42" style="fill:#dd2e44;fill-opacity:1;fill-rule:nonzero;stroke:none"/></g><g id="g44" transform="translate(22,3)"><path d="m 0,0 -3,0 c -1.1,0 -2,0.9 -2,2 0,1.1 0.9,2 2,2 L 0,4 C 1.1,4 2,3.1 2,2 2,0.9 1.1,0 0,0" id="path46" style="fill:#be1931;fill-opacity:1;fill-rule:nonzero;stroke:none"/></g><g id="g48" transform="translate(19,3)"><path d="m 0,0 -5,0 c -0.55,0 -1,0.45 -1,1 0,0.55 0.45,1 1,1 L 0,2 C 0.55,2 1,1.55 1,1 1,0.45 0.55,0 0,0" id="path50" style="fill:#be1931;fill-opacity:1;fill-rule:nonzero;stroke:none"/></g><g id="g52" transform="translate(22,14)"><path d="M 0,0 C -1.618,0 -2.431,-0.306 -3,1 -3.569,2.306 -3.02,3 -2,3 -0.98,3 3.728,3.181 6,4 8.273,4.819 9.053,4.831 9,4 8.947,3.169 8,2 8,2 8,2 6.746,0 0,0" id="path54" style="fill:#292f33;fill-opacity:1;fill-rule:nonzero;stroke:none"/></g><g id="g56" transform="translate(14,20)"><path d="m 0,0 -3.251,0 c -0.55,0 -1,0.45 -1,1 0,0.55 0.45,1 1,1 L 0,2 C 0.55,2 1,1.55 1,1 1,0.45 0.55,0 0,0" id="path58" style="fill:#292f33;fill-opacity:1;fill-rule:nonzero;stroke:none"/></g><g id="g60" transform="translate(7.5,20)"><path d="m 0,0 0,0 c -0.275,0 -0.5,0.225 -0.5,0.5 l 0,1 C -0.5,1.775 -0.275,2 0,2 0.275,2 0.5,1.775 0.5,1.5 l 0,-1 C 0.5,0.225 0.275,0 0,0" id="path62" style="fill:#f4900c;fill-opacity:1;fill-rule:nonzero;stroke:none"/></g><g id="g64" transform="translate(13.0625,23)"><path d="m 0,0 -0.125,0 c -0.516,0 -0.937,0.422 -0.937,0.937 l 0,2.126 C -1.062,3.578 -0.641,4 -0.125,4 L 0,4 C 0.516,4 0.937,3.578 0.937,3.063 l 0,-2.126 C 0.937,0.422 0.516,0 0,0" id="path66" style="fill:#292f33;fill-opacity:1;fill-rule:nonzero;stroke:none"/></g><g id="g68" transform="translate(9.9824,20.9341)"><path d="m 0,0 -0.022,0.022 c -0.188,0.188 -0.188,0.497 0,0.685 l 2.85,2.851 c 0.189,0.188 0.497,0.188 0.685,0 L 3.536,3.536 c 0.188,-0.189 0.188,-0.497 0,-0.685 L 0.685,0 C 0.497,-0.188 0.188,-0.188 0,0" id="path70" style="fill:#292f33;fill-opacity:1;fill-rule:nonzero;stroke:none"/></g></g></g></g></svg>