<?xml version="1.0" encoding="UTF-8" standalone="no"?><svg xmlns="http://www.w3.org/2000/svg" xmlns:cc="http://creativecommons.org/ns#" xmlns:dc="http://purl.org/dc/elements/1.1/" xmlns:rdf="http://www.w3.org/1999/02/22-rdf-syntax-ns#" xmlns:svg="http://www.w3.org/2000/svg" height="45" id="svg2" style="enable-background:new 0 0 45 45;" version="1.1" viewBox="0 0 45 45" width="45" xml:space="preserve"><metadata id="metadata8"><rdf:RDF><cc:Work rdf:about=""><dc:format>image/svg+xml</dc:format><dc:type rdf:resource="http://purl.org/dc/dcmitype/StillImage"/></cc:Work></rdf:RDF></metadata><defs id="defs6"><clipPath clipPathUnits="userSpaceOnUse" id="clipPath16"><path d="M 0,36 36,36 36,0 0,0 0,36 Z" id="path18"/></clipPath></defs><g id="g10" transform="matrix(1.25,0,0,-1.25,0,45)"><g id="g12"><g clip-path="url(#clipPath16)" id="g14"><g id="g20" transform="translate(2.6533,1)"><path d="m 0,0 c -1.842,0 -2.654,1.338 -1.806,2.973 l 15.609,30.055 c 0.848,1.635 2.238,1.635 3.087,0 L 32.499,2.973 C 33.349,1.338 32.536,0 30.693,0 L 0,0 Z" id="path22" style="fill:#ffcc4d;fill-opacity:1;fill-rule:nonzero;stroke:none"/></g><g id="g24" transform="translate(15.769,25.3398)"><path d="M 0,0 C 0,1.302 0.961,2.108 2.232,2.108 3.473,2.108 4.465,1.272 4.465,0 l 0,-11.938 c 0,-1.271 -0.992,-2.108 -2.233,-2.108 -1.271,0 -2.232,0.807 -2.232,2.108 L 0,0 Z m -0.186,-18.293 c 0,1.333 1.085,2.418 2.418,2.418 1.333,0 2.419,-1.085 2.419,-2.418 0,-1.334 -1.086,-2.419 -2.419,-2.419 -1.333,0 -2.418,1.085 -2.418,2.419" id="path26" style="fill:#231f20;fill-opacity:1;fill-rule:nonzero;stroke:none"/></g></g></g></g></svg>