<?xml version="1.0" encoding="UTF-8" standalone="no"?><svg xmlns="http://www.w3.org/2000/svg" xmlns:cc="http://creativecommons.org/ns#" xmlns:dc="http://purl.org/dc/elements/1.1/" xmlns:rdf="http://www.w3.org/1999/02/22-rdf-syntax-ns#" xmlns:svg="http://www.w3.org/2000/svg" height="45" id="svg2" style="enable-background:new 0 0 45 45;" version="1.1" viewBox="0 0 45 45" width="45" xml:space="preserve"><metadata id="metadata8"><rdf:RDF><cc:Work rdf:about=""><dc:format>image/svg+xml</dc:format><dc:type rdf:resource="http://purl.org/dc/dcmitype/StillImage"/></cc:Work></rdf:RDF></metadata><defs id="defs6"><clipPath clipPathUnits="userSpaceOnUse" id="clipPath16"><path d="M 0,36 36,36 36,0 0,0 0,36 Z" id="path18"/></clipPath><clipPath clipPathUnits="userSpaceOnUse" id="clipPath40"><path d="M 7.237,25.364 1.006,19.132 c -0.626,-0.625 -0.626,-1.639 0,-2.265 l 0,0 6.231,-6.232 c 0.625,-0.624 1.64,-0.624 2.266,0 l 0,0 6.231,6.232 c 0.626,0.626 0.626,1.64 0,2.265 l 0,0 -6.231,6.232 C 9.19,25.677 8.78,25.833 8.37,25.833 l 0,0 c -0.41,0 -0.82,-0.156 -1.133,-0.469" id="path42"/></clipPath><clipPath clipPathUnits="userSpaceOnUse" id="clipPath52"><path d="M 16.867,15.735 10.635,9.503 c -0.625,-0.625 -0.625,-1.642 0,-2.266 l 0,0 6.232,-6.231 c 0.625,-0.625 1.641,-0.625 2.266,0 l 0,0 6.232,6.231 c 0.624,0.624 0.624,1.641 0,2.266 l 0,0 -6.232,6.232 C 18.82,16.047 18.41,16.202 18,16.202 l 0,0 c -0.41,0 -0.82,-0.155 -1.133,-0.467" id="path54"/></clipPath><clipPath clipPathUnits="userSpaceOnUse" id="clipPath64"><path d="m 26.497,25.364 -6.232,-6.232 c -0.624,-0.625 -0.624,-1.639 0,-2.265 l 0,0 6.232,-6.232 c 0.625,-0.624 1.642,-0.624 2.266,0 l 0,0 6.231,6.232 c 0.625,0.626 0.625,1.64 0,2.265 l 0,0 -6.231,6.232 c -0.312,0.313 -0.722,0.469 -1.133,0.469 l 0,0 c -0.41,0 -0.82,-0.156 -1.133,-0.469" id="path66"/></clipPath><clipPath clipPathUnits="userSpaceOnUse" id="clipPath76"><path d="m 16.867,34.994 -6.232,-6.231 c -0.625,-0.626 -0.625,-1.64 0,-2.266 l 0,0 6.232,-6.232 c 0.625,-0.625 1.641,-0.625 2.266,0 l 0,0 6.232,6.232 c 0.624,0.626 0.624,1.64 0,2.266 l 0,0 -6.232,6.231 C 18.82,35.307 18.41,35.464 18,35.464 l 0,0 c -0.41,0 -0.82,-0.157 -1.133,-0.47" id="path78"/></clipPath><clipPath clipPathUnits="userSpaceOnUse" id="clipPath88"><path d="M 0,36 36,36 36,0 0,0 0,36 Z" id="path90"/></clipPath></defs><g id="g10" transform="matrix(1.25,0,0,-1.25,0,45)"><g id="g12"><g clip-path="url(#clipPath16)" id="g14"><g id="g20" transform="translate(16.8672,20.2656)"><path d="m 0,0 c 0.626,-0.626 1.64,-0.626 2.266,0 l 6.231,6.231 c 0.625,0.626 0.625,1.64 0,2.266 L 2.266,14.729 C 1.64,15.355 0.626,15.355 0,14.729 L -6.232,8.497 c -0.625,-0.626 -0.625,-1.64 0,-2.266 L 0,0 Z" id="path22" style="fill:#55acee;fill-opacity:1;fill-rule:nonzero;stroke:none"/></g><g id="g24" transform="translate(34.9941,19.1323)"><path d="m 0,0 -6.231,6.232 c -0.624,0.625 -1.641,0.625 -2.266,0 L -14.729,0 c -0.625,-0.626 -0.625,-1.639 0,-2.265 l 6.232,-6.232 c 0.625,-0.625 1.642,-0.625 2.266,0 L 0,-2.265 C 0.625,-1.639 0.625,-0.626 0,0" id="path26" style="fill:#55acee;fill-opacity:1;fill-rule:nonzero;stroke:none"/></g><g id="g28" transform="translate(19.1328,15.7344)"><path d="m 0,0 c -0.626,0.624 -1.64,0.624 -2.266,0 l -6.231,-6.232 c -0.626,-0.625 -0.626,-1.641 0,-2.265 l 6.231,-6.232 c 0.626,-0.625 1.64,-0.625 2.266,0 l 6.232,6.232 c 0.625,0.624 0.625,1.64 0,2.265 L 0,0 Z" id="path30" style="fill:#55acee;fill-opacity:1;fill-rule:nonzero;stroke:none"/></g><g id="g32" transform="translate(15.7339,19.1323)"><path d="m 0,0 -6.231,6.232 c -0.626,0.625 -1.64,0.625 -2.266,0 L -14.728,0 c -0.626,-0.626 -0.626,-1.639 0,-2.265 l 6.231,-6.232 c 0.626,-0.625 1.64,-0.625 2.266,0 L 0,-2.265 C 0.626,-1.639 0.626,-0.626 0,0" id="path34" style="fill:#55acee;fill-opacity:1;fill-rule:nonzero;stroke:none"/></g></g></g><g id="g36"><g clip-path="url(#clipPath40)" id="g38"><g id="g44" transform="translate(25,18)"><path d="m 0,0 c 0,-3.866 -3.134,-7 -7,-7 -3.866,0 -7,3.134 -7,7 0,3.866 3.134,7 7,7 3.866,0 7,-3.134 7,-7" id="path46" style="fill:#3b88c3;fill-opacity:1;fill-rule:nonzero;stroke:none"/></g></g></g><g id="g48"><g clip-path="url(#clipPath52)" id="g50"><g id="g56" transform="translate(25,18)"><path d="m 0,0 c 0,-3.866 -3.134,-7 -7,-7 -3.866,0 -7,3.134 -7,7 0,3.866 3.134,7 7,7 3.866,0 7,-3.134 7,-7" id="path58" style="fill:#3b88c3;fill-opacity:1;fill-rule:nonzero;stroke:none"/></g></g></g><g id="g60"><g clip-path="url(#clipPath64)" id="g62"><g id="g68" transform="translate(25,18)"><path d="m 0,0 c 0,-3.866 -3.134,-7 -7,-7 -3.866,0 -7,3.134 -7,7 0,3.866 3.134,7 7,7 3.866,0 7,-3.134 7,-7" id="path70" style="fill:#3b88c3;fill-opacity:1;fill-rule:nonzero;stroke:none"/></g></g></g><g id="g72"><g clip-path="url(#clipPath76)" id="g74"><g id="g80" transform="translate(25,18)"><path d="m 0,0 c 0,-3.866 -3.134,-7 -7,-7 -3.866,0 -7,3.134 -7,7 0,3.866 3.134,7 7,7 3.866,0 7,-3.134 7,-7" id="path82" style="fill:#3b88c3;fill-opacity:1;fill-rule:nonzero;stroke:none"/></g></g></g><g id="g84"><g clip-path="url(#clipPath88)" id="g86"><g id="g92" transform="translate(23,18)"><path d="m 0,0 c 0,-2.762 -2.238,-5 -5,-5 -2.761,0 -5,2.238 -5,5 0,2.761 2.239,5 5,5 2.762,0 5,-2.239 5,-5" id="path94" style="fill:#bbddf5;fill-opacity:1;fill-rule:nonzero;stroke:none"/></g></g></g></g></svg>