<?xml version="1.0" encoding="UTF-8" standalone="no"?><svg xmlns="http://www.w3.org/2000/svg" xmlns:cc="http://creativecommons.org/ns#" xmlns:dc="http://purl.org/dc/elements/1.1/" xmlns:rdf="http://www.w3.org/1999/02/22-rdf-syntax-ns#" xmlns:svg="http://www.w3.org/2000/svg" height="45" id="svg2" style="enable-background:new 0 0 45 45;" version="1.1" viewBox="0 0 45 45" width="45" xml:space="preserve"><metadata id="metadata8"><rdf:RDF><cc:Work rdf:about=""><dc:format>image/svg+xml</dc:format><dc:type rdf:resource="http://purl.org/dc/dcmitype/StillImage"/></cc:Work></rdf:RDF></metadata><defs id="defs6"><clipPath clipPathUnits="userSpaceOnUse" id="clipPath16"><path d="M 0,36 36,36 36,0 0,0 0,36 Z" id="path18"/></clipPath></defs><g id="g10" transform="matrix(1.25,0,0,-1.25,0,45)"><g id="g12"><g clip-path="url(#clipPath16)" id="g14"><g id="g20" transform="translate(18,35)"><path d="m 0,0 c -9.941,0 -18,-6.268 -18,-14 0,-4.368 2.574,-8.268 6.604,-10.835 -0.524,-2.309 -1.745,-5.734 -4.604,-9.165 5.758,0.96 9.439,3.761 11.716,6.416 C -2.908,-27.846 -1.479,-28 0,-28 c 9.941,0 18,6.268 18,14 C 18,-6.268 9.941,0 0,0" id="path22" style="fill:#bdddf4;fill-opacity:1;fill-rule:nonzero;stroke:none"/></g><g id="g24" transform="translate(20,21)"><path d="m 0,0 c 0,-1.104 -0.895,-2 -2,-2 -1.104,0 -2,0.896 -2,2 0,1.105 0.896,2 2,2 1.105,0 2,-0.895 2,-2" id="path26" style="fill:#2a6797;fill-opacity:1;fill-rule:nonzero;stroke:none"/></g><g id="g28" transform="translate(28,21)"><path d="m 0,0 c 0,-1.104 -0.895,-2 -2,-2 -1.104,0 -2,0.896 -2,2 0,1.105 0.896,2 2,2 1.105,0 2,-0.895 2,-2" id="path30" style="fill:#2a6797;fill-opacity:1;fill-rule:nonzero;stroke:none"/></g><g id="g32" transform="translate(12,21)"><path d="m 0,0 c 0,-1.104 -0.895,-2 -2,-2 -1.104,0 -2,0.896 -2,2 0,1.105 0.896,2 2,2 1.105,0 2,-0.895 2,-2" id="path34" style="fill:#2a6797;fill-opacity:1;fill-rule:nonzero;stroke:none"/></g></g></g></g></svg>