<?xml version="1.0" encoding="UTF-8" standalone="no"?><svg xmlns="http://www.w3.org/2000/svg" xmlns:cc="http://creativecommons.org/ns#" xmlns:dc="http://purl.org/dc/elements/1.1/" xmlns:rdf="http://www.w3.org/1999/02/22-rdf-syntax-ns#" xmlns:svg="http://www.w3.org/2000/svg" height="45" id="svg2" style="enable-background:new 0 0 45 45;" version="1.1" viewBox="0 0 45 45" width="45" xml:space="preserve"><metadata id="metadata8"><rdf:RDF><cc:Work rdf:about=""><dc:format>image/svg+xml</dc:format><dc:type rdf:resource="http://purl.org/dc/dcmitype/StillImage"/></cc:Work></rdf:RDF></metadata><defs id="defs6"><clipPath clipPathUnits="userSpaceOnUse" id="clipPath16"><path d="M 0,36 36,36 36,0 0,0 0,36 Z" id="path18"/></clipPath></defs><g id="g10" transform="matrix(1.25,0,0,-1.25,0,45)"><g id="g12"><g clip-path="url(#clipPath16)" id="g14"><g id="g20" transform="translate(32,29)"><path d="m 0,0 -28,0 c -2.209,0 -4,-1.791 -4,-4 l 0,-15 c 0,-2.209 1.791,-4 4,-4 l 11.416,0 c 0.52,-0.596 1.477,-1 2.584,-1 1.107,0 2.064,0.404 2.584,1 L 0,-23 c 2.209,0 4,1.791 4,4 L 4,-4 C 4,-1.791 2.209,0 0,0" id="path22" style="fill:#226699;fill-opacity:1;fill-rule:nonzero;stroke:none"/></g><g id="g24" transform="translate(20,9)"><path d="m 0,0 c 0,-1.104 -0.895,-2 -2,-2 -1.104,0 -2,0.896 -2,2 l 0,18 c 0,1.104 0.896,2 2,2 1.105,0 2,-0.896 2,-2 L 0,0 Z" id="path26" style="fill:#292f33;fill-opacity:1;fill-rule:nonzero;stroke:none"/></g><g id="g28" transform="translate(18,10)"><path d="m 0,0 c 0,-1.104 -0.895,-2 -2,-2 l -12,0 c -1.104,0 -2,0.896 -2,2 l 0,18 c 0,1.104 0.896,2 2,2 l 12,0 c 1.105,0 2,-0.896 2,-2 L 0,0 Z" id="path30" style="fill:#99aab5;fill-opacity:1;fill-rule:nonzero;stroke:none"/></g><g id="g32" transform="translate(18,10)"><path d="m 0,0 c -0.999,1.998 -3.657,2 -4,2 -2,0 -5,-2 -8,-2 -1,0 -2,0.896 -2,2 l 0,16 c 0,1.104 1,2 2,2 3.255,0 6,2 8,2 3,0 4,-1.896 4,-3 L 0,0 Z" id="path34" style="fill:#e1e8ed;fill-opacity:1;fill-rule:nonzero;stroke:none"/></g><g id="g36" transform="translate(34,10)"><path d="m 0,0 c 0,-1.104 -0.895,-2 -2,-2 l -12,0 c -1.104,0 -2,0.896 -2,2 l 0,18 c 0,1.104 0.896,2 2,2 l 12,0 c 1.105,0 2,-0.896 2,-2 L 0,0 Z" id="path38" style="fill:#99aab5;fill-opacity:1;fill-rule:nonzero;stroke:none"/></g><g id="g40" transform="translate(18,10)"><path d="m 0,0 c 0.999,1.998 3.657,2 4,2 2,0 5,-2 8,-2 1,0 2,0.896 2,2 l 0,16 c 0,1.104 -1,2 -2,2 C 8.744,20 6,22 4,22 1,22 0,20.104 0,19 L 0,0 Z" id="path42" style="fill:#ccd6dd;fill-opacity:1;fill-rule:nonzero;stroke:none"/></g></g></g></g></svg>