<?xml version="1.0" encoding="UTF-8" standalone="no"?><svg xmlns="http://www.w3.org/2000/svg" xmlns:cc="http://creativecommons.org/ns#" xmlns:dc="http://purl.org/dc/elements/1.1/" xmlns:rdf="http://www.w3.org/1999/02/22-rdf-syntax-ns#" xmlns:svg="http://www.w3.org/2000/svg" height="45" id="svg2" style="enable-background:new 0 0 45 45;" version="1.1" viewBox="0 0 45 45" width="45" xml:space="preserve"><metadata id="metadata8"><rdf:RDF><cc:Work rdf:about=""><dc:format>image/svg+xml</dc:format><dc:type rdf:resource="http://purl.org/dc/dcmitype/StillImage"/></cc:Work></rdf:RDF></metadata><defs id="defs6"><clipPath clipPathUnits="userSpaceOnUse" id="clipPath16"><path d="M 0,36 36,36 36,0 0,0 0,36 Z" id="path18"/></clipPath></defs><g id="g10" transform="matrix(1.25,0,0,-1.25,0,45)"><g id="g12"><g clip-path="url(#clipPath16)" id="g14"><g id="g20" transform="translate(4,0)"><path d="m 0,0 c 0,0 -4,0 -4,4 l 0,28 c 0,0 0,4 4,4 l 26,0 c 1,0 2,-1 2,-1 l 3,-3 c 0,0 1,-1 1,-2 L 32,4 C 32,4 32,0 28,0 L 0,0 Z" id="path22" style="fill:#292f33;fill-opacity:1;fill-rule:nonzero;stroke:none"/></g><g id="g24" transform="translate(5,17)"><path d="m 0,0 0,1 c 0,0 0,2 2,2 l 21,0 c 2,0 2,-2 2,-2 L 25,0 0,0 Z" id="path26" style="fill:#55acee;fill-opacity:1;fill-rule:nonzero;stroke:none"/></g><g id="g28" transform="translate(5,3.9785)"><path d="m 0,0 0,13.021 25,0 0,-13 c 0,0 0,-2 -2,-2 l -21,0 C 0,-1.979 0,0 0,0" id="path30" style="fill:#e1e8ed;fill-opacity:1;fill-rule:nonzero;stroke:none"/></g><path d="m 22,23 5,0 0,10 -5,0 0,-10 z M 10,33 c 0,0 0,1 1,1 l 18,0 c 1.048,0 1,-1 1,-1 l 0,-10 c 0,0 0,-1 -1,-1 l -18,0 c 0,0 -1,0 -1,1 l 0,10 z" id="path32" style="fill:#e1e8ed;fill-opacity:1;fill-rule:nonzero;stroke:none"/></g></g></g></svg>