<?xml version="1.0" encoding="UTF-8" standalone="no"?><svg xmlns="http://www.w3.org/2000/svg" xmlns:cc="http://creativecommons.org/ns#" xmlns:dc="http://purl.org/dc/elements/1.1/" xmlns:rdf="http://www.w3.org/1999/02/22-rdf-syntax-ns#" xmlns:svg="http://www.w3.org/2000/svg" height="45" id="svg2" style="enable-background:new 0 0 45 45;" version="1.1" viewBox="0 0 45 45" width="45" xml:space="preserve"><metadata id="metadata8"><rdf:RDF><cc:Work rdf:about=""><dc:format>image/svg+xml</dc:format><dc:type rdf:resource="http://purl.org/dc/dcmitype/StillImage"/></cc:Work></rdf:RDF></metadata><defs id="defs6"><clipPath clipPathUnits="userSpaceOnUse" id="clipPath16"><path d="M 0,36 36,36 36,0 0,0 0,36 Z" id="path18"/></clipPath></defs><g id="g10" transform="matrix(1.25,0,0,-1.25,0,45)"><g id="g12"><g clip-path="url(#clipPath16)" id="g14"><g id="g20" transform="translate(35,16)"><path d="m 0,0 c 0,-2.209 -1.791,-2 -4,-2 l -26,0 c -2.209,0 -4,-0.209 -4,2 l 2,12 c 0.125,1.917 1.791,4 4,4 l 22,0 c 2.209,0 3.791,-2.208 4,-4 L 0,0 Z" id="path22" style="fill:#67757f;fill-opacity:1;fill-rule:nonzero;stroke:none"/></g><g id="g24" transform="translate(28,23)"><path d="m 0,0 c 0,-1.104 -0.895,-2 -2,-2 l -16,0 c -1.104,0 -2,0.896 -2,2 l 0,8 c 0,1.105 0.896,2 2,2 l 16,0 C -0.895,10 0,9.105 0,8 L 0,0 Z" id="path26" style="fill:#ccd6dd;fill-opacity:1;fill-rule:nonzero;stroke:none"/></g><g id="g28" transform="translate(30,19)"><path d="m 0,0 c 0,-1.104 -0.895,-2 -2,-2 l -20,0 c -1.104,0 -2,0.896 -2,2 l 0,8 c 0,1.105 0.896,2 2,2 l 20,0 C -0.895,10 0,9.105 0,8 L 0,0 Z" id="path30" style="fill:#e1e8ed;fill-opacity:1;fill-rule:nonzero;stroke:none"/></g><g id="g32" transform="translate(32,15)"><path d="m 0,0 c 0,-1.104 -0.895,-2 -2,-2 l -24,0 c -1.104,0 -2,0.896 -2,2 l 0,8 c 0,1.105 0.896,2 2,2 l 24,0 C -0.895,10 0,9.105 0,8 L 0,0 Z" id="path34" style="fill:#f5f8fa;fill-opacity:1;fill-rule:nonzero;stroke:none"/></g><g id="g36" transform="translate(35,5)"><path d="m 0,0 c 0,-2.209 -1.791,-4 -4,-4 l -26,0 c -2.209,0 -4,1.791 -4,4 l 0,11 c 0,2.209 1.791,4 4,4 l 26,0 c 2.209,0 4,-1.791 4,-4 L 0,0 Z" id="path38" style="fill:#9aaab4;fill-opacity:1;fill-rule:nonzero;stroke:none"/></g><g id="g40" transform="translate(13.9995,24)"><path d="M 0,0 Z" id="path42" style="fill:#67757f;fill-opacity:1;fill-rule:nonzero;stroke:none"/></g><g id="g44" transform="translate(13.9995,24)"><path d="M 0,0 Z" id="path46" style="fill:#67757f;fill-opacity:1;fill-rule:nonzero;stroke:none"/></g><g id="g48" transform="translate(22,35)"><path d="m 0,0 -5,0 c -1.104,0 -2,-0.895 -2,-2 l 0,-1 4,0 c 1.105,0 2,-0.895 2,-2 l 1,0 c 1.105,0 2,0.896 2,2 l 0,1 C 2,-0.895 1.105,0 0,0" id="path50" style="fill:#fcab40;fill-opacity:1;fill-rule:nonzero;stroke:none"/></g><g id="g52" transform="translate(18,31)"><path d="m 0,0 -5,0 c -1.104,0 -2,-0.895 -2,-2 l 0,-1 4,0 c 1.105,0 2,-0.895 2,-2 l 1,0 c 1.105,0 2,0.896 2,2 l 0,1 C 2,-0.895 1.105,0 0,0" id="path54" style="fill:#5dadec;fill-opacity:1;fill-rule:nonzero;stroke:none"/></g><g id="g56" transform="translate(16,24)"><path d="m 0,0 c 0,-1.104 -0.895,-2 -2,-2 l -5,0 c -1.104,0 -2,0.896 -2,2 l 0,1 c 0,1.105 0.896,2 2,2 l 5,0 C -0.895,3 0,2.105 0,1 L 0,0 Z" id="path58" style="fill:#e75a70;fill-opacity:1;fill-rule:nonzero;stroke:none"/></g><g id="g60" transform="translate(25,8)"><path d="m 0,0 c 0,-1.104 -0.895,-2 -2,-2 l -10.001,0 c -1.104,0 -2,0.896 -2,2 l 0,5 c 0,1.105 0.896,2 2,2 L -2,7 C -0.895,7 0,6.105 0,5 L 0,0 Z" id="path62" style="fill:#67757f;fill-opacity:1;fill-rule:nonzero;stroke:none"/></g><g id="g64" transform="translate(13.9995,12)"><path d="M 0,0 Z" id="path66" style="fill:#67757f;fill-opacity:1;fill-rule:nonzero;stroke:none"/></g><g id="g68" transform="translate(23,9)"><path d="m 0,0 c 0,-0.553 -0.447,-1 -1,-1 l -8.001,0 c -0.552,0 -1,0.447 -1,1 l 0,3 c 0,0.553 0.448,1 1,1 L -1,4 C -0.447,4 0,3.553 0,3 L 0,0 Z" id="path70" style="fill:#e1e8ed;fill-opacity:1;fill-rule:nonzero;stroke:none"/></g></g></g></g></svg>