<?xml version="1.0" encoding="UTF-8" standalone="no"?><svg xmlns="http://www.w3.org/2000/svg" xmlns:cc="http://creativecommons.org/ns#" xmlns:dc="http://purl.org/dc/elements/1.1/" xmlns:rdf="http://www.w3.org/1999/02/22-rdf-syntax-ns#" xmlns:svg="http://www.w3.org/2000/svg" height="45" id="svg2" style="enable-background:new 0 0 45 45;" version="1.1" viewBox="0 0 45 45" width="45" xml:space="preserve"><metadata id="metadata8"><rdf:RDF><cc:Work rdf:about=""><dc:format>image/svg+xml</dc:format><dc:type rdf:resource="http://purl.org/dc/dcmitype/StillImage"/></cc:Work></rdf:RDF></metadata><defs id="defs6"><clipPath clipPathUnits="userSpaceOnUse" id="clipPath16"><path d="M 0,36 36,36 36,0 0,0 0,36 Z" id="path18"/></clipPath></defs><g id="g10" transform="matrix(1.25,0,0,-1.25,0,45)"><g id="g12"><g clip-path="url(#clipPath16)" id="g14"><g id="g20" transform="translate(30,2)"><path d="m 0,0 c 0,-1.105 -0.895,-2 -2,-2 l -20,0 c -1.104,0 -2,0.895 -2,2 l 0,32 c 0,1.104 0.896,2 2,2 l 20,0 c 1.105,0 2,-0.896 2,-2 L 0,0 Z" id="path22" style="fill:#292f33;fill-opacity:1;fill-rule:nonzero;stroke:none"/></g><g id="g24" transform="translate(28,20)"><path d="m 0,0 c 0,-0.552 -0.447,-1 -1,-1 l -18,0 c -0.552,0 -1,0.448 -1,1 l 0,13 c 0,0.552 0.448,1 1,1 l 18,0 c 0.553,0 1,-0.448 1,-1 L 0,0 Z" id="path26" style="fill:#66757f;fill-opacity:1;fill-rule:nonzero;stroke:none"/></g><g id="g28" transform="translate(28,3)"><path d="m 0,0 c 0,-0.553 -0.447,-1 -1,-1 l -18,0 c -0.552,0 -1,0.447 -1,1 l 0,13 c 0,0.553 0.448,1 1,1 l 18,0 c 0.553,0 1,-0.447 1,-1 L 0,0 Z" id="path30" style="fill:#66757f;fill-opacity:1;fill-rule:nonzero;stroke:none"/></g><g id="g32" transform="translate(22,28)"><path d="m 0,0 c 0,-0.552 -0.447,-1 -1,-1 l -6,0 c -0.552,0 -1,0.448 -1,1 l 0,3 c 0,0.552 0.448,1 1,1 l 6,0 C -0.447,4 0,3.552 0,3 L 0,0 Z" id="path34" style="fill:#292f33;fill-opacity:1;fill-rule:nonzero;stroke:none"/></g><g id="g36" transform="translate(22,11)"><path d="m 0,0 c 0,-0.553 -0.447,-1 -1,-1 l -6,0 c -0.552,0 -1,0.447 -1,1 l 0,3 c 0,0.553 0.448,1 1,1 l 6,0 C -0.447,4 0,3.553 0,3 L 0,0 Z" id="path38" style="fill:#292f33;fill-opacity:1;fill-rule:nonzero;stroke:none"/></g><path d="m 21,28 -6,0 0,3 6,0 0,-3 z" id="path40" style="fill:#e1e8ed;fill-opacity:1;fill-rule:nonzero;stroke:none"/><path d="m 21,11 -6,0 0,3 6,0 0,-3 z" id="path42" style="fill:#e1e8ed;fill-opacity:1;fill-rule:nonzero;stroke:none"/><g id="g44" transform="translate(24,22.9702)"><path d="m 0,0 c 0,-0.536 -0.435,-0.97 -0.97,-0.97 l -10.06,0 C -11.566,-0.97 -12,-0.536 -12,0 l 0,0.06 c 0,0.535 0.434,0.97 0.97,0.97 l 10.06,0 C -0.435,1.03 0,0.595 0,0.06 L 0,0 Z" id="path46" style="fill:#e1e8ed;fill-opacity:1;fill-rule:nonzero;stroke:none"/></g><g id="g48" transform="translate(24,5.9707)"><path d="m 0,0 c 0,-0.536 -0.435,-0.971 -0.97,-0.971 l -10.06,0 C -11.566,-0.971 -12,-0.536 -12,0 l 0,0.059 c 0,0.536 0.434,0.97 0.97,0.97 l 10.06,0 C -0.435,1.029 0,0.595 0,0.059 L 0,0 Z" id="path50" style="fill:#e1e8ed;fill-opacity:1;fill-rule:nonzero;stroke:none"/></g></g></g></g></svg>