<?xml version="1.0" encoding="UTF-8" standalone="no"?><svg xmlns="http://www.w3.org/2000/svg" xmlns:cc="http://creativecommons.org/ns#" xmlns:dc="http://purl.org/dc/elements/1.1/" xmlns:rdf="http://www.w3.org/1999/02/22-rdf-syntax-ns#" xmlns:svg="http://www.w3.org/2000/svg" height="45" id="svg2" style="enable-background:new 0 0 45 45;" version="1.1" viewBox="0 0 45 45" width="45" xml:space="preserve"><metadata id="metadata8"><rdf:RDF><cc:Work rdf:about=""><dc:format>image/svg+xml</dc:format><dc:type rdf:resource="http://purl.org/dc/dcmitype/StillImage"/></cc:Work></rdf:RDF></metadata><defs id="defs6"><clipPath clipPathUnits="userSpaceOnUse" id="clipPath16"><path d="M 0,36 36,36 36,0 0,0 0,36 Z" id="path18"/></clipPath></defs><g id="g10" transform="matrix(1.25,0,0,-1.25,0,45)"><g id="g12"><g clip-path="url(#clipPath16)" id="g14"><g id="g20" transform="translate(34.7236,6.3439)"><path d="m 0,0 c -1.239,0.01 -1.241,-1.205 -1.241,-1.205 l -5.396,0 -9.087,0 -0.5,0 c -5.246,0 -9.5,4.254 -9.5,9.5 0,5.246 4.254,9.5 9.5,9.5 5.246,0 9.5,-4.254 9.5,-9.5 0,-3.063 -1.599,-5.898 -3.851,-7.633 l 5.434,0 c 1.44,2.146 2.417,4.856 2.417,7.633 0,7.455 -6.045,13.5 -13.5,13.5 -7.455,0 -13.5,-6.045 -13.5,-13.5 0,-7.455 6.045,-13.5 13.5,-13.5 l 0.5,0 14.483,0 c 0,0 -0.003,-1.127 1.241,-1.139 1.238,-0.011 1.228,1.245 1.228,1.245 l 0.013,3.822 c 0,0 10e-4,1.266 -1.241,1.277" id="path22" style="fill:#ffac33;fill-opacity:1;fill-rule:nonzero;stroke:none"/></g><g id="g24" transform="translate(5,21.7397)"><path d="M 0,0 C 1.014,1.831 2.378,3.438 4,4.739 L 4,5.26 c 0,5 5,7 5,8 0,1 -1,1 -1,1 l -12,0 c -1,0 -1,-1 -1,-1 0,-1 5,-3.333 5,-7.69 L 0,0 Z" id="path26" style="fill:#ffac33;fill-opacity:1;fill-rule:nonzero;stroke:none"/></g><g id="g28" transform="translate(13.0913,6.8341)"><path d="m 0,0 c -2.471,1.716 -4.091,4.569 -4.091,7.805 0,0.308 0.017,0.613 0.046,0.915 L -8.022,9.181 C -8.068,8.729 -8.091,8.27 -8.091,7.805 c 0,-4.573 2.28,-8.609 5.76,-11.051 L 0,0 Z" id="path30" style="fill:#be1931;fill-opacity:1;fill-rule:nonzero;stroke:none"/></g><g id="g32" transform="translate(6,10.0763)"><path d="m 0,0 c 0,0 -5.187,0.812 -5,-1 0.188,-1.813 5,1 5,1" id="path34" style="fill:#be1931;fill-opacity:1;fill-rule:nonzero;stroke:none"/></g><g id="g36" transform="translate(6,9.7638)"><path d="M 0,0 C 0,0 -4.125,-2.688 -2.938,-3.75 -1.75,-4.812 0,0 0,0" id="path38" style="fill:#be1931;fill-opacity:1;fill-rule:nonzero;stroke:none"/></g></g></g></g></svg>