<?xml version="1.0" encoding="UTF-8" standalone="no"?><svg xmlns="http://www.w3.org/2000/svg" xmlns:cc="http://creativecommons.org/ns#" xmlns:dc="http://purl.org/dc/elements/1.1/" xmlns:rdf="http://www.w3.org/1999/02/22-rdf-syntax-ns#" xmlns:svg="http://www.w3.org/2000/svg" height="45" id="svg2" style="enable-background:new 0 0 45 45;" version="1.1" viewBox="0 0 45 45" width="45" xml:space="preserve"><metadata id="metadata8"><rdf:RDF><cc:Work rdf:about=""><dc:format>image/svg+xml</dc:format><dc:type rdf:resource="http://purl.org/dc/dcmitype/StillImage"/></cc:Work></rdf:RDF></metadata><defs id="defs6"><clipPath clipPathUnits="userSpaceOnUse" id="clipPath16"><path d="M 0,36 36,36 36,0 0,0 0,36 Z" id="path18"/></clipPath></defs><g id="g10" transform="matrix(1.25,0,0,-1.25,0,45)"><g id="g12"><g clip-path="url(#clipPath16)" id="g14"><g id="g20" transform="translate(36,18)"><path d="m 0,0 c 0,-9.941 -8.059,-18 -18,-18 -9.941,0 -18,8.059 -18,18 0,9.941 8.059,18 18,18 C -8.059,18 0,9.941 0,0" id="path22" style="fill:#292f33;fill-opacity:1;fill-rule:nonzero;stroke:none"/></g><g id="g24" transform="translate(8.8955,2.4912)"><path d="m 0,0 c 0.7,-0.412 1.421,-0.79 2.178,-1.106 l 6.576,14.615 -1.419,0 L 0,0 Z" id="path26" style="fill:#808285;fill-opacity:1;fill-rule:nonzero;stroke:none"/></g><g id="g28" transform="translate(19.7695,16)"><path d="m 0,0 -1.42,0 6.577,-14.615 c 0.756,0.316 1.478,0.694 2.178,1.106 L 0,0 Z" id="path30" style="fill:#808285;fill-opacity:1;fill-rule:nonzero;stroke:none"/></g><path d="m 13.999,10 -2,0 0,-2 2,0 0,2 z" id="path32" style="fill:#58595b;fill-opacity:1;fill-rule:nonzero;stroke:none"/><path d="m 24,10 -2,0 0,-2 2,0 0,2 z" id="path34" style="fill:#58595b;fill-opacity:1;fill-rule:nonzero;stroke:none"/><g id="g36" transform="translate(26,11)"><path d="m 0,0 c 0,-1.104 -0.895,-2 -2,-2 l -12,0 c -1.104,0 -2,0.896 -2,2 l 0,2 c 0,1.105 0.896,2 2,2 L -2,4 C -0.895,4 0,3.105 0,2 L 0,0 Z" id="path38" style="fill:#a7a9ac;fill-opacity:1;fill-rule:nonzero;stroke:none"/></g><g id="g40" transform="translate(24.3633,30)"><path d="m 0,0 -12.727,0 c -2.008,0 -3.636,-1.628 -3.636,-3.636 l 0,-9.364 0,-3 0,-1 c 0,-1.104 0.895,-2 2,-2 l 16,0 c 1.104,0 2,0.896 2,2 l 0,1 0,3 0,9.364 C 3.637,-1.628 2.009,0 0,0" id="path42" style="fill:#d1d3d4;fill-opacity:1;fill-rule:nonzero;stroke:none"/></g><g id="g44" transform="translate(8,17)"><path d="m 0,0 0,-3 0,-1 c 0,-1.104 0.896,-2 2,-2 l 16,0 c 1.105,0 2,0.896 2,2 l 0,1 0,3 0,4 L 0,4 0,0 Z" id="path46" style="fill:#dd2e44;fill-opacity:1;fill-rule:nonzero;stroke:none"/></g><g id="g48" transform="translate(26,19)"><path d="m 0,0 c 0,-1.104 -0.895,-2 -2,-2 l -12,0 c -1.104,0 -2,0.896 -2,2 l 0,7 c 0,1.104 0.896,2 2,2 L -2,9 C -0.895,9 0,8.104 0,7 L 0,0 Z" id="path50" style="fill:#58595b;fill-opacity:1;fill-rule:nonzero;stroke:none"/></g><g id="g52" transform="translate(24,20)"><path d="m 0,0 c 0,-0.552 -0.447,-1 -1,-1 l -10,0 c -0.552,0 -1,0.448 -1,1 l 0,5 c 0,0.552 0.448,1 1,1 L -1,6 C -0.447,6 0,5.552 0,5 L 0,0 Z" id="path54" style="fill:#55acee;fill-opacity:1;fill-rule:nonzero;stroke:none"/></g><path d="m 14,13 -4,0 0,2 4,0 0,-2 z" id="path56" style="fill:#ffd983;fill-opacity:1;fill-rule:nonzero;stroke:none"/><path d="m 26,13 -4,0 0,2 4,0 0,-2 z" id="path58" style="fill:#ffd983;fill-opacity:1;fill-rule:nonzero;stroke:none"/><g id="g60" transform="translate(20,27)"><path d="m 0,0 c 0,-0.552 -0.447,-1 -1,-1 l -2,0 c -0.552,0 -1,0.448 -1,1 0,0.552 0.448,1 1,1 l 2,0 C -0.447,1 0,0.552 0,0" id="path62" style="fill:#808285;fill-opacity:1;fill-rule:nonzero;stroke:none"/></g></g></g></g></svg>