<?xml version="1.0" encoding="UTF-8" standalone="no"?><svg xmlns="http://www.w3.org/2000/svg" xmlns:cc="http://creativecommons.org/ns#" xmlns:dc="http://purl.org/dc/elements/1.1/" xmlns:rdf="http://www.w3.org/1999/02/22-rdf-syntax-ns#" xmlns:svg="http://www.w3.org/2000/svg" height="45" id="svg2" style="enable-background:new 0 0 45 45;" version="1.1" viewBox="0 0 45 45" width="45" xml:space="preserve"><metadata id="metadata8"><rdf:RDF><cc:Work rdf:about=""><dc:format>image/svg+xml</dc:format><dc:type rdf:resource="http://purl.org/dc/dcmitype/StillImage"/></cc:Work></rdf:RDF></metadata><defs id="defs6"><clipPath clipPathUnits="userSpaceOnUse" id="clipPath22"><path d="M 0,36 36,36 36,0 0,0 0,36 Z" id="path24"/></clipPath></defs><g id="g10" transform="matrix(1.25,0,0,-1.25,0,45)"><path d="m 14,0 2,0 0,29 -2,0 0,-29 z" id="path12" style="fill:#6d6e71;fill-opacity:1;fill-rule:nonzero;stroke:none"/><path d="m 18,15 -3,0 0,2 3,0 0,-2 z" id="path14" style="fill:#6d6e71;fill-opacity:1;fill-rule:nonzero;stroke:none"/><path d="m 18,21 -3,0 0,2 3,0 0,-2 z" id="path16" style="fill:#6d6e71;fill-opacity:1;fill-rule:nonzero;stroke:none"/><g id="g18"><g clip-path="url(#clipPath22)" id="g20"><g id="g26" transform="translate(29,12)"><path d="m 0,0 c 0,-0.553 -0.447,-1 -1,-1 l -9,0 c -0.553,0 -1,0.447 -1,1 l 0,14 c 0,0.552 0.447,1 1,1 l 9,0 c 0.553,0 1,-0.448 1,-1 L 0,0 Z" id="path28" style="fill:#bcbec0;fill-opacity:1;fill-rule:nonzero;stroke:none"/></g><g id="g30" transform="translate(29,23)"><path d="m 0,0 0,3 c 0,0.552 -0.447,1 -1,1 l -9,0 c -0.553,0 -1,-0.448 -1,-1 l 0,-3 11,0 z" id="path32" style="fill:#be1931;fill-opacity:1;fill-rule:nonzero;stroke:none"/></g><g id="g34" transform="translate(21,2)"><path d="m 0,0 -12,0 -1,-1 0,-1 14,0 0,1 -1,1 z" id="path36" style="fill:#6d6e71;fill-opacity:1;fill-rule:nonzero;stroke:none"/></g><g id="g38" transform="translate(19,4)"><path d="m 0,0 -8,0 -1,-1 0,-1 10,0 0,1 -1,1 z" id="path40" style="fill:#6d6e71;fill-opacity:1;fill-rule:nonzero;stroke:none"/></g><g id="g42" transform="translate(11,32)"><path d="M 0,0 C 0,2.209 1.791,4 4,4 6.209,4 8,2.209 8,0 8,-2.209 6.209,-4 4,-4 1.791,-4 0,-2.209 0,0" id="path44" style="fill:#be1931;fill-opacity:1;fill-rule:nonzero;stroke:none"/></g><path d="m 23,20 -3,0 0,3 3,0 0,-3 z" id="path46" style="fill:#808285;fill-opacity:1;fill-rule:nonzero;stroke:none"/><path d="m 23,16 -3,0 0,3 3,0 0,-3 z" id="path48" style="fill:#f4900c;fill-opacity:1;fill-rule:nonzero;stroke:none"/><path d="m 23,12 -3,0 0,3 3,0 0,-3 z" id="path50" style="fill:#f4900c;fill-opacity:1;fill-rule:nonzero;stroke:none"/><path d="m 27,20 -3,0 0,3 3,0 0,-3 z" id="path52" style="fill:#808285;fill-opacity:1;fill-rule:nonzero;stroke:none"/><path d="m 27,16 -3,0 0,3 3,0 0,-3 z" id="path54" style="fill:#808285;fill-opacity:1;fill-rule:nonzero;stroke:none"/><path d="m 27,12 -3,0 0,3 3,0 0,-3 z" id="path56" style="fill:#f4900c;fill-opacity:1;fill-rule:nonzero;stroke:none"/><path d="m 17,30 -4,0 0,4 4,0 0,-4 z" id="path58" style="fill:#dd2e44;fill-opacity:1;fill-rule:nonzero;stroke:none"/><path d="m 27,24 -7,0 0,2 7,0 0,-2 z" id="path60" style="fill:#dd2e44;fill-opacity:1;fill-rule:nonzero;stroke:none"/></g></g></g></svg>