<?xml version="1.0" encoding="UTF-8" standalone="no"?><svg xmlns="http://www.w3.org/2000/svg" xmlns:cc="http://creativecommons.org/ns#" xmlns:dc="http://purl.org/dc/elements/1.1/" xmlns:rdf="http://www.w3.org/1999/02/22-rdf-syntax-ns#" xmlns:svg="http://www.w3.org/2000/svg" height="45" id="svg2" style="enable-background:new 0 0 45 45;" version="1.1" viewBox="0 0 45 45" width="45" xml:space="preserve"><metadata id="metadata8"><rdf:RDF><cc:Work rdf:about=""><dc:format>image/svg+xml</dc:format><dc:type rdf:resource="http://purl.org/dc/dcmitype/StillImage"/></cc:Work></rdf:RDF></metadata><defs id="defs6"><clipPath clipPathUnits="userSpaceOnUse" id="clipPath16"><path d="M 0,36 36,36 36,0 0,0 0,36 Z" id="path18"/></clipPath><clipPath clipPathUnits="userSpaceOnUse" id="clipPath28"><path d="M 4,36 C 4,36 0,36 0,32 L 0,32 0,4 C 0,0 4,0 4,0 l 0,0 28,0 c 4,0 4,4 4,4 l 0,0 0,28 c 0,0 0,4 -4,4 l 0,0 -28,0 z" id="path30"/></clipPath><clipPath clipPathUnits="userSpaceOnUse" id="clipPath44"><path d="M 0,15 0,4 C 0,0 4,0 4,0 l 0,0 28,0 c 4,0 4,4 4,4 l 0,0 0,3 c 0,0 -7,4 -13,10 l 0,0 c -4.491,4.49 -8,10 -10,10 l 0,0 C 11,27 4,18 0,15" id="path46"/></clipPath></defs><g id="g10" transform="matrix(1.25,0,0,-1.25,0,45)"><g id="g12"><g clip-path="url(#clipPath16)" id="g14"><g id="g20" transform="translate(36,4)"><path d="m 0,0 c 0,0 0,-4 -4,-4 l -28,0 c 0,0 -4,0 -4,4 l 0,28 c 0,4 4,4 4,4 l 28,0 c 4,0 4,-4 4,-4 L 0,0 Z" id="path22" style="fill:#88c9f9;fill-opacity:1;fill-rule:nonzero;stroke:none"/></g></g></g><g id="g24"><g clip-path="url(#clipPath28)" id="g26"><g id="g32" transform="translate(16,12)"><path d="m 0,0 c 7,4 11,10 13,10 2,0 4,-4 7,-6 1.667,-1.111 0,-20 0,-20 l -36,0 c 0,0 -6.454,4.387 0,6 4,1 9.219,6.125 16,10" id="path34" style="fill:#4b545c;fill-opacity:1;fill-rule:nonzero;stroke:none"/></g><g id="g36" transform="translate(0,15)"><path d="M 0,0 C 4,3 11,12 13,12 15,12 18.51,6.49 23,2 29,-4 36,-8 36,-8 l 0,-11 -36,0 c 0,0 -1.6,17.8 0,19" id="path38" style="fill:#292f33;fill-opacity:1;fill-rule:nonzero;stroke:none"/></g></g></g><g id="g40"><g clip-path="url(#clipPath44)" id="g42"><g id="g48" transform="translate(-1.25,6)"><path d="m 0,0 c 0,0 2.563,-1.5 4.25,-2 1.688,-0.5 4.5,2 5,2 1,0 4,-2 5,-2 2,0 4,1 5,1 1,0 5,-2 6,-2 0.5,0 2.654,2 4,2 1,0 3.5,-1 4,-1 1,0 5,0.749 5,0.833 0,0.084 -1,-6.833 -1,-6.833 L 0.25,-8 0,0 Z" id="path50" style="fill:#5c913b;fill-opacity:1;fill-rule:nonzero;stroke:none"/></g></g></g></g></svg>