<?xml version="1.0" encoding="UTF-8" standalone="no"?><svg xmlns="http://www.w3.org/2000/svg" xmlns:cc="http://creativecommons.org/ns#" xmlns:dc="http://purl.org/dc/elements/1.1/" xmlns:rdf="http://www.w3.org/1999/02/22-rdf-syntax-ns#" xmlns:svg="http://www.w3.org/2000/svg" height="45" id="svg2" style="enable-background:new 0 0 45 45;" version="1.1" viewBox="0 0 45 45" width="45" xml:space="preserve"><metadata id="metadata8"><rdf:RDF><cc:Work rdf:about=""><dc:format>image/svg+xml</dc:format><dc:type rdf:resource="http://purl.org/dc/dcmitype/StillImage"/></cc:Work></rdf:RDF></metadata><defs id="defs6"><clipPath clipPathUnits="userSpaceOnUse" id="clipPath16"><path d="M 0,36 36,36 36,0 0,0 0,36 Z" id="path18"/></clipPath></defs><g id="g10" transform="matrix(1.25,0,0,-1.25,0,45)"><g id="g12"><g clip-path="url(#clipPath16)" id="g14"><g id="g20" transform="translate(0,18)"><path d="m 0,0 c 0,-9.94 8.059,-18 18,-18 9.941,0 18,8.06 18,18 C 36,9.941 27.941,18 18,18 8.059,18 0,9.941 0,0" id="path22" style="fill:#99aab5;fill-opacity:1;fill-rule:nonzero;stroke:none"/></g><g id="g24" transform="translate(4,18)"><path d="m 0,0 c 0,-7.731 6.268,-14 14,-14 7.732,0 14,6.269 14,14 C 28,7.732 21.732,14 14,14 6.268,14 0,7.732 0,0" id="path26" style="fill:#e1e8ed;fill-opacity:1;fill-rule:nonzero;stroke:none"/></g><g id="g28" transform="translate(17,7)"><path d="m 0,0 c 0,-0.553 0.447,-1 1,-1 0.553,0 1,0.447 1,1 L 2,11 C 2,11.552 1.553,12 1,12 0.447,12 0,11.552 0,11 L 0,0 Z" id="path30" style="fill:#66757f;fill-opacity:1;fill-rule:nonzero;stroke:none"/></g><g id="g32" transform="translate(23,9.3389)"><path d="m 0,0 c -0.479,-0.276 -1.09,-0.112 -1.367,0.366 l -4.5,7.795 c -0.276,0.478 -0.112,1.089 0.366,1.365 0.479,0.277 1.09,0.113 1.366,-0.365 l 4.5,-7.795 C 0.642,0.888 0.478,0.276 0,0" id="path34" style="fill:#66757f;fill-opacity:1;fill-rule:nonzero;stroke:none"/></g></g></g></g></svg>