<?xml version="1.0" encoding="UTF-8" standalone="no"?><svg xmlns="http://www.w3.org/2000/svg" xmlns:cc="http://creativecommons.org/ns#" xmlns:dc="http://purl.org/dc/elements/1.1/" xmlns:rdf="http://www.w3.org/1999/02/22-rdf-syntax-ns#" xmlns:svg="http://www.w3.org/2000/svg" height="45" id="svg2" style="enable-background:new 0 0 45 45;" version="1.1" viewBox="0 0 45 45" width="45" xml:space="preserve"><metadata id="metadata8"><rdf:RDF><cc:Work rdf:about=""><dc:format>image/svg+xml</dc:format><dc:type rdf:resource="http://purl.org/dc/dcmitype/StillImage"/></cc:Work></rdf:RDF></metadata><defs id="defs6"><clipPath clipPathUnits="userSpaceOnUse" id="clipPath16"><path d="M 4,31 C 1.791,31 0,29.209 0,27 L 0,27 0,9 C 0,6.791 1.791,5 4,5 l 0,0 28,0 c 2.209,0 4,1.791 4,4 l 0,0 0,18 c 0,2.209 -1.791,4 -4,4 l 0,0 -28,0 z" id="path18"/></clipPath></defs><g id="g10" transform="matrix(1.25,0,0,-1.25,0,45)"><g id="g12"><g clip-path="url(#clipPath16)" id="g14"><path d="M 0,5 36,5 36,13 0,13 0,5 Z" id="path20" style="fill:#1eb53a;fill-opacity:1;fill-rule:nonzero;stroke:none"/><path d="m 0,23 36,0 0,8 -36,0 0,-8 z" id="path22" style="fill:#0099b5;fill-opacity:1;fill-rule:nonzero;stroke:none"/><path d="m 0,21.5 36,0 0,1.5 -36,0 0,-1.5 z" id="path24" style="fill:#ce1126;fill-opacity:1;fill-rule:nonzero;stroke:none"/><path d="m 0,13 36,0 0,1.5 -36,0 0,-1.5 z" id="path26" style="fill:#ce1126;fill-opacity:1;fill-rule:nonzero;stroke:none"/><g id="g28" transform="translate(0,18)"><path d="m 0,0 0,-3.5 36,0 L 36,0 36,3.5 0,3.5 0,0 Z" id="path30" style="fill:#eeeeee;fill-opacity:1;fill-rule:nonzero;stroke:none"/></g><g id="g32" transform="translate(4.2,26.84)"><path d="M 0,0 C 0,1.546 1.125,2.828 2.6,3.076 2.431,3.104 2.257,3.12 2.08,3.12 0.357,3.12 -1.04,1.723 -1.04,0 c 0,-1.723 1.397,-3.12 3.12,-3.12 0.177,0 0.351,0.016 0.52,0.044 C 1.125,-2.828 0,-1.546 0,0" id="path34" style="fill:#ffffff;fill-opacity:1;fill-rule:nonzero;stroke:none"/></g><g id="g36" transform="translate(8.8828,24.5368)"><path d="M 0,0 -0.14,0.431 -0.28,0 -0.734,0 -0.367,-0.266 -0.507,-0.698 -0.14,-0.431 0.227,-0.698 0.087,-0.266 0.453,0 0,0 Z" id="path38" style="fill:#ffffff;fill-opacity:1;fill-rule:nonzero;stroke:none"/></g><g id="g40" transform="translate(11.5854,24.5368)"><path d="M 0,0 -0.14,0.431 -0.28,0 -0.734,0 -0.367,-0.266 -0.507,-0.698 -0.14,-0.431 0.227,-0.698 0.087,-0.266 0.453,0 0,0 Z" id="path42" style="fill:#ffffff;fill-opacity:1;fill-rule:nonzero;stroke:none"/></g><g id="g44" transform="translate(11.4453,27.464)"><path d="m 0,0 -0.14,-0.431 -0.453,0 0.366,-0.267 -0.14,-0.431 0.367,0.267 0.367,-0.267 -0.14,0.431 0.366,0.267 -0.453,0 L 0,0 Z" id="path46" style="fill:#ffffff;fill-opacity:1;fill-rule:nonzero;stroke:none"/></g><g id="g48" transform="translate(14.2881,24.5368)"><path d="M 0,0 -0.14,0.431 -0.28,0 -0.734,0 -0.367,-0.266 -0.507,-0.698 -0.14,-0.431 0.227,-0.698 0.087,-0.266 0.453,0 0,0 Z" id="path50" style="fill:#ffffff;fill-opacity:1;fill-rule:nonzero;stroke:none"/></g><g id="g52" transform="translate(14.148,27.464)"><path d="m 0,0 -0.14,-0.431 -0.453,0 0.366,-0.267 -0.14,-0.431 0.367,0.267 0.367,-0.267 -0.14,0.431 0.366,0.267 -0.453,0 L 0,0 Z" id="path54" style="fill:#ffffff;fill-opacity:1;fill-rule:nonzero;stroke:none"/></g><g id="g56" transform="translate(14.148,29.96)"><path d="m 0,0 -0.14,-0.431 -0.453,0 0.366,-0.267 -0.14,-0.431 0.367,0.267 0.367,-0.267 -0.14,0.431 0.366,0.267 -0.453,0 L 0,0 Z" id="path58" style="fill:#ffffff;fill-opacity:1;fill-rule:nonzero;stroke:none"/></g><g id="g60" transform="translate(16.9907,24.5368)"><path d="M 0,0 -0.14,0.431 -0.28,0 -0.734,0 -0.367,-0.266 -0.507,-0.698 -0.14,-0.431 0.227,-0.698 0.087,-0.266 0.453,0 0,0 Z" id="path62" style="fill:#ffffff;fill-opacity:1;fill-rule:nonzero;stroke:none"/></g><g id="g64" transform="translate(16.8506,27.464)"><path d="m 0,0 -0.14,-0.431 -0.453,0 0.366,-0.267 -0.14,-0.431 0.367,0.267 0.367,-0.267 -0.14,0.431 0.366,0.267 -0.453,0 L 0,0 Z" id="path66" style="fill:#ffffff;fill-opacity:1;fill-rule:nonzero;stroke:none"/></g><g id="g68" transform="translate(16.8506,29.96)"><path d="m 0,0 -0.14,-0.431 -0.453,0 0.366,-0.267 -0.14,-0.431 0.367,0.267 0.367,-0.267 -0.14,0.431 0.366,0.267 -0.453,0 L 0,0 Z" id="path70" style="fill:#ffffff;fill-opacity:1;fill-rule:nonzero;stroke:none"/></g><g id="g72" transform="translate(19.6934,24.5368)"><path d="M 0,0 -0.14,0.431 -0.28,0 -0.734,0 -0.367,-0.266 -0.507,-0.698 -0.14,-0.431 0.227,-0.698 0.087,-0.266 0.453,0 0,0 Z" id="path74" style="fill:#ffffff;fill-opacity:1;fill-rule:nonzero;stroke:none"/></g><g id="g76" transform="translate(19.5533,27.464)"><path d="m 0,0 -0.14,-0.431 -0.453,0 0.366,-0.267 -0.14,-0.431 0.367,0.267 0.367,-0.267 -0.14,0.431 0.366,0.267 -0.453,0 L 0,0 Z" id="path78" style="fill:#ffffff;fill-opacity:1;fill-rule:nonzero;stroke:none"/></g><g id="g80" transform="translate(19.5533,29.96)"><path d="m 0,0 -0.14,-0.431 -0.453,0 0.366,-0.267 -0.14,-0.431 0.367,0.267 0.367,-0.267 -0.14,0.431 0.366,0.267 -0.453,0 L 0,0 Z" id="path82" style="fill:#ffffff;fill-opacity:1;fill-rule:nonzero;stroke:none"/></g></g></g></g></svg>