<?xml version="1.0" encoding="UTF-8" standalone="no"?><svg xmlns="http://www.w3.org/2000/svg" xmlns:cc="http://creativecommons.org/ns#" xmlns:dc="http://purl.org/dc/elements/1.1/" xmlns:rdf="http://www.w3.org/1999/02/22-rdf-syntax-ns#" xmlns:svg="http://www.w3.org/2000/svg" height="45" id="svg2" style="enable-background:new 0 0 45 45;" version="1.1" viewBox="0 0 45 45" width="45" xml:space="preserve"><metadata id="metadata8"><rdf:RDF><cc:Work rdf:about=""><dc:format>image/svg+xml</dc:format><dc:type rdf:resource="http://purl.org/dc/dcmitype/StillImage"/></cc:Work></rdf:RDF></metadata><defs id="defs6"><clipPath clipPathUnits="userSpaceOnUse" id="clipPath16"><path d="M 0,36 36,36 36,0 0,0 0,36 Z" id="path18"/></clipPath></defs><g id="g10" transform="matrix(1.25,0,0,-1.25,0,45)"><g id="g12"><g clip-path="url(#clipPath16)" id="g14"><g id="g20" transform="translate(36,9)"><path d="m 0,0 c 0,-2.209 -1.791,-4 -4,-4 l -28,0 c -2.209,0 -4,1.791 -4,4 l 0,18 c 0,2.209 1.791,4 4,4 l 28,0 c 2.209,0 4,-1.791 4,-4 L 0,0 Z" id="path22" style="fill:#fce100;fill-opacity:1;fill-rule:nonzero;stroke:none"/></g><path d="M 36,13 0,13 0,23 36,23 36,13 Z" id="path24" style="fill:#141414;fill-opacity:1;fill-rule:nonzero;stroke:none"/><g id="g26" transform="translate(32,31)"><path d="m 0,0 -28,0 c -2.209,0 -4,-1.791 -4,-4 l 0,-4 36,0 0,4 C 4,-1.791 2.209,0 0,0" id="path28" style="fill:#007168;fill-opacity:1;fill-rule:nonzero;stroke:none"/></g><path d="m 36,22 -36,0 0,1 36,0 0,-1 z" id="path30" style="fill:#eeeeee;fill-opacity:1;fill-rule:nonzero;stroke:none"/><path d="m 36,13 -36,0 0,1 36,0 0,-1 z" id="path32" style="fill:#eeeeee;fill-opacity:1;fill-rule:nonzero;stroke:none"/><g id="g34" transform="translate(1.313,6.0547)"><path d="M 0,0 15.719,11.881 0.017,23.904 c -0.811,-0.732 -1.33,-1.78 -1.33,-2.959 l 0,-18 C -1.313,1.774 -0.801,0.731 0,0" id="path36" style="fill:#dd2e44;fill-opacity:1;fill-rule:nonzero;stroke:none"/></g><g id="g38" transform="translate(9.478,12.9385)"><path d="M 0,0 -3.271,2.395 -6.537,0 -5.27,3.851 -8.558,6.216 -4.504,6.202 -3.27,10.059 -2.03,6.199 2.02,6.217 -1.269,3.847 0,0 Z" id="path40" style="fill:#fce100;fill-opacity:1;fill-rule:nonzero;stroke:none"/></g><g id="g42" transform="translate(3.3687,15.2979)"><path d="M 0,0 2.356,0 C 2.546,-0.213 2.969,-0.3 3.372,0.002 4.11,0.406 5.539,0 5.539,0 L 5.82,0.299 5.135,2.549 4.889,2.813 c 0,0 -0.529,0.317 -1.531,0.211 C 2.356,2.918 2.005,3.06 2.005,3.06 2.005,3.06 1.125,2.954 0.879,2.831 0.852,2.809 0.598,2.549 0.598,2.549 L 0,0 Z" id="path44" style="fill:#141414;fill-opacity:1;fill-rule:nonzero;stroke:none"/></g><g id="g46" transform="translate(3.3687,15.624)"><path d="M 0,0 2.356,0 C 2.546,-0.213 2.969,-0.3 3.372,0.002 4.11,0.406 5.539,0 5.539,0 L 5.82,0.299 5.135,2.549 4.889,2.813 c 0,0 -0.529,0.317 -1.531,0.211 C 2.356,2.919 2.005,3.06 2.005,3.06 2.005,3.06 1.125,2.954 0.879,2.831 0.852,2.809 0.598,2.549 0.598,2.549 L 0,0 Z" id="path48" style="fill:#ffffff;fill-opacity:1;fill-rule:nonzero;stroke:none"/></g><g id="g50" transform="translate(2.2134,18.9878)"><path d="M 0,0 1.262,1.851 2.035,1.727 2.482,2.188 4.022,0.299 5.259,1.178 6.016,1.809 6.47,1.53 8.077,2.566 6.624,1.204 5.419,0.348 4.459,-0.084 7.701,-3.906 7.278,-4.207 4.187,-0.457 3.185,-1.262 4.501,-1.683 4.459,-2.314 2.61,-1.804 2.692,-3.113 2.265,-3.298 1.887,-2.543 0.252,-4.46 l -0.588,1.01 1.851,1.557 0.042,0.547 1.009,0.925 0.295,0.043 0.841,0.336 -1.262,1.346 -1.686,-2.352 -0.723,0.87" id="path52" style="fill:#141414;fill-opacity:1;fill-rule:nonzero;stroke:none"/></g></g></g></g></svg>