<?xml version="1.0" encoding="UTF-8" standalone="no"?><svg xmlns="http://www.w3.org/2000/svg" xmlns:cc="http://creativecommons.org/ns#" xmlns:dc="http://purl.org/dc/elements/1.1/" xmlns:rdf="http://www.w3.org/1999/02/22-rdf-syntax-ns#" xmlns:svg="http://www.w3.org/2000/svg" height="45" id="svg2" style="enable-background:new 0 0 45 45;" version="1.1" viewBox="0 0 45 45" width="45" xml:space="preserve"><metadata id="metadata8"><rdf:RDF><cc:Work rdf:about=""><dc:format>image/svg+xml</dc:format><dc:type rdf:resource="http://purl.org/dc/dcmitype/StillImage"/></cc:Work></rdf:RDF></metadata><defs id="defs6"><clipPath clipPathUnits="userSpaceOnUse" id="clipPath16"><path d="M 0,36 36,36 36,0 0,0 0,36 Z" id="path18"/></clipPath><clipPath clipPathUnits="userSpaceOnUse" id="clipPath32"><path d="M 24.83,30.529 14.333,29.201 C 11.435,28.834 9.382,25.591 9.748,21.96 l 0,0 1.329,-13.156 c 0.366,-3.632 3.738,-6.186 5.912,-5.912 l 0,0 c 3.394,0.427 14.179,17.472 13.753,21.724 l 0,0 c -0.396,3.922 -2.632,5.955 -5.254,5.955 l 0,0 c -0.217,0 -0.437,-0.014 -0.658,-0.042" id="path34"/></clipPath><clipPath clipPathUnits="userSpaceOnUse" id="clipPath44"><path d="M 0,36 36,36 36,0 0,0 0,36 Z" id="path46"/></clipPath><clipPath clipPathUnits="userSpaceOnUse" id="clipPath56"><path d="M 16.667,34.227 8.878,33.242 C 6.729,32.969 5.206,30.562 5.477,27.869 l 0,0 0.985,-9.758 c 0.273,-2.696 2.776,-4.591 4.388,-4.39 l 0,0 c 2.518,0.32 10.522,12.965 10.204,16.119 l 0,0 c -0.294,2.911 -1.951,4.418 -3.897,4.418 l 0,0 c -0.162,0 -0.325,-0.01 -0.49,-0.031" id="path58"/></clipPath><clipPath clipPathUnits="userSpaceOnUse" id="clipPath68"><path d="M 0,36 36,36 36,0 0,0 0,36 Z" id="path70"/></clipPath></defs><g id="g10" transform="matrix(1.25,0,0,-1.25,0,45)"><g id="g12"><g clip-path="url(#clipPath16)" id="g14"><g id="g20" transform="translate(29.0488,28.9673)"><path d="m 0,0 c 4.423,-4.424 5.71,-21.367 1.289,-25.788 -4.425,-4.424 -12.184,-3.783 -16.607,0.64 -2.979,2.979 -3.834,10.952 0.589,15.377 C -10.305,-5.35 -4.423,4.423 0,0" id="path22" style="fill:#ccd6dd;fill-opacity:1;fill-rule:nonzero;stroke:none"/></g><g id="g24" transform="translate(16.9897,2.8916)"><path d="m 0,0 c -2.175,-0.273 -5.546,2.28 -5.913,5.912 l -1.329,13.157 c -0.366,3.63 1.687,6.873 4.586,7.24 L 7.84,27.637 c 2.898,0.365 5.483,-1.666 5.913,-5.912 C 14.178,17.473 3.393,0.428 0,0" id="path26" style="fill:#ccd6dd;fill-opacity:1;fill-rule:nonzero;stroke:none"/></g></g></g><g id="g28"><g clip-path="url(#clipPath32)" id="g30"><g id="g36" transform="translate(10.3491,9.5322)"><path d="m 0,0 c -2.174,-0.274 -5.548,2.282 -5.915,5.914 l -1.327,13.154 c -0.367,3.632 1.686,6.875 4.584,7.243 L 7.84,27.638 c 2.898,0.366 5.483,-1.665 5.913,-5.911 C 14.18,17.473 3.393,0.428 0,0" id="path38" style="fill:#99aab5;fill-opacity:1;fill-rule:nonzero;stroke:none"/></g></g></g><g id="g40"><g clip-path="url(#clipPath44)" id="g42"><g id="g48" transform="translate(10.8501,13.7217)"><path d="m 0,0 c -1.613,-0.202 -4.115,1.693 -4.388,4.389 l -0.985,9.758 c -0.272,2.694 1.252,5.1 3.402,5.374 l 7.788,0.984 C 7.968,20.777 9.886,19.271 10.204,16.119 10.522,12.964 2.518,0.319 0,0" id="path50" style="fill:#ccd6dd;fill-opacity:1;fill-rule:nonzero;stroke:none"/></g></g></g><g id="g52"><g clip-path="url(#clipPath56)" id="g54"><g id="g60" transform="translate(5.3511,19.2207)"><path d="m 0,0 c -1.612,-0.204 -4.114,1.693 -4.387,4.387 l -0.985,9.759 c -0.272,2.695 1.251,5.101 3.401,5.374 l 7.788,0.984 C 7.968,20.777 9.886,19.272 10.205,16.118 10.522,12.962 2.518,0.318 0,0" id="path62" style="fill:#99aab5;fill-opacity:1;fill-rule:nonzero;stroke:none"/></g></g></g><g id="g64"><g clip-path="url(#clipPath68)" id="g66"><g id="g72" transform="translate(6.2471,23.1943)"><path d="m 0,0 c -0.993,-0.125 -2.533,1.044 -2.701,2.702 l -0.606,6.006 c -0.167,1.659 0.77,3.14 2.093,3.308 l 4.795,0.606 C 4.905,12.79 6.084,11.863 6.28,9.923 6.477,7.98 1.548,0.198 0,0" id="path74" style="fill:#ccd6dd;fill-opacity:1;fill-rule:nonzero;stroke:none"/></g><g id="g76" transform="translate(30.6094,21.6035)"><path d="m 0,0 c 0.801,-2.371 1.545,-11.57 -1.532,-15.543 -3.079,-3.972 -8.043,1.389 -5.312,6.205 C -4.114,-4.523 -0.809,2.396 0,0" id="path78" style="fill:#66757f;fill-opacity:1;fill-rule:nonzero;stroke:none"/></g></g></g></g></svg>