<?xml version="1.0" encoding="UTF-8" standalone="no"?><svg xmlns="http://www.w3.org/2000/svg" xmlns:cc="http://creativecommons.org/ns#" xmlns:dc="http://purl.org/dc/elements/1.1/" xmlns:rdf="http://www.w3.org/1999/02/22-rdf-syntax-ns#" xmlns:svg="http://www.w3.org/2000/svg" height="45" id="svg2" style="enable-background:new 0 0 45 45;" version="1.1" viewBox="0 0 45 45" width="45" xml:space="preserve"><metadata id="metadata8"><rdf:RDF><cc:Work rdf:about=""><dc:format>image/svg+xml</dc:format><dc:type rdf:resource="http://purl.org/dc/dcmitype/StillImage"/></cc:Work></rdf:RDF></metadata><defs id="defs6"><clipPath clipPathUnits="userSpaceOnUse" id="clipPath16"><path d="M 0,36 36,36 36,0 0,0 0,36 Z" id="path18"/></clipPath></defs><g id="g10" transform="matrix(1.25,0,0,-1.25,0,45)"><g id="g12"><g clip-path="url(#clipPath16)" id="g14"><g id="g20" transform="translate(26,18)"><path d="m 0,0 0,-2 -12.707,0 c -0.867,0 -1.835,-0.895 -2.161,-2 l -3.542,-12 c -0.326,-1.105 0.306,-2 1.41,-2 l 18,0 c 1.105,0 2,0.895 2,2 l 0,9 0,1 c 0,1.861 1.278,3.412 3,3.858 L 6,0 0,0 Z" id="path22" style="fill:#aab8c2;fill-opacity:1;fill-rule:nonzero;stroke:none"/></g><g id="g24" transform="translate(22,14.125)"><path d="m 0,0 c 0,-3.52 -4.477,-7.125 -10,-7.125 -5.523,0 -10,3.605 -10,7.125 0,1.875 0.833,1.875 10,1.875 9.166,0 10,0 10,-1.875" id="path26" style="fill:#e1e8ed;fill-opacity:1;fill-rule:nonzero;stroke:none"/></g><g id="g28" transform="translate(25,17)"><path d="m 0,0 c 0,-0.553 -0.514,-1 -1.15,-1 l -20.7,0 c -0.635,0 -1.15,0.447 -1.15,1 0,0.553 0.515,1 1.15,1 l 20.7,0 C -0.514,1 0,0.553 0,0" id="path30" style="fill:#e1e8ed;fill-opacity:1;fill-rule:nonzero;stroke:none"/></g><g id="g32" transform="translate(18,20)"><path d="m 0,0 -12,0 c -1.104,0 -2,-0.895 -2,-2 L 2,-2 C 2,-0.895 1.105,0 0,0" id="path34" style="fill:#99aab5;fill-opacity:1;fill-rule:nonzero;stroke:none"/></g><g id="g36" transform="translate(20,36)"><path d="m 0,0 0,-18 c 1.105,0 2,1.007 2,2.25 l 0,13.5 C 2,-1.007 1.105,0 0,0" id="path38" style="fill:#99aab5;fill-opacity:1;fill-rule:nonzero;stroke:none"/></g><g id="g40" transform="translate(34,32)"><path d="m 0,0 c 0,1.104 -0.895,2 -2,2 l -8,0 c -1.104,0 -2,-0.896 -2,-2 l 0,-1 0,-13 c 0,-1.104 0.896,-2 2,-2 l 8,0 c 1.105,0 2,0.896 2,2 l 0,13 0,1 z" id="path42" style="fill:#e1e8ed;fill-opacity:1;fill-rule:nonzero;stroke:none"/></g><g id="g44" transform="translate(22,20)"><path d="m 0,0 c 0,-1.104 -0.895,-2 -2,-2 -1.104,0 -2,0.896 -2,2 0,1.105 0.896,2 2,2 1.105,0 2,-0.895 2,-2" id="path46" style="fill:#ccd6dd;fill-opacity:1;fill-rule:nonzero;stroke:none"/></g><path d="m 34,30 -12,0 0,2 12,0 0,-2 z" id="path48" style="fill:#ccd6dd;fill-opacity:1;fill-rule:nonzero;stroke:none"/><g id="g50" transform="translate(25,15)"><path d="m 0,0 c 0,-0.553 -0.447,-1 -1,-1 l -21,0 c -0.552,0 -1,0.447 -1,1 0,0.553 0.448,1 1,1 L -1,1 C -0.447,1 0,0.553 0,0" id="path52" style="fill:#aab8c2;fill-opacity:1;fill-rule:nonzero;stroke:none"/></g></g></g></g></svg>