<?xml version="1.0" encoding="UTF-8" standalone="no"?><svg xmlns="http://www.w3.org/2000/svg" xmlns:cc="http://creativecommons.org/ns#" xmlns:dc="http://purl.org/dc/elements/1.1/" xmlns:rdf="http://www.w3.org/1999/02/22-rdf-syntax-ns#" xmlns:svg="http://www.w3.org/2000/svg" height="45" id="svg2" style="enable-background:new 0 0 45 45;" version="1.1" viewBox="0 0 45 45" width="45" xml:space="preserve"><metadata id="metadata8"><rdf:RDF><cc:Work rdf:about=""><dc:format>image/svg+xml</dc:format><dc:type rdf:resource="http://purl.org/dc/dcmitype/StillImage"/></cc:Work></rdf:RDF></metadata><defs id="defs6"><clipPath clipPathUnits="userSpaceOnUse" id="clipPath16"><path d="M 0,36 36,36 36,0 0,0 0,36 Z" id="path18"/></clipPath><clipPath clipPathUnits="userSpaceOnUse" id="clipPath118"><path d="M 21.997,36 C 17,36 14.874,34.663 13,32 l 0,0 c -1.992,-2.831 0,-5 -3,-7 l 0,0 c -1.86,-1.24 6,-2.313 12,-2.313 l 0,0 c 6,0 13.861,1.073 12,2.313 l 0,0 c -3,2 -1.008,4.169 -3,7 l 0,0 c -1.874,2.663 -5,4 -9.003,4 z" id="path120"/></clipPath><clipPath clipPathUnits="userSpaceOnUse" id="clipPath134"><path d="M 0,36 36,36 36,0 0,0 0,36 Z" id="path136"/></clipPath></defs><g id="g10" transform="matrix(1.25,0,0,-1.25,0,45)"><g id="g12"><g clip-path="url(#clipPath16)" id="g14"><g id="g20" transform="translate(36,0)"><path d="m 0,0 0,2 c 0,3.314 -2.686,6 -6,6 l -16,0 c -3.313,0 -6,-2.686 -6,-6 l 0,-2 28,0 z" id="path22" style="fill:#3b88c3;fill-opacity:1;fill-rule:nonzero;stroke:none"/></g><path d="M 27,5 17,5 17,9 27,9 27,5 Z" id="path24" style="fill:#292f33;fill-opacity:1;fill-rule:nonzero;stroke:none"/><g id="g26" transform="translate(18,9)"><path d="M 0,0 8,0 C 8,0 6.982,-7 4,-7 1.018,-7 0,0 0,0" id="path28" style="fill:#292f33;fill-opacity:1;fill-rule:nonzero;stroke:none"/></g><g id="g30" transform="translate(17.6396,5.9619)"><path d="m 0,0 c 1.744,-1.268 2.848,-1.963 4.36,-1.963 1.512,0 2.616,0.696 4.36,1.963 l 0,5.749 L 0,5.749 0,0 Z" id="path32" style="fill:#af7e57;fill-opacity:1;fill-rule:nonzero;stroke:none"/></g><g id="g34" transform="translate(17.6318,10.0273)"><path d="m 0,0 c 1.216,-1.374 2.724,-1.746 4.364,-1.746 1.639,0 3.147,0.373 4.364,1.746 l 0,3.491 L 0,3.491 0,0 Z" id="path36" style="fill:#9b6a49;fill-opacity:1;fill-rule:nonzero;stroke:none"/></g><g id="g38" transform="translate(15.4443,20.0645)"><path d="m 0,0 c 0,-1.448 -0.734,-2.622 -1.639,-2.622 -0.905,0 -1.639,1.174 -1.639,2.622 0,1.448 0.734,2.623 1.639,2.623 C -0.734,2.623 0,1.448 0,0" id="path40" style="fill:#af7e57;fill-opacity:1;fill-rule:nonzero;stroke:none"/></g><g id="g42" transform="translate(31.833,20.0645)"><path d="m 0,0 c 0,-1.448 -0.733,-2.622 -1.639,-2.622 -0.905,0 -1.638,1.174 -1.638,2.622 0,1.448 0.733,2.623 1.638,2.623 C -0.733,2.623 0,1.448 0,0" id="path44" style="fill:#af7e57;fill-opacity:1;fill-rule:nonzero;stroke:none"/></g><g id="g46" transform="translate(13.4775,19.0405)"><path d="m 0,0 c 0,5.589 3.816,10.121 8.523,10.121 4.707,0 8.522,-4.532 8.522,-10.121 0,-5.589 -3.815,-10.121 -8.522,-10.121 C 3.816,-10.121 0,-5.589 0,0" id="path48" style="fill:#af7e57;fill-opacity:1;fill-rule:nonzero;stroke:none"/></g><g id="g50" transform="translate(22,12.1982)"><path d="m 0,0 c -2.754,0 -3.6,0.705 -3.741,0.848 -0.256,0.256 -0.256,0.671 0,0.927 0.248,0.248 0.645,0.254 0.902,0.023 C -2.787,1.761 -2.118,1.311 0,1.311 c 2.2,0 2.836,0.485 2.842,0.49 C 3.098,2.056 3.499,2.044 3.755,1.786 4.011,1.53 3.997,1.104 3.741,0.848 3.6,0.705 2.754,0 0,0" id="path52" style="fill:#915a34;fill-opacity:1;fill-rule:nonzero;stroke:none"/></g><g id="g54" transform="translate(22,32.5205)"><path d="m 0,0 c 5.648,0 9.178,-4.168 9.178,-7.641 0,-3.473 -0.706,-4.863 -1.412,-3.473 -0.706,1.389 -1.412,2.778 -1.412,2.778 0,0 -4.236,0 -5.648,1.39 0,0 2.118,-4.168 -2.118,0 0,0 0.706,-2.779 -3.53,0.694 0,0 -2.118,-1.389 -2.824,-4.862 -0.196,-0.964 -1.412,0 -1.412,3.473 C -9.178,-4.168 -6.354,0 0,0" id="path56" style="fill:#60352a;fill-opacity:1;fill-rule:nonzero;stroke:none"/></g><g id="g58" transform="translate(18,19)"><path d="m 0,0 0,0 c -0.55,0 -1,0.45 -1,1 l 0,1 C -1,2.55 -0.55,3 0,3 0.55,3 1,2.55 1,2 L 1,1 C 1,0.45 0.55,0 0,0" id="path60" style="fill:#662113;fill-opacity:1;fill-rule:nonzero;stroke:none"/></g><g id="g62" transform="translate(26,19)"><path d="m 0,0 0,0 c -0.55,0 -1,0.45 -1,1 l 0,1 C -1,2.55 -0.55,3 0,3 0.55,3 1,2.55 1,2 L 1,1 C 1,0.45 0.55,0 0,0" id="path64" style="fill:#662113;fill-opacity:1;fill-rule:nonzero;stroke:none"/></g><g id="g66" transform="translate(22.75,16.25)"><path d="m 0,0 -1.5,0 c -0.413,0 -0.75,0.337 -0.75,0.75 0,0.413 0.337,0.75 0.75,0.75 L 0,1.5 C 0.413,1.5 0.75,1.163 0.75,0.75 0.75,0.337 0.413,0 0,0" id="path68" style="fill:#915a34;fill-opacity:1;fill-rule:nonzero;stroke:none"/></g><g id="g70" transform="translate(23,1.0625)"><path d="m 0,0 -1,-1.062 -1,1 0,3 2,0 L 0,0 Z" id="path72" style="fill:#292f33;fill-opacity:1;fill-rule:nonzero;stroke:none"/></g><g id="g74" transform="translate(15,8)"><path d="M 0,0 C 0,-1 1,-3 3,-5 4.581,-6.581 7,-8 7,-8 7,-4.937 6,-4 5,-3 4,-2 2,-1 2,1 2,2 0,0 0,0" id="path76" style="fill:#55acee;fill-opacity:1;fill-rule:nonzero;stroke:none"/></g><g id="g78" transform="translate(29,8)"><path d="m 0,0 c 0,-1 -1,-3 -3,-5 -1.581,-1.581 -4,-3 -4,-3 0,3.063 1,4 2,5 1,1 3,2 3,4 0,1 2,-1 2,-1" id="path80" style="fill:#55acee;fill-opacity:1;fill-rule:nonzero;stroke:none"/></g><g id="g82" transform="translate(21,20)"><path d="m 0,0 c 0,-2.07 -1.68,-3.75 -3.75,-3.75 -2.071,0 -3.75,1.68 -3.75,3.75 0,2.071 1.679,3.75 3.75,3.75 C -1.68,3.75 0,2.071 0,0" id="path84" style="fill:#9b6a49;fill-opacity:1;fill-rule:nonzero;stroke:none"/></g><g id="g86" transform="translate(30.5,20)"><path d="m 0,0 c 0,-2.07 -1.68,-3.75 -3.75,-3.75 -2.071,0 -3.75,1.68 -3.75,3.75 0,2.071 1.679,3.75 3.75,3.75 C -1.68,3.75 0,2.071 0,0" id="path88" style="fill:#9b6a49;fill-opacity:1;fill-rule:nonzero;stroke:none"/></g><path d="m 24.5,18.5 -5,0 0,2.5 5,0 0,-2.5 z" id="path90" style="fill:#9b6a49;fill-opacity:1;fill-rule:nonzero;stroke:none"/><g id="g92" transform="translate(21,20.5)"><path d="M 0,0 C 0,-1.933 -1.567,-3.5 -3.5,-3.5 -5.433,-3.5 -7,-1.933 -7,0 -7,1.933 -5.433,3.5 -3.5,3.5 -1.567,3.5 0,1.933 0,0" id="path94" style="fill:#e1e8ed;fill-opacity:1;fill-rule:nonzero;stroke:none"/></g><g id="g96" transform="translate(30,20.5)"><path d="M 0,0 C 0,-1.933 -1.567,-3.5 -3.5,-3.5 -5.434,-3.5 -7,-1.933 -7,0 -7,1.933 -5.434,3.5 -3.5,3.5 -1.567,3.5 0,1.933 0,0" id="path98" style="fill:#e1e8ed;fill-opacity:1;fill-rule:nonzero;stroke:none"/></g><path d="m 24.5,19.5 -5,0 0,2.5 5,0 0,-2.5 z" id="path100" style="fill:#e1e8ed;fill-opacity:1;fill-rule:nonzero;stroke:none"/><g id="g102" transform="translate(20,20.5)"><path d="M 0,0 C 0,-1.38 -1.119,-2.5 -2.5,-2.5 -3.881,-2.5 -5,-1.38 -5,0 -5,1.381 -3.881,2.5 -2.5,2.5 -1.119,2.5 0,1.381 0,0" id="path104" style="fill:#292f33;fill-opacity:1;fill-rule:nonzero;stroke:none"/></g><g id="g106" transform="translate(29,20.5)"><path d="M 0,0 C 0,-1.38 -1.119,-2.5 -2.5,-2.5 -3.881,-2.5 -5,-1.38 -5,0 -5,1.381 -3.881,2.5 -2.5,2.5 -1.119,2.5 0,1.381 0,0" id="path108" style="fill:#292f33;fill-opacity:1;fill-rule:nonzero;stroke:none"/></g><g id="g110" transform="translate(34,25)"><path d="m 0,0 c -3,2 -1.008,4.169 -3,7 -1.874,2.663 -5,4 -9.003,4 C -17,11 -19.126,9.663 -21,7 c -1.992,-2.831 0,-5 -3,-7 -1.861,-1.24 6,-2.313 12,-2.313 6,0 13.861,1.073 12,2.313" id="path112" style="fill:#3b88c3;fill-opacity:1;fill-rule:nonzero;stroke:none"/></g></g></g><g id="g114"><g clip-path="url(#clipPath118)" id="g116"><g id="g122" transform="translate(20,24.5)"><path d="m 0,0 -0.5,0 c -3.604,0 -10.687,1.035 -12.724,2.053 l 0.448,0.894 C -10.983,2.05 -4.591,1.093 -1,1.006 L -1,11.5 0,11.5 0,0 Z" id="path124" style="fill:#226699;fill-opacity:1;fill-rule:nonzero;stroke:none"/></g><g id="g126" transform="translate(24.5,24.5)"><path d="m 0,0 -0.5,0 0,11.5 1,0 0,-10.495 c 4.011,0.078 9.996,1.052 11.776,1.942 L 12.724,2.053 C 10.551,0.966 3.799,0 0,0" id="path128" style="fill:#226699;fill-opacity:1;fill-rule:nonzero;stroke:none"/></g></g></g><g id="g130"><g clip-path="url(#clipPath134)" id="g132"><g id="g138" transform="translate(5,12)"><path d="m 0,0 -1.5,-1 c 0,0 1.5,-2.5 1.5,-6 l 0,-5 2,0 0,5 C 2,-2.5 0,0 0,0" id="path140" style="fill:#66757f;fill-opacity:1;fill-rule:nonzero;stroke:none"/></g><g id="g142" transform="translate(6.0791,12.1934)"><path d="m 0,0 c 0.208,-0.379 0.071,-0.855 -0.307,-1.064 l -2.131,-1.178 c -0.378,-0.208 -0.854,-0.071 -1.064,0.308 l -0.451,0.817 c -0.209,0.379 -0.072,0.855 0.307,1.064 l 2.13,1.178 c 0.379,0.209 0.855,0.071 1.064,-0.309 L 0,0 Z" id="path144" style="fill:#99aab5;fill-opacity:1;fill-rule:nonzero;stroke:none"/></g><g id="g146" transform="translate(3.4897,13.416)"><path d="m 0,0 c 4.187,2.209 -3.438,6.271 -3.438,6.271 0,0 -0.749,-8.48 3.438,-6.271" id="path148" style="fill:#f4900c;fill-opacity:1;fill-rule:nonzero;stroke:none"/></g><g id="g150" transform="translate(2.9604,14.6348)"><path d="M 0,0 C 2.202,1.162 -1.808,3.299 -1.808,3.299 -1.808,3.299 -2.202,-1.16 0,0" id="path152" style="fill:#ffdc5d;fill-opacity:1;fill-rule:nonzero;stroke:none"/></g></g></g></g></svg>