<?xml version="1.0" encoding="UTF-8" standalone="no"?><svg xmlns="http://www.w3.org/2000/svg" xmlns:cc="http://creativecommons.org/ns#" xmlns:dc="http://purl.org/dc/elements/1.1/" xmlns:rdf="http://www.w3.org/1999/02/22-rdf-syntax-ns#" xmlns:svg="http://www.w3.org/2000/svg" height="45" id="svg2" style="enable-background:new 0 0 45 45;" version="1.1" viewBox="0 0 45 45" width="45" xml:space="preserve"><metadata id="metadata8"><rdf:RDF><cc:Work rdf:about=""><dc:format>image/svg+xml</dc:format><dc:type rdf:resource="http://purl.org/dc/dcmitype/StillImage"/></cc:Work></rdf:RDF></metadata><defs id="defs6"><clipPath clipPathUnits="userSpaceOnUse" id="clipPath16"><path d="M 0,36 36,36 36,0 0,0 0,36 Z" id="path18"/></clipPath></defs><g id="g10" transform="matrix(1.25,0,0,-1.25,0,45)"><g id="g12"><g clip-path="url(#clipPath16)" id="g14"><g id="g20" transform="translate(25.7764,31.2915)"><path d="m 0,0 c 1.333,0 6.833,-1.333 6.833,-7.749 0,-6.418 -6.261,-15.731 -8.625,-15.959 -2.583,-0.25 -4.208,1.375 -4.208,4 0,2.625 4.083,4.334 2.208,8.291 C -5.667,-7.458 -6.125,0 0,0" id="path22" style="fill:#662113;fill-opacity:1;fill-rule:nonzero;stroke:none"/></g><g id="g24" transform="translate(32.8574,29.0596)"><path d="M 0,0 C -0.432,-0.733 -0.323,-1.598 0.242,-1.93 0.808,-2.263 1.616,-1.937 2.047,-1.203 2.479,-0.469 2.37,0.396 1.805,0.728 1.239,1.061 0.431,0.734 0,0" id="path26" style="fill:#662113;fill-opacity:1;fill-rule:nonzero;stroke:none"/></g><g id="g28" transform="translate(29.9551,31.9224)"><path d="M 0,0 C -0.117,-0.843 0.342,-1.604 1.025,-1.699 1.709,-1.794 2.359,-1.188 2.477,-0.345 2.594,0.499 2.135,1.259 1.451,1.354 0.768,1.45 0.117,0.844 0,0" id="path30" style="fill:#662113;fill-opacity:1;fill-rule:nonzero;stroke:none"/></g><g id="g32" transform="translate(26.7344,33.292)"><path d="M 0,0 C 0,-0.921 0.598,-1.667 1.334,-1.667 2.07,-1.667 2.667,-0.921 2.667,0 2.667,0.92 2.07,1.667 1.334,1.667 0.598,1.667 0,0.92 0,0" id="path34" style="fill:#662113;fill-opacity:1;fill-rule:nonzero;stroke:none"/></g><g id="g36" transform="translate(22.9434,33.9795)"><path d="m 0,0 c 0,-1.024 0.635,-1.854 1.416,-1.854 0.783,0 1.417,0.83 1.417,1.854 0,1.024 -0.634,1.854 -1.417,1.854 C 0.635,1.854 0,1.024 0,0" id="path38" style="fill:#662113;fill-opacity:1;fill-rule:nonzero;stroke:none"/></g><g id="g40" transform="translate(17.6357,31.8228)"><path d="M 0,0 C 0.378,-1.459 1.605,-2.405 2.741,-2.111 3.878,-1.817 4.492,-0.396 4.114,1.063 3.737,2.522 2.511,3.468 1.374,3.174 0.237,2.88 -0.377,1.458 0,0" id="path42" style="fill:#662113;fill-opacity:1;fill-rule:nonzero;stroke:none"/></g><g id="g44" transform="translate(9.917,24.2915)"><path d="m 0,0 c -1.333,0 -6.833,-1.333 -6.833,-7.749 0,-6.418 6.261,-15.731 8.625,-15.96 2.583,-0.25 4.208,1.375 4.208,4.001 0,2.625 -4.083,4.334 -2.208,8.291 C 5.667,-7.458 6.125,0 0,0" id="path46" style="fill:#662113;fill-opacity:1;fill-rule:nonzero;stroke:none"/></g><g id="g48" transform="translate(2.8364,22.0596)"><path d="m 0,0 c 0.432,-0.733 0.323,-1.598 -0.242,-1.93 -0.566,-0.333 -1.375,-0.007 -1.805,0.727 -0.432,0.734 -0.324,1.598 0.241,1.931 C -1.24,1.061 -0.431,0.734 0,0" id="path50" style="fill:#662113;fill-opacity:1;fill-rule:nonzero;stroke:none"/></g><g id="g52" transform="translate(5.7383,24.9224)"><path d="m 0,0 c 0.117,-0.843 -0.342,-1.604 -1.025,-1.699 -0.684,-0.095 -1.334,0.511 -1.452,1.354 -0.117,0.844 0.342,1.604 1.026,1.699 C -0.767,1.45 -0.118,0.844 0,0" id="path54" style="fill:#662113;fill-opacity:1;fill-rule:nonzero;stroke:none"/></g><g id="g56" transform="translate(8.9585,26.292)"><path d="m 0,0 c 0,-0.921 -0.597,-1.667 -1.333,-1.667 -0.737,0 -1.334,0.746 -1.334,1.667 0,0.92 0.597,1.667 1.334,1.667 C -0.597,1.667 0,0.92 0,0" id="path58" style="fill:#662113;fill-opacity:1;fill-rule:nonzero;stroke:none"/></g><g id="g60" transform="translate(12.75,26.9795)"><path d="m 0,0 c 0,-1.024 -0.634,-1.854 -1.417,-1.854 -0.782,0 -1.416,0.83 -1.416,1.854 0,1.024 0.634,1.854 1.416,1.854 C -0.634,1.854 0,1.024 0,0" id="path62" style="fill:#662113;fill-opacity:1;fill-rule:nonzero;stroke:none"/></g><g id="g64" transform="translate(18.0576,24.8228)"><path d="m 0,0 c -0.377,-1.46 -1.605,-2.405 -2.741,-2.111 -1.136,0.294 -1.751,1.715 -1.374,3.174 0.377,1.459 1.604,2.405 2.741,2.111 C -0.238,2.88 0.377,1.458 0,0" id="path66" style="fill:#662113;fill-opacity:1;fill-rule:nonzero;stroke:none"/></g></g></g></g></svg>