<?xml version="1.0" encoding="UTF-8" standalone="no"?><svg xmlns="http://www.w3.org/2000/svg" xmlns:cc="http://creativecommons.org/ns#" xmlns:dc="http://purl.org/dc/elements/1.1/" xmlns:rdf="http://www.w3.org/1999/02/22-rdf-syntax-ns#" xmlns:svg="http://www.w3.org/2000/svg" height="45" id="svg2" style="enable-background:new 0 0 45 45;" version="1.1" viewBox="0 0 45 45" width="45" xml:space="preserve"><metadata id="metadata8"><rdf:RDF><cc:Work rdf:about=""><dc:format>image/svg+xml</dc:format><dc:type rdf:resource="http://purl.org/dc/dcmitype/StillImage"/></cc:Work></rdf:RDF></metadata><defs id="defs6"><clipPath clipPathUnits="userSpaceOnUse" id="clipPath16"><path d="M 0,36 36,36 36,0 0,0 0,36 Z" id="path18"/></clipPath></defs><g id="g10" transform="matrix(1.25,0,0,-1.25,0,45)"><g id="g12"><g clip-path="url(#clipPath16)" id="g14"><g id="g20" transform="translate(32,31)"><path d="m 0,0 -8,0 0,-26 8,0 c 2.209,0 4,1.791 4,4 L 4,-4 C 4,-1.791 2.209,0 0,0" id="path22" style="fill:#4997d0;fill-opacity:1;fill-rule:nonzero;stroke:none"/></g><g id="g24" transform="translate(4,31)"><path d="m 0,0 c -2.209,0 -4,-1.791 -4,-4 l 0,-18 c 0,-2.209 1.791,-4 4,-4 l 8,0 0,26 -8,0 z" id="path26" style="fill:#4997d0;fill-opacity:1;fill-rule:nonzero;stroke:none"/></g><path d="M 12,5 24,5 24,31 12,31 12,5 Z" id="path28" style="fill:#eeeeee;fill-opacity:1;fill-rule:nonzero;stroke:none"/><g id="g30" transform="translate(17.1274,14.4707)"><path d="m 0,0 c -0.559,0.23 -0.788,0.829 -0.734,1.153 0.023,0.136 0.086,0.22 0.147,-0.007 0.072,-0.276 0.278,-0.208 0.44,-0.733 0.084,-0.268 0.158,-0.321 0.507,-0.48" id="path32" style="fill:#437e24;fill-opacity:1;fill-rule:nonzero;stroke:none"/></g><g id="g34" transform="translate(17.019,14.4268)"><path d="m 0,0 c -1.033,0.158 -1.004,-0.312 -1.518,-0.464 -0.147,-0.044 -0.195,-0.126 0.045,-0.148 1.051,-0.09 1.203,0.678 1.795,0.447" id="path36" style="fill:#437e24;fill-opacity:1;fill-rule:nonzero;stroke:none"/></g><g id="g38" transform="translate(15.9038,14.8105)"><path d="m 0,0 c -0.307,0.15 -0.845,0.339 -1.17,0.237 -0.327,-0.101 -0.384,-0.139 -0.135,-0.262 0.858,-0.43 1.195,-0.017 1.565,-0.1" id="path40" style="fill:#437e24;fill-opacity:1;fill-rule:nonzero;stroke:none"/></g><g id="g42" transform="translate(15.5234,15.0352)"><path d="M 0,0 C -0.611,0.44 -0.509,0.701 -0.672,0.955 -0.836,1.21 -0.814,1.273 -0.587,1.118 0.18,0.6 -0.141,0.209 0.146,0.046" id="path44" style="fill:#437e24;fill-opacity:1;fill-rule:nonzero;stroke:none"/></g><g id="g46" transform="translate(14.813,15.6973)"><path d="M 0,0 C -0.566,0.762 -0.086,0.947 -0.126,1.142 -0.165,1.333 -0.115,1.366 -0.007,1.13 0.275,0.502 -0.216,0.282 0.134,-0.073" id="path48" style="fill:#437e24;fill-opacity:1;fill-rule:nonzero;stroke:none"/></g><g id="g50" transform="translate(14.0264,16.833)"><path d="M 0,0 C -0.136,0.31 -0.458,0.416 -0.599,0.401 -0.74,0.383 -0.92,0.361 -1.022,0.395 -1.124,0.429 -1.124,0.276 -0.841,0.157 -0.56,0.039 0.073,-0.21 0.215,-0.452" id="path52" style="fill:#437e24;fill-opacity:1;fill-rule:nonzero;stroke:none"/></g><g id="g54" transform="translate(13.7441,18.3286)"><path d="M 0,0 C 0.016,0.345 0.068,0.554 0.282,0.746 0.497,0.937 0.605,0.962 0.52,0.797 0.338,0.447 0.446,0.21 0.062,-0.293" id="path56" style="fill:#437e24;fill-opacity:1;fill-rule:nonzero;stroke:none"/></g><g id="g58" transform="translate(13.8008,19.0063)"><path d="M 0,0 C -0.046,0.525 -0.316,0.514 -0.401,0.752 -0.485,0.989 -0.54,0.79 -0.509,0.566 c 0.051,-0.368 0.441,-0.611 0.441,-0.961" id="path60" style="fill:#437e24;fill-opacity:1;fill-rule:nonzero;stroke:none"/></g><g id="g62" transform="translate(13.7832,18.7524)"><path d="M 0,0 C 0.018,0.334 -0.023,0.61 -0.135,0.808 -0.249,1.006 -0.22,0.757 -0.322,0.537 -0.437,0.288 -0.395,-0.248 -0.039,-0.666" id="path64" style="fill:#437e24;fill-opacity:1;fill-rule:nonzero;stroke:none"/></g><g id="g66" transform="translate(13.9478,19.707)"><path d="m 0,0 c 0.028,0.695 -0.255,0.689 -0.339,0.989 -0.085,0.3 -0.102,0.229 -0.142,-0.012 -0.181,-1.095 0.419,-0.971 0.361,-1.394" id="path68" style="fill:#437e24;fill-opacity:1;fill-rule:nonzero;stroke:none"/></g><g id="g70" transform="translate(14.2412,20.5825)"><path d="M 0,0 C 0.073,0.447 -0.094,0.564 0.08,0.842 0.164,0.978 0.294,1.158 0.26,0.933 0.225,0.707 0.254,0.351 0,0" id="path72" style="fill:#437e24;fill-opacity:1;fill-rule:nonzero;stroke:none"/></g><g id="g74" transform="translate(13.9648,19.8711)"><path d="M 0,0 C 0.073,0.548 -0.315,1.003 -0.034,1.469 0.112,1.712 0.189,1.734 0.173,1.537 0.146,1.186 0.492,0.808 0.045,0.113" id="path76" style="fill:#437e24;fill-opacity:1;fill-rule:nonzero;stroke:none"/></g><g id="g78" transform="translate(16.7212,14.6572)"><path d="M 0,0 C 0.758,-0.203 1.37,-0.492 1.573,-0.741 1.561,-0.843 1.366,-0.825 1.343,-0.882 0.767,-0.271 0.112,-0.395 -0.723,0.078 -3.535,1.673 -3.3,4.124 -2.497,5.92 c 0.104,0.235 0.219,0.463 0.242,0.717 0.025,0.277 0.25,0.436 0.532,0.526 0.241,0.077 0.166,-0.036 0.078,-0.13 C -1.818,6.846 -1.688,6.603 -2.169,6.281 -2.288,6.203 -2.334,6.092 -2.407,5.92 -3.819,2.61 -2.046,0.55 0,0" id="path80" style="fill:#437e24;fill-opacity:1;fill-rule:nonzero;stroke:none"/></g><g id="g82" transform="translate(14.0205,19.8203)"><path d="M 0,0 C 0.074,0.214 0.27,0.684 0.565,0.762 0.859,0.841 1.13,0.978 1.266,1.372 1.312,1.51 1.412,1.814 1.22,1.576 1.029,1.338 0.661,1.537 0.283,0.78 0.214,0.644 0.045,0.35 -0.085,-0.085" id="path84" style="fill:#437e24;fill-opacity:1;fill-rule:nonzero;stroke:none"/></g><g id="g86" transform="translate(13.8955,19.6899)"><path d="M 0,0 C 0.193,0.69 0.583,0.583 0.769,0.831 0.956,1.079 1.029,1.084 0.917,0.763 0.64,-0.017 0.085,0.023 -0.005,-0.339" id="path88" style="fill:#437e24;fill-opacity:1;fill-rule:nonzero;stroke:none"/></g><g id="g90" transform="translate(13.8569,19.2725)"><path d="M 0,0 C 0.203,0.706 0.688,0.61 0.894,0.91 1.095,1.209 1.174,1.242 1.134,0.887 1.03,-0.064 0.045,0.282 -0.017,-0.243" id="path92" style="fill:#437e24;fill-opacity:1;fill-rule:nonzero;stroke:none"/></g><g id="g94" transform="translate(13.7163,18.7754)"><path d="M 0,0 C 0.079,0.756 0.695,0.672 0.886,0.87 0.961,0.947 1.001,0.758 0.864,0.559 0.531,0.079 0.147,0.401 0.101,-0.113" id="path96" style="fill:#437e24;fill-opacity:1;fill-rule:nonzero;stroke:none"/></g><g id="g98" transform="translate(13.8403,17.8203)"><path d="M 0,0 C -0.08,0.763 -0.565,0.994 -0.678,1.277 -0.791,1.56 -0.771,1.215 -0.746,1.045 -0.594,0.034 -0.198,0.379 -0.091,-0.186" id="path100" style="fill:#437e24;fill-opacity:1;fill-rule:nonzero;stroke:none"/></g><g id="g102" transform="translate(13.7549,17.5664)"><path d="M 0,0 C -0.101,0.531 0.085,0.933 0.39,1.147 0.695,1.362 0.618,1.238 0.594,1.051 0.475,0.141 0.028,0.502 0.153,-0.148" id="path104" style="fill:#437e24;fill-opacity:1;fill-rule:nonzero;stroke:none"/></g><g id="g106" transform="translate(13.8901,17.3916)"><path d="M 0,0 C -0.153,0.525 -0.536,0.74 -0.818,0.757 -1.101,0.773 -0.895,0.665 -0.853,0.565 -0.604,-0.023 -0.169,0.22 -0.01,-0.237" id="path108" style="fill:#437e24;fill-opacity:1;fill-rule:nonzero;stroke:none"/></g><g id="g110" transform="translate(14.4497,16.1992)"><path d="M 0,0 C -0.259,0.378 -0.209,0.655 -0.474,0.886 -0.74,1.119 -0.943,1.142 -1.079,1.283 -1.214,1.423 -1.229,1.255 -1.102,1 -0.812,0.424 -0.395,0.474 -0.159,0.062" id="path112" style="fill:#437e24;fill-opacity:1;fill-rule:nonzero;stroke:none"/></g><g id="g114" transform="translate(14.2969,16.4307)"><path d="M 0,0 C -0.118,0.242 -0.033,0.949 0.052,1.316 0.137,1.684 0.075,1.742 -0.095,1.542 -0.304,1.3 -0.598,0.955 -0.039,0" id="path116" style="fill:#437e24;fill-opacity:1;fill-rule:nonzero;stroke:none"/></g><g id="g118" transform="translate(14.4336,16.1719)"><path d="M 0,0 C -0.548,0.661 -0.933,0.4 -1.204,0.559 -1.476,0.716 -1.328,0.47 -1.253,0.395 -0.48,-0.38 -0.368,0.226 0.068,-0.21" id="path120" style="fill:#437e24;fill-opacity:1;fill-rule:nonzero;stroke:none"/></g><g id="g122" transform="translate(14.3823,16.25)"><path d="M 0,0 C -0.271,0.423 -0.271,0.825 -0.085,1.204 0.086,1.55 0.138,1.452 0.119,1.187 0.101,0.933 0.315,0.831 0.175,0.346 0.13,0.186 0.097,-0.141 0.299,-0.354" id="path124" style="fill:#437e24;fill-opacity:1;fill-rule:nonzero;stroke:none"/></g><g id="g126" transform="translate(15.0269,15.4893)"><path d="M 0,0 C -0.221,0.259 -0.419,0.506 -0.757,0.547 -1.096,0.586 -1.216,0.636 -1.04,0.422 -0.43,-0.318 -0.12,0.005 0.186,-0.222" id="path128" style="fill:#437e24;fill-opacity:1;fill-rule:nonzero;stroke:none"/></g><g id="g130" transform="translate(15.4414,15.2266)"><path d="M 0,0 C -0.27,0.166 -0.817,0.296 -1.205,0.214 -1.423,0.168 -1.348,0.128 -1.2,0.084 c 0.291,-0.088 0.378,-0.38 1.009,-0.334 0.124,0.009 0.254,0.048 0.477,-0.076" id="path132" style="fill:#437e24;fill-opacity:1;fill-rule:nonzero;stroke:none"/></g><g id="g134" transform="translate(15.7036,15.002)"><path d="M 0,0 C -0.311,0.198 -0.507,0.656 -0.553,1.118 -0.578,1.37 -0.511,1.492 -0.401,1.22 -0.265,0.886 -0.022,0.894 0.13,0.39 0.268,-0.063 0.357,-0.113 0.594,-0.209" id="path136" style="fill:#437e24;fill-opacity:1;fill-rule:nonzero;stroke:none"/></g><g id="g138" transform="translate(16.4565,14.6758)"><path d="m 0,0 c -0.419,0.225 -0.628,0.581 -0.678,1 -0.046,0.383 0.05,0.328 0.179,0.096 C -0.375,0.874 -0.141,0.907 0.008,0.422 0.057,0.265 0.17,0.016 0.49,-0.081" id="path140" style="fill:#437e24;fill-opacity:1;fill-rule:nonzero;stroke:none"/></g><g id="g142" transform="translate(16.8667,14.5391)"><path d="m 0,0 c -0.654,0.203 -1.256,0.181 -1.614,-0.085 -0.18,-0.133 -0.131,-0.183 0.023,-0.158 0.439,0.07 0.615,-0.182 1.145,0.056 0.115,0.051 0.311,0.109 0.747,-0.056" id="path144" style="fill:#437e24;fill-opacity:1;fill-rule:nonzero;stroke:none"/></g><g id="g146" transform="translate(18.8257,14.4785)"><path d="M 0,0 C 0.566,0.234 0.796,0.838 0.742,1.165 0.72,1.303 0.656,1.388 0.593,1.16 0.519,0.88 0.314,0.948 0.148,0.417 0.064,0.148 -0.011,0.092 -0.364,-0.068" id="path148" style="fill:#437e24;fill-opacity:1;fill-rule:nonzero;stroke:none"/></g><g id="g150" transform="translate(18.9351,14.4336)"><path d="M 0,0 C 1.044,0.16 1.015,-0.315 1.537,-0.469 1.685,-0.514 1.732,-0.597 1.49,-0.619 0.427,-0.709 0.273,0.067 -0.326,-0.166" id="path152" style="fill:#437e24;fill-opacity:1;fill-rule:nonzero;stroke:none"/></g><g id="g154" transform="translate(20.0635,14.8223)"><path d="M 0,0 C 0.309,0.149 0.854,0.342 1.184,0.24 1.514,0.138 1.57,0.099 1.318,-0.025 0.451,-0.46 0.111,-0.042 -0.264,-0.126" id="path156" style="fill:#437e24;fill-opacity:1;fill-rule:nonzero;stroke:none"/></g><g id="g158" transform="translate(20.4463,15.0498)"><path d="M 0,0 C 0.619,0.445 0.516,0.708 0.68,0.965 0.846,1.224 0.824,1.287 0.596,1.13 -0.18,0.605 0.145,0.211 -0.148,0.046" id="path160" style="fill:#437e24;fill-opacity:1;fill-rule:nonzero;stroke:none"/></g><g id="g162" transform="translate(21.167,15.7187)"><path d="M 0,0 C 0.57,0.77 0.086,0.958 0.125,1.153 0.166,1.348 0.115,1.382 0.006,1.142 -0.279,0.508 0.217,0.285 -0.137,-0.075" id="path164" style="fill:#437e24;fill-opacity:1;fill-rule:nonzero;stroke:none"/></g><g id="g166" transform="translate(21.9619,16.8662)"><path d="M 0,0 C 0.135,0.314 0.461,0.422 0.604,0.407 0.748,0.388 0.93,0.367 1.031,0.4 1.137,0.434 1.137,0.281 0.85,0.16 0.564,0.04 -0.076,-0.212 -0.217,-0.456" id="path168" style="fill:#437e24;fill-opacity:1;fill-rule:nonzero;stroke:none"/></g><g id="g170" transform="translate(22.2471,18.3794)"><path d="m 0,0 c -0.02,0.349 -0.068,0.56 -0.285,0.754 -0.217,0.195 -0.326,0.219 -0.24,0.052 0.181,-0.354 0.072,-0.594 0.461,-1.102" id="path172" style="fill:#437e24;fill-opacity:1;fill-rule:nonzero;stroke:none"/></g><g id="g174" transform="translate(22.1885,19.0649)"><path d="M 0,0 C 0.047,0.531 0.322,0.521 0.406,0.761 0.492,1 0.547,0.799 0.516,0.572 0.463,0.2 0.07,-0.046 0.07,-0.399" id="path176" style="fill:#437e24;fill-opacity:1;fill-rule:nonzero;stroke:none"/></g><g id="g178" transform="translate(22.2061,18.8081)"><path d="M 0,0 C -0.018,0.337 0.021,0.617 0.137,0.817 0.252,1.018 0.225,0.765 0.326,0.542 0.441,0.291 0.4,-0.251 0.041,-0.674" id="path180" style="fill:#437e24;fill-opacity:1;fill-rule:nonzero;stroke:none"/></g><g id="g182" transform="translate(22.042,19.7739)"><path d="M 0,0 C -0.029,0.702 0.256,0.696 0.342,1 0.428,1.302 0.445,1.232 0.484,0.987 0.668,-0.12 0.062,0.005 0.119,-0.423" id="path184" style="fill:#437e24;fill-opacity:1;fill-rule:nonzero;stroke:none"/></g><g id="g186" transform="translate(21.7451,20.6592)"><path d="M 0,0 C -0.076,0.451 0.094,0.57 -0.08,0.851 -0.168,0.988 -0.299,1.171 -0.266,0.942 -0.23,0.714 -0.26,0.354 0,0" id="path188" style="fill:#437e24;fill-opacity:1;fill-rule:nonzero;stroke:none"/></g><g id="g190" transform="translate(22.0244,19.9395)"><path d="m 0,0 c -0.074,0.554 0.318,1.013 0.033,1.485 -0.148,0.246 -0.226,0.268 -0.211,0.069 0.03,-0.355 -0.32,-0.737 0.131,-1.44" id="path192" style="fill:#437e24;fill-opacity:1;fill-rule:nonzero;stroke:none"/></g><g id="g194" transform="translate(19.2354,14.667)"><path d="m 0,0 c -0.764,-0.205 -1.421,-0.531 -1.628,-0.782 0.011,-0.103 0.248,-0.052 0.271,-0.11 0.583,0.618 1.242,0.493 2.089,0.97 C 3.574,1.692 3.336,4.17 2.525,5.987 2.42,6.225 2.303,6.455 2.279,6.711 2.256,6.991 2.027,7.151 1.744,7.243 1.5,7.322 1.574,7.206 1.664,7.111 1.84,6.923 1.707,6.677 2.195,6.352 2.314,6.272 2.361,6.16 2.434,5.987 3.863,2.64 2.07,0.556 0,0" id="path196" style="fill:#437e24;fill-opacity:1;fill-rule:nonzero;stroke:none"/></g><g id="g198" transform="translate(21.9658,19.8882)"><path d="m 0,0 c -0.074,0.217 -0.273,0.691 -0.572,0.771 -0.295,0.08 -0.569,0.217 -0.707,0.616 -0.047,0.139 -0.149,0.447 0.047,0.206 0.193,-0.24 0.566,-0.039 0.947,-0.805 0.07,-0.137 0.24,-0.434 0.371,-0.874" id="path200" style="fill:#437e24;fill-opacity:1;fill-rule:nonzero;stroke:none"/></g><g id="g202" transform="translate(22.0928,19.7559)"><path d="m 0,0 c -0.195,0.697 -0.59,0.59 -0.777,0.84 -0.19,0.251 -0.264,0.255 -0.149,-0.068 0.28,-0.788 0.84,-0.749 0.93,-1.114" id="path204" style="fill:#437e24;fill-opacity:1;fill-rule:nonzero;stroke:none"/></g><g id="g206" transform="translate(22.1318,19.334)"><path d="m 0,0 c -0.205,0.714 -0.695,0.617 -0.902,0.92 -0.205,0.303 -0.285,0.337 -0.246,-0.024 0.107,-0.96 1.103,-0.61 1.166,-1.142" id="path208" style="fill:#437e24;fill-opacity:1;fill-rule:nonzero;stroke:none"/></g><g id="g210" transform="translate(22.2744,18.8311)"><path d="M 0,0 C -0.078,0.765 -0.701,0.68 -0.896,0.88 -0.973,0.958 -1.012,0.767 -0.873,0.565 -0.537,0.08 -0.148,0.406 -0.102,-0.114" id="path212" style="fill:#437e24;fill-opacity:1;fill-rule:nonzero;stroke:none"/></g><g id="g214" transform="translate(22.1494,17.8657)"><path d="M 0,0 C 0.078,0.77 0.57,1.005 0.686,1.291 0.799,1.577 0.779,1.228 0.754,1.057 0.6,0.035 0.199,0.383 0.092,-0.189" id="path216" style="fill:#437e24;fill-opacity:1;fill-rule:nonzero;stroke:none"/></g><g id="g218" transform="translate(22.2354,17.6084)"><path d="M 0,0 C 0.102,0.537 -0.086,0.943 -0.395,1.16 -0.701,1.377 -0.625,1.252 -0.6,1.063 -0.48,0.143 -0.029,0.508 -0.154,-0.149" id="path220" style="fill:#437e24;fill-opacity:1;fill-rule:nonzero;stroke:none"/></g><g id="g222" transform="translate(22.0967,17.4312)"><path d="M 0,0 C 0.154,0.531 0.545,0.749 0.83,0.766 1.115,0.783 0.906,0.673 0.865,0.572 0.613,-0.022 0.172,0.224 0.012,-0.239" id="path224" style="fill:#437e24;fill-opacity:1;fill-rule:nonzero;stroke:none"/></g><g id="g226" transform="translate(21.5342,16.2266)"><path d="M 0,0 C 0.26,0.383 0.211,0.662 0.479,0.897 0.746,1.131 0.953,1.154 1.09,1.296 1.227,1.439 1.242,1.269 1.113,1.011 0.82,0.428 0.398,0.479 0.158,0.062" id="path228" style="fill:#437e24;fill-opacity:1;fill-rule:nonzero;stroke:none"/></g><g id="g230" transform="translate(21.6885,16.46)"><path d="M 0,0 C 0.117,0.246 0.033,0.96 -0.053,1.331 -0.139,1.703 -0.078,1.761 0.096,1.56 0.307,1.315 0.604,0.966 0.039,0" id="path232" style="fill:#437e24;fill-opacity:1;fill-rule:nonzero;stroke:none"/></g><g id="g234" transform="translate(21.5498,16.1973)"><path d="M 0,0 C 0.555,0.669 0.943,0.406 1.217,0.565 1.49,0.726 1.342,0.475 1.268,0.401 0.484,-0.382 0.371,0.23 -0.07,-0.21" id="path236" style="fill:#437e24;fill-opacity:1;fill-rule:nonzero;stroke:none"/></g><g id="g238" transform="translate(21.6006,16.2783)"><path d="M 0,0 C 0.275,0.428 0.275,0.833 0.088,1.216 -0.086,1.567 -0.137,1.466 -0.121,1.199 -0.102,0.942 -0.318,0.84 -0.178,0.348 -0.131,0.187 -0.098,-0.144 -0.301,-0.36" id="path240" style="fill:#437e24;fill-opacity:1;fill-rule:nonzero;stroke:none"/></g><g id="g242" transform="translate(20.9502,15.5078)"><path d="M 0,0 C 0.223,0.263 0.422,0.512 0.766,0.554 1.107,0.593 1.229,0.645 1.053,0.428 0.434,-0.319 0.119,0.005 -0.189,-0.225" id="path244" style="fill:#437e24;fill-opacity:1;fill-rule:nonzero;stroke:none"/></g><g id="g246" transform="translate(20.5303,15.2422)"><path d="M 0,0 C 0.271,0.169 0.826,0.3 1.217,0.217 1.437,0.171 1.363,0.131 1.213,0.086 0.92,-0.004 0.832,-0.299 0.191,-0.252 c -0.123,0.009 -0.253,0.048 -0.48,-0.076" id="path248" style="fill:#437e24;fill-opacity:1;fill-rule:nonzero;stroke:none"/></g><g id="g250" transform="translate(20.2666,15.0156)"><path d="M 0,0 C 0.312,0.199 0.512,0.664 0.559,1.13 0.584,1.385 0.514,1.51 0.404,1.234 0.268,0.896 0.021,0.902 -0.135,0.394 -0.271,-0.063 -0.361,-0.115 -0.604,-0.21" id="path252" style="fill:#437e24;fill-opacity:1;fill-rule:nonzero;stroke:none"/></g><g id="g254" transform="translate(19.5029,14.6855)"><path d="M 0,0 C 0.424,0.229 0.635,0.587 0.687,1.012 0.732,1.4 0.637,1.344 0.506,1.109 0.381,0.885 0.143,0.917 -0.008,0.427 -0.057,0.268 -0.17,0.016 -0.494,-0.082" id="path256" style="fill:#437e24;fill-opacity:1;fill-rule:nonzero;stroke:none"/></g><g id="g258" transform="translate(19.0889,14.5479)"><path d="M 0,0 C 0.662,0.205 1.271,0.182 1.631,-0.086 1.814,-0.221 1.766,-0.271 1.609,-0.247 1.166,-0.176 0.986,-0.43 0.451,-0.188 0.336,-0.138 0.137,-0.08 -0.304,-0.247" id="path260" style="fill:#437e24;fill-opacity:1;fill-rule:nonzero;stroke:none"/></g><g id="g262" transform="translate(16.5947,17.5781)"><path d="M 0,0 C 0,0 -0.763,-0.686 -0.857,-0.779 -0.95,-0.872 -1.044,-1.278 -1.044,-1.278 l 0.25,-0.156 1.107,1.138 L 0,0 Z" id="path264" style="fill:#b1b6ba;fill-opacity:1;fill-rule:nonzero;stroke:none"/></g><g id="g266" transform="translate(15.5356,16.3154)"><path d="m 0,0 0.234,-0.186 c 0,0 -0.202,-0.203 -0.234,-0.406 -0.031,-0.203 -0.577,-0.825 -0.686,-0.981 -0.108,-0.157 -0.25,-0.124 -0.312,0 -0.061,0.124 -0.201,0.218 -0.217,0.311 -0.016,0.093 0.343,0.421 0.514,0.608 0.171,0.187 0.358,0.264 0.452,0.373 C -0.156,-0.171 0,0 0,0" id="path268" style="fill:#6c301e;fill-opacity:1;fill-rule:nonzero;stroke:none"/></g><g id="g270" transform="translate(16.6426,17.4072)"><path d="M 0,0 -0.473,-0.529 -0.346,-0.655 0.109,-0.141 0,0 Z" id="path272" style="fill:#6c301e;fill-opacity:1;fill-rule:nonzero;stroke:none"/></g><g id="g274" transform="translate(14.4604,22.0195)"><path d="M 0,0 1.511,-1.574 1.885,-1.387 1.769,-1.217 1.511,-1.278 0,0 Z" id="path276" style="fill:#b1b6ba;fill-opacity:1;fill-rule:nonzero;stroke:none"/></g><g id="g278" transform="translate(16.3457,15.4756)"><path d="m 0,0 0.187,-0.314 0.17,0.158 c 0,0 0.138,-0.25 0,-0.296 -0.139,-0.048 -0.242,0 -0.242,0 l -0.473,-0.387 c 0,0 -0.187,0.113 -0.343,0 0,0 0.032,0.23 0.125,0.23 0.093,0 0.434,0.452 0.434,0.452 0,0 -0.18,0.05 -0.144,0.157 C -0.249,0.107 0,0 0,0" id="path280" style="fill:#fab81b;fill-opacity:1;fill-rule:nonzero;stroke:none"/></g><g id="g282" transform="translate(16.3457,15.3496)"><path d="m 0,0 c 0,0 2.772,2.758 3.927,2.862 0,0 -0.873,-0.531 -1.419,-0.967 C 1.962,1.458 0.187,-0.187 0.187,-0.187 L 0,0 Z" id="path284" style="fill:#b1b6ba;fill-opacity:1;fill-rule:nonzero;stroke:none"/></g><g id="g286" transform="translate(19.4932,17.5781)"><path d="M 0,0 C 0,0 0.764,-0.686 0.855,-0.779 0.949,-0.872 1.043,-1.278 1.043,-1.278 L 0.795,-1.434 -0.312,-0.296 0,0 Z" id="path288" style="fill:#b1b6ba;fill-opacity:1;fill-rule:nonzero;stroke:none"/></g><g id="g290" transform="translate(20.5518,16.3154)"><path d="m 0,0 -0.234,-0.186 c 0,0 0.203,-0.203 0.234,-0.406 0.031,-0.203 0.578,-0.825 0.686,-0.981 0.109,-0.157 0.25,-0.124 0.312,0 0.063,0.124 0.201,0.218 0.217,0.311 0.017,0.093 -0.344,0.421 -0.514,0.608 C 0.531,-0.467 0.344,-0.39 0.25,-0.281 0.156,-0.171 0,0 0,0" id="path292" style="fill:#6c301e;fill-opacity:1;fill-rule:nonzero;stroke:none"/></g><g id="g294" transform="translate(19.4443,17.4072)"><path d="M 0,0 0.473,-0.529 0.348,-0.655 -0.107,-0.141 0,0 Z" id="path296" style="fill:#6c301e;fill-opacity:1;fill-rule:nonzero;stroke:none"/></g><g id="g298" transform="translate(18.7847,19.7358)"><path d="M 0,0 -0.176,-0.497 1.33,1.006 1.098,1.048 0,0 Z" id="path300" style="fill:#b1b6ba;fill-opacity:1;fill-rule:nonzero;stroke:none"/></g><g id="g302" transform="translate(21.626,22.0195)"><path d="m 0,0 -1.512,-1.574 -0.373,0.187 0.373,0.109 L 0,0 Z" id="path304" style="fill:#b1b6ba;fill-opacity:1;fill-rule:nonzero;stroke:none"/></g><g id="g306" transform="translate(19.7412,15.4756)"><path d="m 0,0 -0.186,-0.314 -0.169,0.158 c 0,0 -0.139,-0.25 0,-0.296 0.136,-0.048 0.242,0 0.242,0 l 0.472,-0.387 c 0,0 0.188,0.113 0.342,0 0,0 -0.031,0.23 -0.125,0.23 -0.094,0 -0.433,0.452 -0.433,0.452 0,0 0.179,0.05 0.142,0.157 C 0.25,0.107 0,0 0,0" id="path308" style="fill:#fab81b;fill-opacity:1;fill-rule:nonzero;stroke:none"/></g><g id="g310" transform="translate(19.7412,15.3496)"><path d="m 0,0 c 0,0 -2.773,2.758 -3.926,2.862 0,0 0.874,-0.531 1.419,-0.967 0.546,-0.437 2.321,-2.082 2.321,-2.082 L 0,0 Z" id="path312" style="fill:#b1b6ba;fill-opacity:1;fill-rule:nonzero;stroke:none"/></g><g id="g314" transform="translate(16.3667,20.8359)"><path d="M 0,0 C 0.453,0.026 1.76,-0.016 2.244,0 2.726,0.015 2.617,-0.234 2.648,-0.375 2.679,-0.514 2.385,-0.67 2.385,-0.67 c 0,0 0.31,-0.187 0.716,-1.278 C 3.505,-3.039 3.412,-3.537 2.867,-3.569 2.322,-3.6 0.92,-3.693 0.451,-3.693 c -0.467,0 -0.545,0.171 -0.545,0.421 0,0.249 0.374,0.623 0.748,0.411 0,0 0,0.166 -0.217,0.789 -0.218,0.623 -0.686,1.293 -0.733,1.589 C -0.343,-0.187 -0.234,-0.014 0,0" id="path316" style="fill:#f9f0aa;fill-opacity:1;fill-rule:nonzero;stroke:none"/></g><g id="g318" transform="translate(17.7378,21.9106)"><path d="M 0,0 C -0.187,0.172 0.073,0.359 0.263,0.343 0.451,0.327 0.545,0.219 0.343,0 c 0,0 0.546,-0.296 0.981,-0.701 0.435,-0.405 1.332,-1.498 1.418,-2.68 C 2.851,-4.908 2.009,-5.703 1.697,-6.247 1.386,-6.793 0.685,-8.165 0.685,-8.165 c 0,0 -0.015,0.702 0.904,1.98 0,0 -0.716,-1.278 -1.822,-1.512 0,0 1.384,0.976 1.773,1.756 0.389,0.778 0.958,1.949 0.866,2.759 -0.094,0.811 -0.241,1.499 -1.315,2.03 0,0 -0.681,0.038 -0.982,0.28 C -0.374,-0.482 0,0 0,0" id="path320" style="fill:#437e24;fill-opacity:1;fill-rule:nonzero;stroke:none"/></g><g id="g322" transform="translate(18.7515,20.1655)"><path d="m 0,0 c 0,-0.047 0.202,-0.3 0.175,-0.3 l -2.381,0 c -0.026,0 -0.16,0.164 -0.16,0.212 l -0.181,0.212 c 0.141,-0.055 0.315,0 0.341,0 l 2.38,0 C 0.201,0.124 0,0.047 0,0" id="path324" style="fill:#e2cf81;fill-opacity:1;fill-rule:nonzero;stroke:none"/></g><g id="g326" transform="translate(17.022,17.4072)"><path d="m 0,0 c 0,-0.047 -0.1,-0.201 -0.073,-0.201 l 2.381,0 c 0.025,0 0.245,0.165 0.245,0.212 l 0.096,0.212 c -0.142,-0.055 -0.316,0 -0.341,0 l -2.381,0 C -0.099,0.223 0,0.047 0,0" id="path328" style="fill:#e2cf81;fill-opacity:1;fill-rule:nonzero;stroke:none"/></g></g></g></g></svg>