<?xml version="1.0" encoding="UTF-8" standalone="no"?><svg xmlns="http://www.w3.org/2000/svg" xmlns:cc="http://creativecommons.org/ns#" xmlns:dc="http://purl.org/dc/elements/1.1/" xmlns:rdf="http://www.w3.org/1999/02/22-rdf-syntax-ns#" xmlns:svg="http://www.w3.org/2000/svg" height="45" id="svg2" style="enable-background:new 0 0 45 45;" version="1.1" viewBox="0 0 45 45" width="45" xml:space="preserve"><metadata id="metadata8"><rdf:RDF><cc:Work rdf:about=""><dc:format>image/svg+xml</dc:format><dc:type rdf:resource="http://purl.org/dc/dcmitype/StillImage"/></cc:Work></rdf:RDF></metadata><defs id="defs6"><clipPath clipPathUnits="userSpaceOnUse" id="clipPath18"><path d="M 0,36 36,36 36,0 0,0 0,36 Z" id="path20"/></clipPath></defs><g id="g10" transform="matrix(1.25,0,0,-1.25,0,45)"><path d="m 0,14 36,0 0,7.999 -36,0 L 0,14 Z" id="path12" style="fill:#eeeeee;fill-opacity:1;fill-rule:nonzero;stroke:none"/><g id="g14"><g clip-path="url(#clipPath18)" id="g16"><g id="g22" transform="translate(32,31)"><path d="m 0,0 -28,0 c -2.209,0 -4,-1.791 -4,-4 l 0,-5 36,0 0,5 C 4,-1.791 2.209,0 0,0" id="path24" style="fill:#0156a3;fill-opacity:1;fill-rule:nonzero;stroke:none"/></g><g id="g26" transform="translate(0,9)"><path d="m 0,0 c 0,-2.209 1.791,-4 4,-4 l 28,0 c 2.209,0 4,1.791 4,4 L 36,5 0,5 0,0 Z" id="path28" style="fill:#0156a3;fill-opacity:1;fill-rule:nonzero;stroke:none"/></g><g id="g30" transform="translate(18.2646,18.2402)"><path d="M 0,0 -0.249,0.766 -0.498,0 -1.304,0 -0.652,-0.474 -0.901,-1.24 -0.249,-0.767 0.403,-1.24 0.154,-0.474 0.806,0 0,0 Z" id="path32" style="fill:#2657a7;fill-opacity:1;fill-rule:nonzero;stroke:none"/></g><g id="g34" transform="translate(23.5971,15.7598)"><path d="M 0,0 -0.249,-0.766 0.403,-0.292 1.055,-0.766 0.806,0 1.458,0.474 0.652,0.474 0.403,1.24 0.154,0.474 -0.652,0.474 0,0 Z" id="path36" style="fill:#2657a7;fill-opacity:1;fill-rule:nonzero;stroke:none"/></g><g id="g38" transform="translate(24.249,20.2402)"><path d="M 0,0 -0.249,0.766 -0.498,0 -1.304,0 -0.652,-0.474 -0.901,-1.24 -0.249,-0.767 0.403,-1.24 0.154,-0.474 0.806,0 0,0 Z" id="path40" style="fill:#2657a7;fill-opacity:1;fill-rule:nonzero;stroke:none"/></g><g id="g42" transform="translate(11.542,15.7598)"><path d="M 0,0 -0.249,-0.766 0.403,-0.292 1.055,-0.766 0.806,0 1.458,0.474 0.652,0.474 0.403,1.24 0.154,0.474 -0.652,0.474 0,0 Z" id="path44" style="fill:#2657a7;fill-opacity:1;fill-rule:nonzero;stroke:none"/></g><g id="g46" transform="translate(12.1938,20.2402)"><path d="M 0,0 -0.249,0.766 -0.498,0 -1.304,0 -0.652,-0.474 -0.901,-1.24 -0.249,-0.767 0.403,-1.24 0.154,-0.474 0.806,0 0,0 Z" id="path48" style="fill:#2657a7;fill-opacity:1;fill-rule:nonzero;stroke:none"/></g></g></g></g></svg>