<?xml version="1.0" encoding="UTF-8" standalone="no"?><svg xmlns="http://www.w3.org/2000/svg" xmlns:cc="http://creativecommons.org/ns#" xmlns:dc="http://purl.org/dc/elements/1.1/" xmlns:rdf="http://www.w3.org/1999/02/22-rdf-syntax-ns#" xmlns:svg="http://www.w3.org/2000/svg" height="45" id="svg2" style="enable-background:new 0 0 45 45;" version="1.1" viewBox="0 0 45 45" width="45" xml:space="preserve"><metadata id="metadata8"><rdf:RDF><cc:Work rdf:about=""><dc:format>image/svg+xml</dc:format><dc:type rdf:resource="http://purl.org/dc/dcmitype/StillImage"/></cc:Work></rdf:RDF></metadata><defs id="defs6"><clipPath clipPathUnits="userSpaceOnUse" id="clipPath16"><path d="M 0,36 36,36 36,0 0,0 0,36 Z" id="path18"/></clipPath></defs><g id="g10" transform="matrix(1.25,0,0,-1.25,0,45)"><g id="g12"><g clip-path="url(#clipPath16)" id="g14"><g id="g20" transform="translate(31,21)"><path d="m 0,0 c 0,-1.104 -0.895,-2 -2,-2 l -22,0 c -1.104,0 -2,0.896 -2,2 l 0,8 c 0,1.105 0.896,2 2,2 l 22,0 C -0.895,10 0,9.105 0,8 L 0,0 Z" id="path22" style="fill:#fdcb58;fill-opacity:1;fill-rule:nonzero;stroke:none"/></g><g id="g24" transform="translate(33,17)"><path d="m 0,0 c 0,-1.104 -0.895,-2 -2,-2 l -26,0 c -1.104,0 -2,0.896 -2,2 l 0,8 c 0,1.105 0.896,2 2,2 l 26,0 C -0.895,10 0,9.105 0,8 L 0,0 Z" id="path26" style="fill:#fdd888;fill-opacity:1;fill-rule:nonzero;stroke:none"/></g><g id="g28" transform="translate(35,3)"><path d="m 0,0 c 0,-1.104 -0.895,-2 -2,-2 l -30,0 c -1.104,0 -2,0.896 -2,2 l 0,18 c 0,1.105 0.896,2 2,2 l 30,0 c 1.105,0 2,-0.895 2,-2 L 0,0 Z" id="path30" style="fill:#fee7b8;fill-opacity:1;fill-rule:nonzero;stroke:none"/></g><g id="g32" transform="translate(10.9995,22)"><path d="M 0,0 Z" id="path34" style="fill:#67757f;fill-opacity:1;fill-rule:nonzero;stroke:none"/></g><g id="g36" transform="translate(10.9995,22)"><path d="M 0,0 Z" id="path38" style="fill:#67757f;fill-opacity:1;fill-rule:nonzero;stroke:none"/></g><g id="g40" transform="translate(23,33)"><path d="m 0,0 -5,0 c -1.104,0 -2,-0.895 -2,-2 l 0,-1 2,0 c 1.105,0 2,-0.895 2,-2 l 3,0 c 1.105,0 2,0.896 2,2 l 0,1 C 2,-0.895 1.105,0 0,0" id="path42" style="fill:#78b159;fill-opacity:1;fill-rule:nonzero;stroke:none"/></g><g id="g44" transform="translate(17,29)"><path d="m 0,0 -5,0 c -1.104,0 -2,-0.895 -2,-2 l 0,-1 2,0 c 1.105,0 2,-0.895 2,-2 l 3,0 c 1.105,0 2,0.896 2,2 l 0,1 C 2,-0.895 1.105,0 0,0" id="path46" style="fill:#f18f26;fill-opacity:1;fill-rule:nonzero;stroke:none"/></g><g id="g48" transform="translate(13,22)"><path d="m 0,0 c 0,-1.104 -0.895,-2 -2,-2 l -5,0 c -1.104,0 -2,0.896 -2,2 l 0,1 c 0,1.105 0.896,2 2,2 l 5,0 C -0.895,3 0,2.105 0,1 L 0,0 Z" id="path50" style="fill:#9268ca;fill-opacity:1;fill-rule:nonzero;stroke:none"/></g><g id="g52" transform="translate(10.9995,0)"><path d="M 0,0 Z" id="path54" style="fill:#67757f;fill-opacity:1;fill-rule:nonzero;stroke:none"/></g></g></g></g></svg>