<?xml version="1.0" encoding="UTF-8" standalone="no"?><svg xmlns="http://www.w3.org/2000/svg" xmlns:cc="http://creativecommons.org/ns#" xmlns:dc="http://purl.org/dc/elements/1.1/" xmlns:rdf="http://www.w3.org/1999/02/22-rdf-syntax-ns#" xmlns:svg="http://www.w3.org/2000/svg" height="45" id="svg2" style="enable-background:new 0 0 45 45;" version="1.1" viewBox="0 0 45 45" width="45" xml:space="preserve"><metadata id="metadata8"><rdf:RDF><cc:Work rdf:about=""><dc:format>image/svg+xml</dc:format><dc:type rdf:resource="http://purl.org/dc/dcmitype/StillImage"/></cc:Work></rdf:RDF></metadata><defs id="defs6"><clipPath clipPathUnits="userSpaceOnUse" id="clipPath16"><path d="M 0,0 36,0 36,36 0,36 0,0 Z" id="path18"/></clipPath></defs><g id="g10" transform="matrix(1.25,0,0,-1.25,0,45)"><g id="g12"><g clip-path="url(#clipPath16)" id="g14"><g id="g20" transform="translate(36,0)"><path d="m 0,0 0,2 c 0,3.314 -2.686,6 -6,6 l -16,0 c -3.313,0 -6,-2.686 -6,-6 l 0,-2 28,0 z" id="path22" style="fill:#e1e8ed;fill-opacity:1;fill-rule:nonzero;stroke:none"/></g><g id="g24" transform="translate(30.2119,7.9297)"><path d="m 0,0 c 0,-1.505 -3.676,-2.726 -8.212,-2.726 -4.535,0 -8.212,1.221 -8.212,2.726 0,1.505 3.677,2.727 8.212,2.727 C -3.676,2.727 0,1.505 0,0" id="path26" style="fill:#292f33;fill-opacity:1;fill-rule:nonzero;stroke:none"/></g><g id="g28" transform="translate(22,5.2041)"><path d="M 0,0 C 4.536,0 8.212,1.22 8.212,2.727 8.212,2.746 8.204,2.765 8.203,2.786 8.135,2.788 8.068,2.796 8,2.796 l -16,0 c -0.068,0 -0.135,-0.008 -0.203,-0.01 C -8.204,2.765 -8.212,2.746 -8.212,2.727 -8.212,1.22 -4.535,0 0,0" id="path30" style="fill:#99aab5;fill-opacity:1;fill-rule:nonzero;stroke:none"/></g><g id="g32" transform="translate(30.9336,8)"><path d="m 0,0 -0.306,0 -0.858,0 c 0.014,0 0.029,-0.065 0.029,-0.127 0,-1.36 -3.491,-2.434 -7.799,-2.434 -4.307,0 -7.798,1.06 -7.798,2.42 0,0.062 0.015,0.141 0.029,0.141 l -0.734,0 -0.705,-0.099 0.005,-1.018 c 0.114,-2.405 4.186,-3.392 9.203,-3.392 4.998,0 9.054,1.009 9.2,3.413 L 0.28,-0.122 0,0 Z" id="path34" style="fill:#ea596e;fill-opacity:1;fill-rule:nonzero;stroke:none"/></g><g id="g36" transform="translate(22,5.4668)"><path d="m 0,0 c -4.307,0 -7.799,1.104 -7.799,2.464 0,1.359 3.492,2.463 7.799,2.463 4.307,0 7.799,-1.104 7.799,-2.463 C 7.799,1.104 4.307,0 0,0 m 0,5.901 c -5.089,0 -9.214,-1.539 -9.214,-3.437 0,-1.9 4.125,-3.44 9.214,-3.44 5.089,0 9.214,1.54 9.214,3.44 0,1.898 -4.125,3.437 -9.214,3.437" id="path38" style="fill:#be1931;fill-opacity:1;fill-rule:nonzero;stroke:none"/></g><g id="g40" transform="translate(17.6396,8.0625)"><path d="m 0,0 c 1.744,-1.267 2.848,-1.511 4.36,-1.511 1.512,0 2.616,0.245 4.36,1.511 l 0,3.811 L 0,3.811 0,0 Z" id="path42" style="fill:#af7e57;fill-opacity:1;fill-rule:nonzero;stroke:none"/></g><g id="g44" transform="translate(17.6318,10.0273)"><path d="m 0,0 c 1.216,-1.374 2.724,-1.746 4.364,-1.746 1.639,0 3.147,0.373 4.364,1.746 l 0,3.491 L 0,3.491 0,0 Z" id="path46" style="fill:#9b6a49;fill-opacity:1;fill-rule:nonzero;stroke:none"/></g><g id="g48" transform="translate(15.4443,20.0645)"><path d="m 0,0 c 0,-1.448 -0.734,-2.622 -1.639,-2.622 -0.905,0 -1.639,1.174 -1.639,2.622 0,1.448 0.734,2.623 1.639,2.623 C -0.734,2.623 0,1.448 0,0" id="path50" style="fill:#af7e57;fill-opacity:1;fill-rule:nonzero;stroke:none"/></g><g id="g52" transform="translate(31.833,20.0645)"><path d="m 0,0 c 0,-1.448 -0.733,-2.622 -1.639,-2.622 -0.905,0 -1.638,1.174 -1.638,2.622 0,1.448 0.733,2.623 1.638,2.623 C -0.733,2.623 0,1.448 0,0" id="path54" style="fill:#af7e57;fill-opacity:1;fill-rule:nonzero;stroke:none"/></g><g id="g56" transform="translate(13.4775,19.0405)"><path d="m 0,0 c 0,5.589 3.816,10.121 8.523,10.121 4.707,0 8.522,-4.532 8.522,-10.121 0,-5.589 -3.815,-10.121 -8.522,-10.121 C 3.816,-10.121 0,-5.589 0,0" id="path58" style="fill:#af7e57;fill-opacity:1;fill-rule:nonzero;stroke:none"/></g><g id="g60" transform="translate(22,12.1982)"><path d="m 0,0 c -2.754,0 -3.6,0.705 -3.741,0.848 -0.256,0.256 -0.256,0.671 0,0.927 0.248,0.248 0.645,0.254 0.902,0.023 C -2.787,1.761 -2.118,1.311 0,1.311 c 2.2,0 2.836,0.485 2.842,0.49 C 3.098,2.056 3.499,2.044 3.755,1.786 4.011,1.53 3.997,1.104 3.741,0.848 3.6,0.705 2.754,0 0,0" id="path62" style="fill:#915a34;fill-opacity:1;fill-rule:nonzero;stroke:none"/></g><g id="g64" transform="translate(22,32.5205)"><path d="m 0,0 c 5.648,0 9.178,-4.168 9.178,-7.641 0,-3.473 -0.706,-4.863 -1.412,-3.473 -0.706,1.389 -1.412,2.778 -1.412,2.778 0,0 -4.236,0 -5.648,1.39 0,0 2.118,-4.168 -2.118,0 0,0 0.706,-2.779 -3.53,0.694 0,0 -2.118,-1.389 -2.824,-4.862 -0.196,-0.964 -1.412,0 -1.412,3.473 C -9.178,-4.168 -6.354,0 0,0" id="path66" style="fill:#60352a;fill-opacity:1;fill-rule:nonzero;stroke:none"/></g><g id="g68" transform="translate(18,19)"><path d="m 0,0 0,0 c -0.55,0 -1,0.45 -1,1 l 0,1 C -1,2.55 -0.55,3 0,3 0.55,3 1,2.55 1,2 L 1,1 C 1,0.45 0.55,0 0,0" id="path70" style="fill:#60352a;fill-opacity:1;fill-rule:nonzero;stroke:none"/></g><g id="g72" transform="translate(26,19)"><path d="m 0,0 0,0 c -0.55,0 -1,0.45 -1,1 l 0,1 C -1,2.55 -0.55,3 0,3 0.55,3 1,2.55 1,2 L 1,1 C 1,0.45 0.55,0 0,0" id="path74" style="fill:#60352a;fill-opacity:1;fill-rule:nonzero;stroke:none"/></g><g id="g76" transform="translate(22.75,16.25)"><path d="m 0,0 -1.5,0 c -0.413,0 -0.75,0.337 -0.75,0.75 0,0.413 0.337,0.75 0.75,0.75 L 0,1.5 C 0.413,1.5 0.75,1.163 0.75,0.75 0.75,0.337 0.413,0 0,0" id="path78" style="fill:#915a34;fill-opacity:1;fill-rule:nonzero;stroke:none"/></g><g id="g80" transform="translate(33,3)"><path d="m 0,0 0,-3 3,0 0,2 C 3,-0.659 2.965,-0.326 2.91,0 L 0,0 Z" id="path82" style="fill:#55acee;fill-opacity:1;fill-rule:nonzero;stroke:none"/></g><path d="m 36,0 -2,0 0,2 2,0 0,-2 z" id="path84" style="fill:#ffcc4d;fill-opacity:1;fill-rule:nonzero;stroke:none"/><g id="g86" transform="translate(24.0039,0)"><path d="M 0,0 C -1.198,5.146 -6.048,9 -11.857,9 -17.666,9 -22.515,5.146 -23.713,0 L 0,0 Z" id="path88" style="fill:#e1e8ed;fill-opacity:1;fill-rule:nonzero;stroke:none"/></g><g id="g90" transform="translate(22.6689,0)"><path d="M 0,0 C -1.173,4.464 -5.432,7.778 -10.522,7.778 -15.611,7.778 -19.871,4.464 -21.044,0 L 0,0 Z" id="path92" style="fill:#292f33;fill-opacity:1;fill-rule:nonzero;stroke:none"/></g><g id="g94" transform="translate(21.6377,0)"><path d="m 0,0 c -1.148,3.937 -4.956,6.833 -9.49,6.833 -4.534,0 -8.343,-2.896 -9.491,-6.833 L 0,0 Z" id="path96" style="fill:#ffac33;fill-opacity:1;fill-rule:nonzero;stroke:none"/></g><g id="g98" transform="translate(18.1953,0.9512)"><path d="M 0,0 0.103,0.063 C 0.87,0.53 1.03,1.602 0.402,2.245 -0.064,2.726 -0.59,3.154 -1.164,3.513 -1.724,3.862 -2.321,4.134 -2.947,4.34 -3.775,4.612 -4.658,4.107 -4.813,3.248 -4.933,2.588 -4.588,1.902 -3.958,1.671 -3.093,1.353 -2.331,0.844 -1.727,0.197 -1.284,-0.275 -0.553,-0.336 0,0" id="path100" style="fill:#ffdc5d;fill-opacity:1;fill-rule:nonzero;stroke:none"/></g><g id="g102" transform="translate(6.3442,21.7378)"><path d="m 0,0 -1.542,0.571 -0.6,2.2 c -0.079,0.29 -0.343,0.491 -0.644,0.491 -0.3,0 -0.564,-0.201 -0.643,-0.491 l -0.6,-2.2 L -5.571,0 c -0.262,-0.096 -0.435,-0.346 -0.435,-0.625 0,-0.279 0.173,-0.529 0.435,-0.625 l 1.534,-0.568 0.605,-2.415 c 0.074,-0.296 0.341,-0.505 0.646,-0.505 0.306,0 0.573,0.209 0.647,0.505 L -1.534,-1.818 0,-1.25 c 0.262,0.096 0.435,0.346 0.435,0.625 C 0.435,-0.346 0.262,-0.096 0,0" id="path104" style="fill:#9266cc;fill-opacity:1;fill-rule:nonzero;stroke:none"/></g><g id="g106" transform="translate(11.2798,31.3662)"><path d="m 0,0 -2.61,0.966 -0.966,2.61 c -0.16,0.433 -0.573,0.72 -1.035,0.72 -0.461,0 -0.874,-0.287 -1.035,-0.72 L -6.612,0.966 -9.221,0 c -0.434,-0.161 -0.721,-0.573 -0.721,-1.035 0,-0.462 0.287,-0.874 0.721,-1.035 l 2.609,-0.966 0.966,-2.61 c 0.161,-0.433 0.574,-0.72 1.035,-0.72 0.462,0 0.875,0.287 1.035,0.72 L -2.61,-3.036 0,-2.07 c 0.433,0.161 0.72,0.573 0.72,1.035 C 0.72,-0.573 0.433,-0.161 0,0" id="path108" style="fill:#5dadec;fill-opacity:1;fill-rule:nonzero;stroke:none"/></g></g></g></g></svg>