<?xml version="1.0" encoding="UTF-8" standalone="no"?><svg xmlns="http://www.w3.org/2000/svg" xmlns:cc="http://creativecommons.org/ns#" xmlns:dc="http://purl.org/dc/elements/1.1/" xmlns:rdf="http://www.w3.org/1999/02/22-rdf-syntax-ns#" xmlns:svg="http://www.w3.org/2000/svg" height="45" id="svg2" style="enable-background:new 0 0 45 45;" version="1.1" viewBox="0 0 45 45" width="45" xml:space="preserve"><metadata id="metadata8"><rdf:RDF><cc:Work rdf:about=""><dc:format>image/svg+xml</dc:format><dc:type rdf:resource="http://purl.org/dc/dcmitype/StillImage"/></cc:Work></rdf:RDF></metadata><defs id="defs6"><clipPath clipPathUnits="userSpaceOnUse" id="clipPath16"><path d="M 0,36 36,36 36,0 0,0 0,36 Z" id="path18"/></clipPath></defs><g id="g10" transform="matrix(1.25,0,0,-1.25,0,45)"><g id="g12"><g clip-path="url(#clipPath16)" id="g14"><g id="g20" transform="translate(32,4)"><path d="m 0,0 c 0,-2.209 -1.791,-4 -4,-4 l -20,0 c -2.209,0 -4,1.791 -4,4 l 0,28 c 0,2.209 1.791,4 4,4 l 20,0 c 2.209,0 4,-1.791 4,-4 L 0,0 Z" id="path22" style="fill:#e6e7e8;fill-opacity:1;fill-rule:nonzero;stroke:none"/></g><g id="g24" transform="translate(11,29)"><path d="M 0,0 C -2.519,0 -4.583,-1.87 -4.929,-4.294 -4.198,-3.503 -3.161,-3 -2,-3 0.209,-3 2,-4.791 2,-7 2,-9 3.497,-9.198 2.706,-9.929 5.13,-9.583 5,-7.519 5,-5 5,-2.239 2.761,0 0,0" id="path26" style="fill:#dd2e44;fill-opacity:1;fill-rule:nonzero;stroke:none"/></g><g id="g28" transform="translate(23,22)"><path d="M 0,0 C 0,2.209 1.791,4 4,4 5.161,4 6.198,3.497 6.929,2.706 6.583,5.13 4.52,7 2,7 -0.762,7 -3,4.761 -3,2 -3,-0.519 -3.131,-2.583 -0.707,-2.929 -1.497,-2.198 0,-2 0,0" id="path30" style="fill:#55acee;fill-opacity:1;fill-rule:nonzero;stroke:none"/></g><g id="g32" transform="translate(14,24)"><path d="M 0,0 C 0,4.971 4,9 4,9 4,9 8,4.971 8,0 8,-4.971 6.209,-9 4,-9 1.791,-9 0,-4.971 0,0" id="path34" style="fill:#ffac33;fill-opacity:1;fill-rule:nonzero;stroke:none"/></g><g id="g36" transform="translate(11.7065,14.9287)"><path d="m 0,0 c 0.791,-0.73 1.294,-1.768 1.294,-2.929 0,-2.209 -1.791,-4 -4,-4 -1.162,0 -2.199,0.503 -2.929,1.293 0.345,-2.424 2.409,-4.293 4.929,-4.293 2.761,0 5,2.239 5,5 0,2.52 -1.87,4.583 -4.294,4.929" id="path38" style="fill:#553788;fill-opacity:1;fill-rule:nonzero;stroke:none"/></g><g id="g40" transform="translate(27,8)"><path d="m 0,0 c -2.209,0 -4,1.791 -4,4 0,1.161 0.503,2.198 1.293,2.929 C -5.131,6.583 -7,4.52 -7,2 c 0,-2.762 2.238,-5 5,-5 2.52,0 4.583,1.869 4.929,4.293 C 2.198,0.503 1.161,0 0,0" id="path42" style="fill:#553788;fill-opacity:1;fill-rule:nonzero;stroke:none"/></g><g id="g44" transform="translate(14,12)"><path d="M 0,0 C 0,-4.971 3,-9 4,-9 5,-9 8,-4.971 8,0 8,4.971 6.209,9 4,9 1.791,9 0,4.971 0,0" id="path46" style="fill:#9266cc;fill-opacity:1;fill-rule:nonzero;stroke:none"/></g><g id="g48" transform="translate(13,19)"><path d="M 0,0 C 0,3.866 3,4 5,4 7,4 10,3.866 10,0 10,-3.865 7.762,-7 5,-7 2.239,-7 0,-3.865 0,0" id="path50" style="fill:#edbb9f;fill-opacity:1;fill-rule:nonzero;stroke:none"/></g><g id="g52" transform="translate(17.0005,19)"><path d="m 0,0 c 0,-0.552 -0.448,-1 -1,-1 -0.552,0 -1,0.448 -1,1 0,0.552 0.448,1 1,1 0.552,0 1,-0.448 1,-1" id="path54" style="fill:#662113;fill-opacity:1;fill-rule:nonzero;stroke:none"/></g><g id="g56" transform="translate(21,19)"><path d="m 0,0 c 0,-0.552 -0.447,-1 -1,-1 -0.552,0 -1,0.448 -1,1 0,0.552 0.448,1 1,1 0.553,0 1,-0.448 1,-1" id="path58" style="fill:#662113;fill-opacity:1;fill-rule:nonzero;stroke:none"/></g><g id="g60" transform="translate(18,14)"><path d="M 0,0 C 1.105,0 2,0.896 2,2 L -2,2 C -2,0.896 -1.104,0 0,0" id="path62" style="fill:#662113;fill-opacity:1;fill-rule:nonzero;stroke:none"/></g><g id="g64" transform="translate(7,25)"><path d="m 0,0 c 0,-0.552 -0.448,-1 -1,-1 -0.552,0 -1,0.448 -1,1 0,0.552 0.448,1 1,1 0.552,0 1,-0.448 1,-1" id="path66" style="fill:#a0041e;fill-opacity:1;fill-rule:nonzero;stroke:none"/></g><g id="g68" transform="translate(29,25)"><path d="M 0,0 C 0,-0.552 0.447,-1 1,-1 1.553,-1 2,-0.552 2,0 2,0.552 1.553,1 1,1 0.447,1 0,0.552 0,0" id="path70" style="fill:#226699;fill-opacity:1;fill-rule:nonzero;stroke:none"/></g><g id="g72" transform="translate(17,33)"><path d="M 0,0 C 0,0.552 0.448,1 1,1 1.552,1 2,0.552 2,0 2,-0.552 1.552,-1 1,-1 0.448,-1 0,-0.552 0,0" id="path74" style="fill:#dd2e44;fill-opacity:1;fill-rule:nonzero;stroke:none"/></g></g></g></g></svg>