<?xml version="1.0" encoding="UTF-8" standalone="no"?><svg xmlns="http://www.w3.org/2000/svg" xmlns:cc="http://creativecommons.org/ns#" xmlns:dc="http://purl.org/dc/elements/1.1/" xmlns:rdf="http://www.w3.org/1999/02/22-rdf-syntax-ns#" xmlns:svg="http://www.w3.org/2000/svg" height="45" id="svg2" style="enable-background:new 0 0 45 45;" version="1.1" viewBox="0 0 45 45" width="45" xml:space="preserve"><metadata id="metadata8"><rdf:RDF><cc:Work rdf:about=""><dc:format>image/svg+xml</dc:format><dc:type rdf:resource="http://purl.org/dc/dcmitype/StillImage"/></cc:Work></rdf:RDF></metadata><defs id="defs6"><clipPath clipPathUnits="userSpaceOnUse" id="clipPath16"><path d="M 4,31 C 1.791,31 0,29.209 0,27 L 0,27 0,9 C 0,6.791 1.791,5 4,5 l 0,0 28,0 c 2.209,0 4,1.791 4,4 l 0,0 0,18 c 0,2.209 -1.791,4 -4,4 l 0,0 -28,0 z" id="path18"/></clipPath></defs><g id="g10" transform="matrix(1.25,0,0,-1.25,0,45)"><g id="g12"><g clip-path="url(#clipPath16)" id="g14"><g id="g20" transform="translate(0,31)"><path d="M 0,0 0,-19.323 26.496,0 0,0 Z" id="path22" style="fill:#009e49;fill-opacity:1;fill-rule:nonzero;stroke:none"/></g><g id="g24" transform="translate(36,24.8136)"><path d="M 0,0 -27.233,-19.814 0,-19.814 0,0 Z" id="path26" style="fill:#ce1126;fill-opacity:1;fill-rule:nonzero;stroke:none"/></g><g id="g28" transform="translate(29.0659,31)"><path d="m 0,0 -2.569,0 -26.497,-19.323 0,-1.874 L 0,0 Z" id="path30" style="fill:#fcd116;fill-opacity:1;fill-rule:nonzero;stroke:none"/></g><g id="g32" transform="translate(36,26.6875)"><path d="m 0,0 -29.803,-21.687 2.57,0 L 0,-1.874 0,0 Z" id="path34" style="fill:#fcd116;fill-opacity:1;fill-rule:nonzero;stroke:none"/></g><g id="g36" transform="translate(29.0659,31)"><path d="m 0,0 -29.066,-21.197 0,-4.756 0.066,0 -0.066,-0.047 6.197,0 29.803,21.688 0,4.265 L 6.934,0 0,0 Z" id="path38" style="fill:#141414;fill-opacity:1;fill-rule:nonzero;stroke:none"/></g><g id="g40" transform="translate(25.0871,19.8762)"><path d="M 0,0 0.789,2.443 3.355,2.447 1.276,3.952 2.065,6.395 -0.009,4.882 -2.088,6.387 -1.29,3.947 -3.364,2.435 l 0,0 0,0 0,0 0,0 L -0.798,2.44 0,0 Z" id="path42" style="fill:#ffffff;fill-opacity:1;fill-rule:nonzero;stroke:none"/></g><g id="g44" transform="translate(12.3964,13.6423)"><path d="m 0,0 0.789,2.442 -2.074,-1.512 -2.079,1.505 0.797,-2.44 -2.073,-1.512 0,0 0,0 0,0 0,0 2.566,0.005 0.798,-2.44 0.788,2.442 2.567,0.005 L 0,0 Z" id="path46" style="fill:#ffffff;fill-opacity:1;fill-rule:nonzero;stroke:none"/></g></g></g></g></svg>