<?xml version="1.0" encoding="UTF-8" standalone="no"?><svg xmlns="http://www.w3.org/2000/svg" xmlns:cc="http://creativecommons.org/ns#" xmlns:dc="http://purl.org/dc/elements/1.1/" xmlns:rdf="http://www.w3.org/1999/02/22-rdf-syntax-ns#" xmlns:svg="http://www.w3.org/2000/svg" height="45" id="svg2" style="enable-background:new 0 0 45 45;" version="1.1" viewBox="0 0 45 45" width="45" xml:space="preserve"><metadata id="metadata8"><rdf:RDF><cc:Work rdf:about=""><dc:format>image/svg+xml</dc:format><dc:type rdf:resource="http://purl.org/dc/dcmitype/StillImage"/></cc:Work></rdf:RDF></metadata><defs id="defs6"><clipPath clipPathUnits="userSpaceOnUse" id="clipPath16"><path d="M 0,36 36,36 36,0 0,0 0,36 Z" id="path18"/></clipPath></defs><g id="g10" transform="matrix(1.25,0,0,-1.25,0,45)"><g id="g12"><g clip-path="url(#clipPath16)" id="g14"><g id="g20" transform="translate(36,9)"><path d="m 0,0 c 0,-2.209 -1.791,-4 -4,-4 l -28,0 c -2.209,0 -4,1.791 -4,4 l 0,18 c 0,2.209 1.791,4 4,4 l 28,0 c 2.209,0 4,-1.791 4,-4 L 0,0 Z" id="path22" style="fill:#00247d;fill-opacity:1;fill-rule:nonzero;stroke:none"/></g><g id="g24" transform="translate(3.354,24.854)"><path d="m 0,0 0.342,-1.102 1.154,0.008 -0.943,-0.665 0.364,-1.095 -0.924,0.69 -0.928,-0.684 0.371,1.092 -0.938,0.671 L -0.349,-1.1 0,0 Z" id="path26" style="fill:#ffffff;fill-opacity:1;fill-rule:nonzero;stroke:none"/></g><g id="g28" transform="translate(8.1006,18)"><path d="m 0,0 0.44,-1.417 1.484,0.01 -1.213,-0.857 0.469,-1.407 -1.189,0.887 -1.194,-0.879 0.476,1.404 -1.206,0.864 1.484,-0.019 L 0,0 Z" id="path30" style="fill:#ffffff;fill-opacity:1;fill-rule:nonzero;stroke:none"/></g><g id="g32" transform="translate(8.2866,29.4814)"><path d="m 0,0 0.342,-1.102 1.154,0.008 -0.943,-0.665 0.364,-1.095 -0.924,0.69 -0.928,-0.684 0.371,1.092 -0.938,0.672 L -0.349,-1.1 0,0 Z" id="path34" style="fill:#ffffff;fill-opacity:1;fill-rule:nonzero;stroke:none"/></g><g id="g36" transform="translate(13.0635,25.0801)"><path d="m 0,0 0.242,-0.78 0.817,0.006 -0.667,-0.471 0.257,-0.775 -0.654,0.488 -0.657,-0.484 0.263,0.773 -0.665,0.475 0.817,-0.01 L 0,0 Z" id="path38" style="fill:#ffffff;fill-opacity:1;fill-rule:nonzero;stroke:none"/></g><g id="g40" transform="translate(32,7)"><path d="m 0,0 -27,0 c 0,0 -0.266,0.172 -0.266,0.5 C -27.266,0.828 -27,1 -27,1 L 0,1 1.484,0.5 0,0 Z" id="path42" style="fill:#fed100;fill-opacity:1;fill-rule:nonzero;stroke:none"/></g><g id="g44" transform="translate(5,9)"><path d="M 0,0 C 0,0 5,2 11,8 17,14 21,18 23,19 21.247,17.247 19.23,5 24.23,1 24.23,1 27,0.479 27,0 L 0,0 Z" id="path46" style="fill:#fed100;fill-opacity:1;fill-rule:nonzero;stroke:none"/></g></g></g></g></svg>