<?xml version="1.0" encoding="UTF-8" standalone="no"?><svg xmlns="http://www.w3.org/2000/svg" xmlns:cc="http://creativecommons.org/ns#" xmlns:dc="http://purl.org/dc/elements/1.1/" xmlns:rdf="http://www.w3.org/1999/02/22-rdf-syntax-ns#" xmlns:svg="http://www.w3.org/2000/svg" height="45" id="svg2" style="enable-background:new 0 0 45 45;" version="1.1" viewBox="0 0 45 45" width="45" xml:space="preserve"><metadata id="metadata8"><rdf:RDF><cc:Work rdf:about=""><dc:format>image/svg+xml</dc:format><dc:type rdf:resource="http://purl.org/dc/dcmitype/StillImage"/></cc:Work></rdf:RDF></metadata><defs id="defs6"><clipPath clipPathUnits="userSpaceOnUse" id="clipPath16"><path d="M 0,36 36,36 36,0 0,0 0,36 Z" id="path18"/></clipPath></defs><g id="g10" transform="matrix(1.25,0,0,-1.25,0,45)"><g id="g12"><g clip-path="url(#clipPath16)" id="g14"><g id="g20" transform="translate(6,32)"><path d="m 0,0 c 3,0 5,-2 8,-6 3,-4 7.957,-7.191 12,-8 5,-1 9,-5 9,-11 0,-4.898 -3.846,-7 -9,-7 -5,0 -9,3 -14,8 -5,5 -10,14 -10,18 0,4 1,6 4,6" id="path22" style="fill:#744eaa;fill-opacity:1;fill-rule:nonzero;stroke:none"/></g><g id="g24" transform="translate(3.5146,36)"><path d="m 0,0 c 1.248,0 1.248,-1.248 1.248,-2.495 0,-1.764 1.247,-1.129 2.495,-1.129 C 4.99,-3.624 7.485,-6 7.485,-6 l -3.742,0 c -1.248,0 0,-2.614 -1.248,-2.614 -1.247,0 -1.247,1.188 -2.495,1.188 -1.248,0 -1.515,-3.574 -1.515,-3.574 0,0 -1.604,4.153 0.267,6.024 C 0,-3.728 -2.495,0 0,0" id="path26" style="fill:#77b255;fill-opacity:1;fill-rule:nonzero;stroke:none"/></g></g></g></g></svg>