<?xml version="1.0" encoding="UTF-8" standalone="no"?><svg xmlns="http://www.w3.org/2000/svg" xmlns:cc="http://creativecommons.org/ns#" xmlns:dc="http://purl.org/dc/elements/1.1/" xmlns:rdf="http://www.w3.org/1999/02/22-rdf-syntax-ns#" xmlns:svg="http://www.w3.org/2000/svg" height="45" id="svg2" style="enable-background:new 0 0 45 45;" version="1.1" viewBox="0 0 45 45" width="45" xml:space="preserve"><metadata id="metadata8"><rdf:RDF><cc:Work rdf:about=""><dc:format>image/svg+xml</dc:format><dc:type rdf:resource="http://purl.org/dc/dcmitype/StillImage"/></cc:Work></rdf:RDF></metadata><defs id="defs6"/><g id="g10" transform="matrix(1.25,0,0,-1.25,0,45)"><path d="m 29,11 6,0 0,14 -6,0 0,-14 z" id="path12" style="fill:#bbddf5;fill-opacity:1;fill-rule:nonzero;stroke:none"/><path d="M 1,11 7,11 7,25 1,25 1,11 Z" id="path14" style="fill:#bbddf5;fill-opacity:1;fill-rule:nonzero;stroke:none"/><path d="M 9,11 27,11 27,25 9,25 9,11 Z" id="path16" style="fill:#bbddf5;fill-opacity:1;fill-rule:nonzero;stroke:none"/><path d="m 27,11 -18,0 0,14 18,0 0,-14 z m 8,14 0,5 -34,0 0,-5 6,0 0,-14 -6,0 0,-5 34,0 0,5 -6,0 0,14 6,0 z" id="path18" style="fill:#231f20;fill-opacity:1;fill-rule:nonzero;stroke:none"/><path d="m 31,26 2,0 0,3 -2,0 0,-3 z" id="path20" style="fill:#f5f8fa;fill-opacity:1;fill-rule:nonzero;stroke:none"/><path d="m 27,26 2,0 0,3 -2,0 0,-3 z" id="path22" style="fill:#f5f8fa;fill-opacity:1;fill-rule:nonzero;stroke:none"/><path d="m 23,26 2,0 0,3 -2,0 0,-3 z" id="path24" style="fill:#f5f8fa;fill-opacity:1;fill-rule:nonzero;stroke:none"/><path d="m 19,26 2,0 0,3 -2,0 0,-3 z" id="path26" style="fill:#f5f8fa;fill-opacity:1;fill-rule:nonzero;stroke:none"/><path d="m 15,26 2,0 0,3 -2,0 0,-3 z" id="path28" style="fill:#f5f8fa;fill-opacity:1;fill-rule:nonzero;stroke:none"/><path d="m 11,26 2,0 0,3 -2,0 0,-3 z" id="path30" style="fill:#f5f8fa;fill-opacity:1;fill-rule:nonzero;stroke:none"/><path d="m 7,26 2,0 0,3 -2,0 0,-3 z" id="path32" style="fill:#f5f8fa;fill-opacity:1;fill-rule:nonzero;stroke:none"/><path d="m 3,26 2,0 0,3 -2,0 0,-3 z" id="path34" style="fill:#f5f8fa;fill-opacity:1;fill-rule:nonzero;stroke:none"/><path d="m 31,7 2,0 0,3 -2,0 0,-3 z" id="path36" style="fill:#f5f8fa;fill-opacity:1;fill-rule:nonzero;stroke:none"/><path d="m 27,7 2,0 0,3 -2,0 0,-3 z" id="path38" style="fill:#f5f8fa;fill-opacity:1;fill-rule:nonzero;stroke:none"/><path d="m 23,7 2,0 0,3 -2,0 0,-3 z" id="path40" style="fill:#f5f8fa;fill-opacity:1;fill-rule:nonzero;stroke:none"/><path d="m 19,7 2,0 0,3 -2,0 0,-3 z" id="path42" style="fill:#f5f8fa;fill-opacity:1;fill-rule:nonzero;stroke:none"/><path d="m 15,7 2,0 0,3 -2,0 0,-3 z" id="path44" style="fill:#f5f8fa;fill-opacity:1;fill-rule:nonzero;stroke:none"/><path d="m 11,7 2,0 0,3 -2,0 0,-3 z" id="path46" style="fill:#f5f8fa;fill-opacity:1;fill-rule:nonzero;stroke:none"/><path d="M 7,7 9,7 9,10 7,10 7,7 Z" id="path48" style="fill:#f5f8fa;fill-opacity:1;fill-rule:nonzero;stroke:none"/><path d="M 3,7 5,7 5,10 3,10 3,7 Z" id="path50" style="fill:#f5f8fa;fill-opacity:1;fill-rule:nonzero;stroke:none"/><path d="m 29,11 1,0 0,14 -1,0 0,-14 z" id="path52" style="fill:#88c9f9;fill-opacity:1;fill-rule:nonzero;stroke:none"/><path d="m 9,11 1,0 0,14 -1,0 0,-14 z" id="path54" style="fill:#88c9f9;fill-opacity:1;fill-rule:nonzero;stroke:none"/></g></svg>