<?xml version="1.0" encoding="UTF-8" standalone="no"?><svg xmlns="http://www.w3.org/2000/svg" xmlns:cc="http://creativecommons.org/ns#" xmlns:dc="http://purl.org/dc/elements/1.1/" xmlns:rdf="http://www.w3.org/1999/02/22-rdf-syntax-ns#" xmlns:svg="http://www.w3.org/2000/svg" height="45" id="svg2" style="enable-background:new 0 0 45 45;" version="1.1" viewBox="0 0 45 45" width="45" xml:space="preserve"><metadata id="metadata8"><rdf:RDF><cc:Work rdf:about=""><dc:format>image/svg+xml</dc:format><dc:type rdf:resource="http://purl.org/dc/dcmitype/StillImage"/></cc:Work></rdf:RDF></metadata><defs id="defs6"><clipPath clipPathUnits="userSpaceOnUse" id="clipPath16"><path d="M 0,36 36,36 36,0 0,0 0,36 Z" id="path18"/></clipPath></defs><g id="g10" transform="matrix(1.25,0,0,-1.25,0,45)"><g id="g12"><g clip-path="url(#clipPath16)" id="g14"><g id="g20" transform="translate(34.751,14)"><path d="m 0,0 c -3.382,0 -11.9,-3.549 -15.751,-7.158 l 0,12.158 c 0,0.553 -0.447,1 -1,1 -0.552,0 -1,-0.447 -1,-1 l 0,-12.341 C -21.504,-3.669 -30.26,0 -33.699,0 c -0.929,0 10.861,-13.992 15.948,-12.599 l 0,-0.401 c 0,-0.553 0.448,-1 1,-1 0.553,0 1,0.447 1,1 l 0,0.356 C -10.563,-13.638 0.917,0 0,0" id="path22" style="fill:#77b255;fill-opacity:1;fill-rule:nonzero;stroke:none"/></g><g id="g24" transform="translate(25,22.5835)"><path d="m 0,0 c 0,-6.351 -1.707,-9.583 -7,-9.583 -5.294,0 -7,3.232 -7,9.583 0,6.351 5,13.417 7,13.417 2,0 7,-7.066 7,-13.417" id="path26" style="fill:#ea596e;fill-opacity:1;fill-rule:nonzero;stroke:none"/></g><g id="g28" transform="translate(22.7949,34)"><path d="M 0,0 C -0.48,0 -4.106,-14.271 -4.803,-19.279 -5.549,-14.271 -9.314,0 -9.795,0 c -1,0 -6,-9 -6,-13 0,-4 5.707,-8 11,-8 C 0.498,-21 6,-17 6,-13 6,-9 1,0 0,0" id="path30" style="fill:#f4abba;fill-opacity:1;fill-rule:nonzero;stroke:none"/></g></g></g></g></svg>