<?xml version="1.0" encoding="UTF-8" standalone="no"?><svg xmlns="http://www.w3.org/2000/svg" xmlns:cc="http://creativecommons.org/ns#" xmlns:dc="http://purl.org/dc/elements/1.1/" xmlns:rdf="http://www.w3.org/1999/02/22-rdf-syntax-ns#" xmlns:svg="http://www.w3.org/2000/svg" height="45" id="svg2" style="enable-background:new 0 0 45 45;" version="1.1" viewBox="0 0 45 45" width="45" xml:space="preserve"><metadata id="metadata8"><rdf:RDF><cc:Work rdf:about=""><dc:format>image/svg+xml</dc:format><dc:type rdf:resource="http://purl.org/dc/dcmitype/StillImage"/></cc:Work></rdf:RDF></metadata><defs id="defs6"><clipPath clipPathUnits="userSpaceOnUse" id="clipPath16"><path d="M 0,36 36,36 36,0 0,0 0,36 Z" id="path18"/></clipPath></defs><g id="g10" transform="matrix(1.25,0,0,-1.25,0,45)"><g id="g12"><g clip-path="url(#clipPath16)" id="g14"><g id="g20" transform="translate(3.9233,13.0771)"><path d="m 0,0 c -0.212,-0.511 -0.798,-0.751 -1.308,-0.539 -0.509,0.213 -0.751,0.798 -0.538,1.308 L 2.77,13.307 c 0.212,0.51 0.797,0.751 1.307,0.539 0.51,-0.213 0.751,-0.798 0.539,-1.308 L 0,0 Z" id="path22" style="fill:#66757f;fill-opacity:1;fill-rule:nonzero;stroke:none"/></g><g id="g24" transform="translate(13.9229,13.8457)"><path d="m 0,0 c 0.212,-0.51 -0.029,-1.095 -0.539,-1.308 -0.509,-0.212 -1.095,0.029 -1.307,0.539 L -6.462,11.77 c -0.212,0.509 0.029,1.095 0.539,1.307 0.509,0.213 1.095,-0.029 1.307,-0.538 L 0,0 Z" id="path26" style="fill:#66757f;fill-opacity:1;fill-rule:nonzero;stroke:none"/></g><g id="g28" transform="translate(23.9238,13.0771)"><path d="m 0,0 c -0.213,-0.511 -0.799,-0.751 -1.309,-0.539 -0.509,0.213 -0.75,0.798 -0.538,1.308 L 2.77,13.307 c 0.212,0.51 0.796,0.751 1.306,0.539 0.51,-0.213 0.752,-0.798 0.539,-1.308 L 0,0 Z" id="path30" style="fill:#66757f;fill-opacity:1;fill-rule:nonzero;stroke:none"/></g><g id="g32" transform="translate(33.9229,13.8457)"><path d="m 0,0 c 0.212,-0.51 -0.028,-1.095 -0.538,-1.308 -0.51,-0.212 -1.096,0.029 -1.309,0.539 L -6.462,11.77 c -0.213,0.509 0.029,1.095 0.539,1.307 0.51,0.213 1.095,-0.029 1.307,-0.538 L 0,0 Z" id="path34" style="fill:#66757f;fill-opacity:1;fill-rule:nonzero;stroke:none"/></g><g id="g36" transform="translate(14.8569,14)"><path d="m 0,0 -13.714,0 c -0.631,0 -1.143,-0.511 -1.143,-1.143 0,-2.524 3.582,-4.571 8,-4.571 4.419,0 8,2.047 8,4.571 C 1.143,-0.511 0.631,0 0,0" id="path38" style="fill:#ffac33;fill-opacity:1;fill-rule:nonzero;stroke:none"/></g><g id="g40" transform="translate(24,2)"><path d="m 0,0 -12,0 c -0.552,0 -1,0.447 -1,1 0,2.209 3.134,4 7,4 C -2.134,5 1,3.209 1,1 1,0.447 0.553,0 0,0" id="path42" style="fill:#ffac33;fill-opacity:1;fill-rule:nonzero;stroke:none"/></g><g id="g44" transform="translate(34.8574,14)"><path d="m 0,0 -13.715,0 c -0.632,0 -1.142,-0.511 -1.142,-1.143 0,-2.524 3.581,-4.571 8,-4.571 4.418,0 8,2.047 8,4.571 C 1.143,-0.511 0.632,0 0,0" id="path46" style="fill:#ffac33;fill-opacity:1;fill-rule:nonzero;stroke:none"/></g><g id="g48" transform="translate(19,33)"><path d="M 0,0 C 0,0.552 -0.447,1 -1,1 -1.552,1 -2,0.552 -2,0 l 0,-27 c 0,-0.553 0.448,-1 1,-1 0.553,0 1,0.447 1,1 L 0,0 Z" id="path50" style="fill:#ffac33;fill-opacity:1;fill-rule:nonzero;stroke:none"/></g><g id="g52" transform="translate(20,32)"><path d="m 0,0 c 0,-1.104 -0.895,-2 -2,-2 -1.104,0 -2,0.896 -2,2 0,1.105 0.896,2 2,2 1.105,0 2,-0.895 2,-2" id="path54" style="fill:#ffac33;fill-opacity:1;fill-rule:nonzero;stroke:none"/></g><g id="g56" transform="translate(10,26)"><path d="m 0,0 c 0,-1.104 -0.895,-2 -2,-2 -1.104,0 -2,0.896 -2,2 0,1.105 0.896,2 2,2 1.105,0 2,-0.895 2,-2" id="path58" style="fill:#ffac33;fill-opacity:1;fill-rule:nonzero;stroke:none"/></g><g id="g60" transform="translate(30,26)"><path d="m 0,0 c 0,-1.104 -0.895,-2 -2,-2 -1.104,0 -2,0.896 -2,2 0,1.105 0.896,2 2,2 1.105,0 2,-0.895 2,-2" id="path62" style="fill:#ffac33;fill-opacity:1;fill-rule:nonzero;stroke:none"/></g><g id="g64" transform="translate(28,26)"><path d="m 0,0 c 0,-1.104 0,0 -10,0 -10,0 -10,-1.104 -10,0 0,1.105 3,4 10,4 C -3,4 0,1.105 0,0" id="path66" style="fill:#ffac33;fill-opacity:1;fill-rule:nonzero;stroke:none"/></g></g></g></g></svg>