<?xml version="1.0" encoding="UTF-8" standalone="no"?><svg xmlns="http://www.w3.org/2000/svg" xmlns:cc="http://creativecommons.org/ns#" xmlns:dc="http://purl.org/dc/elements/1.1/" xmlns:rdf="http://www.w3.org/1999/02/22-rdf-syntax-ns#" xmlns:svg="http://www.w3.org/2000/svg" height="45" id="svg2" style="enable-background:new 0 0 45 45;" version="1.1" viewBox="0 0 45 45" width="45" xml:space="preserve"><metadata id="metadata8"><rdf:RDF><cc:Work rdf:about=""><dc:format>image/svg+xml</dc:format><dc:type rdf:resource="http://purl.org/dc/dcmitype/StillImage"/></cc:Work></rdf:RDF></metadata><defs id="defs6"><clipPath clipPathUnits="userSpaceOnUse" id="clipPath16"><path d="M 0,36 36,36 36,0 0,0 0,36 Z" id="path18"/></clipPath></defs><g id="g10" transform="matrix(1.25,0,0,-1.25,0,45)"><g id="g12"><g clip-path="url(#clipPath16)" id="g14"><g id="g20" transform="translate(36,33)"><path d="m 0,0 c -1,-1.295 -3.027,-3.803 -4.391,-5.671 -3.815,-5.225 -7.156,-6.454 -10.328,-7.632 -3.172,-1.177 -10.407,-1.029 -13.88,-0.853 -3.472,0.175 -5.735,0.579 -6.42,-0.415 -2.101,-3.053 -0.611,-6.482 2.427,-6.949 2.378,-0.367 9.544,0.32 12.899,0.616 3.356,0.297 7.024,1.3 8.283,1.785 1.259,0.483 2.279,0.88 2.597,1.643 0.318,0.765 1.876,2.818 3.783,5.917 C -3.955,-9.811 -1,-6.55 0,-5 l 0,5 z" id="path22" style="fill:#f4900c;fill-opacity:1;fill-rule:nonzero;stroke:none"/></g><g id="g24" transform="translate(7,11.4092)"><path d="m 0,0 c 3,0.114 7.055,0.487 9.309,0.687 2.289,0.202 4.704,0.732 6.42,1.203 L 15.305,8.673 C 14.961,8.542 14.619,8.414 14.28,8.288 11.108,7.11 3.876,7.259 0.403,7.435 0.262,7.441 0,7.451 0,7.459 L 0,0 Z" id="path26" style="fill:#292f33;fill-opacity:1;fill-rule:nonzero;stroke:none"/></g><g id="g28" transform="translate(17,8)"><path d="m 0,0 0,-4 c 0,-1.105 3.135,-2 7,-2 3.866,0 7,0.895 7,2 L 14,0 0,0 Z" id="path30" style="fill:#231f20;fill-opacity:1;fill-rule:nonzero;stroke:none"/></g><g id="g32" transform="translate(30.9961,8)"><path d="m 0,0 c 0,-1.104 -3.134,-2 -7,-2 -3.865,0 -7,0.896 -7,2 0,1.105 3.135,2 7,2 3.866,0 7,-0.895 7,-2" id="path34" style="fill:#58595b;fill-opacity:1;fill-rule:nonzero;stroke:none"/></g></g></g></g></svg>