<?xml version="1.0" encoding="UTF-8" standalone="no"?><svg xmlns="http://www.w3.org/2000/svg" xmlns:cc="http://creativecommons.org/ns#" xmlns:dc="http://purl.org/dc/elements/1.1/" xmlns:rdf="http://www.w3.org/1999/02/22-rdf-syntax-ns#" xmlns:svg="http://www.w3.org/2000/svg" height="45" id="svg2" style="enable-background:new 0 0 45 45;" version="1.1" viewBox="0 0 45 45" width="45" xml:space="preserve"><metadata id="metadata8"><rdf:RDF><cc:Work rdf:about=""><dc:format>image/svg+xml</dc:format><dc:type rdf:resource="http://purl.org/dc/dcmitype/StillImage"/></cc:Work></rdf:RDF></metadata><defs id="defs6"><clipPath clipPathUnits="userSpaceOnUse" id="clipPath16"><path d="M 0,36 36,36 36,0 0,0 0,36 Z" id="path18"/></clipPath></defs><g id="g10" transform="matrix(1.25,0,0,-1.25,0,45)"><g id="g12"><g clip-path="url(#clipPath16)" id="g14"><g id="g20" transform="translate(31,4)"><path d="m 0,0 c 0,-2.209 -1.791,-4 -4,-4 l -22,0 c -2.209,0 -4,1.791 -4,4 l 0,28 c 0,2.209 1.791,4 4,4 l 22,0 c 2.209,0 4,-1.791 4,-4 L 0,0 Z" id="path22" style="fill:#ccd6dd;fill-opacity:1;fill-rule:nonzero;stroke:none"/></g><g id="g24" transform="translate(27,12)"><path d="m 0,0 c 0,-0.553 -0.447,-1 -1,-1 l -20,0 c -0.552,0 -1,0.447 -1,1 0,0.553 0.448,1 1,1 L -1,1 C -0.447,1 0,0.553 0,0" id="path26" style="fill:#99aab5;fill-opacity:1;fill-rule:nonzero;stroke:none"/></g><g id="g28" transform="translate(11,8)"><path d="m 0,0 c 0,-0.553 -0.448,-1 -1,-1 l -4,0 c -0.552,0 -1,0.447 -1,1 0,0.553 0.448,1 1,1 l 4,0 C -0.448,1 0,0.553 0,0" id="path30" style="fill:#99aab5;fill-opacity:1;fill-rule:nonzero;stroke:none"/></g><g id="g32" transform="translate(27,28)"><path d="m 0,0 c 0,-0.552 -0.447,-1 -1,-1 l -20,0 c -0.552,0 -1,0.448 -1,1 0,0.552 0.448,1 1,1 L -1,1 C -0.447,1 0,0.552 0,0" id="path34" style="fill:#99aab5;fill-opacity:1;fill-rule:nonzero;stroke:none"/></g><g id="g36" transform="translate(27,24)"><path d="m 0,0 c 0,-0.553 -0.447,-1 -1,-1 l -20,0 c -0.552,0 -1,0.447 -1,1 0,0.553 0.448,1 1,1 L -1,1 C -0.447,1 0,0.553 0,0" id="path38" style="fill:#99aab5;fill-opacity:1;fill-rule:nonzero;stroke:none"/></g><g id="g40" transform="translate(27,20)"><path d="m 0,0 c 0,-0.553 -0.447,-1 -1,-1 l -20,0 c -0.552,0 -1,0.447 -1,1 0,0.553 0.448,1 1,1 L -1,1 C -0.447,1 0,0.553 0,0" id="path42" style="fill:#99aab5;fill-opacity:1;fill-rule:nonzero;stroke:none"/></g><g id="g44" transform="translate(27,16)"><path d="m 0,0 c 0,-0.553 -0.447,-1 -1,-1 l -20,0 c -0.552,0 -1,0.447 -1,1 0,0.553 0.448,1 1,1 L -1,1 C -0.447,1 0,0.553 0,0" id="path46" style="fill:#99aab5;fill-opacity:1;fill-rule:nonzero;stroke:none"/></g><g id="g48" transform="translate(31,29.728)"><path d="m 0,0 c -0.827,0.535 -1.837,0.579 -2.52,0.023 l -0.793,-0.646 -1.484,-1.211 -0.099,-0.08 -2.376,-1.938 -11.879,-9.686 c -0.437,-0.357 -0.793,-1.218 -1.173,-2.074 -0.379,-0.849 -0.97,-2.851 -1.443,-4.39 -0.148,-0.25 -1.065,-1.846 -0.551,-2.454 0.519,-0.615 2.326,-0.009 2.568,0.077 1.626,0.173 3.731,0.373 4.648,0.58 0.925,0.211 1.854,0.394 2.291,0.752 0.008,0.006 0.01,0.017 0.018,0.023 l 11.857,9.666 0.792,0.646 L 0,-10.595 0,0 Z" id="path50" style="fill:#66757f;fill-opacity:1;fill-rule:nonzero;stroke:none"/></g><g id="g52" transform="translate(18.1445,13.4736)"><path d="m 0,0 c 0,0 -1.274,1.881 -2.117,2.553 -0.672,0.842 -2.55,2.116 -2.55,2.116 -0.448,0.446 -1.191,0.48 -1.628,0.043 C -6.732,4.274 -7.088,3.346 -7.469,2.421 -7.94,1.275 -8.745,-1.733 -9.237,-3.331 c -0.083,-0.273 0.517,0.45 0.504,0.21 -0.01,-0.187 0.027,-0.394 0.073,-0.581 -0.085,-0.093 -0.145,-0.158 -0.145,-0.158 0.056,-0.019 0.128,-0.042 0.209,-0.068 0.025,-0.082 0.05,-0.154 0.068,-0.21 0,0 0.066,0.061 0.159,0.146 0.187,-0.047 0.394,-0.084 0.581,-0.074 0.24,0.013 -0.483,-0.587 -0.211,-0.503 1.598,0.493 4.608,1.296 5.753,1.767 0.924,0.381 1.854,0.737 2.291,1.174 C 0.482,-1.191 0.449,-0.448 0,0" id="path54" style="fill:#d99e82;fill-opacity:1;fill-rule:nonzero;stroke:none"/></g><g id="g56" transform="translate(25.3125,31.6489)"><path d="m 0,0 c -0.876,-0.875 -0.876,-2.293 0,-3.168 l 3.167,-3.168 c 0.876,-0.874 2.294,-0.874 3.168,0 l 3.169,3.168 c 0.874,0.875 0.874,2.293 0,3.168 L 6.335,3.168 c -0.874,0.875 -2.292,0.875 -3.168,0 L 0,0 Z" id="path58" style="fill:#ea596e;fill-opacity:1;fill-rule:nonzero;stroke:none"/></g><g id="g60" transform="translate(11.8491,18.1855)"><path d="M 0,0 C 0,0 0.795,-0.795 3.17,-3.17 5.544,-5.544 6.334,-6.336 6.334,-6.336 L 18.215,5.543 11.878,11.879 0,0 Z" id="path62" style="fill:#ffcc4d;fill-opacity:1;fill-rule:nonzero;stroke:none"/></g><g id="g64" transform="translate(11.2979,9.2578)"><path d="m 0,0 c 0,0 -2.06,-1.133 -2.616,-0.576 -0.557,0.558 0.581,2.611 0.581,2.611 0,0 1.952,-0.036 2.035,-2.035" id="path66" style="fill:#292f33;fill-opacity:1;fill-rule:nonzero;stroke:none"/></g><g id="g68" transform="translate(27.6875,34.0249)"><path d="M 0,0 6.336,-6.336 2.377,-10.296 -3.96,-3.96 0,0 Z" id="path70" style="fill:#ccd6dd;fill-opacity:1;fill-rule:nonzero;stroke:none"/></g><g id="g72" transform="translate(26.1035,32.4409)"><path d="M 0,0 6.336,-6.335 7.129,-5.544 0.793,0.792 0,0 Z" id="path74" style="fill:#99aab5;fill-opacity:1;fill-rule:nonzero;stroke:none"/></g><g id="g76" transform="translate(24.5205,30.8569)"><path d="M 0,0 6.336,-6.336 7.127,-5.544 0.792,0.792 0,0 Z" id="path78" style="fill:#99aab5;fill-opacity:1;fill-rule:nonzero;stroke:none"/></g></g></g></g></svg>