<?xml version="1.0" encoding="UTF-8" standalone="no"?><svg xmlns="http://www.w3.org/2000/svg" xmlns:cc="http://creativecommons.org/ns#" xmlns:dc="http://purl.org/dc/elements/1.1/" xmlns:rdf="http://www.w3.org/1999/02/22-rdf-syntax-ns#" xmlns:svg="http://www.w3.org/2000/svg" height="45" id="svg2" style="enable-background:new 0 0 45 45;" version="1.1" viewBox="0 0 45 45" width="45" xml:space="preserve"><metadata id="metadata8"><rdf:RDF><cc:Work rdf:about=""><dc:format>image/svg+xml</dc:format><dc:type rdf:resource="http://purl.org/dc/dcmitype/StillImage"/></cc:Work></rdf:RDF></metadata><defs id="defs6"><clipPath clipPathUnits="userSpaceOnUse" id="clipPath16"><path d="M 0,36 36,36 36,0 0,0 0,36 Z" id="path18"/></clipPath><clipPath clipPathUnits="userSpaceOnUse" id="clipPath70"><path d="M 0,0 33,0 33,36 0,36 0,0 Z" id="path72"/></clipPath><clipPath clipPathUnits="userSpaceOnUse" id="clipPath90"><path d="M 12,9 C 8.687,9 5,6.815 5,3.5 L 5,3.5 5,0 31,0 31,3.5 C 31,6.815 27.314,9 24,9 l 0,0 -12,0 z" id="path92"/></clipPath><clipPath clipPathUnits="userSpaceOnUse" id="clipPath102"><path d="M 0,0 33,0 33,36 0,36 0,0 Z" id="path104"/></clipPath><clipPath clipPathUnits="userSpaceOnUse" id="clipPath118"><path d="M 0,36 36,36 36,0 0,0 0,36 Z" id="path120"/></clipPath><clipPath clipPathUnits="userSpaceOnUse" id="clipPath130"><path d="M 17.997,36 C 13,36 10.874,34.663 9,32 l 0,0 C 7.007,29.169 9,27 6,25 l 0,0 c -1.861,-1.24 6,-2.313 12,-2.313 l 0,0 c 6,0 13.86,1.073 12,2.313 l 0,0 c -3,2 -1.007,4.169 -3,7 l 0,0 c -1.874,2.663 -5,4 -9.003,4 z" id="path132"/></clipPath></defs><g id="g10" transform="matrix(1.25,0,0,-1.25,0,45)"><g id="g12"><g clip-path="url(#clipPath16)" id="g14"><g id="g20" transform="translate(31,0)"><path d="M 0,0 0,3.5 C 0,6.814 -3.686,9 -7,9 l -12,0 c -3.313,0 -7,-2.186 -7,-5.5 L -26,0 0,0 Z" id="path22" style="fill:#f2760f;fill-opacity:1;fill-rule:nonzero;stroke:none"/></g><g id="g24" transform="translate(17.9453,30.9307)"><path d="m 0,0 c 4.105,0 10.947,-2.053 10.947,-10.947 0,-8.896 0,-10.948 -2.052,-10.948 -2.053,0 -4.79,2.052 -8.895,2.052 -4.105,0 -6.785,-2.052 -8.895,-2.052 -2.288,0 -2.054,8.21 -2.054,10.948 C -10.949,-2.053 -4.105,0 0,0" id="path26" style="fill:#60352a;fill-opacity:1;fill-rule:nonzero;stroke:none"/></g><g id="g28" transform="translate(14,9)"><path d="M 0,0 8,0 C 8,0 6.982,-5 4,-5 1.018,-5 0,0 0,0" id="path30" style="fill:#292f33;fill-opacity:1;fill-rule:nonzero;stroke:none"/></g><path d="M 23,5 13,5 13,9 23,9 23,5 Z" id="path32" style="fill:#292f33;fill-opacity:1;fill-rule:nonzero;stroke:none"/><g id="g34" transform="translate(14.3281,8.9824)"><path d="m 0,0 c 1.466,-1.065 2.964,-0.98 3.672,-0.98 0.708,0 2.194,-0.085 3.66,0.98 l 0,3.203 L 0,3.203 0,0 Z" id="path36" style="fill:#af7e57;fill-opacity:1;fill-rule:nonzero;stroke:none"/></g><g id="g38" transform="translate(14.3223,10.8213)"><path d="m 0,0 c 1.022,-1.155 2.29,-1.468 3.668,-1.468 1.379,0 2.647,0.313 3.67,1.468 l 0,2.936 L 0,2.936 0,0 Z" id="path40" style="fill:#9b6a49;fill-opacity:1;fill-rule:nonzero;stroke:none"/></g><g id="g42" transform="translate(9.7339,20.2822)"><path d="m 0,0 c 0,5.834 3.676,10.564 8.211,10.564 4.534,0 8.209,-4.73 8.209,-10.564 0,-5.833 -3.675,-10.285 -8.209,-10.285 C 3.676,-10.285 0,-5.833 0,0" id="path44" style="fill:#af7e57;fill-opacity:1;fill-rule:nonzero;stroke:none"/></g><g id="g46" transform="translate(17.9453,12.457)"><path d="m 0,0 c -1.606,0 -2.447,0.794 -2.537,0.885 -0.268,0.266 -0.268,0.7 0,0.967 0.266,0.264 0.692,0.266 0.961,0.006 C -1.541,1.826 -1.025,1.367 0,1.367 1.038,1.367 1.555,1.84 1.576,1.859 1.85,2.115 2.279,2.107 2.539,1.84 2.799,1.571 2.799,1.148 2.535,0.885 2.445,0.794 1.605,0 0,0" id="path48" style="fill:#df1f32;fill-opacity:1;fill-rule:nonzero;stroke:none"/></g><g id="g50" transform="translate(7.7251,17)"><path d="m 0,0 c -0.021,1 -0.044,0.224 -0.044,0.465 0,3.422 2.053,-0.494 2.053,1.943 0,2.439 1.368,2.683 2.737,4.051 0.684,0.685 2.052,2.026 2.052,2.026 0,0 3.421,-2.067 6.158,-2.067 2.737,0 5.474,-1.375 5.474,-4.112 0,-2.737 2.053,1.584 2.053,-1.837 C 20.483,0.225 20.46,1 20.443,0 l 0.719,0 c 0.005,2 0.005,1.924 0.005,3.202 0,8.895 -6.841,12.207 -10.948,12.207 C 6.115,15.409 -0.728,12.152 -0.728,3.257 -0.728,2.464 -0.748,2 -0.72,0 L 0,0 Z" id="path52" style="fill:#60352a;fill-opacity:1;fill-rule:nonzero;stroke:none"/></g><g id="g54" transform="translate(14.6084,18.1133)"><path d="m 0,0 0,0 c -0.465,0 -0.846,0.381 -0.846,0.847 l 0,0.844 c 0,0.465 0.381,0.846 0.846,0.846 0.466,0 0.847,-0.381 0.847,-0.846 l 0,-0.844 C 0.847,0.381 0.466,0 0,0" id="path56" style="fill:#60352a;fill-opacity:1;fill-rule:nonzero;stroke:none"/></g><g id="g58" transform="translate(21.373,18.1133)"><path d="m 0,0 0,0 c -0.465,0 -0.846,0.381 -0.846,0.847 l 0,0.844 c 0,0.465 0.381,0.846 0.846,0.846 0.465,0 0.846,-0.381 0.846,-0.846 l 0,-0.844 C 0.846,0.381 0.465,0 0,0" id="path60" style="fill:#60352a;fill-opacity:1;fill-rule:nonzero;stroke:none"/></g><g id="g62" transform="translate(18.8359,15.5)"><path d="m 0,0 -1.69,0 c -0.234,0 -0.423,0.189 -0.423,0.423 l 0,0.153 C -2.113,0.81 -1.924,1 -1.69,1 L 0,1 C 0.233,1 0.424,0.81 0.424,0.576 l 0,-0.153 C 0.424,0.189 0.233,0 0,0" id="path64" style="fill:#915a34;fill-opacity:1;fill-rule:nonzero;stroke:none"/></g></g></g><g id="g66"><g clip-path="url(#clipPath70)" id="g68"><g id="g74" transform="translate(11.4443,20.0645)"><path d="m 0,0 c 0,-1.448 -0.734,-2.622 -1.639,-2.622 -0.905,0 -1.639,1.174 -1.639,2.622 0,1.448 0.734,2.623 1.639,2.623 C -0.734,2.623 0,1.448 0,0" id="path76" style="fill:#af7e57;fill-opacity:1;fill-rule:nonzero;stroke:none"/></g><g id="g78" transform="translate(27.833,20.0645)"><path d="m 0,0 c 0,-1.448 -0.733,-2.622 -1.639,-2.622 -0.905,0 -1.638,1.174 -1.638,2.622 0,1.448 0.733,2.623 1.638,2.623 C -0.733,2.623 0,1.448 0,0" id="path80" style="fill:#af7e57;fill-opacity:1;fill-rule:nonzero;stroke:none"/></g><g id="g82" transform="translate(19,1.0625)"><path d="m 0,0 -1,-1.062 -1,1 -1,4 3.5,0 L 0,0 Z" id="path84" style="fill:#292f33;fill-opacity:1;fill-rule:nonzero;stroke:none"/></g></g></g><g id="g86"><g clip-path="url(#clipPath90)" id="g88"><path d="m 27,0 -3,0 0,9 3,0 0,-9 z" id="path94" style="fill:#fff75f;fill-opacity:1;fill-rule:nonzero;stroke:none"/><path d="M 12,0 9,0 9,9 12,9 12,0 Z" id="path96" style="fill:#fff75f;fill-opacity:1;fill-rule:nonzero;stroke:none"/></g></g><g id="g98"><g clip-path="url(#clipPath102)" id="g100"><g id="g106" transform="translate(10.5,9)"><path d="M 0,0 C 0,-1.068 1.5,-3.662 3.5,-5.798 5.081,-7.485 7.5,-9 7.5,-9 c 0,3.271 -1,4.27 -2,5.338 -1,1.066 -3,1.526 -3,3.662 C 2.5,1.066 0,0 0,0" id="path108" style="fill:#55acee;fill-opacity:1;fill-rule:nonzero;stroke:none"/></g><g id="g110" transform="translate(25.5,9)"><path d="M 0,0 C 0,-1.068 -1.5,-3.662 -3.5,-5.798 -5.081,-7.485 -7.5,-9 -7.5,-9 c 0,3.271 1,4.27 2,5.338 1,1.066 3,1.526 3,3.662 0,1.066 2.5,0 2.5,0" id="path112" style="fill:#55acee;fill-opacity:1;fill-rule:nonzero;stroke:none"/></g></g></g><g id="g114"><g clip-path="url(#clipPath118)" id="g116"><g id="g122" transform="translate(30,25)"><path d="m 0,0 c -3,2 -1.008,4.169 -3,7 -1.874,2.663 -5,4 -9.003,4 C -17,11 -19.126,9.663 -21,7 c -1.992,-2.831 0,-5 -3,-7 -1.861,-1.24 6,-2.313 12,-2.313 6,0 13.861,1.073 12,2.313" id="path124" style="fill:#fff75f;fill-opacity:1;fill-rule:nonzero;stroke:none"/></g></g></g><g id="g126"><g clip-path="url(#clipPath130)" id="g128"><g id="g134" transform="translate(16,24.5)"><path d="m 0,0 -0.5,0 c -3.604,0 -10.687,1.035 -12.724,2.053 -0.247,0.123 -0.347,0.424 -0.223,0.671 0.124,0.247 0.424,0.346 0.671,0.223 C -10.983,2.05 -4.591,1.093 -1,1.006 L -1,11.5 C -1,11.776 -0.776,12 -0.5,12 -0.224,12 0,11.776 0,11.5 L 0,0 Z" id="path136" style="fill:#ffac33;fill-opacity:1;fill-rule:nonzero;stroke:none"/></g><g id="g138" transform="translate(20.5,24.5)"><path d="m 0,0 -0.5,0 0,11.5 c 0,0.276 0.224,0.5 0.5,0.5 0.276,0 0.5,-0.224 0.5,-0.5 L 0.5,1.004 C 5.042,1.076 14.513,2.065 16.276,2.947 16.524,3.069 16.823,2.971 16.947,2.724 17.07,2.477 16.971,2.176 16.724,2.053 14.603,0.993 3.941,0 0,0" id="path140" style="fill:#ffac33;fill-opacity:1;fill-rule:nonzero;stroke:none"/></g></g></g></g></svg>