<?xml version="1.0" encoding="UTF-8" standalone="no"?><svg xmlns="http://www.w3.org/2000/svg" xmlns:cc="http://creativecommons.org/ns#" xmlns:dc="http://purl.org/dc/elements/1.1/" xmlns:rdf="http://www.w3.org/1999/02/22-rdf-syntax-ns#" xmlns:svg="http://www.w3.org/2000/svg" height="45" id="svg2" style="enable-background:new 0 0 45 45;" version="1.1" viewBox="0 0 45 45" width="45" xml:space="preserve"><metadata id="metadata8"><rdf:RDF><cc:Work rdf:about=""><dc:format>image/svg+xml</dc:format><dc:type rdf:resource="http://purl.org/dc/dcmitype/StillImage"/></cc:Work></rdf:RDF></metadata><defs id="defs6"><clipPath clipPathUnits="userSpaceOnUse" id="clipPath16"><path d="M 0,36 36,36 36,0 0,0 0,36 Z" id="path18"/></clipPath></defs><g id="g10" transform="matrix(1.25,0,0,-1.25,0,45)"><g id="g12"><g clip-path="url(#clipPath16)" id="g14"><g id="g20" transform="translate(33.207,16.2266)"><path d="m 0,0 -8.868,8.855 -13.234,-13.622 8.684,-8.684 10e-4,0.001 c 1.719,-1.716 4.091,-2.777 6.71,-2.777 5.246,0 9.5,4.254 9.5,9.5 C 2.793,-4.099 1.725,-1.72 0,0" id="path22" style="fill:#bb1a34;fill-opacity:1;fill-rule:nonzero;stroke:none"/></g><g id="g24" transform="translate(15.9214,33.4868)"><path d="m 0,0 c -1.692,1.556 -3.942,2.513 -6.421,2.513 -5.247,0 -9.5,-4.253 -9.5,-9.5 0,-2.479 0.958,-4.73 2.513,-6.421 l -0.013,-0.014 8.605,-8.605 L 8.417,-8.405 0,0 Z" id="path26" style="fill:#fdcb58;fill-opacity:1;fill-rule:nonzero;stroke:none"/></g></g></g></g></svg>