<?xml version="1.0" encoding="UTF-8" standalone="no"?><svg xmlns="http://www.w3.org/2000/svg" xmlns:cc="http://creativecommons.org/ns#" xmlns:dc="http://purl.org/dc/elements/1.1/" xmlns:rdf="http://www.w3.org/1999/02/22-rdf-syntax-ns#" xmlns:svg="http://www.w3.org/2000/svg" height="45" id="svg2" style="enable-background:new 0 0 45 45;" version="1.1" viewBox="0 0 45 45" width="45" xml:space="preserve"><metadata id="metadata8"><rdf:RDF><cc:Work rdf:about=""><dc:format>image/svg+xml</dc:format><dc:type rdf:resource="http://purl.org/dc/dcmitype/StillImage"/></cc:Work></rdf:RDF></metadata><defs id="defs6"><clipPath clipPathUnits="userSpaceOnUse" id="clipPath16"><path d="M 0,36 36,36 36,0 0,0 0,36 Z" id="path18"/></clipPath><clipPath clipPathUnits="userSpaceOnUse" id="clipPath28"><path d="M 4,36 C 4,36 0,36 0,32 L 0,32 0,4 C 0,0 4,0 4,0 l 0,0 28,0 c 4,0 4,4 4,4 l 0,0 0,28 c 0,0 0,4 -4,4 l 0,0 -28,0 z" id="path30"/></clipPath><clipPath clipPathUnits="userSpaceOnUse" id="clipPath40"><path d="M 0,17.072 0,4 C 0,0 4,0 4,0 l 0,0 28,0 c 4,0 4,4 4,4 l 0,0 0,11 -8,0 c -1.418,0 -7.792,5 -9,5 l 0,0 c -1,0 -4,-2 -5,-2 l 0,0 c -2,0 -4.348,4 -6,4 l 0,0 C 6.215,22 2.849,18.384 0,17.072" id="path42"/></clipPath><clipPath clipPathUnits="userSpaceOnUse" id="clipPath52"><path d="M 0,36 36,36 36,0 0,0 0,36 Z" id="path54"/></clipPath></defs><g id="g10" transform="matrix(1.25,0,0,-1.25,0,45)"><g id="g12"><g clip-path="url(#clipPath16)" id="g14"><g id="g20" transform="translate(36,4)"><path d="m 0,0 c 0,0 0,-4 -4,-4 l -28,0 c 0,0 -4,0 -4,4 l 0,28 c 0,4 4,4 4,4 l 28,0 c 4,0 4,-4 4,-4 L 0,0 Z" id="path22" style="fill:#88c9f9;fill-opacity:1;fill-rule:nonzero;stroke:none"/></g></g></g><g id="g24"><g clip-path="url(#clipPath28)" id="g26"><g id="g32" transform="translate(8,22)"><path d="m 0,0 c 1.653,0 4,-4 6,-4 1,0 4,2 5,2 1.208,0 7.582,-5 9,-5 l 8,0 c 2.004,0 0,-21 0,-21 l -36,0 c 0,0 -7.454,21.096 -1,22.709 C -5.982,-4.537 -2,0 0,0" id="path34" style="fill:#f4900c;fill-opacity:1;fill-rule:nonzero;stroke:none"/></g></g></g><g id="g36"><g clip-path="url(#clipPath40)" id="g38"><g id="g44" transform="translate(-1.9585,15)"><path d="m 0,0 37.999,0 0.959,-20 -38,0 L 0,0 Z" id="path46" style="fill:#ffd983;fill-opacity:1;fill-rule:nonzero;stroke:none"/></g></g></g><g id="g48"><g clip-path="url(#clipPath52)" id="g50"><g id="g56" transform="translate(31.5,21.4653)"><path d="m 0,0 c -1.398,0 -2.5,-1.135 -2.5,-2.535 l 0,-5.782 c 0,-0.687 -1,-1.241 -1,-1.551 l 0,10.601 c 0,2.1 -1.9,3.802 -4,3.802 -2.1,0 -4,-1.702 -4,-3.802 l 0,-13.171 c -1,0.301 -1,0.869 -1,1.587 l 0,3.247 c 0,1.4 -1.101,2.535 -2.5,2.535 -1.399,0 -2.5,-1.135 -2.5,-2.535 l 0,-4.436 c 0,-1.399 0.94,-2.455 1.971,-3.048 0.787,-0.455 3.029,-1.014 4.029,-1.047 l 0,-2.33 c 0,-2 8,-2 8,0 l 0,4.873 c 1,0.075 3.185,0.603 3.937,1.038 1.03,0.594 2.063,1.649 2.063,3.05 l 0,6.969 C 2.5,-1.135 1.4,0 0,0" id="path58" style="fill:#77b255;fill-opacity:1;fill-rule:nonzero;stroke:none"/></g><g id="g60" transform="translate(20.6035,20.1982)"><path d="m 0,0 c 0,-0.35 -0.283,-0.634 -0.633,-0.634 -0.35,0 -0.635,0.284 -0.635,0.634 0,0.35 0.285,0.633 0.635,0.633 C -0.283,0.633 0,0.35 0,0" id="path62" style="fill:#3e721d;fill-opacity:1;fill-rule:nonzero;stroke:none"/></g><g id="g64" transform="translate(27.5742,24.0991)"><path d="m 0,0 c 0,-0.35 -0.283,-0.634 -0.634,-0.634 -0.35,0 -0.634,0.284 -0.634,0.634 0,0.35 0.284,0.634 0.634,0.634 C -0.283,0.634 0,0.35 0,0" id="path66" style="fill:#3e721d;fill-opacity:1;fill-rule:nonzero;stroke:none"/></g><g id="g68" transform="translate(26.3066,18.2969)"><path d="m 0,0 c 0,-0.35 -0.283,-0.634 -0.634,-0.634 -0.349,0 -0.633,0.284 -0.633,0.634 0,0.351 0.284,0.634 0.633,0.634 C -0.283,0.634 0,0.351 0,0" id="path70" style="fill:#3e721d;fill-opacity:1;fill-rule:nonzero;stroke:none"/></g><g id="g72" transform="translate(21.8711,13.8613)"><path d="m 0,0 c 0,-0.35 -0.283,-0.634 -0.634,-0.634 -0.35,0 -0.634,0.284 -0.634,0.634 0,0.351 0.284,0.634 0.634,0.634 C -0.283,0.634 0,0.351 0,0" id="path74" style="fill:#3e721d;fill-opacity:1;fill-rule:nonzero;stroke:none"/></g><g id="g76" transform="translate(25.6729,11.3271)"><path d="m 0,0 c 0,-0.351 -0.283,-0.634 -0.634,-0.634 -0.349,0 -0.634,0.283 -0.634,0.634 0,0.35 0.285,0.634 0.634,0.634 C -0.283,0.634 0,0.35 0,0" id="path78" style="fill:#3e721d;fill-opacity:1;fill-rule:nonzero;stroke:none"/></g><g id="g80" transform="translate(21.2373,7.5254)"><path d="m 0,0 c 0,-0.351 -0.283,-0.634 -0.634,-0.634 -0.349,0 -0.633,0.283 -0.633,0.634 0,0.35 0.284,0.634 0.633,0.634 C -0.283,0.634 0,0.35 0,0" id="path82" style="fill:#3e721d;fill-opacity:1;fill-rule:nonzero;stroke:none"/></g><g id="g84" transform="translate(16.1685,6.8916)"><path d="m 0,0 c 0,-0.351 -0.284,-0.634 -0.634,-0.634 -0.35,0 -0.634,0.283 -0.634,0.634 0,0.35 0.284,0.634 0.634,0.634 C -0.284,0.634 0,0.35 0,0" id="path86" style="fill:#3e721d;fill-opacity:1;fill-rule:nonzero;stroke:none"/></g><g id="g88" transform="translate(18.7031,11.3271)"><path d="m 0,0 c 0,-0.351 -0.283,-0.634 -0.634,-0.634 -0.35,0 -0.634,0.283 -0.634,0.634 0,0.35 0.284,0.634 0.634,0.634 C -0.283,0.634 0,0.35 0,0" id="path90" style="fill:#3e721d;fill-opacity:1;fill-rule:nonzero;stroke:none"/></g><g id="g92" transform="translate(14.2671,12.5947)"><path d="m 0,0 c 0,-0.351 -0.283,-0.634 -0.633,-0.634 -0.351,0 -0.634,0.283 -0.634,0.634 0,0.35 0.283,0.633 0.634,0.633 C -0.283,0.633 0,0.35 0,0" id="path94" style="fill:#3e721d;fill-opacity:1;fill-rule:nonzero;stroke:none"/></g><g id="g96" transform="translate(34.5439,18.9307)"><path d="m 0,0 c 0,-0.351 -0.283,-0.634 -0.634,-0.634 -0.349,0 -0.634,0.283 -0.634,0.634 0,0.351 0.285,0.634 0.634,0.634 C -0.283,0.634 0,0.351 0,0" id="path98" style="fill:#3e721d;fill-opacity:1;fill-rule:nonzero;stroke:none"/></g><g id="g100" transform="translate(30.7422,17.0303)"><path d="m 0,0 c 0,-0.351 -0.283,-0.634 -0.634,-0.634 -0.349,0 -0.634,0.283 -0.634,0.634 0,0.35 0.285,0.633 0.634,0.633 C -0.283,0.633 0,0.35 0,0" id="path102" style="fill:#3e721d;fill-opacity:1;fill-rule:nonzero;stroke:none"/></g><g id="g104" transform="translate(33.2764,13.8613)"><path d="m 0,0 c 0,-0.35 -0.283,-0.634 -0.633,-0.634 -0.35,0 -0.634,0.284 -0.634,0.634 0,0.351 0.284,0.634 0.634,0.634 C -0.283,0.634 0,0.351 0,0" id="path106" style="fill:#3e721d;fill-opacity:1;fill-rule:nonzero;stroke:none"/></g><g id="g108" transform="translate(31.376,8.792)"><path d="m 0,0 c 0,-0.35 -0.283,-0.633 -0.634,-0.633 -0.35,0 -0.634,0.283 -0.634,0.633 0,0.351 0.284,0.634 0.634,0.634 C -0.283,0.634 0,0.351 0,0" id="path110" style="fill:#3e721d;fill-opacity:1;fill-rule:nonzero;stroke:none"/></g><g id="g112" transform="translate(26.9404,4.9902)"><path d="m 0,0 c 0,-0.35 -0.283,-0.634 -0.634,-0.634 -0.35,0 -0.634,0.284 -0.634,0.634 0,0.351 0.284,0.634 0.634,0.634 C -0.283,0.634 0,0.351 0,0" id="path114" style="fill:#3e721d;fill-opacity:1;fill-rule:nonzero;stroke:none"/></g><g id="g116" transform="translate(17,29)"><path d="m 0,0 c 0,-2.762 -2.238,-5 -5,-5 -2.762,0 -5,2.238 -5,5 0,2.762 2.238,5 5,5 2.762,0 5,-2.238 5,-5" id="path118" style="fill:#ffcc4d;fill-opacity:1;fill-rule:nonzero;stroke:none"/></g><g id="g120" transform="translate(16,29)"><path d="m 0,0 c 0,-2.209 -1.79,-4 -4,-4 -2.209,0 -4,1.791 -4,4 0,2.209 1.791,4 4,4 2.21,0 4,-1.791 4,-4" id="path122" style="fill:#ffac33;fill-opacity:1;fill-rule:nonzero;stroke:none"/></g></g></g></g></svg>