<?xml version="1.0" encoding="UTF-8" standalone="no"?><svg xmlns="http://www.w3.org/2000/svg" xmlns:cc="http://creativecommons.org/ns#" xmlns:dc="http://purl.org/dc/elements/1.1/" xmlns:rdf="http://www.w3.org/1999/02/22-rdf-syntax-ns#" xmlns:svg="http://www.w3.org/2000/svg" height="45" id="svg2" style="enable-background:new 0 0 45 45;" version="1.1" viewBox="0 0 45 45" width="45" xml:space="preserve"><metadata id="metadata8"><rdf:RDF><cc:Work rdf:about=""><dc:format>image/svg+xml</dc:format><dc:type rdf:resource="http://purl.org/dc/dcmitype/StillImage"/></cc:Work></rdf:RDF></metadata><defs id="defs6"><clipPath clipPathUnits="userSpaceOnUse" id="clipPath16"><path d="M 0,36 36,36 36,0 0,0 0,36 Z" id="path18"/></clipPath><clipPath clipPathUnits="userSpaceOnUse" id="clipPath28"><path d="M 4,36 C 0,36 0,32 0,32 L 0,32 0,4 C 0,0 4,0 4,0 l 0,0 28,0 c 4,0 4,4 4,4 l 0,0 0,28 c 0,4 -4,4 -4,4 l 0,0 -28,0 z" id="path30"/></clipPath></defs><g id="g10" transform="matrix(1.25,0,0,-1.25,0,45)"><g id="g12"><g clip-path="url(#clipPath16)" id="g14"><g id="g20" transform="translate(0,32)"><path d="m 0,0 c 0,0 0,4 4,4 l 28,0 c 0,0 4,0 4,-4 l 0,-28 c 0,0 0,-4 -4,-4 l -28,0 c 0,0 -4,0 -4,4 L 0,0 Z" id="path22" style="fill:#88c9f9;fill-opacity:1;fill-rule:nonzero;stroke:none"/></g></g></g><g id="g24"><g clip-path="url(#clipPath28)" id="g26"><path d="M 0,0 C 0,19.882 16.118,36 36,36 55.882,36 72,19.882 72,0 72,-19.882 55.882,-36 36,-36 16.118,-36 0,-19.882 0,0" id="path32" style="fill:#ed1c24;fill-opacity:1;fill-rule:nonzero;stroke:none"/><g id="g34" transform="translate(3.0415,0)"><path d="M 0,0 C 0,18.203 14.756,32.958 32.958,32.958 51.161,32.958 65.917,18.203 65.917,0 65.917,-18.202 51.161,-32.959 32.958,-32.959 14.756,-32.959 0,-18.202 0,0" id="path36" style="fill:#f4900c;fill-opacity:1;fill-rule:nonzero;stroke:none"/></g><g id="g38" transform="translate(6.0415,0)"><path d="M 0,0 C 0,16.546 13.413,29.958 29.958,29.958 46.503,29.958 59.917,16.546 59.917,0 59.917,-16.545 46.503,-29.959 29.958,-29.959 13.413,-29.959 0,-16.545 0,0" id="path40" style="fill:#ffcc4d;fill-opacity:1;fill-rule:nonzero;stroke:none"/></g><g id="g42" transform="translate(9.0415,0)"><path d="M 0,0 C 0,14.889 12.07,26.958 26.958,26.958 41.846,26.958 53.917,14.889 53.917,0 53.917,-14.888 41.846,-26.959 26.958,-26.959 12.07,-26.959 0,-14.888 0,0" id="path44" style="fill:#5c913b;fill-opacity:1;fill-rule:nonzero;stroke:none"/></g><g id="g46" transform="translate(12.0415,0)"><path d="M 0,0 C 0,13.231 10.727,23.958 23.958,23.958 37.19,23.958 47.917,13.231 47.917,0 47.917,-13.231 37.19,-23.959 23.958,-23.959 10.727,-23.959 0,-13.231 0,0" id="path48" style="fill:#226699;fill-opacity:1;fill-rule:nonzero;stroke:none"/></g><g id="g50" transform="translate(15.0415,0)"><path d="m 0,0 c 0,11.574 9.384,20.958 20.958,20.958 11.575,0 20.959,-9.384 20.959,-20.958 0,-11.574 -9.384,-20.959 -20.959,-20.959 C 9.384,-20.959 0,-11.574 0,0" id="path52" style="fill:#9266cc;fill-opacity:1;fill-rule:nonzero;stroke:none"/></g><g id="g54" transform="translate(18.0415,0)"><path d="m 0,0 c 0,9.917 8.042,17.958 17.958,17.958 9.918,0 17.959,-8.041 17.959,-17.958 0,-9.918 -8.041,-17.959 -17.959,-17.959 C 8.042,-17.959 0,-9.918 0,0" id="path56" style="fill:#88c9f9;fill-opacity:1;fill-rule:nonzero;stroke:none"/></g></g></g></g></svg>