<?xml version="1.0" encoding="UTF-8" standalone="no"?><svg xmlns="http://www.w3.org/2000/svg" xmlns:cc="http://creativecommons.org/ns#" xmlns:dc="http://purl.org/dc/elements/1.1/" xmlns:rdf="http://www.w3.org/1999/02/22-rdf-syntax-ns#" xmlns:svg="http://www.w3.org/2000/svg" height="45" id="svg2" style="enable-background:new 0 0 45 45;" version="1.1" viewBox="0 0 45 45" width="45" xml:space="preserve"><metadata id="metadata8"><rdf:RDF><cc:Work rdf:about=""><dc:format>image/svg+xml</dc:format><dc:type rdf:resource="http://purl.org/dc/dcmitype/StillImage"/></cc:Work></rdf:RDF></metadata><defs id="defs6"><clipPath clipPathUnits="userSpaceOnUse" id="clipPath16"><path d="M 0,36 36,36 36,0 0,0 0,36 Z" id="path18"/></clipPath><clipPath clipPathUnits="userSpaceOnUse" id="clipPath122"><path d="M 21.997,36 C 17,36 14.874,34.663 13,32 l 0,0 c -1.992,-2.831 0,-5 -3,-7 l 0,0 c -1.86,-1.24 6,-2.313 12,-2.313 l 0,0 c 6,0 13.861,1.073 12,2.313 l 0,0 c -3,2 -1.008,4.169 -3,7 l 0,0 c -1.874,2.663 -5,4 -9.003,4 z" id="path124"/></clipPath><clipPath clipPathUnits="userSpaceOnUse" id="clipPath138"><path d="M 0,36 36,36 36,0 0,0 0,36 Z" id="path140"/></clipPath></defs><g id="g10" transform="matrix(1.25,0,0,-1.25,0,45)"><g id="g12"><g clip-path="url(#clipPath16)" id="g14"><g id="g20" transform="translate(35,0)"><path d="M 0,0 0,3.5 C 0,6.814 -3.686,9 -7,9 l -12,0 c -3.313,0 -7,-2.186 -7,-5.5 L -26,0 0,0 Z" id="path22" style="fill:#3b88c3;fill-opacity:1;fill-rule:nonzero;stroke:none"/></g><g id="g24" transform="translate(21.9453,30.9307)"><path d="m 0,0 c 4.105,0 10.947,-2.053 10.947,-10.947 0,-8.896 0,-10.948 -2.052,-10.948 -2.053,0 -4.79,2.052 -8.895,2.052 -4.105,0 -6.785,-2.052 -8.895,-2.052 -2.288,0 -2.054,8.21 -2.054,10.948 C -10.949,-2.053 -4.105,0 0,0" id="path26" style="fill:#0b0200;fill-opacity:1;fill-rule:nonzero;stroke:none"/></g><g id="g28" transform="translate(18,9)"><path d="M 0,0 8,0 C 8,0 6.982,-5 4,-5 1.018,-5 0,0 0,0" id="path30" style="fill:#292f33;fill-opacity:1;fill-rule:nonzero;stroke:none"/></g><path d="M 27,5 17,5 17,9 27,9 27,5 Z" id="path32" style="fill:#292f33;fill-opacity:1;fill-rule:nonzero;stroke:none"/><g id="g34" transform="translate(18.3281,8.9824)"><path d="m 0,0 c 1.466,-1.065 2.964,-0.98 3.672,-0.98 0.708,0 2.194,-0.085 3.66,0.98 l 0,3.203 L 0,3.203 0,0 Z" id="path36" style="fill:#7c533e;fill-opacity:1;fill-rule:nonzero;stroke:none"/></g><g id="g38" transform="translate(18.3223,10.8213)"><path d="m 0,0 c 1.022,-1.155 2.29,-1.468 3.668,-1.468 1.379,0 2.647,0.313 3.67,1.468 l 0,2.936 L 0,2.936 0,0 Z" id="path40" style="fill:#664131;fill-opacity:1;fill-rule:nonzero;stroke:none"/></g><g id="g42" transform="translate(13.7339,20.2822)"><path d="m 0,0 c 0,5.834 3.676,10.564 8.211,10.564 4.534,0 8.209,-4.73 8.209,-10.564 0,-5.833 -3.675,-10.285 -8.209,-10.285 C 3.676,-10.285 0,-5.833 0,0" id="path44" style="fill:#7c533e;fill-opacity:1;fill-rule:nonzero;stroke:none"/></g><g id="g46" transform="translate(21.9453,12.457)"><path d="m 0,0 c -1.606,0 -2.447,0.794 -2.537,0.885 -0.268,0.266 -0.268,0.7 0,0.967 0.266,0.264 0.692,0.266 0.961,0.006 C -1.541,1.826 -1.025,1.367 0,1.367 1.038,1.367 1.555,1.84 1.576,1.859 1.85,2.115 2.279,2.107 2.539,1.84 2.799,1.571 2.799,1.148 2.535,0.885 2.445,0.794 1.605,0 0,0" id="path48" style="fill:#df1f32;fill-opacity:1;fill-rule:nonzero;stroke:none"/></g><g id="g50" transform="translate(11.7251,17)"><path d="m 0,0 c -0.021,1 -0.044,0.224 -0.044,0.465 0,3.422 2.053,-0.494 2.053,1.943 0,2.439 1.368,2.683 2.737,4.051 0.684,0.685 2.052,2.026 2.052,2.026 0,0 3.421,-2.067 6.158,-2.067 2.737,0 5.474,-1.375 5.474,-4.112 0,-2.737 2.053,1.584 2.053,-1.837 C 20.483,0.225 20.46,1 20.443,0 l 0.719,0 c 0.006,2 0.006,1.924 0.006,3.202 0,8.895 -6.842,12.207 -10.949,12.207 C 6.115,15.409 -0.728,12.152 -0.728,3.257 -0.728,2.464 -0.748,2 -0.72,0 L 0,0 Z" id="path52" style="fill:#0b0200;fill-opacity:1;fill-rule:nonzero;stroke:none"/></g><g id="g54" transform="translate(18.6084,18.1133)"><path d="m 0,0 0,0 c -0.465,0 -0.846,0.381 -0.846,0.847 l 0,0.844 c 0,0.465 0.381,0.846 0.846,0.846 0.466,0 0.847,-0.381 0.847,-0.846 l 0,-0.844 C 0.847,0.381 0.466,0 0,0" id="path56" style="fill:#662113;fill-opacity:1;fill-rule:nonzero;stroke:none"/></g><g id="g58" transform="translate(25.373,18.1133)"><path d="m 0,0 0,0 c -0.465,0 -0.846,0.381 -0.846,0.847 l 0,0.844 c 0,0.465 0.381,0.846 0.846,0.846 0.465,0 0.846,-0.381 0.846,-0.846 l 0,-0.844 C 0.846,0.381 0.465,0 0,0" id="path60" style="fill:#662113;fill-opacity:1;fill-rule:nonzero;stroke:none"/></g><g id="g62" transform="translate(22.8359,15.5)"><path d="m 0,0 -1.69,0 c -0.234,0 -0.423,0.189 -0.423,0.423 l 0,0.153 C -2.113,0.81 -1.924,1 -1.69,1 L 0,1 C 0.233,1 0.424,0.81 0.424,0.576 l 0,-0.153 C 0.424,0.189 0.233,0 0,0" id="path64" style="fill:#3d2e24;fill-opacity:1;fill-rule:nonzero;stroke:none"/></g><g id="g66" transform="translate(15.4443,20.0645)"><path d="m 0,0 c 0,-1.448 -0.734,-2.622 -1.639,-2.622 -0.905,0 -1.639,1.174 -1.639,2.622 0,1.448 0.734,2.623 1.639,2.623 C -0.734,2.623 0,1.448 0,0" id="path68" style="fill:#7c533e;fill-opacity:1;fill-rule:nonzero;stroke:none"/></g><g id="g70" transform="translate(31.833,20.0645)"><path d="m 0,0 c 0,-1.448 -0.733,-2.622 -1.639,-2.622 -0.905,0 -1.638,1.174 -1.638,2.622 0,1.448 0.733,2.623 1.638,2.623 C -0.733,2.623 0,1.448 0,0" id="path72" style="fill:#7c533e;fill-opacity:1;fill-rule:nonzero;stroke:none"/></g><g id="g74" transform="translate(23,1.0625)"><path d="m 0,0 -1,-1.062 -1,1 -1,4 3.5,0 L 0,0 Z" id="path76" style="fill:#292f33;fill-opacity:1;fill-rule:nonzero;stroke:none"/></g><g id="g78" transform="translate(14.5,9)"><path d="M 0,0 C 0,-1.068 1.5,-3.662 3.5,-5.798 5.081,-7.485 7.5,-9 7.5,-9 c 0,3.271 -1,4.27 -2,5.338 -1,1.066 -3,1.526 -3,3.662 C 2.5,1.066 0,0 0,0" id="path80" style="fill:#55acee;fill-opacity:1;fill-rule:nonzero;stroke:none"/></g><g id="g82" transform="translate(29.5,9)"><path d="M 0,0 C 0,-1.068 -1.5,-3.662 -3.5,-5.798 -5.081,-7.485 -7.5,-9 -7.5,-9 c 0,3.271 1,4.27 2,5.338 1,1.066 3,1.526 3,3.662 0,1.066 2.5,0 2.5,0" id="path84" style="fill:#55acee;fill-opacity:1;fill-rule:nonzero;stroke:none"/></g><g id="g86" transform="translate(21,20)"><path d="m 0,0 c 0,-2.07 -1.68,-3.75 -3.75,-3.75 -2.071,0 -3.75,1.68 -3.75,3.75 0,2.071 1.679,3.75 3.75,3.75 C -1.68,3.75 0,2.071 0,0" id="path88" style="fill:#664131;fill-opacity:1;fill-rule:nonzero;stroke:none"/></g><g id="g90" transform="translate(30.5,20)"><path d="m 0,0 c 0,-2.07 -1.68,-3.75 -3.75,-3.75 -2.071,0 -3.75,1.68 -3.75,3.75 0,2.071 1.679,3.75 3.75,3.75 C -1.68,3.75 0,2.071 0,0" id="path92" style="fill:#664131;fill-opacity:1;fill-rule:nonzero;stroke:none"/></g><path d="m 24.5,18.5 -5,0 0,2.5 5,0 0,-2.5 z" id="path94" style="fill:#664131;fill-opacity:1;fill-rule:nonzero;stroke:none"/><g id="g96" transform="translate(21,20.5)"><path d="M 0,0 C 0,-1.933 -1.567,-3.5 -3.5,-3.5 -5.433,-3.5 -7,-1.933 -7,0 -7,1.933 -5.433,3.5 -3.5,3.5 -1.567,3.5 0,1.933 0,0" id="path98" style="fill:#e1e8ed;fill-opacity:1;fill-rule:nonzero;stroke:none"/></g><g id="g100" transform="translate(30,20.5)"><path d="M 0,0 C 0,-1.933 -1.567,-3.5 -3.5,-3.5 -5.434,-3.5 -7,-1.933 -7,0 -7,1.933 -5.434,3.5 -3.5,3.5 -1.567,3.5 0,1.933 0,0" id="path102" style="fill:#e1e8ed;fill-opacity:1;fill-rule:nonzero;stroke:none"/></g><path d="m 24.5,19.5 -5,0 0,2.5 5,0 0,-2.5 z" id="path104" style="fill:#e1e8ed;fill-opacity:1;fill-rule:nonzero;stroke:none"/><g id="g106" transform="translate(20,20.5)"><path d="M 0,0 C 0,-1.38 -1.119,-2.5 -2.5,-2.5 -3.881,-2.5 -5,-1.38 -5,0 -5,1.381 -3.881,2.5 -2.5,2.5 -1.119,2.5 0,1.381 0,0" id="path108" style="fill:#292f33;fill-opacity:1;fill-rule:nonzero;stroke:none"/></g><g id="g110" transform="translate(29,20.5)"><path d="M 0,0 C 0,-1.38 -1.119,-2.5 -2.5,-2.5 -3.881,-2.5 -5,-1.38 -5,0 -5,1.381 -3.881,2.5 -2.5,2.5 -1.119,2.5 0,1.381 0,0" id="path112" style="fill:#292f33;fill-opacity:1;fill-rule:nonzero;stroke:none"/></g><g id="g114" transform="translate(34,25)"><path d="m 0,0 c -3,2 -1.008,4.169 -3,7 -1.874,2.663 -5,4 -9.003,4 C -17,11 -19.126,9.663 -21,7 c -1.992,-2.831 0,-5 -3,-7 -1.861,-1.24 6,-2.313 12,-2.313 6,0 13.861,1.073 12,2.313" id="path116" style="fill:#3b88c3;fill-opacity:1;fill-rule:nonzero;stroke:none"/></g></g></g><g id="g118"><g clip-path="url(#clipPath122)" id="g120"><g id="g126" transform="translate(20,24.5)"><path d="m 0,0 -0.5,0 c -3.604,0 -10.687,1.035 -12.724,2.053 l 0.448,0.894 C -10.983,2.05 -4.591,1.093 -1,1.006 L -1,11.5 0,11.5 0,0 Z" id="path128" style="fill:#226699;fill-opacity:1;fill-rule:nonzero;stroke:none"/></g><g id="g130" transform="translate(24.5,24.5)"><path d="m 0,0 -0.5,0 0,11.5 1,0 0,-10.495 c 4.011,0.078 9.996,1.052 11.776,1.942 L 12.724,2.053 C 10.551,0.966 3.799,0 0,0" id="path132" style="fill:#226699;fill-opacity:1;fill-rule:nonzero;stroke:none"/></g></g></g><g id="g134"><g clip-path="url(#clipPath138)" id="g136"><g id="g142" transform="translate(5,12)"><path d="m 0,0 -1.5,-1 c 0,0 1.5,-2.5 1.5,-6 l 0,-5 2,0 0,5 C 2,-2.5 0,0 0,0" id="path144" style="fill:#66757f;fill-opacity:1;fill-rule:nonzero;stroke:none"/></g><g id="g146" transform="translate(6.0791,12.1934)"><path d="m 0,0 c 0.208,-0.379 0.071,-0.855 -0.307,-1.064 l -2.131,-1.178 c -0.378,-0.208 -0.854,-0.071 -1.064,0.308 l -0.451,0.817 c -0.209,0.379 -0.072,0.855 0.307,1.064 l 2.13,1.178 c 0.379,0.209 0.855,0.071 1.064,-0.309 L 0,0 Z" id="path148" style="fill:#99aab5;fill-opacity:1;fill-rule:nonzero;stroke:none"/></g><g id="g150" transform="translate(3.4897,13.416)"><path d="m 0,0 c 4.187,2.209 -3.438,6.271 -3.438,6.271 0,0 -0.749,-8.48 3.438,-6.271" id="path152" style="fill:#f4900c;fill-opacity:1;fill-rule:nonzero;stroke:none"/></g><g id="g154" transform="translate(2.9604,14.6348)"><path d="M 0,0 C 2.202,1.162 -1.808,3.299 -1.808,3.299 -1.808,3.299 -2.202,-1.16 0,0" id="path156" style="fill:#ffdc5d;fill-opacity:1;fill-rule:nonzero;stroke:none"/></g></g></g></g></svg>