<?xml version="1.0" encoding="UTF-8" standalone="no"?><svg xmlns="http://www.w3.org/2000/svg" xmlns:cc="http://creativecommons.org/ns#" xmlns:dc="http://purl.org/dc/elements/1.1/" xmlns:rdf="http://www.w3.org/1999/02/22-rdf-syntax-ns#" xmlns:svg="http://www.w3.org/2000/svg" height="45" id="svg2" style="enable-background:new 0 0 45 45;" version="1.1" viewBox="0 0 45 45" width="45" xml:space="preserve"><metadata id="metadata8"><rdf:RDF><cc:Work rdf:about=""><dc:format>image/svg+xml</dc:format><dc:type rdf:resource="http://purl.org/dc/dcmitype/StillImage"/></cc:Work></rdf:RDF></metadata><defs id="defs6"><clipPath clipPathUnits="userSpaceOnUse" id="clipPath16"><path d="M 0,36 36,36 36,0 0,0 0,36 Z" id="path18"/></clipPath></defs><g id="g10" transform="matrix(1.25,0,0,-1.25,0,45)"><g id="g12"><g clip-path="url(#clipPath16)" id="g14"><g id="g20" transform="translate(36,13)"><path d="m 0,0 c 0,-5.523 -8.059,-10 -18,-10 -9.941,0 -18,4.477 -18,10 0,5.523 8.059,10 18,10 C -8.059,10 0,5.523 0,0" id="path22" style="fill:#939598;fill-opacity:1;fill-rule:nonzero;stroke:none"/></g><g id="g24" transform="translate(36,15)"><path d="m 0,0 c 0,-5.523 -8.059,-10 -18,-10 -9.941,0 -18,4.477 -18,10 0,5.523 8.059,10 18,10 C -8.059,10 0,5.523 0,0" id="path26" style="fill:#f1f2f2;fill-opacity:1;fill-rule:nonzero;stroke:none"/></g><g id="g28" transform="translate(32.7998,15.3887)"><path d="m 0,0 c 0,-4.202 -6.626,-7.611 -14.8,-7.611 -8.174,0 -14.8,3.409 -14.8,7.611 0,4.203 6.626,7.611 14.8,7.611 C -6.626,7.611 0,4.203 0,0" id="path30" style="fill:#f4900c;fill-opacity:1;fill-rule:nonzero;stroke:none"/></g><g id="g32" transform="translate(13,12)"><path d="m 0,0 c -3.75,0 -10,2.063 -10,5.5 0,4.125 3.828,8.938 10,8.938 6.172,0 10,-5.5 10,-8.938 C 10,2.063 4.375,0 0,0" id="path34" style="fill:#eeeeee;fill-opacity:1;fill-rule:nonzero;stroke:none"/></g><g id="g36" transform="translate(4.6401,17.1792)"><path d="m 0,0 c -0.345,0.14 -0.511,0.534 -0.37,0.879 0.141,0.344 0.535,0.51 0.879,0.37 L 1.758,0.74 C 2.103,0.6 2.268,0.206 2.128,-0.139 1.987,-0.484 1.594,-0.65 1.249,-0.509 L 0,0 Z" id="path38" style="fill:#ccd6dd;fill-opacity:1;fill-rule:nonzero;stroke:none"/></g><g id="g40" transform="translate(8.3442,20.6123)"><path d="m 0,0 c -0.307,-0.211 -0.727,-0.133 -0.937,0.175 -0.21,0.307 -0.132,0.727 0.174,0.937 L 0.351,1.874 C 0.657,2.085 1.077,2.007 1.288,1.7 1.498,1.393 1.419,0.973 1.112,0.762 L 0,0 Z" id="path42" style="fill:#ccd6dd;fill-opacity:1;fill-rule:nonzero;stroke:none"/></g><g id="g44" transform="translate(17.3442,15.6123)"><path d="m 0,0 c -0.307,-0.211 -0.727,-0.133 -0.937,0.175 -0.21,0.306 -0.132,0.727 0.174,0.937 L 0.351,1.874 C 0.657,2.085 1.077,2.007 1.288,1.7 1.498,1.393 1.419,0.973 1.112,0.763 L 0,0 Z" id="path46" style="fill:#ccd6dd;fill-opacity:1;fill-rule:nonzero;stroke:none"/></g><g id="g48" transform="translate(11.6963,17.4526)"><path d="m 0,0 c -0.512,0.208 -0.758,0.792 -0.549,1.304 0.209,0.51 0.793,0.757 1.304,0.549 L 2.607,1.097 C 3.118,0.889 3.364,0.306 3.156,-0.206 2.948,-0.717 2.364,-0.963 1.852,-0.754 L 0,0 Z" id="path50" style="fill:#ccd6dd;fill-opacity:1;fill-rule:nonzero;stroke:none"/></g><g id="g52" transform="translate(16.6406,21.1792)"><path d="m 0,0 c -0.346,0.14 -0.512,0.534 -0.37,0.879 0.14,0.344 0.534,0.51 0.878,0.37 L 1.758,0.74 C 2.102,0.6 2.268,0.206 2.127,-0.139 1.986,-0.483 1.594,-0.649 1.248,-0.509 L 0,0 Z" id="path54" style="fill:#ccd6dd;fill-opacity:1;fill-rule:nonzero;stroke:none"/></g><g id="g56" transform="translate(10.9067,15.418)"><path d="M 0,0 C 0.348,0.133 0.738,-0.042 0.871,-0.391 1.002,-0.737 0.827,-1.128 0.479,-1.259 l -1.261,-0.48 c -0.346,-0.133 -0.736,0.042 -0.868,0.39 -0.134,0.349 0.041,0.738 0.39,0.871 L 0,0 Z" id="path58" style="fill:#ccd6dd;fill-opacity:1;fill-rule:nonzero;stroke:none"/></g><g id="g60" transform="translate(30,17)"><path d="m 0,0 c 0,-1.104 -0.895,-2 -2,-2 l -1,0 c -1.104,0 -2,0.896 -2,2 0,1.105 0.896,2 2,2 l 1,0 C -0.895,2 0,1.105 0,0" id="path62" style="fill:#ffd983;fill-opacity:1;fill-rule:nonzero;stroke:none"/></g><g id="g64" transform="translate(27,12.5)"><path d="m 0,0 c 0,-0.828 -0.672,-1.5 -1.5,-1.5 l -1,0 c -0.828,0 -1.5,0.672 -1.5,1.5 0,0.828 0.672,1.5 1.5,1.5 l 1,0 C -0.672,1.5 0,0.828 0,0" id="path66" style="fill:#ffd983;fill-opacity:1;fill-rule:nonzero;stroke:none"/></g><g id="g68" transform="translate(21,10)"><path d="m 0,0 c 0,-0.553 -0.447,-1 -1,-1 l -1,0 c -0.553,0 -1,0.447 -1,1 0,0.553 0.447,1 1,1 l 1,0 C -0.447,1 0,0.553 0,0" id="path70" style="fill:#ffd983;fill-opacity:1;fill-rule:nonzero;stroke:none"/></g></g></g></g></svg>