<?xml version="1.0" encoding="UTF-8" standalone="no"?><svg xmlns="http://www.w3.org/2000/svg" xmlns:cc="http://creativecommons.org/ns#" xmlns:dc="http://purl.org/dc/elements/1.1/" xmlns:rdf="http://www.w3.org/1999/02/22-rdf-syntax-ns#" xmlns:svg="http://www.w3.org/2000/svg" height="45" id="svg2" style="enable-background:new 0 0 45 45;" version="1.1" viewBox="0 0 45 45" width="45" xml:space="preserve"><metadata id="metadata8"><rdf:RDF><cc:Work rdf:about=""><dc:format>image/svg+xml</dc:format><dc:type rdf:resource="http://purl.org/dc/dcmitype/StillImage"/></cc:Work></rdf:RDF></metadata><defs id="defs6"><clipPath clipPathUnits="userSpaceOnUse" id="clipPath16"><path d="M 0,36 36,36 36,0 0,0 0,36 Z" id="path18"/></clipPath></defs><g id="g10" transform="matrix(1.25,0,0,-1.25,0,45)"><g id="g12"><g clip-path="url(#clipPath16)" id="g14"><g id="g20" transform="translate(36,4)"><path d="m 0,0 c 0,-2.209 -1.791,-4 -4,-4 l -28,0 c -2.209,0 -4,1.791 -4,4 l 0,28 c 0,2.209 1.791,4 4,4 l 28,0 c 2.209,0 4,-1.791 4,-4 L 0,0 Z" id="path22" style="fill:#9266cc;fill-opacity:1;fill-rule:nonzero;stroke:none"/></g><g id="g24" transform="translate(23,30)"><path d="m 0,0 -3,0 0,2 c 0,0.552 -0.447,1 -1,1 L -6,3 C -6.552,3 -7,2.552 -7,2 l 0,-2 -3,0 c -0.552,0 -1,-0.448 -1,-1 l 0,-2 c 0,-0.552 0.448,-1 1,-1 l 3,0 0,-22 c 0,-0.553 0.448,-1 1,-1 l 2,0 c 0.553,0 1,0.447 1,1 l 0,22 3,0 c 0.553,0 1,0.448 1,1 l 0,2 C 1,-0.448 0.553,0 0,0" id="path26" style="fill:#ffffff;fill-opacity:1;fill-rule:nonzero;stroke:none"/></g><g id="g28" transform="translate(29,23)"><path d="m 0,0 -22,0 c -0.552,0 -1,-0.448 -1,-1 l 0,-2 c 0,-0.553 0.448,-1 1,-1 l 22,0 c 0.553,0 1,0.447 1,1 l 0,2 C 1,-0.448 0.553,0 0,0" id="path30" style="fill:#ffffff;fill-opacity:1;fill-rule:nonzero;stroke:none"/></g><g id="g32" transform="translate(24.3241,11.0762)"><path d="m 0,0 -11.429,3.657 c -0.526,0.169 -1.089,-0.121 -1.257,-0.647 l -0.61,-1.905 c -0.168,-0.527 0.122,-1.089 0.648,-1.257 L -1.219,-3.81 c 0.526,-0.168 1.089,0.122 1.257,0.648 l 0.61,1.905 C 0.816,-0.731 0.526,-0.168 0,0" id="path34" style="fill:#ffffff;fill-opacity:1;fill-rule:nonzero;stroke:none"/></g></g></g></g></svg>