<?xml version="1.0" encoding="UTF-8" standalone="no"?><svg xmlns="http://www.w3.org/2000/svg" xmlns:cc="http://creativecommons.org/ns#" xmlns:dc="http://purl.org/dc/elements/1.1/" xmlns:rdf="http://www.w3.org/1999/02/22-rdf-syntax-ns#" xmlns:svg="http://www.w3.org/2000/svg" height="45" id="svg2" style="enable-background:new 0 0 45 45;" version="1.1" viewBox="0 0 45 45" width="45" xml:space="preserve"><metadata id="metadata8"><rdf:RDF><cc:Work rdf:about=""><dc:format>image/svg+xml</dc:format><dc:type rdf:resource="http://purl.org/dc/dcmitype/StillImage"/></cc:Work></rdf:RDF></metadata><defs id="defs6"><clipPath clipPathUnits="userSpaceOnUse" id="clipPath16"><path d="M 0,36 36,36 36,0 0,0 0,36 Z" id="path18"/></clipPath></defs><g id="g10" transform="matrix(1.25,0,0,-1.25,0,45)"><g id="g12"><g clip-path="url(#clipPath16)" id="g14"><g id="g20" transform="translate(36,4)"><path d="m 0,0 c 0,-2.209 -1.791,-4 -4,-4 l -28,0 c -2.209,0 -4,1.791 -4,4 l 0,28 c 0,2.209 1.791,4 4,4 l 28,0 c 2.209,0 4,-1.791 4,-4 L 0,0 Z" id="path22" style="fill:#77b255;fill-opacity:1;fill-rule:nonzero;stroke:none"/></g><g id="g24" transform="translate(15,18)"><path d="M 0,0 C 0,1.657 1.343,3 3,3 4.656,3 6,1.657 6,0 6,-1.656 4.656,-3 3,-3 1.343,-3 0,-1.656 0,0" id="path26" style="fill:#ffffff;fill-opacity:1;fill-rule:nonzero;stroke:none"/></g><g id="g28" transform="translate(20,32)"><path d="M 0,0 C 0,1.104 -0.895,2 -2,2 -3.104,2 -4,1.104 -4,0 l 0,-8 c 0,-1.104 0.896,-2 2,-2 1.105,0 2,0.896 2,2 l 0,8 z" id="path30" style="fill:#ffffff;fill-opacity:1;fill-rule:nonzero;stroke:none"/></g><g id="g32" transform="translate(20,12)"><path d="M 0,0 C 0,1.105 -0.895,2 -2,2 -3.104,2 -4,1.105 -4,0 l 0,-8 c 0,-1.105 0.896,-2 2,-2 1.105,0 2,0.895 2,2 l 0,8 z" id="path34" style="fill:#ffffff;fill-opacity:1;fill-rule:nonzero;stroke:none"/></g><g id="g36" transform="translate(4,20)"><path d="m 0,0 c -1.104,0 -2,-0.895 -2,-2 0,-1.104 0.896,-2 2,-2 l 8,0 c 1.105,0 2,0.896 2,2 0,1.105 -0.895,2 -2,2 L 0,0 Z" id="path38" style="fill:#ffffff;fill-opacity:1;fill-rule:nonzero;stroke:none"/></g><g id="g40" transform="translate(24,20)"><path d="m 0,0 c -1.104,0 -2,-0.895 -2,-2 0,-1.104 0.896,-2 2,-2 l 8,0 c 1.105,0 2,0.896 2,2 0,1.105 -0.895,2 -2,2 L 0,0 Z" id="path42" style="fill:#ffffff;fill-opacity:1;fill-rule:nonzero;stroke:none"/></g><g id="g44" transform="translate(15.1714,22.2427)"><path d="m 0,0 c 0.391,-0.391 0.391,-1.024 0,-1.414 -0.39,-0.391 -1.023,-0.391 -1.414,0 l -7.485,7.485 c -0.391,0.39 -0.391,1.024 0,1.414 0.39,0.391 1.023,0.391 1.414,0 L 0,0 Z" id="path46" style="fill:#ffffff;fill-opacity:1;fill-rule:nonzero;stroke:none"/></g><g id="g48" transform="translate(29.7275,7.6865)"><path d="m 0,0 c 0.392,-0.391 0.391,-1.024 0,-1.414 -0.39,-0.391 -1.023,-0.392 -1.414,0 l -7.485,7.485 c -0.391,0.391 -0.391,1.024 0,1.414 0.39,0.391 1.023,0.391 1.414,0 L 0,0 Z" id="path50" style="fill:#ffffff;fill-opacity:1;fill-rule:nonzero;stroke:none"/></g><g id="g52" transform="translate(13.7573,15.1719)"><path d="m 0,0 c 0.391,0.391 1.024,0.391 1.414,0 0.391,-0.391 0.391,-1.023 0,-1.414 L -6.071,-8.9 c -0.39,-0.391 -1.024,-0.391 -1.414,0 -0.391,0.39 -0.391,1.024 0,1.415 L 0,0 Z" id="path54" style="fill:#ffffff;fill-opacity:1;fill-rule:nonzero;stroke:none"/></g><g id="g56" transform="translate(28.3135,29.7275)"><path d="m 0,0 c 0.391,0.392 1.024,0.391 1.414,0 0.391,-0.39 0.392,-1.023 0,-1.414 l -7.485,-7.485 c -0.391,-0.391 -1.024,-0.391 -1.414,0 -0.391,0.39 -0.391,1.023 0,1.414 L 0,0 Z" id="path58" style="fill:#ffffff;fill-opacity:1;fill-rule:nonzero;stroke:none"/></g></g></g></g></svg>