<?xml version="1.0" encoding="UTF-8" standalone="no"?><svg xmlns="http://www.w3.org/2000/svg" xmlns:cc="http://creativecommons.org/ns#" xmlns:dc="http://purl.org/dc/elements/1.1/" xmlns:rdf="http://www.w3.org/1999/02/22-rdf-syntax-ns#" xmlns:svg="http://www.w3.org/2000/svg" height="45" id="svg2" style="enable-background:new 0 0 45 45;" version="1.1" viewBox="0 0 45 45" width="45" xml:space="preserve"><metadata id="metadata8"><rdf:RDF><cc:Work rdf:about=""><dc:format>image/svg+xml</dc:format><dc:type rdf:resource="http://purl.org/dc/dcmitype/StillImage"/></cc:Work></rdf:RDF></metadata><defs id="defs6"><clipPath clipPathUnits="userSpaceOnUse" id="clipPath16"><path d="M 0,36 36,36 36,0 0,0 0,36 Z" id="path18"/></clipPath></defs><g id="g10" transform="matrix(1.25,0,0,-1.25,0,45)"><g id="g12"><g clip-path="url(#clipPath16)" id="g14"><g id="g20" transform="translate(0,1)"><path d="m 0,0 36,0 0,25 c 0,0 -6.001,10 -9.001,10 -3,0 -10,-9 -12,-11 -2,-2 -4.5,-0.5 -5.999,1 C 7.5,26.5 6,28 5,28 4,28 0,21 0,21 L 0,0 Z" id="path22" style="fill:#d1d3d4;fill-opacity:1;fill-rule:nonzero;stroke:none"/></g><path d="M 36,0 0,0 0,2 36,2 36,0 Z" id="path24" style="fill:#939598;fill-opacity:1;fill-rule:nonzero;stroke:none"/><g id="g26" transform="translate(13.9995,4)"><path d="m 0,0 c 0,1.657 -1.343,3 -3,3 -1.657,0 -3,-1.343 -3,-3 0,-1.657 1.343,-3 3,-3 1.657,0 3,1.343 3,3" id="path28" style="fill:#58595b;fill-opacity:1;fill-rule:nonzero;stroke:none"/></g><g id="g30" transform="translate(12.9995,4)"><path d="m 0,0 c 0,1.105 -0.895,2 -2,2 -1.104,0 -2,-0.895 -2,-2 0,-1.105 0.896,-2 2,-2 1.105,0 2,0.895 2,2" id="path32" style="fill:#292f33;fill-opacity:1;fill-rule:nonzero;stroke:none"/></g><g id="g34" transform="translate(22,4)"><path d="m 0,0 c 0,1.657 -1.344,3 -3.001,3 -1.656,0 -3,-1.343 -3,-3 0,-1.657 1.344,-3 3,-3 C -1.344,-3 0,-1.657 0,0" id="path36" style="fill:#58595b;fill-opacity:1;fill-rule:nonzero;stroke:none"/></g><g id="g38" transform="translate(21,4)"><path d="m 0,0 c 0,1.105 -0.896,2 -2.001,2 -1.104,0 -2,-0.895 -2,-2 0,-1.105 0.896,-2 2,-2 C -0.896,-2 0,-1.105 0,0" id="path40" style="fill:#292f33;fill-opacity:1;fill-rule:nonzero;stroke:none"/></g><g id="g42" transform="translate(36,22)"><path d="m 0,0 -29,0 c -2.209,0 -4,-1.791 -4,-4 l 0,-10 c 0,-2.209 1.791,-4 4,-4 l 29,0 0,18 z" id="path44" style="fill:#ffe8b6;fill-opacity:1;fill-rule:nonzero;stroke:none"/></g><g id="g46" transform="translate(36,22)"><path d="m 0,0 -29,0 c -1.477,0 -2.752,-0.81 -3.445,-2 L 0,-2 0,0 Z" id="path48" style="fill:#77b255;fill-opacity:1;fill-rule:nonzero;stroke:none"/></g><g id="g50" transform="translate(36,8)"><path d="m 0,0 -33,0 c 0,-2.209 1.791,-4 4,-4 l 29,0 0,4 z" id="path52" style="fill:#5c913b;fill-opacity:1;fill-rule:nonzero;stroke:none"/></g><path d="M 36,10 3,10 3,8 36,8 36,10 Z" id="path54" style="fill:#ffac33;fill-opacity:1;fill-rule:nonzero;stroke:none"/><path d="m 9,12 -6,0 0,5 6,0 0,-5 z" id="path56" style="fill:#55acee;fill-opacity:1;fill-rule:nonzero;stroke:none"/><g id="g58" transform="translate(15,14)"><path d="m 0,0 c 0,-0.553 -0.447,-1 -1,-1 l -2,0 c -0.552,0 -1,0.447 -1,1 l 0,2 c 0,0.553 0.448,1 1,1 l 2,0 C -0.447,3 0,2.553 0,2 L 0,0 Z" id="path60" style="fill:#55acee;fill-opacity:1;fill-rule:nonzero;stroke:none"/></g><g id="g62" transform="translate(20,14)"><path d="m 0,0 c 0,-0.553 -0.447,-1 -1,-1 l -2,0 c -0.552,0 -1,0.447 -1,1 l 0,2 c 0,0.553 0.448,1 1,1 l 2,0 C -0.447,3 0,2.553 0,2 L 0,0 Z" id="path64" style="fill:#55acee;fill-opacity:1;fill-rule:nonzero;stroke:none"/></g><g id="g66" transform="translate(27,14)"><path d="m 0,0 c 0,-0.553 -0.447,-1 -1,-1 l -2,0 c -0.553,0 -1,0.447 -1,1 l 0,2 c 0,0.553 0.447,1 1,1 l 2,0 C -0.447,3 0,2.553 0,2 L 0,0 Z" id="path68" style="fill:#55acee;fill-opacity:1;fill-rule:nonzero;stroke:none"/></g><g id="g70" transform="translate(34,14)"><path d="m 0,0 c 0,-0.553 -0.447,-1 -1,-1 l -2,0 c -0.553,0 -1,0.447 -1,1 l 0,2 c 0,0.553 0.447,1 1,1 l 2,0 C -0.447,3 0,2.553 0,2 L 0,0 Z" id="path72" style="fill:#55acee;fill-opacity:1;fill-rule:nonzero;stroke:none"/></g><g id="g74" transform="translate(22.5,18)"><path d="m 0,0 c -0.275,0 -0.5,-0.224 -0.5,-0.5 l 0,-10 c 0,-0.275 0.225,-0.5 0.5,-0.5 l 5,0 c 0.275,0 0.5,0.225 0.5,0.5 l 0,10 C 5.5,-0.224 5.275,0 5,0 L 0,0 Z m 5,-12 -5,0 c -0.827,0 -1.5,0.673 -1.5,1.5 l 0,10 C -1.5,0.327 -0.827,1 0,1 L 5,1 C 5.827,1 6.5,0.327 6.5,-0.5 l 0,-10 C 6.5,-11.327 5.827,-12 5,-12" id="path76" style="fill:#66757f;fill-opacity:1;fill-rule:nonzero;stroke:none"/></g></g></g></g></svg>