<?xml version="1.0" encoding="UTF-8" standalone="no"?><svg xmlns="http://www.w3.org/2000/svg" xmlns:cc="http://creativecommons.org/ns#" xmlns:dc="http://purl.org/dc/elements/1.1/" xmlns:rdf="http://www.w3.org/1999/02/22-rdf-syntax-ns#" xmlns:svg="http://www.w3.org/2000/svg" height="45" id="svg2" style="enable-background:new 0 0 45 45;" version="1.1" viewBox="0 0 45 45" width="45" xml:space="preserve"><metadata id="metadata8"><rdf:RDF><cc:Work rdf:about=""><dc:format>image/svg+xml</dc:format><dc:type rdf:resource="http://purl.org/dc/dcmitype/StillImage"/></cc:Work></rdf:RDF></metadata><defs id="defs6"><clipPath clipPathUnits="userSpaceOnUse" id="clipPath16"><path d="M 0,36 36,36 36,0 0,0 0,36 Z" id="path18"/></clipPath></defs><g id="g10" transform="matrix(1.25,0,0,-1.25,0,45)"><g id="g12"><g clip-path="url(#clipPath16)" id="g14"><g id="g20" transform="translate(32,31)"><path d="m 0,0 -28,0 c -1.016,0 -1.94,-0.382 -2.646,-1.006 L -14.5,-13 4,-13 4,-4 C 4,-1.791 2.209,0 0,0" id="path22" style="fill:#6ab2e7;fill-opacity:1;fill-rule:nonzero;stroke:none"/></g><g id="g24" transform="translate(32,5)"><path d="m 0,0 -28,0 c -1.016,0 -1.94,0.382 -2.646,1.006 L -14.5,13 4,13 4,4 C 4,1.791 2.209,0 0,0" id="path26" style="fill:#12ad2b;fill-opacity:1;fill-rule:nonzero;stroke:none"/></g><g id="g28" transform="translate(1.3826,6.0271)"><path d="M 0,0 16.117,11.973 -0.029,23.967 c -0.828,-0.733 -1.354,-1.801 -1.354,-2.994 l 0,-9 0,-8.5 C -1.383,1.993 -0.845,0.79 0,0" id="path30" style="fill:#eeeeee;fill-opacity:1;fill-rule:nonzero;stroke:none"/></g><g id="g32" transform="translate(6.5001,21.5)"><path d="m 0,0 0.826,-2.543 2.674,0 L 1.337,-4.114 2.163,-6.657 0,-5.086 l -2.163,-1.571 0.826,2.543 -2.163,1.571 2.674,0 L 0,0 Z" id="path34" style="fill:#d7141a;fill-opacity:1;fill-rule:nonzero;stroke:none"/></g></g></g></g></svg>