<?xml version="1.0" encoding="UTF-8" standalone="no"?><svg xmlns="http://www.w3.org/2000/svg" xmlns:cc="http://creativecommons.org/ns#" xmlns:dc="http://purl.org/dc/elements/1.1/" xmlns:rdf="http://www.w3.org/1999/02/22-rdf-syntax-ns#" xmlns:svg="http://www.w3.org/2000/svg" height="45" id="svg2" style="enable-background:new 0 0 45 45;" version="1.1" viewBox="0 0 45 45" width="45" xml:space="preserve"><metadata id="metadata8"><rdf:RDF><cc:Work rdf:about=""><dc:format>image/svg+xml</dc:format><dc:type rdf:resource="http://purl.org/dc/dcmitype/StillImage"/></cc:Work></rdf:RDF></metadata><defs id="defs6"><clipPath clipPathUnits="userSpaceOnUse" id="clipPath16"><path d="M 0,36 36,36 36,0 0,0 0,36 Z" id="path18"/></clipPath></defs><g id="g10" transform="matrix(1.25,0,0,-1.25,0,45)"><g id="g12"><g clip-path="url(#clipPath16)" id="g14"><g id="g20" transform="translate(35,10)"><path d="m 0,0 c 0,-2.209 -1.791,-4 -4,-4 l -26,0 c -2.209,0 -4,1.791 -4,4 l 0,19.687 c 0,2.209 5.791,6.313 8,6.313 l 20.625,0 C -2.281,26 0,23.687 0,20.625 L 0,0 Z" id="path22" style="fill:#aab8c2;fill-opacity:1;fill-rule:nonzero;stroke:none"/></g><g id="g24" transform="translate(33,6)"><path d="m 0,0 c 0,-2.209 -1.791,-4 -4,-4 l -22,0 c -2.209,0 -4,1.791 -4,4 l 0,24 c 0,4.119 -0.021,4 5,4 l 21,0 c 2.209,0 4,-1.791 4,-4 L 0,0 Z" id="path26" style="fill:#f5f8fa;fill-opacity:1;fill-rule:nonzero;stroke:none"/></g><g id="g28" transform="translate(31,5)"><path d="m 0,0 c 0,-1.657 -1.343,-3 -3,-3 l -24,0 c -1.657,0 -3,1.343 -3,3 l 0,24 c 0,1.657 1.343,3 3,3 l 24,0 c 1.657,0 3,-1.343 3,-3 L 0,0 Z" id="path30" style="fill:#ffffff;fill-opacity:1;fill-rule:nonzero;stroke:none"/></g><g id="g32" transform="translate(31,4)"><path d="m 0,0 c 0,-2.209 -1.791,-4 -4,-4 l -21,0 c -2.209,0 -4,1.791 -4,4 l 0,22 c 0,2.209 1.791,4 4,4 l 21,0 c 2.209,0 4,-1.791 4,-4 L 0,0 Z" id="path34" style="fill:#aab8c2;fill-opacity:1;fill-rule:nonzero;stroke:none"/></g><g id="g36" transform="translate(29,4)"><path d="m 0,0 c 0,-2.209 -1.791,-4 -4,-4 l -19,0 c -2.209,0 -4,1.791 -4,4 l 0,20 c 0,2.209 1.791,4 4,4 l 19.335,0 C -1.456,24 0,22.544 0,20.335 L 0,0 Z" id="path38" style="fill:#e1e8ed;fill-opacity:1;fill-rule:nonzero;stroke:none"/></g><g id="g40" transform="translate(6,30)"><path d="M 0,0 C -1.687,0 -1.731,1.922 -1,2.75 -0.168,3.691 1.125,4 3.438,4 L 5,4 5,6 2.281,6 C -1.687,6 -5,3.5 -5,0.625 L -5,-26 c 0,-2.209 1.791,-4 4,-4 l 2,0 0,30 -1,0 z" id="path42" style="fill:#aab8c2;fill-opacity:1;fill-rule:nonzero;stroke:none"/></g><g id="g44" transform="translate(17,32)"><path d="m 0,0 0,-23 4,6 4,-6 0,23 -8,0 z" id="path46" style="fill:#dd2e44;fill-opacity:1;fill-rule:nonzero;stroke:none"/></g><g id="g48" transform="translate(17,32)"><path d="m 0,0 0,-23 4,6 4,-6 0,23 -8,0 z" id="path50" style="fill:none;stroke:#dd2e44;stroke-width:2;stroke-linecap:round;stroke-linejoin:round;stroke-miterlimit:10;stroke-dasharray:none;stroke-opacity:1"/></g><path d="m 27,32 -12,0 0,2 12,0 0,-2 z" id="path52" style="fill:#f5f8fa;fill-opacity:1;fill-rule:nonzero;stroke:none"/></g></g></g></svg>