<?xml version="1.0" encoding="UTF-8" standalone="no"?><svg xmlns="http://www.w3.org/2000/svg" xmlns:cc="http://creativecommons.org/ns#" xmlns:dc="http://purl.org/dc/elements/1.1/" xmlns:rdf="http://www.w3.org/1999/02/22-rdf-syntax-ns#" xmlns:svg="http://www.w3.org/2000/svg" height="45" id="svg2" style="enable-background:new 0 0 45 45;" version="1.1" viewBox="0 0 45 45" width="45" xml:space="preserve"><metadata id="metadata8"><rdf:RDF><cc:Work rdf:about=""><dc:format>image/svg+xml</dc:format><dc:type rdf:resource="http://purl.org/dc/dcmitype/StillImage"/></cc:Work></rdf:RDF></metadata><defs id="defs6"><clipPath clipPathUnits="userSpaceOnUse" id="clipPath16"><path d="M 0,36 36,36 36,0 0,0 0,36 Z" id="path18"/></clipPath></defs><g id="g10" transform="matrix(1.25,0,0,-1.25,0,45)"><g id="g12"><g clip-path="url(#clipPath16)" id="g14"><g id="g20" transform="translate(24.7695,16.2852)"><path d="m 0,0 c 0,3.757 -3.045,6.801 -6.801,6.801 -2.28,0 -4.292,-1.125 -5.526,-2.845 -1.234,1.72 -3.247,2.845 -5.526,2.845 -3.756,0 -6.801,-3.044 -6.801,-6.801 0,-0.531 0.067,-1.049 0.183,-1.545 0.945,-5.867 7.468,-12.059 12.144,-13.758 4.675,1.699 11.2,7.891 12.141,13.756 C -0.067,-1.049 0,-0.531 0,0" id="path22" style="fill:#e75a70;fill-opacity:1;fill-rule:nonzero;stroke:none"/></g><g id="g24" transform="translate(35.8848,30.3066)"><path d="m 0,0 c 0,2.602 -2.109,4.711 -4.711,4.711 -1.579,0 -2.973,-0.78 -3.828,-1.972 -0.856,1.192 -2.249,1.972 -3.827,1.972 -2.602,0 -4.711,-2.109 -4.711,-4.711 0,-0.369 0.047,-0.727 0.127,-1.07 0.654,-4.065 5.173,-8.353 8.411,-9.53 3.238,1.177 7.758,5.465 8.412,9.529 C -0.047,-0.727 0,-0.369 0,0" id="path26" style="fill:#e75a70;fill-opacity:1;fill-rule:nonzero;stroke:none"/></g></g></g></g></svg>