<?xml version="1.0" encoding="UTF-8" standalone="no"?><svg xmlns="http://www.w3.org/2000/svg" xmlns:cc="http://creativecommons.org/ns#" xmlns:dc="http://purl.org/dc/elements/1.1/" xmlns:rdf="http://www.w3.org/1999/02/22-rdf-syntax-ns#" xmlns:svg="http://www.w3.org/2000/svg" height="45" id="svg2" style="enable-background:new 0 0 45 45;" version="1.1" viewBox="0 0 45 45" width="45" xml:space="preserve"><metadata id="metadata8"><rdf:RDF><cc:Work rdf:about=""><dc:format>image/svg+xml</dc:format><dc:type rdf:resource="http://purl.org/dc/dcmitype/StillImage"/></cc:Work></rdf:RDF></metadata><defs id="defs6"><clipPath clipPathUnits="userSpaceOnUse" id="clipPath16"><path d="M 0,36 36,36 36,0 0,0 0,36 Z" id="path18"/></clipPath></defs><g id="g10" transform="matrix(1.25,0,0,-1.25,0,45)"><g id="g12"><g clip-path="url(#clipPath16)" id="g14"><g id="g20" transform="translate(5,0)"><path d="m 0,0 c -1.104,0 -2,0.896 -2,2 l 0,31 c 0,1.104 0.896,2 2,2 1.104,0 2,-0.896 2,-2 L 2,2 C 2,0.896 1.104,0 0,0" id="path22" style="fill:#8899a6;fill-opacity:1;fill-rule:nonzero;stroke:none"/></g><g id="g24" transform="translate(5,35)"><path d="m 0,0 c -1.105,0 -2,-0.895 -2,-2 l 0,-31 c 0,-0.276 0.224,-0.5 0.5,-0.5 0.276,0 0.5,0.224 0.5,0.5 l 0,29.586 C -1,-2.633 -0.367,-2 0.414,-2 L 2,-2 C 2,-0.895 1.105,0 0,0" id="path26" style="fill:#aab8c2;fill-opacity:1;fill-rule:nonzero;stroke:none"/></g><g id="g28" transform="translate(5,0)"><path d="m 0,0 c -1.104,0 -2,0.896 -2,2 l 0,31 c 0,1.104 0.896,2 2,2 1.104,0 2,-0.896 2,-2 L 2,2 C 2,0.896 1.104,0 0,0" id="path30" style="fill:#8899a6;fill-opacity:1;fill-rule:nonzero;stroke:none"/></g><g id="g32" transform="translate(5,35)"><path d="m 0,0 c -1.105,0 -2,-0.895 -2,-2 l 0,-31 c 0,-0.276 0.224,-0.5 0.5,-0.5 0.276,0 0.5,0.224 0.5,0.5 l 0,29.586 C -1,-2.633 -0.367,-2 0.414,-2 L 2,-2 C 2,-0.895 1.105,0 0,0" id="path34" style="fill:#aab8c2;fill-opacity:1;fill-rule:nonzero;stroke:none"/></g><g id="g36" transform="translate(32.3965,32.918)"><path d="m 0,0 c -1.665,0.719 -3.437,1.076 -5.396,1.108 l -1.375,-0.38 -4.625,-0.646 -1,0.128 c -0.237,-0.051 -0.476,-0.1 -0.711,-0.15 -2.169,-0.469 -4.23,-0.894 -6.289,-0.982 l -1,-0.996 -6,1 0,-19 6,0 1,-2 0.077,0 c 2.243,0.096 4.471,0.556 6.632,1.022 0.098,0.022 0.193,0.041 0.291,0.062 l 0.645,0.645 5.438,0.709 0.917,-0.412 c 1.679,-0.032 3.192,-0.334 4.603,-0.944 0.309,-0.133 0.665,-0.102 0.945,0.082 0.283,0.186 0.452,0.499 0.452,0.836 l 0,19 C 0.604,-0.519 0.366,-0.158 0,0" id="path38" style="fill:#292f33;fill-opacity:1;fill-rule:nonzero;stroke:none"/></g><g id="g40" transform="translate(13,31.9964)"><path d="m 0,0 c -0.239,-0.01 -0.478,-0.035 -0.717,-0.035 -1.797,0 -3.395,0.313 -4.887,0.957 C -5.912,1.056 -6.269,1.024 -6.549,0.839 -6.831,0.654 -7,0.34 -7,0.004 l 0,-6 c 0,0 3.292,-1 7,-1 L 0,0 Z" id="path42" style="fill:#e1e8ed;fill-opacity:1;fill-rule:nonzero;stroke:none"/></g><g id="g44" transform="translate(20,26)"><path d="m 0,0 c 0,0 -3.75,-1 -7,-1 l 0,-7 c 3,0 7,1 7,1 l 0,7 z" id="path46" style="fill:#e1e8ed;fill-opacity:1;fill-rule:nonzero;stroke:none"/></g><g id="g48" transform="translate(27,27)"><path d="M 0,0 0,7.026 C -0.096,7.028 -0.186,7.039 -0.283,7.039 -2.551,7.039 -4.804,6.597 -7,6.128 L -7,-1 c 0,0 2.167,1 7,1" id="path50" style="fill:#e1e8ed;fill-opacity:1;fill-rule:nonzero;stroke:none"/></g><g id="g52" transform="translate(6.6035,12.082)"><path d="m 0,0 c 1.5,-0.648 3.09,-0.993 4.82,-1.082 l 1.576,0 0,7 c -4.166,0 -7,1 -7,1 l 0,-6 C -0.604,0.519 -0.366,0.158 0,0" id="path54" style="fill:#e1e8ed;fill-opacity:1;fill-rule:nonzero;stroke:none"/></g><g id="g56" transform="translate(20,19)"><path d="m 0,0 0,-6.916 c 2.313,0.499 4.511,0.955 6.717,0.955 0.097,0 0.187,-0.011 0.283,-0.013 L 7,1 C 2.5,1 0,0 0,0" id="path58" style="fill:#e1e8ed;fill-opacity:1;fill-rule:nonzero;stroke:none"/></g><g id="g60" transform="translate(27,20)"><path d="M 0,0 C 2.676,0 4.82,-0.56 6,-0.954 L 6,6.092 C 4.853,6.473 2.769,7 0,7 L 0,0 Z" id="path62" style="fill:#e1e8ed;fill-opacity:1;fill-rule:nonzero;stroke:none"/></g></g></g></g></svg>