<?xml version="1.0" encoding="UTF-8" standalone="no"?><svg xmlns="http://www.w3.org/2000/svg" xmlns:cc="http://creativecommons.org/ns#" xmlns:dc="http://purl.org/dc/elements/1.1/" xmlns:rdf="http://www.w3.org/1999/02/22-rdf-syntax-ns#" xmlns:svg="http://www.w3.org/2000/svg" height="45" id="svg2" style="enable-background:new 0 0 45 45;" version="1.1" viewBox="0 0 45 45" width="45" xml:space="preserve"><metadata id="metadata8"><rdf:RDF><cc:Work rdf:about=""><dc:format>image/svg+xml</dc:format><dc:type rdf:resource="http://purl.org/dc/dcmitype/StillImage"/></cc:Work></rdf:RDF></metadata><defs id="defs6"><clipPath clipPathUnits="userSpaceOnUse" id="clipPath16"><path d="M 0,36 36,36 36,0 0,0 0,36 Z" id="path18"/></clipPath><clipPath clipPathUnits="userSpaceOnUse" id="clipPath28"><path d="m 20,36 c 0,0 -1,0 -2,-1 l 0,0 c -1,-1 -1,-2 -1,-4 l 0,0 c 0,-2 1,-4 1,-5 l 0,0 c 0,-3 -4,-5 -4,-9.084 l 0,0 C 14,13.583 16,7 17,5 l 0,0 3,0 3,0 c 1,2 3,8.583 3,11.916 l 0,0 C 26,21 22,23 22,26 l 0,0 c 0,1 1,3 1,5 l 0,0 c 0,2 0,3 -1,4 l 0,0 c -1,1 -2,1 -2,1 z" id="path30"/></clipPath><clipPath clipPathUnits="userSpaceOnUse" id="clipPath40"><path d="M 0,36 36,36 36,0 0,0 0,36 Z" id="path42"/></clipPath><clipPath clipPathUnits="userSpaceOnUse" id="clipPath52"><path d="m 28,32 c -1,-1 -1,-2 -1,-4 l 0,0 c 0,-2 1,-4 1,-5 l 0,0 c 0,-3 -4,-5 -4,-9.084 l 0,0 C 24,10.583 26,4 27,2 l 0,0 3,0 3,0 c 1,2 3,8.583 3,11.916 l 0,0 C 36,18 32,20 32,23 l 0,0 c 0,1 1,3 1,5 l 0,0 c 0,2 0,3 -1,4 l 0,0 c -1,1 -2,1 -2,1 l 0,0 c 0,0 -1,0 -2,-1" id="path54"/></clipPath><clipPath clipPathUnits="userSpaceOnUse" id="clipPath64"><path d="M 0,36 36,36 36,0 0,0 0,36 Z" id="path66"/></clipPath></defs><g id="g10" transform="matrix(1.25,0,0,-1.25,0,45)"><g id="g12"><g clip-path="url(#clipPath16)" id="g14"><g id="g20" transform="translate(22,26)"><path d="m 0,0 c 0,1 1,3 1,5 0,2 0,3 -1,4 -1,1 -2,1 -2,1 0,0 -1,0 -2,-1 C -5,8 -5,7 -5,5 -5,3 -4,1 -4,0 -4,-3 -8,-5 -8,-9.084 -8,-12.417 -6,-19 -5,-21 l 3,0 3,0 c 1,2 3,8.583 3,11.916 C 4,-5 0,-3 0,0" id="path22" style="fill:#ccd6dd;fill-opacity:1;fill-rule:nonzero;stroke:none"/></g></g></g><g id="g24"><g clip-path="url(#clipPath28)" id="g26"><path d="m 23,26 -6,0 0,2 6,0 0,-2 z" id="path32" style="fill:#be1931;fill-opacity:1;fill-rule:nonzero;stroke:none"/><path d="m 24,22 -8,0 0,2 8,0 0,-2 z" id="path34" style="fill:#be1931;fill-opacity:1;fill-rule:nonzero;stroke:none"/></g></g><g id="g36"><g clip-path="url(#clipPath40)" id="g38"><g id="g44" transform="translate(32,23)"><path d="m 0,0 c 0,1 1,3 1,5 0,2 0,3 -1,4 -1,1 -2,1 -2,1 0,0 -1,0 -2,-1 C -5,8 -5,7 -5,5 -5,3 -4,1 -4,0 -4,-3 -8,-5 -8,-9.084 -8,-12.417 -6,-19 -5,-21 l 3,0 3,0 c 1,2 3,8.583 3,11.916 C 4,-5 0,-3 0,0" id="path46" style="fill:#ccd6dd;fill-opacity:1;fill-rule:nonzero;stroke:none"/></g></g></g><g id="g48"><g clip-path="url(#clipPath52)" id="g50"><path d="m 33,23 -6,0 0,2 6,0 0,-2 z" id="path56" style="fill:#be1931;fill-opacity:1;fill-rule:nonzero;stroke:none"/><path d="m 34,19 -8,0 0,2 8,0 0,-2 z" id="path58" style="fill:#be1931;fill-opacity:1;fill-rule:nonzero;stroke:none"/></g></g><g id="g60"><g clip-path="url(#clipPath64)" id="g62"><g id="g68" transform="translate(12.562,0)"><path d="m 0,0 c -6.938,0 -12.562,5.624 -12.562,12.563 0,6.938 5.624,12.562 12.562,12.562 6.938,0 12.563,-5.624 12.563,-12.562 C 12.563,5.624 6.938,0 0,0" id="path70" style="fill:#3a4449;fill-opacity:1;fill-rule:nonzero;stroke:none"/></g><g id="g72" transform="translate(15.2305,17.21)"><path d="m 0,0 c 0,-1.279 -1.037,-2.316 -2.316,-2.316 -1.279,0 -2.315,1.037 -2.315,2.316 0,1.279 1.036,2.315 2.315,2.315 C -1.037,2.315 0,1.279 0,0" id="path74" style="fill:#000000;fill-opacity:1;fill-rule:nonzero;stroke:none"/></g><g id="g76" transform="translate(8.8203,15.0625)"><path d="m 0,0 c 0,-1.279 -1.037,-2.316 -2.316,-2.316 -1.279,0 -2.315,1.037 -2.315,2.316 0,1.279 1.036,2.315 2.315,2.315 C -1.037,2.315 0,1.279 0,0" id="path78" style="fill:#000000;fill-opacity:1;fill-rule:nonzero;stroke:none"/></g><g id="g80" transform="translate(13.7466,7.9473)"><path d="m 0,0 c 0,-1.279 -1.037,-2.316 -2.316,-2.316 -1.279,0 -2.315,1.037 -2.315,2.316 0,1.278 1.036,2.315 2.315,2.315 C -1.037,2.315 0,1.278 0,0" id="path82" style="fill:#000000;fill-opacity:1;fill-rule:nonzero;stroke:none"/></g></g></g></g></svg>