<?xml version="1.0" encoding="UTF-8" standalone="no"?><svg xmlns="http://www.w3.org/2000/svg" xmlns:cc="http://creativecommons.org/ns#" xmlns:dc="http://purl.org/dc/elements/1.1/" xmlns:rdf="http://www.w3.org/1999/02/22-rdf-syntax-ns#" xmlns:svg="http://www.w3.org/2000/svg" height="45" id="svg2" style="enable-background:new 0 0 45 45;" version="1.1" viewBox="0 0 45 45" width="45" xml:space="preserve"><metadata id="metadata8"><rdf:RDF><cc:Work rdf:about=""><dc:format>image/svg+xml</dc:format><dc:type rdf:resource="http://purl.org/dc/dcmitype/StillImage"/></cc:Work></rdf:RDF></metadata><defs id="defs6"><clipPath clipPathUnits="userSpaceOnUse" id="clipPath16"><path d="M 0,36 36,36 36,0 0,0 0,36 Z" id="path18"/></clipPath></defs><g id="g10" transform="matrix(1.25,0,0,-1.25,0,45)"><g id="g12"><g clip-path="url(#clipPath16)" id="g14"><g id="g20" transform="translate(31.1387,26.853)"><path d="m 0,0 c -0.941,0.657 -2.357,0.531 -3.201,-0.166 l 0.969,1.407 c 0.779,1.111 0.5,2.313 -0.613,3.092 -1.112,0.778 -2.646,0.509 -3.426,-0.604 l -8.829,-12.582 -0.07,0.031 8.063,11.844 c 0.786,1.122 0.638,2.544 -0.484,3.331 -1.122,0.784 -2.67,0.513 -3.456,-0.611 l -10.42,-14.72 c -0.786,-1.123 -0.401,-2.661 0.721,-3.447 0.191,-0.134 0.397,-0.226 0.607,-0.299 l 0,-9.129 10,0 0,3.113 c 0.147,0.129 0.967,0.763 1.083,0.929 L 0.611,-3.478 C 1.404,-2.349 1.13,-0.792 0,0" id="path22" style="fill:#d2a077;fill-opacity:1;fill-rule:nonzero;stroke:none"/></g><g id="g24" transform="translate(33.3047,18.6636)"><path d="M 0,0 C 0,0 1.132,1.65 -0.519,2.781 -2.168,3.912 -3.299,2.262 -3.299,2.262 L -8.55,-5.396 c -0.18,0.302 -0.379,0.6 -0.599,0.893 l 7.288,10.63 c 0,0 1.131,1.649 -0.519,2.78 -1.649,1.132 -2.78,-0.518 -2.78,-0.518 l -6.856,-9.997 c -0.255,0.209 -0.515,0.417 -0.785,0.622 l 7.947,11.59 c 0,0 1.131,1.649 -0.518,2.78 -1.649,1.132 -2.78,-0.518 -2.78,-0.518 L -16.1,1.277 c -0.292,0.179 -0.581,0.335 -0.87,0.498 l 7.427,10.832 c 0,0 1.131,1.649 -0.519,2.78 -1.649,1.132 -2.78,-0.518 -2.78,-0.518 L -20.696,3.415 -21.325,2.498 -21.89,1.673 c 4.948,-3.393 5.419,-9.779 2.592,-13.902 -0.566,-0.825 -1.391,-0.26 -1.391,-0.26 3.394,4.949 2.357,10.51 -2.592,13.903 l 1.462,7.302 c 0,0 0.545,1.925 -1.379,2.47 -1.924,0.545 -2.469,-1.379 -2.469,-1.379 l -1.685,-5.004 c -0.668,-1.984 -1.379,-3.961 -2.32,-5.83 -2.657,-5.28 -1.07,-11.843 3.941,-15.279 5.465,-3.747 12.935,-2.355 16.683,3.11 0.198,0.29 0.364,0.573 0.522,0.856 L -8.482,-12.371 0,0 Z" id="path26" style="fill:#f3d2a2;fill-opacity:1;fill-rule:nonzero;stroke:none"/></g><g id="g28" transform="translate(2.0415,29)"><path d="m 0,0 -2,0 c 0,3.837 3.122,6.958 6.958,6.958 l 0,-2 C 2.225,4.958 0,2.734 0,0" id="path30" style="fill:#77b255;fill-opacity:1;fill-rule:nonzero;stroke:none"/></g><g id="g32" transform="translate(4,24)"><path d="M 0,0 -2,0 C -2,5.514 2.486,10 8,10 L 8,8 C 3.589,8 0,4.411 0,0" id="path34" style="fill:#77b255;fill-opacity:1;fill-rule:nonzero;stroke:none"/></g><g id="g36" transform="translate(29,0)"><path d="M 0,0 0,2 C 3,2 5,4 5,7 L 7,7 C 7,3 4,0 0,0" id="path38" style="fill:#77b255;fill-opacity:1;fill-rule:nonzero;stroke:none"/></g><g id="g40" transform="translate(24,1.958)"><path d="m 0,0 0,2 c 4,0 8.042,4.042 8.042,8.042 l 2,0 C 10.042,4.042 6,0 0,0" id="path42" style="fill:#77b255;fill-opacity:1;fill-rule:nonzero;stroke:none"/></g><g id="g44" transform="translate(34,12)"><path d="m 0,0 c 0,-0.553 -0.447,-1 -1,-1 -0.553,0 -1,0.447 -1,1 0,0.553 0.447,1 1,1 0.553,0 1,-0.447 1,-1" id="path46" style="fill:#77b255;fill-opacity:1;fill-rule:nonzero;stroke:none"/></g><g id="g48" transform="translate(25,3)"><path d="m 0,0 c 0,-0.553 -0.447,-1 -1,-1 -0.553,0 -1,0.447 -1,1 0,0.553 0.447,1 1,1 0.553,0 1,-0.447 1,-1" id="path50" style="fill:#77b255;fill-opacity:1;fill-rule:nonzero;stroke:none"/></g><g id="g52" transform="translate(30,1)"><path d="m 0,0 c 0,-0.553 -0.447,-1 -1,-1 -0.553,0 -1,0.447 -1,1 0,0.553 0.447,1 1,1 0.553,0 1,-0.447 1,-1" id="path54" style="fill:#77b255;fill-opacity:1;fill-rule:nonzero;stroke:none"/></g><g id="g56" transform="translate(36,7)"><path d="m 0,0 c 0,-0.553 -0.447,-1 -1,-1 -0.553,0 -1,0.447 -1,1 0,0.553 0.447,1 1,1 0.553,0 1,-0.447 1,-1" id="path58" style="fill:#77b255;fill-opacity:1;fill-rule:nonzero;stroke:none"/></g><g id="g60" transform="translate(4,24)"><path d="m 0,0 c 0,0.552 -0.448,1 -1,1 -0.552,0 -1,-0.448 -1,-1 0,-0.552 0.448,-1 1,-1 0.552,0 1,0.448 1,1" id="path62" style="fill:#77b255;fill-opacity:1;fill-rule:nonzero;stroke:none"/></g><g id="g64" transform="translate(11,33)"><path d="M 0,0 C 0,-0.552 0.448,-1 1,-1 1.552,-1 2,-0.552 2,0 2,0.552 1.552,1 1,1 0.448,1 0,0.552 0,0" id="path66" style="fill:#77b255;fill-opacity:1;fill-rule:nonzero;stroke:none"/></g><g id="g68" transform="translate(6,35)"><path d="M 0,0 C 0,-0.552 0.448,-1 1,-1 1.552,-1 2,-0.552 2,0 2,0.552 1.552,1 1,1 0.448,1 0,0.552 0,0" id="path70" style="fill:#77b255;fill-opacity:1;fill-rule:nonzero;stroke:none"/></g><g id="g72" transform="translate(2,29)"><path d="m 0,0 c 0,0.552 -0.448,1 -1,1 -0.552,0 -1,-0.448 -1,-1 0,-0.552 0.448,-1 1,-1 0.552,0 1,0.448 1,1" id="path74" style="fill:#77b255;fill-opacity:1;fill-rule:nonzero;stroke:none"/></g></g></g></g></svg>