<?xml version="1.0" encoding="UTF-8" standalone="no"?><svg xmlns="http://www.w3.org/2000/svg" xmlns:cc="http://creativecommons.org/ns#" xmlns:dc="http://purl.org/dc/elements/1.1/" xmlns:rdf="http://www.w3.org/1999/02/22-rdf-syntax-ns#" xmlns:svg="http://www.w3.org/2000/svg" height="45" id="svg2" style="enable-background:new 0 0 45 45;" version="1.1" viewBox="0 0 45 45" width="45" xml:space="preserve"><metadata id="metadata8"><rdf:RDF><cc:Work rdf:about=""><dc:format>image/svg+xml</dc:format><dc:type rdf:resource="http://purl.org/dc/dcmitype/StillImage"/></cc:Work></rdf:RDF></metadata><defs id="defs6"><clipPath clipPathUnits="userSpaceOnUse" id="clipPath16"><path d="M 0,36 36,36 36,0 0,0 0,36 Z" id="path18"/></clipPath></defs><g id="g10" transform="matrix(1.25,0,0,-1.25,0,45)"><g id="g12"><g clip-path="url(#clipPath16)" id="g14"><g id="g20" transform="translate(24.8799,30.0503)"><path d="M 0,0 C -1.685,-2.853 -0.737,-6.532 2.116,-8.217 4.97,-9.901 6.437,-10.904 8.12,-8.051 9.806,-5.197 10.603,4.192 9.741,4.7 8.881,5.208 1.685,2.854 0,0" id="path22" style="fill:#c1694f;fill-opacity:1;fill-rule:nonzero;stroke:none"/></g><g id="g24" transform="translate(24.6211,26.6123)"><path d="M 0,0 C -1.685,-2.853 -1.167,-6.278 1.156,-7.65 3.479,-9.021 5.695,-7.82 7.379,-4.966 9.064,-2.112 9.482,4.854 8.781,5.268 8.08,5.681 1.684,2.854 0,0" id="path26" style="fill:#662113;fill-opacity:1;fill-rule:nonzero;stroke:none"/></g><g id="g28" transform="translate(11.1196,30.0503)"><path d="M 0,0 C 1.685,-2.853 0.737,-6.532 -2.116,-8.217 -4.97,-9.901 -6.436,-10.904 -8.12,-8.051 -9.806,-5.197 -10.602,4.192 -9.741,4.7 -8.881,5.208 -1.685,2.854 0,0" id="path30" style="fill:#c1694f;fill-opacity:1;fill-rule:nonzero;stroke:none"/></g><g id="g32" transform="translate(11.3784,26.6123)"><path d="M 0,0 C 1.685,-2.853 1.167,-6.278 -1.156,-7.65 -3.479,-9.021 -5.695,-7.82 -7.379,-4.966 -9.064,-2.112 -9.482,4.854 -8.781,5.268 -8.08,5.681 -1.684,2.854 0,0" id="path34" style="fill:#662113;fill-opacity:1;fill-rule:nonzero;stroke:none"/></g><g id="g36" transform="translate(35,14.5215)"><path d="m 0,0 c 0,-9.989 -1,-14.521 -17,-14.521 -16,0 -17,4.532 -17,14.521 0,9.989 7.011,19.479 17,19.479 9.989,0 17,-9.49 17,-19.479" id="path38" style="fill:#c1694f;fill-opacity:1;fill-rule:nonzero;stroke:none"/></g><g id="g40" transform="translate(7.6504,7)"><path d="m 0,0 c 0,0 -3.641,3 -4.641,11.5 -0.234,1.986 1.696,1.977 2,0 C -1.641,5 3.709,1 6.35,-1 8.605,-2.708 0,0 0,0" id="path42" style="fill:#e1e8ed;fill-opacity:1;fill-rule:nonzero;stroke:none"/></g><g id="g44" transform="translate(28.3496,7)"><path d="m 0,0 c 0,0 3.641,3 4.641,11.5 0.234,1.986 -1.696,1.977 -2,0 C 1.641,5 -3.709,1 -6.35,-1 -8.604,-2.708 0,0 0,0" id="path46" style="fill:#e1e8ed;fill-opacity:1;fill-rule:nonzero;stroke:none"/></g><g id="g48" transform="translate(29,7)"><path d="m 0,0 c 0,-1.104 -3.82,-3 -11,-3 -7.18,0 -11,1.896 -11,3 0,1.104 3.82,-1 11,-1 7.18,0 11,2.104 11,1" id="path50" style="fill:#000000;fill-opacity:1;fill-rule:nonzero;stroke:none"/></g><g id="g52" transform="translate(28,12.875)"><path d="m 0,0 c 0,-4.487 -3.097,-9.375 -10,-9.375 -6.904,0 -10,4.888 -10,9.375 0,4.487 3.096,5.625 10,5.625 C -3.097,5.625 0,4.487 0,0" id="path54" style="fill:#662113;fill-opacity:1;fill-rule:nonzero;stroke:none"/></g><g id="g56" transform="translate(15,11.4004)"><path d="M 0,0 C 0,-1.857 -0.34,-2.4 -1.5,-2.4 -2.66,-2.4 -3,-1.857 -3,0 -3,1.856 -2.66,2.399 -1.5,2.399 -0.34,2.399 0,1.856 0,0" id="path58" style="fill:#c1694f;fill-opacity:1;fill-rule:nonzero;stroke:none"/></g><g id="g60" transform="translate(24,11.4004)"><path d="M 0,0 C 0,-1.857 -0.34,-2.4 -1.5,-2.4 -2.66,-2.4 -3,-1.857 -3,0 -3,1.856 -2.66,2.399 -1.5,2.399 -0.34,2.399 0,1.856 0,0" id="path62" style="fill:#c1694f;fill-opacity:1;fill-rule:nonzero;stroke:none"/></g><g id="g64" transform="translate(13,20.9976)"><path d="m 0,0 c 0,-1.105 -0.895,-2 -2,-2 -1.104,0 -2,0.895 -2,2 0,1.104 0.896,2.002 2,2.002 1.105,0 2,-0.898 2,-2.002" id="path66" style="fill:#292f33;fill-opacity:1;fill-rule:nonzero;stroke:none"/></g><g id="g68" transform="translate(27,20.9976)"><path d="m 0,0 c 0,-1.105 -0.895,-2 -2,-2 -1.104,0 -2,0.895 -2,2 0,1.104 0.896,2.002 2,2.002 1.105,0 2,-0.898 2,-2.002" id="path70" style="fill:#292f33;fill-opacity:1;fill-rule:nonzero;stroke:none"/></g></g></g></g></svg>