<?xml version="1.0" encoding="UTF-8" standalone="no"?><svg xmlns="http://www.w3.org/2000/svg" xmlns:cc="http://creativecommons.org/ns#" xmlns:dc="http://purl.org/dc/elements/1.1/" xmlns:rdf="http://www.w3.org/1999/02/22-rdf-syntax-ns#" xmlns:svg="http://www.w3.org/2000/svg" height="45" id="svg2" style="enable-background:new 0 0 45 45;" version="1.1" viewBox="0 0 45 45" width="45" xml:space="preserve"><metadata id="metadata8"><rdf:RDF><cc:Work rdf:about=""><dc:format>image/svg+xml</dc:format><dc:type rdf:resource="http://purl.org/dc/dcmitype/StillImage"/></cc:Work></rdf:RDF></metadata><defs id="defs6"><clipPath clipPathUnits="userSpaceOnUse" id="clipPath16"><path d="M 0,36 36,36 36,0 0,0 0,36 Z" id="path18"/></clipPath></defs><g id="g10" transform="matrix(1.25,0,0,-1.25,0,45)"><g id="g12"><g clip-path="url(#clipPath16)" id="g14"><g id="g20" transform="translate(36,4)"><path d="m 0,0 c 0,-2.209 -1.791,-4 -4,-4 l -28,0 c -2.209,0 -4,1.791 -4,4 l 0,28 c 0,2.209 1.791,4 4,4 l 28,0 c 2.209,0 4,-1.791 4,-4 L 0,0 Z" id="path22" style="fill:#3b88c3;fill-opacity:1;fill-rule:nonzero;stroke:none"/></g><g id="g24" transform="translate(7.2134,25.0249)"><path d="m 0,0 -1.958,0 c -1.592,0 -2.255,1.162 -2.255,2.289 0,1.16 0.829,2.288 2.255,2.288 l 4.71,0 c 1.426,0 2.223,-1.028 2.223,-2.354 l 0,-18.875 c 0,-1.658 -1.061,-2.586 -2.488,-2.586 C 1.062,-19.238 0,-18.31 0,-16.652 L 0,0 Z" id="path26" style="fill:#f5f8fa;fill-opacity:1;fill-rule:nonzero;stroke:none"/></g><g id="g28" transform="translate(27.5859,17.7935)"><path d="m 0,0 c 0,2.521 -0.232,7.696 -3.616,7.696 -3.383,0 -3.615,-5.175 -3.615,-7.696 0,-2.355 0.232,-7.695 3.615,-7.695 C -0.232,-7.695 0,-2.355 0,0 m -12.406,0 c 0,5.407 2.09,12.206 8.79,12.206 6.7,0 8.791,-6.799 8.791,-12.206 0,-5.406 -2.091,-12.207 -8.791,-12.207 -6.7,0 -8.79,6.801 -8.79,12.207" id="path30" style="fill:#f5f8fa;fill-opacity:1;fill-rule:nonzero;stroke:none"/></g></g></g></g></svg>