<?xml version="1.0" encoding="UTF-8" standalone="no"?><svg xmlns="http://www.w3.org/2000/svg" xmlns:cc="http://creativecommons.org/ns#" xmlns:dc="http://purl.org/dc/elements/1.1/" xmlns:rdf="http://www.w3.org/1999/02/22-rdf-syntax-ns#" xmlns:svg="http://www.w3.org/2000/svg" height="45" id="svg2" style="enable-background:new 0 0 45 45;" version="1.1" viewBox="0 0 45 45" width="45" xml:space="preserve"><metadata id="metadata8"><rdf:RDF><cc:Work rdf:about=""><dc:format>image/svg+xml</dc:format><dc:type rdf:resource="http://purl.org/dc/dcmitype/StillImage"/></cc:Work></rdf:RDF></metadata><defs id="defs6"><clipPath clipPathUnits="userSpaceOnUse" id="clipPath16"><path d="M 0,36 36,36 36,0 0,0 0,36 Z" id="path18"/></clipPath></defs><g id="g10" transform="matrix(1.25,0,0,-1.25,0,45)"><g id="g12"><g clip-path="url(#clipPath16)" id="g14"><g id="g20" transform="translate(14.1816,35.8325)"><path d="m 0,0 -6.363,-1.301 c -0.45,-0.093 -0.819,-0.544 -0.819,-1.003 l 0,-1.529 0,-2.255 0,-12.073 c -0.613,0.209 -1.287,0.328 -2,0.328 -2.761,0 -5,-1.741 -5,-3.888 0,-2.148 2.239,-3.889 5,-3.889 2.713,0 4.909,1.683 4.986,3.777 l 0.014,0 0,15.523 L 0,-5.455 c 0.45,0.093 0.818,0.544 0.818,1.003 l 0,3.785 C 0.818,-0.208 0.45,0.092 0,0" id="path22" style="fill:#5dadec;fill-opacity:1;fill-rule:nonzero;stroke:none"/></g><g id="g24" transform="translate(35.1816,31.8325)"><path d="m 0,0 -6.363,-1.301 c -0.45,-0.093 -0.819,-0.544 -0.819,-1.003 l 0,-1.529 0,-2.255 0,-12.073 c -0.613,0.209 -1.288,0.328 -2,0.328 -2.761,0 -5,-1.741 -5,-3.888 0,-2.148 2.239,-3.889 5,-3.889 2.713,0 4.909,1.683 4.986,3.777 l 0.014,0 0,15.523 L 0,-5.455 c 0.45,0.093 0.818,0.544 0.818,1.003 l 0,3.785 C 0.818,-0.208 0.45,0.092 0,0" id="path26" style="fill:#5dadec;fill-opacity:1;fill-rule:nonzero;stroke:none"/></g><g id="g28" transform="translate(23.1816,25.8325)"><path d="m 0,0 -6.363,-1.301 c -0.45,-0.093 -0.819,-0.544 -0.819,-1.003 l 0,-1.529 0,-2.255 0,-12.073 c -0.613,0.209 -1.287,0.328 -2,0.328 -2.761,0 -5,-1.741 -5,-3.888 0,-2.148 2.239,-3.889 5,-3.889 2.713,0 4.909,1.683 4.986,3.777 l 0.014,0 0,15.523 L 0,-5.455 c 0.45,0.093 0.818,0.544 0.818,1.003 l 0,3.785 C 0.818,-0.208 0.45,0.092 0,0" id="path30" style="fill:#5dadec;fill-opacity:1;fill-rule:nonzero;stroke:none"/></g></g></g></g></svg>