<?xml version="1.0" encoding="UTF-8" standalone="no"?><svg xmlns="http://www.w3.org/2000/svg" xmlns:cc="http://creativecommons.org/ns#" xmlns:dc="http://purl.org/dc/elements/1.1/" xmlns:rdf="http://www.w3.org/1999/02/22-rdf-syntax-ns#" xmlns:svg="http://www.w3.org/2000/svg" height="45" id="svg2" style="enable-background:new 0 0 45 45;" version="1.1" viewBox="0 0 45 45" width="45" xml:space="preserve"><metadata id="metadata8"><rdf:RDF><cc:Work rdf:about=""><dc:format>image/svg+xml</dc:format><dc:type rdf:resource="http://purl.org/dc/dcmitype/StillImage"/></cc:Work></rdf:RDF></metadata><defs id="defs6"><clipPath clipPathUnits="userSpaceOnUse" id="clipPath16"><path d="M 0,36 36,36 36,0 0,0 0,36 Z" id="path18"/></clipPath><clipPath clipPathUnits="userSpaceOnUse" id="clipPath56"><path d="M 4,31 C 1.791,31 0,29.209 0,27 l 0,0 0,-9 19,0 0,13 -15,0 z" id="path58"/></clipPath><clipPath clipPathUnits="userSpaceOnUse" id="clipPath72"><path d="M 0,36 36,36 36,0 0,0 0,36 Z" id="path74"/></clipPath></defs><g id="g10" transform="matrix(1.25,0,0,-1.25,0,45)"><g id="g12"><g clip-path="url(#clipPath16)" id="g14"><g id="g20" transform="translate(36,9)"><path d="m 0,0 c 0,-2.209 -1.791,-4 -4,-4 l -28,0 c -2.209,0 -4,1.791 -4,4 l 0,18 c 0,2.209 1.791,4 4,4 l 28,0 c 2.209,0 4,-1.791 4,-4 L 0,0 Z" id="path22" style="fill:#00247d;fill-opacity:1;fill-rule:nonzero;stroke:none"/></g><g id="g24" transform="translate(19,31)"><path d="m 0,0 -15,0 c -2.209,0 -4,-1.791 -4,-4 l 0,-9 19,0 0,13 z" id="path26" style="fill:#00247d;fill-opacity:1;fill-rule:nonzero;stroke:none"/></g><g id="g28" transform="translate(19,18)"><path d="M 0,0 0,2.029 -7.1,7 -12.329,7 -2.332,0 0,0 Z" id="path30" style="fill:#eeeeee;fill-opacity:1;fill-rule:nonzero;stroke:none"/></g><g id="g32" transform="translate(19,19.418)"><path d="m 0,0 -7.971,5.582 -1.743,0 L 0,-1.22 0,0 Z" id="path34" style="fill:#cf1b2b;fill-opacity:1;fill-rule:nonzero;stroke:none"/></g><g id="g36" transform="translate(8.0996,25)"><path d="M 0,0 -8.1,-5.766 -8.1,-7 -4.768,-7 5.23,0 0,0 Z" id="path38" style="fill:#eeeeee;fill-opacity:1;fill-rule:nonzero;stroke:none"/></g><g id="g40" transform="translate(10.7139,25)"><path d="m 0,0 -9.98,-7 0.266,0 1.461,0 L 1.744,0 0,0 Z" id="path42" style="fill:#cf1b2b;fill-opacity:1;fill-rule:nonzero;stroke:none"/></g><g id="g44" transform="translate(16.6689,31)"><path d="m 0,0 -9.997,-7 5.229,0 7.099,4.971 L 2.331,0 0,0 Z" id="path46" style="fill:#eeeeee;fill-opacity:1;fill-rule:nonzero;stroke:none"/></g><g id="g48" transform="translate(17.5391,31)"><path d="m 0,0 -9.996,-7 1.743,0 9.714,6.802 L 1.461,0 0,0 Z" id="path50" style="fill:#cf1b2b;fill-opacity:1;fill-rule:nonzero;stroke:none"/></g></g></g><g id="g52"><g clip-path="url(#clipPath56)" id="g54"><g id="g60" transform="translate(10,24)"><path d="M 0,0 3.328,0 -6.668,7 -9,7 -9.625,5.406 0,-1.331 0,0 Z" id="path62" style="fill:#eeeeee;fill-opacity:1;fill-rule:nonzero;stroke:none"/></g><g id="g64" transform="translate(10,24)"><path d="M 0,0 0.714,0 -9,6.802 -9.5,5.937 0,-0.722 0,0 Z" id="path66" style="fill:#cf1b2b;fill-opacity:1;fill-rule:nonzero;stroke:none"/></g></g></g><g id="g68"><g clip-path="url(#clipPath72)" id="g70"><g id="g76" transform="translate(19,27)"><path d="m 0,0 -7,0 0,4 -5,0 0,-4 -7,0 0,-5 7,0 0,-4 5,0 0,4 7,0 0,5 z" id="path78" style="fill:#eeeeee;fill-opacity:1;fill-rule:nonzero;stroke:none"/></g><path d="m 11,18 -3,0 0,13 3,0 0,-13 z" id="path80" style="fill:#cf1b2b;fill-opacity:1;fill-rule:nonzero;stroke:none"/><path d="m 19,23 -19,0 0,3 19,0 0,-3 z" id="path82" style="fill:#cf1b2b;fill-opacity:1;fill-rule:nonzero;stroke:none"/><g id="g84" transform="translate(32.6594,22.0574)"><path d="m 0,0 -0.472,-0.391 0.199,-0.586 0.266,-0.783 -0.655,0.504 -0.497,0.383 -0.498,-0.383 -0.655,-0.504 0.266,0.783 0.199,0.586 -0.472,0.391 -0.535,0.443 0.695,0 0.568,0 0.195,0.579 0.237,0.707 0.237,-0.707 0.194,-0.579 0.569,0 0.694,0 L 0,0 Z M -4,4 -4.472,3.609 -4.273,3.023 -4.007,2.24 -4.662,2.744 -5.159,3.127 -5.657,2.744 -6.312,2.24 -6.046,3.023 -5.847,3.609 -6.319,4 l -0.535,0.443 0.695,0 0.568,0 0.195,0.579 0.237,0.707 0.237,-0.707 0.194,-0.579 0.569,0 0.694,0 L -4,4 Z m 0,-16.25 -0.472,-0.391 0.199,-0.586 0.266,-0.783 -0.655,0.504 -0.497,0.383 -0.498,-0.383 -0.655,-0.504 0.266,0.783 0.199,0.586 -0.472,0.391 -0.535,0.443 0.695,0 0.568,0 0.195,0.579 0.237,0.707 0.237,-0.707 0.194,-0.579 0.569,0 0.694,0 L -4,-12.25 Z M -8,-2 l -0.472,-0.391 0.199,-0.586 0.266,-0.783 -0.655,0.504 -0.497,0.383 -0.498,-0.383 -0.655,-0.504 0.266,0.783 0.199,0.586 -0.472,0.391 -0.535,0.443 0.695,0 0.568,0 0.195,0.579 0.237,0.707 0.237,-0.707 0.194,-0.579 0.569,0 0.694,0 L -8,-2 Z" id="path86" style="fill:#263778;fill-opacity:1;fill-rule:nonzero;stroke:none"/></g><g id="g88" transform="translate(27.5,27)"><path d="M 0,0 -0.251,-0.75 -1,-0.75 -0.395,-1.251 -0.65,-2 0,-1.5 0.65,-2 0.395,-1.251 1,-0.75 0.251,-0.75 0,0 Z" id="path90" style="fill:#cf1b2b;fill-opacity:1;fill-rule:nonzero;stroke:none"/></g><g id="g92" transform="translate(27.8952,25.7493)"><path d="m 0,0 0.255,-0.749 -0.65,0.5 -0.65,-0.5 0.255,0.749 -0.605,0.501 0.748,0 0.252,0.75 0.251,-0.75 0.749,0 L 0,0 Z M 0.036,0.751 -0.158,1.33 -0.395,2.037 -0.632,1.33 -0.827,0.751 l -0.568,0 -0.694,0 0.534,-0.443 0.473,-0.391 -0.2,-0.586 -0.266,-0.783 0.656,0.505 0.497,0.382 0.497,-0.382 0.655,-0.505 -0.266,0.783 -0.199,0.586 0.472,0.391 0.535,0.443 -0.694,0 -0.569,0 z" id="path94" style="fill:#eeeded;fill-opacity:1;fill-rule:nonzero;stroke:none"/></g><g id="g96" transform="translate(27.5,10.75)"><path d="M 0,0 -0.251,-0.75 -1,-0.75 -0.395,-1.251 -0.65,-2 0,-1.5 0.65,-2 0.395,-1.251 1,-0.75 0.251,-0.75 0,0 Z" id="path98" style="fill:#cf1b2b;fill-opacity:1;fill-rule:nonzero;stroke:none"/></g><g id="g100" transform="translate(27.8952,9.4993)"><path d="m 0,0 0.255,-0.749 -0.65,0.5 -0.65,-0.5 0.255,0.749 -0.605,0.501 0.748,0 0.252,0.75 0.251,-0.75 0.749,0 L 0,0 Z M 0.036,0.751 -0.158,1.33 -0.395,2.037 -0.632,1.33 -0.827,0.751 l -0.568,0 -0.694,0 0.534,-0.443 0.473,-0.391 -0.2,-0.586 -0.266,-0.783 0.656,0.505 0.497,0.382 0.497,-0.382 0.655,-0.505 -0.266,0.783 -0.199,0.586 0.472,0.391 0.535,0.443 -0.694,0 -0.569,0 z" id="path102" style="fill:#eeeded;fill-opacity:1;fill-rule:nonzero;stroke:none"/></g><g id="g104" transform="translate(31.5,23)"><path d="M 0,0 -0.251,-0.75 -1,-0.75 -0.395,-1.251 -0.65,-2 0,-1.5 0.65,-2 0.395,-1.251 1,-0.75 0.251,-0.75 0,0 Z" id="path106" style="fill:#cf1b2b;fill-opacity:1;fill-rule:nonzero;stroke:none"/></g><g id="g108" transform="translate(31.8952,21.7493)"><path d="m 0,0 0.255,-0.749 -0.65,0.5 -0.65,-0.5 0.255,0.749 -0.605,0.501 0.748,0 0.252,0.75 0.251,-0.75 0.749,0 L 0,0 Z M 0.036,0.751 -0.158,1.33 -0.395,2.037 -0.632,1.33 -0.827,0.751 l -0.568,0 -0.694,0 0.534,-0.443 0.473,-0.391 -0.2,-0.586 -0.266,-0.783 0.656,0.505 0.497,0.382 0.497,-0.382 0.655,-0.505 -0.266,0.783 -0.199,0.586 0.472,0.391 0.535,0.443 -0.694,0 -0.569,0 z" id="path110" style="fill:#eeeded;fill-opacity:1;fill-rule:nonzero;stroke:none"/></g><g id="g112" transform="translate(23.5,21)"><path d="M 0,0 -0.251,-0.75 -1,-0.75 -0.395,-1.251 -0.65,-2 0,-1.5 0.65,-2 0.395,-1.251 1,-0.75 0.251,-0.75 0,0 Z" id="path114" style="fill:#cf1b2b;fill-opacity:1;fill-rule:nonzero;stroke:none"/></g><g id="g116" transform="translate(23.8952,19.7493)"><path d="m 0,0 0.255,-0.749 -0.65,0.5 -0.65,-0.5 0.255,0.749 -0.605,0.501 0.748,0 0.252,0.75 0.251,-0.75 0.749,0 L 0,0 Z M 0.036,0.751 -0.158,1.33 -0.395,2.037 -0.632,1.33 -0.827,0.751 l -0.568,0 -0.694,0 0.534,-0.443 0.473,-0.391 -0.2,-0.586 -0.266,-0.783 0.656,0.505 0.497,0.382 0.497,-0.382 0.655,-0.505 -0.266,0.783 -0.199,0.586 0.472,0.391 0.535,0.443 -0.694,0 -0.569,0 z" id="path118" style="fill:#eeeded;fill-opacity:1;fill-rule:nonzero;stroke:none"/></g></g></g></g></svg>