<?xml version="1.0" encoding="UTF-8" standalone="no"?><svg xmlns="http://www.w3.org/2000/svg" xmlns:cc="http://creativecommons.org/ns#" xmlns:dc="http://purl.org/dc/elements/1.1/" xmlns:rdf="http://www.w3.org/1999/02/22-rdf-syntax-ns#" xmlns:svg="http://www.w3.org/2000/svg" height="45" id="svg2" style="enable-background:new 0 0 45 45;" version="1.1" viewBox="0 0 45 45" width="45" xml:space="preserve"><metadata id="metadata8"><rdf:RDF><cc:Work rdf:about=""><dc:format>image/svg+xml</dc:format><dc:type rdf:resource="http://purl.org/dc/dcmitype/StillImage"/></cc:Work></rdf:RDF></metadata><defs id="defs6"/><g id="g10" transform="matrix(1.25,0,0,-1.25,0,45)"><g id="g12" transform="translate(7.0002,33.0003)"><path d="M 0,0 -7,-9 3,-9 5.999,0 0,0 Z" id="path14" style="fill:#bdddf4;fill-opacity:1;fill-rule:nonzero;stroke:none"/></g><g id="g16" transform="translate(23.0004,33.0003)"><path d="M 0,0 3,-9 13,-9 5.999,0 0,0 Z" id="path18" style="fill:#5dadec;fill-opacity:1;fill-rule:nonzero;stroke:none"/></g><g id="g20" transform="translate(26.0001,24.0003)"><path d="M 0,0 -8,-21.001 10,0 0,0 Z" id="path22" style="fill:#4289c1;fill-opacity:1;fill-rule:nonzero;stroke:none"/></g><g id="g24" transform="translate(0,24.0003)"><path d="M 0,0 18,-21.001 10,0 0,0 Z" id="path26" style="fill:#8ccaf7;fill-opacity:1;fill-rule:nonzero;stroke:none"/></g><g id="g28" transform="translate(13,33)"><path d="M 0,0 -3,-9 13,-9 10,0 0,0 Z" id="path30" style="fill:#8ccaf7;fill-opacity:1;fill-rule:nonzero;stroke:none"/></g><g id="g32" transform="translate(18,3)"><path d="M 0,0 -8,21 8,21 0,0 Z" id="path34" style="fill:#5dadec;fill-opacity:1;fill-rule:nonzero;stroke:none"/></g></g></svg>