<?xml version="1.0" encoding="UTF-8" standalone="no"?><svg xmlns="http://www.w3.org/2000/svg" xmlns:cc="http://creativecommons.org/ns#" xmlns:dc="http://purl.org/dc/elements/1.1/" xmlns:rdf="http://www.w3.org/1999/02/22-rdf-syntax-ns#" xmlns:svg="http://www.w3.org/2000/svg" height="45" id="svg2" style="enable-background:new 0 0 45 45;" version="1.1" viewBox="0 0 45 45" width="45" xml:space="preserve"><metadata id="metadata8"><rdf:RDF><cc:Work rdf:about=""><dc:format>image/svg+xml</dc:format><dc:type rdf:resource="http://purl.org/dc/dcmitype/StillImage"/></cc:Work></rdf:RDF></metadata><defs id="defs6"><clipPath clipPathUnits="userSpaceOnUse" id="clipPath18"><path d="M 0,36 36,36 36,0 0,0 0,36 Z" id="path20"/></clipPath></defs><g id="g10" transform="matrix(1.25,0,0,-1.25,0,45)"><path d="m 20,10 -4,0 0,17 4,0 0,-17 z" id="path12" style="fill:#99aab5;fill-opacity:1;fill-rule:nonzero;stroke:none"/><g id="g14"><g clip-path="url(#clipPath18)" id="g16"><g id="g22" transform="translate(10,11.5)"><path d="m 0,0 c 0,-0.828 -0.672,-1.5 -1.5,-1.5 l -3,0 c -0.828,0 -1.5,0.672 -1.5,1.5 0,0.828 0.672,1.5 1.5,1.5 l 3,0 C -0.672,1.5 0,0.828 0,0" id="path24" style="fill:#da2f47;fill-opacity:1;fill-rule:nonzero;stroke:none"/></g><g id="g26" transform="translate(34,3)"><path d="m 0,0 c 0,-1.104 -0.895,-2 -2,-2 l -28,0 c -1.104,0 -2,0.896 -2,2 l 0,6 c 0,1.105 0.896,2 2,2 L -2,8 C -0.895,8 0,7.105 0,6 L 0,0 Z" id="path28" style="fill:#292f33;fill-opacity:1;fill-rule:nonzero;stroke:none"/></g><g id="g30" transform="translate(10,1.5)"><path d="m 0,0 c 0,-0.828 -0.671,-1.5 -1.5,-1.5 l -3,0 c -0.829,0 -1.5,0.672 -1.5,1.5 0,0.828 0.671,1.5 1.5,1.5 l 3,0 C -0.671,1.5 0,0.828 0,0" id="path32" style="fill:#292f33;fill-opacity:1;fill-rule:nonzero;stroke:none"/></g><g id="g34" transform="translate(32,1.5)"><path d="m 0,0 c 0,-0.828 -0.672,-1.5 -1.5,-1.5 l -3,0 c -0.828,0 -1.5,0.672 -1.5,1.5 0,0.828 0.672,1.5 1.5,1.5 l 3,0 C -0.672,1.5 0,0.828 0,0" id="path36" style="fill:#292f33;fill-opacity:1;fill-rule:nonzero;stroke:none"/></g><g id="g38" transform="translate(23,29)"><path d="m 0,0 c 0,-2.761 -2.238,-5 -5,-5 -2.761,0 -5,2.239 -5,5 0,2.761 2.239,5 5,5 2.762,0 5,-2.239 5,-5" id="path40" style="fill:#da2f47;fill-opacity:1;fill-rule:nonzero;stroke:none"/></g><g id="g42" transform="translate(25,10)"><path d="m 0,0 c 0,-1.104 -0.895,-2 -2,-2 l -10,0 c -1.104,0 -2,0.896 -2,2 l 0,1 c 0,1.105 3.896,6 5,6 l 4,0 C -3.895,7 0,2.105 0,1 L 0,0 Z" id="path44" style="fill:#292f33;fill-opacity:1;fill-rule:nonzero;stroke:none"/></g><g id="g46" transform="translate(33,8)"><path d="m 0,0 c 0,-0.553 -0.447,-1 -1,-1 l -28,0 c -0.552,0 -1,0.447 -1,1 0,0.553 0.448,1 1,1 L -1,1 C -0.447,1 0,0.553 0,0" id="path48" style="fill:#66757f;fill-opacity:1;fill-rule:nonzero;stroke:none"/></g></g></g></g></svg>