<?xml version="1.0" encoding="UTF-8" standalone="no"?><svg xmlns="http://www.w3.org/2000/svg" xmlns:cc="http://creativecommons.org/ns#" xmlns:dc="http://purl.org/dc/elements/1.1/" xmlns:rdf="http://www.w3.org/1999/02/22-rdf-syntax-ns#" xmlns:svg="http://www.w3.org/2000/svg" height="45" id="svg2" style="enable-background:new 0 0 45 45;" version="1.1" viewBox="0 0 45 45" width="45" xml:space="preserve"><metadata id="metadata8"><rdf:RDF><cc:Work rdf:about=""><dc:format>image/svg+xml</dc:format><dc:type rdf:resource="http://purl.org/dc/dcmitype/StillImage"/></cc:Work></rdf:RDF></metadata><defs id="defs6"><clipPath clipPathUnits="userSpaceOnUse" id="clipPath16"><path d="M 4,31 C 1.791,31 0,29.209 0,27 L 0,27 0,9 C 0,6.791 1.791,5 4,5 l 0,0 28,0 c 2.209,0 4,1.791 4,4 l 0,0 0,18 c 0,2.209 -1.791,4 -4,4 l 0,0 -28,0 z" id="path18"/></clipPath></defs><g id="g10" transform="matrix(1.25,0,0,-1.25,0,45)"><g id="g12"><g clip-path="url(#clipPath16)" id="g14"><g id="g20" transform="translate(36,9)"><path d="m 0,0 c 0,-2.209 -1.791,-4 -4,-4 l -28,0 c -2.209,0 -4,1.791 -4,4 l 0,18 c 0,2.209 1.791,4 4,4 l 28,0 c 2.209,0 4,-1.791 4,-4 L 0,0 Z" id="path22" style="fill:#4aa657;fill-opacity:1;fill-rule:nonzero;stroke:none"/></g><g id="g24" transform="translate(32,31)"><path d="m 0,0 -28,0 c -2.209,0 -4,-1.791 -4,-4 l 0,-4 0,-10 36,0 0,10 0,4 C 4,-1.791 2.209,0 0,0" id="path26" style="fill:#c8313e;fill-opacity:1;fill-rule:nonzero;stroke:none"/></g><path d="M 6,3 -1,3 -1,32 6,32 6,3 Z" id="path28" style="fill:#c8313e;fill-opacity:1;fill-rule:nonzero;stroke:none"/><g id="g30" transform="translate(1.4375,10.5312)"><path d="m 0,0 1.453,2.563 1.672,-2.704 1.437,2.547 0,-6.062 -1.515,2.25 -1.578,-2.282 -1.5,2.407 -2.407,-3.719 0,8.719 L 0,0 Z" id="path32" style="fill:#ffffff;fill-opacity:1;fill-rule:nonzero;stroke:none"/></g><g id="g34" transform="translate(1.5313,4.625)"><path d="m 0,0 1.359,2.469 1.727,-2.625 1.383,2.469 0,-5.938 -1.406,2.188 -1.688,-2.344 -1.5,2.406 -2.406,-3.719 0,8.469 L 0,0 Z" id="path36" style="fill:#ffffff;fill-opacity:1;fill-rule:nonzero;stroke:none"/></g><g id="g38" transform="translate(1.3906,7.9219)"><path d="M 0,0 -0.625,-1.109 0,-2.172 0.641,-1.141 0,0 Z" id="path40" style="fill:#ffffff;fill-opacity:1;fill-rule:nonzero;stroke:none"/></g><g id="g42" transform="translate(4.5278,7.9219)"><path d="M 0,0 -0.625,-1.109 0,-2.172 0.641,-1.141 0,0 Z" id="path44" style="fill:#ffffff;fill-opacity:1;fill-rule:nonzero;stroke:none"/></g><g id="g46" transform="translate(0.6509,10.9219)"><path d="M 0,0 -0.625,-1.109 0,-2.172 0.641,-1.141 0,0 Z" id="path48" style="fill:#c8313e;fill-opacity:1;fill-rule:nonzero;stroke:none"/></g><g id="g50" transform="translate(2.1665,10.9219)"><path d="M 0,0 -0.625,-1.109 0,-2.172 0.641,-1.141 0,0 Z" id="path52" style="fill:#c8313e;fill-opacity:1;fill-rule:nonzero;stroke:none"/></g><g id="g54" transform="translate(3.6509,10.9219)"><path d="M 0,0 -0.625,-1.109 0,-2.172 0.641,-1.141 0,0 Z" id="path56" style="fill:#c8313e;fill-opacity:1;fill-rule:nonzero;stroke:none"/></g><g id="g58" transform="translate(5.2427,10.9219)"><path d="M 0,0 -0.625,-1.109 0,-2.172 0.641,-1.141 0,0 Z" id="path60" style="fill:#c8313e;fill-opacity:1;fill-rule:nonzero;stroke:none"/></g><g id="g62" transform="translate(1.4375,32.5313)"><path d="m 0,0 1.453,2.563 1.672,-2.704 1.437,2.547 0,-6.062 -1.515,2.25 -1.578,-2.282 -1.5,2.407 -2.407,-3.719 0,8.719 L 0,0 Z" id="path64" style="fill:#ffffff;fill-opacity:1;fill-rule:nonzero;stroke:none"/></g><g id="g66" transform="translate(1.5313,26.625)"><path d="m 0,0 1.359,2.469 1.727,-2.625 1.383,2.469 0,-5.938 -1.406,2.188 -1.688,-2.344 -1.5,2.406 -2.406,-3.719 0,8.469 L 0,0 Z" id="path68" style="fill:#ffffff;fill-opacity:1;fill-rule:nonzero;stroke:none"/></g><g id="g70" transform="translate(1.3906,29.9219)"><path d="M 0,0 -0.625,-1.109 0,-2.172 0.641,-1.141 0,0 Z" id="path72" style="fill:#ffffff;fill-opacity:1;fill-rule:nonzero;stroke:none"/></g><g id="g74" transform="translate(4.5278,29.9219)"><path d="M 0,0 -0.625,-1.109 0,-2.172 0.641,-1.141 0,0 Z" id="path76" style="fill:#ffffff;fill-opacity:1;fill-rule:nonzero;stroke:none"/></g><g id="g78" transform="translate(0.6509,26.9844)"><path d="M 0,0 -0.625,-1.109 0,-2.172 0.641,-1.141 0,0 Z" id="path80" style="fill:#c8313e;fill-opacity:1;fill-rule:nonzero;stroke:none"/></g><g id="g82" transform="translate(2.1665,26.9844)"><path d="M 0,0 -0.625,-1.109 0,-2.172 0.641,-1.141 0,0 Z" id="path84" style="fill:#c8313e;fill-opacity:1;fill-rule:nonzero;stroke:none"/></g><g id="g86" transform="translate(3.6509,26.9844)"><path d="M 0,0 -0.625,-1.109 0,-2.172 0.641,-1.141 0,0 Z" id="path88" style="fill:#c8313e;fill-opacity:1;fill-rule:nonzero;stroke:none"/></g><g id="g90" transform="translate(5.2427,26.9844)"><path d="M 0,0 -0.625,-1.109 0,-2.172 0.641,-1.141 0,0 Z" id="path92" style="fill:#c8313e;fill-opacity:1;fill-rule:nonzero;stroke:none"/></g><g id="g94" transform="translate(0.8594,21)"><path d="M 0,0 0.609,0.891 0.172,1.5 0.5,1.937 1.453,0.703 0.047,-1.609 -1.859,1.016 -0.875,1.453 0,0 Z" id="path96" style="fill:#ffffff;fill-opacity:1;fill-rule:nonzero;stroke:none"/></g><g id="g98" transform="translate(0.8594,14.7266)"><path d="M 0,0 0.609,-0.891 0.172,-1.5 0.5,-1.937 1.453,-0.703 0.047,1.609 -1.859,-1.016 -0.875,-1.453 0,0 Z" id="path100" style="fill:#ffffff;fill-opacity:1;fill-rule:nonzero;stroke:none"/></g><g id="g102" transform="translate(-0.4419,17.2251)"><path d="M 0,0 0.609,0.891 0.172,1.5 0.5,1.937 1.453,0.703 0.047,-1.61 -1.859,1.016 -0.875,1.453 0,0 Z" id="path104" style="fill:#ffffff;fill-opacity:1;fill-rule:nonzero;stroke:none"/></g><g id="g106" transform="translate(1.5625,18)"><path d="M 0,0 2.719,0 2.723,0.969 1.328,3.172 0.014,0.958 0,0 Z" id="path108" style="fill:#ffffff;fill-opacity:1;fill-rule:nonzero;stroke:none"/></g><g id="g110" transform="translate(1.5625,18.0093)"><path d="M 0,0 2.719,0 2.723,-0.969 1.328,-3.171 0.014,-0.959 0,0 Z" id="path112" style="fill:#ffffff;fill-opacity:1;fill-rule:nonzero;stroke:none"/></g><g id="g114" transform="translate(3.5781,19.2969)"><path d="M 0,0 -1.328,-2.422" id="path116" style="fill:none;stroke:#c8313e;stroke-width:0.5;stroke-linecap:butt;stroke-linejoin:round;stroke-miterlimit:10;stroke-dasharray:none;stroke-opacity:1"/></g><g id="g118" transform="translate(2.25,19.2969)"><path d="M 0,0 1.328,-2.422" id="path120" style="fill:none;stroke:#c8313e;stroke-width:0.5;stroke-linecap:butt;stroke-linejoin:round;stroke-miterlimit:10;stroke-dasharray:none;stroke-opacity:1"/></g><g id="g122" transform="translate(6,22.3765)"><path d="m 0,0 -0.172,0.077 -0.875,-1.453 -0.61,0.89 0.438,0.61 L -1.547,0.561 -2.5,-0.673 -1.094,-2.986 0,-1.479 0,0 Z" id="path124" style="fill:#ffffff;fill-opacity:1;fill-rule:nonzero;stroke:none"/></g><g id="g126" transform="translate(6,17.6675)"><path d="M 0,0 -0.313,0.458 0,0.894 0,1.233 -0.204,1.504 -1.157,0.27 0,-1.632 0,0 Z" id="path128" style="fill:#ffffff;fill-opacity:1;fill-rule:nonzero;stroke:none"/></g><g id="g130" transform="translate(6,14.8936)"><path d="M 0,0 -1.047,1.442 -2.454,-0.87 -1.5,-2.105 -1.172,-1.667 -1.61,-1.058 -1,-0.167 -0.125,-1.62 0,-1.564 0,0 Z" id="path132" style="fill:#ffffff;fill-opacity:1;fill-rule:nonzero;stroke:none"/></g></g></g></g></svg>