<?xml version="1.0" encoding="UTF-8" standalone="no"?><svg xmlns="http://www.w3.org/2000/svg" xmlns:cc="http://creativecommons.org/ns#" xmlns:dc="http://purl.org/dc/elements/1.1/" xmlns:rdf="http://www.w3.org/1999/02/22-rdf-syntax-ns#" xmlns:svg="http://www.w3.org/2000/svg" height="45" id="svg2" style="enable-background:new 0 0 45 45;" version="1.1" viewBox="0 0 45 45" width="45" xml:space="preserve"><metadata id="metadata8"><rdf:RDF><cc:Work rdf:about=""><dc:format>image/svg+xml</dc:format><dc:type rdf:resource="http://purl.org/dc/dcmitype/StillImage"/></cc:Work></rdf:RDF></metadata><defs id="defs6"><clipPath clipPathUnits="userSpaceOnUse" id="clipPath16"><path d="M 0,36 36,36 36,0 0,0 0,36 Z" id="path18"/></clipPath><clipPath clipPathUnits="userSpaceOnUse" id="clipPath32"><path d="M 4.76,31.556 C 1.961,16.169 6.412,6.27 18,2.116 l 0,0 c 11.587,4.154 16.039,14.053 13.24,29.44 l 0,0 C 24.958,33.961 18.071,34 18,34 l 0,0 C 17.928,34 11.063,33.971 4.76,31.556" id="path34"/></clipPath></defs><g id="g10" transform="matrix(1.25,0,0,-1.25,0,45)"><g id="g12"><g clip-path="url(#clipPath16)" id="g14"><g id="g20" transform="translate(33,33)"><path d="m 0,0 c -7,3 -15,3 -15,3 0,0 -8,0 -15,-3 -3,-15 0,-28 15,-33 15,5 18,18 15,33" id="path22" style="fill:#ccd6dd;fill-opacity:1;fill-rule:nonzero;stroke:none"/></g><g id="g24" transform="translate(18,2.1162)"><path d="m 0,0 c -11.588,4.154 -16.039,14.053 -13.24,29.439 6.303,2.415 13.168,2.445 13.24,2.445 0.071,0 6.958,-0.04 13.24,-2.445 C 16.039,14.053 11.588,4.154 0,0" id="path26" style="fill:#55acee;fill-opacity:1;fill-rule:nonzero;stroke:none"/></g></g></g><g id="g28"><g clip-path="url(#clipPath32)" id="g30"><path d="M 33,2 18,2 18,34 33,34 33,2 Z" id="path36" style="fill:#226699;fill-opacity:1;fill-rule:nonzero;stroke:none"/></g></g></g></svg>