<?xml version="1.0" encoding="UTF-8" standalone="no"?><svg xmlns="http://www.w3.org/2000/svg" xmlns:cc="http://creativecommons.org/ns#" xmlns:dc="http://purl.org/dc/elements/1.1/" xmlns:rdf="http://www.w3.org/1999/02/22-rdf-syntax-ns#" xmlns:svg="http://www.w3.org/2000/svg" height="45" id="svg2" style="enable-background:new 0 0 45 45;" version="1.1" viewBox="0 0 45 45" width="45" xml:space="preserve"><metadata id="metadata8"><rdf:RDF><cc:Work rdf:about=""><dc:format>image/svg+xml</dc:format><dc:type rdf:resource="http://purl.org/dc/dcmitype/StillImage"/></cc:Work></rdf:RDF></metadata><defs id="defs6"><clipPath clipPathUnits="userSpaceOnUse" id="clipPath18"><path d="M 0,36 36,36 36,0 0,0 0,36 Z" id="path20"/></clipPath></defs><g id="g10" transform="matrix(1.25,0,0,-1.25,0,45)"><path d="m 0,13 36,0 0,10.001 -36,0 L 0,13 Z" id="path12" style="fill:#e00034;fill-opacity:1;fill-rule:nonzero;stroke:none"/><g id="g14"><g clip-path="url(#clipPath18)" id="g16"><g id="g22" transform="translate(32,31)"><path d="m 0,0 -28,0 c -2.209,0 -4,-1.791 -4,-4 l 0,-4 36,0 0,4 C 4,-1.791 2.209,0 0,0" id="path24" style="fill:#0098c3;fill-opacity:1;fill-rule:nonzero;stroke:none"/></g><g id="g26" transform="translate(17.8445,14.6667)"><path d="m 0,0 c -1.841,0 -3.333,1.492 -3.333,3.333 0,1.841 1.492,3.334 3.333,3.334 0.982,0 1.865,-0.425 2.475,-1.101 -0.718,1.066 -1.937,1.767 -3.319,1.767 -2.21,0 -4,-1.791 -4,-4 0,-2.209 1.79,-4 4,-4 1.382,0 2.601,0.702 3.319,1.768 C 1.865,0.425 0.982,0 0,0" id="path28" style="fill:#ffffff;fill-opacity:1;fill-rule:nonzero;stroke:none"/></g><g id="g30" transform="translate(23.6667,18.0016)"><path d="m 0,0 -1.196,0.424 0.544,1.147 -1.146,-0.546 -0.426,1.196 -0.424,-1.196 -0.003,0.001 -1.144,0.543 0.546,-1.146 -1.195,-0.426 1.196,-0.424 -0.544,-1.147 1.14,0.543 0.005,0.003 0.426,-1.196 0.425,1.196 1.146,-0.544 -0.545,1.146 L 0,0 Z" id="path32" style="fill:#ffffff;fill-opacity:1;fill-rule:nonzero;stroke:none"/></g><g id="g34" transform="translate(4,5)"><path d="m 0,0 28,0 c 2.209,0 4,1.791 4,4 L 32,8 -4,8 -4,4 C -4,1.791 -2.209,0 0,0" id="path36" style="fill:#00ae65;fill-opacity:1;fill-rule:nonzero;stroke:none"/></g></g></g></g></svg>