<?xml version="1.0" encoding="UTF-8" standalone="no"?><svg xmlns="http://www.w3.org/2000/svg" xmlns:cc="http://creativecommons.org/ns#" xmlns:dc="http://purl.org/dc/elements/1.1/" xmlns:rdf="http://www.w3.org/1999/02/22-rdf-syntax-ns#" xmlns:svg="http://www.w3.org/2000/svg" height="45" id="svg2" style="enable-background:new 0 0 45 45;" version="1.1" viewBox="0 0 45 45" width="45" xml:space="preserve"><metadata id="metadata8"><rdf:RDF><cc:Work rdf:about=""><dc:format>image/svg+xml</dc:format><dc:type rdf:resource="http://purl.org/dc/dcmitype/StillImage"/></cc:Work></rdf:RDF></metadata><defs id="defs6"><clipPath clipPathUnits="userSpaceOnUse" id="clipPath20"><path d="M 0,36 36,36 36,0 0,0 0,36 Z" id="path22"/></clipPath></defs><g id="g10" transform="matrix(1.25,0,0,-1.25,0,45)"><g id="g12" transform="translate(19.8818,15.4102)"><path d="M 0,0 -1.882,1.367 -3.764,0 l 0.719,2.212 -1.882,1.367 2.326,0 0.719,2.213 0.719,-2.213 2.326,0 L -0.719,2.212 0,0 Z m -7.882,-10.41 12,0 0,26 -12,0 0,-26 z" id="path14" style="fill:#cc212d;fill-opacity:1;fill-rule:nonzero;stroke:none"/></g><g id="g16"><g clip-path="url(#clipPath20)" id="g18"><g id="g24" transform="translate(4,31)"><path d="m 0,0 c -2.209,0 -4,-1.791 -4,-4 l 0,-18 c 0,-2.209 1.791,-4 4,-4 l 8,0 0,26 -8,0 z" id="path26" style="fill:#288541;fill-opacity:1;fill-rule:nonzero;stroke:none"/></g><g id="g28" transform="translate(32,31)"><path d="m 0,0 -8,0 0,-26 8,0 c 2.209,0 4,1.791 4,4 L 4,-4 C 4,-1.791 2.209,0 0,0" id="path30" style="fill:#fee833;fill-opacity:1;fill-rule:nonzero;stroke:none"/></g><g id="g32" transform="translate(18.7188,18.9893)"><path d="M 0,0 -0.719,2.212 -1.437,0 -3.764,0 -1.882,-1.367 -2.601,-3.579 -0.719,-2.212 1.163,-3.579 0.444,-1.367 2.326,0 0,0 Z" id="path34" style="fill:#fee833;fill-opacity:1;fill-rule:nonzero;stroke:none"/></g></g></g></g></svg>