<?xml version="1.0" encoding="UTF-8" standalone="no"?><svg xmlns="http://www.w3.org/2000/svg" xmlns:cc="http://creativecommons.org/ns#" xmlns:dc="http://purl.org/dc/elements/1.1/" xmlns:rdf="http://www.w3.org/1999/02/22-rdf-syntax-ns#" xmlns:svg="http://www.w3.org/2000/svg" height="45" id="svg2" style="enable-background:new 0 0 45 45;" version="1.1" viewBox="0 0 45 45" width="45" xml:space="preserve"><metadata id="metadata8"><rdf:RDF><cc:Work rdf:about=""><dc:format>image/svg+xml</dc:format><dc:type rdf:resource="http://purl.org/dc/dcmitype/StillImage"/></cc:Work></rdf:RDF></metadata><defs id="defs6"><clipPath clipPathUnits="userSpaceOnUse" id="clipPath16"><path d="M 0,36 36,36 36,0 0,0 0,36 Z" id="path18"/></clipPath><clipPath clipPathUnits="userSpaceOnUse" id="clipPath60"><path d="M 23,23 13,13 c -1,-1 0,-2 0,-2 l 0,0 3,-3 c 1,-1 2,0 2,0 l 0,0 10,10 c 1,1 0,2 0,2 l 0,0 -3,3 c -0.333,0.334 -0.666,0.445 -0.963,0.445 l 0,0 C 23.445,23.445 23,23 23,23" id="path62"/></clipPath><clipPath clipPathUnits="userSpaceOnUse" id="clipPath76"><path d="M 0,36 36,36 36,0 0,0 0,36 Z" id="path78"/></clipPath><clipPath clipPathUnits="userSpaceOnUse" id="clipPath88"><path d="M 11,35 1,25 C 0,24 1,23 1,23 l 0,0 3,-3 c 1,-1 2,0 2,0 l 0,0 10,10 c 1,1 0,2 0,2 l 0,0 -3,3 c -0.334,0.333 -0.667,0.445 -0.963,0.445 l 0,0 C 11.444,35.444 11,35 11,35" id="path90"/></clipPath></defs><g id="g10" transform="matrix(1.25,0,0,-1.25,0,45)"><g id="g12"><g clip-path="url(#clipPath16)" id="g14"><g id="g20" transform="translate(35.3535,5.3535)"><path d="m 0,0 -25.354,25.354 -4.707,-4.708 25.354,-25.353 c 0.061,-0.061 0.613,-0.591 1.391,-0.591 0.474,0 0.929,0.204 1.316,0.591 l 2,2 C 0.544,-2.163 0.993,-0.993 0,0" id="path22" style="fill:#8899a6;fill-opacity:1;fill-rule:nonzero;stroke:none"/></g><g id="g24" transform="translate(30,1)"><path d="m 0,0 c -0.104,0 -0.211,0.017 -0.316,0.052 -0.524,0.174 -0.807,0.74 -0.632,1.264 l 2,6 C 1.227,7.84 1.787,8.124 2.316,7.948 2.84,7.774 3.123,7.208 2.948,6.684 l -2,-6 C 0.809,0.265 0.419,0 0,0" id="path26" style="fill:#66757f;fill-opacity:1;fill-rule:nonzero;stroke:none"/></g><g id="g28" transform="translate(27,4)"><path d="m 0,0 c -0.104,0 -0.211,0.017 -0.316,0.052 -0.524,0.174 -0.807,0.74 -0.632,1.264 l 2,6 C 1.226,7.84 1.789,8.125 2.316,7.948 2.84,7.774 3.123,7.208 2.948,6.684 l -2,-6 C 0.809,0.265 0.419,0 0,0" id="path30" style="fill:#66757f;fill-opacity:1;fill-rule:nonzero;stroke:none"/></g><g id="g32" transform="translate(24,7)"><path d="m 0,0 c -0.104,0 -0.211,0.017 -0.316,0.052 -0.524,0.174 -0.807,0.74 -0.632,1.264 l 2,6 C 1.227,7.84 1.787,8.124 2.316,7.948 2.84,7.774 3.123,7.208 2.948,6.684 l -2,-6 C 0.809,0.265 0.419,0 0,0" id="path34" style="fill:#66757f;fill-opacity:1;fill-rule:nonzero;stroke:none"/></g><g id="g36" transform="translate(21,10)"><path d="m 0,0 c -0.104,0 -0.211,0.017 -0.316,0.052 -0.524,0.174 -0.807,0.74 -0.632,1.264 l 2,6 C 1.226,7.84 1.789,8.125 2.316,7.949 2.84,7.774 3.123,7.208 2.948,6.684 l -2,-6 C 0.809,0.265 0.419,0 0,0" id="path38" style="fill:#66757f;fill-opacity:1;fill-rule:nonzero;stroke:none"/></g><g id="g40" transform="translate(16,15)"><path d="m 0,0 c -0.104,0 -0.211,0.017 -0.316,0.052 -0.524,0.174 -0.808,0.74 -0.633,1.264 l 2,6 C 1.226,7.84 1.792,8.124 2.316,7.949 2.84,7.774 3.123,7.208 2.949,6.684 l -2,-6 C 0.809,0.265 0.419,0 0,0" id="path42" style="fill:#66757f;fill-opacity:1;fill-rule:nonzero;stroke:none"/></g><g id="g44" transform="translate(13,17.9995)"><path d="M 0,0 C -0.104,0 -0.211,0.017 -0.316,0.052 -0.84,0.227 -1.124,0.793 -0.949,1.317 l 2,6 C 1.226,7.84 1.79,8.126 2.316,7.949 2.84,7.774 3.124,7.208 2.949,6.684 l -2,-6 C 0.809,0.265 0.419,0 0,0" id="path46" style="fill:#66757f;fill-opacity:1;fill-rule:nonzero;stroke:none"/></g><g id="g48" transform="translate(10,20.9995)"><path d="M 0,0 C -0.104,0 -0.211,0.017 -0.316,0.052 -0.84,0.227 -1.124,0.793 -0.949,1.317 l 2,6 C 1.226,7.84 1.792,8.125 2.316,7.949 2.84,7.774 3.124,7.208 2.949,6.684 l -2,-6 C 0.809,0.265 0.419,0 0,0" id="path50" style="fill:#66757f;fill-opacity:1;fill-rule:nonzero;stroke:none"/></g><g id="g52" transform="translate(13,11)"><path d="m 0,0 c 0,0 -1,1 0,2 l 10,10 c 0,0 1,1 2,0 l 3,-3 c 0,0 1,-1 0,-2 L 5,-3 C 5,-3 4,-4 3,-3 L 0,0 Z" id="path54" style="fill:#ccd6dd;fill-opacity:1;fill-rule:nonzero;stroke:none"/></g></g></g><g id="g56"><g clip-path="url(#clipPath60)" id="g58"><g id="g64" transform="translate(14,16)"><path d="M 0,0 7.5,-7.5 4,-11 -3.292,-3.708 0,0 Z" id="path66" style="fill:#8899a6;fill-opacity:1;fill-rule:nonzero;stroke:none"/></g><g id="g68" transform="translate(20,22)"><path d="M 0,0 7,-7 10.5,-3.5 4.021,2.98 0,0 Z" id="path70" style="fill:#e1e8ed;fill-opacity:1;fill-rule:nonzero;stroke:none"/></g></g></g><g id="g72"><g clip-path="url(#clipPath76)" id="g74"><g id="g80" transform="translate(1,23)"><path d="m 0,0 c 0,0 -1,1 0,2 l 10,10 c 0,0 1,1 2,0 l 3,-3 c 0,0 1,-1 0,-2 L 5,-3 C 5,-3 4,-4 3,-3 L 0,0 Z" id="path82" style="fill:#ccd6dd;fill-opacity:1;fill-rule:nonzero;stroke:none"/></g></g></g><g id="g84"><g clip-path="url(#clipPath88)" id="g86"><g id="g92" transform="translate(2,28)"><path d="M 0,0 7.5,-7.5 4,-11 -3.292,-3.708 0,0 Z" id="path94" style="fill:#8899a6;fill-opacity:1;fill-rule:nonzero;stroke:none"/></g><g id="g96" transform="translate(8,34)"><path d="M 0,0 7,-7 10.5,-3.5 4.021,2.979 0,0 Z" id="path98" style="fill:#e1e8ed;fill-opacity:1;fill-rule:nonzero;stroke:none"/></g></g></g></g></svg>