<?xml version="1.0" encoding="UTF-8" standalone="no"?><svg xmlns="http://www.w3.org/2000/svg" xmlns:cc="http://creativecommons.org/ns#" xmlns:dc="http://purl.org/dc/elements/1.1/" xmlns:rdf="http://www.w3.org/1999/02/22-rdf-syntax-ns#" xmlns:svg="http://www.w3.org/2000/svg" height="45" id="svg2" style="enable-background:new 0 0 45 45;" version="1.1" viewBox="0 0 45 45" width="45" xml:space="preserve"><metadata id="metadata8"><rdf:RDF><cc:Work rdf:about=""><dc:format>image/svg+xml</dc:format><dc:type rdf:resource="http://purl.org/dc/dcmitype/StillImage"/></cc:Work></rdf:RDF></metadata><defs id="defs6"><clipPath clipPathUnits="userSpaceOnUse" id="clipPath16"><path d="M 0,36 36,36 36,0 0,0 0,36 Z" id="path18"/></clipPath></defs><g id="g10" transform="matrix(1.25,0,0,-1.25,0,45)"><g id="g12"><g clip-path="url(#clipPath16)" id="g14"><g id="g20" transform="translate(33,19.9375)"><path d="m 0,0 c 0,-8.318 -6.744,-15.063 -15.063,-15.063 -8.318,0 -15.062,6.745 -15.062,15.063 0,8.318 6.744,15.063 15.062,15.063 C -6.744,15.063 0,8.318 0,0" id="path22" style="fill:#8ccaf7;fill-opacity:1;fill-rule:nonzero;stroke:none"/></g><g id="g24" transform="translate(30,3)"><path d="m 0,0 c 0,-1.104 -0.895,-2 -2,-2 l -20,0 c -1.104,0 -2,0.896 -2,2 l 0,4 c 0,1.105 0.896,2 2,2 L -2,6 C -0.895,6 0,5.105 0,4 L 0,0 Z" id="path26" style="fill:#bf6952;fill-opacity:1;fill-rule:nonzero;stroke:none"/></g><g id="g28" transform="translate(27,22)"><path d="m 0,0 c 0,-2.209 -1.791,-4 -4,-4 -2.209,0 -4,1.791 -4,4 0,2.209 1.791,4 4,4 2.209,0 4,-1.791 4,-4" id="path30" style="fill:#5dadec;fill-opacity:1;fill-rule:nonzero;stroke:none"/></g><g id="g32" transform="translate(18,16)"><path d="m 0,0 c 0,-1.657 -1.343,-3 -3,-3 -1.657,0 -3,1.343 -3,3 0,1.657 1.343,3 3,3 1.657,0 3,-1.343 3,-3" id="path34" style="fill:#5dadec;fill-opacity:1;fill-rule:nonzero;stroke:none"/></g><g id="g36" transform="translate(18,29)"><path d="m 0,0 c 0,-1.105 -0.895,-2 -2,-2 -1.105,0 -2,0.895 -2,2 0,1.105 0.895,2 2,2 1.105,0 2,-0.895 2,-2" id="path38" style="fill:#5dadec;fill-opacity:1;fill-rule:nonzero;stroke:none"/></g></g></g></g></svg>