<?xml version="1.0" encoding="UTF-8" standalone="no"?><svg xmlns="http://www.w3.org/2000/svg" xmlns:cc="http://creativecommons.org/ns#" xmlns:dc="http://purl.org/dc/elements/1.1/" xmlns:rdf="http://www.w3.org/1999/02/22-rdf-syntax-ns#" xmlns:svg="http://www.w3.org/2000/svg" height="45" id="svg2" style="enable-background:new 0 0 45 45;" version="1.1" viewBox="0 0 45 45" width="45" xml:space="preserve"><metadata id="metadata8"><rdf:RDF><cc:Work rdf:about=""><dc:format>image/svg+xml</dc:format><dc:type rdf:resource="http://purl.org/dc/dcmitype/StillImage"/></cc:Work></rdf:RDF></metadata><defs id="defs6"><clipPath clipPathUnits="userSpaceOnUse" id="clipPath16"><path d="M 0,36 36,36 36,0 0,0 0,36 Z" id="path18"/></clipPath></defs><g id="g10" transform="matrix(1.25,0,0,-1.25,0,45)"><g id="g12"><g clip-path="url(#clipPath16)" id="g14"><g id="g20" transform="translate(35,28)"><path d="m 0,0 -2,0 -2,0 -2,0 -2,0 -2,0 -2,0 -2,0 -2,0 -2,0 -2,0 -2,0 c -0.552,0 -1,-0.448 -1,-1 0,-0.552 0.448,-1 1,-1 l 2,0 0,-2 2,0 0,2 2,0 0,-2 2,0 0,2 2,0 0,-2 2,0 0,2 2,0 0,-2 2,0 0,2 2,0 0,-2 2,0 0,2 2,0 c 0.553,0 1,0.448 1,1 0,0.552 -0.447,1 -1,1" id="path22" style="fill:#ccd6dd;fill-opacity:1;fill-rule:nonzero;stroke:none"/></g><g id="g24" transform="translate(36,23)"><path d="m 0,0 c 0,-0.552 -0.447,-1 -1,-1 l -22,0 c -0.552,0 -1,0.448 -1,1 0,0.552 0.448,1 1,1 L -1,1 C -0.447,1 0,0.552 0,0" id="path26" style="fill:#ccd6dd;fill-opacity:1;fill-rule:nonzero;stroke:none"/></g><g id="g28" transform="translate(32,22)"><path d="m 0,0 -10,0 -8,0 c 0,0 0.041,2 -2.979,2 l -5.875,0 C -32,2 -32,-5.959 -32,-5.959 L -32,-13 c 0,-2.209 1.791,-4 4,-4 l 28,0 c 2.209,0 4,1.791 4,4 l 0,9 C 4,-1.791 2.209,0 0,0" id="path30" style="fill:#dd2e44;fill-opacity:1;fill-rule:nonzero;stroke:none"/></g><path d="m 34,14 -32,0 0,-3 32,0 0,3 z" id="path32" style="fill:#f5f8fa;fill-opacity:1;fill-rule:nonzero;stroke:none"/><g id="g34" transform="translate(11,5)"><path d="m 0,0 c 0,-2.209 -1.791,-4 -4,-4 -2.209,0 -4,1.791 -4,4 0,2.209 1.791,4 4,4 2.209,0 4,-1.791 4,-4" id="path36" style="fill:#292f33;fill-opacity:1;fill-rule:nonzero;stroke:none"/></g><g id="g38" transform="translate(9,5)"><path d="m 0,0 c 0,-1.105 -0.896,-2 -2,-2 -1.104,0 -2,0.895 -2,2 0,1.105 0.896,2 2,2 1.104,0 2,-0.895 2,-2" id="path40" style="fill:#8899a6;fill-opacity:1;fill-rule:nonzero;stroke:none"/></g><g id="g42" transform="translate(32,5)"><path d="m 0,0 c 0,-2.209 -1.791,-4 -4,-4 -2.209,0 -4,1.791 -4,4 0,2.209 1.791,4 4,4 2.209,0 4,-1.791 4,-4" id="path44" style="fill:#292f33;fill-opacity:1;fill-rule:nonzero;stroke:none"/></g><g id="g46" transform="translate(30,5)"><path d="m 0,0 c 0,-1.105 -0.895,-2 -2,-2 -1.104,0 -2,0.895 -2,2 0,1.105 0.896,2 2,2 1.105,0 2,-0.895 2,-2" id="path48" style="fill:#8899a6;fill-opacity:1;fill-rule:nonzero;stroke:none"/></g><g id="g50" transform="translate(7,16)"><path d="m 0,0 -5,0 c 0,0 0,6 3,6 L 0,6 0,0 Z" id="path52" style="fill:#55acee;fill-opacity:1;fill-rule:nonzero;stroke:none"/></g><g id="g54" transform="translate(12,16)"><path d="m 0,0 -3,0 0,6 1,0 C -1,6 0,5 0,4 L 0,0 Z" id="path56" style="fill:#55acee;fill-opacity:1;fill-rule:nonzero;stroke:none"/></g><g id="g58" transform="translate(8,25)"><path d="m 0,0 c 0,-0.552 -0.448,-1 -1,-1 l -2,0 c -0.552,0 -1,0.448 -1,1 0,0.552 0.448,1 1,1 l 2,0 C -0.448,1 0,0.552 0,0" id="path60" style="fill:#ffac33;fill-opacity:1;fill-rule:nonzero;stroke:none"/></g><g id="g62" transform="translate(10,25)"><path d="m 0,0 c 0,-0.552 -0.448,-1 -1,-1 l -2,0 c -0.552,0 -1,0.448 -1,1 0,0.552 0.448,1 1,1 l 2,0 C -0.448,1 0,0.552 0,0" id="path64" style="fill:#3b88c3;fill-opacity:1;fill-rule:nonzero;stroke:none"/></g></g></g></g></svg>