<?xml version="1.0" encoding="UTF-8" standalone="no"?><svg xmlns="http://www.w3.org/2000/svg" xmlns:cc="http://creativecommons.org/ns#" xmlns:dc="http://purl.org/dc/elements/1.1/" xmlns:rdf="http://www.w3.org/1999/02/22-rdf-syntax-ns#" xmlns:svg="http://www.w3.org/2000/svg" height="45" id="svg2" style="enable-background:new 0 0 45 45;" version="1.1" viewBox="0 0 45 45" width="45" xml:space="preserve"><metadata id="metadata8"><rdf:RDF><cc:Work rdf:about=""><dc:format>image/svg+xml</dc:format><dc:type rdf:resource="http://purl.org/dc/dcmitype/StillImage"/></cc:Work></rdf:RDF></metadata><defs id="defs6"><clipPath clipPathUnits="userSpaceOnUse" id="clipPath16"><path d="M 0,36 36,36 36,0 0,0 0,36 Z" id="path18"/></clipPath></defs><g id="g10" transform="matrix(1.25,0,0,-1.25,0,45)"><g id="g12"><g clip-path="url(#clipPath16)" id="g14"><g id="g20" transform="translate(33.3984,12.3223)"><path d="m 0,0 c -7.562,-4.875 -20.062,0.437 -18.375,8.062 1.479,6.684 9.419,4.763 11.225,3.861 1.805,-0.902 0.713,3.889 -3.475,5.326 C -16.298,19.197 -23.243,18.785 -25.437,9 -26.937,2.313 -24,-7.062 -12.719,-7.187 -1.437,-7.312 0,0 0,0" id="path22" style="fill:#226699;fill-opacity:1;fill-rule:nonzero;stroke:none"/></g><g id="g24" transform="translate(35.9883,10.8066)"><path d="m 0,0 c 0,2.146 -2.754,2.334 -4,1.119 -2.994,-2.919 -7.402,-4.012 -13.298,-2.861 -10.25,2 -10.342,14.013 -3.333,17.441 3.791,1.855 8.288,-0.341 9.999,-1.654 1.488,-1.144 4.334,-2.661 4.185,-0.752 -0.319,4.062 -8.28,12.761 -18.946,7.261 C -36.06,15.054 -35.988,2.641 -35.988,0.391 l 0,-7.25 c 0,-2.209 1.814,-3.948 4.023,-3.948 l 28,0 c 2.209,0 3.977,1.739 3.977,3.948 0,0 -0.004,6.853 -0.012,6.859" id="path26" style="fill:#55acee;fill-opacity:1;fill-rule:nonzero;stroke:none"/></g></g></g></g></svg>