<?xml version="1.0" encoding="UTF-8" standalone="no"?><svg xmlns="http://www.w3.org/2000/svg" xmlns:cc="http://creativecommons.org/ns#" xmlns:dc="http://purl.org/dc/elements/1.1/" xmlns:rdf="http://www.w3.org/1999/02/22-rdf-syntax-ns#" xmlns:svg="http://www.w3.org/2000/svg" height="45" id="svg2" style="enable-background:new 0 0 45 45;" version="1.1" viewBox="0 0 45 45" width="45" xml:space="preserve"><metadata id="metadata8"><rdf:RDF><cc:Work rdf:about=""><dc:format>image/svg+xml</dc:format><dc:type rdf:resource="http://purl.org/dc/dcmitype/StillImage"/></cc:Work></rdf:RDF></metadata><defs id="defs6"><clipPath clipPathUnits="userSpaceOnUse" id="clipPath16"><path d="M 0,36 36,36 36,0 0,0 0,36 Z" id="path18"/></clipPath></defs><g id="g10" transform="matrix(1.25,0,0,-1.25,0,45)"><g id="g12"><g clip-path="url(#clipPath16)" id="g14"><g id="g20" transform="translate(24,14)"><path d="M 0,0 C -1.104,0 -2,0.896 -2,2 -2,3.105 -1.104,4 0,4 1.105,4 2,3.105 2,2 2,0.896 1.105,0 0,0 m -4,4 c -1.104,0 -2,0.896 -2,2 0,1.105 0.896,2 2,2 1.105,0 2,-0.895 2,-2 0,-1.104 -0.895,-2 -2,-2 m -4,4 c -1.104,0 -2,0.896 -2,2 0,1.105 0.896,2 2,2 1.105,0 2,-0.895 2,-2 0,-1.104 -0.895,-2 -2,-2 m 18.768,3.187 -2.737,2.737 C 6.478,15.478 4.977,16.977 3.924,18.03 l -2.738,2.738 c -1.512,1.511 -3.963,1.511 -5.434,0.041 l -5.91,-5.911 C -10.075,14.596 -10,14.308 -10,14 c 0,-1.104 -0.895,-2 -2,-2 -0.308,0 -0.596,0.075 -0.857,0.2 l -9.91,-9.911 c -1.512,-1.513 -1.512,-3.963 0,-5.475 l 2.738,-2.738 c 1.052,-1.053 3.052,-3.053 4.106,-4.106 l 2.737,-2.738 c 1.512,-1.511 3.964,-1.511 5.476,0 L 2.2,-2.857 C 2.075,-2.597 2,-2.308 2,-2 2,-0.895 2.896,0 4,0 4.308,0 4.597,-0.075 4.857,-0.2 l 5.911,5.911 c 1.511,1.512 1.511,3.964 0,5.476" id="path22" style="fill:#ccd6dd;fill-opacity:1;fill-rule:nonzero;stroke:none"/></g><g id="g24" transform="translate(11,6)"><path d="m 0,0 c -0.256,0 -0.512,0.098 -0.707,0.293 -0.391,0.391 -0.391,1.023 0,1.414 l 4,4 c 0.391,0.391 1.023,0.391 1.414,0 0.391,-0.391 0.391,-1.023 0,-1.414 l -4,-4 C 0.512,0.098 0.256,0 0,0" id="path26" style="fill:#99aab5;fill-opacity:1;fill-rule:nonzero;stroke:none"/></g><g id="g28" transform="translate(8,9)"><path d="m 0,0 c -0.256,0 -0.512,0.098 -0.707,0.293 -0.391,0.391 -0.391,1.023 0,1.414 l 7,7 c 0.391,0.391 1.023,0.391 1.414,0 0.391,-0.391 0.391,-1.023 0,-1.414 l -7,-7 C 0.512,0.098 0.256,0 0,0" id="path30" style="fill:#99aab5;fill-opacity:1;fill-rule:nonzero;stroke:none"/></g><g id="g32" transform="translate(5,12)"><path d="m 0,0 c -0.256,0 -0.512,0.098 -0.707,0.293 -0.391,0.391 -0.391,1.023 0,1.414 l 7,7 c 0.391,0.391 1.023,0.391 1.414,0 0.391,-0.391 0.391,-1.023 0,-1.414 l -7,-7 C 0.512,0.098 0.256,0 0,0" id="path34" style="fill:#99aab5;fill-opacity:1;fill-rule:nonzero;stroke:none"/></g><g id="g36" transform="translate(23.5693,26.2319)"><path d="M 0,0 1.611,1.611 -1.637,3.282 -1.653,3.265 0,0 Z m -3.172,2.985 c -0.245,0.534 -0.228,1.179 0.204,1.611 0.45,0.45 1.06,0.467 1.611,0.204 L 4.92,1.849 C 5.105,1.764 5.242,1.662 5.301,1.603 5.632,1.272 5.59,0.771 5.275,0.458 4.92,0.102 4.555,0.11 4.215,0.279 L 3.164,0.822 0.807,-1.535 1.341,-2.579 C 1.52,-2.926 1.527,-3.291 1.18,-3.638 0.84,-3.978 0.297,-4.011 -0.042,-3.672 c -0.136,0.135 -0.194,0.279 -0.22,0.339 l -2.91,6.318 z" id="path38" style="fill:#99aab5;fill-opacity:1;fill-rule:nonzero;stroke:none"/></g></g></g></g></svg>