<?xml version="1.0" encoding="UTF-8" standalone="no"?><svg xmlns="http://www.w3.org/2000/svg" xmlns:cc="http://creativecommons.org/ns#" xmlns:dc="http://purl.org/dc/elements/1.1/" xmlns:rdf="http://www.w3.org/1999/02/22-rdf-syntax-ns#" xmlns:svg="http://www.w3.org/2000/svg" height="45" id="svg2" style="enable-background:new 0 0 45 45;" version="1.1" viewBox="0 0 45 45" width="45" xml:space="preserve"><metadata id="metadata8"><rdf:RDF><cc:Work rdf:about=""><dc:format>image/svg+xml</dc:format><dc:type rdf:resource="http://purl.org/dc/dcmitype/StillImage"/></cc:Work></rdf:RDF></metadata><defs id="defs6"><clipPath clipPathUnits="userSpaceOnUse" id="clipPath16"><path d="M 0,36 36,36 36,0 0,0 0,36 Z" id="path18"/></clipPath></defs><g id="g10" transform="matrix(1.25,0,0,-1.25,0,45)"><g id="g12"><g clip-path="url(#clipPath16)" id="g14"><g id="g20" transform="translate(33,4)"><path d="m 0,0 c 0,-2.209 -1.791,-4 -4,-4 l -22,0 c -2.209,0 -4,1.791 -4,4 l 0,28 c 0,2.209 1.791,4 4,4 l 22,0 c 2.209,0 4,-1.791 4,-4 L 0,0 Z" id="path22" style="fill:#ccd6dd;fill-opacity:1;fill-rule:nonzero;stroke:none"/></g><g id="g24" transform="translate(19,5)"><path d="m 0,0 c 0,-0.553 -0.448,-1 -1,-1 -0.552,0 -1,0.447 -1,1 l 0,26 c 0,0.552 0.448,1 1,1 0.552,0 1,-0.448 1,-1 L 0,0 Z" id="path26" style="fill:#292f33;fill-opacity:1;fill-rule:nonzero;stroke:none"/></g><g id="g28" transform="translate(15,30)"><path d="m 0,0 c 0,-0.552 -0.448,-1 -1,-1 l -4,0 c -0.552,0 -1,0.448 -1,1 0,0.552 0.448,1 1,1 l 4,0 C -0.448,1 0,0.552 0,0" id="path30" style="fill:#99aab5;fill-opacity:1;fill-rule:nonzero;stroke:none"/></g><g id="g32" transform="translate(15,18)"><path d="m 0,0 c 0,-0.553 -0.448,-1 -1,-1 l -4,0 c -0.552,0 -1,0.447 -1,1 0,0.552 0.448,1 1,1 l 4,0 C -0.448,1 0,0.552 0,0" id="path34" style="fill:#99aab5;fill-opacity:1;fill-rule:nonzero;stroke:none"/></g><g id="g36" transform="translate(15,6)"><path d="m 0,0 c 0,-0.553 -0.448,-1 -1,-1 l -4,0 c -0.552,0 -1,0.447 -1,1 0,0.553 0.448,1 1,1 l 4,0 C -0.448,1 0,0.553 0,0" id="path38" style="fill:#99aab5;fill-opacity:1;fill-rule:nonzero;stroke:none"/></g><g id="g40" transform="translate(27,30)"><path d="m 0,0 c 0,-0.552 -0.447,-1 -1,-1 l -4,0 c -0.553,0 -1,0.448 -1,1 0,0.552 0.447,1 1,1 l 4,0 C -0.447,1 0,0.552 0,0" id="path42" style="fill:#99aab5;fill-opacity:1;fill-rule:nonzero;stroke:none"/></g><g id="g44" transform="translate(27,18)"><path d="m 0,0 c 0,-0.553 -0.447,-1 -1,-1 l -4,0 c -0.553,0 -1,0.447 -1,1 0,0.552 0.447,1 1,1 l 4,0 C -0.447,1 0,0.552 0,0" id="path46" style="fill:#99aab5;fill-opacity:1;fill-rule:nonzero;stroke:none"/></g><g id="g48" transform="translate(27,6)"><path d="m 0,0 c 0,-0.553 -0.447,-1 -1,-1 l -4,0 c -0.553,0 -1,0.447 -1,1 0,0.553 0.447,1 1,1 l 4,0 C -0.447,1 0,0.553 0,0" id="path50" style="fill:#99aab5;fill-opacity:1;fill-rule:nonzero;stroke:none"/></g><g id="g52" transform="translate(15,11.8936)"><path d="m 0,0 c 0,-0.493 -0.4,-0.894 -0.893,-0.894 l -2.214,0 C -3.6,-0.894 -4,-0.493 -4,0 l 0,0.213 c 0,0.493 0.4,0.893 0.893,0.893 l 2.214,0 C -0.4,1.106 0,0.706 0,0.213 L 0,0 Z" id="path54" style="fill:#99aab5;fill-opacity:1;fill-rule:nonzero;stroke:none"/></g><g id="g56" transform="translate(25,11.8936)"><path d="m 0,0 c 0,-0.493 -0.4,-0.894 -0.893,-0.894 l -2.214,0 C -3.6,-0.894 -4,-0.493 -4,0 l 0,0.213 c 0,0.493 0.4,0.893 0.893,0.893 l 2.214,0 C -0.4,1.106 0,0.706 0,0.213 L 0,0 Z" id="path58" style="fill:#99aab5;fill-opacity:1;fill-rule:nonzero;stroke:none"/></g><g id="g60" transform="translate(25,23)"><path d="m 0,0 c 0,-1.104 -0.895,-2 -2,-2 l -10,0 c -1.104,0 -2,0.896 -2,2 l 0,2 c 0,1.104 0.896,2 2,2 L -2,4 C -0.895,4 0,3.104 0,2 L 0,0 Z" id="path62" style="fill:#226699;fill-opacity:1;fill-rule:nonzero;stroke:none"/></g></g></g></g></svg>