<?xml version="1.0" encoding="UTF-8" standalone="no"?><svg xmlns="http://www.w3.org/2000/svg" xmlns:cc="http://creativecommons.org/ns#" xmlns:dc="http://purl.org/dc/elements/1.1/" xmlns:rdf="http://www.w3.org/1999/02/22-rdf-syntax-ns#" xmlns:svg="http://www.w3.org/2000/svg" height="45" id="svg2" style="enable-background:new 0 0 45 45;" version="1.1" viewBox="0 0 45 45" width="45" xml:space="preserve"><metadata id="metadata8"><rdf:RDF><cc:Work rdf:about=""><dc:format>image/svg+xml</dc:format><dc:type rdf:resource="http://purl.org/dc/dcmitype/StillImage"/></cc:Work></rdf:RDF></metadata><defs id="defs6"><clipPath clipPathUnits="userSpaceOnUse" id="clipPath16"><path d="M 0,36 36,36 36,0 0,0 0,36 Z" id="path18"/></clipPath></defs><g id="g10" transform="matrix(1.25,0,0,-1.25,0,45)"><g id="g12"><g clip-path="url(#clipPath16)" id="g14"><g id="g20" transform="translate(32,31)"><path d="m 0,0 -28,0 c -2.209,0 -4,-1.791 -4,-4 l 0,-10 36,0 0,10 C 4,-1.791 2.209,0 0,0" id="path22" style="fill:#003893;fill-opacity:1;fill-rule:nonzero;stroke:none"/></g><path d="m 0,15 36,0 0,2 -36,0 0,-2 z" id="path24" style="fill:#eeeeee;fill-opacity:1;fill-rule:nonzero;stroke:none"/><path d="m 0,10 36,0 0,2 -36,0 0,-2 z" id="path26" style="fill:#eeeeee;fill-opacity:1;fill-rule:nonzero;stroke:none"/><g id="g28" transform="translate(0,15)"><path d="m 0,0 0,-3 0,0 36,0 0,0 0,3 0,0 -36,0 z" id="path30" style="fill:#cf2027;fill-opacity:1;fill-rule:nonzero;stroke:none"/></g><g id="g32" transform="translate(4,5)"><path d="m 0,0 28,0 c 2.209,0 4,1.791 4,4 L 32,5 -4,5 -4,4 C -4,1.791 -2.209,0 0,0" id="path34" style="fill:#003893;fill-opacity:1;fill-rule:nonzero;stroke:none"/></g><g id="g36" transform="translate(14.3473,20.0966)"><path d="m 0,0 0.764,0.555 -0.944,0 -0.292,0.898 -0.292,-0.898 -0.945,0 L -0.945,0 -1.236,-0.898 -0.472,-0.343 0.292,-0.898 0,0 Z" id="path38" style="fill:#f7d116;fill-opacity:1;fill-rule:nonzero;stroke:none"/></g><g id="g40" transform="translate(20.5291,15.6052)"><path d="m 0,0 0.764,0.555 -0.944,0 -0.292,0.898 -0.292,-0.898 -0.945,0 L -0.945,0 -1.236,-0.898 -0.472,-0.343 0.292,-0.898 0,0 Z" id="path42" style="fill:#f7d116;fill-opacity:1;fill-rule:nonzero;stroke:none"/></g><g id="g44" transform="translate(8.1654,15.6052)"><path d="m 0,0 0.764,0.555 -0.944,0 -0.292,0.898 -0.292,-0.898 -0.945,0 L -0.945,0 -1.236,-0.898 -0.472,-0.343 0.292,-0.898 0,0 Z" id="path46" style="fill:#f7d116;fill-opacity:1;fill-rule:nonzero;stroke:none"/></g><g id="g48" transform="translate(8.1654,11.588)"><path d="m 0,0 0.764,0.555 -0.944,0 -0.292,0.898 -0.292,-0.898 -0.945,0 L -0.945,0 -1.236,-0.898 -0.472,-0.343 0.292,-0.898 0,0 Z" id="path50" style="fill:#f7d116;fill-opacity:1;fill-rule:nonzero;stroke:none"/></g><g id="g52" transform="translate(20.5291,11.588)"><path d="m 0,0 0.764,0.555 -0.944,0 -0.292,0.898 -0.292,-0.898 -0.945,0 L -0.945,0 -1.236,-0.898 -0.472,-0.343 0.292,-0.898 0,0 Z" id="path54" style="fill:#f7d116;fill-opacity:1;fill-rule:nonzero;stroke:none"/></g><g id="g56" transform="translate(14.1669,7.6517)"><path d="M 0,0 -0.292,0.898 -0.584,0 -1.528,0 -0.764,-0.555 -1.056,-1.453 -0.292,-0.898 0.472,-1.453 0.18,-0.555 0.945,0 0,0 Z" id="path58" style="fill:#f7d116;fill-opacity:1;fill-rule:nonzero;stroke:none"/></g><g id="g60" transform="translate(18.1679,8.338)"><path d="m 0,0 0.764,0.555 -0.944,0 -0.292,0.898 -0.292,-0.898 -0.945,0 L -0.945,0 -1.236,-0.898 -0.472,-0.343 0.292,-0.898 0,0 Z" id="path62" style="fill:#f7d116;fill-opacity:1;fill-rule:nonzero;stroke:none"/></g><g id="g64" transform="translate(18.1679,18.8419)"><path d="m 0,0 0.764,0.555 -0.944,0 -0.292,0.898 -0.292,-0.898 -0.945,0 L -0.945,0 -1.236,-0.898 -0.472,-0.343 0.292,-0.898 0,0 Z" id="path66" style="fill:#f7d116;fill-opacity:1;fill-rule:nonzero;stroke:none"/></g><g id="g68" transform="translate(9.5821,8.338)"><path d="m 0,0 -0.764,0.555 0.944,0 0.292,0.898 0.292,-0.898 0.945,0 L 0.945,0 1.236,-0.898 0.472,-0.343 -0.292,-0.898 0,0 Z" id="path70" style="fill:#f7d116;fill-opacity:1;fill-rule:nonzero;stroke:none"/></g><g id="g72" transform="translate(9.5821,18.8419)"><path d="m 0,0 -0.764,0.555 0.944,0 0.292,0.898 0.292,-0.898 0.945,0 L 0.945,0 1.236,-0.898 0.472,-0.343 -0.292,-0.898 0,0 Z" id="path74" style="fill:#f7d116;fill-opacity:1;fill-rule:nonzero;stroke:none"/></g></g></g></g></svg>