<?xml version="1.0" encoding="UTF-8" standalone="no"?><svg xmlns="http://www.w3.org/2000/svg" xmlns:cc="http://creativecommons.org/ns#" xmlns:dc="http://purl.org/dc/elements/1.1/" xmlns:rdf="http://www.w3.org/1999/02/22-rdf-syntax-ns#" xmlns:svg="http://www.w3.org/2000/svg" height="45" id="svg2" style="enable-background:new 0 0 45 45;" version="1.1" viewBox="0 0 45 45" width="45" xml:space="preserve"><metadata id="metadata8"><rdf:RDF><cc:Work rdf:about=""><dc:format>image/svg+xml</dc:format><dc:type rdf:resource="http://purl.org/dc/dcmitype/StillImage"/></cc:Work></rdf:RDF></metadata><defs id="defs6"><clipPath clipPathUnits="userSpaceOnUse" id="clipPath16"><path d="M 0,36 36,36 36,0 0,0 0,36 Z" id="path18"/></clipPath></defs><g id="g10" transform="matrix(1.25,0,0,-1.25,0,45)"><g id="g12"><g clip-path="url(#clipPath16)" id="g14"><g id="g20" transform="translate(0,9)"><path d="m 0,0 c 0,-2.209 1.791,-4 4,-4 l 28,0 c 2.209,0 4,1.791 4,4 L 36,2 0,2 0,0 Z" id="path22" style="fill:#002b7f;fill-opacity:1;fill-rule:nonzero;stroke:none"/></g><path d="m 0,11 36,0 0,4 -36,0 0,-4 z" id="path24" style="fill:#f9e814;fill-opacity:1;fill-rule:nonzero;stroke:none"/><g id="g26" transform="translate(9.5674,20.8427)"><path d="M 0,0 -1.567,1.139 -3.135,0 l 0.599,1.843 -1.568,1.138 1.938,0 0.599,1.843 0.598,-1.843 1.938,0 L -0.599,1.843 0,0 Z m -5.567,5.393 -1.176,-0.854 0.449,1.382 -1.176,0.854 1.454,0 0.449,1.382 0.449,-1.382 1.453,0 -1.176,-0.854 0.449,-1.382 -1.175,0.854 z m 28,4.764 -28,0 c -2.209,0 -4,-1.791 -4,-4 l 0,-12 36,0 0,12 c 0,2.209 -1.791,4 -4,4" id="path28" style="fill:#002b7f;fill-opacity:1;fill-rule:nonzero;stroke:none"/></g><g id="g30" transform="translate(8.5987,23.824)"><path d="M 0,0 -0.599,1.843 -1.197,0 -3.135,0 -1.567,-1.139 -2.166,-2.981 -0.599,-1.843 0.969,-2.981 0.37,-1.139 1.937,0 0,0 Z" id="path32" style="fill:#ffffff;fill-opacity:1;fill-rule:nonzero;stroke:none"/></g><g id="g34" transform="translate(5.9021,27.618)"><path d="M 0,0 -1.453,0 -1.902,1.382 -2.351,0 l -1.453,0 1.175,-0.854 -0.449,-1.382 1.176,0.854 1.175,-0.854 -0.449,1.382 L 0,0 Z" id="path36" style="fill:#ffffff;fill-opacity:1;fill-rule:nonzero;stroke:none"/></g></g></g></g></svg>