<?xml version="1.0" encoding="UTF-8" standalone="no"?><svg xmlns="http://www.w3.org/2000/svg" xmlns:cc="http://creativecommons.org/ns#" xmlns:dc="http://purl.org/dc/elements/1.1/" xmlns:rdf="http://www.w3.org/1999/02/22-rdf-syntax-ns#" xmlns:svg="http://www.w3.org/2000/svg" height="45" id="svg2" style="enable-background:new 0 0 45 45;" version="1.1" viewBox="0 0 45 45" width="45" xml:space="preserve"><metadata id="metadata8"><rdf:RDF><cc:Work rdf:about=""><dc:format>image/svg+xml</dc:format><dc:type rdf:resource="http://purl.org/dc/dcmitype/StillImage"/></cc:Work></rdf:RDF></metadata><defs id="defs6"><clipPath clipPathUnits="userSpaceOnUse" id="clipPath16"><path d="M 0,36 36,36 36,0 0,0 0,36 Z" id="path18"/></clipPath></defs><g id="g10" transform="matrix(1.25,0,0,-1.25,0,45)"><g id="g12"><g clip-path="url(#clipPath16)" id="g14"><g id="g20" transform="translate(36,18)"><path d="m 0,0 c 0,-9.94 -8.06,-18 -18,-18 -9.941,0 -18,8.06 -18,18 0,9.941 8.059,18 18,18 C -8.06,18 0,9.941 0,0" id="path22" style="fill:#66757f;fill-opacity:1;fill-rule:nonzero;stroke:none"/></g><g id="g24" transform="translate(13,28.5)"><path d="M 0,0 C 0,-1.933 -1.566,-3.5 -3.5,-3.5 -5.434,-3.5 -7,-1.933 -7,0 -7,1.933 -5.434,3.5 -3.5,3.5 -1.566,3.5 0,1.933 0,0" id="path26" style="fill:#5b6876;fill-opacity:1;fill-rule:nonzero;stroke:none"/></g><g id="g28" transform="translate(28,7.5)"><path d="M 0,0 C 0,-1.934 -1.566,-3.5 -3.5,-3.5 -5.434,-3.5 -7,-1.934 -7,0 -7,1.934 -5.434,3.5 -3.5,3.5 -1.566,3.5 0,1.934 0,0" id="path30" style="fill:#5b6876;fill-opacity:1;fill-rule:nonzero;stroke:none"/></g><g id="g32" transform="translate(24,31)"><path d="m 0,0 c 0,-1.104 -0.895,-2 -2,-2 -1.104,0 -2,0.896 -2,2 0,1.105 0.896,2 2,2 1.105,0 2,-0.895 2,-2" id="path34" style="fill:#5b6876;fill-opacity:1;fill-rule:nonzero;stroke:none"/></g><g id="g36" transform="translate(2,18)"><path d="M 0,0 C 0,-0.553 0.448,-1 1,-1 1.552,-1 2,-0.553 2,0 2,0.552 1.552,1 1,1 0.448,1 0,0.552 0,0" id="path38" style="fill:#5b6876;fill-opacity:1;fill-rule:nonzero;stroke:none"/></g><g id="g40" transform="translate(29,27)"><path d="M 0,0 C 0,-0.553 0.447,-1 1,-1 1.553,-1 2,-0.553 2,0 2,0.552 1.553,1 1,1 0.447,1 0,0.552 0,0" id="path42" style="fill:#5b6876;fill-opacity:1;fill-rule:nonzero;stroke:none"/></g><g id="g44" transform="translate(15,5)"><path d="M 0,0 C 0,-0.553 0.447,-1 1,-1 1.553,-1 2,-0.553 2,0 2,0.553 1.553,1 1,1 0.447,1 0,0.553 0,0" id="path46" style="fill:#5b6876;fill-opacity:1;fill-rule:nonzero;stroke:none"/></g><g id="g48" transform="translate(34,17)"><path d="m 0,0 c 0,-1.104 -0.895,-2 -2,-2 -1.104,0 -2,0.896 -2,2 0,1.105 0.896,2 2,2 1.105,0 2,-0.895 2,-2" id="path50" style="fill:#5b6876;fill-opacity:1;fill-rule:nonzero;stroke:none"/></g><g id="g52" transform="translate(8,10)"><path d="m 0,0 c 0,-1.104 -0.896,-2 -2,-2 -1.104,0 -2,0.896 -2,2 0,1.105 0.896,2 2,2 1.104,0 2,-0.895 2,-2" id="path54" style="fill:#5b6876;fill-opacity:1;fill-rule:nonzero;stroke:none"/></g><g id="g56" transform="translate(18,11.0957)"><path d="m 0,0 c -7,0 -9,2.618 -9,1.381 0,-1.238 4,-4.477 9,-4.477 5,0 9,3.239 9,4.477 C 9,2.618 7,0 0,0" id="path58" style="fill:#4f585d;fill-opacity:1;fill-rule:nonzero;stroke:none"/></g><g id="g60" transform="translate(27,21)"><path d="m 0,0 c 0,-1.657 -1.344,-3 -3,-3 -1.656,0 -3,1.343 -3,3 0,1.657 1.344,3 3,3 1.656,0 3,-1.343 3,-3" id="path62" style="fill:#4f585d;fill-opacity:1;fill-rule:nonzero;stroke:none"/></g><g id="g64" transform="translate(15,21)"><path d="m 0,0 c 0,-1.657 -1.344,-3 -3,-3 -1.656,0 -3,1.343 -3,3 0,1.657 1.344,3 3,3 1.656,0 3,-1.343 3,-3" id="path66" style="fill:#4f585d;fill-opacity:1;fill-rule:nonzero;stroke:none"/></g></g></g></g></svg>