<?xml version="1.0" encoding="UTF-8" standalone="no"?><svg xmlns="http://www.w3.org/2000/svg" xmlns:cc="http://creativecommons.org/ns#" xmlns:dc="http://purl.org/dc/elements/1.1/" xmlns:rdf="http://www.w3.org/1999/02/22-rdf-syntax-ns#" xmlns:svg="http://www.w3.org/2000/svg" height="45" id="svg2" style="enable-background:new 0 0 45 45;" version="1.1" viewBox="0 0 45 45" width="45" xml:space="preserve"><metadata id="metadata8"><rdf:RDF><cc:Work rdf:about=""><dc:format>image/svg+xml</dc:format><dc:type rdf:resource="http://purl.org/dc/dcmitype/StillImage"/></cc:Work></rdf:RDF></metadata><defs id="defs6"><clipPath clipPathUnits="userSpaceOnUse" id="clipPath16"><path d="M 0,36 36,36 36,0 0,0 0,36 Z" id="path18"/></clipPath></defs><g id="g10" transform="matrix(1.25,0,0,-1.25,0,45)"><g id="g12"><g clip-path="url(#clipPath16)" id="g14"><g id="g20" transform="translate(5,15)"><path d="M 0,0 C 0,-2.209 -1.119,-4 -2.5,-4 -3.881,-4 -5,-2.209 -5,0 -5,2.21 -3.881,4.001 -2.5,4.001 -1.119,4.001 0,2.21 0,0" id="path22" style="fill:#af7e57;fill-opacity:1;fill-rule:nonzero;stroke:none"/></g><g id="g24" transform="translate(3,17.4375)"><path d="M 0,0 C 0,8.526 5.373,15.438 12,15.438 18.627,15.438 24,8.526 24,0 24,-8.525 18.627,-15.438 12,-15.438 5.373,-15.438 0,-8.525 0,0" id="path26" style="fill:#af7e57;fill-opacity:1;fill-rule:nonzero;stroke:none"/></g><g id="g28" transform="translate(20,36)"><path d="M 0,0 C -0.249,0 -0.477,-0.007 -0.713,-0.012 -0.81,-0.01 -0.903,0 -1,0 c -10,0 -17,-4.582 -17,-9 0,-4.419 6.373,-4 13,-4 4.442,0 7.648,10e-4 9.966,0.086 C 4.978,-12.944 4.988,-12.97 5,-13 l 6,-15 2,0 c 0,0 0.343,3.055 1,7 1,6 0.533,21 -14,21" id="path30" style="fill:#dd2e44;fill-opacity:1;fill-rule:nonzero;stroke:none"/></g><g id="g32" transform="translate(30,15)"><path d="M 0,0 C 0,-2.209 -1.119,-4 -2.5,-4 -3.881,-4 -5,-2.209 -5,0 -5,2.21 -3.881,4.001 -2.5,4.001 -1.119,4.001 0,2.21 0,0" id="path34" style="fill:#af7e57;fill-opacity:1;fill-rule:nonzero;stroke:none"/></g><g id="g36" transform="translate(10,15)"><path d="m 0,0 c -0.552,0 -1,0.447 -1,1 l 0,2 C -1,3.552 -0.552,4 0,4 0.552,4 1,3.552 1,3 L 1,1 C 1,0.447 0.552,0 0,0" id="path38" style="fill:#60352a;fill-opacity:1;fill-rule:nonzero;stroke:none"/></g><g id="g40" transform="translate(20,15)"><path d="m 0,0 c -0.553,0 -1,0.447 -1,1 l 0,2 C -1,3.552 -0.553,4 0,4 0.553,4 1,3.552 1,3 L 1,1 C 1,0.447 0.553,0 0,0" id="path42" style="fill:#60352a;fill-opacity:1;fill-rule:nonzero;stroke:none"/></g><g id="g44" transform="translate(16,10)"><path d="m 0,0 -2,0 c -0.552,0 -1,0.447 -1,1 0,0.553 0.448,1 1,1 L 0,2 C 0.552,2 1,1.553 1,1 1,0.447 0.552,0 0,0" id="path46" style="fill:#915a34;fill-opacity:1;fill-rule:nonzero;stroke:none"/></g><g id="g48" transform="translate(27,11)"><path d="m 0,0 c 0,2 -2.293,0.707 -3,0 -1,-1 -3,-3 -5,-2 -2.828,1.414 -4,1 -4,1 0,0 -1.171,0.414 -4,-1 -2,-1 -4,1 -5,2 -0.707,0.707 -3,2 -3,0 0,-2 1,-2 1,-2 -1,-2 1,-3 1,-3 0,-3 3,-3 3,-3 0,-3 4,-2 4,-2 1,-1 3,-1 3,-1 0,0 2,0 3,1 0,0 4,-1 4,2 0,0 3,0 3,3 0,0 2,1 1,3 0,0 1,0 1,2" id="path50" style="fill:#e6e7e8;fill-opacity:1;fill-rule:nonzero;stroke:none"/></g><g id="g52" transform="translate(15,8)"><path d="m 0,0 c 7,0 4,-2 0,-2 -4,0 -7,2 0,2" id="path54" style="fill:#af7e57;fill-opacity:1;fill-rule:nonzero;stroke:none"/></g><g id="g56" transform="translate(1,22)"><path d="M 0,0 C 0,2.209 0.896,4 2,4 3.104,4 4,2.209 4,0 4,-2.209 3.104,-4 2,-4 0.896,-4 0,-2.209 0,0" id="path58" style="fill:#d1d3d4;fill-opacity:1;fill-rule:nonzero;stroke:none"/></g><g id="g60" transform="translate(24,22)"><path d="M 0,0 C 0,2.209 0.896,4 2,4 3.105,4 4,2.209 4,0 4,-2.209 3.105,-4 2,-4 0.896,-4 0,-2.209 0,0" id="path62" style="fill:#d1d3d4;fill-opacity:1;fill-rule:nonzero;stroke:none"/></g><g id="g64" transform="translate(28,7)"><path d="M 0,0 C 0,-2.209 1.791,-4 4,-4 6.209,-4 8,-2.209 8,0 8,2.209 6.209,4 4,4 1.791,4 0,2.209 0,0" id="path66" style="fill:#f1f2f2;fill-opacity:1;fill-rule:nonzero;stroke:none"/></g><g id="g68" transform="translate(29,24)"><path d="m 0,0 c 0,-1.104 -0.895,-2 -2,-2 l -25,0 c -1.104,0 -2,0.896 -2,2 l 0,1 c 0,1.104 0.896,2 2,2 L -2,3 C -0.895,3 0,2.104 0,1 L 0,0 Z" id="path70" style="fill:#f1f2f2;fill-opacity:1;fill-rule:nonzero;stroke:none"/></g></g></g></g></svg>