<?xml version="1.0" encoding="UTF-8" standalone="no"?><svg xmlns="http://www.w3.org/2000/svg" xmlns:cc="http://creativecommons.org/ns#" xmlns:dc="http://purl.org/dc/elements/1.1/" xmlns:rdf="http://www.w3.org/1999/02/22-rdf-syntax-ns#" xmlns:svg="http://www.w3.org/2000/svg" height="45" id="svg2" style="enable-background:new 0 0 45 45;" version="1.1" viewBox="0 0 45 45" width="45" xml:space="preserve"><metadata id="metadata8"><rdf:RDF><cc:Work rdf:about=""><dc:format>image/svg+xml</dc:format><dc:type rdf:resource="http://purl.org/dc/dcmitype/StillImage"/></cc:Work></rdf:RDF></metadata><defs id="defs6"><clipPath clipPathUnits="userSpaceOnUse" id="clipPath16"><path d="M 0,36 36,36 36,0 0,0 0,36 Z" id="path18"/></clipPath></defs><g id="g10" transform="matrix(1.25,0,0,-1.25,0,45)"><g id="g12"><g clip-path="url(#clipPath16)" id="g14"><g id="g20" transform="translate(7.9146,1.1318)"><path d="M 0,0 C 0.725,-0.725 1.313,-1.313 2.417,-0.21 3.52,0.893 1.751,2.661 2.855,3.765 3.959,4.868 2.303,3.213 3.407,4.316 4.511,5.42 6.279,3.652 7.381,4.755 8.485,5.858 7.897,6.447 7.172,7.172 L 4.495,9.849 C 3.77,10.573 2.688,10.668 2.078,10.058 L -2.886,5.094 C -3.496,4.484 -3.402,3.401 -2.677,2.677 L 0,0 Z" id="path22" style="fill:#292f33;fill-opacity:1;fill-rule:nonzero;stroke:none"/></g><g id="g24" transform="translate(1.0298,2.2275)"><path d="m 0,0 c 0.781,-0.781 2.047,-0.781 2.829,0 l 19.07,19.069 c -0.101,2.728 4.95,4.95 3.536,6.364 -0.781,0.781 -4.243,-5.657 -6.971,-4.142 L 0,2.828 C -0.781,2.047 -0.781,0.78 0,0" id="path26" style="fill:#67757f;fill-opacity:1;fill-rule:nonzero;stroke:none"/></g><g id="g28" transform="translate(23.2822,25.8931)"><path d="m 0,0 c -1.366,-1.367 -3.583,-1.367 -4.95,0 -1.367,1.367 -1.367,3.583 0,4.95 1.367,1.366 3.584,1.366 4.95,0 C 1.367,3.583 1.367,1.367 0,0 m -6.364,6.364 c -2.148,-2.148 -2.148,-5.63 0,-7.778 2.148,-2.148 5.631,-2.148 7.778,0 2.148,2.147 2.148,5.63 0,7.778 -2.147,2.148 -5.63,2.148 -7.778,0" id="path30" style="fill:#292f33;fill-opacity:1;fill-rule:nonzero;stroke:none"/></g><g id="g32" transform="translate(32.4746,28.0142)"><path d="m 0,0 c -1.366,-1.366 -3.583,-1.366 -4.949,0 -1.367,1.368 -1.367,3.583 0,4.95 1.366,1.366 3.582,1.367 4.949,0 C 1.367,3.583 1.367,1.367 0,0 m -6.363,6.364 c -2.149,-2.147 -2.149,-5.63 0,-7.778 2.147,-2.148 5.63,-2.148 7.777,0 2.149,2.147 2.149,5.631 0,7.778 -2.147,2.148 -5.63,2.148 -7.777,0" id="path34" style="fill:#292f33;fill-opacity:1;fill-rule:nonzero;stroke:none"/></g><g id="g36" transform="translate(30.3535,18.8223)"><path d="m 0,0 c -1.366,-1.367 -3.583,-1.367 -4.95,0 -1.367,1.367 -1.366,3.583 0,4.949 1.367,1.367 3.583,1.368 4.95,0 C 1.366,3.583 1.366,1.366 0,0 m -6.364,6.364 c -2.148,-2.148 -2.148,-5.631 0,-7.778 2.147,-2.149 5.631,-2.149 7.778,0 2.148,2.147 2.148,5.63 0,7.778 -2.147,2.147 -5.631,2.147 -7.778,0" id="path38" style="fill:#292f33;fill-opacity:1;fill-rule:nonzero;stroke:none"/></g><g id="g40" transform="translate(19.3936,17.7617)"><path d="m 0,0 c 0.781,-0.781 0.781,-2.048 0,-2.829 -0.781,-0.78 -2.048,-0.78 -2.829,0 L -5.658,0 c -0.781,0.78 -0.781,2.047 0,2.828 0.782,0.781 2.048,0.781 2.829,0 L 0,0 Z" id="path42" style="fill:#67757f;fill-opacity:1;fill-rule:nonzero;stroke:none"/></g><g id="g44" transform="translate(27,27)"><path d="m 0,0 c 0,-0.552 -0.447,-1 -1,-1 -0.553,0 -1,0.448 -1,1 0,0.552 0.447,1 1,1 0.553,0 1,-0.448 1,-1" id="path46" style="fill:#292f33;fill-opacity:1;fill-rule:nonzero;stroke:none"/></g></g></g></g></svg>