<?xml version="1.0" encoding="UTF-8" standalone="no"?><svg xmlns="http://www.w3.org/2000/svg" xmlns:cc="http://creativecommons.org/ns#" xmlns:dc="http://purl.org/dc/elements/1.1/" xmlns:rdf="http://www.w3.org/1999/02/22-rdf-syntax-ns#" xmlns:svg="http://www.w3.org/2000/svg" height="45" id="svg2" style="enable-background:new 0 0 45 45;" version="1.1" viewBox="0 0 45 45" width="45" xml:space="preserve"><metadata id="metadata8"><rdf:RDF><cc:Work rdf:about=""><dc:format>image/svg+xml</dc:format><dc:type rdf:resource="http://purl.org/dc/dcmitype/StillImage"/></cc:Work></rdf:RDF></metadata><defs id="defs6"><clipPath clipPathUnits="userSpaceOnUse" id="clipPath16"><path d="M 0,36 36,36 36,0 0,0 0,36 Z" id="path18"/></clipPath></defs><g id="g10" transform="matrix(1.25,0,0,-1.25,0,45)"><g id="g12"><g clip-path="url(#clipPath16)" id="g14"><g id="g20" transform="translate(5.9424,3)"><path d="M 0,0 C -0.138,4.657 -0.507,8 -0.942,8 -1.377,8 -1.746,4.657 -1.884,0 L 0,0 Z" id="path22" style="fill:#ffcc4d;fill-opacity:1;fill-rule:nonzero;stroke:none"/></g><g id="g24" transform="translate(16,15.5771)"><path d="m 0,0 c 0,-5.045 -2.238,-6.577 -5,-6.577 -2.761,0 -5,1.532 -5,6.577 0,5.044 4,12.423 5,12.423 1,0 5,-7.379 5,-12.423" id="path26" style="fill:#a6d388;fill-opacity:1;fill-rule:nonzero;stroke:none"/></g><g id="g28" transform="translate(10,16.2686)"><path d="m 0,0 c 0,-5.574 -2.238,-7.269 -5,-7.269 -2.761,0 -5,1.695 -5,7.269 0,5.577 4,13.731 5,13.731 1,0 5,-8.154 5,-13.731" id="path30" style="fill:#77b255;fill-opacity:1;fill-rule:nonzero;stroke:none"/></g><g id="g32" transform="translate(8,20)"><path d="M 0,0 13,13 26,0 26,-16 0,-16 0,0 Z" id="path34" style="fill:#ffe8b6;fill-opacity:1;fill-rule:nonzero;stroke:none"/></g><path d="m 22,4 -1,0 0,16 1,0 0,-16 z" id="path36" style="fill:#ffffff;fill-opacity:1;fill-rule:nonzero;stroke:none"/><path d="M 9,4 8,4 8,20 9,20 9,4 Z" id="path38" style="fill:#ffcc4d;fill-opacity:1;fill-rule:nonzero;stroke:none"/><path d="m 33,4 1,0 0,16 -1,0 0,-16 z" id="path40" style="fill:#ffcc4d;fill-opacity:1;fill-rule:nonzero;stroke:none"/><g id="g42" transform="translate(34,19)"><path d="M 0,0 C -0.256,0 -0.512,0.098 -0.707,0.293 L -13,12.586 -25.293,0.293 c -0.391,-0.391 -1.023,-0.391 -1.414,0 -0.391,0.391 -0.391,1.023 0,1.414 l 13,13 c 0.391,0.391 1.023,0.391 1.414,0 l 13,-13 C 1.098,1.316 1.098,0.684 0.707,0.293 0.512,0.098 0.256,0 0,0" id="path44" style="fill:#66757f;fill-opacity:1;fill-rule:nonzero;stroke:none"/></g><g id="g46" transform="translate(21,19)"><path d="m 0,0 c -0.256,0 -0.512,0.098 -0.707,0.293 -0.391,0.391 -0.391,1.023 0,1.414 l 6.5,6.5 c 0.391,0.391 1.023,0.391 1.414,0 0.391,-0.391 0.391,-1.023 0,-1.414 l -6.5,-6.5 C 0.512,0.098 0.256,0 0,0" id="path48" style="fill:#66757f;fill-opacity:1;fill-rule:nonzero;stroke:none"/></g><path d="m 17,4 -4,0 0,6 4,0 0,-6 z" id="path50" style="fill:#c1694f;fill-opacity:1;fill-rule:nonzero;stroke:none"/><path d="m 29,6 -3,0 0,4 3,0 0,-4 z" id="path52" style="fill:#55acee;fill-opacity:1;fill-rule:nonzero;stroke:none"/><path d="m 25,6 2,0 0,4 -2,0 0,-4 z" id="path54" style="fill:#55acee;fill-opacity:1;fill-rule:nonzero;stroke:none"/><path d="m 30,6 -2,0 0,4 2,0 0,-4 z" id="path56" style="fill:#55acee;fill-opacity:1;fill-rule:nonzero;stroke:none"/><path d="m 17,15 -4,0 0,4 4,0 0,-4 z" id="path58" style="fill:#55acee;fill-opacity:1;fill-rule:nonzero;stroke:none"/><path d="m 30,15 -5,0 0,4 5,0 0,-4 z" id="path60" style="fill:#55acee;fill-opacity:1;fill-rule:nonzero;stroke:none"/><g id="g62" transform="translate(36,2)"><path d="m 0,0 c 0,-1.105 -0.895,-2 -2,-2 l -32,0 c -1.104,0 -2,0.895 -2,2 0,1.105 0.896,2 2,2 L -2,2 C -0.895,2 0,1.105 0,0" id="path64" style="fill:#5c913b;fill-opacity:1;fill-rule:nonzero;stroke:none"/></g><path d="m 17,0 -4,0 0,4 4,0 0,-4 z" id="path66" style="fill:#ffffff;fill-opacity:1;fill-rule:nonzero;stroke:none"/></g></g></g></svg>