<?xml version="1.0" encoding="UTF-8" standalone="no"?><svg xmlns="http://www.w3.org/2000/svg" xmlns:cc="http://creativecommons.org/ns#" xmlns:dc="http://purl.org/dc/elements/1.1/" xmlns:rdf="http://www.w3.org/1999/02/22-rdf-syntax-ns#" xmlns:svg="http://www.w3.org/2000/svg" height="45" id="svg2" style="enable-background:new 0 0 45 45;" version="1.1" viewBox="0 0 45 45" width="45" xml:space="preserve"><metadata id="metadata8"><rdf:RDF><cc:Work rdf:about=""><dc:format>image/svg+xml</dc:format><dc:type rdf:resource="http://purl.org/dc/dcmitype/StillImage"/></cc:Work></rdf:RDF></metadata><defs id="defs6"><clipPath clipPathUnits="userSpaceOnUse" id="clipPath24"><path d="M 0,36 36,36 36,0 0,0 0,36 Z" id="path26"/></clipPath></defs><g id="g10" transform="matrix(1.25,0,0,-1.25,0,45)"><g id="g12" transform="translate(5,18)"><path d="M 0,0 13,13 26,0 26,-16 0,-16 0,0 Z" id="path14" style="fill:#ffe8b6;fill-opacity:1;fill-rule:nonzero;stroke:none"/></g><path d="M 5,2 6,2 6,18 5,18 5,2 Z" id="path16" style="fill:#ffcc4d;fill-opacity:1;fill-rule:nonzero;stroke:none"/><path d="m 30,2 1,0 0,16 -1,0 0,-16 z" id="path18" style="fill:#ffcc4d;fill-opacity:1;fill-rule:nonzero;stroke:none"/><g id="g20"><g clip-path="url(#clipPath24)" id="g22"><g id="g28" transform="translate(31,17)"><path d="M 0,0 C -0.256,0 -0.512,0.098 -0.707,0.293 L -13,12.586 -25.293,0.293 c -0.391,-0.391 -1.023,-0.391 -1.414,0 -0.391,0.391 -0.391,1.023 0,1.414 l 13,13 c 0.391,0.391 1.023,0.391 1.414,0 l 13,-13 C 1.098,1.316 1.098,0.684 0.707,0.293 0.512,0.098 0.256,0 0,0" id="path30" style="fill:#66757f;fill-opacity:1;fill-rule:nonzero;stroke:none"/></g><path d="m 20,2 -4,0 0,8 4,0 0,-8 z" id="path32" style="fill:#c1694f;fill-opacity:1;fill-rule:nonzero;stroke:none"/><path d="m 13,14 -4,0 0,4 4,0 0,-4 z" id="path34" style="fill:#55acee;fill-opacity:1;fill-rule:nonzero;stroke:none"/><path d="m 27,14 -4,0 0,4 4,0 0,-4 z" id="path36" style="fill:#55acee;fill-opacity:1;fill-rule:nonzero;stroke:none"/><path d="m 20,14 -4,0 0,4 4,0 0,-4 z" id="path38" style="fill:#55acee;fill-opacity:1;fill-rule:nonzero;stroke:none"/><path d="m 13,6 -4,0 0,4 4,0 0,-4 z" id="path40" style="fill:#55acee;fill-opacity:1;fill-rule:nonzero;stroke:none"/><path d="m 27,6 -4,0 0,4 4,0 0,-4 z" id="path42" style="fill:#55acee;fill-opacity:1;fill-rule:nonzero;stroke:none"/><g id="g44" transform="translate(33,1)"><path d="m 0,0 c 0,-0.553 -0.447,-1 -1,-1 l -28,0 c -0.552,0 -1,0.447 -1,1 0,0.553 0.448,1 1,1 L -1,1 C -0.447,1 0,0.553 0,0" id="path46" style="fill:#bcbec0;fill-opacity:1;fill-rule:nonzero;stroke:none"/></g></g></g></g></svg>