<?xml version="1.0" encoding="UTF-8" standalone="no"?><svg xmlns="http://www.w3.org/2000/svg" xmlns:cc="http://creativecommons.org/ns#" xmlns:dc="http://purl.org/dc/elements/1.1/" xmlns:rdf="http://www.w3.org/1999/02/22-rdf-syntax-ns#" xmlns:svg="http://www.w3.org/2000/svg" height="45" id="svg2" style="enable-background:new 0 0 45 45;" version="1.1" viewBox="0 0 45 45" width="45" xml:space="preserve"><metadata id="metadata8"><rdf:RDF><cc:Work rdf:about=""><dc:format>image/svg+xml</dc:format><dc:type rdf:resource="http://purl.org/dc/dcmitype/StillImage"/></cc:Work></rdf:RDF></metadata><defs id="defs6"><clipPath clipPathUnits="userSpaceOnUse" id="clipPath16"><path d="M 0,36 36,36 36,0 0,0 0,36 Z" id="path18"/></clipPath></defs><g id="g10" transform="matrix(1.25,0,0,-1.25,0,45)"><g id="g12"><g clip-path="url(#clipPath16)" id="g14"><g id="g20" transform="translate(9.4414,21.4053)"><path d="m 0,0 c 0.458,1.372 7.41,7.525 13.286,10.22 1.528,0.701 6.602,2.834 8.35,3.271 3.604,0.901 5.09,1.013 4.589,-2.646 C 25.518,5.674 21.606,-1.752 17.519,-8.906 14.839,-13.119 13.286,-15.329 7.154,-12.263 1.022,-9.198 -2.043,-6.132 0,0" id="path22" style="fill:#b90053;fill-opacity:1;fill-rule:nonzero;stroke:none"/></g><g id="g24" transform="translate(22.4912,21.2397)"><path d="m 0,0 c 3.816,-3.768 4.498,-9.263 1.524,-12.276 -2.973,-3.014 -8.477,-2.4 -12.294,1.365 -3.815,3.768 -4.498,9.265 -1.524,12.276 C -9.32,4.378 -3.816,3.767 0,0" id="path26" style="fill:#ffcc4d;fill-opacity:1;fill-rule:nonzero;stroke:none"/></g><g id="g28" transform="translate(26.96,29.6226)"><path d="M 0,0 C 1.14,-0.57 2.703,-3.605 2.703,-4.506 2.703,-5.407 1.802,-3.605 0,-1.802 -1.803,0 -1.803,0.901 0,0" id="path30" style="fill:#8e0042;fill-opacity:1;fill-rule:nonzero;stroke:none"/></g><g id="g32" transform="translate(27.1406,21.5933)"><path d="M 0,0 C 0.607,-0.578 1.009,-2.787 0.836,-3.355 0.663,-3.921 0.441,-2.615 -0.347,-1.134 -1.136,0.345 -0.962,0.913 0,0" id="path34" style="fill:#8e0042;fill-opacity:1;fill-rule:nonzero;stroke:none"/></g><g id="g36" transform="translate(21,4)"><path d="m 0,0 c 0,-2.209 -4.477,-4 -10,-4 -5.523,0 -10,2 -10,4 0,0.371 -0.203,2.6 0.083,2.958 C -18.66,4.531 -14.498,4 -10,4 -5.092,4 -0.867,4.865 -0.02,3 0.086,2.767 0,0.246 0,0" id="path38" style="fill:#b90053;fill-opacity:1;fill-rule:nonzero;stroke:none"/></g><g id="g40" transform="translate(21,7)"><path d="m 0,0 c 0,-2.209 -4.477,-4 -10,-4 -5.523,0 -10,1.791 -10,4 0,2.209 4.477,4 10,4 C -4.477,4 0,2.209 0,0" id="path42" style="fill:#ffd671;fill-opacity:1;fill-rule:nonzero;stroke:none"/></g></g></g></g></svg>