<?xml version="1.0" encoding="UTF-8" standalone="no"?><svg xmlns="http://www.w3.org/2000/svg" xmlns:cc="http://creativecommons.org/ns#" xmlns:dc="http://purl.org/dc/elements/1.1/" xmlns:rdf="http://www.w3.org/1999/02/22-rdf-syntax-ns#" xmlns:svg="http://www.w3.org/2000/svg" height="45" id="svg2" style="enable-background:new 0 0 45 45;" version="1.1" viewBox="0 0 45 45" width="45" xml:space="preserve"><metadata id="metadata8"><rdf:RDF><cc:Work rdf:about=""><dc:format>image/svg+xml</dc:format><dc:type rdf:resource="http://purl.org/dc/dcmitype/StillImage"/></cc:Work></rdf:RDF></metadata><defs id="defs6"/><g id="g10" transform="matrix(1.25,0,0,-1.25,0,45)"><g id="g12" transform="translate(9.9999,36)"><path d="M 0,0 0,-4.568 -6.181,-33.682 1.545,-36 7.955,-12.819 10.182,0 0,0 Z" id="path14" style="fill:#3b88c3;fill-opacity:1;fill-rule:nonzero;stroke:none"/></g><g id="g16" transform="translate(15.8184,36)"><path d="M 0,0 2.227,-12.819 8.635,-36 16.363,-33.682 10.182,-4.568 10.182,0 0,0 Z" id="path18" style="fill:#3b88c3;fill-opacity:1;fill-rule:nonzero;stroke:none"/></g><path d="m 26,32 -16,0 0,2 16,0 0,-2 z" id="path20" style="fill:#226699;fill-opacity:1;fill-rule:nonzero;stroke:none"/><g id="g22" transform="translate(19,24)"><path d="M 0,0 -2,0 -6,2 4,2 0,0 Z" id="path24" style="fill:#226699;fill-opacity:1;fill-rule:nonzero;stroke:none"/></g><path d="m 12,33 2.001,0 0,3 -2.001,0 0,-3 z" id="path26" style="fill:#226699;fill-opacity:1;fill-rule:nonzero;stroke:none"/><path d="m 22,33 2.001,0 0,3 -2.001,0 0,-3 z" id="path28" style="fill:#226699;fill-opacity:1;fill-rule:nonzero;stroke:none"/><path d="m 16,25 2,0 0,7 -2,0 0,-7 z" id="path30" style="fill:#226699;fill-opacity:1;fill-rule:nonzero;stroke:none"/></g></svg>