<?xml version="1.0" encoding="UTF-8" standalone="no"?><svg xmlns="http://www.w3.org/2000/svg" xmlns:cc="http://creativecommons.org/ns#" xmlns:dc="http://purl.org/dc/elements/1.1/" xmlns:rdf="http://www.w3.org/1999/02/22-rdf-syntax-ns#" xmlns:svg="http://www.w3.org/2000/svg" height="45" id="svg2" style="enable-background:new 0 0 45 45;" version="1.1" viewBox="0 0 45 45" width="45" xml:space="preserve"><metadata id="metadata8"><rdf:RDF><cc:Work rdf:about=""><dc:format>image/svg+xml</dc:format><dc:type rdf:resource="http://purl.org/dc/dcmitype/StillImage"/></cc:Work></rdf:RDF></metadata><defs id="defs6"><clipPath clipPathUnits="userSpaceOnUse" id="clipPath16"><path d="M 0,36 36,36 36,0 0,0 0,36 Z" id="path18"/></clipPath></defs><g id="g10" transform="matrix(1.25,0,0,-1.25,0,45)"><g id="g12"><g clip-path="url(#clipPath16)" id="g14"><g id="g20" transform="translate(36,16)"><path d="m 0,0 c 0,-10 -11,-16 -18,-16 -7,0 -18,6.059 -18,16 0,9.941 4,20 18,20 C -4,20 0,10 0,0" id="path22" style="fill:#ffcc4d;fill-opacity:1;fill-rule:nonzero;stroke:none"/></g><g id="g24" transform="translate(35,35)"><path d="m 0,0 c 1,-1 0,-11 0,-11 l -8,10 c 0,0 7,2 8,1" id="path26" style="fill:#ffcc4d;fill-opacity:1;fill-rule:nonzero;stroke:none"/></g><g id="g28" transform="translate(1,35)"><path d="M 0,0 C -1,-1 0,-11 0,-11 L 8,-1 C 8,-1 1,1 0,0" id="path30" style="fill:#ffcc4d;fill-opacity:1;fill-rule:nonzero;stroke:none"/></g><g id="g32" transform="translate(14,21.5)"><path d="m 0,0 c 0,-1.933 -0.895,-3.5 -2,-3.5 -1.104,0 -2,1.567 -2,3.5 0,1.933 0.896,3.5 2,3.5 1.105,0 2,-1.567 2,-3.5" id="path34" style="fill:#292f33;fill-opacity:1;fill-rule:nonzero;stroke:none"/></g><g id="g36" transform="translate(26,21.5)"><path d="m 0,0 c 0,-1.933 -0.895,-3.5 -2,-3.5 -1.104,0 -2,1.567 -2,3.5 0,1.933 0.896,3.5 2,3.5 1.105,0 2,-1.567 2,-3.5" id="path38" style="fill:#292f33;fill-opacity:1;fill-rule:nonzero;stroke:none"/></g><g id="g40" transform="translate(17.9995,16.5)"><path d="m 0,0 c 3.001,0 3.001,-0.5 3.001,-1.5 0,-1 -1.5,-3 -3.001,-3 -1.5,0 -3,2 -3,3 0,1 -10e-4,1.5 3,1.5" id="path42" style="fill:#67757f;fill-opacity:1;fill-rule:nonzero;stroke:none"/></g><g id="g44" transform="translate(26,15.5)"><path d="m 0,0 c -0.209,0 -0.404,0.133 -0.475,0.342 -0.086,0.262 0.055,0.545 0.317,0.633 l 9,2.999 C 9.105,4.062 9.387,3.92 9.475,3.658 9.562,3.396 9.42,3.113 9.158,3.026 l -9,-3.001 C 0.105,0.008 0.053,0 0,0" id="path46" style="fill:#9aaab4;fill-opacity:1;fill-rule:nonzero;stroke:none"/></g><g id="g48" transform="translate(24.999,13.5)"><path d="m 0,0 c -0.233,0 -0.441,0.164 -0.489,0.402 -0.055,0.271 0.121,0.534 0.392,0.588 l 10,2 C 10.163,3.044 10.436,2.87 10.491,2.598 10.546,2.327 10.37,2.064 10.099,2.01 l -10,-2 C 0.066,0.003 0.033,0 0,0" id="path50" style="fill:#9aaab4;fill-opacity:1;fill-rule:nonzero;stroke:none"/></g><g id="g52" transform="translate(10,15.5)"><path d="m 0,0 c -0.052,0 -0.105,0.008 -0.158,0.025 l -9,3.001 c -0.262,0.087 -0.404,0.37 -0.316,0.632 0.087,0.262 0.368,0.404 0.632,0.316 l 9,-2.999 C 0.42,0.887 0.561,0.604 0.474,0.342 0.404,0.133 0.21,0 0,0" id="path54" style="fill:#9aaab4;fill-opacity:1;fill-rule:nonzero;stroke:none"/></g><g id="g56" transform="translate(11.0005,13.5)"><path d="m 0,0 c -0.032,0 -0.065,0.003 -0.099,0.01 l -10,2 c -0.27,0.054 -0.446,0.317 -0.392,0.588 0.054,0.271 0.313,0.449 0.589,0.392 l 10,-2 C 0.368,0.936 0.544,0.673 0.49,0.402 0.442,0.164 0.233,0 0,0" id="path58" style="fill:#9aaab4;fill-opacity:1;fill-rule:nonzero;stroke:none"/></g><g id="g60" transform="translate(25.3271,10.3779)"><path d="m 0,0 c -0.152,0.132 -0.369,0.159 -0.551,0.069 l -4,-2 c -1.871,-0.935 -6.727,-0.947 -6.776,-0.947 l -10e-4,0 c -0.276,0 -0.499,-0.224 -0.499,-0.5 0,-0.184 0.1,-0.347 0.25,-0.433 l 0,0 10e-4,0 0,0 0.001,-10e-4 c 0.071,-0.041 0.153,-0.064 0.24,-0.066 l 0.008,0 7,0 c 2.658,0 4.089,2.186 4.474,3.342 C 0.211,-0.344 0.153,-0.133 0,0" id="path62" style="fill:#292f33;fill-opacity:1;fill-rule:nonzero;stroke:none"/></g><g id="g64" transform="translate(21,24)"><path d="m 0,0 c -0.256,0 -0.512,0.098 -0.707,0.293 -0.391,0.391 -0.391,1.023 0,1.414 C 3.537,5.951 7.819,6 8,6 8.553,6 9,5.552 9,5 9,4.449 8.555,4.002 8.005,4 7.939,3.999 4.318,3.904 0.707,0.293 0.512,0.098 0.256,0 0,0" id="path66" style="fill:#292f33;fill-opacity:1;fill-rule:nonzero;stroke:none"/></g><g id="g68" transform="translate(15,24)"><path d="M 0,0 C -0.256,0 -0.512,0.098 -0.707,0.293 -4.333,3.919 -7.969,3.999 -8.005,4 -8.556,4.006 -9,4.455 -8.997,5.005 -8.994,5.556 -8.55,6 -8,6 -7.82,6 -3.537,5.951 0.707,1.707 1.098,1.316 1.098,0.684 0.707,0.293 0.512,0.098 0.256,0 0,0" id="path70" style="fill:#292f33;fill-opacity:1;fill-rule:nonzero;stroke:none"/></g></g></g></g></svg>