<?xml version="1.0" encoding="UTF-8" standalone="no"?><svg xmlns="http://www.w3.org/2000/svg" xmlns:cc="http://creativecommons.org/ns#" xmlns:dc="http://purl.org/dc/elements/1.1/" xmlns:rdf="http://www.w3.org/1999/02/22-rdf-syntax-ns#" xmlns:svg="http://www.w3.org/2000/svg" height="45" id="svg2" style="enable-background:new 0 0 45 45;" version="1.1" viewBox="0 0 45 45" width="45" xml:space="preserve"><metadata id="metadata8"><rdf:RDF><cc:Work rdf:about=""><dc:format>image/svg+xml</dc:format><dc:type rdf:resource="http://purl.org/dc/dcmitype/StillImage"/></cc:Work></rdf:RDF></metadata><defs id="defs6"><clipPath clipPathUnits="userSpaceOnUse" id="clipPath16"><path d="M 0,36 36,36 36,0 0,0 0,36 Z" id="path18"/></clipPath><clipPath clipPathUnits="userSpaceOnUse" id="clipPath28"><path d="M 18,36 C 8.059,36 0,27.941 0,18 l 0,0 C 0,8.059 8.059,0 18,0 l 0,0 c 9.941,0 18,8.059 18,18 l 0,0 c 0,9.941 -8.059,18 -18,18 z" id="path30"/></clipPath></defs><g id="g10" transform="matrix(1.25,0,0,-1.25,0,45)"><g id="g12"><g clip-path="url(#clipPath16)" id="g14"><g id="g20" transform="translate(18,0)"><path d="m 0,0 c -9.941,0 -18,8.059 -18,18 0,9.941 8.059,18 18,18 C 9.941,36 18,27.941 18,18 18,8.059 9.94,0 0,0" id="path22" style="fill:#77b255;fill-opacity:1;fill-rule:nonzero;stroke:none"/></g></g></g><g id="g24"><g clip-path="url(#clipPath28)" id="g26"><g id="g32" transform="translate(34,32)"><path d="m 0,0 c 4.352,0 9,-3.678 9,-14 0,-10.322 -4.648,-14 -9,-14 -4.352,0 -9,3.678 -9,14 0,10.322 4.648,14 9,14" id="path34" style="fill:#a6d388;fill-opacity:1;fill-rule:nonzero;stroke:none"/></g><g id="g36" transform="translate(34,6)"><path d="M 0,0 C 4.318,0 7,4.598 7,12 7,19.402 4.318,24 0,24 -4.318,24 -7,19.402 -7,12 -7,4.598 -4.318,0 0,0 M 0,26 C 4.352,26 9,22.322 9,12 9,1.678 4.352,-2 0,-2 c -4.352,0 -9,3.678 -9,14 0,10.322 4.648,14 9,14" id="path38" style="fill:#ffffff;fill-opacity:1;fill-rule:nonzero;stroke:none"/></g><g id="g40" transform="translate(2,32)"><path d="m 0,0 c 4.351,0 9,-3.678 9,-14 0,-10.322 -4.649,-14 -9,-14 -4.351,0 -9,3.678 -9,14 0,10.322 4.649,14 9,14" id="path42" style="fill:#a6d388;fill-opacity:1;fill-rule:nonzero;stroke:none"/></g><g id="g44" transform="translate(2,6)"><path d="M 0,0 C 4.317,0 7,4.598 7,12 7,19.402 4.317,24 0,24 -4.317,24 -7,19.402 -7,12 -7,4.599 -4.317,0 0,0 M 0,26 C 4.351,26 9,22.322 9,12 9,1.678 4.351,-2 0,-2 c -4.351,0 -9,3.678 -9,14 0,10.322 4.649,14 9,14" id="path46" style="fill:#ffffff;fill-opacity:1;fill-rule:nonzero;stroke:none"/></g></g></g></g></svg>