<?xml version="1.0" encoding="UTF-8" standalone="no"?><svg xmlns="http://www.w3.org/2000/svg" xmlns:cc="http://creativecommons.org/ns#" xmlns:dc="http://purl.org/dc/elements/1.1/" xmlns:rdf="http://www.w3.org/1999/02/22-rdf-syntax-ns#" xmlns:svg="http://www.w3.org/2000/svg" height="45" id="svg2" style="enable-background:new 0 0 45 45;" version="1.1" viewBox="0 0 45 45" width="45" xml:space="preserve"><metadata id="metadata8"><rdf:RDF><cc:Work rdf:about=""><dc:format>image/svg+xml</dc:format><dc:type rdf:resource="http://purl.org/dc/dcmitype/StillImage"/></cc:Work></rdf:RDF></metadata><defs id="defs6"><clipPath clipPathUnits="userSpaceOnUse" id="clipPath16"><path d="M 0,36 36,36 36,0 0,0 0,36 Z" id="path18"/></clipPath></defs><g id="g10" transform="matrix(1.25,0,0,-1.25,0,45)"><g id="g12"><g clip-path="url(#clipPath16)" id="g14"><g id="g20" transform="translate(36,9)"><path d="m 0,0 c 0,-2.209 -1.791,-4 -4,-4 l -28,0 c -2.209,0 -4,1.791 -4,4 l 0,18 c 0,2.209 1.791,4 4,4 l 28,0 c 2.209,0 4,-1.791 4,-4 L 0,0 Z" id="path22" style="fill:#e30917;fill-opacity:1;fill-rule:nonzero;stroke:none"/></g><g id="g24" transform="translate(16,12)"><path d="m 0,0 c -3.314,0 -6,2.686 -6,6 0,3.314 2.686,6 6,6 1.311,0 2.52,-0.425 3.507,-1.138 -1.348,1.524 -3.312,2.491 -5.507,2.491 -4.061,0 -7.353,-3.292 -7.353,-7.353 0,-4.061 3.292,-7.354 7.353,-7.354 2.195,0 4.16,0.967 5.507,2.493 C 2.521,0.425 1.312,0 0,0" id="path26" style="fill:#eeeeee;fill-opacity:1;fill-rule:nonzero;stroke:none"/></g><g id="g28" transform="translate(19.9131,17.77)"><path d="M 0,0 2.439,-0.562 2.66,-3.055 3.948,-0.909 6.388,-1.47 4.744,0.419 6.031,2.565 3.727,1.585 2.084,3.474 2.304,0.98 0,0 Z" id="path30" style="fill:#eeeeee;fill-opacity:1;fill-rule:nonzero;stroke:none"/></g></g></g></g></svg>