<?xml version="1.0" encoding="UTF-8" standalone="no"?><svg xmlns="http://www.w3.org/2000/svg" xmlns:cc="http://creativecommons.org/ns#" xmlns:dc="http://purl.org/dc/elements/1.1/" xmlns:rdf="http://www.w3.org/1999/02/22-rdf-syntax-ns#" xmlns:svg="http://www.w3.org/2000/svg" height="45" id="svg2" style="enable-background:new 0 0 45 45;" version="1.1" viewBox="0 0 45 45" width="45" xml:space="preserve"><metadata id="metadata8"><rdf:RDF><cc:Work rdf:about=""><dc:format>image/svg+xml</dc:format><dc:type rdf:resource="http://purl.org/dc/dcmitype/StillImage"/></cc:Work></rdf:RDF></metadata><defs id="defs6"><clipPath clipPathUnits="userSpaceOnUse" id="clipPath18"><path d="M 0,36 36,36 36,0 0,0 0,36 Z" id="path20"/></clipPath></defs><g id="g10" transform="matrix(1.25,0,0,-1.25,0,45)"><path d="M 0,0 36,0 36,2 0,2 0,0 Z" id="path12" style="fill:#939598;fill-opacity:1;fill-rule:nonzero;stroke:none"/><g id="g14"><g clip-path="url(#clipPath18)" id="g16"><g id="g22" transform="translate(3,1)"><path d="m 0,0 33,0 0,29 -15,0 c -4,0 -5,-2 -5,-2 L 9,21.001 c 0,0 -12,-5 -12,-10 0,-4 6,-6 6,-6 L 0,0 Z" id="path24" style="fill:#d1d3d4;fill-opacity:1;fill-rule:nonzero;stroke:none"/></g><g id="g26" transform="translate(14,1)"><path d="M 0,0 2,3 22,3 22,0 0,0 Z" id="path28" style="fill:#231f20;fill-opacity:1;fill-rule:nonzero;stroke:none"/></g><g id="g30" transform="translate(0,12.001)"><path d="M 0,0 C 0,-4 6,-6 6,-6 L 6,6.874 C 3,4.999 0,2.5 0,0" id="path32" style="fill:#3b88c3;fill-opacity:1;fill-rule:nonzero;stroke:none"/></g><g id="g34" transform="translate(6,6)"><path d="M 0,0 0,0.001 0,0 Z" id="path36" style="fill:#3b88c3;fill-opacity:1;fill-rule:nonzero;stroke:none"/></g><g id="g38" transform="translate(6,6)"><path d="M 0,0 -3,-5 30,-5 30,0 0,0 Z" id="path40" style="fill:#226699;fill-opacity:1;fill-rule:nonzero;stroke:none"/></g><g id="g42" transform="translate(20,6)"><path d="M 0,0 4,6 16,6 16,0 0,0 Z" id="path44" style="fill:#3b88c3;fill-opacity:1;fill-rule:nonzero;stroke:none"/></g><g id="g46" transform="translate(26,28)"><path d="M 0,0 -10.001,0 -14,-5.999 -14.001,-6 -3.158,-6 c 0.476,0 1.108,0.448 1.412,1 l 2.197,4 C 0.754,-0.448 0.553,0 0,0" id="path48" style="fill:#55acee;fill-opacity:1;fill-rule:nonzero;stroke:none"/></g><g id="g50" transform="translate(25.9023,26)"><path d="M 0,0 0.549,1 C 0.852,1.552 0.65,2 0.098,2 L -9.903,2 -11.236,0 0,0 Z" id="path52" style="fill:#3b88c3;fill-opacity:1;fill-rule:nonzero;stroke:none"/></g></g></g></g></svg>