<?xml version="1.0" encoding="UTF-8" standalone="no"?><svg xmlns="http://www.w3.org/2000/svg" xmlns:cc="http://creativecommons.org/ns#" xmlns:dc="http://purl.org/dc/elements/1.1/" xmlns:rdf="http://www.w3.org/1999/02/22-rdf-syntax-ns#" xmlns:svg="http://www.w3.org/2000/svg" height="45" id="svg2" style="enable-background:new 0 0 45 45;" version="1.1" viewBox="0 0 45 45" width="45" xml:space="preserve"><metadata id="metadata8"><rdf:RDF><cc:Work rdf:about=""><dc:format>image/svg+xml</dc:format><dc:type rdf:resource="http://purl.org/dc/dcmitype/StillImage"/></cc:Work></rdf:RDF></metadata><defs id="defs6"><clipPath clipPathUnits="userSpaceOnUse" id="clipPath24"><path d="M 0,36 36,36 36,0 0,0 0,36 Z" id="path26"/></clipPath><clipPath clipPathUnits="userSpaceOnUse" id="clipPath48"><path d="M 30,35 6.999,12 12,7 l 23,23 0,5 -5,0 z" id="path50"/></clipPath><clipPath clipPathUnits="userSpaceOnUse" id="clipPath60"><path d="M 0,36 36,36 36,0 0,0 0,36 Z" id="path62"/></clipPath></defs><g id="g10" transform="matrix(1.25,0,0,-1.25,0,45)"><g id="g12" transform="translate(24,7)"><path d="m 0,0 5,5 -23,23 -5,0 0,-5 L 0,0 Z" id="path14" style="fill:#ccd6dd;fill-opacity:1;fill-rule:nonzero;stroke:none"/></g><g id="g16" transform="translate(0.9999,35.0001)"><path d="m 0,0 0,-5 23,-23 2.5,2.5 L 0,0 Z" id="path18" style="fill:#9aaab4;fill-opacity:1;fill-rule:nonzero;stroke:none"/></g><g id="g20"><g clip-path="url(#clipPath24)" id="g22"><g id="g28" transform="translate(32.1426,1.9717)"><path d="M 0,0 C 0.781,-0.781 1.836,-0.992 2.357,-0.472 2.878,0.049 2.667,1.104 1.886,1.886 L -3.3,8.014 C -4.08,8.795 -5.137,9.006 -5.656,8.485 L -6.6,7.543 C -7.12,7.021 -6.909,5.967 -6.128,5.186 L 0,0 Z" id="path30" style="fill:#642116;fill-opacity:1;fill-rule:nonzero;stroke:none"/></g><g id="g32" transform="translate(22.4785,5.7432)"><path d="m 0,0 c 0.586,-0.586 1.536,-0.586 2.121,0 l 5.658,5.656 c 0.586,0.586 0.585,1.536 0,2.122 -0.586,0.585 -1.536,0.586 -2.122,0 L 0,2.121 C -0.585,1.535 -0.585,0.585 0,0" id="path34" style="fill:#bf6952;fill-opacity:1;fill-rule:nonzero;stroke:none"/></g><g id="g36" transform="translate(31.3184,0.4395)"><path d="m 0,0 c 0.585,-0.586 1.535,-0.586 2.121,0 l 2.121,2.121 c 0.586,0.586 0.586,1.536 0,2.122 -0.586,0.585 -1.535,0.586 -2.121,0 L 0,2.121 C -0.586,1.536 -0.586,0.586 0,0" id="path38" style="fill:#fcab40;fill-opacity:1;fill-rule:nonzero;stroke:none"/></g><g id="g40" transform="translate(11.9995,7)"><path d="m 0,0 -5,5 23.001,23 5,0 0,-5 L 0,0 Z" id="path42" style="fill:#ccd6dd;fill-opacity:1;fill-rule:nonzero;stroke:none"/></g></g></g><g id="g44"><g clip-path="url(#clipPath48)" id="g46"><g id="g52" transform="translate(7.1572,7.1572)"><path d="M 0,0 3.535,-3.536 32.526,25.456 28.991,28.991 0,0 Z" id="path54" style="fill:#9aaab4;fill-opacity:1;fill-rule:nonzero;stroke:none"/></g></g></g><g id="g56"><g clip-path="url(#clipPath60)" id="g58"><g id="g64" transform="translate(3.8574,1.9717)"><path d="m 0,0 c -0.781,-0.781 -1.836,-0.992 -2.357,-0.472 -0.521,0.521 -0.31,1.576 0.471,2.358 L 3.3,8.014 C 4.081,8.795 5.136,9.006 5.657,8.485 L 6.599,7.543 C 7.12,7.021 6.909,5.967 6.128,5.186 L 0,0 Z" id="path66" style="fill:#642116;fill-opacity:1;fill-rule:nonzero;stroke:none"/></g><g id="g68" transform="translate(13.521,5.7432)"><path d="m 0,0 c -0.585,-0.586 -1.536,-0.586 -2.121,0 l -5.657,5.656 c -0.586,0.586 -0.586,1.536 0,2.122 0.586,0.585 1.535,0.586 2.121,0 L 0,2.121 C 0.585,1.535 0.585,0.585 0,0" id="path70" style="fill:#bf6952;fill-opacity:1;fill-rule:nonzero;stroke:none"/></g><g id="g72" transform="translate(4.6821,0.4395)"><path d="m 0,0 c -0.585,-0.586 -1.536,-0.586 -2.121,0 l -2.122,2.121 c -0.586,0.586 -0.585,1.536 0,2.122 0.586,0.585 1.536,0.586 2.122,0 L 0,2.121 C 0.585,1.536 0.585,0.586 0,0" id="path74" style="fill:#fcab40;fill-opacity:1;fill-rule:nonzero;stroke:none"/></g></g></g></g></svg>