<?xml version="1.0" encoding="UTF-8" standalone="no"?><svg xmlns="http://www.w3.org/2000/svg" xmlns:cc="http://creativecommons.org/ns#" xmlns:dc="http://purl.org/dc/elements/1.1/" xmlns:rdf="http://www.w3.org/1999/02/22-rdf-syntax-ns#" xmlns:svg="http://www.w3.org/2000/svg" height="45" id="svg2" style="enable-background:new 0 0 45 45;" version="1.1" viewBox="0 0 45 45" width="45" xml:space="preserve"><metadata id="metadata8"><rdf:RDF><cc:Work rdf:about=""><dc:format>image/svg+xml</dc:format><dc:type rdf:resource="http://purl.org/dc/dcmitype/StillImage"/></cc:Work></rdf:RDF></metadata><defs id="defs6"><clipPath clipPathUnits="userSpaceOnUse" id="clipPath16"><path d="M 0,36 36,36 36,0 0,0 0,36 Z" id="path18"/></clipPath></defs><g id="g10" transform="matrix(1.25,0,0,-1.25,0,45)"><g id="g12"><g clip-path="url(#clipPath16)" id="g14"><g id="g20" transform="translate(4,5)"><path d="m 0,0 28,0 c 2.209,0 4,1.791 4,4 L 32,19.75 -0.785,0.079 C -0.531,0.029 -0.269,0 0,0" id="path22" style="fill:#007fff;fill-opacity:1;fill-rule:nonzero;stroke:none"/></g><g id="g24" transform="translate(9.63,19.98)"><path d="M 0,0 -3.06,2.34 -6.12,0 l 1.17,3.78 -3.06,2.34 3.78,0 1.17,3.78 1.17,-3.78 3.78,0 L -1.17,3.78 0,0 Z m 22.37,11.02 -28,0 c -2.209,0 -4,-1.791 -4,-4 l 0,-15.75 32.785,19.671 c -0.254,0.05 -0.516,0.079 -0.785,0.079" id="path26" style="fill:#007fff;fill-opacity:1;fill-rule:nonzero;stroke:none"/></g><g id="g28" transform="translate(7.74,26.1)"><path d="M 0,0 -1.17,3.78 -2.34,0 -6.12,0 -3.06,-2.34 -4.23,-6.12 -1.17,-3.78 1.89,-6.12 0.72,-2.34 3.78,0 0,0 Z" id="path30" style="fill:#f7d618;fill-opacity:1;fill-rule:nonzero;stroke:none"/></g><g id="g32" transform="translate(3.2153,5.0792)"><path d="m 0,0 32.785,19.671 0,1.35 L -1.342,0.545 C -0.937,0.289 -0.487,0.097 0,0" id="path34" style="fill:#f7d618;fill-opacity:1;fill-rule:nonzero;stroke:none"/></g><g id="g36" transform="translate(32.7847,30.9208)"><path d="m 0,0 -32.785,-19.671 0,-1.35 34.127,20.476 C 0.937,-0.289 0.487,-0.097 0,0" id="path38" style="fill:#f7d618;fill-opacity:1;fill-rule:nonzero;stroke:none"/></g><g id="g40" transform="translate(34.127,30.3762)"><path d="m 0,0 -34.127,-20.476 0,-0.9 c 0,-1.425 0.751,-2.668 1.873,-3.376 l 34.127,20.476 0,0.9 C 1.873,-1.951 1.122,-0.708 0,0" id="path42" style="fill:#ce1021;fill-opacity:1;fill-rule:nonzero;stroke:none"/></g></g></g></g></svg>