<?xml version="1.0" encoding="UTF-8" standalone="no"?><svg xmlns="http://www.w3.org/2000/svg" xmlns:cc="http://creativecommons.org/ns#" xmlns:dc="http://purl.org/dc/elements/1.1/" xmlns:rdf="http://www.w3.org/1999/02/22-rdf-syntax-ns#" xmlns:svg="http://www.w3.org/2000/svg" height="45" id="svg2" style="enable-background:new 0 0 45 45;" version="1.1" viewBox="0 0 45 45" width="45" xml:space="preserve"><metadata id="metadata8"><rdf:RDF><cc:Work rdf:about=""><dc:format>image/svg+xml</dc:format><dc:type rdf:resource="http://purl.org/dc/dcmitype/StillImage"/></cc:Work></rdf:RDF></metadata><defs id="defs6"><clipPath clipPathUnits="userSpaceOnUse" id="clipPath16"><path d="M 0,36 36,36 36,0 0,0 0,36 Z" id="path18"/></clipPath></defs><g id="g10" transform="matrix(1.25,0,0,-1.25,0,45)"><g id="g12"><g clip-path="url(#clipPath16)" id="g14"><g id="g20" transform="translate(16.522,35.7676)"><path d="m 0,0 c 2.246,0 4.831,-1.375 6.703,-3.249 1.873,-1.874 3.775,-3.927 3.775,-5.998 l 0,-17.204 -15.974,-0.031 0,17.133 C -5.589,-7.844 -4.421,0 0,0" id="path22" style="fill:#ea596e;fill-opacity:1;fill-rule:nonzero;stroke:none"/></g><g id="g24" transform="translate(19,24.6221)"><path d="m 0,0 0,-16.622 c 0,-1.105 0.896,0 2,0 l 0,-2 c 1.105,0 2,0.895 2,2 L 4,-0.956 C 2.742,-0.851 1.35,-0.693 0,0" id="path26" style="fill:#dd2e44;fill-opacity:1;fill-rule:nonzero;stroke:none"/></g><g id="g28" transform="translate(22.0723,32.5454)"><path d="m 0,0 c 2.664,-2.391 4.277,-5.236 2.961,-6.699 -1.315,-1.464 -5.06,-0.991 -7.721,1.4 -2.661,2.39 -3.753,5.515 -2.439,6.978 C -5.883,3.143 -2.661,2.391 0,0" id="path30" style="fill:#f4abba;fill-opacity:1;fill-rule:nonzero;stroke:none"/></g><g id="g32" transform="translate(30,2)"><path d="m 0,0 c 0,-1.105 -0.895,-2 -2,-2 l -18,0 c -1.104,0 -2,0.895 -2,2 l 0,6 c 0,1.105 0.896,2 2,2 L -2,8 C -0.895,8 0,7.105 0,6 L 0,0 Z" id="path34" style="fill:#ffcc4d;fill-opacity:1;fill-rule:nonzero;stroke:none"/></g><g id="g36" transform="translate(31,2)"><path d="m 0,0 c 0,-1.105 -0.895,-2 -2,-2 l -20,0 c -1.104,0 -2,0.895 -2,2 l 0,1 c 0,1.105 0.896,2 2,2 L -2,3 C -0.895,3 0,2.105 0,1 L 0,0 Z" id="path38" style="fill:#ffac33;fill-opacity:1;fill-rule:nonzero;stroke:none"/></g></g></g></g></svg>