<?xml version="1.0" encoding="UTF-8" standalone="no"?><svg xmlns="http://www.w3.org/2000/svg" xmlns:cc="http://creativecommons.org/ns#" xmlns:dc="http://purl.org/dc/elements/1.1/" xmlns:rdf="http://www.w3.org/1999/02/22-rdf-syntax-ns#" xmlns:svg="http://www.w3.org/2000/svg" height="45" id="svg2" style="enable-background:new 0 0 45 45;" version="1.1" viewBox="0 0 45 45" width="45" xml:space="preserve"><metadata id="metadata8"><rdf:RDF><cc:Work rdf:about=""><dc:format>image/svg+xml</dc:format><dc:type rdf:resource="http://purl.org/dc/dcmitype/StillImage"/></cc:Work></rdf:RDF></metadata><defs id="defs6"><clipPath clipPathUnits="userSpaceOnUse" id="clipPath16"><path d="M 0,36 36,36 36,0 0,0 0,36 Z" id="path18"/></clipPath></defs><g id="g10" transform="matrix(1.25,0,0,-1.25,0,45)"><g id="g12"><g clip-path="url(#clipPath16)" id="g14"><g id="g20" transform="translate(7.3169,25)"><path d="m 0,0 c -5.723,-9.083 0.958,-18 0.958,-18 0,0 2.875,0.442 6.875,5.2 C 11.834,-8.042 0,0 0,0" id="path22" style="fill:#662113;fill-opacity:1;fill-rule:nonzero;stroke:none"/></g><g id="g24" transform="translate(28.6592,25)"><path d="m 0,0 c 5.723,-9.083 -0.958,-18 -0.958,-18 0,0 -2.874,0.442 -6.875,5.2 C -11.834,-8.042 0,0 0,0" id="path26" style="fill:#662113;fill-opacity:1;fill-rule:nonzero;stroke:none"/></g><g id="g28" transform="translate(15.2026,4.4434)"><path d="m 0,0 c -0.123,0.229 -0.317,0.384 -0.531,0.496 -2.032,2.172 -0.589,4.717 -0.589,4.717 0,0.703 1.272,2.544 0,2.544 L -2.392,6.484 C -3.664,5.213 -3.664,1.396 -3.664,1.396 l -2.544,0 c -0.703,0 -1.272,-0.569 -1.272,-1.273 0,-0.701 0.569,-1.27 1.272,-1.27 l 1.408,0 -0.282,-0.154 C -5.7,-1.635 -5.929,-2.406 -5.596,-3.026 -5.261,-3.643 -4.49,-3.874 -3.872,-3.54 l 3.358,1.816 C 0.104,-1.391 0.332,-0.619 0,0" id="path30" style="fill:#ffac33;fill-opacity:1;fill-rule:nonzero;stroke:none"/></g><g id="g32" transform="translate(20.7988,4.4434)"><path d="m 0,0 c 0.123,0.229 0.317,0.384 0.53,0.496 2.034,2.172 0.589,4.717 0.589,4.717 0,0.703 -1.271,2.544 0,2.544 L 2.392,6.484 C 3.664,5.213 3.664,1.396 3.664,1.396 l 2.544,0 c 0.704,0 1.271,-0.569 1.271,-1.273 0,-0.701 -0.567,-1.27 -1.271,-1.27 l -1.408,0 0.281,-0.154 C 5.701,-1.635 5.929,-2.406 5.596,-3.026 5.26,-3.643 4.49,-3.874 3.87,-3.54 L 0.514,-1.724 C -0.104,-1.391 -0.333,-0.619 0,0" id="path34" style="fill:#ffac33;fill-opacity:1;fill-rule:nonzero;stroke:none"/></g><g id="g36" transform="translate(28.2783,24.7085)"><path d="m 0,0 c 2.891,6.092 0,10.542 0,10.542 0,0 -5.781,-0.959 -6.744,-2.875 C -7.963,5.242 0,0 0,0" id="path38" style="fill:#662113;fill-opacity:1;fill-rule:nonzero;stroke:none"/></g><g id="g40" transform="translate(29.5625,23.2622)"><path d="m 0,0 c 0,-10.297 -3.152,-20.595 -11.563,-20.595 -8.409,0 -11.562,10.298 -11.562,20.595 0,10.298 5.177,10.654 11.562,10.654 C -5.176,10.654 0,10.298 0,0" id="path42" style="fill:#662113;fill-opacity:1;fill-rule:nonzero;stroke:none"/></g><g id="g44" transform="translate(27.666,18.2617)"><path d="m 0,0 c 0,-10.297 -7.774,-14.595 -9.666,-14.595 -1.892,0 -9.666,4.298 -9.666,14.595 C -19.332,10.298 0,10.298 0,0" id="path46" style="fill:#c1694f;fill-opacity:1;fill-rule:nonzero;stroke:none"/></g><g id="g48" transform="translate(7.7217,24.7085)"><path d="m 0,0 c -2.891,6.092 0,10.542 0,10.542 0,0 5.782,-0.959 6.746,-2.875 C 7.964,5.242 0,0 0,0" id="path50" style="fill:#662113;fill-opacity:1;fill-rule:nonzero;stroke:none"/></g><g id="g52" transform="translate(14.9287,31.6265)"><path d="m 0,0 c -4.227,1.584 -7.207,3.624 -7.207,3.624 0,0 -2.076,-3.221 -0.927,-7.926 0.446,-2.137 1.94,-4.196 3.904,-4.662 2.636,-0.627 7.301,0.049 7.301,3.963 C 3.071,-2.306 1.997,-0.749 0,0" id="path54" style="fill:#c1694f;fill-opacity:1;fill-rule:nonzero;stroke:none"/></g><g id="g56" transform="translate(21.0713,31.6265)"><path d="m 0,0 c 4.227,1.584 7.206,3.624 7.206,3.624 0,0 2.076,-3.221 0.928,-7.926 -0.446,-2.137 -1.94,-4.196 -3.903,-4.662 -2.637,-0.627 -7.302,0.049 -7.302,3.963 0,2.695 1.074,4.252 3.071,5.001" id="path58" style="fill:#c1694f;fill-opacity:1;fill-rule:nonzero;stroke:none"/></g><g id="g60" transform="translate(16.0835,27.5835)"><path d="m 0,0 c 0,-2.117 -1.716,-3.833 -3.833,-3.833 -2.117,0 -3.834,1.716 -3.834,3.833 0,2.117 1.717,3.833 3.834,3.833 C -1.716,3.833 0,2.117 0,0" id="path62" style="fill:#ffd983;fill-opacity:1;fill-rule:nonzero;stroke:none"/></g><g id="g64" transform="translate(27.583,27.5835)"><path d="m 0,0 c 0,-2.117 -1.716,-3.833 -3.833,-3.833 -2.117,0 -3.833,1.716 -3.833,3.833 0,2.117 1.716,3.833 3.833,3.833 C -1.716,3.833 0,2.117 0,0" id="path66" style="fill:#ffd983;fill-opacity:1;fill-rule:nonzero;stroke:none"/></g><g id="g68" transform="translate(14.1665,27.5835)"><path d="m 0,0 c 0,-1.059 -0.858,-1.917 -1.917,-1.917 -1.058,0 -1.916,0.858 -1.916,1.917 0,1.058 0.858,1.917 1.916,1.917 C -0.858,1.917 0,1.058 0,0" id="path70" style="fill:#292f33;fill-opacity:1;fill-rule:nonzero;stroke:none"/></g><g id="g72" transform="translate(25.667,27.5835)"><path d="m 0,0 c 0,-1.059 -0.858,-1.917 -1.917,-1.917 -1.059,0 -1.917,0.858 -1.917,1.917 0,1.058 0.858,1.917 1.917,1.917 C -0.858,1.917 0,1.058 0,0" id="path74" style="fill:#292f33;fill-opacity:1;fill-rule:nonzero;stroke:none"/></g><g id="g76" transform="translate(20.875,23.271)"><path d="m 0,0 c 0,-2.382 -2.875,-3.354 -2.875,-3.354 0,0 -2.875,0.972 -2.875,3.354 0,2.382 2.875,3.354 2.875,3.354 C -2.875,3.354 0,2.382 0,0" id="path78" style="fill:#ffcc4d;fill-opacity:1;fill-rule:nonzero;stroke:none"/></g><g id="g80" transform="translate(20.875,23.271)"><path d="m 0,0 c 0,-2.382 -2.875,-3.354 -2.875,-3.354 0,0 -2.875,0.972 -2.875,3.354 1.198,-1.198 2.875,-1.437 2.875,-1.437 0,0 1.677,0.239 2.875,1.437" id="path82" style="fill:#f4900c;fill-opacity:1;fill-rule:nonzero;stroke:none"/></g></g></g></g></svg>