<?xml version="1.0" encoding="UTF-8" standalone="no"?><svg xmlns="http://www.w3.org/2000/svg" xmlns:cc="http://creativecommons.org/ns#" xmlns:dc="http://purl.org/dc/elements/1.1/" xmlns:rdf="http://www.w3.org/1999/02/22-rdf-syntax-ns#" xmlns:svg="http://www.w3.org/2000/svg" height="45" id="svg2" style="enable-background:new 0 0 45 45;" version="1.1" viewBox="0 0 45 45" width="45" xml:space="preserve"><metadata id="metadata8"><rdf:RDF><cc:Work rdf:about=""><dc:format>image/svg+xml</dc:format><dc:type rdf:resource="http://purl.org/dc/dcmitype/StillImage"/></cc:Work></rdf:RDF></metadata><defs id="defs6"><clipPath clipPathUnits="userSpaceOnUse" id="clipPath16"><path d="M 0,36 36,36 36,0 0,0 0,36 Z" id="path18"/></clipPath></defs><g id="g10" transform="matrix(1.25,0,0,-1.25,0,45)"><g id="g12"><g clip-path="url(#clipPath16)" id="g14"><g id="g20" transform="translate(24,29.0005)"><path d="m 0,0 c -3,0 -3,-1 -6,-1 -3.001,0 -3,1 -6,1 -4,0 -9,-2 -9,-9 0,-11 6,-20 10,-20 2.999,0 3,1 5,1 2,0 2,-1 5,-1 4,0 10,9 10,20 0,7 -5,9 -9,9" id="path22" style="fill:#77b255;fill-opacity:1;fill-rule:nonzero;stroke:none"/></g><g id="g24" transform="translate(17.311,28.1196)"><path d="m 0,0 c 0,0 -1.775,4.674 -6.58,6.06 -3.843,1.108 -6.318,-0.26 -6.318,-0.26 0,0 3.012,-3.99 5.895,-4.821 C -4.121,0.148 0,0 0,0" id="path26" style="fill:#3e721d;fill-opacity:1;fill-rule:nonzero;stroke:none"/></g><g id="g28" transform="translate(17.9995,26.0005)"><path d="m 0,0 c -0.552,0 -1,0.448 -1,1 0,3.441 1.2,6.615 3.294,8.707 0.39,0.391 1.023,0.391 1.414,0 0.39,-0.391 0.39,-1.024 0,-1.414 C 1.987,6.573 1,3.915 1,1 1,0.448 0.552,0 0,0" id="path30" style="fill:#662113;fill-opacity:1;fill-rule:nonzero;stroke:none"/></g></g></g></g></svg>