<?xml version="1.0" encoding="UTF-8" standalone="no"?><svg xmlns="http://www.w3.org/2000/svg" xmlns:cc="http://creativecommons.org/ns#" xmlns:dc="http://purl.org/dc/elements/1.1/" xmlns:rdf="http://www.w3.org/1999/02/22-rdf-syntax-ns#" xmlns:svg="http://www.w3.org/2000/svg" height="45" id="svg2" style="enable-background:new 0 0 45 45;" version="1.1" viewBox="0 0 45 45" width="45" xml:space="preserve"><metadata id="metadata8"><rdf:RDF><cc:Work rdf:about=""><dc:format>image/svg+xml</dc:format><dc:type rdf:resource="http://purl.org/dc/dcmitype/StillImage"/></cc:Work></rdf:RDF></metadata><defs id="defs6"><clipPath clipPathUnits="userSpaceOnUse" id="clipPath16"><path d="M 0,36 36,36 36,0 0,0 0,36 Z" id="path18"/></clipPath></defs><g id="g10" transform="matrix(1.25,0,0,-1.25,0,45)"><g id="g12"><g clip-path="url(#clipPath16)" id="g14"><g id="g20" transform="translate(34.209,35.7935)"><path d="m 0,0 -22.418,-2.587 c -0.985,-0.114 -1.791,-1.018 -1.791,-2.009 l 0,-0.198 0,-4.197 0,-14.388 c -0.91,0.372 -1.925,0.585 -3,0.585 -3.865,0 -7,-2.685 -7,-6 0,-3.314 3.135,-6 7,-6 3.865,0 7,2.686 7,6 l 0,18.462 18,2.077 0,-13.124 c -0.91,0.372 -1.925,0.585 -3,0.585 -3.865,0 -7,-2.685 -7,-6 0,-3.314 3.135,-6 7,-6 3.865,0 7,2.686 7,6 l 0,20.803 0,4.395 C 1.791,-0.605 0.985,0.114 0,0" id="path22" style="fill:#5dadec;fill-opacity:1;fill-rule:nonzero;stroke:none"/></g></g></g></g></svg>