<?xml version="1.0" encoding="UTF-8" standalone="no"?><svg xmlns="http://www.w3.org/2000/svg" xmlns:cc="http://creativecommons.org/ns#" xmlns:dc="http://purl.org/dc/elements/1.1/" xmlns:rdf="http://www.w3.org/1999/02/22-rdf-syntax-ns#" xmlns:svg="http://www.w3.org/2000/svg" height="45" id="svg2" style="enable-background:new 0 0 45 45;" version="1.1" viewBox="0 0 45 45" width="45" xml:space="preserve"><metadata id="metadata8"><rdf:RDF><cc:Work rdf:about=""><dc:format>image/svg+xml</dc:format><dc:type rdf:resource="http://purl.org/dc/dcmitype/StillImage"/></cc:Work></rdf:RDF></metadata><defs id="defs6"><clipPath clipPathUnits="userSpaceOnUse" id="clipPath16"><path d="M 0,36 36,36 36,0 0,0 0,36 Z" id="path18"/></clipPath></defs><g id="g10" transform="matrix(1.25,0,0,-1.25,0,45)"><g id="g12"><g clip-path="url(#clipPath16)" id="g14"><g id="g20" transform="translate(36,4)"><path d="m 0,0 c 0,-2.209 -1.791,-4 -4,-4 l -28,0 c -2.209,0 -4,1.791 -4,4 l 0,28 c 0,2.209 1.791,4 4,4 l 28,0 c 2.209,0 4,-1.791 4,-4 L 0,0 Z" id="path22" style="fill:#553788;fill-opacity:1;fill-rule:nonzero;stroke:none"/></g><g id="g24" transform="translate(32,36)"><path d="m 0,0 -12.756,0 c -4.687,-1.656 0.803,-8.995 -3.502,-8.469 -7.159,0.875 -7.679,-6.086 -10.742,-4.969 -1.192,0.436 -3.257,2.491 -5,0.991 L -32,-32 c 0,-2.209 1.791,-4 4,-4 l 1.624,0 c 1.469,1.279 0.927,5.622 1.709,6.75 2.834,4.084 3.695,7.482 7.901,7.189 7.125,-0.5 8.453,4.852 10.705,7.186 C -3.813,-12.541 0,-16.417 4,-14.667 L 4,-4 C 4,-1.791 2.209,0 0,0" id="path26" style="fill:#744eaa;fill-opacity:1;fill-rule:nonzero;stroke:none"/></g><g id="g28" transform="translate(36,4)"><path d="M 0,0 0,2.966 C -0.77,3.806 -1.917,4.75 -2.583,4.666 -3.859,4.505 -4.625,3.5 -5.5,2.813 -6.375,2.125 -8.479,2.541 -10.167,3.666 -11.854,4.791 -14.165,3.772 -15.294,3.2 -17.167,2.25 -17.792,5.083 -19.667,6.333 -21.542,7.583 -24.375,3.5 -25.5,2.75 -26.625,2 -27.963,3.93 -28.775,4.492 -29.588,5.055 -30.667,4.979 -32.167,3.666 -33.454,2.54 -33.962,2.771 -36,2.121 L -36,0 c 0,-2.209 1.791,-4 4,-4 l 28,0 c 2.209,0 4,1.791 4,4" id="path30" style="fill:#292f33;fill-opacity:1;fill-rule:nonzero;stroke:none"/></g><g id="g32" transform="translate(7.3335,20.333)"><path d="m 0,0 c 0,-0.644 -0.522,-1.167 -1.167,-1.167 -0.644,0 -1.166,0.523 -1.166,1.167 0,0.645 0.522,1.167 1.166,1.167 C -0.522,1.167 0,0.645 0,0" id="path34" style="fill:#aa8dd8;fill-opacity:1;fill-rule:nonzero;stroke:none"/></g><g id="g36" transform="translate(15.9375,24.9688)"><path d="m 0,0 c 0,-0.604 -0.49,-1.094 -1.094,-1.094 -0.604,0 -1.094,0.49 -1.094,1.094 0,0.604 0.49,1.094 1.094,1.094 C -0.49,1.094 0,0.604 0,0" id="path38" style="fill:#aa8dd8;fill-opacity:1;fill-rule:nonzero;stroke:none"/></g><g id="g40" transform="translate(23.3125,30.6875)"><path d="m 0,0 c 0,-0.725 -0.588,-1.312 -1.311,-1.312 -0.726,0 -1.314,0.587 -1.314,1.312 0,0.725 0.588,1.312 1.314,1.312 C -0.588,1.312 0,0.725 0,0" id="path42" style="fill:#aa8dd8;fill-opacity:1;fill-rule:nonzero;stroke:none"/></g><g id="g44" transform="translate(25.1875,27.2813)"><path d="m 0,0 c 0,-0.432 -0.35,-0.781 -0.781,-0.781 -0.432,0 -0.78,0.349 -0.78,0.781 0,0.432 0.348,0.781 0.78,0.781 C -0.35,0.781 0,0.432 0,0" id="path46" style="fill:#aa8dd8;fill-opacity:1;fill-rule:nonzero;stroke:none"/></g><g id="g48" transform="translate(19.75,16.25)"><path d="m 0,0 c 0,-0.553 -0.447,-1 -1,-1 -0.553,0 -1,0.447 -1,1 0,0.553 0.447,1 1,1 0.553,0 1,-0.447 1,-1" id="path50" style="fill:#aa8dd8;fill-opacity:1;fill-rule:nonzero;stroke:none"/></g><g id="g52" transform="translate(31.9375,15.5781)"><path d="m 0,0 c 0,-0.518 -0.42,-0.936 -0.936,-0.936 -0.519,0 -0.939,0.418 -0.939,0.936 0,0.518 0.42,0.937 0.939,0.937 C -0.42,0.937 0,0.518 0,0" id="path54" style="fill:#aa8dd8;fill-opacity:1;fill-rule:nonzero;stroke:none"/></g><g id="g56" transform="translate(32.6875,25.0938)"><path d="m 0,0 c 0,-0.639 -0.518,-1.156 -1.156,-1.156 -0.639,0 -1.157,0.517 -1.157,1.156 0,0.639 0.518,1.156 1.157,1.156 C -0.518,1.156 0,0.639 0,0" id="path58" style="fill:#aa8dd8;fill-opacity:1;fill-rule:nonzero;stroke:none"/></g><g id="g60" transform="translate(22.2813,12.2725)"><path d="m 0,0 c 0,-0.362 -0.293,-0.656 -0.655,-0.656 -0.364,0 -0.657,0.294 -0.657,0.656 0,0.362 0.293,0.656 0.657,0.656 C -0.293,0.656 0,0.362 0,0" id="path62" style="fill:#cbb7ea;fill-opacity:1;fill-rule:nonzero;stroke:none"/></g><g id="g64" transform="translate(12.5625,33.4375)"><path d="m 0,0 c 0,-0.449 -0.364,-0.812 -0.812,-0.812 -0.449,0 -0.813,0.363 -0.813,0.812 0,0.449 0.364,0.812 0.813,0.812 C -0.364,0.812 0,0.449 0,0" id="path66" style="fill:#cbb7ea;fill-opacity:1;fill-rule:nonzero;stroke:none"/></g><g id="g68" transform="translate(5.606,30.062)"><path d="m 0,0 c 0,-0.371 -0.301,-0.672 -0.672,-0.672 -0.371,0 -0.672,0.301 -0.672,0.672 0,0.371 0.301,0.672 0.672,0.672 C -0.301,0.672 0,0.371 0,0" id="path70" style="fill:#cbb7ea;fill-opacity:1;fill-rule:nonzero;stroke:none"/></g><g id="g72" transform="translate(28.7188,9.9922)"><path d="m 0,0 c 0,-0.449 -0.363,-0.812 -0.812,-0.812 -0.45,0 -0.813,0.363 -0.813,0.812 0,0.449 0.363,0.811 0.813,0.811 C -0.363,0.811 0,0.449 0,0" id="path74" style="fill:#cbb7ea;fill-opacity:1;fill-rule:nonzero;stroke:none"/></g><g id="g76" transform="translate(6.8682,10.5029)"><path d="m 0,0 c 0,-0.516 -0.418,-0.934 -0.934,-0.934 -0.516,0 -0.934,0.418 -0.934,0.934 0,0.517 0.418,0.935 0.934,0.935 C -0.418,0.935 0,0.517 0,0" id="path78" style="fill:#cbb7ea;fill-opacity:1;fill-rule:nonzero;stroke:none"/></g><g id="g80" transform="translate(11,17.2188)"><path d="m 0,0 c 0,-0.812 -0.658,-1.469 -1.469,-1.469 -0.811,0 -1.469,0.657 -1.469,1.469 0,0.811 0.658,1.469 1.469,1.469 C -0.658,1.469 0,0.811 0,0" id="path82" style="fill:#cbb7ea;fill-opacity:1;fill-rule:nonzero;stroke:none"/></g><g id="g84" transform="translate(20.3506,21.1997)"><path d="m 0,0 c 0,-0.925 -0.75,-1.675 -1.676,-1.675 -0.925,0 -1.675,0.75 -1.675,1.675 0,0.925 0.75,1.675 1.675,1.675 C -0.75,1.675 0,0.925 0,0" id="path86" style="fill:#cbb7ea;fill-opacity:1;fill-rule:nonzero;stroke:none"/></g><g id="g88" transform="translate(28.6875,31.5313)"><path d="m 0,0 c 0,-0.397 -0.322,-0.719 -0.719,-0.719 -0.397,0 -0.718,0.322 -0.718,0.719 0,0.397 0.321,0.719 0.718,0.719 C -0.322,0.719 0,0.397 0,0" id="path90" style="fill:#cbb7ea;fill-opacity:1;fill-rule:nonzero;stroke:none"/></g><g id="g92" transform="translate(34.3125,33)"><path d="m 0,0 c 0,-0.552 -0.447,-1 -1,-1 -0.553,0 -1,0.448 -1,1 0,0.552 0.447,1 1,1 0.553,0 1,-0.448 1,-1" id="path94" style="fill:#cbb7ea;fill-opacity:1;fill-rule:nonzero;stroke:none"/></g><g id="g96" transform="translate(11.3335,28.438)"><path d="m 0,0 c 0,-0.495 -0.401,-0.896 -0.896,-0.896 -0.495,0 -0.896,0.401 -0.896,0.896 0,0.495 0.401,0.896 0.896,0.896 C -0.401,0.896 0,0.495 0,0" id="path98" style="fill:#f5f8fa;fill-opacity:1;fill-rule:nonzero;stroke:none"/></g><g id="g100" transform="translate(34.3125,20.3438)"><path d="m 0,0 c 0,-0.432 -0.35,-0.781 -0.781,-0.781 -0.432,0 -0.78,0.349 -0.78,0.781 0,0.432 0.348,0.781 0.78,0.781 C -0.35,0.781 0,0.432 0,0" id="path102" style="fill:#f5f8fa;fill-opacity:1;fill-rule:nonzero;stroke:none"/></g><g id="g104" transform="translate(25.6875,22.4688)"><path d="m 0,0 c 0,-0.38 -0.308,-0.687 -0.686,-0.687 -0.381,0 -0.689,0.307 -0.689,0.687 0,0.38 0.308,0.687 0.689,0.687 C -0.308,0.687 0,0.38 0,0" id="path106" style="fill:#f5f8fa;fill-opacity:1;fill-rule:nonzero;stroke:none"/></g><g id="g108" transform="translate(12.5313,21.2813)"><path d="m 0,0 c 0,-0.328 -0.266,-0.594 -0.594,-0.594 -0.328,0 -0.593,0.266 -0.593,0.594 0,0.328 0.265,0.594 0.593,0.594 C -0.266,0.594 0,0.328 0,0" id="path110" style="fill:#f5f8fa;fill-opacity:1;fill-rule:nonzero;stroke:none"/></g><g id="g112" transform="translate(22.75,24.7603)"><path d="m 0,0 c 0,-0.639 -0.518,-1.156 -1.156,-1.156 -0.639,0 -1.157,0.517 -1.157,1.156 0,0.639 0.518,1.156 1.157,1.156 C -0.518,1.156 0,0.639 0,0" id="path114" style="fill:#f5f8fa;fill-opacity:1;fill-rule:nonzero;stroke:none"/></g><g id="g116" transform="translate(28.875,27.8438)"><path d="m 0,0 c 0,-0.535 -0.434,-0.969 -0.969,-0.969 -0.535,0 -0.967,0.434 -0.967,0.969 0,0.535 0.432,0.969 0.967,0.969 C -0.434,0.969 0,0.535 0,0" id="path118" style="fill:#f5f8fa;fill-opacity:1;fill-rule:nonzero;stroke:none"/></g><g id="g120" transform="translate(16.2344,17.9141)"><path d="m 0,0 c 0,-0.738 -0.598,-1.336 -1.336,-1.336 -0.738,0 -1.336,0.598 -1.336,1.336 0,0.738 0.598,1.336 1.336,1.336 C -0.598,1.336 0,0.738 0,0" id="path122" style="fill:#f5f8fa;fill-opacity:1;fill-rule:nonzero;stroke:none"/></g><g id="g124" transform="translate(2.6328,11.8711)"><path d="m 0,0 c 0,-0.485 -0.394,-0.879 -0.879,-0.879 -0.485,0 -0.879,0.394 -0.879,0.879 0,0.485 0.394,0.879 0.879,0.879 C -0.394,0.879 0,0.485 0,0" id="path126" style="fill:#f5f8fa;fill-opacity:1;fill-rule:nonzero;stroke:none"/></g><g id="g128" transform="translate(6,14.9209)"><path d="m 0,0 c 0,-0.358 -0.291,-0.648 -0.648,-0.648 -0.358,0 -0.649,0.29 -0.649,0.648 0,0.358 0.291,0.648 0.649,0.648 C -0.291,0.648 0,0.358 0,0" id="path130" style="fill:#f5f8fa;fill-opacity:1;fill-rule:nonzero;stroke:none"/></g><g id="g132" transform="translate(32.1563,30.25)"><path d="m 0,0 c 0,-0.449 -0.363,-0.812 -0.812,-0.812 -0.45,0 -0.813,0.363 -0.813,0.812 0,0.449 0.363,0.812 0.813,0.812 C -0.363,0.812 0,0.449 0,0" id="path134" style="fill:#f5f8fa;fill-opacity:1;fill-rule:nonzero;stroke:none"/></g></g></g></g></svg>