<?xml version="1.0" encoding="UTF-8" standalone="no"?><svg xmlns="http://www.w3.org/2000/svg" xmlns:cc="http://creativecommons.org/ns#" xmlns:dc="http://purl.org/dc/elements/1.1/" xmlns:rdf="http://www.w3.org/1999/02/22-rdf-syntax-ns#" xmlns:svg="http://www.w3.org/2000/svg" height="45" id="svg2" style="enable-background:new 0 0 45 45;" version="1.1" viewBox="0 0 45 45" width="45" xml:space="preserve"><metadata id="metadata8"><rdf:RDF><cc:Work rdf:about=""><dc:format>image/svg+xml</dc:format><dc:type rdf:resource="http://purl.org/dc/dcmitype/StillImage"/></cc:Work></rdf:RDF></metadata><defs id="defs6"><clipPath clipPathUnits="userSpaceOnUse" id="clipPath16"><path d="M 0,36 36,36 36,0 0,0 0,36 Z" id="path18"/></clipPath></defs><g id="g10" transform="matrix(1.25,0,0,-1.25,0,45)"><g id="g12"><g clip-path="url(#clipPath16)" id="g14"><g id="g20" transform="translate(18.04,22.0503)"><path d="m 0,0 -18.04,-12.05 0,-2 0,-6 c 0,-1.105 0.895,-2 2,-2 l 32,0 c 1.104,0 2,0.895 2,2 l 0,6 0,1.989 L 0,0 Z" id="path22" style="fill:#99aab5;fill-opacity:1;fill-rule:nonzero;stroke:none"/></g><path d="M 36,3 0,3 0,2 36,2 36,3 Z" id="path24" style="fill:#66757f;fill-opacity:1;fill-rule:nonzero;stroke:none"/><path d="M 36,6 0,6 0,5 36,5 36,6 Z" id="path26" style="fill:#66757f;fill-opacity:1;fill-rule:nonzero;stroke:none"/><path d="M 36,9 0,9 0,8 36,8 36,9 Z" id="path28" style="fill:#66757f;fill-opacity:1;fill-rule:nonzero;stroke:none"/><g id="g30" transform="translate(1.4971,11)"><path d="M 0,0 32.998,0 31.509,1 1.497,1 0,0 Z" id="path32" style="fill:#66757f;fill-opacity:1;fill-rule:nonzero;stroke:none"/></g><g id="g34" transform="translate(18,36)"><path d="m 0,0 c -7.18,0 -13,-1.343 -13,-3 l 0,-33 26,0 0,33 C 13,-1.343 7.18,0 0,0" id="path36" style="fill:#e1e8ed;fill-opacity:1;fill-rule:nonzero;stroke:none"/></g><g id="g38" transform="translate(18,23)"><path d="m 0,0 c 7.18,0 13,-1.344 13,-3 l 0,2 C 13,0.657 7.18,2 0,2 -7.18,2 -13,0.657 -13,-1 l 0,-2 c 0,1.656 5.82,3 13,3" id="path40" style="fill:#ccd6dd;fill-opacity:1;fill-rule:nonzero;stroke:none"/></g><g id="g42" transform="translate(18,11)"><path d="m 0,0 c 7.18,0 13,-1.344 13,-3 l 0,2 C 13,0.656 7.18,2 0,2 -7.18,2 -13,0.656 -13,-1 l 0,-2 c 0,1.656 5.82,3 13,3" id="path44" style="fill:#ccd6dd;fill-opacity:1;fill-rule:nonzero;stroke:none"/></g><g id="g46" transform="translate(18,5)"><path d="m 0,0 c 7.18,0 13,-1.344 13,-3 l 0,2 C 13,0.656 7.18,2 0,2 -7.18,2 -13,0.656 -13,-1 l 0,-2 c 0,1.656 5.82,3 13,3" id="path48" style="fill:#ccd6dd;fill-opacity:1;fill-rule:nonzero;stroke:none"/></g><g id="g50" transform="translate(18,29)"><path d="m 0,0 c 7.18,0 13,-1.344 13,-3 l 0,2 C 13,0.657 7.18,2 0,2 -7.18,2 -13,0.657 -13,-1 l 0,-2 c 0,1.656 5.82,3 13,3" id="path52" style="fill:#ccd6dd;fill-opacity:1;fill-rule:nonzero;stroke:none"/></g><g id="g54" transform="translate(14,35.8535)"><path d="m 0,0 0,-35.854 2,0 0,35.961 C 1.315,0.083 0.646,0.048 0,0" id="path56" style="fill:#ccd6dd;fill-opacity:1;fill-rule:nonzero;stroke:none"/></g><g id="g58" transform="translate(8,34.916)"><path d="m 0,0 0,-34.916 2,0 0,35.361 C 1.268,0.313 0.594,0.165 0,0" id="path60" style="fill:#ccd6dd;fill-opacity:1;fill-rule:nonzero;stroke:none"/></g><g id="g62" transform="translate(20,35.9609)"><path d="m 0,0 0,-35.961 2,0 0,35.854 C 1.355,-0.059 0.685,-0.024 0,0" id="path64" style="fill:#ccd6dd;fill-opacity:1;fill-rule:nonzero;stroke:none"/></g><g id="g66" transform="translate(26,35.3613)"><path d="m 0,0 0,-35.361 2,0 0,34.916 C 1.406,-0.28 0.731,-0.132 0,0" id="path68" style="fill:#ccd6dd;fill-opacity:1;fill-rule:nonzero;stroke:none"/></g><g id="g70" transform="translate(18,17)"><path d="m 0,0 c 7.18,0 13,-1.344 13,-3 l 0,2 C 13,0.657 7.18,2 0,2 -7.18,2 -13,0.657 -13,-1 l 0,-2 c 0,1.656 5.82,3 13,3" id="path72" style="fill:#292f33;fill-opacity:1;fill-rule:nonzero;stroke:none"/></g><g id="g74" transform="translate(11.1299,30.4175)"><path d="m 0,0 -0.708,0 c -0.576,0 -0.815,0.42 -0.815,0.828 0,0.419 0.299,0.827 0.815,0.827 l 1.703,0 c 0.516,0 0.804,-0.372 0.804,-0.851 l 0,-6.825 c 0,-0.6 -0.384,-0.935 -0.9,-0.935 C 0.384,-6.956 0,-6.621 0,-6.021 L 0,0 Z" id="path76" style="fill:#be1931;fill-opacity:1;fill-rule:nonzero;stroke:none"/></g><g id="g78" transform="translate(18.4951,28.2695)"><path d="M 0,0 C 0,0.912 -0.084,2.783 -1.307,2.783 -2.53,2.783 -2.614,0.912 -2.614,0 c 0,-0.852 0.084,-2.782 1.307,-2.782 C -0.084,-2.782 0,-0.852 0,0 m -4.485,0 c 0,1.955 0.755,4.414 3.178,4.414 2.423,0 3.178,-2.459 3.178,-4.414 0,-1.955 -0.755,-4.414 -3.178,-4.414 -2.423,0 -3.178,2.459 -3.178,4.414" id="path80" style="fill:#be1931;fill-opacity:1;fill-rule:nonzero;stroke:none"/></g><g id="g82" transform="translate(25.2158,29.2422)"><path d="m 0,0 c 0,0.671 -0.419,1.247 -1.139,1.247 -0.683,0 -1.139,-0.552 -1.139,-1.247 0,-0.636 0.383,-1.248 1.139,-1.248 C -0.455,-1.248 0,-0.708 0,0 m 1.871,0 c 0,-1.811 -1.835,-4.353 -3.046,-5.481 -0.096,-0.096 -0.24,-0.192 -0.384,-0.288 -0.131,-0.084 -0.263,-0.084 -0.36,-0.084 -0.335,0 -0.852,0.444 -0.852,0.875 0,0.168 0.109,0.313 0.252,0.492 0.481,0.588 1.26,1.356 1.656,1.919 l -0.024,0.024 c -0.216,-0.096 -0.492,-0.144 -0.756,-0.144 -1.439,0 -2.506,1.271 -2.506,2.687 0,1.559 1.235,2.974 3.01,2.974 1.847,0 3.01,-1.379 3.01,-2.974" id="path84" style="fill:#be1931;fill-opacity:1;fill-rule:nonzero;stroke:none"/></g></g></g></g></svg>