<?xml version="1.0" encoding="UTF-8" standalone="no"?><svg xmlns="http://www.w3.org/2000/svg" xmlns:cc="http://creativecommons.org/ns#" xmlns:dc="http://purl.org/dc/elements/1.1/" xmlns:rdf="http://www.w3.org/1999/02/22-rdf-syntax-ns#" xmlns:svg="http://www.w3.org/2000/svg" height="45" id="svg2" style="enable-background:new 0 0 45 45;" version="1.1" viewBox="0 0 45 45" width="45" xml:space="preserve"><metadata id="metadata8"><rdf:RDF><cc:Work rdf:about=""><dc:format>image/svg+xml</dc:format><dc:type rdf:resource="http://purl.org/dc/dcmitype/StillImage"/></cc:Work></rdf:RDF></metadata><defs id="defs6"><clipPath clipPathUnits="userSpaceOnUse" id="clipPath16"><path d="M 0,36 36,36 36,0 0,0 0,36 Z" id="path18"/></clipPath></defs><g id="g10" transform="matrix(1.25,0,0,-1.25,0,45)"><g id="g12"><g clip-path="url(#clipPath16)" id="g14"><g id="g20" transform="translate(36,4)"><path d="m 0,0 c 0,0 0,-4 -4,-4 l -28,0 c 0,0 -4,0 -4,4 l 0,28 c 0,4 4,4 4,4 l 28,0 c 4,0 4,-4 4,-4 L 0,0 Z" id="path22" style="fill:#88c9f9;fill-opacity:1;fill-rule:nonzero;stroke:none"/></g><g id="g24" transform="translate(0,4)"><path d="m 0,0 c 0,-4 4,-4 4,-4 l 28,0 c 4,0 4,4 4,4 L 36,13 0,13 0,0 Z" id="path26" style="fill:#77b255;fill-opacity:1;fill-rule:nonzero;stroke:none"/></g><g id="g28" transform="translate(22.375,17)"><path d="m 0,0 -8.75,0 -11.362,-16.616 c 0.904,-0.379 1.737,-0.384 1.737,-0.384 l 28,0 c 0.71,0 1.289,0.13 1.77,0.338 L 0,0 Z" id="path30" style="fill:#d99e82;fill-opacity:1;fill-rule:nonzero;stroke:none"/></g><g id="g32" transform="translate(31.3135,33.3218)"><path d="m 0,0 c -0.274,0 -0.539,-0.042 -0.787,-0.119 -0.296,0.844 -1.096,1.45 -2.04,1.45 -1.013,0 -1.86,-0.697 -2.096,-1.637 C -5.173,-0.117 -5.482,0 -5.821,0 c -0.827,0 -1.497,-0.67 -1.497,-1.497 0,-0.201 0.041,-0.391 0.114,-0.566 -0.144,0.04 -0.292,0.067 -0.446,0.067 -0.919,0 -1.664,-0.744 -1.664,-1.663 0,-0.919 0.745,-1.663 1.664,-1.663 l 7.65,0 c 1.469,0 2.661,1.192 2.661,2.661 C 2.661,-1.191 1.469,0 0,0" id="path34" style="fill:#f5f8fa;fill-opacity:1;fill-rule:nonzero;stroke:none"/></g><g id="g36" transform="translate(4,0)"><path d="M 0,0 28,0 17.375,17 10.625,17 0,0 Z" id="path38" style="fill:#58595b;fill-opacity:1;fill-rule:nonzero;stroke:none"/></g><g id="g40" transform="translate(6.625,0)"><path d="M 0,0 22.75,0 14,17 8.75,17 0,0 Z" id="path42" style="fill:#808285;fill-opacity:1;fill-rule:nonzero;stroke:none"/></g><g id="g44" transform="translate(24,0)"><path d="M 0,0 -1,0 -5,17 -4.531,17 0,0 Z" id="path46" style="fill:#ccd6dd;fill-opacity:1;fill-rule:nonzero;stroke:none"/></g><g id="g48" transform="translate(17,17)"><path d="m 0,0 -4,-17 -1,0 4.469,16.938" id="path50" style="fill:#ccd6dd;fill-opacity:1;fill-rule:nonzero;stroke:none"/></g><path d="M 25,2 11,2 11,3 25,3 25,2 Z" id="path52" style="fill:#808285;fill-opacity:1;fill-rule:nonzero;stroke:none"/><path d="M 25,5 11,5 11,6 25,6 25,5 Z" id="path54" style="fill:#808285;fill-opacity:1;fill-rule:nonzero;stroke:none"/><path d="m 23.937,7.687 -12,0 0,1 12,0 0,-1 z" id="path56" style="fill:#808285;fill-opacity:1;fill-rule:nonzero;stroke:none"/><path d="m 23,10 -10,0 0,1 10,0 0,-1 z" id="path58" style="fill:#808285;fill-opacity:1;fill-rule:nonzero;stroke:none"/><path d="m 22,12 -8,0 0,1 8,0 0,-1 z" id="path60" style="fill:#808285;fill-opacity:1;fill-rule:nonzero;stroke:none"/><path d="m 21,14 -6,0 0,0.687 6,0 L 21,14 Z" id="path62" style="fill:#808285;fill-opacity:1;fill-rule:nonzero;stroke:none"/><path d="m 21,15.438 -6,0 0,0.687 6,0 0,-0.687 z" id="path64" style="fill:#808285;fill-opacity:1;fill-rule:nonzero;stroke:none"/><g id="g66" transform="translate(8,14.5)"><path d="M 0,0 C 0,-0.276 -0.224,-0.5 -0.5,-0.5 -0.776,-0.5 -1,-0.276 -1,0 l 0,11 c 0,0.276 0.224,0.5 0.5,0.5 C -0.224,11.5 0,11.276 0,11 L 0,0 Z" id="path68" style="fill:#66757f;fill-opacity:1;fill-rule:nonzero;stroke:none"/></g><g id="g70" transform="translate(29,14.4043)"><path d="m 0,0 c 0,-0.224 -0.181,-0.404 -0.404,-0.404 l -0.192,0 C -0.819,-0.404 -1,-0.224 -1,0 l 0,11.191 c 0,0.224 0.181,0.405 0.404,0.405 l 0.192,0 C -0.181,11.596 0,11.415 0,11.191 L 0,0 Z" id="path72" style="fill:#66757f;fill-opacity:1;fill-rule:nonzero;stroke:none"/></g><g id="g74" transform="translate(29,25.5)"><path d="m 0,0 c 0,-0.276 -0.224,-0.5 -0.5,-0.5 l -21,0 c -0.276,0 -0.5,0.224 -0.5,0.5 0,0.276 0.224,0.5 0.5,0.5 l 21,0 C -0.224,0.5 0,0.276 0,0" id="path76" style="fill:#66757f;fill-opacity:1;fill-rule:nonzero;stroke:none"/></g><g id="g78" transform="translate(29,20.3838)"><path d="m 0,0 c 0,-0.212 -0.172,-0.384 -0.384,-0.384 l -21.232,0 C -21.828,-0.384 -22,-0.212 -22,0 l 0,0.232 c 0,0.212 0.172,0.384 0.384,0.384 l 21.232,0 C -0.172,0.616 0,0.444 0,0.232 L 0,0 Z" id="path80" style="fill:#66757f;fill-opacity:1;fill-rule:nonzero;stroke:none"/></g><g id="g82" transform="translate(27,21)"><path d="m 0,0 c 0,-0.552 -0.447,-1 -1,-1 l -16,0 c -0.552,0 -1,0.448 -1,1 l 0,4 c 0,0.552 0.448,1 1,1 L -1,5 C -0.447,5 0,4.552 0,4 L 0,0 Z" id="path84" style="fill:#5c913b;fill-opacity:1;fill-rule:nonzero;stroke:none"/></g><path d="m 15,23 -2,0 0,2 2,0 0,-2 z" id="path86" style="fill:#a6d488;fill-opacity:1;fill-rule:nonzero;stroke:none"/><path d="m 16,21 -4,0 0,1 4,0 0,-1 z" id="path88" style="fill:#77b255;fill-opacity:1;fill-rule:nonzero;stroke:none"/><path d="m 23,23 -2,0 0,2 2,0 0,-2 z" id="path90" style="fill:#a6d488;fill-opacity:1;fill-rule:nonzero;stroke:none"/><path d="m 24,21 -4,0 0,1 4,0 0,-1 z" id="path92" style="fill:#77b255;fill-opacity:1;fill-rule:nonzero;stroke:none"/></g></g></g></svg>