<?xml version="1.0" encoding="UTF-8" standalone="no"?><svg xmlns="http://www.w3.org/2000/svg" xmlns:cc="http://creativecommons.org/ns#" xmlns:dc="http://purl.org/dc/elements/1.1/" xmlns:rdf="http://www.w3.org/1999/02/22-rdf-syntax-ns#" xmlns:svg="http://www.w3.org/2000/svg" height="45" id="svg2" style="enable-background:new 0 0 45 45;" version="1.1" viewBox="0 0 45 45" width="45" xml:space="preserve"><metadata id="metadata8"><rdf:RDF><cc:Work rdf:about=""><dc:format>image/svg+xml</dc:format><dc:type rdf:resource="http://purl.org/dc/dcmitype/StillImage"/></cc:Work></rdf:RDF></metadata><defs id="defs6"><clipPath clipPathUnits="userSpaceOnUse" id="clipPath16"><path d="M 0,36 36,36 36,0 0,0 0,36 Z" id="path18"/></clipPath></defs><g id="g10" transform="matrix(1.25,0,0,-1.25,0,45)"><g id="g12"><g clip-path="url(#clipPath16)" id="g14"><g id="g20" transform="translate(30,0)"><path d="m 0,0 -13,0 c -0.552,0 -1,0.447 -1,1 0,0.553 0.448,1 1,1 L 0,2 C 2.542,2 4,3.367 4,5.75 4,7.287 2.357,9 0,9 l -7,0 c -0.553,0 -1,0.447 -1,1 0,0.553 0.447,1 1,1 l 7,0 C 3.589,11 6,8.285 6,5.75 6,2.257 3.645,0 0,0" id="path22" style="fill:#ea596e;fill-opacity:1;fill-rule:nonzero;stroke:none"/></g><g id="g24" transform="translate(12,9.2832)"><path d="m 0,0 c 0,2.85 3,7.035 0,7.035 -4,0 -10.137,-6.566 -10.137,-8.442 0,-1.876 6.441,-1.876 9.29,-1.876 C 2.002,-3.283 0,-2.85 0,0" id="path26" style="fill:#ccd6dd;fill-opacity:1;fill-rule:nonzero;stroke:none"/></g><g id="g28" transform="translate(33,12.0977)"><path d="m 0,0 c 0,7.973 -6.554,9.752 -11.381,8.787 -9.38,-1.876 -11.132,-6.442 -11.132,-10.194 0,-4.922 9.149,-4.691 14.071,-4.691 C -3.52,-6.098 0,-4.923 0,0" id="path30" style="fill:#ccd6dd;fill-opacity:1;fill-rule:nonzero;stroke:none"/></g><g id="g32" transform="translate(25,13.5039)"><path d="M 0,0 -17.106,-1.875 -13.575,-7.504 0,-7.504 0,0 Z" id="path34" style="fill:#ccd6dd;fill-opacity:1;fill-rule:nonzero;stroke:none"/></g><g id="g36" transform="translate(16.918,18.8569)"><path d="m 0,0 c 0,2.683 -1.997,4.857 -4.458,4.857 -2.463,0 -4.46,-2.174 -4.46,-4.857 0,-2.683 1.997,-4.857 4.46,-4.857 C -1.997,-4.857 0,-2.683 0,0" id="path38" style="fill:#ccd6dd;fill-opacity:1;fill-rule:nonzero;stroke:none"/></g><g id="g40" transform="translate(14.3701,18.3174)"><path d="m 0,0 c 0,-1.788 -1.141,-3.239 -2.548,-3.239 -1.408,0 -2.548,1.451 -2.548,3.239 0,1.788 1.14,3.238 2.548,3.238 C -1.141,3.238 0,1.788 0,0" id="path42" style="fill:#f4abba;fill-opacity:1;fill-rule:nonzero;stroke:none"/></g><g id="g44" transform="translate(10,11.5)"><path d="M 0,0 C 0,-0.829 -0.672,-1.5 -1.5,-1.5 -2.328,-1.5 -3,-0.829 -3,0 -3,0.828 -2.328,1.5 -1.5,1.5 -0.672,1.5 0,0.828 0,0" id="path46" style="fill:#dd2e44;fill-opacity:1;fill-rule:nonzero;stroke:none"/></g></g></g></g></svg>