<?xml version="1.0" encoding="UTF-8" standalone="no"?><svg xmlns="http://www.w3.org/2000/svg" xmlns:cc="http://creativecommons.org/ns#" xmlns:dc="http://purl.org/dc/elements/1.1/" xmlns:rdf="http://www.w3.org/1999/02/22-rdf-syntax-ns#" xmlns:svg="http://www.w3.org/2000/svg" height="45" id="svg2" style="enable-background:new 0 0 45 45;" version="1.1" viewBox="0 0 45 45" width="45" xml:space="preserve"><metadata id="metadata8"><rdf:RDF><cc:Work rdf:about=""><dc:format>image/svg+xml</dc:format><dc:type rdf:resource="http://purl.org/dc/dcmitype/StillImage"/></cc:Work></rdf:RDF></metadata><defs id="defs6"><clipPath clipPathUnits="userSpaceOnUse" id="clipPath16"><path d="M 0,36 36,36 36,0 0,0 0,36 Z" id="path18"/></clipPath></defs><g id="g10" transform="matrix(1.25,0,0,-1.25,0,45)"><g id="g12"><g clip-path="url(#clipPath16)" id="g14"><g id="g20" transform="translate(36,10)"><path d="m 0,0 c 0,-2.209 -1.791,-4 -4,-4 l -24,0 c -2.209,0 -4,1.791 -4,4 l 0,19.687 c 0,2.209 5.791,6.313 8,6.313 l 18.625,0 C -2.281,26 0,23.687 0,20.625 L 0,0 Z" id="path22" style="fill:#f4900c;fill-opacity:1;fill-rule:nonzero;stroke:none"/></g><g id="g24" transform="translate(34,6)"><path d="m 0,0 c 0,-2.209 -1.791,-4 -4,-4 l -20,0 c -2.209,0 -4,1.791 -4,4 l 0,24 c 0,4.119 -0.021,4 5,4 l 19,0 c 2.209,0 4,-1.791 4,-4 L 0,0 Z" id="path26" style="fill:#ccd6dd;fill-opacity:1;fill-rule:nonzero;stroke:none"/></g><g id="g28" transform="translate(32,5)"><path d="m 0,0 c 0,-1.657 -1.343,-3 -3,-3 l -22,0 c -1.657,0 -3,1.343 -3,3 l 0,24 c 0,1.657 1.343,3 3,3 l 22,0 c 1.657,0 3,-1.343 3,-3 L 0,0 Z" id="path30" style="fill:#e1e8ed;fill-opacity:1;fill-rule:nonzero;stroke:none"/></g><g id="g32" transform="translate(32,4)"><path d="m 0,0 c 0,-2.209 -1.791,-4 -4,-4 l -19,0 c -2.209,0 -4,1.791 -4,4 l 0,22 c 0,2.209 1.791,4 4,4 l 19,0 c 2.209,0 4,-1.791 4,-4 L 0,0 Z" id="path34" style="fill:#ffac33;fill-opacity:1;fill-rule:nonzero;stroke:none"/></g><g id="g36" transform="translate(30,4)"><path d="m 0,0 c 0,-2.209 -1.791,-4 -4,-4 l -17,0 c -2.209,0 -4,1.791 -4,4 l 0,20 c 0,2.209 1.791,4 4,4 l 17.335,0 C -1.456,24 0,22.544 0,20.335 L 0,0 Z" id="path38" style="fill:#ffcc4d;fill-opacity:1;fill-rule:nonzero;stroke:none"/></g><g id="g40" transform="translate(9,30)"><path d="M 0,0 C -1.687,0 -1.731,1.922 -1,2.75 -0.168,3.691 1.125,4 3.438,4 L 5,4 5,6 2.281,6 C -1.687,6 -5,3.5 -5,0.625 L -5,-26 c 0,-2.209 1.791,-4 4,-4 l 2,0 0,30 -1,0 z" id="path42" style="fill:#f4900c;fill-opacity:1;fill-rule:nonzero;stroke:none"/></g><g id="g44" transform="translate(8.5415,3.0215)"><path d="m 0,0 c 0,-0.702 -0.667,-1.271 -1.49,-1.271 -0.822,0 -1.489,0.569 -1.489,1.271 0,0.701 0.667,1.271 1.489,1.271 C -0.667,1.271 0,0.701 0,0" id="path46" style="fill:#662113;fill-opacity:1;fill-rule:nonzero;stroke:none"/></g><g id="g48" transform="translate(6.8936,3.7285)"><path d="m 0,0 c -0.479,-0.055 -0.792,-0.374 -1.016,-0.729 -0.307,-0.485 -1.008,-1 -1.878,-1 -1.104,0 -2,0.671 -2,1.5 0,0.83 0.896,1.5 2,1.5 l 0,1.997 C -5.06,3.247 -6.81,1.692 -6.81,-0.229 c 0,-1.933 1.772,-3.5 3.958,-3.5 1.854,0 3.347,1.045 3.901,2.57 C 1.325,-0.4 0.58,0.064 0,0" id="path50" style="fill:#66757f;fill-opacity:1;fill-rule:nonzero;stroke:none"/></g><g id="g52" transform="translate(8.5415,11.0215)"><path d="m 0,0 c 0,-0.702 -0.667,-1.271 -1.49,-1.271 -0.822,0 -1.489,0.569 -1.489,1.271 0,0.701 0.667,1.271 1.489,1.271 C -0.667,1.271 0,0.701 0,0" id="path54" style="fill:#662113;fill-opacity:1;fill-rule:nonzero;stroke:none"/></g><g id="g56" transform="translate(6.8936,11.7285)"><path d="m 0,0 c -0.479,-0.055 -0.792,-0.374 -1.016,-0.729 -0.307,-0.485 -1.008,-1 -1.878,-1 -1.104,0 -2,0.671 -2,1.5 0,0.83 0.896,1.5 2,1.5 l 0,1.997 C -5.06,3.247 -6.81,1.692 -6.81,-0.229 c 0,-1.933 1.772,-3.5 3.958,-3.5 1.854,0 3.347,1.045 3.901,2.57 C 1.325,-0.4 0.58,0.064 0,0" id="path58" style="fill:#66757f;fill-opacity:1;fill-rule:nonzero;stroke:none"/></g><g id="g60" transform="translate(8.5415,19.0215)"><path d="m 0,0 c 0,-0.702 -0.667,-1.271 -1.49,-1.271 -0.822,0 -1.489,0.569 -1.489,1.271 0,0.701 0.667,1.271 1.489,1.271 C -0.667,1.271 0,0.701 0,0" id="path62" style="fill:#662113;fill-opacity:1;fill-rule:nonzero;stroke:none"/></g><g id="g64" transform="translate(6.8936,19.7285)"><path d="m 0,0 c -0.479,-0.055 -0.792,-0.374 -1.016,-0.729 -0.307,-0.485 -1.008,-1 -1.878,-1 -1.104,0 -2,0.671 -2,1.5 0,0.83 0.896,1.5 2,1.5 l 0,1.997 C -5.06,3.247 -6.81,1.692 -6.81,-0.229 c 0,-1.933 1.772,-3.5 3.958,-3.5 1.854,0 3.347,1.045 3.901,2.57 C 1.325,-0.4 0.58,0.064 0,0" id="path66" style="fill:#66757f;fill-opacity:1;fill-rule:nonzero;stroke:none"/></g><g id="g68" transform="translate(8.5415,27.0215)"><path d="m 0,0 c 0,-0.702 -0.667,-1.271 -1.49,-1.271 -0.822,0 -1.489,0.569 -1.489,1.271 0,0.701 0.667,1.271 1.489,1.271 C -0.667,1.271 0,0.701 0,0" id="path70" style="fill:#662113;fill-opacity:1;fill-rule:nonzero;stroke:none"/></g><g id="g72" transform="translate(6.8936,27.7285)"><path d="m 0,0 c -0.479,-0.055 -0.792,-0.374 -1.016,-0.729 -0.307,-0.485 -1.008,-1 -1.878,-1 -1.104,0 -2,0.671 -2,1.5 0,0.83 0.896,1.5 2,1.5 l 0,1.997 C -5.06,3.247 -6.81,1.692 -6.81,-0.229 c 0,-1.933 1.772,-3.5 3.958,-3.5 1.854,0 3.347,1.045 3.901,2.57 C 1.325,-0.4 0.58,0.064 0,0" id="path74" style="fill:#66757f;fill-opacity:1;fill-rule:nonzero;stroke:none"/></g></g></g></g></svg>