<?xml version="1.0" encoding="UTF-8" standalone="no"?><svg xmlns="http://www.w3.org/2000/svg" xmlns:cc="http://creativecommons.org/ns#" xmlns:dc="http://purl.org/dc/elements/1.1/" xmlns:rdf="http://www.w3.org/1999/02/22-rdf-syntax-ns#" xmlns:svg="http://www.w3.org/2000/svg" height="45" id="svg2" style="enable-background:new 0 0 45 45;" version="1.1" viewBox="0 0 45 45" width="45" xml:space="preserve"><metadata id="metadata8"><rdf:RDF><cc:Work rdf:about=""><dc:format>image/svg+xml</dc:format><dc:type rdf:resource="http://purl.org/dc/dcmitype/StillImage"/></cc:Work></rdf:RDF></metadata><defs id="defs6"><clipPath clipPathUnits="userSpaceOnUse" id="clipPath16"><path d="M 0,36 36,36 36,0 0,0 0,36 Z" id="path18"/></clipPath><clipPath clipPathUnits="userSpaceOnUse" id="clipPath40"><path d="M 6,17 C 4.895,17 4,16.105 4,15 L 4,15 3,3 C 3,1.895 3.895,1 5,1 l 0,0 26,0 c 1.105,0 2,0.895 2,2 l 0,0 -1,12 c 0,-1.562 -0.895,2 -2,2 l 0,0 -24,0 z" id="path42"/></clipPath><clipPath clipPathUnits="userSpaceOnUse" id="clipPath84"><path d="m 3,17 c 0,-4.782 0,-3 2,-3 l 0,0 13,0 13,0 c 2,0 2,-1.062 2,3 l 0,0 c 0,4 -8,2 -15,13 l 0,0 C 11,19 3,21 3,17" id="path86"/></clipPath><clipPath clipPathUnits="userSpaceOnUse" id="clipPath108"><path d="M 0,36 36,36 36,0 0,0 0,36 Z" id="path110"/></clipPath></defs><g id="g10" transform="matrix(1.25,0,0,-1.25,0,45)"><g id="g12"><g clip-path="url(#clipPath16)" id="g14"><g id="g20" transform="translate(33,3)"><path d="m 0,0 c 0,-1.105 -0.895,-2 -2,-2 l -26,0 c -1.104,0 -2,0.895 -2,2 l 1,12 c 0,1.105 0.896,2 2,2 l 24,0 c 1.105,0 2,-3.562 2,-2 L 0,0 Z" id="path22" style="fill:#dd2e44;fill-opacity:1;fill-rule:nonzero;stroke:none"/></g><g id="g24" transform="translate(19,27)"><path d="m 0,0 c 0,-0.552 -0.448,-1 -1,-1 -0.552,0 -1,0.448 -1,1 l 0,7 c 0,0.552 0.448,1 1,1 L -1,7.958 C -0.448,7.958 0,7.552 0,7 L 0,0 Z" id="path26" style="fill:#000000;fill-opacity:1;fill-rule:nonzero;stroke:none"/></g><g id="g28" transform="translate(18.8379,35.7939)"><path d="m 0,0 c -1.171,0.165 -1.838,-0.112 -1.838,-1.212 l 0,-1 c 0,-1.101 0.865,-1.753 1.923,-1.451 l 5.154,0.901 c 1.715,0.343 1.548,1.593 0.085,1.885 L 0,0 Z" id="path30" style="fill:#55acee;fill-opacity:1;fill-rule:nonzero;stroke:none"/></g><g id="g32" transform="translate(18,30)"><path d="m 0,0 c -7,-11 -15,-9 -15,-13 0,-2 0,-3 2,-3 l 13,0 13,0 c 2,0 2,1 2,3 0,4 -8,2 -15,13" id="path34" style="fill:#f5f8fa;fill-opacity:1;fill-rule:nonzero;stroke:none"/></g></g></g><g id="g36"><g clip-path="url(#clipPath40)" id="g38"><g id="g44" transform="translate(13,1)"><path d="m 0,0 c -0.792,1.875 -1.75,3.291 -3.417,4.666 1.75,1.459 4.543,5.5 5.25,8.292 C 2.542,15.75 4.583,4.833 3.875,2.333 3.167,-0.167 0,0 0,0" id="path46" style="fill:#ea596e;fill-opacity:1;fill-rule:nonzero;stroke:none"/></g><g id="g48" transform="translate(23.3027,1)"><path d="m 0,0 c 0.791,1.875 1.75,3.291 3.416,4.666 -1.75,1.459 -4.541,5.5 -5.25,8.292 C -2.541,15.75 -4.583,4.833 -3.874,2.333 -3.166,-0.167 0,0 0,0" id="path50" style="fill:#ea596e;fill-opacity:1;fill-rule:nonzero;stroke:none"/></g><g id="g52" transform="translate(8,13.5)"><path d="M 0,0 C 0,-1.381 -1.119,-2.5 -2.5,-2.5 -3.881,-2.5 -5,-1.381 -5,0 -5,1.381 -3.881,2.5 -2.5,2.5 -1.119,2.5 0,1.381 0,0" id="path54" style="fill:#be1931;fill-opacity:1;fill-rule:nonzero;stroke:none"/></g><g id="g56" transform="translate(33,13.5)"><path d="M 0,0 C 0,-1.381 -1.119,-2.5 -2.5,-2.5 -3.881,-2.5 -5,-1.381 -5,0 -5,1.381 -3.881,2.5 -2.5,2.5 -1.119,2.5 0,1.381 0,0" id="path58" style="fill:#be1931;fill-opacity:1;fill-rule:nonzero;stroke:none"/></g><g id="g60" transform="translate(16,13)"><path d="m 0,0 c 0,-1.104 -0.895,-2 -2,-2 -1.104,0 -2,0.896 -2,2 0,1.105 0.896,2 2,2 1.105,0 2,-0.895 2,-2" id="path62" style="fill:#be1931;fill-opacity:1;fill-rule:nonzero;stroke:none"/></g><g id="g64" transform="translate(24,13)"><path d="m 0,0 c 0,-1.104 -0.895,-2 -2,-2 -1.104,0 -2,0.896 -2,2 0,1.105 0.896,2 2,2 1.105,0 2,-0.895 2,-2" id="path66" style="fill:#be1931;fill-opacity:1;fill-rule:nonzero;stroke:none"/></g><g id="g68" transform="translate(12,13)"><path d="m 0,0 c 0,-1.104 -0.895,-2 -2,-2 -1.104,0 -2,0.896 -2,2 0,1.105 0.896,2 2,2 1.105,0 2,-0.895 2,-2" id="path70" style="fill:#be1931;fill-opacity:1;fill-rule:nonzero;stroke:none"/></g><g id="g72" transform="translate(28,13)"><path d="m 0,0 c 0,-1.104 -0.895,-2 -2,-2 -1.104,0 -2,0.896 -2,2 0,1.105 0.896,2 2,2 1.105,0 2,-0.895 2,-2" id="path74" style="fill:#be1931;fill-opacity:1;fill-rule:nonzero;stroke:none"/></g><g id="g76" transform="translate(23,1)"><path d="m 0,0 -10,0 c 0,0 2,6 2,13 l 6,0 C -2,6 0,0 0,0" id="path78" style="fill:#000000;fill-opacity:1;fill-rule:nonzero;stroke:none"/></g></g></g><g id="g80"><g clip-path="url(#clipPath84)" id="g82"><g id="g88" transform="translate(8,18)"><path d="M 0,0 C 3,2 10,7 10,13 10,19 -1,14 -4,12 -7,10 -9,4 -8,1 -7,-2 -5,-5 0,-5 L 0,0 Z" id="path90" style="fill:#ccd6dd;fill-opacity:1;fill-rule:nonzero;stroke:none"/></g><g id="g92" transform="translate(28,18)"><path d="m 0,0 c -3,2 -10.13,7 -10.13,13 0,6 10.935,1 13.935,-1 3,-2 5.097,-8 4.097,-11 C 6.902,-2 5,-5 0,-5 l 0,5 z" id="path94" style="fill:#ccd6dd;fill-opacity:1;fill-rule:nonzero;stroke:none"/></g><g id="g96" transform="translate(18,30)"><path d="m 0,0 c 0,2 0,-10 -2,-12 l 0,-5 c 0,-1 -4,-2 -4,0 l 0,5 c 1,1 6,7 6,12" id="path98" style="fill:#ccd6dd;fill-opacity:1;fill-rule:nonzero;stroke:none"/></g><g id="g100" transform="translate(18,30)"><path d="m 0,0 c 0,2 0,-10 2,-12 l 0,-5 c 0,-1 4,-2 4,0 l 0,5 C 5,-11 0,-5 0,0" id="path102" style="fill:#ccd6dd;fill-opacity:1;fill-rule:nonzero;stroke:none"/></g></g></g><g id="g104"><g clip-path="url(#clipPath108)" id="g106"><g id="g112" transform="translate(8,14.5)"><path d="M 0,0 C 0,-1.381 -1.119,-2.5 -2.5,-2.5 -3.881,-2.5 -5,-1.381 -5,0 -5,1.381 -3.881,2.5 -2.5,2.5 -1.119,2.5 0,1.381 0,0" id="path114" style="fill:#ccd6dd;fill-opacity:1;fill-rule:nonzero;stroke:none"/></g><g id="g116" transform="translate(33,14.5)"><path d="M 0,0 C 0,-1.381 -1.119,-2.5 -2.5,-2.5 -3.881,-2.5 -5,-1.381 -5,0 -5,1.381 -3.881,2.5 -2.5,2.5 -1.119,2.5 0,1.381 0,0" id="path118" style="fill:#ccd6dd;fill-opacity:1;fill-rule:nonzero;stroke:none"/></g><g id="g120" transform="translate(16,14)"><path d="m 0,0 c 0,-1.104 -0.895,-2 -2,-2 -1.104,0 -2,0.896 -2,2 0,1.105 0.896,2 2,2 1.105,0 2,-0.895 2,-2" id="path122" style="fill:#ccd6dd;fill-opacity:1;fill-rule:nonzero;stroke:none"/></g><g id="g124" transform="translate(24,14)"><path d="m 0,0 c 0,-1.104 -0.895,-2 -2,-2 -1.104,0 -2,0.896 -2,2 0,1.105 0.896,2 2,2 1.105,0 2,-0.895 2,-2" id="path126" style="fill:#ccd6dd;fill-opacity:1;fill-rule:nonzero;stroke:none"/></g><g id="g128" transform="translate(20,14)"><path d="m 0,0 c 0,-1.104 -0.895,-2 -2,-2 -1.104,0 -2,0.896 -2,2 0,1.105 0.896,2 2,2 1.105,0 2,-0.895 2,-2" id="path130" style="fill:#f5f8fa;fill-opacity:1;fill-rule:nonzero;stroke:none"/></g><g id="g132" transform="translate(12,14)"><path d="m 0,0 c 0,-1.104 -0.895,-2 -2,-2 -1.104,0 -2,0.896 -2,2 0,1.105 0.896,2 2,2 1.105,0 2,-0.895 2,-2" id="path134" style="fill:#f5f8fa;fill-opacity:1;fill-rule:nonzero;stroke:none"/></g><g id="g136" transform="translate(28,14)"><path d="m 0,0 c 0,-1.104 -0.895,-2 -2,-2 -1.104,0 -2,0.896 -2,2 0,1.105 0.896,2 2,2 1.105,0 2,-0.895 2,-2" id="path138" style="fill:#f5f8fa;fill-opacity:1;fill-rule:nonzero;stroke:none"/></g></g></g></g></svg>