<?xml version="1.0" encoding="UTF-8" standalone="no"?><svg xmlns="http://www.w3.org/2000/svg" xmlns:cc="http://creativecommons.org/ns#" xmlns:dc="http://purl.org/dc/elements/1.1/" xmlns:rdf="http://www.w3.org/1999/02/22-rdf-syntax-ns#" xmlns:svg="http://www.w3.org/2000/svg" height="45" id="svg2" style="enable-background:new 0 0 45 45;" version="1.1" viewBox="0 0 45 45" width="45" xml:space="preserve"><metadata id="metadata8"><rdf:RDF><cc:Work rdf:about=""><dc:format>image/svg+xml</dc:format><dc:type rdf:resource="http://purl.org/dc/dcmitype/StillImage"/></cc:Work></rdf:RDF></metadata><defs id="defs6"><clipPath clipPathUnits="userSpaceOnUse" id="clipPath16"><path d="M 0,36 36,36 36,0 0,0 0,36 Z" id="path18"/></clipPath></defs><g id="g10" transform="matrix(1.25,0,0,-1.25,0,45)"><g id="g12"><g clip-path="url(#clipPath16)" id="g14"><g id="g20" transform="translate(19,16.5)"><path d="m 0,0 c 1,-7.5 -1,-9.5 -1,-9.5 0,0 -2,2 -1,9.5 0.913,6.843 -2.687,9.159 1,9.159 3.688,0 0.088,-2.316 1,-9.159" id="path22" style="fill:#292f33;fill-opacity:1;fill-rule:nonzero;stroke:none"/></g><g id="g24" transform="translate(17.5894,25.7407)"><path d="m 0,0 c 0.133,-0.242 0.045,-0.546 -0.197,-0.679 -0.242,-0.133 -0.546,-0.045 -0.679,0.197 l -2.651,4.819 c -0.134,0.242 -0.046,0.546 0.196,0.679 0.243,0.133 0.546,0.045 0.68,-0.197 L 0,0 Z" id="path26" style="fill:#292f33;fill-opacity:1;fill-rule:nonzero;stroke:none"/></g><g id="g28" transform="translate(18.4111,25.7407)"><path d="m 0,0 c -0.133,-0.242 -0.045,-0.546 0.197,-0.679 0.242,-0.133 0.545,-0.045 0.679,0.197 L 3.527,4.337 C 3.66,4.579 3.572,4.883 3.33,5.016 3.088,5.149 2.785,5.061 2.651,4.819 L 0,0 Z" id="path30" style="fill:#292f33;fill-opacity:1;fill-rule:nonzero;stroke:none"/></g><g id="g32" transform="translate(18,17)"><path d="m 0,0 c -9.962,0.477 -15.645,-0.835 -15,-9 0.727,-9.191 15,0 15,3 l 0,6 z" id="path34" style="fill:#292f33;fill-opacity:1;fill-rule:nonzero;stroke:none"/></g><g id="g36" transform="translate(8.1904,5.1025)"><path d="m 0,0 c -1.744,0.001 -3.217,0.343 -3.65,2.438 -0.491,2.374 0.108,4.769 0.975,5.931 1.779,2.384 6.457,2.521 11.554,2.528 l 0,-5 C 8.879,5.493 8.015,4.081 5.931,2.497 3.874,0.934 1.658,0 0,0 Z" id="path38" style="fill:#88c9f9;fill-opacity:1;fill-rule:nonzero;stroke:none"/></g><g id="g40" transform="translate(5.5151,13.4717)"><path d="m 0,0 c -0.302,-0.404 -0.516,-0.882 -0.652,-1.426 5.44,0.357 9.955,1.653 12.207,3.406 l 0,0.548 C 6.458,2.521 1.779,2.384 0,0" id="path42" style="fill:#bbddf5;fill-opacity:1;fill-rule:nonzero;stroke:none"/></g><g id="g44" transform="translate(9.3574,7.6035)"><path d="m 0,0 c 0,-0.978 -0.792,-1.771 -1.77,-1.771 -0.979,0 -1.772,0.793 -1.772,1.771 0,0.979 0.793,1.771 1.772,1.771 C -0.792,1.771 0,0.979 0,0" id="path46" style="fill:#bbddf5;fill-opacity:1;fill-rule:nonzero;stroke:none"/></g><g id="g48" transform="translate(12.3813,7.9922)"><path d="m 0,0 c 0,-0.718 -0.582,-1.301 -1.3,-1.301 -0.719,0 -1.301,0.583 -1.301,1.301 0,0.719 0.582,1.301 1.301,1.301 C -0.582,1.301 0,0.719 0,0" id="path50" style="fill:#bbddf5;fill-opacity:1;fill-rule:nonzero;stroke:none"/></g><g id="g52" transform="translate(14.5415,9.0332)"><path d="m 0,0 c 0,-0.575 -0.466,-1.041 -1.042,-1.041 -0.575,0 -1.041,0.466 -1.041,1.041 0,0.575 0.466,1.042 1.041,1.042 C -0.466,1.042 0,0.575 0,0" id="path54" style="fill:#bbddf5;fill-opacity:1;fill-rule:nonzero;stroke:none"/></g><g id="g56" transform="translate(15.9414,10.0752)"><path d="m 0,0 c 0,-0.387 -0.314,-0.7 -0.7,-0.7 -0.386,0 -0.7,0.313 -0.7,0.7 0,0.387 0.314,0.7 0.7,0.7 C -0.314,0.7 0,0.387 0,0" id="path58" style="fill:#bbddf5;fill-opacity:1;fill-rule:nonzero;stroke:none"/></g><g id="g60" transform="translate(17.974,17)"><path d="M 0,0 C 9.962,0.477 15.645,-0.835 15,-9 14.273,-18.191 0,-9 0,-6 l 0,6 z" id="path62" style="fill:#292f33;fill-opacity:1;fill-rule:nonzero;stroke:none"/></g><g id="g64" transform="translate(27.7835,5.1025)"><path d="M 0,0 C 1.744,0.001 3.217,0.343 3.65,2.438 4.141,4.812 3.542,7.207 2.675,8.369 0.896,10.753 -3.782,10.89 -8.879,10.897 l 0,-5 c 0,-0.404 0.864,-1.816 2.948,-3.4 C -3.874,0.934 -1.658,0 -0.001,0 L 0,0 Z" id="path66" style="fill:#88c9f9;fill-opacity:1;fill-rule:nonzero;stroke:none"/></g><g id="g68" transform="translate(30.4588,13.4717)"><path d="m 0,0 c 0.302,-0.404 0.516,-0.882 0.652,-1.426 -5.44,0.357 -9.955,1.653 -12.207,3.406 l 0,0.548 C -6.458,2.521 -1.779,2.384 0,0" id="path70" style="fill:#bbddf5;fill-opacity:1;fill-rule:nonzero;stroke:none"/></g><g id="g72" transform="translate(26.6166,7.6035)"><path d="m 0,0 c 0,-0.978 0.792,-1.771 1.77,-1.771 0.979,0 1.772,0.793 1.772,1.771 0,0.979 -0.793,1.771 -1.772,1.771 C 0.792,1.771 0,0.979 0,0" id="path74" style="fill:#bbddf5;fill-opacity:1;fill-rule:nonzero;stroke:none"/></g><g id="g76" transform="translate(23.5927,7.9922)"><path d="M 0,0 C 0,-0.718 0.582,-1.301 1.3,-1.301 2.019,-1.301 2.601,-0.718 2.601,0 2.601,0.719 2.019,1.301 1.3,1.301 0.582,1.301 0,0.719 0,0" id="path78" style="fill:#bbddf5;fill-opacity:1;fill-rule:nonzero;stroke:none"/></g><g id="g80" transform="translate(21.4325,9.0332)"><path d="m 0,0 c 0,-0.575 0.466,-1.041 1.042,-1.041 0.575,0 1.042,0.466 1.042,1.041 0,0.575 -0.467,1.042 -1.042,1.042 C 0.466,1.042 0,0.575 0,0" id="path82" style="fill:#bbddf5;fill-opacity:1;fill-rule:nonzero;stroke:none"/></g><g id="g84" transform="translate(20.0326,10.0752)"><path d="M 0,0 C 0,-0.387 0.313,-0.7 0.7,-0.7 1.086,-0.7 1.4,-0.387 1.4,0 1.4,0.387 1.086,0.7 0.7,0.7 0.313,0.7 0,0.387 0,0" id="path86" style="fill:#bbddf5;fill-opacity:1;fill-rule:nonzero;stroke:none"/></g><g id="g88" transform="translate(18,22)"><path d="M 0,0 C -4,7 -16.536,11.336 -17,10 -19,4.25 -14.413,-3.609 -12.545,-5.04 -10.001,-6.988 0,-7 0,-6 l 0,6 z" id="path90" style="fill:#292f33;fill-opacity:1;fill-rule:nonzero;stroke:none"/></g><g id="g92" transform="translate(5.3752,19.3847)"><path d="M 0,0 C -0.834,1.195 -2.146,3.975 -2.405,8.615 0.07,8.481 8.517,7.923 11.685,2.343 l 0,-5.193 C 10.698,-3.161 8.704,-3.06 5.127,-2.663 1.55,-2.266 0.834,-1.194 0,0" id="path94" style="fill:#3b88c3;fill-opacity:1;fill-rule:nonzero;stroke:none"/></g><g id="g96" transform="translate(3.2225,25.6247)"><path d="M 0,0 C 0.201,-1.329 0.48,-2.463 0.796,-3.394 8.704,-2.239 13.79,-6.371 13.79,-6.371 13.79,-6.371 10.708,-0.318 0,0" id="path98" style="fill:#55acee;fill-opacity:1;fill-rule:nonzero;stroke:none"/></g><g id="g100" transform="translate(16.9136,17.125)"><path d="m 0,0 c 0,0 -4.096,4.624 -12.213,3.427 0.238,-0.486 0.471,-0.875 0.675,-1.167 0.084,-0.12 0.167,-0.239 0.251,-0.356 C -5.398,2.955 0,0 0,0" id="path102" style="fill:#55acee;fill-opacity:1;fill-rule:nonzero;stroke:none"/></g><g id="g104" transform="translate(17.974,22)"><path d="M 0,0 C 4,7 16.536,11.336 17,10 19,4.25 14.413,-3.609 12.545,-5.04 10.001,-6.988 0,-7 0,-6 l 0,6 z" id="path106" style="fill:#292f33;fill-opacity:1;fill-rule:nonzero;stroke:none"/></g><g id="g108" transform="translate(30.5988,19.3847)"><path d="M 0,0 C 0.834,1.195 2.146,3.975 2.405,8.615 -0.07,8.481 -8.517,7.923 -11.685,2.343 l 0,-5.193 c 0.987,-0.311 2.981,-0.21 6.558,0.187 C -1.55,-2.266 -0.834,-1.194 0,0" id="path110" style="fill:#3b88c3;fill-opacity:1;fill-rule:nonzero;stroke:none"/></g><g id="g112" transform="translate(32.7514,25.6247)"><path d="m 0,0 c -0.201,-1.329 -0.48,-2.463 -0.796,-3.394 -7.908,1.155 -12.994,-2.977 -12.994,-2.977 0,0 3.082,6.053 13.79,6.371" id="path114" style="fill:#55acee;fill-opacity:1;fill-rule:nonzero;stroke:none"/></g><g id="g116" transform="translate(19.0604,17.125)"><path d="M 0,0 C 0,0 4.096,4.624 12.213,3.427 11.975,2.941 11.742,2.552 11.538,2.26 11.455,2.14 11.371,2.021 11.287,1.904 5.398,2.955 0,0 0,0" id="path118" style="fill:#55acee;fill-opacity:1;fill-rule:nonzero;stroke:none"/></g></g></g></g></svg>