<?xml version="1.0" encoding="UTF-8" standalone="no"?><svg xmlns="http://www.w3.org/2000/svg" xmlns:cc="http://creativecommons.org/ns#" xmlns:dc="http://purl.org/dc/elements/1.1/" xmlns:rdf="http://www.w3.org/1999/02/22-rdf-syntax-ns#" xmlns:svg="http://www.w3.org/2000/svg" height="45" id="svg2" style="enable-background:new 0 0 45 45;" version="1.1" viewBox="0 0 45 45" width="45" xml:space="preserve"><metadata id="metadata8"><rdf:RDF><cc:Work rdf:about=""><dc:format>image/svg+xml</dc:format><dc:type rdf:resource="http://purl.org/dc/dcmitype/StillImage"/></cc:Work></rdf:RDF></metadata><defs id="defs6"><clipPath clipPathUnits="userSpaceOnUse" id="clipPath16"><path d="M 0,36 36,36 36,0 0,0 0,36 Z" id="path18"/></clipPath></defs><g id="g10" transform="matrix(1.25,0,0,-1.25,0,45)"><g id="g12"><g clip-path="url(#clipPath16)" id="g14"><g id="g20" transform="translate(9,27)"><path d="M 0,0 C 0,1.105 -0.896,2 -2,2 -3.104,2 -4,1.105 -4,0 l 0,-24 c 0,-1.104 0.896,-2 2,-2 1.104,0 2,0.896 2,2 L 0,0 Z" id="path22" style="fill:#dd2e44;fill-opacity:1;fill-rule:nonzero;stroke:none"/></g><g id="g24" transform="translate(31,27)"><path d="M 0,0 C 0,1.105 -0.895,2 -2,2 -3.104,2 -4,1.105 -4,0 l 0,-24 c 0,-1.104 0.896,-2 2,-2 1.105,0 2,0.896 2,2 L 0,0 Z" id="path26" style="fill:#dd2e44;fill-opacity:1;fill-rule:nonzero;stroke:none"/></g><g id="g28" transform="translate(36,20)"><path d="m 0,0 c 0,-1.104 -0.895,-2 -2,-2 l -32,0 c -1.104,0 -2,0.896 -2,2 0,1.105 0.896,2 2,2 L -2,2 C -0.895,2 0,1.105 0,0" id="path30" style="fill:#dd2e44;fill-opacity:1;fill-rule:nonzero;stroke:none"/></g><g id="g32" transform="translate(35,29)"><path d="m 0,0 c 0,-1.104 -0.781,-1.719 -2,-2 0,0 -3,-1 -15,-1 -12,0 -15,1 -15,1 -1.266,0.266 -2,0.896 -2,2 0,1.105 0.896,2 2,2 L -2,2 C -0.895,2 0,1.105 0,0" id="path34" style="fill:#dd2e44;fill-opacity:1;fill-rule:nonzero;stroke:none"/></g><g id="g36" transform="translate(35.9063,32)"><path d="m 0,0 c 0,-1.104 -0.659,-1.797 -1.908,-2 0,0 -4,-1 -15.999,-1 -11.998,0 -15.997,1 -15.997,1 -1.172,0.188 -1.893,0.886 -1.893,1.99 0,1.105 -0.211,3.01 0.893,3.01 0,0 3.999,-2 16.997,-2 C -4.908,1 -0.909,3 -0.909,3 0.195,3 0,1.105 0,0" id="path38" style="fill:#292f33;fill-opacity:1;fill-rule:nonzero;stroke:none"/></g><g id="g40" transform="translate(20,21)"><path d="m 0,0 c 0,-1.104 -0.895,-2 -2,-2 -1.104,0 -2,0.896 -2,2 l 0,6 c 0,1.105 0.896,2 2,2 1.105,0 2,-0.895 2,-2 L 0,0 Z" id="path42" style="fill:#dd2e44;fill-opacity:1;fill-rule:nonzero;stroke:none"/></g><g id="g44" transform="translate(11,2)"><path d="m 0,0 c 0,-1.104 -0.895,-2 -2,-2 l -4,0 c -1.104,0 -2,0.896 -2,2 0,1.104 0.896,2 2,2 l 4,0 C -0.895,2 0,1.104 0,0" id="path46" style="fill:#292f33;fill-opacity:1;fill-rule:nonzero;stroke:none"/></g><g id="g48" transform="translate(33,2)"><path d="m 0,0 c 0,-1.104 -0.895,-2 -2,-2 l -4,0 c -1.104,0 -2,0.896 -2,2 0,1.104 0.896,2 2,2 l 4,0 C -0.895,2 0,1.104 0,0" id="path50" style="fill:#292f33;fill-opacity:1;fill-rule:nonzero;stroke:none"/></g></g></g></g></svg>