<?xml version="1.0" encoding="UTF-8" standalone="no"?><svg xmlns="http://www.w3.org/2000/svg" xmlns:cc="http://creativecommons.org/ns#" xmlns:dc="http://purl.org/dc/elements/1.1/" xmlns:rdf="http://www.w3.org/1999/02/22-rdf-syntax-ns#" xmlns:svg="http://www.w3.org/2000/svg" height="45" id="svg2" style="enable-background:new 0 0 45 45;" version="1.1" viewBox="0 0 45 45" width="45" xml:space="preserve"><metadata id="metadata8"><rdf:RDF><cc:Work rdf:about=""><dc:format>image/svg+xml</dc:format><dc:type rdf:resource="http://purl.org/dc/dcmitype/StillImage"/></cc:Work></rdf:RDF></metadata><defs id="defs6"><clipPath clipPathUnits="userSpaceOnUse" id="clipPath16"><path d="M 0,36 36,36 36,0 0,0 0,36 Z" id="path18"/></clipPath></defs><g id="g10" transform="matrix(1.25,0,0,-1.25,0,45)"><g id="g12"><g clip-path="url(#clipPath16)" id="g14"><g id="g20" transform="translate(8,20)"><path d="m 0,0 c -0.552,0 -1,0.448 -1,1 l 0,11 c 0,0.552 0.448,1 1,1 0.552,0 1,-0.448 1,-1 L 1,1 C 1,0.448 0.552,0 0,0" id="path22" style="fill:#ccd6dd;fill-opacity:1;fill-rule:nonzero;stroke:none"/></g><g id="g24" transform="translate(2,3)"><path d="M 0,0 C 0,2.236 4,6 7,6 L 7,1 C 6,1 3,0 2,-1 1,-2 0,-1 0,0" id="path26" style="fill:#3b88c3;fill-opacity:1;fill-rule:nonzero;stroke:none"/></g><g id="g28" transform="translate(16,3)"><path d="m 0,0 c 0,2.236 -4,6 -7,6 l 0,-5 c 1,0 4,-1 5,-2 1,-1 2,0 2,1" id="path30" style="fill:#3b88c3;fill-opacity:1;fill-rule:nonzero;stroke:none"/></g><g id="g32" transform="translate(15,22)"><path d="M 0,0 C 2,0 4,-1 4,-2 4,-5 0.833,-13.542 -4.167,-14.542 -9.167,-15.542 0,0 0,0" id="path34" style="fill:#3b88c3;fill-opacity:1;fill-rule:nonzero;stroke:none"/></g><g id="g36" transform="translate(3,16)"><path d="m 0,0 c -1,-1 -2,-3 -2,-5 0,-2 2.75,2.042 4,1 1.718,-1.432 -2,4 -2,4" id="path38" style="fill:#3b88c3;fill-opacity:1;fill-rule:nonzero;stroke:none"/></g><g id="g40" transform="translate(5.5835,23.75)"><path d="M 0,0 C 1.5,-0.5 2.583,-0.125 3.667,0.75 4.75,1.625 4.917,-1.792 3.417,-2.917 1.917,-4.042 -0.708,-6.667 -0.667,-4.333 -0.625,-2 0,0 0,0" id="path42" style="fill:#000000;fill-opacity:1;fill-rule:nonzero;stroke:none"/></g><g id="g44" transform="translate(9.0229,24.999)"><path d="m 0,0 c -0.574,-0.63 -1.856,-2.333 -2.481,-4.416 -0.875,-0.5 -0.833,1.208 -0.708,1.75 0.225,0.976 0.505,0.977 0.345,1.522 -0.21,0.551 -0.788,0.364 -1.118,0.159 -1.713,-0.984 -3.061,-2.814 -3.061,-6.014 0,-5.523 5,-13 7,-13 2,0 7,7.477 7,13 C 6.977,-1.49 2.998,-0.007 0,0" id="path46" style="fill:#55acee;fill-opacity:1;fill-rule:nonzero;stroke:none"/></g><g id="g48" transform="translate(13,20.5)"><path d="M 0,0 C 0,-0.829 -0.671,-1.5 -1.5,-1.5 -2.329,-1.5 -3,-0.829 -3,0 -3,0.829 -2.329,1.5 -1.5,1.5 -0.671,1.5 0,0.829 0,0" id="path50" style="fill:#000000;fill-opacity:1;fill-rule:nonzero;stroke:none"/></g><g id="g52" transform="translate(8.9541,13.1729)"><path d="m 0,0 c -1.504,0 -2.829,0.538 -4,1.149 -0.49,0.256 -0.679,0.861 -0.423,1.35 0.255,0.488 0.859,0.68 1.349,0.424 1.89,-0.988 3.59,-1.385 5.735,-0.11 0.474,0.281 1.088,0.124 1.37,-0.35 C 4.312,1.987 4.156,1.374 3.681,1.092 2.347,0.3 1.123,0 0,0" id="path54" style="fill:#226699;fill-opacity:1;fill-rule:nonzero;stroke:none"/></g><g id="g56" transform="translate(29.834,0.75)"><path d="m 0,0 c -0.494,0.247 -1.042,0.958 -0.729,1.697 1.334,3.147 4.279,16.901 1.604,24.761 -0.501,1.473 -2.118,3.66 -4.08,4.863 -6.337,3.887 -15.806,1.758 -17.129,1.096 -0.495,-0.249 -2.044,-0.744 -2.292,-0.25 -0.247,0.494 0.59,1.002 1.084,1.25 1.756,0.877 11.264,3.877 19.667,-0.792 1.5,-0.833 3.59,-2.376 4.703,-5.303 C 6.085,18.755 3.875,3.906 2.041,0.5 1.458,-0.583 0.144,-0.071 0,0" id="path58" style="fill:#662113;fill-opacity:1;fill-rule:nonzero;stroke:none"/></g><g id="g60" transform="translate(32,11)"><path d="m 0,0 c 0,-2.209 -1.791,-4 -4,-4 -2.209,0 -4,1.791 -4,4 0,2.209 1.791,4 4,4 2.209,0 4,-1.791 4,-4" id="path62" style="fill:#99aab5;fill-opacity:1;fill-rule:nonzero;stroke:none"/></g><g id="g64" transform="translate(30,11)"><path d="m 0,0 c 0,-1.104 -0.895,-2 -2,-2 -1.104,0 -2,0.896 -2,2 0,1.105 0.896,2 2,2 1.105,0 2,-0.895 2,-2" id="path66" style="fill:#66757f;fill-opacity:1;fill-rule:nonzero;stroke:none"/></g></g></g></g></svg>