<?xml version="1.0" encoding="UTF-8" standalone="no"?><svg xmlns="http://www.w3.org/2000/svg" xmlns:cc="http://creativecommons.org/ns#" xmlns:dc="http://purl.org/dc/elements/1.1/" xmlns:rdf="http://www.w3.org/1999/02/22-rdf-syntax-ns#" xmlns:svg="http://www.w3.org/2000/svg" height="45" id="svg2" style="enable-background:new 0 0 45 45;" version="1.1" viewBox="0 0 45 45" width="45" xml:space="preserve"><metadata id="metadata8"><rdf:RDF><cc:Work rdf:about=""><dc:format>image/svg+xml</dc:format><dc:type rdf:resource="http://purl.org/dc/dcmitype/StillImage"/></cc:Work></rdf:RDF></metadata><defs id="defs6"><clipPath clipPathUnits="userSpaceOnUse" id="clipPath16"><path d="M 0,36 36,36 36,0 0,0 0,36 Z" id="path18"/></clipPath></defs><g id="g10" transform="matrix(1.25,0,0,-1.25,0,45)"><g id="g12"><g clip-path="url(#clipPath16)" id="g14"><g id="g20" transform="translate(36,18)"><path d="m 0,0 c 0,-9.941 -8.059,-18 -18,-18 -9.94,0 -18,8.059 -18,18 0,9.94 8.06,18 18,18 C -8.059,18 0,9.94 0,0" id="path22" style="fill:#ffcc4d;fill-opacity:1;fill-rule:nonzero;stroke:none"/></g><g id="g24" transform="translate(28.457,18.2031)"><path d="m 0,0 c -0.059,0.135 -1.499,3.297 -4.457,3.297 -2.957,0 -4.397,-3.162 -4.457,-3.297 -0.092,-0.207 -0.032,-0.449 0.144,-0.591 0.175,-0.142 0.426,-0.147 0.611,-0.014 0.012,0.009 1.262,0.902 3.702,0.902 2.426,0 3.674,-0.881 3.702,-0.901 0.088,-0.066 0.194,-0.099 0.298,-0.099 0.11,0 0.221,0.037 0.312,0.109 C 0.032,-0.452 0.093,-0.208 0,0" id="path26" style="fill:#664500;fill-opacity:1;fill-rule:nonzero;stroke:none"/></g><g id="g28" transform="translate(16.457,18.2031)"><path d="m 0,0 c -0.06,0.135 -1.499,3.297 -4.457,3.297 -2.957,0 -4.397,-3.162 -4.457,-3.297 -0.092,-0.207 -0.032,-0.449 0.144,-0.591 0.176,-0.142 0.427,-0.147 0.61,-0.014 0.013,0.009 1.262,0.902 3.703,0.902 2.426,0 3.674,-0.881 3.702,-0.901 0.088,-0.066 0.194,-0.099 0.298,-0.099 0.11,0 0.221,0.037 0.312,0.109 C 0.033,-0.452 0.092,-0.208 0,0" id="path30" style="fill:#664500;fill-opacity:1;fill-rule:nonzero;stroke:none"/></g><g id="g32" transform="translate(18,14)"><path d="m 0,0 c -3.623,0 -6.027,0.422 -9,1 -0.679,0.131 -2,0 -2,-2 0,-4 4.595,-9 11,-9 6.404,0 11,5 11,9 C 11,1 9.679,1.132 9,1 6.027,0.422 3.623,0 0,0" id="path34" style="fill:#664500;fill-opacity:1;fill-rule:nonzero;stroke:none"/></g><g id="g36" transform="translate(9,13)"><path d="m 0,0 c 0,0 3,-1 9,-1 6,0 9,1 9,1 0,0 -2,-4 -9,-4 -7,0 -9,4 -9,4" id="path38" style="fill:#ffffff;fill-opacity:1;fill-rule:nonzero;stroke:none"/></g></g></g></g></svg>