<?xml version="1.0" encoding="UTF-8" standalone="no"?><svg xmlns="http://www.w3.org/2000/svg" xmlns:cc="http://creativecommons.org/ns#" xmlns:dc="http://purl.org/dc/elements/1.1/" xmlns:rdf="http://www.w3.org/1999/02/22-rdf-syntax-ns#" xmlns:svg="http://www.w3.org/2000/svg" height="45" id="svg2" style="enable-background:new 0 0 45 45;" version="1.1" viewBox="0 0 45 45" width="45" xml:space="preserve"><metadata id="metadata8"><rdf:RDF><cc:Work rdf:about=""><dc:format>image/svg+xml</dc:format><dc:type rdf:resource="http://purl.org/dc/dcmitype/StillImage"/></cc:Work></rdf:RDF></metadata><defs id="defs6"><clipPath clipPathUnits="userSpaceOnUse" id="clipPath16"><path d="M 0,36 36,36 36,0 0,0 0,36 Z" id="path18"/></clipPath></defs><g id="g10" transform="matrix(1.25,0,0,-1.25,0,45)"><g id="g12"><g clip-path="url(#clipPath16)" id="g14"><g id="g20" transform="translate(27,0)"><path d="M 0,0 0,4 C 0,4 0,8 4,8 8,8 8,4 8,4 L 8,0 0,0 Z" id="path22" style="fill:#d5ab88;fill-opacity:1;fill-rule:nonzero;stroke:none"/></g><g id="g24" transform="translate(18,0)"><path d="m 0,0 0,9 c 0,0 0,4 4,4 4,0 4,-4 4,-4 L 8,0 0,0 Z" id="path26" style="fill:#d5ab88;fill-opacity:1;fill-rule:nonzero;stroke:none"/></g><g id="g28" transform="translate(9,0)"><path d="m 0,0 0,12 c 0,0 0,4 4,4 4,0 4,-4 4,-4 L 8,0 0,0 Z" id="path30" style="fill:#d5ab88;fill-opacity:1;fill-rule:nonzero;stroke:none"/></g><path d="m 0,0 0,9 c 0,0 0,4 4,4 4,0 4,-4 4,-4 L 8,0 0,0 Z" id="path32" style="fill:#d5ab88;fill-opacity:1;fill-rule:nonzero;stroke:none"/><g id="g34" transform="translate(16.0005,12)"><path d="m 0,0 c 0,1.657 0,8 -3,8 -3,0 -3,-6.343 -3,-8 0,-1.657 1.343,-3 3,-3 1.657,0 3,1.343 3,3" id="path36" style="fill:#dd2e44;fill-opacity:1;fill-rule:nonzero;stroke:none"/></g><g id="g38" transform="translate(7.0005,9)"><path d="m 0,0 c 0,1.657 0,8 -3,8 -3,0 -3,-6.343 -3,-8 0,-1.657 1.343,-3 3,-3 1.657,0 3,1.343 3,3" id="path40" style="fill:#dd2e44;fill-opacity:1;fill-rule:nonzero;stroke:none"/></g><g id="g42" transform="translate(25,9)"><path d="m 0,0 c 0,1.657 0,8 -3,8 -3,0 -3,-6.343 -3,-8 0,-1.657 1.344,-3 3,-3 1.657,0 3,1.343 3,3" id="path44" style="fill:#dd2e44;fill-opacity:1;fill-rule:nonzero;stroke:none"/></g><g id="g46" transform="translate(34,4)"><path d="m 0,0 c 0,1.657 0,8 -3,8 -3,0 -3,-6.343 -3,-8 0,-1.657 1.344,-3 3,-3 1.657,0 3,1.343 3,3" id="path48" style="fill:#dd2e44;fill-opacity:1;fill-rule:nonzero;stroke:none"/></g><g id="g50" transform="translate(13,20)"><path d="m 0,0 0,-4 2,0 c 0,0 2.001,0 6,4 L 6,2 C 6,2 4.001,0 0,0" id="path52" style="fill:#dd2e44;fill-opacity:1;fill-rule:nonzero;stroke:none"/></g><g id="g54" transform="translate(19,22)"><path d="M 0,0 8,8 10,6 2,-2 0,0 Z" id="path56" style="fill:#8899a6;fill-opacity:1;fill-rule:nonzero;stroke:none"/></g><g id="g58" transform="translate(27,30)"><path d="M 0,0 C 0,0 -2,2 0,4 L 2,6 9,6 9,1 6,-2 C 4,-4 2,-2 2,-2 L 0,0 Z" id="path60" style="fill:#8899a6;fill-opacity:1;fill-rule:nonzero;stroke:none"/></g></g></g></g></svg>