<?xml version="1.0" encoding="UTF-8" standalone="no"?><svg xmlns="http://www.w3.org/2000/svg" xmlns:cc="http://creativecommons.org/ns#" xmlns:dc="http://purl.org/dc/elements/1.1/" xmlns:rdf="http://www.w3.org/1999/02/22-rdf-syntax-ns#" xmlns:svg="http://www.w3.org/2000/svg" height="45" id="svg2" style="enable-background:new 0 0 45 45;" version="1.1" viewBox="0 0 45 45" width="45" xml:space="preserve"><metadata id="metadata8"><rdf:RDF><cc:Work rdf:about=""><dc:format>image/svg+xml</dc:format><dc:type rdf:resource="http://purl.org/dc/dcmitype/StillImage"/></cc:Work></rdf:RDF></metadata><defs id="defs6"><clipPath clipPathUnits="userSpaceOnUse" id="clipPath16"><path d="M 0,36 36,36 36,0 0,0 0,36 Z" id="path18"/></clipPath></defs><g id="g10" transform="matrix(1.25,0,0,-1.25,0,45)"><g id="g12"><g clip-path="url(#clipPath16)" id="g14"><g id="g20" transform="translate(23.1424,32.5969)"><path d="m 0,0 c -1.65,1.504 -3.43,2.403 -5.142,2.403 -5.625,0 -12,-9.611 -12,-19 0,-0.975 0.079,-1.899 0.201,-2.791 1.059,-7.692 6.422,-12.209 11.799,-12.209 6,0 12,5.611 12,15 C 6.858,-10.066 3.771,-3.436 0,0" id="path22" style="fill:#f7dece;fill-opacity:1;fill-rule:nonzero;stroke:none"/></g><g id="g24" transform="translate(23.1424,32.5969)"><path d="m 0,0 c 2.908,-3.519 5.108,-9.018 5.108,-14.453 0,-9.01 -5.672,-14.394 -11.344,-14.394 -4.541,0 -9.075,3.459 -10.705,9.459 1.059,-7.692 6.422,-12.209 11.799,-12.209 6,0 12,5.611 12,15 C 6.858,-10.066 3.771,-3.436 0,0" id="path26" style="fill:#e0aa94;fill-opacity:1;fill-rule:nonzero;stroke:none"/></g></g></g></g></svg>