<?xml version="1.0" encoding="UTF-8" standalone="no"?><svg xmlns="http://www.w3.org/2000/svg" xmlns:cc="http://creativecommons.org/ns#" xmlns:dc="http://purl.org/dc/elements/1.1/" xmlns:rdf="http://www.w3.org/1999/02/22-rdf-syntax-ns#" xmlns:svg="http://www.w3.org/2000/svg" height="45" id="svg2" style="enable-background:new 0 0 45 45;" version="1.1" viewBox="0 0 45 45" width="45" xml:space="preserve"><metadata id="metadata8"><rdf:RDF><cc:Work rdf:about=""><dc:format>image/svg+xml</dc:format><dc:type rdf:resource="http://purl.org/dc/dcmitype/StillImage"/></cc:Work></rdf:RDF></metadata><defs id="defs6"><clipPath clipPathUnits="userSpaceOnUse" id="clipPath16"><path d="M 0,36 36,36 36,0 0,0 0,36 Z" id="path18"/></clipPath></defs><g id="g10" transform="matrix(1.25,0,0,-1.25,0,45)"><g id="g12"><g clip-path="url(#clipPath16)" id="g14"><g id="g20" transform="translate(30.0205,1.7363)"><path d="m 0,0 c -1.564,-1.563 -4.095,-1.562 -5.656,0 l -22.628,22.627 c -1.562,1.562 -1.563,4.094 0,5.658 l 4.242,4.242 c 1.563,1.562 4.096,1.562 5.658,0 L 4.242,9.899 C 5.805,8.337 5.805,5.804 4.243,4.243 L 0,0 Z" id="path22" style="fill:#ffcc4d;fill-opacity:1;fill-rule:nonzero;stroke:none"/></g><g id="g24" transform="translate(9.5146,29.3135)"><path d="m 0,0 c -0.391,-0.39 -1.023,-0.39 -1.414,0 -0.39,0.391 -0.39,1.024 0,1.414 L 2.122,4.95 C 2.607,4.464 3.049,4.022 3.536,3.536 L 0,0 Z" id="path26" style="fill:#292f33;fill-opacity:1;fill-rule:nonzero;stroke:none"/></g><g id="g28" transform="translate(15.1714,27.8994)"><path d="m 0,0 c -0.39,-0.391 -1.023,-0.391 -1.414,0 -0.391,0.391 -0.391,1.024 0,1.414 L 0.001,2.829 C 0.486,2.342 0.928,1.9 1.415,1.414 L 0,0 Z" id="path30" style="fill:#292f33;fill-opacity:1;fill-rule:nonzero;stroke:none"/></g><g id="g32" transform="translate(16.5859,22.2427)"><path d="m 0,0 c -0.391,-0.391 -1.024,-0.391 -1.415,0 -0.39,0.391 -0.39,1.024 0,1.414 L 2.121,4.95 C 2.607,4.463 3.05,4.021 3.535,3.535 L 0,0 Z" id="path34" style="fill:#292f33;fill-opacity:1;fill-rule:nonzero;stroke:none"/></g><g id="g36" transform="translate(22.2422,20.8286)"><path d="m 0,0 c -0.39,-0.391 -1.023,-0.391 -1.413,0 -0.392,0.391 -0.391,1.024 0,1.414 L 0.001,2.829 C 0.486,2.342 0.929,1.9 1.415,1.414 L 0,0 Z" id="path38" style="fill:#292f33;fill-opacity:1;fill-rule:nonzero;stroke:none"/></g><g id="g40" transform="translate(23.6572,15.1719)"><path d="M 0,0 C -0.391,-0.391 -1.023,-0.392 -1.414,0 -1.805,0.391 -1.805,1.023 -1.415,1.414 L 2.121,4.949 C 2.607,4.463 3.05,4.021 3.535,3.535 L 0,0 Z" id="path42" style="fill:#292f33;fill-opacity:1;fill-rule:nonzero;stroke:none"/></g><g id="g44" transform="translate(30.7275,8.1006)"><path d="M 0,0 C -0.39,-0.391 -1.023,-0.391 -1.413,0 -1.805,0.391 -1.805,1.023 -1.414,1.414 L 2.122,4.949 C 2.607,4.464 3.05,4.022 3.536,3.535 L 0,0 Z" id="path46" style="fill:#292f33;fill-opacity:1;fill-rule:nonzero;stroke:none"/></g><g id="g48" transform="translate(29.3135,13.7578)"><path d="m 0,0 c -0.391,-0.391 -1.023,-0.391 -1.414,-0.001 -0.391,0.391 -0.39,1.024 0,1.414 L 0.001,2.827 C 0.486,2.342 0.929,1.899 1.414,1.414 L 0,0 Z" id="path50" style="fill:#292f33;fill-opacity:1;fill-rule:nonzero;stroke:none"/></g></g></g></g></svg>