<?xml version="1.0" encoding="UTF-8" standalone="no"?><svg xmlns="http://www.w3.org/2000/svg" xmlns:cc="http://creativecommons.org/ns#" xmlns:dc="http://purl.org/dc/elements/1.1/" xmlns:rdf="http://www.w3.org/1999/02/22-rdf-syntax-ns#" xmlns:svg="http://www.w3.org/2000/svg" height="45" id="svg2" style="enable-background:new 0 0 45 45;" version="1.1" viewBox="0 0 45 45" width="45" xml:space="preserve"><metadata id="metadata8"><rdf:RDF><cc:Work rdf:about=""><dc:format>image/svg+xml</dc:format><dc:type rdf:resource="http://purl.org/dc/dcmitype/StillImage"/></cc:Work></rdf:RDF></metadata><defs id="defs6"><clipPath clipPathUnits="userSpaceOnUse" id="clipPath16"><path d="M 0,36 36,36 36,0 0,0 0,36 Z" id="path18"/></clipPath></defs><g id="g10" transform="matrix(1.25,0,0,-1.25,0,45)"><g id="g12"><g clip-path="url(#clipPath16)" id="g14"><g id="g20" transform="translate(10.9995,36)"><path d="M 0,0 C -1.264,0 -2.435,-0.393 -3.402,-1.061 -3.598,-1.031 -3.795,-1 -3.999,-1 c -2.209,0 -4,-1.791 -4,-4 l 0,-6 c 0,-3.866 3.133,-7 7,-7 3.866,0 7,3.134 7,7 l 0,4.999 C 6.001,-2.686 3.314,0 0,0" id="path22" style="fill:#ffe51e;fill-opacity:1;fill-rule:nonzero;stroke:none"/></g><path d="M 9,1 6,1 6,9 9,9 9,1 Z" id="path24" style="fill:#f3d2a2;fill-opacity:1;fill-rule:nonzero;stroke:none"/><path d="m 14,1 -3,0 0,8 3,0 0,-8 z" id="path26" style="fill:#f3d2a2;fill-opacity:1;fill-rule:nonzero;stroke:none"/><path d="M 9,8 6,8 6,9 9,9 9,8 Z" id="path28" style="fill:#e2c196;fill-opacity:1;fill-rule:nonzero;stroke:none"/><path d="m 14,8 -3,0 0,1 3,0 0,-1 z" id="path30" style="fill:#e2c196;fill-opacity:1;fill-rule:nonzero;stroke:none"/><g id="g32" transform="translate(5,0)"><path d="M 0,0 0,1 C 0,1 0,2 2,2 4,2 4,1 4,1 L 4,0 0,0 Z" id="path34" style="fill:#292f33;fill-opacity:1;fill-rule:nonzero;stroke:none"/></g><g id="g36" transform="translate(11,0)"><path d="M 0,0 0,1 C 0,1 0,2 2,2 4,2 4,1 4,1 L 4,0 0,0 Z" id="path38" style="fill:#292f33;fill-opacity:1;fill-rule:nonzero;stroke:none"/></g><g id="g40" transform="translate(0.999,10)"><path d="m 0,0 c -0.164,0 -0.331,0.04 -0.485,0.126 -0.482,0.269 -0.657,0.877 -0.388,1.359 l 5,9.001 c 0.268,0.482 0.876,0.657 1.36,0.388 0.482,-0.268 0.657,-0.877 0.388,-1.36 l -5,-8.999 C 0.692,0.186 0.352,0 0,0" id="path42" style="fill:#f3d2a2;fill-opacity:1;fill-rule:nonzero;stroke:none"/></g><g id="g44" transform="translate(19.001,10)"><path d="m 0,0 c -0.352,0 -0.692,0.186 -0.875,0.515 l -5,8.999 c -0.269,0.483 -0.094,1.092 0.388,1.36 0.484,0.269 1.092,0.094 1.36,-0.388 l 5,-9.001 C 1.142,1.003 0.968,0.395 0.484,0.126 0.331,0.04 0.164,0 0,0" id="path46" style="fill:#f3d2a2;fill-opacity:1;fill-rule:nonzero;stroke:none"/></g><g id="g48" transform="translate(4.0005,9)"><path d="m 0,0 12,0 -2,6 0,4 2,0 0,1 c 0,1.105 -0.896,2 -2,2 L 8,13 4,13 2,13 C 0.895,13 0,12.105 0,11 L 0,10 2,10 2,6 0,0 Z" id="path50" style="fill:#e75a70;fill-opacity:1;fill-rule:nonzero;stroke:none"/></g><path d="m 14.001,15 -8,0 0,2 8,0 0,-2 z" id="path52" style="fill:#da2f47;fill-opacity:1;fill-rule:nonzero;stroke:none"/><g id="g54" transform="translate(8,25)"><path d="m 0,0 0,-4 c 0,-1.104 0.896,-2 2,-2 1.105,0 2,0.896 2,2 L 4,0 0,0 Z" id="path56" style="fill:#f3d2a2;fill-opacity:1;fill-rule:nonzero;stroke:none"/></g><g id="g58" transform="translate(12,25)"><path d="M 0,0 -4,-0.019 -4,-4 c 0,0 2,-1 4,0 l 0,4 z" id="path60" style="fill:#e2c196;fill-opacity:1;fill-rule:nonzero;stroke:none"/></g><g id="g62" transform="translate(15,33)"><path d="m 0,0 -10,0 0,-6 0,-0.001 C -10,-8.763 -7.762,-11 -5.001,-11 -2.239,-11 0,-8.763 0,-6.001 L 0,-6 0,0 Z" id="path64" style="fill:#f3d2a2;fill-opacity:1;fill-rule:nonzero;stroke:none"/></g><g id="g66" transform="translate(8,33)"><path d="M 0,0 C 0,0 0,-4 8,-4 L 8,0 0,0 Z" id="path68" style="fill:#ffe51e;fill-opacity:1;fill-rule:nonzero;stroke:none"/></g><g id="g70" transform="translate(8,33)"><path d="m 0,0 c 0,0 0,-4 -4,-4 l 0,4 4,0 z" id="path72" style="fill:#ffe51e;fill-opacity:1;fill-rule:nonzero;stroke:none"/></g><g id="g74" transform="translate(12,24)"><path d="m 0,0 -2,0 -2,0 c 0,0 0,-1 2,-1 2,0 2,1 2,1" id="path76" style="fill:#df1f32;fill-opacity:1;fill-rule:nonzero;stroke:none"/></g><g id="g78" transform="translate(8,27.5)"><path d="M 0,0 C 0,-0.276 -0.224,-0.5 -0.5,-0.5 -0.776,-0.5 -1,-0.276 -1,0 -1,0.276 -0.776,0.5 -0.5,0.5 -0.224,0.5 0,0.276 0,0" id="path80" style="fill:#662113;fill-opacity:1;fill-rule:nonzero;stroke:none"/></g><g id="g82" transform="translate(13,27.5)"><path d="M 0,0 C 0,-0.276 -0.224,-0.5 -0.5,-0.5 -0.776,-0.5 -1,-0.276 -1,0 -1,0.276 -0.776,0.5 -0.5,0.5 -0.224,0.5 0,0.276 0,0" id="path84" style="fill:#662113;fill-opacity:1;fill-rule:nonzero;stroke:none"/></g><g id="g86" transform="translate(9,26)"><path d="M 0,0 1,0 2,0 C 2,0 1.999,-1 1,-1 0,-1 0,0 0,0" id="path88" style="fill:#c1694f;fill-opacity:1;fill-rule:nonzero;stroke:none"/></g><g id="g90" transform="translate(33,29.999)"><path d="m 0,0 c 0,3.314 -2.686,6.001 -6,6.001 -1.264,0 -2.436,-0.393 -3.402,-1.061 -0.197,0.03 -0.393,0.061 -0.598,0.061 -2.209,0 -4,-1.791 -4,-4 l 0,-6 4.686,0 c 0.949,-0.631 2.087,-1 3.314,-1 1.226,0 2.364,0.369 3.314,1 L 0,-4.999 0,0 Z" id="path92" style="fill:#ffe51e;fill-opacity:1;fill-rule:nonzero;stroke:none"/></g><path d="m 25,1 -3,0 0,8 3,0 0,-8 z" id="path94" style="fill:#f3d2a2;fill-opacity:1;fill-rule:nonzero;stroke:none"/><path d="m 30,1 -3,0 0,8 3,0 0,-8 z" id="path96" style="fill:#f3d2a2;fill-opacity:1;fill-rule:nonzero;stroke:none"/><path d="m 25,8 -3,0 0,1 3,0 0,-1 z" id="path98" style="fill:#e2c196;fill-opacity:1;fill-rule:nonzero;stroke:none"/><path d="m 30,8 -3,0 0,1 3,0 0,-1 z" id="path100" style="fill:#e2c196;fill-opacity:1;fill-rule:nonzero;stroke:none"/><g id="g102" transform="translate(21,0)"><path d="M 0,0 0,1 C 0,1 0,2 2,2 4,2 4,1 4,1 L 4,0 0,0 Z" id="path104" style="fill:#292f33;fill-opacity:1;fill-rule:nonzero;stroke:none"/></g><g id="g106" transform="translate(27,0)"><path d="M 0,0 0,1 C 0,1 0,2 2,2 4,2 4,1 4,1 L 4,0 0,0 Z" id="path108" style="fill:#292f33;fill-opacity:1;fill-rule:nonzero;stroke:none"/></g><g id="g110" transform="translate(16.999,10)"><path d="m 0,0 c -0.164,0 -0.331,0.04 -0.485,0.126 -0.482,0.269 -0.657,0.877 -0.388,1.359 l 5,9.001 c 0.268,0.482 0.878,0.657 1.359,0.388 0.484,-0.268 0.658,-0.877 0.389,-1.36 l -5,-8.999 C 0.692,0.186 0.352,0 0,0" id="path112" style="fill:#f3d2a2;fill-opacity:1;fill-rule:nonzero;stroke:none"/></g><g id="g114" transform="translate(35.001,10)"><path d="m 0,0 c -0.352,0 -0.692,0.186 -0.875,0.515 l -5,8.999 c -0.269,0.483 -0.095,1.092 0.389,1.36 0.482,0.269 1.091,0.094 1.359,-0.388 l 5,-9.001 C 1.142,1.003 0.968,0.395 0.484,0.126 0.331,0.04 0.164,0 0,0" id="path116" style="fill:#f3d2a2;fill-opacity:1;fill-rule:nonzero;stroke:none"/></g><g id="g118" transform="translate(32,19)"><path d="m 0,0 0,1 c 0,1.105 -0.895,2 -2,2 l -2,0 -4,0 -2,0 c -1.104,0 -2,-0.895 -2,-2 l 0,-1 2,0 0,-4 -2,-6 12,0 -2,6 0,4 2,0 z" id="path120" style="fill:#9268ca;fill-opacity:1;fill-rule:nonzero;stroke:none"/></g><path d="m 30,15 -8,0 0,2 8,0 0,-2 z" id="path122" style="fill:#aa8ed6;fill-opacity:1;fill-rule:nonzero;stroke:none"/><g id="g124" transform="translate(24,25)"><path d="m 0,0 0,-4 c 0,-1.104 0.896,-2 2,-2 1.105,0 2,0.896 2,2 L 4,0 0,0 Z" id="path126" style="fill:#f3d2a2;fill-opacity:1;fill-rule:nonzero;stroke:none"/></g><g id="g128" transform="translate(28,25)"><path d="M 0,0 -4,-0.019 -4,-4 c 0,0 2,-1 4,0 l 0,4 z" id="path130" style="fill:#e2c196;fill-opacity:1;fill-rule:nonzero;stroke:none"/></g><g id="g132" transform="translate(31,33)"><path d="m 0,0 -10,0 0,-6 0,-0.001 c 0,-2.762 2.238,-4.999 5,-4.999 2.762,0 5,2.237 5,4.999 L 0,-6 0,0 Z" id="path134" style="fill:#f3d2a2;fill-opacity:1;fill-rule:nonzero;stroke:none"/></g><g id="g136" transform="translate(24,33)"><path d="M 0,0 C 0,0 0,-4 8,-4 L 8,0 0,0 Z" id="path138" style="fill:#ffe51e;fill-opacity:1;fill-rule:nonzero;stroke:none"/></g><g id="g140" transform="translate(24,33)"><path d="m 0,0 c 0,0 0,-4 -4,-4 l 0,4 4,0 z" id="path142" style="fill:#ffe51e;fill-opacity:1;fill-rule:nonzero;stroke:none"/></g><g id="g144" transform="translate(28,24)"><path d="m 0,0 -2,0 -2,0 c 0,0 0,-1 2,-1 2,0 2,1 2,1" id="path146" style="fill:#df1f32;fill-opacity:1;fill-rule:nonzero;stroke:none"/></g><g id="g148" transform="translate(24,27.5)"><path d="M 0,0 C 0,-0.276 -0.224,-0.5 -0.5,-0.5 -0.776,-0.5 -1,-0.276 -1,0 -1,0.276 -0.776,0.5 -0.5,0.5 -0.224,0.5 0,0.276 0,0" id="path150" style="fill:#662113;fill-opacity:1;fill-rule:nonzero;stroke:none"/></g><g id="g152" transform="translate(29,27.5)"><path d="M 0,0 C 0,-0.276 -0.224,-0.5 -0.5,-0.5 -0.776,-0.5 -1,-0.276 -1,0 -1,0.276 -0.776,0.5 -0.5,0.5 -0.224,0.5 0,0.276 0,0" id="path154" style="fill:#662113;fill-opacity:1;fill-rule:nonzero;stroke:none"/></g><g id="g156" transform="translate(25,26)"><path d="M 0,0 1,0 2,0 C 2,0 2,-1 1,-1 0,-1 0,0 0,0" id="path158" style="fill:#c1694f;fill-opacity:1;fill-rule:nonzero;stroke:none"/></g></g></g></g></svg>