<?xml version="1.0" encoding="UTF-8" standalone="no"?><svg xmlns="http://www.w3.org/2000/svg" xmlns:cc="http://creativecommons.org/ns#" xmlns:dc="http://purl.org/dc/elements/1.1/" xmlns:rdf="http://www.w3.org/1999/02/22-rdf-syntax-ns#" xmlns:svg="http://www.w3.org/2000/svg" height="45" id="svg2" style="enable-background:new 0 0 45 45;" version="1.1" viewBox="0 0 45 45" width="45" xml:space="preserve"><metadata id="metadata8"><rdf:RDF><cc:Work rdf:about=""><dc:format>image/svg+xml</dc:format><dc:type rdf:resource="http://purl.org/dc/dcmitype/StillImage"/></cc:Work></rdf:RDF></metadata><defs id="defs6"><clipPath clipPathUnits="userSpaceOnUse" id="clipPath16"><path d="M 0,36 36,36 36,0 0,0 0,36 Z" id="path18"/></clipPath></defs><g id="g10" transform="matrix(1.25,0,0,-1.25,0,45)"><g id="g12"><g clip-path="url(#clipPath16)" id="g14"><g id="g20" transform="translate(29,18)"><path d="m 0,0 -13,0 c -3.669,0 -5,2.99 -5,5 l 0,2 -4,0 c -3,0 -3,-3 -3,-3 0,0 -2,1 -3,1 -1,0 -1,-1 -1,-1 l 0,-10 c 0,0 0,-1 1,-1 1,0 3,1 3,1 l 0,-7 c 0,-4 4,-4 4,-4 l 18,0 c 4,0 4,4 4,4 L 1,0.106 C 0.653,0.037 0.314,0 0,0" id="path22" style="fill:#292f33;fill-opacity:1;fill-rule:nonzero;stroke:none"/></g><g id="g24" transform="translate(35,30)"><path d="M 0,0 C -0.559,0 -2.05,-0.934 -3.26,-1.76 -3.587,-0.934 -4.326,0 -6,0 l -11,0 c 0,0 -5,0 -5,-5 l 0,-2 c 0,0 0,-3 3,-3 l 13,0 c 0,0 2.075,0.006 2.771,1.739 C -2.024,-9.081 -0.554,-10 0,-10 c 1,0 1,1 1,1 l 0,8 c 0,0 0,1 -1,1" id="path26" style="fill:#66757f;fill-opacity:1;fill-rule:nonzero;stroke:none"/></g><g id="g28" transform="translate(9,1)"><path d="m 0,0 0,9 c 0,0 0,3 2.75,3 L 13,12 c 0,0 3,0 3,-3 l 0,-9 -2,0 0,9 c 0,0 0,1 -1,1 L 3,10 C 3,10 2,10 2,9 L 2,0 0,0 Z" id="path30" style="fill:#66757f;fill-opacity:1;fill-rule:nonzero;stroke:none"/></g></g></g></g></svg>