<?xml version="1.0" encoding="UTF-8" standalone="no"?><svg xmlns="http://www.w3.org/2000/svg" xmlns:cc="http://creativecommons.org/ns#" xmlns:dc="http://purl.org/dc/elements/1.1/" xmlns:rdf="http://www.w3.org/1999/02/22-rdf-syntax-ns#" xmlns:svg="http://www.w3.org/2000/svg" height="45" id="svg2" style="enable-background:new 0 0 45 45;" version="1.1" viewBox="0 0 45 45" width="45" xml:space="preserve"><metadata id="metadata8"><rdf:RDF><cc:Work rdf:about=""><dc:format>image/svg+xml</dc:format><dc:type rdf:resource="http://purl.org/dc/dcmitype/StillImage"/></cc:Work></rdf:RDF></metadata><defs id="defs6"><clipPath clipPathUnits="userSpaceOnUse" id="clipPath16"><path d="M 0,36 36,36 36,0 0,0 0,36 Z" id="path18"/></clipPath><clipPath clipPathUnits="userSpaceOnUse" id="clipPath32"><path d="m 22.795,7.428 0.398,-3.055 c 0.532,-4.074 5.629,-4.3 6.249,-2.126 l 0,0 0.933,4.042 4.041,0.933 c 2.174,0.62 1.949,5.717 -2.125,6.248 l 0,0 -3.055,0.399 c -0.324,0.042 -0.64,0.063 -0.948,0.063 l 0,0 c -3.565,0 -5.982,-2.754 -5.493,-6.504" id="path34"/></clipPath><clipPath clipPathUnits="userSpaceOnUse" id="clipPath44"><path d="M 7.051,34.587 6.116,30.546 2.075,29.614 C -0.099,28.993 0.127,23.897 4.201,23.365 l 0,0 3.055,-0.399 c 4.073,-0.531 6.972,2.367 6.441,6.442 l 0,0 -0.399,3.054 c -0.316,2.429 -2.255,3.49 -3.901,3.49 l 0,0 c -1.115,0 -2.096,-0.487 -2.346,-1.365" id="path46"/></clipPath><clipPath clipPathUnits="userSpaceOnUse" id="clipPath56"><path d="M 0,36 36,36 36,0 0,0 0,36 Z" id="path58"/></clipPath><clipPath clipPathUnits="userSpaceOnUse" id="clipPath68"><path d="m 11.246,26.21 c -4.159,-4.161 -4.159,-10.905 0,-15.064 l 0,0 c 4.161,-4.159 10.905,-4.159 15.064,0 l 0,0 c 4.159,4.159 4.159,10.903 0,15.064 l 0,0 c -2.08,2.079 -4.806,3.118 -7.532,3.118 l 0,0 c -2.726,0 -5.452,-1.039 -7.532,-3.118" id="path70"/></clipPath></defs><g id="g10" transform="matrix(1.25,0,0,-1.25,0,45)"><g id="g12"><g clip-path="url(#clipPath16)" id="g14"><g id="g20" transform="translate(13.2983,32.4624)"><path d="m 0,0 c -0.531,4.075 -5.627,4.299 -6.248,2.125 l -0.934,-4.041 -4.041,-0.933 c -2.174,-0.621 -1.949,-5.717 2.126,-6.248 l 3.054,-0.399 c 4.074,-0.531 6.973,2.367 6.442,6.441 L 0,0 Z" id="path22" style="fill:#dd2e44;fill-opacity:1;fill-rule:nonzero;stroke:none"/></g><g id="g24" transform="translate(32.291,13.4707)"><path d="m 0,0 c 4.074,-0.531 4.299,-5.629 2.125,-6.249 l -4.041,-0.933 -0.934,-4.042 c -0.62,-2.174 -5.716,-1.948 -6.248,2.126 l -0.398,3.055 c -0.531,4.074 2.367,6.973 6.441,6.441 L 0,0 Z" id="path26" style="fill:#dd2e44;fill-opacity:1;fill-rule:nonzero;stroke:none"/></g></g></g><g id="g28"><g clip-path="url(#clipPath32)" id="g30"><g id="g36" transform="translate(21.5537,15.9023)"><path d="m 0,0 c -2.846,-2.846 -3.734,-6.572 -1.981,-8.324 1.75,-1.751 5.477,-0.864 8.323,1.982 2.847,2.846 3.733,6.574 1.982,8.324 C 6.572,3.734 2.846,2.846 0,0" id="path38" style="fill:#be1931;fill-opacity:1;fill-rule:nonzero;stroke:none"/></g></g></g><g id="g40"><g clip-path="url(#clipPath44)" id="g42"><g id="g48" transform="translate(9.6616,27.7944)"><path d="m 0,0 c -2.846,-2.846 -3.733,-6.573 -1.982,-8.324 1.752,-1.752 5.478,-0.864 8.324,1.982 2.847,2.846 3.734,6.572 1.982,8.324 C 6.573,3.733 2.846,2.846 0,0" id="path50" style="fill:#be1931;fill-opacity:1;fill-rule:nonzero;stroke:none"/></g></g></g><g id="g52"><g clip-path="url(#clipPath56)" id="g54"><g id="g60" transform="translate(26.3096,11.1465)"><path d="m 0,0 c -4.159,-4.16 -10.903,-4.16 -15.063,0 -4.159,4.159 -4.159,10.903 0,15.063 4.16,4.159 10.904,4.159 15.063,0 C 4.16,10.903 4.16,4.159 0,0" id="path62" style="fill:#dd2e44;fill-opacity:1;fill-rule:nonzero;stroke:none"/></g></g></g><g id="g64"><g clip-path="url(#clipPath68)" id="g66"><g id="g72" transform="translate(18.7085,18.9585)"><path d="m 0,0 c -4.184,-2.535 -11.269,-3.17 -12.486,1.679 -1.162,-2.766 -1.21,-5.46 0.246,-7.156 C -10.783,-7.174 -4.02,-6.988 0,0" id="path74" style="fill:#f5f8fa;fill-opacity:1;fill-rule:nonzero;stroke:none"/></g><g id="g76" transform="translate(18.75,19)"><path d="m 0,0 c 0.643,-4.85 -2.532,-12.044 -7.461,-11.212 2.066,-2.175 4.514,-3.3 6.652,-2.646 C 1.331,-13.205 4.787,-6.486 0,0" id="path78" style="fill:#f5f8fa;fill-opacity:1;fill-rule:nonzero;stroke:none"/></g><g id="g80" transform="translate(18.75,19)"><path d="m 0,0 c 4.65,-0.867 8.234,-5.483 6.392,-10.132 2.557,1.568 5.114,2.564 4.922,4.791 C 11.121,-3.114 7.344,3.328 0,0" id="path82" style="fill:#f5f8fa;fill-opacity:1;fill-rule:nonzero;stroke:none"/></g><g id="g84" transform="translate(18.75,19)"><path d="M 0,0 C 1.541,3.333 8.285,6.246 12.168,3.096 11.439,6.006 11.434,8.516 9.25,9 7.067,9.484 -0.976,8.003 0,0" id="path86" style="fill:#f5f8fa;fill-opacity:1;fill-rule:nonzero;stroke:none"/></g><g id="g88" transform="translate(18.7915,18.9585)"><path d="m 0,0 c -3.875,2.042 -5.792,8.042 -1.792,11.042 -3,0 -6,0 -7,-2 C -9.792,7.042 -8,1 0,0" id="path90" style="fill:#f5f8fa;fill-opacity:1;fill-rule:nonzero;stroke:none"/></g><g id="g92" transform="translate(26.3096,11.1465)"><path d="m 0,0 c -4.159,-4.16 -10.903,-4.16 -15.063,0 -4.159,4.159 -4.159,10.903 0,15.063 4.16,4.159 10.904,4.159 15.063,0 C 4.16,10.903 4.16,4.159 0,0 Z" id="path94" style="fill:none;stroke:#dd2e44;stroke-width:3;stroke-linecap:butt;stroke-linejoin:miter;stroke-miterlimit:10;stroke-dasharray:none;stroke-opacity:1"/></g></g></g></g></svg>