<?xml version="1.0" encoding="UTF-8" standalone="no"?><svg xmlns="http://www.w3.org/2000/svg" xmlns:cc="http://creativecommons.org/ns#" xmlns:dc="http://purl.org/dc/elements/1.1/" xmlns:rdf="http://www.w3.org/1999/02/22-rdf-syntax-ns#" xmlns:svg="http://www.w3.org/2000/svg" height="45" id="svg2" style="enable-background:new 0 0 45 45;" version="1.1" viewBox="0 0 45 45" width="45" xml:space="preserve"><metadata id="metadata8"><rdf:RDF><cc:Work rdf:about=""><dc:format>image/svg+xml</dc:format><dc:type rdf:resource="http://purl.org/dc/dcmitype/StillImage"/></cc:Work></rdf:RDF></metadata><defs id="defs6"><clipPath clipPathUnits="userSpaceOnUse" id="clipPath16"><path d="M 0,36 36,36 36,0 0,0 0,36 Z" id="path18"/></clipPath></defs><g id="g10" transform="matrix(1.25,0,0,-1.25,0,45)"><g id="g12"><g clip-path="url(#clipPath16)" id="g14"><g id="g20" transform="translate(8,9)"><path d="m 0,0 c 0,0 -2,-4 -2,-6 0,-2 4,-3 12,-3 8,0 12,1 12,3 0,2 -2,6 -2,6 L 0,0 Z" id="path22" style="fill:#66757f;fill-opacity:1;fill-rule:nonzero;stroke:none"/></g><g id="g24" transform="translate(9,30)"><path d="m 0,0 c -3,0 -3,-1 -4,-10 -0.994,-8.945 0,-10 4,-10 2,0 2,20 0,20" id="path26" style="fill:#66757f;fill-opacity:1;fill-rule:nonzero;stroke:none"/></g><g id="g28" transform="translate(27,30)"><path d="M 0,0 C 3,0 3,-1 4,-10 4.994,-18.945 4,-20 0,-20 -2,-20 -2,0 0,0" id="path30" style="fill:#66757f;fill-opacity:1;fill-rule:nonzero;stroke:none"/></g><g id="g32" transform="translate(8,33)"><path d="m 0,0 c 0,0 1,3 10,3 9,0 10,-3 10,-3 0,0 1,-6 1,-14 0,-8 -1,-14 -1,-14 0,0 -1,-2 -10,-2 -9,0 -10,2 -10,2 0,0 -1,3 -1,14 0,11 1,14 1,14" id="path34" style="fill:#ccd6dd;fill-opacity:1;fill-rule:nonzero;stroke:none"/></g><g id="g36" transform="translate(28,28)"><path d="m 0,0 c 0,1 -3,4 -10,4 -7,0 -10,-3 -10,-4 0,-0.807 4.548,-1.612 6.311,-1.894 C -13.001,-4.548 -13,-10 -13,-10 c 0.805,3.218 0.315,7.079 0.093,8.467 C -12.705,-0.942 -12.059,0 -10,0 c 3,0 3,-2 3,-2 l 0.002,0 c -0.234,-1.657 -0.565,-5.089 0.162,-8 0,0 0.002,5.491 0.697,8.134 C -4.273,-1.562 0,-0.782 0,0" id="path38" style="fill:#66757f;fill-opacity:1;fill-rule:nonzero;stroke:none"/></g><g id="g40" transform="translate(14,16)"><path d="M 0,0 C 0,1 2,3 4,3 6,3 8,1 8,0 8,-1 7,-1 4,-1 1,-1 0,-1 0,0" id="path42" style="fill:#66757f;fill-opacity:1;fill-rule:nonzero;stroke:none"/></g><g id="g44" transform="translate(12,12)"><path d="M 0,0 C 0,0 2,2 6,2 10,2 12,0 12,0 12,0 10,1 6,1 2,1 0,0 0,0" id="path46" style="fill:#66757f;fill-opacity:1;fill-rule:nonzero;stroke:none"/></g><g id="g48" transform="translate(12,10)"><path d="M 0,0 C 0,1 2,2 6,2 10,2 12,1 12,0 12,-1 11,-1 6,-1 1,-1 0,-1 0,0" id="path50" style="fill:#66757f;fill-opacity:1;fill-rule:nonzero;stroke:none"/></g></g></g></g></svg>