<?xml version="1.0" encoding="UTF-8" standalone="no"?><svg xmlns="http://www.w3.org/2000/svg" xmlns:cc="http://creativecommons.org/ns#" xmlns:dc="http://purl.org/dc/elements/1.1/" xmlns:rdf="http://www.w3.org/1999/02/22-rdf-syntax-ns#" xmlns:svg="http://www.w3.org/2000/svg" height="45" id="svg2" style="enable-background:new 0 0 45 45;" version="1.1" viewBox="0 0 45 45" width="45" xml:space="preserve"><metadata id="metadata8"><rdf:RDF><cc:Work rdf:about=""><dc:format>image/svg+xml</dc:format><dc:type rdf:resource="http://purl.org/dc/dcmitype/StillImage"/></cc:Work></rdf:RDF></metadata><defs id="defs6"><clipPath clipPathUnits="userSpaceOnUse" id="clipPath16"><path d="M 0,36 36,36 36,0 0,0 0,36 Z" id="path18"/></clipPath><clipPath clipPathUnits="userSpaceOnUse" id="clipPath28"><path d="M 24.052,31.33 5.126,12.406 C 1.342,8.62 1.288,4.133 2.856,2.564 l 0,0 C 4.424,0.997 8.912,1.049 12.697,4.835 l 0,0 18.925,18.924 c 3.784,3.785 3.837,8.273 2.269,9.841 l 0,0 c -0.605,0.606 -1.647,0.969 -2.915,0.969 l 0,0 c -2.014,0 -4.602,-0.917 -6.924,-3.239" id="path30"/></clipPath></defs><g id="g10" transform="matrix(1.25,0,0,-1.25,0,45)"><g id="g12"><g clip-path="url(#clipPath16)" id="g14"><g id="g20" transform="translate(12.6968,4.835)"><path d="m 0,0 c -3.785,-3.785 -8.273,-3.838 -9.841,-2.271 -1.568,1.569 -1.514,6.056 2.271,9.841 l 18.925,18.925 c 3.785,3.784 8.271,3.838 9.84,2.27 1.567,-1.568 1.514,-6.056 -2.271,-9.841 L 0,0 Z" id="path22" style="fill:#edb980;fill-opacity:1;fill-rule:nonzero;stroke:none"/></g></g></g><g id="g24"><g clip-path="url(#clipPath28)" id="g26"><g id="g32" transform="translate(27.917,25.9487)"><path d="M 0,0 C -0.837,-0.835 -2.026,0.514 -3.595,2.082 -5.163,3.65 -6.513,4.841 -5.677,5.677 -4.842,6.513 -2.893,5.921 -1.325,4.353 0.243,2.785 0.837,0.836 0,0" id="path34" style="fill:#e5a157;fill-opacity:1;fill-rule:nonzero;stroke:none"/></g><g id="g36" transform="translate(22.998,32.3833)"><path d="M 0,0 C 1.701,-0.19 5.485,-3.974 5.676,-5.678" id="path38" style="fill:none;stroke:#ffd983;stroke-width:1;stroke-linecap:round;stroke-linejoin:round;stroke-miterlimit:10;stroke-dasharray:none;stroke-opacity:1"/></g><g id="g40" transform="translate(23.376,21.4072)"><path d="M 0,0 C -0.837,-0.835 -2.028,0.514 -3.597,2.082 -5.164,3.649 -6.514,4.841 -5.678,5.677 -4.843,6.513 -2.893,5.921 -1.324,4.352 0.243,2.785 0.835,0.836 0,0" id="path42" style="fill:#e5a157;fill-opacity:1;fill-rule:nonzero;stroke:none"/></g><g id="g44" transform="translate(18.4551,27.8413)"><path d="M 0,0 C 1.703,-0.189 5.488,-3.974 5.678,-5.678" id="path46" style="fill:none;stroke:#ffd983;stroke-width:1;stroke-linecap:round;stroke-linejoin:round;stroke-miterlimit:10;stroke-dasharray:none;stroke-opacity:1"/></g><g id="g48" transform="translate(18.834,16.8662)"><path d="M 0,0 C -0.836,-0.837 -2.028,0.513 -3.595,2.081 -5.164,3.649 -6.514,4.84 -5.678,5.676 -4.841,6.512 -2.893,5.92 -1.325,4.351 0.243,2.783 0.837,0.835 0,0" id="path50" style="fill:#e5a157;fill-opacity:1;fill-rule:nonzero;stroke:none"/></g><g id="g52" transform="translate(13.9136,23.2998)"><path d="M 0,0 C 1.703,-0.189 5.488,-3.975 5.677,-5.677" id="path54" style="fill:none;stroke:#ffd983;stroke-width:1;stroke-linecap:round;stroke-linejoin:round;stroke-miterlimit:10;stroke-dasharray:none;stroke-opacity:1"/></g><g id="g56" transform="translate(14.2925,12.3232)"><path d="M 0,0 C -0.836,-0.837 -2.028,0.515 -3.596,2.082 -5.165,3.65 -6.513,4.842 -5.678,5.679 -4.842,6.513 -2.893,5.921 -1.325,4.354 0.243,2.785 0.835,0.837 0,0" id="path58" style="fill:#e5a157;fill-opacity:1;fill-rule:nonzero;stroke:none"/></g><g id="g60" transform="translate(9.3721,18.7578)"><path d="M 0,0 C 1.703,-0.188 5.488,-3.975 5.677,-5.678" id="path62" style="fill:none;stroke:#ffd983;stroke-width:1;stroke-linecap:round;stroke-linejoin:round;stroke-miterlimit:10;stroke-dasharray:none;stroke-opacity:1"/></g><g id="g64" transform="translate(9.7505,7.7822)"><path d="M 0,0 C -0.836,-0.837 -2.028,0.514 -3.596,2.082 -5.165,3.649 -6.513,4.842 -5.678,5.677 -4.841,6.513 -2.893,5.92 -1.325,4.352 0.243,2.783 0.836,0.835 0,0" id="path66" style="fill:#e5a157;fill-opacity:1;fill-rule:nonzero;stroke:none"/></g><g id="g68" transform="translate(4.8301,14.2158)"><path d="M 0,0 C 1.703,-0.189 5.488,-3.974 5.677,-5.677" id="path70" style="fill:none;stroke:#ffd983;stroke-width:1;stroke-linecap:round;stroke-linejoin:round;stroke-miterlimit:10;stroke-dasharray:none;stroke-opacity:1"/></g></g></g></g></svg>