<?xml version="1.0" encoding="UTF-8" standalone="no"?><svg xmlns="http://www.w3.org/2000/svg" xmlns:cc="http://creativecommons.org/ns#" xmlns:dc="http://purl.org/dc/elements/1.1/" xmlns:rdf="http://www.w3.org/1999/02/22-rdf-syntax-ns#" xmlns:svg="http://www.w3.org/2000/svg" height="45" id="svg2" style="enable-background:new 0 0 45 45;" version="1.1" viewBox="0 0 45 45" width="45" xml:space="preserve"><metadata id="metadata8"><rdf:RDF><cc:Work rdf:about=""><dc:format>image/svg+xml</dc:format><dc:type rdf:resource="http://purl.org/dc/dcmitype/StillImage"/></cc:Work></rdf:RDF></metadata><defs id="defs6"/><g id="g10" transform="matrix(1.25,0,0,-1.25,0,45)"><g id="g12" transform="translate(17.9415,26.4708)"><path d="m 0,0 -16.942,-20.119 6.353,-6.352 22.235,13.765 4.235,9.529 L 10.588,2.118 0,0 Z" id="path14" style="fill:#c1694f;fill-opacity:1;fill-rule:nonzero;stroke:none"/></g><g id="g16" transform="translate(0.9999,6.3522)"><path d="m 0,0 6.353,-6.352 0,8 L 0,7.648 0,0 Z" id="path18" style="fill:#662113;fill-opacity:1;fill-rule:nonzero;stroke:none"/></g><g id="g20" transform="translate(34,31)"><path d="m 0,0 0,-7.706 -4.412,-9.529 0,7.235 L -6,-3 0,0 Z" id="path22" style="fill:#a04e3c;fill-opacity:1;fill-rule:nonzero;stroke:none"/></g><g id="g24" transform="translate(28.5291,36)"><path d="M 0,0 -10.588,-2.118 -27.529,-22 -21.176,-28.588 1.058,-14.824 5.471,-5 0,0 Z" id="path26" style="fill:#d99e82;fill-opacity:1;fill-rule:nonzero;stroke:none"/></g><g id="g28" transform="translate(12,7)"><path d="M 0,0 3,2" id="path30" style="fill:none;stroke:#ffac33;stroke-width:2;stroke-linecap:round;stroke-linejoin:round;stroke-miterlimit:10;stroke-dasharray:none;stroke-opacity:1"/></g><g id="g32" transform="translate(23,14)"><path d="M 0,0 3,2" id="path34" style="fill:none;stroke:#ffac33;stroke-width:2;stroke-linecap:round;stroke-linejoin:round;stroke-miterlimit:10;stroke-dasharray:none;stroke-opacity:1"/></g><g id="g36" transform="translate(21,31)"><path d="m 0,0 -15,-16 3,-3 L 6,-6 8,-1 6,1 0,0 Z" id="path38" style="fill:none;stroke:#c1694f;stroke-width:2;stroke-linecap:round;stroke-linejoin:round;stroke-miterlimit:10;stroke-dasharray:none;stroke-opacity:1"/></g></g></svg>