<?xml version="1.0" encoding="UTF-8" standalone="no"?><svg xmlns="http://www.w3.org/2000/svg" xmlns:cc="http://creativecommons.org/ns#" xmlns:dc="http://purl.org/dc/elements/1.1/" xmlns:rdf="http://www.w3.org/1999/02/22-rdf-syntax-ns#" xmlns:svg="http://www.w3.org/2000/svg" height="45" id="svg2" style="enable-background:new 0 0 45 45;" version="1.1" viewBox="0 0 45 45" width="45" xml:space="preserve"><metadata id="metadata8"><rdf:RDF><cc:Work rdf:about=""><dc:format>image/svg+xml</dc:format><dc:type rdf:resource="http://purl.org/dc/dcmitype/StillImage"/></cc:Work></rdf:RDF></metadata><defs id="defs6"><clipPath clipPathUnits="userSpaceOnUse" id="clipPath16"><path d="M 0,36 36,36 36,0 0,0 0,36 Z" id="path18"/></clipPath></defs><g id="g10" transform="matrix(1.25,0,0,-1.25,0,45)"><g id="g12"><g clip-path="url(#clipPath16)" id="g14"><g id="g20" transform="translate(19,36)"><path d="M 0,0 C -1.721,0 -3.343,-0.406 -4.794,-1.111 -5.186,-1.042 -5.588,-1 -6,-1 c -3.866,0 -7,-3.134 -7,-7 l 0,-12 0.018,0 c 0.183,-6.467 5.471,-11.656 11.982,-11.656 6.511,0 11.799,5.189 11.982,11.656 l 0.018,0 0,9 C 11,-4.925 6.075,0 0,0" id="path22" style="fill:#963b22;fill-opacity:1;fill-rule:nonzero;stroke:none"/></g><g id="g24" transform="translate(27,15)"><path d="m 0,0 -18,0 c -2.209,0 -4,-1.791 -4,-4 l 0,-11 5,0 16,0 5,0 0,11 C 4,-1.791 2.209,0 0,0" id="path26" style="fill:#9268ca;fill-opacity:1;fill-rule:nonzero;stroke:none"/></g><g id="g28" transform="translate(14,31)"><path d="M 0,0 C 0,0 -0.003,-5.308 -5,-5.936 L -5,-12 c 0,-4.971 4.029,-9 9,-9 4.971,0 9,4.029 9,9 l 0,5.019 C 1.89,-6.605 0,0 0,0" id="path30" style="fill:#d5ab88;fill-opacity:1;fill-rule:nonzero;stroke:none"/></g><path d="m 10,9 1,0 0,-9 -1,0 0,9 z" id="path32" style="fill:#7450a8;fill-opacity:1;fill-rule:nonzero;stroke:none"/><g id="g34" transform="translate(4.7021,9.5049)"><path d="m 0,0 -0.283,0.059 -0.511,0 c 0,0.057 0.023,0.112 0.035,0.169 -0.347,0.214 -0.546,0.625 -0.458,1.047 0.113,0.542 0.643,0.89 1.186,0.78 l 2.091,-0.433 1.675,0 c 0.864,0 1.563,-0.7 1.563,-1.563 l 0,-0.783 0,-0.781 -3.747,0 C 1.551,-1.505 0.07,-0.836 0,0" id="path36" style="fill:#b78b60;fill-opacity:1;fill-rule:nonzero;stroke:none"/></g><g id="g38" transform="translate(0,10.3447)"><path d="M 0,0 C 0,0.432 0.35,0.782 0.781,0.782 L 5.472,0 9.219,0 C 9.65,0 10,-0.351 10,-0.781 l 0,-1.564 -1.401,0 -3.599,0 -4.219,1.564 C 0.781,-0.781 0,-0.432 0,0" id="path40" style="fill:#d5ab88;fill-opacity:1;fill-rule:nonzero;stroke:none"/></g><g id="g42" transform="translate(4,0)"><path d="M 0,0 6,0 6,8 1,8 0,0 Z" id="path44" style="fill:#9268ca;fill-opacity:1;fill-rule:nonzero;stroke:none"/></g><path d="m 26,9 -1,0 0,-9 1,0 0,9 z" id="path46" style="fill:#7450a8;fill-opacity:1;fill-rule:nonzero;stroke:none"/><g id="g48" transform="translate(31.2979,9.5049)"><path d="m 0,0 0.283,0.059 0.511,0 c 0,0.057 -0.023,0.112 -0.035,0.169 0.347,0.214 0.546,0.625 0.458,1.047 -0.113,0.542 -0.643,0.89 -1.186,0.78 l -2.091,-0.433 -1.675,0 c -0.864,0 -1.563,-0.7 -1.563,-1.563 l 0,-0.783 0,-0.781 3.747,0 c 0,0 1.481,0.669 1.551,1.505" id="path50" style="fill:#b78b60;fill-opacity:1;fill-rule:nonzero;stroke:none"/></g><g id="g52" transform="translate(36,10.3447)"><path d="M 0,0 C 0,0.432 -0.35,0.782 -0.781,0.782 L -5.472,0 -9.219,0 C -9.65,0 -10,-0.351 -10,-0.781 l 0,-1.564 1.401,0 3.599,0 4.219,1.564 C -0.781,-0.781 0,-0.432 0,0" id="path54" style="fill:#d5ab88;fill-opacity:1;fill-rule:nonzero;stroke:none"/></g><g id="g56" transform="translate(32,0)"><path d="m 0,0 -6,0 0,8 5,0 1,-8 z" id="path58" style="fill:#9268ca;fill-opacity:1;fill-rule:nonzero;stroke:none"/></g><g id="g60" transform="translate(19,16.5)"><path d="M 0,0 -2,0 C -2.276,0 -2.5,0.224 -2.5,0.5 -2.5,0.776 -2.276,1 -2,1 L 0,1 C 0.276,1 0.5,0.776 0.5,0.5 0.5,0.224 0.276,0 0,0" id="path62" style="fill:#c1694f;fill-opacity:1;fill-rule:nonzero;stroke:none"/></g><g id="g64" transform="translate(20.5,13)"><path d="M 0,0 -0.5,0 C -0.776,0 -1,0.224 -1,0.5 -1,0.776 -0.776,1 -0.5,1 L 0,1 C 0.276,1 0.5,0.776 0.5,0.5 0.5,0.224 0.276,0 0,0" id="path66" style="fill:#df1f32;fill-opacity:1;fill-rule:nonzero;stroke:none"/></g><g id="g68" transform="translate(14,20)"><path d="m 0,0 c -0.552,0 -1,0.448 -1,1 l 0,1 C -1,2.552 -0.552,3 0,3 0.552,3 1,2.552 1,2 L 1,1 C 1,0.448 0.552,0 0,0" id="path70" style="fill:#662113;fill-opacity:1;fill-rule:nonzero;stroke:none"/></g><g id="g72" transform="translate(22,20)"><path d="m 0,0 c -0.553,0 -1,0.448 -1,1 l 0,1 C -1,2.552 -0.553,3 0,3 0.553,3 1,2.552 1,2 L 1,1 C 1,0.448 0.553,0 0,0" id="path74" style="fill:#662113;fill-opacity:1;fill-rule:nonzero;stroke:none"/></g></g></g></g></svg>