<?xml version="1.0" encoding="UTF-8" standalone="no"?><svg xmlns="http://www.w3.org/2000/svg" xmlns:cc="http://creativecommons.org/ns#" xmlns:dc="http://purl.org/dc/elements/1.1/" xmlns:rdf="http://www.w3.org/1999/02/22-rdf-syntax-ns#" xmlns:svg="http://www.w3.org/2000/svg" height="45" id="svg2" style="enable-background:new 0 0 45 45;" version="1.1" viewBox="0 0 45 45" width="45" xml:space="preserve"><metadata id="metadata8"><rdf:RDF><cc:Work rdf:about=""><dc:format>image/svg+xml</dc:format><dc:type rdf:resource="http://purl.org/dc/dcmitype/StillImage"/></cc:Work></rdf:RDF></metadata><defs id="defs6"><clipPath clipPathUnits="userSpaceOnUse" id="clipPath16"><path d="M 0,36 36,36 36,0 0,0 0,36 Z" id="path18"/></clipPath></defs><g id="g10" transform="matrix(1.25,0,0,-1.25,0,45)"><g id="g12"><g clip-path="url(#clipPath16)" id="g14"><g id="g20" transform="translate(26.7969,7.2187)"><path d="m 0,0 c 0.484,-1.109 -0.268,-2.391 0.739,-4.323 1.088,-2.087 3.654,-2.801 5.292,-2.818 1.078,-0.01 1.189,0.448 0.759,0.667 -0.681,0.349 -0.598,0.871 -0.598,0.871 0,0 0.464,-0.428 1.308,-0.663 0.621,-0.172 1.307,-0.215 1.518,0.379 0.181,0.51 -1.648,0.142 -2.492,1.954 1.092,-0.494 1.693,-0.223 2.146,0.152 0.257,0.213 0.453,0.625 0.109,0.5 -0.343,-0.125 -2.703,-0.391 -3.047,2.062 1.088,-1.231 2.403,-1.122 3.019,-0.708 0.403,0.271 0.503,0.803 0.11,0.621 C 7.441,-1.962 6.812,-0.7 5.889,0.551 4.775,2.058 2.953,1.547 2.203,1.875 1.927,1.996 0,0 0,0" id="path22" style="fill:#292f33;fill-opacity:1;fill-rule:nonzero;stroke:none"/></g><g id="g24" transform="translate(10.0874,29.1489)"><path d="m 0,0 c 0.895,-0.895 0.895,-2.345 0,-3.24 -0.895,-0.894 -2.345,-0.894 -3.24,0 -0.894,0.895 -0.894,2.345 0,3.24 0.895,0.895 2.345,0.895 3.24,0" id="path26" style="fill:#553788;fill-opacity:1;fill-rule:nonzero;stroke:none"/></g><g id="g28" transform="translate(7.2271,25.7822)"><path d="m 0,0 c 0.895,-0.895 0.895,-2.345 0,-3.24 -0.895,-0.894 -2.345,-0.894 -3.239,0 -0.894,0.895 -0.894,2.345 0,3.24 0.894,0.895 2.344,0.895 3.239,0" id="path30" style="fill:#553788;fill-opacity:1;fill-rule:nonzero;stroke:none"/></g><g id="g32" transform="translate(5.0513,21.9355)"><path d="m 0,0 c 0.894,-0.895 0.894,-2.345 0,-3.24 -0.895,-0.895 -2.345,-0.895 -3.24,0 -0.894,0.895 -0.894,2.345 0,3.24 0.895,0.894 2.345,0.894 3.24,0" id="path34" style="fill:#553788;fill-opacity:1;fill-rule:nonzero;stroke:none"/></g><g id="g36" transform="translate(4.0391,17.6831)"><path d="m 0,0 c 0.894,-0.895 0.894,-2.344 0,-3.24 -0.895,-0.894 -2.346,-0.894 -3.241,0 -0.894,0.896 -0.894,2.345 0,3.24 0.895,0.895 2.346,0.895 3.241,0" id="path38" style="fill:#553788;fill-opacity:1;fill-rule:nonzero;stroke:none"/></g><g id="g40" transform="translate(4.4937,13.3301)"><path d="m 0,0 c 0.895,-0.895 0.895,-2.346 0,-3.239 -0.894,-0.895 -2.345,-0.895 -3.239,0 -0.895,0.893 -0.895,2.344 0,3.239 0.894,0.895 2.345,0.895 3.239,0" id="path42" style="fill:#553788;fill-opacity:1;fill-rule:nonzero;stroke:none"/></g><g id="g44" transform="translate(6.8477,9.7109)"><path d="m 0,0 c 0.895,-0.895 0.895,-2.346 0,-3.24 -0.895,-0.895 -2.344,-0.895 -3.24,0 -0.894,0.894 -0.894,2.345 0,3.24 0.896,0.895 2.345,0.895 3.24,0" id="path46" style="fill:#553788;fill-opacity:1;fill-rule:nonzero;stroke:none"/></g><g id="g48" transform="translate(10.9229,8.3193)"><path d="m 0,0 c 0.895,-0.896 0.895,-2.346 0,-3.24 -0.895,-0.894 -2.345,-0.894 -3.24,0 -0.894,0.894 -0.894,2.344 0,3.24 0.895,0.894 2.345,0.894 3.24,0" id="path50" style="fill:#553788;fill-opacity:1;fill-rule:nonzero;stroke:none"/></g><g id="g52" transform="translate(15.3267,7.7119)"><path d="m 0,0 c 0.895,-0.895 0.895,-2.346 0,-3.241 -0.895,-0.893 -2.345,-0.893 -3.24,0 -0.894,0.895 -0.894,2.346 0,3.241 0.895,0.894 2.345,0.894 3.24,0" id="path54" style="fill:#553788;fill-opacity:1;fill-rule:nonzero;stroke:none"/></g><g id="g56" transform="translate(19.6035,8.1934)"><path d="m 0,0 c 0.896,-0.896 0.896,-2.346 0,-3.241 -0.894,-0.894 -2.345,-0.894 -3.239,0 -0.895,0.895 -0.895,2.345 0,3.241 0.894,0.893 2.345,0.893 3.239,0" id="path58" style="fill:#553788;fill-opacity:1;fill-rule:nonzero;stroke:none"/></g><g id="g60" transform="translate(23.8057,9.6602)"><path d="m 0,0 c 0.895,-0.895 0.895,-2.346 0,-3.239 -0.895,-0.895 -2.346,-0.895 -3.24,0 -0.896,0.893 -0.896,2.344 0,3.239 0.894,0.895 2.345,0.895 3.24,0" id="path62" style="fill:#553788;fill-opacity:1;fill-rule:nonzero;stroke:none"/></g><g id="g64" transform="translate(10.2139,28.7686)"><path d="m 0,0 c 0.895,-0.895 2.345,-0.895 3.24,0 0.894,0.895 0.894,2.346 0,3.24 C 2.345,4.134 0.895,4.134 0,3.24 -0.895,2.346 -0.895,0.895 0,0" id="path66" style="fill:#553788;fill-opacity:1;fill-rule:nonzero;stroke:none"/></g><g id="g68" transform="translate(14.0605,30.9453)"><path d="m 0,0 c 0.896,-0.894 2.346,-0.894 3.24,0 0.895,0.895 0.895,2.345 0,3.24 C 2.346,4.134 0.896,4.134 0,3.24 -0.895,2.345 -0.895,0.895 0,0" id="path70" style="fill:#553788;fill-opacity:1;fill-rule:nonzero;stroke:none"/></g><g id="g72" transform="translate(18.313,31.9575)"><path d="m 0,0 c 0.895,-0.894 2.345,-0.894 3.24,0 0.894,0.895 0.894,2.345 0,3.24 C 2.345,4.134 0.895,4.134 0,3.24 -0.895,2.345 -0.895,0.895 0,0" id="path74" style="fill:#553788;fill-opacity:1;fill-rule:nonzero;stroke:none"/></g><g id="g76" transform="translate(22.666,31.5024)"><path d="m 0,0 c 0.896,-0.895 2.346,-0.895 3.24,0 0.894,0.894 0.894,2.345 0,3.239 C 2.346,4.134 0.896,4.134 0,3.239 -0.895,2.345 -0.895,0.894 0,0" id="path78" style="fill:#553788;fill-opacity:1;fill-rule:nonzero;stroke:none"/></g><g id="g80" transform="translate(26.2861,29.1489)"><path d="m 0,0 c 0.894,-0.895 2.344,-0.895 3.238,0 0.896,0.895 0.896,2.344 0,3.239 C 2.344,4.133 0.894,4.133 0,3.239 -0.896,2.344 -0.896,0.895 0,0" id="path82" style="fill:#553788;fill-opacity:1;fill-rule:nonzero;stroke:none"/></g><g id="g84" transform="translate(27.6768,25.0737)"><path d="m 0,0 c 0.895,-0.895 2.346,-0.895 3.241,0 0.893,0.895 0.893,2.344 0,3.24 C 2.346,4.134 0.895,4.134 0,3.24 -0.894,2.344 -0.894,0.895 0,0" id="path86" style="fill:#553788;fill-opacity:1;fill-rule:nonzero;stroke:none"/></g><g id="g88" transform="translate(28.2852,20.6699)"><path d="m 0,0 c 0.895,-0.895 2.345,-0.895 3.24,0 0.893,0.895 0.893,2.345 0,3.239 C 2.345,4.134 0.895,4.134 0,3.239 -0.895,2.345 -0.895,0.895 0,0" id="path90" style="fill:#553788;fill-opacity:1;fill-rule:nonzero;stroke:none"/></g><g id="g92" transform="translate(27.8037,16.3926)"><path d="m 0,0 c 0.895,-0.895 2.345,-0.895 3.24,0 0.894,0.894 0.894,2.345 0,3.239 C 2.345,4.134 0.895,4.134 0,3.239 -0.893,2.345 -0.893,0.894 0,0" id="path94" style="fill:#553788;fill-opacity:1;fill-rule:nonzero;stroke:none"/></g><g id="g96" transform="translate(26.3359,12.1895)"><path d="m 0,0 c 0.895,-0.894 2.346,-0.894 3.239,0 0.895,0.896 0.895,2.347 0,3.241 C 2.346,4.136 0.895,4.136 0,3.241 -0.895,2.347 -0.895,0.896 0,0" id="path98" style="fill:#553788;fill-opacity:1;fill-rule:nonzero;stroke:none"/></g><g id="g100" transform="translate(28.1533,11.417)"><path d="m 0,0 c -0.993,0.993 -2.605,0.993 -3.599,0 -0.995,-0.993 -0.995,-2.605 0,-3.599 L -1.2,-4.799 1.2,-2.398 0,0 Z" id="path102" style="fill:#f4900c;fill-opacity:1;fill-rule:nonzero;stroke:none"/></g></g></g></g></svg>