<?xml version="1.0" encoding="UTF-8" standalone="no"?><svg xmlns="http://www.w3.org/2000/svg" xmlns:cc="http://creativecommons.org/ns#" xmlns:dc="http://purl.org/dc/elements/1.1/" xmlns:rdf="http://www.w3.org/1999/02/22-rdf-syntax-ns#" xmlns:svg="http://www.w3.org/2000/svg" height="45" id="svg2" style="enable-background:new 0 0 45 45;" version="1.1" viewBox="0 0 45 45" width="45" xml:space="preserve"><metadata id="metadata8"><rdf:RDF><cc:Work rdf:about=""><dc:format>image/svg+xml</dc:format><dc:type rdf:resource="http://purl.org/dc/dcmitype/StillImage"/></cc:Work></rdf:RDF></metadata><defs id="defs6"><clipPath clipPathUnits="userSpaceOnUse" id="clipPath16"><path d="M 0,36 36,36 36,0 0,0 0,36 Z" id="path18"/></clipPath></defs><g id="g10" transform="matrix(1.25,0,0,-1.25,0,45)"><g id="g12"><g clip-path="url(#clipPath16)" id="g14"><g id="g20" transform="translate(25,24.1558)"><path d="M 0,0 C 2.297,0.669 3.315,3.565 3.734,5.369 4.687,3.892 6.77,1.689 11,0.564 l 0,10.855 c -0.955,0.271 -1.959,0.425 -3,0.425 -6.075,0 -11,-4.925 -11,-11 0,-3.009 1.211,-5.733 3.168,-7.719 C 0.061,-6.318 0,-5.744 0,-5.156 L 0,0 Z" id="path22" style="fill:#ffac33;fill-opacity:1;fill-rule:nonzero;stroke:none"/></g><g id="g24" transform="translate(30,20)"><path d="m 0,0 c -0.553,0 -1,0.448 -1,1 l 0,1 C -1,2.552 -0.553,3 0,3 0.553,3 1,2.552 1,2 L 1,1 C 1,0.448 0.553,0 0,0 m 3,-2.5 2,0 C 5.276,-2.5 5.5,-2.724 5.5,-3 5.5,-3.276 5.276,-3.5 5,-3.5 l -2,0 c -0.276,0 -0.5,0.224 -0.5,0.5 0,0.276 0.224,0.5 0.5,0.5 M 4,-6 6,-6 6,4.72 C 1.77,5.845 -0.313,8.048 -1.266,9.524 -1.685,7.721 -2.703,4.825 -5,4.156 L -5,-1 c 0,-0.589 0.061,-1.162 0.168,-1.719 C -4.222,-5.87 -1.968,-8.426 1,-9.477 L 1,-11 l 3,-5 2,3.396 0,4.967 C 5.462,-7.849 4.809,-8 4,-8 1,-8 0,-6 0,-6 l 1,0 3,0 z" id="path26" style="fill:#ffdc5d;fill-opacity:1;fill-rule:nonzero;stroke:none"/></g><g id="g28" transform="translate(36,7.3959)"><path d="m 0,0 -2,-3.396 -3,5 -2,0 -4,0 c -2.209,0 -4,-1.791 -4,-4 l 0,-5 15,0 L 0,0 Z" id="path30" style="fill:#3b94d9;fill-opacity:1;fill-rule:nonzero;stroke:none"/></g><path d="m 25,0 1,0 0,4 -1,0 0,-4 z" id="path32" style="fill:#1c6399;fill-opacity:1;fill-rule:nonzero;stroke:none"/><g id="g34" transform="translate(31,14)"><path d="m 0,0 -1,0 c 0,0 1,-2 4,-2 0.809,0 1.462,0.151 2,0.363 L 5,0 3,0 0,0 Z" id="path36" style="fill:#bf6952;fill-opacity:1;fill-rule:nonzero;stroke:none"/></g><g id="g38" transform="translate(30,20)"><path d="M 0,0 C 0.553,0 1,0.448 1,1 L 1,2 C 1,2.552 0.553,3 0,3 -0.553,3 -1,2.552 -1,2 L -1,1 C -1,0.448 -0.553,0 0,0" id="path40" style="fill:#662113;fill-opacity:1;fill-rule:nonzero;stroke:none"/></g><g id="g42" transform="translate(33,16.5)"><path d="M 0,0 2,0 C 2.276,0 2.5,0.224 2.5,0.5 2.5,0.776 2.276,1 2,1 L 0,1 C -0.276,1 -0.5,0.776 -0.5,0.5 -0.5,0.224 -0.276,0 0,0" id="path44" style="fill:#bf6952;fill-opacity:1;fill-rule:nonzero;stroke:none"/></g><g id="g46" transform="translate(11,24.1558)"><path d="M 0,0 C -2.297,0.669 -3.315,3.565 -3.734,5.369 -4.687,3.892 -6.77,1.689 -11,0.564 l 0,10.855 c 0.955,0.271 1.959,0.425 3,0.425 6.075,0 11,-4.925 11,-11 C 3,-2.165 1.789,-4.889 -0.168,-6.875 -0.061,-6.318 0,-5.744 0,-5.156 L 0,0 Z" id="path48" style="fill:#ffac33;fill-opacity:1;fill-rule:nonzero;stroke:none"/></g><g id="g50" transform="translate(5,21)"><path d="M 0,0 0,1 C 0,1.552 0.447,2 1,2 1.553,2 2,1.552 2,1 L 2,0 C 2,-0.552 1.553,-1 1,-1 0.447,-1 0,-0.552 0,0 m -1.5,-4 c 0,-0.276 -0.224,-0.5 -0.5,-0.5 l -2,0 c -0.276,0 -0.5,0.224 -0.5,0.5 0,0.276 0.224,0.5 0.5,0.5 l 2,0 c 0.276,0 0.5,-0.224 0.5,-0.5 M 0,-7 1,-7 c 0,0 -1,-2 -4,-2 -0.809,0 -1.462,0.151 -2,0.363 l 0,-4.967 2,-3.396 3,5 0,1.523 C 2.968,-9.426 5.222,-6.87 5.832,-3.719 5.939,-3.162 6,-2.589 6,-2 L 6,3.156 C 3.703,3.825 2.685,6.721 2.266,8.524 1.313,7.048 -0.77,4.845 -5,3.72 L -5,-7 l 2,0 3,0 z" id="path52" style="fill:#ffdc5d;fill-opacity:1;fill-rule:nonzero;stroke:none"/></g><g id="g54" transform="translate(0,7.3959)"><path d="m 0,0 2,-3.396 3,5 2,0 4,0 c 2.209,0 4,-1.791 4,-4 l 0,-5 -15,0 L 0,0 Z" id="path56" style="fill:#3b94d9;fill-opacity:1;fill-rule:nonzero;stroke:none"/></g><g id="g58" transform="translate(11,4)"><path d="m 0,0 0,-4 -1,0 0,4 1,0 z" id="path60" style="fill:#1c6399;fill-opacity:1;fill-rule:nonzero;stroke:none"/></g><g id="g62" transform="translate(5,14)"><path d="m 0,0 1,0 c 0,0 -1,-2 -4,-2 -0.809,0 -1.462,0.151 -2,0.363 L -5,0 -3,0 0,0 Z" id="path64" style="fill:#bf6952;fill-opacity:1;fill-rule:nonzero;stroke:none"/></g><g id="g66" transform="translate(6,20)"><path d="m 0,0 c -0.553,0 -1,0.448 -1,1 l 0,1 C -1,2.552 -0.553,3 0,3 0.553,3 1,2.552 1,2 L 1,1 C 1,0.448 0.553,0 0,0" id="path68" style="fill:#662113;fill-opacity:1;fill-rule:nonzero;stroke:none"/></g><g id="g70" transform="translate(3,16.5)"><path d="M 0,0 -2,0 C -2.276,0 -2.5,0.224 -2.5,0.5 -2.5,0.776 -2.276,1 -2,1 L 0,1 C 0.276,1 0.5,0.776 0.5,0.5 0.5,0.224 0.276,0 0,0" id="path72" style="fill:#bf6952;fill-opacity:1;fill-rule:nonzero;stroke:none"/></g><g id="g74" transform="translate(26.5385,31.2891)"><path d="m 0,0 c 0,2.601 -2.109,4.711 -4.711,4.711 -1.579,0 -2.972,-0.78 -3.828,-1.972 -0.855,1.192 -2.249,1.972 -3.827,1.972 -2.602,0 -4.711,-2.11 -4.711,-4.711 0,-0.369 0.047,-0.727 0.127,-1.07 0.654,-4.065 5.173,-8.353 8.411,-9.53 3.238,1.177 7.758,5.465 8.412,9.529 C -0.047,-0.727 0,-0.369 0,0" id="path76" style="fill:#e75a70;fill-opacity:1;fill-rule:nonzero;stroke:none"/></g></g></g></g></svg>