<?xml version="1.0" encoding="UTF-8" standalone="no"?><svg xmlns="http://www.w3.org/2000/svg" xmlns:cc="http://creativecommons.org/ns#" xmlns:dc="http://purl.org/dc/elements/1.1/" xmlns:rdf="http://www.w3.org/1999/02/22-rdf-syntax-ns#" xmlns:svg="http://www.w3.org/2000/svg" height="45" id="svg2" style="enable-background:new 0 0 45 45;" version="1.1" viewBox="0 0 45 45" width="45" xml:space="preserve"><metadata id="metadata8"><rdf:RDF><cc:Work rdf:about=""><dc:format>image/svg+xml</dc:format><dc:type rdf:resource="http://purl.org/dc/dcmitype/StillImage"/></cc:Work></rdf:RDF></metadata><defs id="defs6"><clipPath clipPathUnits="userSpaceOnUse" id="clipPath16"><path d="M 0,36 36,36 36,0 0,0 0,36 Z" id="path18"/></clipPath></defs><g id="g10" transform="matrix(1.25,0,0,-1.25,0,45)"><g id="g12"><g clip-path="url(#clipPath16)" id="g14"><g id="g20" transform="translate(11.626,28.5117)"><path d="m 0,0 c -0.112,-0.112 -0.197,-0.247 -0.268,-0.395 l -0.008,0.008 -11.216,-25.265 0.011,-0.011 c -0.208,-0.403 0.14,-1.223 0.853,-1.937 0.712,-0.712 1.532,-1.06 1.935,-0.852 l 0.01,-0.01 25.267,11.215 -0.008,0.009 c 0.148,0.07 0.282,0.155 0.395,0.268 1.562,1.562 -0.971,6.627 -5.657,11.313 C 6.628,-0.97 1.562,1.562 0,0" id="path22" style="fill:#dd2e44;fill-opacity:1;fill-rule:nonzero;stroke:none"/></g><g id="g24" transform="translate(13,24)"><path d="m 0,0 -12.584,-20.506 -0.282,-0.635 0.011,-0.01 c -0.208,-0.404 0.14,-1.223 0.853,-1.937 0.232,-0.232 0.472,-0.408 0.709,-0.557 L 4,-5 0,0 Z" id="path26" style="fill:#ea596e;fill-opacity:1;fill-rule:nonzero;stroke:none"/></g><g id="g28" transform="translate(23.0117,22.9341)"><path d="m 0,0 c 4.67,-4.672 7.263,-9.652 5.789,-11.124 -1.473,-1.474 -6.453,1.118 -11.126,5.788 -4.671,4.672 -7.263,9.653 -5.79,11.126 C -9.653,7.264 -4.673,4.671 0,0" id="path30" style="fill:#a0041e;fill-opacity:1;fill-rule:nonzero;stroke:none"/></g><g id="g32" transform="translate(18.5898,22.3906)"><path d="m 0,0 c -0.199,-0.161 -0.459,-0.245 -0.734,-0.215 -0.868,0.094 -1.597,0.396 -2.109,0.873 -0.541,0.505 -0.808,1.182 -0.735,1.862 0.128,1.192 1.324,2.286 3.363,2.066 0.793,-0.085 1.147,0.169 1.158,0.291 0.014,0.121 -0.277,0.446 -1.069,0.532 -0.869,0.094 -1.598,0.396 -2.11,0.873 -0.541,0.505 -0.809,1.183 -0.735,1.862 0.13,1.193 1.325,2.286 3.362,2.066 0.578,-0.063 0.882,0.057 1.011,0.134 0.104,0.063 0.145,0.123 0.149,0.158 0.011,0.12 -0.276,0.445 -1.071,0.531 -0.548,0.06 -0.946,0.553 -0.886,1.102 0.059,0.549 0.551,0.946 1.101,0.886 C 2.732,12.802 3.668,11.479 3.539,10.286 3.41,9.094 2.215,8.001 0.176,8.221 -0.402,8.284 -0.704,8.164 -0.834,8.087 -0.937,8.024 -0.979,7.963 -0.983,7.93 -0.996,7.808 -0.706,7.483 0.088,7.398 2.125,7.178 3.061,5.855 2.932,4.662 2.803,3.47 1.607,2.376 -0.43,2.597 -1.008,2.659 -1.312,2.54 -1.442,2.463 -1.545,2.4 -1.585,2.339 -1.589,2.305 -1.602,2.184 -1.313,1.859 -0.519,1.774 0.029,1.714 0.428,1.221 0.367,0.672 0.338,0.397 0.199,0.161 0,0" id="path34" style="fill:#aa8dd8;fill-opacity:1;fill-rule:nonzero;stroke:none"/></g><g id="g36" transform="translate(30.6611,13.1426)"><path d="M 0,0 C 1.973,0.557 3.334,-0.323 3.658,-1.478 3.982,-2.632 3.28,-4.093 1.309,-4.647 0.539,-4.863 0.308,-5.231 0.339,-5.349 c 0.034,-0.118 0.425,-0.312 1.193,-0.094 1.972,0.554 3.333,-0.326 3.657,-1.48 0.327,-1.155 -0.377,-2.614 -2.35,-3.17 -0.769,-0.216 -1.001,-0.585 -0.967,-0.702 0.033,-0.117 0.423,-0.31 1.192,-0.095 0.531,0.15 1.084,-0.16 1.234,-0.691 0.148,-0.532 -0.161,-1.084 -0.694,-1.234 -1.97,-0.555 -3.333,0.323 -3.659,1.479 -0.324,1.154 0.379,2.613 2.353,3.169 0.769,0.217 1.001,0.584 0.967,0.702 -0.033,0.117 -0.422,0.312 -1.191,0.096 -1.973,-0.556 -3.334,0.322 -3.659,1.478 -0.325,1.155 0.378,2.614 2.352,3.17 0.767,0.215 0.999,0.585 0.966,0.701 -0.034,0.119 -0.422,0.313 -1.192,0.096 -0.532,-0.15 -1.083,0.16 -1.233,0.692 C -0.842,-0.701 -0.532,-0.149 0,0" id="path38" style="fill:#77b255;fill-opacity:1;fill-rule:nonzero;stroke:none"/></g><g id="g40" transform="translate(23.001,15.8398)"><path d="M 0,0 C -0.294,0 -0.584,0.129 -0.782,0.375 -1.127,0.807 -1.057,1.436 -0.626,1.781 -0.408,1.956 4.792,6.04 12.141,4.989 12.688,4.911 13.067,4.405 12.989,3.858 12.911,3.312 12.409,2.928 11.857,3.01 5.364,3.932 0.67,0.256 0.624,0.219 0.439,0.071 0.219,0 0,0" id="path42" style="fill:#aa8dd8;fill-opacity:1;fill-rule:nonzero;stroke:none"/></g><g id="g44" transform="translate(5.7544,20)"><path d="m 0,0 c -0.095,0 -0.192,0.014 -0.288,0.042 -0.529,0.159 -0.829,0.717 -0.67,1.246 1.133,3.773 2.16,9.793 0.898,11.363 -0.142,0.178 -0.354,0.353 -0.842,0.316 -0.939,-0.071 -0.849,-2.051 -0.848,-2.071 0.042,-0.551 -0.372,-1.031 -0.922,-1.072 -0.559,-0.034 -1.032,0.372 -1.072,0.923 -0.104,1.379 0.326,4.035 2.691,4.214 C 0.003,15.041 0.88,14.674 1.5,13.904 3.871,10.953 1.464,2.398 0.957,0.712 0.827,0.279 0.43,0 0,0" id="path46" style="fill:#77b255;fill-opacity:1;fill-rule:nonzero;stroke:none"/></g><g id="g48" transform="translate(27,26.5)"><path d="M 0,0 C 0,-0.828 -0.672,-1.5 -1.5,-1.5 -2.328,-1.5 -3,-0.828 -3,0 -3,0.828 -2.328,1.5 -1.5,1.5 -0.672,1.5 0,0.828 0,0" id="path50" style="fill:#5c913b;fill-opacity:1;fill-rule:nonzero;stroke:none"/></g><g id="g52" transform="translate(4,18)"><path d="m 0,0 c 0,-1.104 -0.896,-2 -2,-2 -1.104,0 -2,0.896 -2,2 0,1.105 0.896,2 2,2 1.104,0 2,-0.895 2,-2" id="path54" style="fill:#9266cc;fill-opacity:1;fill-rule:nonzero;stroke:none"/></g><g id="g56" transform="translate(34,16.5)"><path d="M 0,0 C 0,-0.828 -0.672,-1.5 -1.5,-1.5 -2.328,-1.5 -3,-0.828 -3,0 -3,0.828 -2.328,1.5 -1.5,1.5 -0.672,1.5 0,0.828 0,0" id="path58" style="fill:#5c913b;fill-opacity:1;fill-rule:nonzero;stroke:none"/></g><g id="g60" transform="translate(25,4.5)"><path d="M 0,0 C 0,-0.828 -0.672,-1.5 -1.5,-1.5 -2.328,-1.5 -3,-0.828 -3,0 -3,0.828 -2.328,1.5 -1.5,1.5 -0.672,1.5 0,0.828 0,0" id="path62" style="fill:#5c913b;fill-opacity:1;fill-rule:nonzero;stroke:none"/></g><g id="g64" transform="translate(30,32)"><path d="m 0,0 c 0,-1.104 -0.895,-2 -2,-2 -1.104,0 -2,0.896 -2,2 0,1.105 0.896,2 2,2 1.105,0 2,-0.895 2,-2" id="path66" style="fill:#ffcc4d;fill-opacity:1;fill-rule:nonzero;stroke:none"/></g><g id="g68" transform="translate(34,27.5)"><path d="M 0,0 C 0,-0.828 -0.672,-1.5 -1.5,-1.5 -2.328,-1.5 -3,-0.828 -3,0 -3,0.828 -2.328,1.5 -1.5,1.5 -0.672,1.5 0,0.828 0,0" id="path70" style="fill:#ffcc4d;fill-opacity:1;fill-rule:nonzero;stroke:none"/></g><g id="g72" transform="translate(31,23.5)"><path d="M 0,0 C 0,-0.828 -0.672,-1.5 -1.5,-1.5 -2.328,-1.5 -3,-0.828 -3,0 -3,0.828 -2.328,1.5 -1.5,1.5 -0.672,1.5 0,0.828 0,0" id="path74" style="fill:#ffcc4d;fill-opacity:1;fill-rule:nonzero;stroke:none"/></g><g id="g76" transform="translate(9,12.5)"><path d="M 0,0 C 0,-0.828 -0.672,-1.5 -1.5,-1.5 -2.328,-1.5 -3,-0.828 -3,0 -3,0.828 -2.328,1.5 -1.5,1.5 -0.672,1.5 0,0.828 0,0" id="path78" style="fill:#ffcc4d;fill-opacity:1;fill-rule:nonzero;stroke:none"/></g></g></g></g></svg>