<?xml version="1.0" encoding="UTF-8" standalone="no"?><svg xmlns="http://www.w3.org/2000/svg" xmlns:cc="http://creativecommons.org/ns#" xmlns:dc="http://purl.org/dc/elements/1.1/" xmlns:rdf="http://www.w3.org/1999/02/22-rdf-syntax-ns#" xmlns:svg="http://www.w3.org/2000/svg" height="45" id="svg2" style="enable-background:new 0 0 45 45;" version="1.1" viewBox="0 0 45 45" width="45" xml:space="preserve"><metadata id="metadata8"><rdf:RDF><cc:Work rdf:about=""><dc:format>image/svg+xml</dc:format><dc:type rdf:resource="http://purl.org/dc/dcmitype/StillImage"/></cc:Work></rdf:RDF></metadata><defs id="defs6"><clipPath clipPathUnits="userSpaceOnUse" id="clipPath16"><path d="M 0,36 36,36 36,0 0,0 0,36 Z" id="path18"/></clipPath></defs><g id="g10" transform="matrix(1.25,0,0,-1.25,0,45)"><g id="g12"><g clip-path="url(#clipPath16)" id="g14"><g id="g20" transform="translate(20,14.5)"><path d="M 0,0 C 0,-0.828 -0.672,-1.5 -1.5,-1.5 -2.329,-1.5 -3,-0.828 -3,0 l 0,3 c 0,0.829 0.671,1.5 1.5,1.5 C -0.672,4.5 0,3.829 0,3 L 0,0 Z" id="path22" style="fill:#67757f;fill-opacity:1;fill-rule:nonzero;stroke:none"/></g><g id="g24" transform="translate(27.1377,2.1826)"><path d="m 0,0 c 0.045,-1.205 -0.932,-2.183 -2.138,-2.183 l -12.817,0 c -1.205,0 -2.183,0.978 -2.183,2.183 l 0,12.817 c 0,1.205 0.116,2.183 2.183,2.183 2.067,0 2.817,-4.183 12.817,-2.183 1.091,0 2.183,-0.977 2.138,-2.182 L 0,0 Z" id="path26" style="fill:#e1e8ed;fill-opacity:1;fill-rule:nonzero;stroke:none"/></g><g id="g28" transform="translate(18.6865,17.4619)"><path d="m 0,0 c -2.595,0 -6.962,1.934 -6.962,5.898 0,3.989 4.35,5.415 7.005,11.402 0.751,1.693 0.999,1.107 1.86,0.076 C 3.963,14.912 6.961,9.893 6.961,5.802 6.961,1.16 2.321,0 0,0" id="path30" style="fill:#fcab40;fill-opacity:1;fill-rule:nonzero;stroke:none"/></g><g id="g32" transform="translate(18.6865,18.5532)"><path d="M 0,0 C -4.184,0 -3.482,5.802 0,9.283 2.321,8.123 5.802,0 0,0" id="path34" style="fill:#fdcb58;fill-opacity:1;fill-rule:nonzero;stroke:none"/></g><g id="g36" transform="translate(11,7)"><path d="m 0,0 c 0,-0.553 -0.448,-1 -1,-1 -0.552,0 -1,0.447 -1,1 l 0,7 c 0,0.553 0.448,1 1,1 0.552,0 1,-0.447 1,-1 L 0,0 Z" id="path38" style="fill:#ccd6dd;fill-opacity:1;fill-rule:nonzero;stroke:none"/></g><g id="g40" transform="translate(15,4)"><path d="m 0,0 c 0,-0.553 -0.448,-1 -1,-1 -0.552,0 -1,0.447 -1,1 l 0,7 c 0,0.553 0.448,1 1,1 0.552,0 1,-0.447 1,-1 L 0,0 Z" id="path42" style="fill:#ccd6dd;fill-opacity:1;fill-rule:nonzero;stroke:none"/></g><g id="g44" transform="translate(15,15)"><path d="m 0,0 c 0,-0.553 -0.448,-1 -1,-1 -0.552,0 -1,0.447 -1,1 l 0,1 c 0,0.553 0.448,1 1,1 0.552,0 1,-0.447 1,-1 L 0,0 Z" id="path46" style="fill:#ccd6dd;fill-opacity:1;fill-rule:nonzero;stroke:none"/></g></g></g></g></svg>