<?xml version="1.0" encoding="UTF-8" standalone="no"?><svg xmlns="http://www.w3.org/2000/svg" xmlns:cc="http://creativecommons.org/ns#" xmlns:dc="http://purl.org/dc/elements/1.1/" xmlns:rdf="http://www.w3.org/1999/02/22-rdf-syntax-ns#" xmlns:svg="http://www.w3.org/2000/svg" height="45" id="svg2" style="enable-background:new 0 0 45 45;" version="1.1" viewBox="0 0 45 45" width="45" xml:space="preserve"><metadata id="metadata8"><rdf:RDF><cc:Work rdf:about=""><dc:format>image/svg+xml</dc:format><dc:type rdf:resource="http://purl.org/dc/dcmitype/StillImage"/></cc:Work></rdf:RDF></metadata><defs id="defs6"><clipPath clipPathUnits="userSpaceOnUse" id="clipPath16"><path d="M 0,36 36,36 36,0 0,0 0,36 Z" id="path18"/></clipPath></defs><g id="g10" transform="matrix(1.25,0,0,-1.25,0,45)"><g id="g12"><g clip-path="url(#clipPath16)" id="g14"><g id="g20" transform="translate(22,3)"><path d="m 0,0 c 0,-2.209 -1.791,-3 -4,-3 -2.209,0 -4,0.791 -4,3 l 1,9 c 0,2.209 0.791,2 3,2 2.209,0 3,0.209 3,-2 L 0,0 Z" id="path22" style="fill:#662113;fill-opacity:1;fill-rule:nonzero;stroke:none"/></g><g id="g24" transform="translate(34,19)"><path d="m 0,0 c 0,-8.837 -7.163,-12 -16,-12 -8.836,0 -16,3.163 -16,12 0,8.836 9,17 16,17 C -9,17 0,8.836 0,0" id="path26" style="fill:#5c913b;fill-opacity:1;fill-rule:nonzero;stroke:none"/></g><g id="g28" transform="translate(8,15)"><path d="m 0,0 c 0,0.553 -0.896,1 -2,1 -1.104,0 -2,-0.447 -2,-1 0,-0.553 0.896,-1 2,-1 1.104,0 2,0.447 2,1" id="path30" style="fill:#3e721d;fill-opacity:1;fill-rule:nonzero;stroke:none"/></g><g id="g32" transform="translate(32,15)"><path d="m 0,0 c 0,0.553 -0.895,1 -2,1 -1.104,0 -2,-0.447 -2,-1 0,-0.553 0.896,-1 2,-1 1.105,0 2,0.447 2,1" id="path34" style="fill:#3e721d;fill-opacity:1;fill-rule:nonzero;stroke:none"/></g><g id="g36" transform="translate(12,11)"><path d="m 0,0 c 0,0.553 -0.895,1 -2,1 -1.104,0 -2,-0.447 -2,-1 0,-0.553 0.896,-1 2,-1 1.105,0 2,0.447 2,1" id="path38" style="fill:#3e721d;fill-opacity:1;fill-rule:nonzero;stroke:none"/></g><g id="g40" transform="translate(16,14)"><path d="m 0,0 c 0,0.553 -0.895,1 -2,1 -1.104,0 -2,-0.447 -2,-1 0,-0.553 0.896,-1 2,-1 1.105,0 2,0.447 2,1" id="path42" style="fill:#3e721d;fill-opacity:1;fill-rule:nonzero;stroke:none"/></g><g id="g44" transform="translate(12,20)"><path d="m 0,0 c 0,0.553 -0.895,1 -2,1 -1.104,0 -2,-0.447 -2,-1 0,-0.553 0.896,-1 2,-1 1.105,0 2,0.447 2,1" id="path46" style="fill:#3e721d;fill-opacity:1;fill-rule:nonzero;stroke:none"/></g><g id="g48" transform="translate(9,24)"><path d="m 0,0 c 0,0.553 -0.896,1 -2,1 -1.104,0 -2,-0.447 -2,-1 0,-0.553 0.896,-1 2,-1 1.104,0 2,0.447 2,1" id="path50" style="fill:#3e721d;fill-opacity:1;fill-rule:nonzero;stroke:none"/></g><g id="g52" transform="translate(31,24)"><path d="m 0,0 c 0,0.553 -0.895,1 -2,1 -1.104,0 -2,-0.447 -2,-1 0,-0.553 0.896,-1 2,-1 1.105,0 2,0.447 2,1" id="path54" style="fill:#3e721d;fill-opacity:1;fill-rule:nonzero;stroke:none"/></g><g id="g56" transform="translate(16,26)"><path d="m 0,0 c 0,0.553 -0.895,1 -2,1 -1.104,0 -2,-0.447 -2,-1 0,-0.553 0.896,-1 2,-1 1.105,0 2,0.447 2,1" id="path58" style="fill:#3e721d;fill-opacity:1;fill-rule:nonzero;stroke:none"/></g><g id="g60" transform="translate(24,26)"><path d="m 0,0 c 0,0.553 -0.895,1 -2,1 -1.104,0 -2,-0.447 -2,-1 0,-0.553 0.896,-1 2,-1 1.105,0 2,0.447 2,1" id="path62" style="fill:#3e721d;fill-opacity:1;fill-rule:nonzero;stroke:none"/></g><g id="g64" transform="translate(28,20)"><path d="m 0,0 c 0,0.553 -0.895,1 -2,1 -1.104,0 -2,-0.447 -2,-1 0,-0.553 0.896,-1 2,-1 1.105,0 2,0.447 2,1" id="path66" style="fill:#3e721d;fill-opacity:1;fill-rule:nonzero;stroke:none"/></g><g id="g68" transform="translate(20,19)"><path d="m 0,0 c 0,0.553 -0.895,1 -2,1 -1.104,0 -2,-0.447 -2,-1 0,-0.553 0.896,-1 2,-1 1.105,0 2,0.447 2,1" id="path70" style="fill:#3e721d;fill-opacity:1;fill-rule:nonzero;stroke:none"/></g><g id="g72" transform="translate(24,14)"><path d="m 0,0 c 0,0.553 -0.895,1 -2,1 -1.104,0 -2,-0.447 -2,-1 0,-0.553 0.896,-1 2,-1 1.105,0 2,0.447 2,1" id="path74" style="fill:#3e721d;fill-opacity:1;fill-rule:nonzero;stroke:none"/></g><g id="g76" transform="translate(20,10)"><path d="m 0,0 c 0,0.553 -0.895,1 -2,1 -1.104,0 -2,-0.447 -2,-1 0,-0.553 0.896,-1 2,-1 1.105,0 2,0.447 2,1" id="path78" style="fill:#3e721d;fill-opacity:1;fill-rule:nonzero;stroke:none"/></g><g id="g80" transform="translate(28,11)"><path d="m 0,0 c 0,0.553 -0.895,1 -2,1 -1.104,0 -2,-0.447 -2,-1 0,-0.553 0.896,-1 2,-1 1.105,0 2,0.447 2,1" id="path82" style="fill:#3e721d;fill-opacity:1;fill-rule:nonzero;stroke:none"/></g></g></g></g></svg>