<?xml version="1.0" encoding="UTF-8" standalone="no"?><svg xmlns="http://www.w3.org/2000/svg" xmlns:cc="http://creativecommons.org/ns#" xmlns:dc="http://purl.org/dc/elements/1.1/" xmlns:rdf="http://www.w3.org/1999/02/22-rdf-syntax-ns#" xmlns:svg="http://www.w3.org/2000/svg" height="45" id="svg2" style="enable-background:new 0 0 45 45;" version="1.1" viewBox="0 0 45 45" width="45" xml:space="preserve"><metadata id="metadata8"><rdf:RDF><cc:Work rdf:about=""><dc:format>image/svg+xml</dc:format><dc:type rdf:resource="http://purl.org/dc/dcmitype/StillImage"/></cc:Work></rdf:RDF></metadata><defs id="defs6"><clipPath clipPathUnits="userSpaceOnUse" id="clipPath20"><path d="M 0,36 36,36 36,0 0,0 0,36 Z" id="path22"/></clipPath></defs><g id="g10" transform="matrix(1.25,0,0,-1.25,0,45)"><g id="g12" transform="translate(31,14)"><path d="M 0,0 -20,0 -22,12 2,12 0,0 Z" id="path14" style="fill:#ccd6dd;fill-opacity:1;fill-rule:nonzero;stroke:none"/></g><g id="g16"><g clip-path="url(#clipPath20)" id="g18"><g id="g24" transform="translate(13.6675,25)"><path d="M 0,0 0.273,-2 -3.154,-2 -3.487,0 0,0 Z m 6.333,0 0,-2 -4.041,0 -0.274,2 4.315,0 z m 6.313,0 -0.273,-2 -4.04,0 0,2 4.313,0 z m 5.506,0 -0.333,-2 -3.427,0 0.274,2 3.486,0 z m -4.853,-10 0.273,2 3.247,0 -0.333,-2 -3.187,0 z m -4.966,0 0,2 3.22,0 -0.273,-2 -2.947,0 z m -4.948,0 -0.273,2 3.221,0 0,-2 -2.948,0 z m -5.205,0 -0.334,2 3.247,0 0.274,-2 -3.187,0 z m 2.64,4 -3.307,0 -0.333,2 3.367,0 0.273,-2 z m 5.513,0 -3.494,0 -0.274,2 3.768,0 0,-2 z m 5.493,0 -3.493,0 0,2 3.767,0 -0.274,-2 z m 5.326,0 -3.306,0 0.273,2 3.366,0 -0.333,-2 z m 2.165,-10 -22,0 c -1.094,0 -1.984,0.891 -1.984,1.984 0,1.094 0.905,2.016 2,2.016 0.002,0 0.004,10e-4 0.006,10e-4 0.003,0 0.005,-10e-4 0.008,-10e-4 l 19.986,0 c 0.489,0 0.906,0.354 0.986,0.836 l 2,11.999 C 20.368,1.125 20.286,1.422 20.095,1.646 19.906,1.871 19.626,2 19.333,2 L -3.85,2 -4.89,8.166 C -4.97,8.639 -5.374,8.958 -5.833,8.98 -5.848,8.983 -5.86,9 -5.876,9 l -4.791,0 c -0.553,0 -1,-0.448 -1,-1 0,-0.552 0.447,-1 1,-1 l 3.945,0 2.903,-17.216 c -1.641,-0.493 -2.848,-2 -2.848,-3.8 0,-2.197 1.787,-3.984 3.984,-3.984 l 22,0 c 0.553,0 1,0.447 1,1 0,0.553 -0.447,1 -1,1" id="path26" style="fill:#66757f;fill-opacity:1;fill-rule:nonzero;stroke:none"/></g><g id="g28" transform="translate(17,5)"><path d="m 0,0 c 0,-1.657 -1.343,-3 -3,-3 -1.657,0 -3,1.343 -3,3 0,1.657 1.343,3 3,3 1.657,0 3,-1.343 3,-3" id="path30" style="fill:#e1e8ed;fill-opacity:1;fill-rule:nonzero;stroke:none"/></g><g id="g32" transform="translate(14,7)"><path d="m 0,0 c -1.103,0 -2,-0.897 -2,-2 0,-1.103 0.897,-2 2,-2 1.103,0 2,0.897 2,2 0,1.103 -0.897,2 -2,2 m 0,-6 c -2.206,0 -4,1.794 -4,4 0,2.206 1.794,4 4,4 C 2.206,2 4,0.206 4,-2 4,-4.206 2.206,-6 0,-6" id="path34" style="fill:#292f33;fill-opacity:1;fill-rule:nonzero;stroke:none"/></g><g id="g36" transform="translate(31,5)"><path d="m 0,0 c 0,-1.657 -1.343,-3 -3,-3 -1.657,0 -3,1.343 -3,3 0,1.657 1.343,3 3,3 1.657,0 3,-1.343 3,-3" id="path38" style="fill:#e1e8ed;fill-opacity:1;fill-rule:nonzero;stroke:none"/></g><g id="g40" transform="translate(28,7)"><path d="m 0,0 c -1.103,0 -2,-0.897 -2,-2 0,-1.103 0.897,-2 2,-2 1.103,0 2,0.897 2,2 0,1.103 -0.897,2 -2,2 m 0,-6 c -2.206,0 -4,1.794 -4,4 0,2.206 1.794,4 4,4 C 2.206,2 4,0.206 4,-2 4,-4.206 2.206,-6 0,-6" id="path42" style="fill:#292f33;fill-opacity:1;fill-rule:nonzero;stroke:none"/></g></g></g></g></svg>