<?xml version="1.0" encoding="UTF-8" standalone="no"?><svg xmlns="http://www.w3.org/2000/svg" xmlns:cc="http://creativecommons.org/ns#" xmlns:dc="http://purl.org/dc/elements/1.1/" xmlns:rdf="http://www.w3.org/1999/02/22-rdf-syntax-ns#" xmlns:svg="http://www.w3.org/2000/svg" height="45" id="svg2" style="enable-background:new 0 0 45 45;" version="1.1" viewBox="0 0 45 45" width="45" xml:space="preserve"><metadata id="metadata8"><rdf:RDF><cc:Work rdf:about=""><dc:format>image/svg+xml</dc:format><dc:type rdf:resource="http://purl.org/dc/dcmitype/StillImage"/></cc:Work></rdf:RDF></metadata><defs id="defs6"><clipPath clipPathUnits="userSpaceOnUse" id="clipPath16"><path d="M 0,36 36,36 36,0 0,0 0,36 Z" id="path18"/></clipPath></defs><g id="g10" transform="matrix(1.25,0,0,-1.25,0,45)"><g id="g12"><g clip-path="url(#clipPath16)" id="g14"><g id="g20" transform="translate(31.4203,4.5294)"><path d="M 0,0 C -3.515,-3.515 -9.213,-3.515 -12.728,0 L -26.87,14.142 c -3.515,3.515 -3.515,9.213 0,12.728 3.515,3.515 9.213,3.515 12.728,0 L 0,12.728 C 3.515,9.213 3.515,3.515 0,0" id="path22" style="fill:#d99e82;fill-opacity:1;fill-rule:nonzero;stroke:none"/></g><g id="g24" transform="translate(29.3346,15.1005)"><path d="m 0,0 c 3.515,-3.515 4.609,-8.119 2.475,-10.253 -2.135,-2.134 -6.739,-1.04 -10.253,2.475 L -21.92,6.364 c -3.515,3.515 -4.609,8.119 -2.475,10.253 2.134,2.134 6.738,1.04 10.253,-2.475 L 0,0 Z" id="path26" style="fill:#f7bba6;fill-opacity:1;fill-rule:nonzero;stroke:none"/></g><g id="g28" transform="translate(33.1669,7.0255)"><path d="m 0,0 c 1.415,-1.415 1.611,-3.51 0.44,-4.682 -1.172,-1.171 -3.268,-0.976 -4.683,0.439 l -26.191,26.192 c -1.415,1.414 -1.611,3.511 -0.44,4.682 1.171,1.172 3.268,0.975 4.682,-0.439 L 0,0 Z" id="path30" style="fill:#dd2e44;fill-opacity:1;fill-rule:nonzero;stroke:none"/></g><g id="g32" transform="translate(5.2574,32.1066)"><path d="m 0,0 c 2.238,-2.238 0.824,-3.652 3.062,-5.89 2.237,-2.238 3.651,-0.823 5.889,-3.061 2.237,-2.237 0.823,-3.652 3.061,-5.889 2.24,-2.24 3.654,-0.826 5.893,-3.065 2.242,-2.242 0.827,-3.656 3.069,-5.897 2.241,-2.241 3.655,-0.827 5.896,-3.068" id="path34" style="fill:none;stroke:#ffcc4d;stroke-width:2;stroke-linecap:round;stroke-linejoin:miter;stroke-miterlimit:10;stroke-dasharray:none;stroke-opacity:1"/></g></g></g></g></svg>