<?xml version="1.0" encoding="UTF-8" standalone="no"?><svg xmlns="http://www.w3.org/2000/svg" xmlns:cc="http://creativecommons.org/ns#" xmlns:dc="http://purl.org/dc/elements/1.1/" xmlns:rdf="http://www.w3.org/1999/02/22-rdf-syntax-ns#" xmlns:svg="http://www.w3.org/2000/svg" height="45" id="svg2" style="enable-background:new 0 0 45 45;" version="1.1" viewBox="0 0 45 45" width="45" xml:space="preserve"><metadata id="metadata8"><rdf:RDF><cc:Work rdf:about=""><dc:format>image/svg+xml</dc:format><dc:type rdf:resource="http://purl.org/dc/dcmitype/StillImage"/></cc:Work></rdf:RDF></metadata><defs id="defs6"><clipPath clipPathUnits="userSpaceOnUse" id="clipPath16"><path d="M 0,36 36,36 36,0 0,0 0,36 Z" id="path18"/></clipPath></defs><g id="g10" transform="matrix(1.25,0,0,-1.25,0,45)"><g id="g12"><g clip-path="url(#clipPath16)" id="g14"><g id="g20" transform="translate(27,14)"><path d="m 0,0 -1,0 -16,0 -1,0 c 0,0 -9,0 -9,-7 0,-3.156 4,-7 4,-7 l 1,0 1,0 4,0 16,0 4,0 1,0 1,0 c 0,0 4,3.844 4,7 0,7 -9,7 -9,7" id="path22" style="fill:#4289c1;fill-opacity:1;fill-rule:nonzero;stroke:none"/></g><g id="g24" transform="translate(21,8)"><path d="m 0,0 c 0,-1.657 -1.343,-3 -3,-3 -1.657,0 -3,1.343 -3,3 0,1.657 1.343,3 3,3 1.657,0 3,-1.343 3,-3" id="path26" style="fill:#f9ca55;fill-opacity:1;fill-rule:nonzero;stroke:none"/></g><g id="g28" transform="translate(9,26.0625)"><path d="m 0,0 0,-11.063 c 0,-4.97 4.029,-8.999 9,-8.999 4.971,0 9,4.029 9,8.999 L 18,-0.312 0,0 Z" id="path30" style="fill:#ffdc5d;fill-opacity:1;fill-rule:nonzero;stroke:none"/></g><g id="g32" transform="translate(10.8472,18.2848)"><path d="m 0,0 c 0,-1.58 -0.801,-2.861 -1.788,-2.861 -0.988,0 -1.788,1.281 -1.788,2.861 0,1.58 0.8,2.861 1.788,2.861 C -0.801,2.861 0,1.58 0,0" id="path34" style="fill:#ffdc5d;fill-opacity:1;fill-rule:nonzero;stroke:none"/></g><g id="g36" transform="translate(28.7292,18.2848)"><path d="m 0,0 c 0,-1.58 -0.8,-2.861 -1.788,-2.861 -0.988,0 -1.788,1.281 -1.788,2.861 0,1.58 0.8,2.861 1.788,2.861 C -0.8,2.861 0,1.58 0,0" id="path38" style="fill:#ffdc5d;fill-opacity:1;fill-rule:nonzero;stroke:none"/></g><g id="g40" transform="translate(18,31.1772)"><path d="m 0,0 c -7.019,0 -10.139,-4.684 -10.139,-8.588 0,-3.903 1.343,-4.986 1.56,-3.903 0.78,3.903 3.119,5.102 3.119,5.102 4.68,-3.904 3.9,-0.781 3.9,-0.781 4.68,-4.684 2.34,0 2.34,0 1.56,-1.562 6.239,-1.562 6.239,-1.562 0,0 0.78,-1.198 1.56,-2.759 0.78,-1.561 1.56,0 1.56,3.903 C 10.139,-4.684 6.239,0 0,0" id="path42" style="fill:#ffac33;fill-opacity:1;fill-rule:nonzero;stroke:none"/></g><g id="g44" transform="translate(17,2)"><path d="m 0,0 -5,1 -2,1 -3,0 -1,-4 5,0 6,0 c 1,0 1,1 1,1 0,0.553 -1,1 -1,1" id="path46" style="fill:#ffdc5d;fill-opacity:1;fill-rule:nonzero;stroke:none"/></g><g id="g48" transform="translate(26,4)"><path d="m 0,0 -2,-1 -5,-1 c 0,0 -1,-0.447 -1,-1 0,0 0,-1 1,-1 l 6,0 5,0 -1,4 -3,0 z" id="path50" style="fill:#ffdc5d;fill-opacity:1;fill-rule:nonzero;stroke:none"/></g><g id="g52" transform="translate(22,14)"><path d="m 0,0 c -0.553,0 -1,0.447 -1,1 l 0,1 C -1,2.553 -0.553,3 0,3 0.553,3 1,2.553 1,2 L 1,1 C 1,0.447 0.553,0 0,0" id="path54" style="fill:#662113;fill-opacity:1;fill-rule:nonzero;stroke:none"/></g><g id="g56" transform="translate(14,14)"><path d="m 0,0 c -0.552,0 -1,0.447 -1,1 l 0,1 C -1,2.553 -0.552,3 0,3 0.552,3 1,2.553 1,2 L 1,1 C 1,0.447 0.552,0 0,0" id="path58" style="fill:#662113;fill-opacity:1;fill-rule:nonzero;stroke:none"/></g><g id="g60" transform="translate(19,9.5)"><path d="M 0,0 -2,0 C -2.276,0 -2.5,0.224 -2.5,0.5 -2.5,0.776 -2.276,1 -2,1 L 0,1 C 0.276,1 0.5,0.776 0.5,0.5 0.5,0.224 0.276,0 0,0" id="path62" style="fill:#c1694f;fill-opacity:1;fill-rule:nonzero;stroke:none"/></g><g id="g64" transform="translate(5.4989,28)"><path d="m 0,0 c -0.208,0 -0.419,0.065 -0.599,0.2 l -4,3 c -0.442,0.331 -0.531,0.958 -0.2,1.4 0.332,0.442 0.958,0.531 1.4,0.2 l 4,-3 C 1.043,1.469 1.132,0.842 0.801,0.4 0.605,0.138 0.304,0 0,0" id="path66" style="fill:#5dadec;fill-opacity:1;fill-rule:nonzero;stroke:none"/></g><g id="g68" transform="translate(8.5009,31)"><path d="m 0,0 c -0.323,0 -0.64,0.156 -0.833,0.445 l -2,3 c -0.306,0.46 -0.182,1.081 0.277,1.387 0.46,0.307 1.08,0.182 1.387,-0.277 l 2,-3 C 1.137,1.095 1.013,0.474 0.554,0.168 0.383,0.054 0.19,0 0,0" id="path70" style="fill:#5dadec;fill-opacity:1;fill-rule:nonzero;stroke:none"/></g><g id="g72" transform="translate(30.5009,28)"><path d="m 0,0 c -0.305,0 -0.604,0.138 -0.801,0.4 -0.332,0.442 -0.242,1.069 0.2,1.4 l 4,3 C 3.84,5.133 4.468,5.042 4.799,4.6 5.131,4.158 5.041,3.531 4.599,3.2 l -4,-3 C 0.419,0.065 0.209,0 0,0" id="path74" style="fill:#5dadec;fill-opacity:1;fill-rule:nonzero;stroke:none"/></g><g id="g76" transform="translate(27.4989,31)"><path d="m 0,0 c -0.19,0 -0.383,0.054 -0.554,0.168 -0.46,0.306 -0.584,0.927 -0.277,1.387 l 2,3 C 1.475,5.014 2.094,5.139 2.556,4.832 3.016,4.526 3.14,3.905 2.833,3.445 l -2,-3 C 0.641,0.156 0.323,0 0,0" id="path78" style="fill:#5dadec;fill-opacity:1;fill-rule:nonzero;stroke:none"/></g></g></g></g></svg>