<?xml version="1.0" encoding="UTF-8" standalone="no"?><svg xmlns="http://www.w3.org/2000/svg" xmlns:cc="http://creativecommons.org/ns#" xmlns:dc="http://purl.org/dc/elements/1.1/" xmlns:rdf="http://www.w3.org/1999/02/22-rdf-syntax-ns#" xmlns:svg="http://www.w3.org/2000/svg" height="45" id="svg2" style="enable-background:new 0 0 45 45;" version="1.1" viewBox="0 0 45 45" width="45" xml:space="preserve"><metadata id="metadata8"><rdf:RDF><cc:Work rdf:about=""><dc:format>image/svg+xml</dc:format><dc:type rdf:resource="http://purl.org/dc/dcmitype/StillImage"/></cc:Work></rdf:RDF></metadata><defs id="defs6"><clipPath clipPathUnits="userSpaceOnUse" id="clipPath16"><path d="M 0,36 36,36 36,0 0,0 0,36 Z" id="path18"/></clipPath></defs><g id="g10" transform="matrix(1.25,0,0,-1.25,0,45)"><g id="g12"><g clip-path="url(#clipPath16)" id="g14"><g id="g20" transform="translate(21.377,20.5513)"><path d="M 0,0 C 0.089,-0.816 -0.83,-1.495 -2.053,-1.515 -3.275,-1.535 -4.147,-0.88 -4,-0.051 l 0.356,2 c 0.148,0.828 0.939,1.5 1.767,1.5 0.828,0 1.572,-0.662 1.661,-1.478 L 0,0 Z" id="path22" style="fill:#ccd6dd;fill-opacity:1;fill-rule:nonzero;stroke:none"/></g><g id="g24" transform="translate(32.2461,15)"><path d="m 0,0 -0.135,0 -0.444,3 c -0.327,2.209 -1.864,4 -3.433,4 l -12.072,0 c -1.569,0 -3.574,-1.791 -4.478,-4 l -1.228,-3 -3.545,0 c -2.073,0 -4.105,-1.791 -4.539,-4 l -0.587,-3 c -0.002,-0.008 -0.001,-0.015 -0.002,-0.021 -1.001,-0.111 -1.783,-0.949 -1.783,-1.979 0,-1.104 0.895,-2 2,-2 l 3,0 1,0 26,0 c 2.209,0 4,1.791 4,4 l 0,3 C 3.754,-1.791 2.073,0 0,0" id="path26" style="fill:#ffcc4d;fill-opacity:1;fill-rule:nonzero;stroke:none"/></g><g id="g28" transform="translate(14,5)"><path d="m 0,0 c 0,-2.209 -1.791,-4 -4,-4 -2.209,0 -4,1.791 -4,4 0,2.209 1.791,4 4,4 2.209,0 4,-1.791 4,-4" id="path30" style="fill:#292f33;fill-opacity:1;fill-rule:nonzero;stroke:none"/></g><g id="g32" transform="translate(12,5)"><path d="m 0,0 c 0,-1.105 -0.895,-2 -2,-2 -1.104,0 -2,0.895 -2,2 0,1.105 0.896,2 2,2 1.105,0 2,-0.895 2,-2" id="path34" style="fill:#ccd6dd;fill-opacity:1;fill-rule:nonzero;stroke:none"/></g><g id="g36" transform="translate(31,5)"><path d="m 0,0 c 0,-2.209 -1.791,-4 -4,-4 -2.209,0 -4,1.791 -4,4 0,2.209 1.791,4 4,4 2.209,0 4,-1.791 4,-4" id="path38" style="fill:#292f33;fill-opacity:1;fill-rule:nonzero;stroke:none"/></g><g id="g40" transform="translate(29,5)"><path d="m 0,0 c 0,-1.105 -0.895,-2 -2,-2 -1.104,0 -2,0.895 -2,2 0,1.105 0.896,2 2,2 1.105,0 2,-0.895 2,-2" id="path42" style="fill:#ccd6dd;fill-opacity:1;fill-rule:nonzero;stroke:none"/></g><g id="g44" transform="translate(2.3726,11)"><path d="m 0,0 -0.196,-1 33.823,0 0,1 c 0,0.348 -0.054,0.679 -0.132,1 L 0.329,1 C 0.188,0.679 0.068,0.348 0,0" id="path46" style="fill:#f4900c;fill-opacity:1;fill-rule:nonzero;stroke:none"/></g><g id="g48" transform="translate(24,15)"><path d="M 0,0 5.92,0 C 5.906,0.416 5.856,0.908 5.764,1.5 5.369,4 5.212,5 2.327,5 L 0,5 0,0 Z" id="path50" style="fill:#55acee;fill-opacity:1;fill-rule:nonzero;stroke:none"/></g><g id="g52" transform="translate(22,20)"><path d="M 0,0 -5,0 C -6.594,0 -8.236,-1.567 -8.847,-3.5 -9.042,-4.099 -9.201,-4.588 -9.319,-5 L 0,-5 0,0 Z" id="path54" style="fill:#55acee;fill-opacity:1;fill-rule:nonzero;stroke:none"/></g></g></g></g></svg>