<?xml version="1.0" encoding="UTF-8" standalone="no"?><svg xmlns="http://www.w3.org/2000/svg" xmlns:cc="http://creativecommons.org/ns#" xmlns:dc="http://purl.org/dc/elements/1.1/" xmlns:rdf="http://www.w3.org/1999/02/22-rdf-syntax-ns#" xmlns:svg="http://www.w3.org/2000/svg" height="45" id="svg2" style="enable-background:new 0 0 45 45;" version="1.1" viewBox="0 0 45 45" width="45" xml:space="preserve"><metadata id="metadata8"><rdf:RDF><cc:Work rdf:about=""><dc:format>image/svg+xml</dc:format><dc:type rdf:resource="http://purl.org/dc/dcmitype/StillImage"/></cc:Work></rdf:RDF></metadata><defs id="defs6"><clipPath clipPathUnits="userSpaceOnUse" id="clipPath16"><path d="M 0,36 36,36 36,0 0,0 0,36 Z" id="path18"/></clipPath></defs><g id="g10" transform="matrix(1.25,0,0,-1.25,0,45)"><g id="g12"><g clip-path="url(#clipPath16)" id="g14"><g id="g20" transform="translate(0,15)"><path d="m 0,0 0,-7 c 0,-1.657 1.343,-3 3,-3 l 30,0 c 1.657,0 3,1.343 3,3 L 36,0 0,0 Z" id="path22" style="fill:#808285;fill-opacity:1;fill-rule:nonzero;stroke:none"/></g><g id="g24" transform="translate(36,14)"><path d="m 0,0 0,9 c 0,1.657 -3.343,3 -5,3 l -20,0 c -8,0 -11,-2.343 -11,-4 l 0,-8 36,0 z" id="path26" style="fill:#ccd6dd;fill-opacity:1;fill-rule:nonzero;stroke:none"/></g><path d="m 36,11 -36,0 0,3 36,0 0,-3 z" id="path28" style="fill:#939598;fill-opacity:1;fill-rule:nonzero;stroke:none"/><g id="g30" transform="translate(7.0005,11)"><path d="M 0,0 C -3.063,0 -5.586,-2.298 -5.95,-5.263 -5.425,-5.716 -4.749,-6 -4,-6 L 6,-6 C 6,-2.686 3.314,0 0,0" id="path32" style="fill:#bcbec0;fill-opacity:1;fill-rule:nonzero;stroke:none"/></g><g id="g34" transform="translate(34.9502,5.7373)"><path d="m 0,0 c -0.364,2.965 -2.887,5.263 -5.95,5.263 -3.314,0 -6,-2.687 -6,-6 l 10,0 c 0.749,0 1.425,0.284 1.95,0.737" id="path36" style="fill:#bcbec0;fill-opacity:1;fill-rule:nonzero;stroke:none"/></g><g id="g38" transform="translate(11,5)"><path d="m 0,0 c 0,-2.209 -1.791,-4 -4,-4 -2.209,0 -4,1.791 -4,4 0,2.209 1.791,4 4,4 2.209,0 4,-1.791 4,-4" id="path40" style="fill:#000000;fill-opacity:1;fill-rule:nonzero;stroke:none"/></g><g id="g42" transform="translate(9,5)"><path d="m 0,0 c 0,-1.105 -0.896,-2 -2,-2 -1.104,0 -2,0.895 -2,2 0,1.105 0.896,2 2,2 1.104,0 2,-0.895 2,-2" id="path44" style="fill:#99aab5;fill-opacity:1;fill-rule:nonzero;stroke:none"/></g><g id="g46" transform="translate(33,5)"><path d="m 0,0 c 0,-2.209 -1.791,-4 -4,-4 -2.209,0 -4,1.791 -4,4 0,2.209 1.791,4 4,4 2.209,0 4,-1.791 4,-4" id="path48" style="fill:#000000;fill-opacity:1;fill-rule:nonzero;stroke:none"/></g><g id="g50" transform="translate(31,5)"><path d="m 0,0 c 0,-1.105 -0.895,-2 -2,-2 -1.104,0 -2,0.895 -2,2 0,1.105 0.896,2 2,2 1.105,0 2,-0.895 2,-2" id="path52" style="fill:#99aab5;fill-opacity:1;fill-rule:nonzero;stroke:none"/></g><path d="M 1,9 0,9 0,11 1,11 1,9 Z" id="path54" style="fill:#f4900c;fill-opacity:1;fill-rule:nonzero;stroke:none"/><path d="m 36,11 -1,0 0,2 1,0 0,-2 z" id="path56" style="fill:#f4900c;fill-opacity:1;fill-rule:nonzero;stroke:none"/><path d="M 36,13 1,13 1,23 36,23 36,13 Z" id="path58" style="fill:#58595b;fill-opacity:1;fill-rule:nonzero;stroke:none"/><g id="g60" transform="translate(2,23)"><path d="M 0,0 -1.658,0 C -1.89,-0.344 -2,-0.685 -2,-1 l 0,-11 2,0 c 1.104,0 2,0.896 2,2 l 0,8 C 2,-0.895 1.104,0 0,0" id="path62" style="fill:#292f33;fill-opacity:1;fill-rule:nonzero;stroke:none"/></g><g id="g64" transform="translate(31,16)"><path d="m 0,0 c 0,-0.553 -0.447,-1 -1,-1 l -23,0 c -0.552,0 -1,0.447 -1,1 l 0,4 c 0,0.552 0.448,1 1,1 L -1,5 C -0.447,5 0,4.552 0,4 L 0,0 Z" id="path66" style="fill:#55acee;fill-opacity:1;fill-rule:nonzero;stroke:none"/></g><path d="m 36,17 -1,0 0,-2 1,0 0,2 z" id="path68" style="fill:#ffac33;fill-opacity:1;fill-rule:nonzero;stroke:none"/><g id="g70" transform="translate(1,21)"><path d="m 0,0 -1,0 0,-8 1,0 c 0.552,0 1,0.447 1,1 l 0,6 C 1,-0.448 0.552,0 0,0" id="path72" style="fill:#55acee;fill-opacity:1;fill-rule:nonzero;stroke:none"/></g></g></g></g></svg>