<?xml version="1.0" encoding="UTF-8" standalone="no"?><svg xmlns="http://www.w3.org/2000/svg" xmlns:cc="http://creativecommons.org/ns#" xmlns:dc="http://purl.org/dc/elements/1.1/" xmlns:rdf="http://www.w3.org/1999/02/22-rdf-syntax-ns#" xmlns:svg="http://www.w3.org/2000/svg" height="45" id="svg2" style="enable-background:new 0 0 45 45;" version="1.1" viewBox="0 0 45 45" width="45" xml:space="preserve"><metadata id="metadata8"><rdf:RDF><cc:Work rdf:about=""><dc:format>image/svg+xml</dc:format><dc:type rdf:resource="http://purl.org/dc/dcmitype/StillImage"/></cc:Work></rdf:RDF></metadata><defs id="defs6"><clipPath clipPathUnits="userSpaceOnUse" id="clipPath16"><path d="M 0,36 36,36 36,0 0,0 0,36 Z" id="path18"/></clipPath></defs><g id="g10" transform="matrix(1.25,0,0,-1.25,0,45)"><g id="g12"><g clip-path="url(#clipPath16)" id="g14"><g id="g20" transform="translate(36,8)"><path d="m 0,0 c 0,-1.104 -0.895,-2 -2,-2 l -32,0 c -1.104,0 -2,0.896 -2,2 l 0,16 c 0,1.105 0.896,2 2,2 l 32,0 c 1.105,0 2,-0.895 2,-2 L 0,0 Z" id="path22" style="fill:#99aab5;fill-opacity:1;fill-rule:nonzero;stroke:none"/></g><g id="g24" transform="translate(5.5,17)"><path d="m 0,0 c 0,-0.553 -0.448,-1 -1,-1 l -1,0 c -0.552,0 -1,0.447 -1,1 l 0,1 c 0,0.553 0.448,1 1,1 l 1,0 C -0.448,2 0,1.553 0,1 L 0,0 Z" id="path26" style="fill:#292f33;fill-opacity:1;fill-rule:nonzero;stroke:none"/></g><g id="g28" transform="translate(9.5,17)"><path d="m 0,0 c 0,-0.553 -0.448,-1 -1,-1 l -1,0 c -0.552,0 -1,0.447 -1,1 l 0,1 c 0,0.553 0.448,1 1,1 l 1,0 C -0.448,2 0,1.553 0,1 L 0,0 Z" id="path30" style="fill:#292f33;fill-opacity:1;fill-rule:nonzero;stroke:none"/></g><g id="g32" transform="translate(13.5,17)"><path d="m 0,0 c 0,-0.553 -0.448,-1 -1,-1 l -1,0 c -0.552,0 -1,0.447 -1,1 l 0,1 c 0,0.553 0.448,1 1,1 l 1,0 C -0.448,2 0,1.553 0,1 L 0,0 Z" id="path34" style="fill:#292f33;fill-opacity:1;fill-rule:nonzero;stroke:none"/></g><g id="g36" transform="translate(17.5,17)"><path d="m 0,0 c 0,-0.553 -0.448,-1 -1,-1 l -1,0 c -0.552,0 -1,0.447 -1,1 l 0,1 c 0,0.553 0.448,1 1,1 l 1,0 C -0.448,2 0,1.553 0,1 L 0,0 Z" id="path38" style="fill:#292f33;fill-opacity:1;fill-rule:nonzero;stroke:none"/></g><g id="g40" transform="translate(21.5,17)"><path d="m 0,0 c 0,-0.553 -0.447,-1 -1,-1 l -1,0 c -0.553,0 -1,0.447 -1,1 l 0,1 c 0,0.553 0.447,1 1,1 l 1,0 C -0.447,2 0,1.553 0,1 L 0,0 Z" id="path42" style="fill:#292f33;fill-opacity:1;fill-rule:nonzero;stroke:none"/></g><g id="g44" transform="translate(25.5,17)"><path d="m 0,0 c 0,-0.553 -0.447,-1 -1,-1 l -1,0 c -0.553,0 -1,0.447 -1,1 l 0,1 c 0,0.553 0.447,1 1,1 l 1,0 C -0.447,2 0,1.553 0,1 L 0,0 Z" id="path46" style="fill:#292f33;fill-opacity:1;fill-rule:nonzero;stroke:none"/></g><g id="g48" transform="translate(29.5,17)"><path d="m 0,0 c 0,-0.553 -0.447,-1 -1,-1 l -1,0 c -0.553,0 -1,0.447 -1,1 l 0,1 c 0,0.553 0.447,1 1,1 l 1,0 C -0.447,2 0,1.553 0,1 L 0,0 Z" id="path50" style="fill:#292f33;fill-opacity:1;fill-rule:nonzero;stroke:none"/></g><g id="g52" transform="translate(33.5,17)"><path d="m 0,0 c 0,-0.553 -0.447,-1 -1,-1 l -1,0 c -0.553,0 -1,0.447 -1,1 l 0,1 c 0,0.553 0.447,1 1,1 l 1,0 C -0.447,2 0,1.553 0,1 L 0,0 Z" id="path54" style="fill:#292f33;fill-opacity:1;fill-rule:nonzero;stroke:none"/></g><g id="g56" transform="translate(7.5,13)"><path d="m 0,0 c 0,-0.553 -0.448,-1 -1,-1 l -1,0 c -0.552,0 -1,0.447 -1,1 l 0,1 c 0,0.553 0.448,1 1,1 l 1,0 C -0.448,2 0,1.553 0,1 L 0,0 Z" id="path58" style="fill:#292f33;fill-opacity:1;fill-rule:nonzero;stroke:none"/></g><g id="g60" transform="translate(11.5,13)"><path d="m 0,0 c 0,-0.553 -0.448,-1 -1,-1 l -1,0 c -0.552,0 -1,0.447 -1,1 l 0,1 c 0,0.553 0.448,1 1,1 l 1,0 C -0.448,2 0,1.553 0,1 L 0,0 Z" id="path62" style="fill:#292f33;fill-opacity:1;fill-rule:nonzero;stroke:none"/></g><g id="g64" transform="translate(15.5,13)"><path d="m 0,0 c 0,-0.553 -0.448,-1 -1,-1 l -1,0 c -0.552,0 -1,0.447 -1,1 l 0,1 c 0,0.553 0.448,1 1,1 l 1,0 C -0.448,2 0,1.553 0,1 L 0,0 Z" id="path66" style="fill:#292f33;fill-opacity:1;fill-rule:nonzero;stroke:none"/></g><g id="g68" transform="translate(19.5,13)"><path d="m 0,0 c 0,-0.553 -0.447,-1 -1,-1 l -1,0 c -0.552,0 -1,0.447 -1,1 l 0,1 c 0,0.553 0.448,1 1,1 l 1,0 C -0.447,2 0,1.553 0,1 L 0,0 Z" id="path70" style="fill:#292f33;fill-opacity:1;fill-rule:nonzero;stroke:none"/></g><g id="g72" transform="translate(23.5,13)"><path d="m 0,0 c 0,-0.553 -0.447,-1 -1,-1 l -1,0 c -0.553,0 -1,0.447 -1,1 l 0,1 c 0,0.553 0.447,1 1,1 l 1,0 C -0.447,2 0,1.553 0,1 L 0,0 Z" id="path74" style="fill:#292f33;fill-opacity:1;fill-rule:nonzero;stroke:none"/></g><g id="g76" transform="translate(27.5,13)"><path d="m 0,0 c 0,-0.553 -0.447,-1 -1,-1 l -1,0 c -0.553,0 -1,0.447 -1,1 l 0,1 c 0,0.553 0.447,1 1,1 l 1,0 C -0.447,2 0,1.553 0,1 L 0,0 Z" id="path78" style="fill:#292f33;fill-opacity:1;fill-rule:nonzero;stroke:none"/></g><g id="g80" transform="translate(31.5,13)"><path d="m 0,0 c 0,-0.553 -0.447,-1 -1,-1 l -1,0 c -0.553,0 -1,0.447 -1,1 l 0,1 c 0,0.553 0.447,1 1,1 l 1,0 C -0.447,2 0,1.553 0,1 L 0,0 Z" id="path82" style="fill:#292f33;fill-opacity:1;fill-rule:nonzero;stroke:none"/></g><g id="g84" transform="translate(10,9)"><path d="m 0,0 c 0,-0.553 -0.448,-1 -1,-1 l -2,0 c -0.552,0 -1,0.447 -1,1 l 0,1 c 0,0.553 0.448,1 1,1 l 2,0 C -0.448,2 0,1.553 0,1 L 0,0 Z" id="path86" style="fill:#292f33;fill-opacity:1;fill-rule:nonzero;stroke:none"/></g><g id="g88" transform="translate(30,9)"><path d="m 0,0 c 0,-0.553 -0.447,-1 -1,-1 l -2,0 c -0.553,0 -1,0.447 -1,1 l 0,1 c 0,0.553 0.447,1 1,1 l 2,0 C -0.447,2 0,1.553 0,1 L 0,0 Z" id="path90" style="fill:#292f33;fill-opacity:1;fill-rule:nonzero;stroke:none"/></g><g id="g92" transform="translate(25,9)"><path d="m 0,0 c 0,-0.553 -0.447,-1 -1,-1 l -12,0 c -0.552,0 -1,0.447 -1,1 l 0,1 c 0,0.553 0.448,1 1,1 L -1,2 C -0.447,2 0,1.553 0,1 L 0,0 Z" id="path94" style="fill:#292f33;fill-opacity:1;fill-rule:nonzero;stroke:none"/></g><g id="g96" transform="translate(5.5,22.9165)"><path d="m 0,0 c 0,-0.552 -0.448,-1 -1,-1 l -1,0 c -0.552,0 -1,0.448 -1,1 0,0.552 0.448,1 1,1 l 1,0 C -0.448,1 0,0.552 0,0" id="path98" style="fill:#292f33;fill-opacity:1;fill-rule:nonzero;stroke:none"/></g><g id="g100" transform="translate(9.5,22.9165)"><path d="m 0,0 c 0,-0.552 -0.448,-1 -1,-1 l -1,0 c -0.552,0 -1,0.448 -1,1 0,0.552 0.448,1 1,1 l 1,0 C -0.448,1 0,0.552 0,0" id="path102" style="fill:#292f33;fill-opacity:1;fill-rule:nonzero;stroke:none"/></g><g id="g104" transform="translate(13.5,22.9165)"><path d="m 0,0 c 0,-0.552 -0.448,-1 -1,-1 l -1,0 c -0.552,0 -1,0.448 -1,1 0,0.552 0.448,1 1,1 l 1,0 C -0.448,1 0,0.552 0,0" id="path106" style="fill:#292f33;fill-opacity:1;fill-rule:nonzero;stroke:none"/></g><g id="g108" transform="translate(17.5,22.9165)"><path d="m 0,0 c 0,-0.552 -0.448,-1 -1,-1 l -1,0 c -0.552,0 -1,0.448 -1,1 0,0.552 0.448,1 1,1 l 1,0 C -0.448,1 0,0.552 0,0" id="path110" style="fill:#292f33;fill-opacity:1;fill-rule:nonzero;stroke:none"/></g><g id="g112" transform="translate(21.5,22.9165)"><path d="m 0,0 c 0,-0.552 -0.447,-1 -1,-1 l -1,0 c -0.553,0 -1,0.448 -1,1 0,0.552 0.447,1 1,1 l 1,0 C -0.447,1 0,0.552 0,0" id="path114" style="fill:#292f33;fill-opacity:1;fill-rule:nonzero;stroke:none"/></g><g id="g116" transform="translate(25.5,22.9165)"><path d="m 0,0 c 0,-0.552 -0.447,-1 -1,-1 l -1,0 c -0.553,0 -1,0.448 -1,1 0,0.552 0.447,1 1,1 l 1,0 C -0.447,1 0,0.552 0,0" id="path118" style="fill:#292f33;fill-opacity:1;fill-rule:nonzero;stroke:none"/></g><g id="g120" transform="translate(29.5,22.9165)"><path d="m 0,0 c 0,-0.552 -0.447,-1 -1,-1 l -1,0 c -0.553,0 -1,0.448 -1,1 0,0.552 0.447,1 1,1 l 1,0 C -0.447,1 0,0.552 0,0" id="path122" style="fill:#292f33;fill-opacity:1;fill-rule:nonzero;stroke:none"/></g><g id="g124" transform="translate(33.5,22.9165)"><path d="m 0,0 c 0,-0.552 -0.447,-1 -1,-1 l -1,0 c -0.553,0 -1,0.448 -1,1 0,0.552 0.447,1 1,1 l 1,0 C -0.447,1 0,0.552 0,0" id="path126" style="fill:#292f33;fill-opacity:1;fill-rule:nonzero;stroke:none"/></g></g></g></g></svg>