<?xml version="1.0" encoding="UTF-8" standalone="no"?><svg xmlns="http://www.w3.org/2000/svg" xmlns:cc="http://creativecommons.org/ns#" xmlns:dc="http://purl.org/dc/elements/1.1/" xmlns:rdf="http://www.w3.org/1999/02/22-rdf-syntax-ns#" xmlns:svg="http://www.w3.org/2000/svg" height="45" id="svg2" style="enable-background:new 0 0 45 45;" version="1.1" viewBox="0 0 45 45" width="45" xml:space="preserve"><metadata id="metadata8"><rdf:RDF><cc:Work rdf:about=""><dc:format>image/svg+xml</dc:format><dc:type rdf:resource="http://purl.org/dc/dcmitype/StillImage"/></cc:Work></rdf:RDF></metadata><defs id="defs6"><clipPath clipPathUnits="userSpaceOnUse" id="clipPath16"><path d="M 0,36 36,36 36,0 0,0 0,36 Z" id="path18"/></clipPath><clipPath clipPathUnits="userSpaceOnUse" id="clipPath28"><path d="M 4,31 C 1.791,31 0,29.209 0,27 L 0,27 0,9 C 0,6.791 1.791,5 4,5 l 0,0 28,0 c 2.209,0 4,1.791 4,4 l 0,0 0,18 c 0,2.209 -1.791,4 -4,4 l 0,0 -28,0 z" id="path30"/></clipPath><clipPath clipPathUnits="userSpaceOnUse" id="clipPath40"><path d="M 0,36 36,36 36,0 0,0 0,36 Z" id="path42"/></clipPath></defs><g id="g10" transform="matrix(1.25,0,0,-1.25,0,45)"><g id="g12"><g clip-path="url(#clipPath16)" id="g14"><g id="g20" transform="translate(36,9)"><path d="m 0,0 c 0,-2.209 -1.791,-4 -4,-4 l -28,0 c -2.209,0 -4,1.791 -4,4 l 0,18 c 0,2.209 1.791,4 4,4 l 28,0 c 2.209,0 4,-1.791 4,-4 L 0,0 Z" id="path22" style="fill:#da121a;fill-opacity:1;fill-rule:nonzero;stroke:none"/></g></g></g><g id="g24"><g clip-path="url(#clipPath28)" id="g26"><path d="M 36,13 0,13 0,23 36,23 36,13 Z" id="path32" style="fill:#fcdd0a;fill-opacity:1;fill-rule:nonzero;stroke:none"/><path d="m 36,23 -36,0 0,8 36,0 0,-8 z" id="path34" style="fill:#088930;fill-opacity:1;fill-rule:nonzero;stroke:none"/></g></g><g id="g36"><g clip-path="url(#clipPath40)" id="g38"><g id="g44" transform="translate(27,18)"><path d="m 0,0 c 0,-4.971 -4.029,-9 -9,-9 -4.971,0 -9,4.029 -9,9 0,4.971 4.029,9 9,9 4.971,0 9,-4.029 9,-9" id="path46" style="fill:#0f47af;fill-opacity:1;fill-rule:nonzero;stroke:none"/></g><g id="g48" transform="translate(13.25,11.5312)"><path d="m 0,0 1.719,5.531 -2.731,1.985 1.157,0 L 3.922,4.623 3.328,4.264 2.406,5.094 0.937,0.687 0,0 Z" id="path50" style="fill:#fcdd0a;fill-opacity:1;fill-rule:nonzero;stroke:none"/></g><g id="g52" transform="translate(22.6094,11.5312)"><path d="m 0,0 -4.73,3.345 -2.723,-1.97 0.356,1.1 3.964,2.824 L -2.975,4.623 -4.102,3.863 -0.363,1.104 0,0 Z" id="path54" style="fill:#fcdd0a;fill-opacity:1;fill-rule:nonzero;stroke:none"/></g><g id="g56" transform="translate(25.3818,20.3604)"><path d="m 0,0 -4.519,-3.372 1.012,-3.223 -0.935,0.678 -1.463,4.633 0.693,-0.059 0.395,-1.272 3.7,2.647 L 0,0 Z" id="path58" style="fill:#fcdd0a;fill-opacity:1;fill-rule:nonzero;stroke:none"/></g><g id="g60" transform="translate(17.8721,25.9297)"><path d="m 0,0 1.86,-5.486 3.344,-0.051 -0.934,-0.68 -4.548,0.038 0.271,0.642 0.979,0.06 -1.327,4.37 L 0,0 Z" id="path62" style="fill:#fcdd0a;fill-opacity:1;fill-rule:nonzero;stroke:none"/></g><g id="g64" transform="translate(10.2031,20.4531)"><path d="M 0,0 5.906,0 6.969,3.254 7.327,2.156 5.809,-2.453 5.283,-1.997 5.759,-0.625 0.976,-0.654 0,0 Z" id="path66" style="fill:#fcdd0a;fill-opacity:1;fill-rule:nonzero;stroke:none"/></g><path d="m 18.146,10.041 -0.417,0 0,3.646 0.417,0 0,-3.646 z" id="path68" style="fill:#fcdd0a;fill-opacity:1;fill-rule:nonzero;stroke:none"/><g id="g70" transform="translate(25.5762,15.7754)"><path d="M 0,0 -0.128,-0.396 -3.576,0.759 -3.448,1.154 0,0 Z" id="path72" style="fill:#fcdd0a;fill-opacity:1;fill-rule:nonzero;stroke:none"/></g><g id="g74" transform="translate(22.4727,24.5469)"><path d="M 0,0 0.337,-0.245 -1.84,-3.266 -2.177,-3.022 0,0 Z" id="path76" style="fill:#fcdd0a;fill-opacity:1;fill-rule:nonzero;stroke:none"/></g><g id="g78" transform="translate(13.1143,24.3022)"><path d="M 0,0 0.337,0.245 2.511,-2.776 2.175,-3.021 0,0 Z" id="path80" style="fill:#fcdd0a;fill-opacity:1;fill-rule:nonzero;stroke:none"/></g><g id="g82" transform="translate(10.4766,15.3789)"><path d="M 0,0 -0.129,0.396 3.326,1.551 3.455,1.154 0,0 Z" id="path84" style="fill:#fcdd0a;fill-opacity:1;fill-rule:nonzero;stroke:none"/></g></g></g></g></svg>