<?xml version="1.0" encoding="UTF-8" standalone="no"?><svg xmlns="http://www.w3.org/2000/svg" xmlns:cc="http://creativecommons.org/ns#" xmlns:dc="http://purl.org/dc/elements/1.1/" xmlns:rdf="http://www.w3.org/1999/02/22-rdf-syntax-ns#" xmlns:svg="http://www.w3.org/2000/svg" height="45" id="svg2" style="enable-background:new 0 0 45 45;" version="1.1" viewBox="0 0 45 45" width="45" xml:space="preserve"><metadata id="metadata8"><rdf:RDF><cc:Work rdf:about=""><dc:format>image/svg+xml</dc:format><dc:type rdf:resource="http://purl.org/dc/dcmitype/StillImage"/></cc:Work></rdf:RDF></metadata><defs id="defs6"><clipPath clipPathUnits="userSpaceOnUse" id="clipPath16"><path d="M 0,36 36,36 36,0 0,0 0,36 Z" id="path18"/></clipPath></defs><g id="g10" transform="matrix(1.25,0,0,-1.25,0,45)"><g id="g12"><g clip-path="url(#clipPath16)" id="g14"><g id="g20" transform="translate(2,7)"><path d="m 0,0 -1,-6 8,0 c 0,0 1,2 3,2 l 6,0 0,4 -16,0 z" id="path22" style="fill:#662113;fill-opacity:1;fill-rule:nonzero;stroke:none"/></g><g id="g24" transform="translate(34,7)"><path d="m 0,0 1,-6 -8,0 c 0,0 -1,2 -3,2 l -6,0 0,4 16,0 z" id="path26" style="fill:#662113;fill-opacity:1;fill-rule:nonzero;stroke:none"/></g><g id="g28" transform="translate(6,16)"><path d="M 0,0 C 0,-1 0,-8 -4,-8 L 4,-9 0,0 Z" id="path30" style="fill:#662113;fill-opacity:1;fill-rule:nonzero;stroke:none"/></g><g id="g32" transform="translate(30,16)"><path d="M 0,0 C 0,-1 0,-8 4,-8 L -4,-9 0,0 Z" id="path34" style="fill:#662113;fill-opacity:1;fill-rule:nonzero;stroke:none"/></g><g id="g36" transform="translate(30,16)"><path d="m 0,0 c 0,-6.628 -5.373,-12 -12,-12 -6.627,0 -12,5.372 -12,12 0,6.627 5.373,12 12,12 C -5.373,12 0,6.627 0,0" id="path38" style="fill:#662113;fill-opacity:1;fill-rule:nonzero;stroke:none"/></g><g id="g40" transform="translate(10,1)"><path d="m 0,0 c 0,-0.553 -0.448,-1 -1,-1 l -8,0 c -0.552,0 -1,0.447 -1,1 0,0.553 0.448,1 1,1 l 8,0 C -0.448,1 0,0.553 0,0" id="path42" style="fill:#a0041e;fill-opacity:1;fill-rule:nonzero;stroke:none"/></g><g id="g44" transform="translate(36,1)"><path d="m 0,0 c 0,-0.553 -0.447,-1 -1,-1 l -8,0 c -0.553,0 -1,0.447 -1,1 0,0.553 0.447,1 1,1 l 8,0 C -0.447,1 0,0.553 0,0" id="path46" style="fill:#a0041e;fill-opacity:1;fill-rule:nonzero;stroke:none"/></g><g id="g48" transform="translate(35,7)"><path d="m 0,0 c 0,-0.553 -0.447,-1 -1,-1 l -32,0 c -0.552,0 -1,0.447 -1,1 0,0.553 0.448,1 1,1 L -1,1 C -0.447,1 0,0.553 0,0" id="path50" style="fill:#a0041e;fill-opacity:1;fill-rule:nonzero;stroke:none"/></g><g id="g52" transform="translate(27,16)"><path d="m 0,0 c 0,-4.971 -4.03,-9 -9,-9 -4.971,0 -9,4.029 -9,9 0,4.97 4.029,8.999 9,8.999 4.97,0 9,-4.029 9,-8.999" id="path54" style="fill:#ffac33;fill-opacity:1;fill-rule:nonzero;stroke:none"/></g><g id="g56" transform="translate(26,16)"><path d="m 0,0 c 0,-4.418 -3.582,-8 -8,-8 -4.419,0 -8,3.582 -8,8 0,4.418 3.581,7.999 8,7.999 4.418,0 8,-3.581 8,-7.999" id="path58" style="fill:#f5f8fa;fill-opacity:1;fill-rule:nonzero;stroke:none"/></g><g id="g60" transform="translate(18,16)"><path d="M 0,0 C 0,0 -0.119,-1 -1.5,-1 -2.881,-1 -5,0 -5,0 -5,0 -2.881,1 -1.5,1 -0.119,1 0,0 0,0" id="path62" style="fill:#c1694f;fill-opacity:1;fill-rule:nonzero;stroke:none"/></g><g id="g64" transform="translate(19,19.4995)"><path d="m 0,0 c 0,-1.933 -0.448,-3.499 -1,-3.499 -0.552,0 -1,1.566 -1,3.499 0,1.933 1,3.5 1,3.5 C -1,3.501 0,1.933 0,0" id="path66" style="fill:#c1694f;fill-opacity:1;fill-rule:nonzero;stroke:none"/></g><g id="g68" transform="translate(18.5864,16)"><path d="m 0,0 c 0,-0.324 -0.263,-0.586 -0.586,-0.586 -0.324,0 -0.587,0.262 -0.587,0.586 0,0.324 0.263,0.586 0.587,0.586 C -0.263,0.586 0,0.324 0,0" id="path70" style="fill:#662113;fill-opacity:1;fill-rule:nonzero;stroke:none"/></g></g></g></g></svg>