<?xml version="1.0" encoding="UTF-8" standalone="no"?><svg xmlns="http://www.w3.org/2000/svg" xmlns:cc="http://creativecommons.org/ns#" xmlns:dc="http://purl.org/dc/elements/1.1/" xmlns:rdf="http://www.w3.org/1999/02/22-rdf-syntax-ns#" xmlns:svg="http://www.w3.org/2000/svg" height="45" id="svg2" style="enable-background:new 0 0 45 45;" version="1.1" viewBox="0 0 45 45" width="45" xml:space="preserve"><metadata id="metadata8"><rdf:RDF><cc:Work rdf:about=""><dc:format>image/svg+xml</dc:format><dc:type rdf:resource="http://purl.org/dc/dcmitype/StillImage"/></cc:Work></rdf:RDF></metadata><defs id="defs6"><clipPath clipPathUnits="userSpaceOnUse" id="clipPath16"><path d="M 0,36 36,36 36,0 0,0 0,36 Z" id="path18"/></clipPath></defs><g id="g10" transform="matrix(1.25,0,0,-1.25,0,45)"><g id="g12"><g clip-path="url(#clipPath16)" id="g14"><g id="g20" transform="translate(0,4)"><path d="m 0,0 c 0,-2.209 1.791,-4 4,-4 l 28,0 c 2.209,0 4,1.791 4,4 l 0,28 c 0,2.209 -1.791,4 -4,4 L 4,32 C 1.791,32 0,30.209 0,28 L 0,0 Z" id="path22" style="fill:#88c9f9;fill-opacity:1;fill-rule:nonzero;stroke:none"/></g><path d="m 14,2 2,0 0,32 -2,0 0,-32 z" id="path24" style="fill:#58595b;fill-opacity:1;fill-rule:nonzero;stroke:none"/><g id="g26" transform="translate(24,21)"><path d="M 0,0 C 0,0 2,3 4,3 6,3 7,2 7,0 7,-2 5,-4 6,-6 6,-6 4,-3 5,-1 6.413,1.829 1,2 2,-1 3.14,-4.421 0,0 0,0" id="path28" style="fill:#dd2e44;fill-opacity:1;fill-rule:nonzero;stroke:none"/></g><g id="g30" transform="translate(28,10)"><path d="m 0,0 c 0,-2 1,-3 3,-3 2,0 1,0 0,2 C 2,1 0,2 0,2 L 0,0 Z" id="path32" style="fill:#939598;fill-opacity:1;fill-rule:nonzero;stroke:none"/></g><g id="g34" transform="translate(6,13)"><path d="m 0,0 c 0,-2 2,-4 3,-4 1,0 1,1 0,2 C 2,-1 0,1 2,1 4,1 5,1 6,2 7,3 7,5 5,4 3,3 2,2 1,2 0,2 0,0 0,0" id="path36" style="fill:#939598;fill-opacity:1;fill-rule:nonzero;stroke:none"/></g><g id="g38" transform="translate(16,22)"><path d="m 0,0 c -2,0 -3,0 -4,4 -0.767,3.068 -4,4 -7,3 0,0 -2,1 -1,0 1,-1 0,-1 0,-3 0,-2 0,-5 1,-5 2,0 2,3 2,3 0,0 1,0 1,-2 0,-1 -1,-2 1,-5 0,0 -3,0 -4,-1 -1,-1 -1,-3 -1,-4 0,-1 1,-3 2,-3 1,0 1,1 1,2 0,1 -2,0 -1,2 1,2 1,1 2,1 1,0 3,1 4,1 1,0 3,-1 5,-1 2,0 4,2 6,0 2,-2 5,-2 6,-3 1,-1 1,-2 1,-3 0,-1 2,-2 3,-2 1,0 1,1 0,2 -1,1 -2,0 -2,2 0,2 -1,3 -2,3 -1,0 -1,4 -1,5 0,1 -2,5 -5,5 C 4,1 2,0 0,0" id="path40" style="fill:#f1f2f2;fill-opacity:1;fill-rule:nonzero;stroke:none"/></g><g id="g42" transform="translate(12.542,24.2207)"><path d="m 0,0 c 0.848,-2.216 1.815,-2.221 3.458,-2.221 1.685,0 3.378,0.704 5.662,0.928 0.12,-0.304 0.232,-0.614 0.338,-0.928 1,-3 0,-5 -5,-5 -2.762,0 -5,2.239 -5,5 0,0.802 0.206,1.55 0.542,2.221" id="path44" style="fill:#cbb7ea;fill-opacity:1;fill-rule:nonzero;stroke:none"/></g><g id="g46" transform="translate(9.002,17)"><path d="M 0,0 C 0.19,0 0.383,0.054 0.553,0.168 0.687,0.257 3.851,2.396 4.946,5.684 5.121,6.208 4.838,6.774 4.314,6.949 3.786,7.125 3.225,6.84 3.05,6.316 2.174,3.689 -0.531,1.85 -0.558,1.831 -1.016,1.523 -1.139,0.903 -0.832,0.444 -0.64,0.156 -0.323,0 0,0" id="path48" style="fill:#ffac33;fill-opacity:1;fill-rule:nonzero;stroke:none"/></g><g id="g50" transform="translate(5,29)"><path d="M 0,0 C 2,2 4.419,1.581 6,0 8,-2 7,-4 9,-6 10.581,-7.581 7,-6 6,-3 5.293,-0.879 2,0 0,0" id="path52" style="fill:#dd2e44;fill-opacity:1;fill-rule:nonzero;stroke:none"/></g></g></g></g></svg>