<?xml version="1.0" encoding="UTF-8" standalone="no"?><svg xmlns="http://www.w3.org/2000/svg" xmlns:cc="http://creativecommons.org/ns#" xmlns:dc="http://purl.org/dc/elements/1.1/" xmlns:rdf="http://www.w3.org/1999/02/22-rdf-syntax-ns#" xmlns:svg="http://www.w3.org/2000/svg" height="45" id="svg2" style="enable-background:new 0 0 45 45;" version="1.1" viewBox="0 0 45 45" width="45" xml:space="preserve"><metadata id="metadata8"><rdf:RDF><cc:Work rdf:about=""><dc:format>image/svg+xml</dc:format><dc:type rdf:resource="http://purl.org/dc/dcmitype/StillImage"/></cc:Work></rdf:RDF></metadata><defs id="defs6"><clipPath clipPathUnits="userSpaceOnUse" id="clipPath16"><path d="M 0,36 36,36 36,0 0,0 0,36 Z" id="path18"/></clipPath></defs><g id="g10" transform="matrix(1.25,0,0,-1.25,0,45)"><g id="g12"><g clip-path="url(#clipPath16)" id="g14"><g id="g20" transform="translate(36,4)"><path d="m 0,0 c 0,-2.209 -1.791,-4 -4,-4 l -28,0 c -2.209,0 -4,1.791 -4,4 l 0,28 c 0,2.209 1.791,4 4,4 l 28,0 c 2.209,0 4,-1.791 4,-4 L 0,0 Z" id="path22" style="fill:#226699;fill-opacity:1;fill-rule:nonzero;stroke:none"/></g><g id="g24" transform="translate(32.8281,27)"><path d="m 0,0 c 0,-3.313 -2.686,-6 -6,-6 -3.313,0 -6,2.687 -6,6 L 0,0 Z" id="path26" style="fill:#f5f8fa;fill-opacity:1;fill-rule:nonzero;stroke:none"/></g><g id="g28" transform="translate(32.8281,33)"><path d="m 0,0 -12,0 c -0.553,0 -1,-0.448 -1,-1 0,-0.182 0.049,-0.569 0.134,-1.007 C -12.911,-2.005 -12.954,-2 -13,-2 c -1.104,0 -2,-0.448 -2,-1 0,-0.552 0.896,-1 2,-1 0.37,0 0.684,0.003 0.971,0.008 C -12.02,-3.994 -12.01,-4 -12,-4 l 12,0 c 0.553,0 1,2.448 1,3 0,0.552 -0.447,1 -1,1" id="path30" style="fill:#f5f8fa;fill-opacity:1;fill-rule:nonzero;stroke:none"/></g><g id="g32" transform="translate(32.6484,17.8203)"><path d="m 0,0 -11.82,-11.82 c 0,-1.105 0.896,-2 2,-2 l 8,0 c 1.105,0 2,0.895 2,2 l 0,11 C 0.18,-0.527 0.113,-0.251 0,0" id="path34" style="fill:#f5f8fa;fill-opacity:1;fill-rule:nonzero;stroke:none"/></g><g id="g36" transform="translate(29.8281,19)"><path d="m 0,0 -7,0 c -0.057,0 -0.11,-0.012 -0.166,-0.017 -1.318,0.071 -2.796,-0.118 -3.248,-0.569 l -5.828,-6 c -0.781,-0.781 -0.781,-2.048 0,-2.829 0.781,-0.78 2.047,-0.78 2.829,0 L -9,-4.871 -9,-9 0,0 Z" id="path38" style="fill:#f5f8fa;fill-opacity:1;fill-rule:nonzero;stroke:none"/></g><g id="g40" transform="translate(15,8)"><path d="m 0,0 -9,0 0,9 c 0,1.105 -0.896,2 -2,2 -1.104,0 -2,-0.895 -2,-2 l 0,-9 c 0,-1.104 0.896,-2 2,-2 0,-1.104 0.896,-2 2,-2 l 9,0 c 1.105,0 2,0.896 2,2 0,1.104 -0.895,2 -2,2" id="path42" style="fill:#f5f8fa;fill-opacity:1;fill-rule:nonzero;stroke:none"/></g></g></g></g></svg>