<?xml version="1.0" encoding="UTF-8" standalone="no"?><svg xmlns="http://www.w3.org/2000/svg" xmlns:cc="http://creativecommons.org/ns#" xmlns:dc="http://purl.org/dc/elements/1.1/" xmlns:rdf="http://www.w3.org/1999/02/22-rdf-syntax-ns#" xmlns:svg="http://www.w3.org/2000/svg" height="45" id="svg2" style="enable-background:new 0 0 45 45;" version="1.1" viewBox="0 0 45 45" width="45" xml:space="preserve"><metadata id="metadata8"><rdf:RDF><cc:Work rdf:about=""><dc:format>image/svg+xml</dc:format><dc:type rdf:resource="http://purl.org/dc/dcmitype/StillImage"/></cc:Work></rdf:RDF></metadata><defs id="defs6"><clipPath clipPathUnits="userSpaceOnUse" id="clipPath16"><path d="M 0,36 36,36 36,0 0,0 0,36 Z" id="path18"/></clipPath></defs><g id="g10" transform="matrix(1.25,0,0,-1.25,0,45)"><g id="g12"><g clip-path="url(#clipPath16)" id="g14"><g id="g20" transform="translate(22.4199,24.1533)"><path d="m 0,0 3.58,9.847 c 0,0 -0.398,-0.002 -1,-0.034 l 0,2.034 -2,0 0,-2.219 c -2.271,-0.303 -5,-1.028 -5,-2.781 0,1.753 -2.729,2.478 -5,2.781 l 0,2.219 -2,0 0,-2.034 c -0.601,0.032 -1,0.034 -1,0.034 L -8.839,0 -21.42,-13.796 c 0,0 6,-10.357 17,-10.357 11,0 17,10.357 17,10.357 L 0,0 Z" id="path22" style="fill:#55acee;fill-opacity:1;fill-rule:nonzero;stroke:none"/></g><path d="m 23,23 -10,0 0,2 10,0 0,-2 z" id="path24" style="fill:#bbddf5;fill-opacity:1;fill-rule:nonzero;stroke:none"/><g id="g26" transform="translate(15,23)"><path d="M 0,0 C 0,0 -6.734,-8.106 -5.051,-9.006 -3.367,-9.907 0,0 0,0" id="path28" style="fill:#3b88c3;fill-opacity:1;fill-rule:nonzero;stroke:none"/></g><g id="g30" transform="translate(21.0957,23)"><path d="M 0,0 C 0,0 6.734,-8.105 5.051,-9.007 3.367,-9.907 0,0 0,0" id="path32" style="fill:#3b88c3;fill-opacity:1;fill-rule:nonzero;stroke:none"/></g><g id="g34" transform="translate(18,23)"><path d="M 0,0 C 0,0 -2,-11 0,-11 2,-11 0,0 0,0" id="path36" style="fill:#3b88c3;fill-opacity:1;fill-rule:nonzero;stroke:none"/></g></g></g></g></svg>