<?xml version="1.0" encoding="UTF-8" standalone="no"?><svg xmlns="http://www.w3.org/2000/svg" xmlns:cc="http://creativecommons.org/ns#" xmlns:dc="http://purl.org/dc/elements/1.1/" xmlns:rdf="http://www.w3.org/1999/02/22-rdf-syntax-ns#" xmlns:svg="http://www.w3.org/2000/svg" height="45" id="svg2" style="enable-background:new 0 0 45 45;" version="1.1" viewBox="0 0 45 45" width="45" xml:space="preserve"><metadata id="metadata8"><rdf:RDF><cc:Work rdf:about=""><dc:format>image/svg+xml</dc:format><dc:type rdf:resource="http://purl.org/dc/dcmitype/StillImage"/></cc:Work></rdf:RDF></metadata><defs id="defs6"><clipPath clipPathUnits="userSpaceOnUse" id="clipPath16"><path d="M 0,36 36,36 36,0 0,0 0,36 Z" id="path18"/></clipPath></defs><g id="g10" transform="matrix(1.25,0,0,-1.25,0,45)"><g id="g12"><g clip-path="url(#clipPath16)" id="g14"><g id="g20" transform="translate(28,32)"><path d="M 0,0 C -0.825,0 -1.62,-0.125 -2.369,-0.357 -3.256,2.178 -5.662,4 -8.5,4 -11.544,4 -14.092,1.904 -14.799,-0.921 -15.553,-0.351 -16.481,0 -17.5,0 -19.985,0 -22,-2.015 -22,-4.5 c 0,-0.604 0.123,-1.178 0.339,-1.704 C -22.09,-6.085 -22.533,-6 -23,-6 c -2.762,0 -5,-2.238 -5,-5 0,-2.762 2.238,-5 5,-5 l 23,0 c 4.418,0 8,3.581 8,8 0,4.418 -3.582,8 -8,8" id="path22" style="fill:#e1e8ed;fill-opacity:1;fill-rule:nonzero;stroke:none"/></g><g id="g24" transform="translate(4,4.5)"><path d="M 0,0 C 0,-0.276 -0.224,-0.5 -0.5,-0.5 -0.776,-0.5 -1,-0.276 -1,0 l 0,6 c 0,0.276 0.224,0.5 0.5,0.5 C -0.224,6.5 0,6.276 0,6 L 0,0 Z" id="path26" style="fill:#5dadec;fill-opacity:1;fill-rule:nonzero;stroke:none"/></g><g id="g28" transform="translate(6.3477,6.4326)"><path d="M 0,0 C 0.239,-0.138 0.32,-0.443 0.183,-0.683 0.045,-0.923 -0.261,-1.004 -0.5,-0.866 l -5.196,3 c -0.24,0.138 -0.322,0.443 -0.183,0.683 0.138,0.24 0.443,0.321 0.683,0.183 L 0,0 Z" id="path30" style="fill:#5dadec;fill-opacity:1;fill-rule:nonzero;stroke:none"/></g><g id="g32" transform="translate(0.6514,6.4326)"><path d="m 0,0 c -0.239,-0.138 -0.32,-0.443 -0.183,-0.683 0.138,-0.24 0.444,-0.321 0.683,-0.183 l 5.196,3 C 5.936,2.272 6.018,2.577 5.879,2.817 5.741,3.057 5.436,3.138 5.196,3 L 0,0 Z" id="path34" style="fill:#5dadec;fill-opacity:1;fill-rule:nonzero;stroke:none"/></g><g id="g36" transform="translate(14,0.5)"><path d="M 0,0 C 0,-0.276 -0.224,-0.5 -0.5,-0.5 -0.776,-0.5 -1,-0.276 -1,0 l 0,6 c 0,0.276 0.224,0.5 0.5,0.5 C -0.224,6.5 0,6.276 0,6 L 0,0 Z" id="path38" style="fill:#5dadec;fill-opacity:1;fill-rule:nonzero;stroke:none"/></g><g id="g40" transform="translate(16.3477,2.4326)"><path d="M 0,0 C 0.239,-0.138 0.32,-0.443 0.183,-0.683 0.045,-0.923 -0.261,-1.004 -0.5,-0.866 l -5.196,3 c -0.24,0.138 -0.322,0.443 -0.183,0.683 0.138,0.24 0.443,0.321 0.683,0.183 L 0,0 Z" id="path42" style="fill:#5dadec;fill-opacity:1;fill-rule:nonzero;stroke:none"/></g><g id="g44" transform="translate(10.6514,2.4326)"><path d="m 0,0 c -0.239,-0.138 -0.32,-0.443 -0.183,-0.683 0.138,-0.24 0.444,-0.321 0.683,-0.183 l 5.196,3 C 5.936,2.272 6.018,2.577 5.879,2.817 5.741,3.057 5.436,3.138 5.196,3 L 0,0 Z" id="path46" style="fill:#5dadec;fill-opacity:1;fill-rule:nonzero;stroke:none"/></g><g id="g48" transform="translate(12,8.5)"><path d="M 0,0 C 0,-0.276 -0.224,-0.5 -0.5,-0.5 -0.776,-0.5 -1,-0.276 -1,0 l 0,6 c 0,0.276 0.224,0.5 0.5,0.5 C -0.224,6.5 0,6.276 0,6 L 0,0 Z" id="path50" style="fill:#5dadec;fill-opacity:1;fill-rule:nonzero;stroke:none"/></g><g id="g52" transform="translate(14.3477,10.4326)"><path d="M 0,0 C 0.239,-0.138 0.32,-0.443 0.183,-0.683 0.045,-0.923 -0.261,-1.004 -0.5,-0.866 l -5.196,3 c -0.24,0.138 -0.322,0.443 -0.183,0.683 0.138,0.24 0.443,0.321 0.683,0.183 L 0,0 Z" id="path54" style="fill:#5dadec;fill-opacity:1;fill-rule:nonzero;stroke:none"/></g><g id="g56" transform="translate(8.6514,10.4326)"><path d="m 0,0 c -0.239,-0.138 -0.32,-0.443 -0.183,-0.683 0.138,-0.24 0.444,-0.321 0.683,-0.183 l 5.196,3 C 5.936,2.272 6.018,2.577 5.879,2.817 5.741,3.057 5.436,3.138 5.196,3 L 0,0 Z" id="path58" style="fill:#5dadec;fill-opacity:1;fill-rule:nonzero;stroke:none"/></g><g id="g60" transform="translate(22,7.5)"><path d="M 0,0 C 0,-0.276 -0.224,-0.5 -0.5,-0.5 -0.776,-0.5 -1,-0.276 -1,0 l 0,6 c 0,0.276 0.224,0.5 0.5,0.5 C -0.224,6.5 0,6.276 0,6 L 0,0 Z" id="path62" style="fill:#5dadec;fill-opacity:1;fill-rule:nonzero;stroke:none"/></g><g id="g64" transform="translate(24.3477,9.4326)"><path d="M 0,0 C 0.239,-0.138 0.32,-0.443 0.183,-0.683 0.045,-0.923 -0.261,-1.004 -0.5,-0.866 l -5.196,3 c -0.24,0.138 -0.322,0.443 -0.183,0.683 0.138,0.24 0.443,0.321 0.683,0.183 L 0,0 Z" id="path66" style="fill:#5dadec;fill-opacity:1;fill-rule:nonzero;stroke:none"/></g><g id="g68" transform="translate(18.6514,9.4326)"><path d="m 0,0 c -0.239,-0.138 -0.32,-0.443 -0.183,-0.683 0.138,-0.24 0.444,-0.321 0.683,-0.183 l 5.196,3 C 5.936,2.272 6.018,2.577 5.879,2.817 5.741,3.057 5.436,3.138 5.196,3 L 0,0 Z" id="path70" style="fill:#5dadec;fill-opacity:1;fill-rule:nonzero;stroke:none"/></g><g id="g72" transform="translate(32,8.5)"><path d="M 0,0 C 0,-0.276 -0.224,-0.5 -0.5,-0.5 -0.776,-0.5 -1,-0.276 -1,0 l 0,6 c 0,0.276 0.224,0.5 0.5,0.5 C -0.224,6.5 0,6.276 0,6 L 0,0 Z" id="path74" style="fill:#5dadec;fill-opacity:1;fill-rule:nonzero;stroke:none"/></g><g id="g76" transform="translate(34.3477,10.4326)"><path d="M 0,0 C 0.239,-0.138 0.32,-0.443 0.183,-0.683 0.045,-0.923 -0.261,-1.004 -0.5,-0.866 l -5.196,3 c -0.24,0.138 -0.322,0.443 -0.183,0.683 0.138,0.24 0.443,0.321 0.683,0.183 L 0,0 Z" id="path78" style="fill:#5dadec;fill-opacity:1;fill-rule:nonzero;stroke:none"/></g><g id="g80" transform="translate(28.6514,10.4326)"><path d="m 0,0 c -0.239,-0.138 -0.32,-0.443 -0.183,-0.683 0.138,-0.24 0.444,-0.321 0.683,-0.183 l 5.196,3 C 5.936,2.272 6.018,2.577 5.879,2.817 5.741,3.057 5.436,3.138 5.196,3 L 0,0 Z" id="path82" style="fill:#5dadec;fill-opacity:1;fill-rule:nonzero;stroke:none"/></g><g id="g84" transform="translate(27,0.5)"><path d="M 0,0 C 0,-0.276 -0.224,-0.5 -0.5,-0.5 -0.776,-0.5 -1,-0.276 -1,0 l 0,6 c 0,0.276 0.224,0.5 0.5,0.5 C -0.224,6.5 0,6.276 0,6 L 0,0 Z" id="path86" style="fill:#5dadec;fill-opacity:1;fill-rule:nonzero;stroke:none"/></g><g id="g88" transform="translate(29.3477,2.4326)"><path d="M 0,0 C 0.239,-0.138 0.32,-0.443 0.183,-0.683 0.045,-0.923 -0.261,-1.004 -0.5,-0.866 l -5.196,3 c -0.24,0.138 -0.322,0.443 -0.183,0.683 0.138,0.24 0.443,0.321 0.683,0.183 L 0,0 Z" id="path90" style="fill:#5dadec;fill-opacity:1;fill-rule:nonzero;stroke:none"/></g><g id="g92" transform="translate(23.6514,2.4326)"><path d="m 0,0 c -0.239,-0.138 -0.32,-0.443 -0.183,-0.683 0.138,-0.24 0.444,-0.321 0.683,-0.183 l 5.196,3 C 5.936,2.272 6.018,2.577 5.879,2.817 5.741,3.057 5.436,3.138 5.196,3 L 0,0 Z" id="path94" style="fill:#5dadec;fill-opacity:1;fill-rule:nonzero;stroke:none"/></g></g></g></g></svg>