<?xml version="1.0" encoding="UTF-8" standalone="no"?><svg xmlns="http://www.w3.org/2000/svg" xmlns:cc="http://creativecommons.org/ns#" xmlns:dc="http://purl.org/dc/elements/1.1/" xmlns:rdf="http://www.w3.org/1999/02/22-rdf-syntax-ns#" xmlns:svg="http://www.w3.org/2000/svg" height="45" id="svg2" style="enable-background:new 0 0 45 45;" version="1.1" viewBox="0 0 45 45" width="45" xml:space="preserve"><metadata id="metadata8"><rdf:RDF><cc:Work rdf:about=""><dc:format>image/svg+xml</dc:format><dc:type rdf:resource="http://purl.org/dc/dcmitype/StillImage"/></cc:Work></rdf:RDF></metadata><defs id="defs6"><clipPath clipPathUnits="userSpaceOnUse" id="clipPath16"><path d="M 0,36 36,36 36,0 0,0 0,36 Z" id="path18"/></clipPath><clipPath clipPathUnits="userSpaceOnUse" id="clipPath40"><path d="m 17,29 -1,-10 4,0 -1,10 -2,0 z" id="path42"/></clipPath><clipPath clipPathUnits="userSpaceOnUse" id="clipPath50"><path d="M 0,36 36,36 36,0 0,0 0,36 Z" id="path52"/></clipPath></defs><g id="g10" transform="matrix(1.25,0,0,-1.25,0,45)"><g id="g12"><g clip-path="url(#clipPath16)" id="g14"><g id="g20" transform="translate(36,4)"><path d="m 0,0 c 0,0 0,-4 -4,-4 l -28,0 c 0,0 -4,0 -4,4 l 0,28 c 0,4 4,4 4,4 l 28,0 c 4,0 4,-4 4,-4 L 0,0 Z" id="path22" style="fill:#88c9f9;fill-opacity:1;fill-rule:nonzero;stroke:none"/></g><g id="g24" transform="translate(18,31)"><path d="m 0,0 -1,0 0,-3 2,0 0,3 -1,0 z" id="path26" style="fill:#ffffff;fill-opacity:1;fill-rule:nonzero;stroke:none"/></g><g id="g28" transform="translate(19,33)"><path d="M 0,0 C 0,0 0,1 -1,1 -2,1 -2,0 -2,0 l 0,-2 2,0 0,2 z" id="path30" style="fill:#dd2e44;fill-opacity:1;fill-rule:nonzero;stroke:none"/></g><g id="g32" transform="translate(17,29)"><path d="M 0,0 -1,-10 3,-10 2,0 0,0 Z" id="path34" style="fill:#dd2e44;fill-opacity:1;fill-rule:nonzero;stroke:none"/></g></g></g><g id="g36"><g clip-path="url(#clipPath40)" id="g38"><path d="m 15,23 6,0 0,3 -6,0 0,-3 z" id="path44" style="fill:#ffffff;fill-opacity:1;fill-rule:nonzero;stroke:none"/></g></g><g id="g46"><g clip-path="url(#clipPath50)" id="g48"><path d="m 14,16 8,0 0,4 -8,0 0,-4 z" id="path54" style="fill:#ffffff;fill-opacity:1;fill-rule:nonzero;stroke:none"/><path d="m 15,12 6,0 0,4 -6,0 0,-4 z" id="path56" style="fill:#dd2e44;fill-opacity:1;fill-rule:nonzero;stroke:none"/><g id="g58" transform="translate(15,16)"><path d="m 0,0 c 0,0 0,-11 -10,-16 l 3,0 c 0,0 7,3 9,16 L 0,0 Z" id="path60" style="fill:#dd2e44;fill-opacity:1;fill-rule:nonzero;stroke:none"/></g><g id="g62" transform="translate(21,16)"><path d="m 0,0 c 0,0 0,-11 10,-16 l -3,0 c 0,0 -7,3 -9,16 l 2,0 z" id="path64" style="fill:#dd2e44;fill-opacity:1;fill-rule:nonzero;stroke:none"/></g><path d="m 19,0 -2,0 0,13 2,0 0,-13 z" id="path66" style="fill:#dd2e44;fill-opacity:1;fill-rule:nonzero;stroke:none"/><g id="g68" transform="translate(8,0)"><path d="M 0,0 C 0,0 5,3 10,3 15,3 20,0 20,0 l 0,1.884 C 20,1.884 15,5 10,5 5,5 0,1.884 0,1.884 L 0,0 Z" id="path70" style="fill:#dd2e44;fill-opacity:1;fill-rule:nonzero;stroke:none"/></g></g></g></g></svg>