<?xml version="1.0" encoding="UTF-8" standalone="no"?><svg xmlns="http://www.w3.org/2000/svg" xmlns:cc="http://creativecommons.org/ns#" xmlns:dc="http://purl.org/dc/elements/1.1/" xmlns:rdf="http://www.w3.org/1999/02/22-rdf-syntax-ns#" xmlns:svg="http://www.w3.org/2000/svg" height="45" id="svg2" style="enable-background:new 0 0 45 45;" version="1.1" viewBox="0 0 45 45" width="45" xml:space="preserve"><metadata id="metadata8"><rdf:RDF><cc:Work rdf:about=""><dc:format>image/svg+xml</dc:format><dc:type rdf:resource="http://purl.org/dc/dcmitype/StillImage"/></cc:Work></rdf:RDF></metadata><defs id="defs6"><clipPath clipPathUnits="userSpaceOnUse" id="clipPath16"><path d="M 0,36 36,36 36,0 0,0 0,36 Z" id="path18"/></clipPath></defs><g id="g10" transform="matrix(1.25,0,0,-1.25,0,45)"><g id="g12"><g clip-path="url(#clipPath16)" id="g14"><g id="g20" transform="translate(36,9)"><path d="m 0,0 c 0,-2.209 -1.791,-4 -4,-4 l -28,0 c -2.209,0 -4,1.791 -4,4 l 0,18 c 0,2.209 1.791,4 4,4 l 28,0 c 2.209,0 4,-1.791 4,-4 L 0,0 Z" id="path22" style="fill:#c60a1d;fill-opacity:1;fill-rule:nonzero;stroke:none"/></g><path d="M 36,12 0,12 0,24 36,24 36,12 Z" id="path24" style="fill:#ffc400;fill-opacity:1;fill-rule:nonzero;stroke:none"/><g id="g26" transform="translate(9,19)"><path d="m 0,0 0,-3 c 0,-1.657 1.343,-3 3,-3 1.657,0 3,1.343 3,3 L 6,0 0,0 Z" id="path28" style="fill:#ea596e;fill-opacity:1;fill-rule:nonzero;stroke:none"/></g><path d="m 12,17 3,0 0,3 -3,0 0,-3 z" id="path30" style="fill:#f4a2b2;fill-opacity:1;fill-rule:nonzero;stroke:none"/><path d="m 12,17 -3,0 0,3 3,0 0,-3 z" id="path32" style="fill:#dd2e44;fill-opacity:1;fill-rule:nonzero;stroke:none"/><g id="g34" transform="translate(15,21.5)"><path d="m 0,0 c 0,-0.829 -1.343,-1.5 -3,-1.5 -1.657,0 -3,0.671 -3,1.5 0,0.829 1.343,1.5 3,1.5 1.657,0 3,-0.671 3,-1.5" id="path36" style="fill:#ea596e;fill-opacity:1;fill-rule:nonzero;stroke:none"/></g><g id="g38" transform="translate(15,22.25)"><path d="m 0,0 c 0,0.414 -1.343,0.75 -3,0.75 -1.657,0 -3,-0.336 -3,-0.75 0,-0.414 1.343,-0.75 3,-0.75 1.657,0 3,0.336 3,0.75" id="path40" style="fill:#ffac33;fill-opacity:1;fill-rule:nonzero;stroke:none"/></g><path d="m 7,13 1,0 0,7 -1,0 0,-7 z" id="path42" style="fill:#99aab5;fill-opacity:1;fill-rule:nonzero;stroke:none"/><path d="m 17,13 -1,0 0,7 1,0 0,-7 z" id="path44" style="fill:#99aab5;fill-opacity:1;fill-rule:nonzero;stroke:none"/><path d="m 9,13 -3,0 0,1 3,0 0,-1 z" id="path46" style="fill:#66757f;fill-opacity:1;fill-rule:nonzero;stroke:none"/><path d="m 18,13 -3,0 0,1 3,0 0,-1 z" id="path48" style="fill:#66757f;fill-opacity:1;fill-rule:nonzero;stroke:none"/><path d="m 8,20 -1,0 0,1 1,0 0,-1 z" id="path50" style="fill:#66757f;fill-opacity:1;fill-rule:nonzero;stroke:none"/><path d="m 17,20 -1,0 0,1 1,0 0,-1 z" id="path52" style="fill:#66757f;fill-opacity:1;fill-rule:nonzero;stroke:none"/></g></g></g></svg>