<?xml version="1.0" encoding="UTF-8" standalone="no"?><svg xmlns="http://www.w3.org/2000/svg" xmlns:cc="http://creativecommons.org/ns#" xmlns:dc="http://purl.org/dc/elements/1.1/" xmlns:rdf="http://www.w3.org/1999/02/22-rdf-syntax-ns#" xmlns:svg="http://www.w3.org/2000/svg" height="45" id="svg2" style="enable-background:new 0 0 45 45;" version="1.1" viewBox="0 0 45 45" width="45" xml:space="preserve"><metadata id="metadata8"><rdf:RDF><cc:Work rdf:about=""><dc:format>image/svg+xml</dc:format><dc:type rdf:resource="http://purl.org/dc/dcmitype/StillImage"/></cc:Work></rdf:RDF></metadata><defs id="defs6"><clipPath clipPathUnits="userSpaceOnUse" id="clipPath16"><path d="M 0,36 36,36 36,0 0,0 0,36 Z" id="path18"/></clipPath></defs><g id="g10" transform="matrix(1.25,0,0,-1.25,0,45)"><g id="g12"><g clip-path="url(#clipPath16)" id="g14"><g id="g20" transform="translate(30,12.1719)"><path d="m 0,0 c -0.391,-0.392 -1.023,-0.392 -1.414,0 l -1.414,1.414 c -0.392,0.391 -0.392,1.024 0,1.414 L 0,5.656 c 0.391,0.391 1.023,0.391 1.414,0 L 2.828,4.242 C 3.22,3.852 3.22,3.219 2.828,2.828 L 0,0 Z" id="path22" style="fill:#66757f;fill-opacity:1;fill-rule:nonzero;stroke:none"/></g><g id="g24" transform="translate(15,27.1719)"><path d="m 0,0 c -0.391,-0.392 -1.023,-0.392 -1.414,0 l -1.414,1.414 c -0.392,0.391 -0.392,1.024 0,1.414 L 0,5.656 c 0.391,0.391 1.023,0.391 1.414,0 L 2.828,4.242 C 3.22,3.852 3.22,3.219 2.828,2.828 L 0,0 Z" id="path26" style="fill:#66757f;fill-opacity:1;fill-rule:nonzero;stroke:none"/></g><g id="g28" transform="translate(2,14)"><path d="m 0,0 c 2,0 11,-1 11,-1 0,0 1,-9 1,-11 0,-2 -2,-2 -3,-1 -1,1 -4,6 -4,6 0,0 -5,3 -6,4 -1,1 -1,3 1,3" id="path30" style="fill:#55acee;fill-opacity:1;fill-rule:nonzero;stroke:none"/></g><g id="g32" transform="translate(3.9995,29.9614)"><path d="m 0,0 c 3,0.039 25,-0.961 25,-0.961 0,0 0.924,-22 0.962,-25 0.038,-3 -2.762,-4.002 -3.862,-0.001 -1.1,4.001 -5.1,17.001 -5.1,17.001 0,0 -13.955,4.416 -17.005,5.102 C -4,-2.961 -3,-0.039 0,0" id="path34" style="fill:#55acee;fill-opacity:1;fill-rule:nonzero;stroke:none"/></g><g id="g36" transform="translate(27,33)"><path d="M 0,0 C 2,2 7,3 8,2 9,1 8,-4 6,-6 4,-8 -13,-24 -13,-24 c 0,0 -6.5,-4.5 -8,-3 -1.5,1.5 3,8 3,8 0,0 16,17 18,19" id="path38" style="fill:#ccd6dd;fill-opacity:1;fill-rule:nonzero;stroke:none"/></g><g id="g40" transform="translate(14,14)"><path d="m 0,0 c 0,0 0.5,-0.5 -4,-5 -4.5,-4.5 -5,-4 -5,-4 0,0 -0.5,0.5 4,5 4.5,4.5 5,4 5,4" id="path42" style="fill:#66757f;fill-opacity:1;fill-rule:nonzero;stroke:none"/></g><g id="g44" transform="translate(29,32)"><path d="m 0,0 c 1.657,0 3,-1.343 3,-3 l 0.805,0 C 3.919,-2.685 4,-2.355 4,-2 4,-0.343 2.657,1 1,1 0.645,1 0.314,0.919 0,0.805 L 0,0 Z" id="path46" style="fill:#66757f;fill-opacity:1;fill-rule:nonzero;stroke:none"/></g></g></g></g></svg>