<?xml version="1.0" encoding="UTF-8" standalone="no"?><svg xmlns="http://www.w3.org/2000/svg" xmlns:cc="http://creativecommons.org/ns#" xmlns:dc="http://purl.org/dc/elements/1.1/" xmlns:rdf="http://www.w3.org/1999/02/22-rdf-syntax-ns#" xmlns:svg="http://www.w3.org/2000/svg" height="45" id="svg2" style="enable-background:new 0 0 45 45;" version="1.1" viewBox="0 0 45 45" width="45" xml:space="preserve"><metadata id="metadata8"><rdf:RDF><cc:Work rdf:about=""><dc:format>image/svg+xml</dc:format><dc:type rdf:resource="http://purl.org/dc/dcmitype/StillImage"/></cc:Work></rdf:RDF></metadata><defs id="defs6"><clipPath clipPathUnits="userSpaceOnUse" id="clipPath16"><path d="M 0,36 36,36 36,0 0,0 0,36 Z" id="path18"/></clipPath></defs><g id="g10" transform="matrix(1.25,0,0,-1.25,0,45)"><g id="g12"><g clip-path="url(#clipPath16)" id="g14"><g id="g20" transform="translate(32,31)"><path d="m 0,0 -28,0 c -1.008,0 -1.926,-0.375 -2.629,-0.99 L -25.077,-5 4,-5 4,-4 C 4,-1.791 2.209,0 0,0" id="path22" style="fill:#ea0b19;fill-opacity:1;fill-rule:nonzero;stroke:none"/></g><g id="g24" transform="translate(13.8462,21)"><path d="m 0,0 22.154,0 0,5 L -6.923,5 0,0 Z" id="path26" style="fill:#eeeeee;fill-opacity:1;fill-rule:nonzero;stroke:none"/></g><g id="g28" transform="translate(18,18)"><path d="M 0,0 -4.154,-3 18,-3 18,3 -4.154,3 0,0 Z" id="path30" style="fill:#ea0b19;fill-opacity:1;fill-rule:nonzero;stroke:none"/></g><g id="g32" transform="translate(6.9231,10)"><path d="m 0,0 29.077,0 0,5 L 6.923,5 0,0 Z" id="path34" style="fill:#eeeeee;fill-opacity:1;fill-rule:nonzero;stroke:none"/></g><g id="g36" transform="translate(1.3712,5.9902)"><path d="m 0,0 c 0.703,-0.615 1.621,-0.99 2.629,-0.99 l 28,0 c 2.209,0 4,1.791 4,4 l 0,1 -29.077,0 L 0,0 Z" id="path38" style="fill:#ea0b19;fill-opacity:1;fill-rule:nonzero;stroke:none"/></g><g id="g40" transform="translate(13.8462,15)"><path d="M 0,0 4.154,3 0,6 l -6.923,5 -5.552,4.01 c -0.839,-0.734 -1.371,-1.809 -1.371,-3.01 l 0,-18 c 0,-1.201 0.532,-2.276 1.371,-3.01 L -6.923,-5 0,0 Z" id="path42" style="fill:#0f55ec;fill-opacity:1;fill-rule:nonzero;stroke:none"/></g><g id="g44" transform="translate(8.1871,17.162)"><path d="m 0,0 2.313,1.675 -2.859,0 -0.888,2.726 -0.89,-2.726 -2.863,0 2.315,-1.677 -0.89,-2.723 2.325,1.684 L 0.888,-2.725 0,0 Z" id="path46" style="fill:#ffffff;fill-opacity:1;fill-rule:nonzero;stroke:none"/></g></g></g></g></svg>