<?xml version="1.0" encoding="UTF-8" standalone="no"?><svg xmlns="http://www.w3.org/2000/svg" xmlns:cc="http://creativecommons.org/ns#" xmlns:dc="http://purl.org/dc/elements/1.1/" xmlns:rdf="http://www.w3.org/1999/02/22-rdf-syntax-ns#" xmlns:svg="http://www.w3.org/2000/svg" height="45" id="svg2" style="enable-background:new 0 0 45 45;" version="1.1" viewBox="0 0 45 45" width="45" xml:space="preserve"><metadata id="metadata8"><rdf:RDF><cc:Work rdf:about=""><dc:format>image/svg+xml</dc:format><dc:type rdf:resource="http://purl.org/dc/dcmitype/StillImage"/></cc:Work></rdf:RDF></metadata><defs id="defs6"><clipPath clipPathUnits="userSpaceOnUse" id="clipPath16"><path d="M 0,36 36,36 36,0 0,0 0,36 Z" id="path18"/></clipPath></defs><g id="g10" transform="matrix(1.25,0,0,-1.25,0,45)"><g id="g12"><g clip-path="url(#clipPath16)" id="g14"><g id="g20" transform="translate(13.5889,9.4785)"><path d="m 0,0 c -0.297,0.495 -0.284,1.117 0.035,1.599 l 4.395,6.645 -5.995,5.139 c -0.556,0.476 -0.686,1.283 -0.31,1.911 l 4.304,7.172 c -1.669,1.301 -3.755,2.09 -6.035,2.09 -5.45,0 -9.868,-4.418 -9.868,-9.868 0,-0.772 0.098,-1.52 0.266,-2.241 1.371,-8.512 10.835,-17.494 17.619,-19.96 0.026,0.009 0.052,0.023 0.077,0.033 L 0,0 Z" id="path22" style="fill:#e75a70;fill-opacity:1;fill-rule:nonzero;stroke:none"/></g><g id="g24" transform="translate(26.0176,34.0342)"><path d="m 0,0 c -2.765,0 -5.248,-1.151 -7.037,-2.983 l -4.043,-6.737 6.039,-5.175 c 0.574,-0.493 0.691,-1.335 0.274,-1.966 l -4.603,-6.962 4.161,-6.935 c 6.338,3.529 13.621,11.263 14.809,18.649 0.17,0.721 0.267,1.469 0.267,2.241 C 9.867,-4.417 5.449,0 0,0" id="path26" style="fill:#e75a70;fill-opacity:1;fill-rule:nonzero;stroke:none"/></g></g></g></g></svg>