<?xml version="1.0" encoding="UTF-8" standalone="no"?><svg xmlns="http://www.w3.org/2000/svg" xmlns:cc="http://creativecommons.org/ns#" xmlns:dc="http://purl.org/dc/elements/1.1/" xmlns:rdf="http://www.w3.org/1999/02/22-rdf-syntax-ns#" xmlns:svg="http://www.w3.org/2000/svg" height="45" id="svg2" style="enable-background:new 0 0 45 45;" version="1.1" viewBox="0 0 45 45" width="45" xml:space="preserve"><metadata id="metadata8"><rdf:RDF><cc:Work rdf:about=""><dc:format>image/svg+xml</dc:format><dc:type rdf:resource="http://purl.org/dc/dcmitype/StillImage"/></cc:Work></rdf:RDF></metadata><defs id="defs6"><clipPath clipPathUnits="userSpaceOnUse" id="clipPath16"><path d="M 0,0 36,0 36,36 0,36 0,0 Z" id="path18"/></clipPath></defs><g id="g10" transform="matrix(1.25,0,0,-1.25,0,45)"><g id="g12"><g clip-path="url(#clipPath16)" id="g14"><g id="g20" transform="translate(32.5381,35.1924)"><path d="m 0,0 c -0.333,0 -0.657,-0.034 -0.974,-0.09 -1.172,0.57 -2.175,0.898 -3.564,0.898 -4.907,0 -9,-4.093 -9,-9 l 0,-7 c 0.148,-5.224 4.241,-9.569 9.5,-9.569 5.259,0 9.352,4.345 9.5,9.569 l 0,10 C 5.462,-2.07 3.123,0 0,0" id="path22" style="fill:#ffac33;fill-opacity:1;fill-rule:nonzero;stroke:none"/></g><g id="g24" transform="translate(21,14)"><path d="M 0,0 16.055,0 C 17.834,0 18,-1.193 18,-2.973 L 18,-14 13.972,-14 1.083,-14 -3,-14 -3,-2.973 C -3,-1 -2,0 0,0" id="path26" style="fill:#9268ca;fill-opacity:1;fill-rule:nonzero;stroke:none"/></g><g id="g28" transform="translate(21,32)"><path d="m 0,0 0,-10 c 0.253,-3.89 3.521,-6.969 7.5,-6.969 3.979,0 7.247,3.079 7.5,6.969 L 15,0 0,0 Z" id="path30" style="fill:#ffdc5d;fill-opacity:1;fill-rule:nonzero;stroke:none"/></g><g id="g32" transform="translate(32.6348,32.3271)"><path d="m 0,0 c 0.25,0.412 0.365,0.673 0.365,0.673 l -12,-1 -0.577,-5.693 c 5.692,0 9.024,2.305 10.815,4.21 0.415,-1.474 1.563,-3.517 4.762,-3.517 l 0,6 L 0,0 Z" id="path34" style="fill:#ffac33;fill-opacity:1;fill-rule:nonzero;stroke:none"/></g><g id="g36" transform="translate(29,20.5)"><path d="M 0,0 -1,0 C -1.276,0 -1.5,0.224 -1.5,0.5 -1.5,0.776 -1.276,1 -1,1 L 0,1 C 0.276,1 0.5,0.776 0.5,0.5 0.5,0.224 0.276,0 0,0" id="path38" style="fill:#bf6952;fill-opacity:1;fill-rule:nonzero;stroke:none"/></g><g id="g40" transform="translate(25,23)"><path d="m 0,0 c -0.553,0 -1,0.448 -1,1 l 0,1 C -1,2.552 -0.553,3 0,3 0.553,3 1,2.552 1,2 L 1,1 C 1,0.448 0.553,0 0,0" id="path42" style="fill:#662113;fill-opacity:1;fill-rule:nonzero;stroke:none"/></g><g id="g44" transform="translate(32,23)"><path d="m 0,0 c -0.553,0 -1,0.448 -1,1 l 0,1 C -1,2.552 -0.553,3 0,3 0.553,3 1,2.552 1,2 L 1,1 C 1,0.448 0.553,0 0,0" id="path46" style="fill:#662113;fill-opacity:1;fill-rule:nonzero;stroke:none"/></g><g id="g48" transform="translate(11.5381,35.1924)"><path d="m 0,0 c -0.333,0 -0.657,-0.034 -0.974,-0.09 -1.172,0.57 -2.175,0.898 -3.564,0.898 -4.907,0 -9,-4.093 -9,-9 l 0,-7 c 0.148,-5.224 4.241,-9.569 9.5,-9.569 5.259,0 9.352,4.345 9.5,9.569 l 0,10 C 5.462,-2.07 3.123,0 0,0" id="path50" style="fill:#ffac33;fill-opacity:1;fill-rule:nonzero;stroke:none"/></g><g id="g52" transform="translate(0,32)"><path d="m 0,0 0,-10 c 0.253,-3.89 3.521,-6.969 7.5,-6.969 3.979,0 7.247,3.079 7.5,6.969 L 15,0 0,0 Z" id="path54" style="fill:#ffdc5d;fill-opacity:1;fill-rule:nonzero;stroke:none"/></g><g id="g56" transform="translate(11.6348,32.3271)"><path d="m 0,0 c 0.25,0.412 0.365,0.673 0.365,0.673 l -12,-1 -0.577,-5.693 c 5.692,0 9.024,2.305 10.815,4.21 0.415,-1.474 1.563,-3.517 4.762,-3.517 l 0,6 L 0,0 Z" id="path58" style="fill:#ffac33;fill-opacity:1;fill-rule:nonzero;stroke:none"/></g><g id="g60" transform="translate(8,20.5)"><path d="M 0,0 -1,0 C -1.276,0 -1.5,0.224 -1.5,0.5 -1.5,0.776 -1.276,1 -1,1 L 0,1 C 0.276,1 0.5,0.776 0.5,0.5 0.5,0.224 0.276,0 0,0" id="path62" style="fill:#bf6952;fill-opacity:1;fill-rule:nonzero;stroke:none"/></g><g id="g64" transform="translate(4,23)"><path d="m 0,0 c -0.553,0 -1,0.448 -1,1 l 0,1 C -1,2.552 -0.553,3 0,3 0.553,3 1,2.552 1,2 L 1,1 C 1,0.448 0.553,0 0,0" id="path66" style="fill:#662113;fill-opacity:1;fill-rule:nonzero;stroke:none"/></g><g id="g68" transform="translate(11,23)"><path d="m 0,0 c -0.553,0 -1,0.448 -1,1 l 0,1 C -1,2.552 -0.553,3 0,3 0.553,3 1,2.552 1,2 L 1,1 C 1,0.448 0.553,0 0,0" id="path70" style="fill:#662113;fill-opacity:1;fill-rule:nonzero;stroke:none"/></g><g id="g72" transform="translate(26,17)"><path d="M 0,0 0,-3 C 0,-4.381 1.119,-5.5 2.5,-5.5 3.881,-5.5 5,-4.381 5,-3 L 5,0 0,0 Z" id="path74" style="fill:#ffdc5d;fill-opacity:1;fill-rule:nonzero;stroke:none"/></g><g id="g76" transform="translate(25.2695,18.231)"><path d="M 0,0 3.23,0 6.461,0 C 6.461,0 5.653,-1.616 3.23,-1.616 0.808,-1.616 0,0 0,0" id="path78" style="fill:#da2f47;fill-opacity:1;fill-rule:nonzero;stroke:none"/></g><g id="g80" transform="translate(15,14)"><path d="m 0,0 -16,0 c -1.779,0 -1.945,-1.193 -1.945,-2.973 l 0,-11.027 4.028,0 12.889,0 L 3,-14 3,-2.973 C 3,-1 2,0 0,0" id="path82" style="fill:#9266cc;fill-opacity:1;fill-rule:nonzero;stroke:none"/></g><g id="g84" transform="translate(5,17)"><path d="M 0,0 0,-3 C 0,-4.381 1.119,-5.5 2.5,-5.5 3.881,-5.5 5,-4.381 5,-3 L 5,0 0,0 Z" id="path86" style="fill:#ffdc5d;fill-opacity:1;fill-rule:nonzero;stroke:none"/></g><g id="g88" transform="translate(4.2695,18.231)"><path d="M 0,0 3.23,0 6.461,0 C 6.461,0 5.653,-1.616 3.23,-1.616 0.808,-1.616 0,0 0,0" id="path90" style="fill:#da2f47;fill-opacity:1;fill-rule:nonzero;stroke:none"/></g><g id="g92" transform="translate(18.4727,21)"><path d="m 0,0 c -1.245,0 -2.417,-0.297 -3.464,-0.812 -3.33,-0.07 -6.009,-2.787 -6.009,-6.133 0,-2.194 1.155,-4.114 2.886,-5.2 1.402,-2.152 3.826,-3.578 6.587,-3.578 4.342,0 7.861,3.52 7.861,7.862 C 7.861,-3.52 4.342,0 0,0" id="path94" style="fill:#f4900c;fill-opacity:1;fill-rule:nonzero;stroke:none"/></g><g id="g96" transform="translate(20,1)"><path d="m 0,0 0,4 -4,0 0,-4 -1,0 0,-1 6,0 0,1 -1,0 z" id="path98" style="fill:#ffdc5d;fill-opacity:1;fill-rule:nonzero;stroke:none"/></g><g id="g100" transform="translate(26.334,13.1387)"><path d="m 0,0 c 0,0 0.541,-4.451 1.666,-8.139 0,0 -4.344,-3 -9,-3 C -7.334,-9.576 0,0 0,0" id="path102" style="fill:#f4900c;fill-opacity:1;fill-rule:nonzero;stroke:none"/></g><g id="g104" transform="translate(9.666,13.1387)"><path d="m 0,0 c 0,0 -0.541,-4.451 -1.666,-8.139 0,0 4.344,-3 9,-3 C 7.334,-9.576 0,0 0,0" id="path106" style="fill:#f4900c;fill-opacity:1;fill-rule:nonzero;stroke:none"/></g><g id="g108" transform="translate(25,16)"><path d="M 0,0 -3.557,0 C -4.574,0.574 -5.749,0.906 -7.003,0.906 -8.257,0.906 -9.431,0.574 -10.449,0 L -14,0 l 0,-6 0.002,0 c 0,-0.016 -0.002,-0.031 -0.002,-0.047 0,-3.84 3.133,-6.953 6.997,-6.953 3.864,0 6.997,3.113 6.997,6.953 0,0.016 -0.002,0.031 -0.002,0.047 L 0,-6 0,0 Z" id="path110" style="fill:#ffdc5d;fill-opacity:1;fill-rule:nonzero;stroke:none"/></g><g id="g112" transform="translate(26,13)"><path d="M 0,0 -1,4 -4.729,4.622 C -4.181,5.42 -4,6 -4,6 L -15,5 -15.861,0 c 5.41,0 8.425,1.755 10.065,3.367 C -4.56,1.908 -2.472,0 0,0" id="path114" style="fill:#f4900c;fill-opacity:1;fill-rule:nonzero;stroke:none"/></g><g id="g116" transform="translate(21,6)"><path d="m 0,0 -3,0 -3,0 c 0,0 0.583,-2 3,-2 2.417,0 3,2 3,2" id="path118" style="fill:#bf6952;fill-opacity:1;fill-rule:nonzero;stroke:none"/></g><g id="g120" transform="translate(18,6.5)"><path d="m 0,0 c -0.13,0 -0.26,0.05 -0.35,0.15 -0.1,0.09 -0.15,0.22 -0.15,0.35 0,0.13 0.05,0.26 0.15,0.36 C -0.18,1.03 0.17,1.04 0.36,0.851 0.45,0.76 0.5,0.63 0.5,0.5 0.5,0.37 0.45,0.24 0.35,0.15 0.26,0.05 0.13,0 0,0" id="path122" style="fill:#bf6952;fill-opacity:1;fill-rule:nonzero;stroke:none"/></g><g id="g124" transform="translate(15,8)"><path d="m 0,0 c -0.552,0 -1,0.447 -1,1 l 0,1 C -1,2.553 -0.552,3 0,3 0.552,3 1,2.553 1,2 L 1,1 C 1,0.447 0.552,0 0,0" id="path126" style="fill:#662113;fill-opacity:1;fill-rule:nonzero;stroke:none"/></g><g id="g128" transform="translate(21,8)"><path d="m 0,0 c -0.553,0 -1,0.447 -1,1 l 0,1 C -1,2.553 -0.553,3 0,3 0.553,3 1,2.553 1,2 L 1,1 C 1,0.447 0.553,0 0,0" id="path130" style="fill:#662113;fill-opacity:1;fill-rule:nonzero;stroke:none"/></g><g id="g132" transform="translate(20,4)"><path d="m 0,0 -4,0 0,-2 c 0,0 2,-1 4,0 l 0,2 z" id="path134" style="fill:#ffdc5d;fill-opacity:1;fill-rule:nonzero;stroke:none"/></g><g id="g136" transform="translate(23,3)"><path d="m 0,0 -3,0 -2,-3 -2,3 -2,0 c -3,0 -5,-2 -5,-4 l 0,-1 2,0 14,0 2,0 0,1 C 4,-2.027 2,0 0,0" id="path138" style="fill:#ea596e;fill-opacity:1;fill-rule:nonzero;stroke:none"/></g></g></g></g></svg>