<?xml version="1.0" encoding="UTF-8" standalone="no"?><svg xmlns="http://www.w3.org/2000/svg" xmlns:cc="http://creativecommons.org/ns#" xmlns:dc="http://purl.org/dc/elements/1.1/" xmlns:rdf="http://www.w3.org/1999/02/22-rdf-syntax-ns#" xmlns:svg="http://www.w3.org/2000/svg" height="45" id="svg2" style="enable-background:new 0 0 45 45;" version="1.1" viewBox="0 0 45 45" width="45" xml:space="preserve"><metadata id="metadata8"><rdf:RDF><cc:Work rdf:about=""><dc:format>image/svg+xml</dc:format><dc:type rdf:resource="http://purl.org/dc/dcmitype/StillImage"/></cc:Work></rdf:RDF></metadata><defs id="defs6"><clipPath clipPathUnits="userSpaceOnUse" id="clipPath16"><path d="M 0,36 36,36 36,0 0,0 0,36 Z" id="path18"/></clipPath></defs><g id="g10" transform="matrix(1.25,0,0,-1.25,0,45)"><g id="g12"><g clip-path="url(#clipPath16)" id="g14"><g id="g20" transform="translate(36,9)"><path d="m 0,0 c 0,-2.209 -1.791,-4 -4,-4 l -28,0 c -2.209,0 -4,1.791 -4,4 l 0,18 c 0,2.209 1.791,4 4,4 l 28,0 c 2.209,0 4,-1.791 4,-4 L 0,0 Z" id="path22" style="fill:#de2910;fill-opacity:1;fill-rule:nonzero;stroke:none"/></g><g id="g24" transform="translate(7,25.0488)"><path d="M 0,0 0.929,-2.67 3.755,-2.729 1.502,-4.436 2.321,-7.143 0,-5.528 -2.321,-7.143 -1.502,-4.436 -3.755,-2.729 -0.929,-2.67 0,0 Z" id="path26" style="fill:#ffde02;fill-opacity:1;fill-rule:nonzero;stroke:none"/></g><g id="g28" transform="translate(13,28.4722)"><path d="M 0,0 0.34,-0.688 1.099,-0.798 0.55,-1.334 0.679,-2.09 0,-1.733 -0.679,-2.09 l 0.13,0.756 -0.55,0.536 0.76,0.11 L 0,0 Z" id="path30" style="fill:#ffde02;fill-opacity:1;fill-rule:nonzero;stroke:none"/></g><g id="g32" transform="translate(15,24.4722)"><path d="M 0,0 0.34,-0.688 1.099,-0.798 0.55,-1.334 0.679,-2.09 0,-1.733 -0.679,-2.09 l 0.13,0.756 -0.55,0.536 0.76,0.11 L 0,0 Z" id="path34" style="fill:#ffde02;fill-opacity:1;fill-rule:nonzero;stroke:none"/></g><g id="g36" transform="translate(15,20.4722)"><path d="M 0,0 0.34,-0.688 1.099,-0.798 0.55,-1.334 0.679,-2.09 0,-1.733 -0.679,-2.09 l 0.13,0.756 -0.55,0.536 0.76,0.11 L 0,0 Z" id="path38" style="fill:#ffde02;fill-opacity:1;fill-rule:nonzero;stroke:none"/></g><g id="g40" transform="translate(13,16.4727)"><path d="M 0,0 0.34,-0.689 1.099,-0.799 0.55,-1.334 0.679,-2.091 0,-1.734 l -0.679,-0.357 0.13,0.757 -0.55,0.535 0.76,0.11 L 0,0 Z" id="path42" style="fill:#ffde02;fill-opacity:1;fill-rule:nonzero;stroke:none"/></g></g></g></g></svg>