<?xml version="1.0" encoding="UTF-8" standalone="no"?><svg xmlns="http://www.w3.org/2000/svg" xmlns:cc="http://creativecommons.org/ns#" xmlns:dc="http://purl.org/dc/elements/1.1/" xmlns:rdf="http://www.w3.org/1999/02/22-rdf-syntax-ns#" xmlns:svg="http://www.w3.org/2000/svg" height="45" id="svg2" style="enable-background:new 0 0 45 45;" version="1.1" viewBox="0 0 45 45" width="45" xml:space="preserve"><metadata id="metadata8"><rdf:RDF><cc:Work rdf:about=""><dc:format>image/svg+xml</dc:format><dc:type rdf:resource="http://purl.org/dc/dcmitype/StillImage"/></cc:Work></rdf:RDF></metadata><defs id="defs6"><clipPath clipPathUnits="userSpaceOnUse" id="clipPath16"><path d="M 0,36 36,36 36,0 0,0 0,36 Z" id="path18"/></clipPath></defs><g id="g10" transform="matrix(1.25,0,0,-1.25,0,45)"><g id="g12"><g clip-path="url(#clipPath16)" id="g14"><g id="g20" transform="translate(18,35)"><path d="m 0,0 c 9.941,0 18,-6.268 18,-14 0,-4.368 -2.574,-8.268 -6.604,-10.835 C 11.92,-27.144 13.141,-30.569 16,-34 10.242,-33.04 6.561,-30.239 4.284,-27.584 2.908,-27.846 1.479,-28 0,-28 c -9.941,0 -18,6.268 -18,14 0,7.732 8.059,14 18,14" id="path22" style="fill:#8ccaf7;fill-opacity:1;fill-rule:nonzero;stroke:none"/></g></g></g></g></svg>