<?xml version="1.0" encoding="UTF-8" standalone="no"?><svg xmlns="http://www.w3.org/2000/svg" xmlns:cc="http://creativecommons.org/ns#" xmlns:dc="http://purl.org/dc/elements/1.1/" xmlns:rdf="http://www.w3.org/1999/02/22-rdf-syntax-ns#" xmlns:svg="http://www.w3.org/2000/svg" height="45" id="svg2" style="enable-background:new 0 0 45 45;" version="1.1" viewBox="0 0 45 45" width="45" xml:space="preserve"><metadata id="metadata8"><rdf:RDF><cc:Work rdf:about=""><dc:format>image/svg+xml</dc:format><dc:type rdf:resource="http://purl.org/dc/dcmitype/StillImage"/></cc:Work></rdf:RDF></metadata><defs id="defs6"><clipPath clipPathUnits="userSpaceOnUse" id="clipPath16"><path d="M 0,36 36,36 36,0 0,0 0,36 Z" id="path18"/></clipPath></defs><g id="g10" transform="matrix(1.25,0,0,-1.25,0,45)"><g id="g12"><g clip-path="url(#clipPath16)" id="g14"><g id="g20" transform="translate(24,26)"><path d="m 0,0 c 0,-1.104 -0.895,-2 -2,-2 l -8,0 c -1.104,0 -2,0.896 -2,2 l 0,8 c 0,1.104 0.896,2 2,2 l 8,0 C -0.895,10 0,9.104 0,8 L 0,0 Z" id="path22" style="fill:#ccd6dd;fill-opacity:1;fill-rule:nonzero;stroke:none"/></g><g id="g24" transform="translate(0,22)"><path d="m 0,0 0,-20 c 0,-1.105 0.896,-2 2,-2 l 32,0 c 1.105,0 2,0.895 2,2 L 36,0 0,0 Z" id="path26" style="fill:#ccd6dd;fill-opacity:1;fill-rule:nonzero;stroke:none"/></g><g id="g28" transform="translate(18,24)"><path d="m 0,0 -16,0 c -1.104,0 -2,-0.895 -2,-2 L 2,-2 C 2,-0.895 1.105,0 0,0" id="path30" style="fill:#99aab5;fill-opacity:1;fill-rule:nonzero;stroke:none"/></g><g id="g32" transform="translate(34,24)"><path d="m 0,0 -16,0 c -1.104,0 -2,-0.895 -2,-2 L 2,-2 C 2,-0.895 1.105,0 0,0" id="path34" style="fill:#99aab5;fill-opacity:1;fill-rule:nonzero;stroke:none"/></g><path d="m 34,10 -32,0 0,4 32,0 0,-4 z" id="path36" style="fill:#55acee;fill-opacity:1;fill-rule:nonzero;stroke:none"/><path d="m 34,16 -32,0 0,4 32,0 0,-4 z" id="path38" style="fill:#55acee;fill-opacity:1;fill-rule:nonzero;stroke:none"/><path d="M 34,4 2,4 2,8 34,8 34,4 Z" id="path40" style="fill:#55acee;fill-opacity:1;fill-rule:nonzero;stroke:none"/><path d="M 28,0 8,0 8,24 28,24 28,0 Z" id="path42" style="fill:#e1e8ed;fill-opacity:1;fill-rule:nonzero;stroke:none"/><path d="m 26,12 -16,0 0,4 16,0 0,-4 z" id="path44" style="fill:#55acee;fill-opacity:1;fill-rule:nonzero;stroke:none"/><path d="m 26,18 -16,0 0,4 16,0 0,-4 z" id="path46" style="fill:#55acee;fill-opacity:1;fill-rule:nonzero;stroke:none"/><path d="m 26,6 -16,0 0,4 16,0 0,-4 z" id="path48" style="fill:#55acee;fill-opacity:1;fill-rule:nonzero;stroke:none"/><path d="M 23,0 13,0 13,4 23,4 23,0 Z" id="path50" style="fill:#3b88c3;fill-opacity:1;fill-rule:nonzero;stroke:none"/><g id="g52" transform="translate(22,32)"><path d="m 0,0 -3,0 0,3 -2,0 0,-3 -3,0 0,-2 3,0 0,-3 2,0 0,3 3,0 0,2 z" id="path54" style="fill:#dd2e44;fill-opacity:1;fill-rule:nonzero;stroke:none"/></g><g id="g56" transform="translate(26,26)"><path d="m 0,0 -16,0 c -1.104,0 -2,-0.895 -2,-2 L 2,-2 C 2,-0.895 1.105,0 0,0" id="path58" style="fill:#99aab5;fill-opacity:1;fill-rule:nonzero;stroke:none"/></g></g></g></g></svg>