<?xml version="1.0" encoding="UTF-8" standalone="no"?><svg xmlns="http://www.w3.org/2000/svg" xmlns:cc="http://creativecommons.org/ns#" xmlns:dc="http://purl.org/dc/elements/1.1/" xmlns:rdf="http://www.w3.org/1999/02/22-rdf-syntax-ns#" xmlns:svg="http://www.w3.org/2000/svg" height="45" id="svg2" style="enable-background:new 0 0 45 45;" version="1.1" viewBox="0 0 45 45" width="45" xml:space="preserve"><metadata id="metadata8"><rdf:RDF><cc:Work rdf:about=""><dc:format>image/svg+xml</dc:format><dc:type rdf:resource="http://purl.org/dc/dcmitype/StillImage"/></cc:Work></rdf:RDF></metadata><defs id="defs6"><clipPath clipPathUnits="userSpaceOnUse" id="clipPath16"><path d="M 0,36 36,36 36,0 0,0 0,36 Z" id="path18"/></clipPath></defs><g id="g10" transform="matrix(1.25,0,0,-1.25,0,45)"><g id="g12"><g clip-path="url(#clipPath16)" id="g14"><g id="g20" transform="translate(36,9)"><path d="m 0,0 c 0,-2.209 -1.791,-4 -4,-4 l -28,0 c -2.209,0 -4,1.791 -4,4 l 0,18 c 0,2.209 1.791,4 4,4 l 28,0 c 2.209,0 4,-1.791 4,-4 L 0,0 Z" id="path22" style="fill:#eeeeee;fill-opacity:1;fill-rule:nonzero;stroke:none"/></g><g id="g24" transform="translate(18,18)"><path d="M 0,0 Z" id="path26" style="fill:#003478;fill-opacity:1;fill-rule:nonzero;stroke:none"/></g><g id="g28" transform="translate(21.4414,22.915)"><path d="m 0,0 c -2.714,1.9 -6.455,1.24 -8.356,-1.474 -0.95,-1.356 -0.621,-3.227 0.737,-4.178 1.357,-0.95 3.227,-0.619 4.178,0.737 0.95,1.356 2.822,1.686 4.177,0.736 C 2.094,-5.129 2.424,-7 1.474,-8.356 3.375,-5.643 2.715,-1.902 0,0" id="path30" style="fill:#c60c30;fill-opacity:1;fill-rule:nonzero;stroke:none"/></g><g id="g32" transform="translate(22.1777,18.7363)"><path d="m 0,0 c -1.355,0.95 -3.228,0.62 -4.178,-0.736 -0.95,-1.357 -2.821,-1.687 -4.177,-0.738 -1.358,0.952 -1.687,2.823 -0.737,4.179 -1.902,-2.716 -1.241,-6.456 1.473,-8.356 2.715,-1.902 6.455,-1.242 8.356,1.473 C 1.687,-2.821 1.357,-0.95 0,0" id="path34" style="fill:#003478;fill-opacity:1;fill-rule:nonzero;stroke:none"/></g><g id="g36" transform="translate(26.2637,12.7246)"><path d="M 0,0 -1.929,-2.299 -1.163,-2.941 0.766,-0.643 0,0 Z" id="path38" style="fill:#292f33;fill-opacity:1;fill-rule:nonzero;stroke:none"/></g><g id="g40" transform="translate(26.9063,13.4902)"><path d="M 0,0 0.766,-0.643 2.693,1.654 1.928,2.298 0,0 Z" id="path42" style="fill:#292f33;fill-opacity:1;fill-rule:nonzero;stroke:none"/></g><g id="g44" transform="translate(27.7949,11.4385)"><path d="M 0,0 -1.928,-2.298 -1.162,-2.941 0.766,-0.644 0,0 Z" id="path46" style="fill:#292f33;fill-opacity:1;fill-rule:nonzero;stroke:none"/></g><g id="g48" transform="translate(28.4375,12.2051)"><path d="M 0,0 0.766,-0.644 2.695,1.654 1.929,2.297 0,0 Z" id="path50" style="fill:#292f33;fill-opacity:1;fill-rule:nonzero;stroke:none"/></g><g id="g52" transform="translate(29.3271,10.1523)"><path d="M 0,0 -1.929,-2.298 -1.162,-2.94 0.767,-0.643 0,0 Z" id="path54" style="fill:#292f33;fill-opacity:1;fill-rule:nonzero;stroke:none"/></g><g id="g56" transform="translate(29.9697,10.9189)"><path d="M 0,0 0.767,-0.643 2.694,1.655 1.929,2.298 0,0 Z" id="path58" style="fill:#292f33;fill-opacity:1;fill-rule:nonzero;stroke:none"/></g><g id="g60" transform="translate(30.7363,25.7246)"><path d="M 0,0 -0.766,-0.643 1.163,-2.941 1.93,-2.299 0,0 Z" id="path62" style="fill:#292f33;fill-opacity:1;fill-rule:nonzero;stroke:none"/></g><g id="g64" transform="translate(30.0938,26.4902)"><path d="M 0,0 -1.928,2.299 -2.693,1.656 -0.766,-0.643 0,0 Z" id="path66" style="fill:#292f33;fill-opacity:1;fill-rule:nonzero;stroke:none"/></g><g id="g68" transform="translate(30.3672,21.498)"><path d="M 0,0 -4.5,5.362 -3.733,6.005 0.766,0.643 0,0 Z" id="path70" style="fill:#292f33;fill-opacity:1;fill-rule:nonzero;stroke:none"/></g><g id="g72" transform="translate(27.0293,23.9199)"><path d="M 0,0 -1.928,2.298 -2.693,1.654 -0.766,-0.644 0,0 Z" id="path74" style="fill:#292f33;fill-opacity:1;fill-rule:nonzero;stroke:none"/></g><g id="g76" transform="translate(27.6719,23.1533)"><path d="M 0,0 -0.766,-0.644 1.163,-2.94 1.93,-2.298 0,0 Z" id="path78" style="fill:#292f33;fill-opacity:1;fill-rule:nonzero;stroke:none"/></g><g id="g80" transform="translate(10.8994,9.7822)"><path d="M 0,0 -4.499,5.363 -3.734,6.006 0.766,0.644 0,0 Z" id="path82" style="fill:#292f33;fill-opacity:1;fill-rule:nonzero;stroke:none"/></g><g id="g84" transform="translate(7.562,12.2041)"><path d="M 0,0 -1.928,2.299 -2.694,1.655 -0.766,-0.643 0,0 Z" id="path86" style="fill:#292f33;fill-opacity:1;fill-rule:nonzero;stroke:none"/></g><g id="g88" transform="translate(8.2046,11.4385)"><path d="M 0,0 -0.766,-0.644 1.163,-2.941 1.929,-2.299 0,0 Z" id="path90" style="fill:#292f33;fill-opacity:1;fill-rule:nonzero;stroke:none"/></g><g id="g92" transform="translate(7.835,7.2119)"><path d="M 0,0 -4.5,5.362 -3.733,6.005 0.766,0.643 0,0 Z" id="path94" style="fill:#292f33;fill-opacity:1;fill-rule:nonzero;stroke:none"/></g><g id="g96" transform="translate(8.5996,28.146)"><path d="m 0,0 -4.499,-5.362 -0.767,0.642 4.5,5.363 L 0,0 Z" id="path98" style="fill:#292f33;fill-opacity:1;fill-rule:nonzero;stroke:none"/></g><g id="g100" transform="translate(10.1328,26.8604)"><path d="M 0,0 -4.5,-5.362 -5.266,-4.72 -0.767,0.643 0,0 Z" id="path102" style="fill:#292f33;fill-opacity:1;fill-rule:nonzero;stroke:none"/></g><g id="g104" transform="translate(11.6641,25.5747)"><path d="m 0,0 -4.499,-5.362 -0.767,0.643 4.5,5.362 L 0,0 Z" id="path106" style="fill:#292f33;fill-opacity:1;fill-rule:nonzero;stroke:none"/></g></g></g></g></svg>