<?xml version="1.0" encoding="UTF-8" standalone="no"?><svg xmlns="http://www.w3.org/2000/svg" xmlns:cc="http://creativecommons.org/ns#" xmlns:dc="http://purl.org/dc/elements/1.1/" xmlns:rdf="http://www.w3.org/1999/02/22-rdf-syntax-ns#" xmlns:svg="http://www.w3.org/2000/svg" height="45" id="svg2" style="enable-background:new 0 0 45 45;" version="1.1" viewBox="0 0 45 45" width="45" xml:space="preserve"><metadata id="metadata8"><rdf:RDF><cc:Work rdf:about=""><dc:format>image/svg+xml</dc:format><dc:type rdf:resource="http://purl.org/dc/dcmitype/StillImage"/></cc:Work></rdf:RDF></metadata><defs id="defs6"><clipPath clipPathUnits="userSpaceOnUse" id="clipPath16"><path d="M 0,36 36,36 36,0 0,0 0,36 Z" id="path18"/></clipPath></defs><g id="g10" transform="matrix(1.25,0,0,-1.25,0,45)"><g id="g12"><g clip-path="url(#clipPath16)" id="g14"><g id="g20" transform="translate(35,5)"><path d="m 0,0 c 0,0 0,-4 -4,-4 l -26,0 c -4,0 -4,4 -4,4 l 0,19 c 0,4 4,4 4,4 l 26,0 c 0,0 4,0 4,-4 L 0,0 Z" id="path22" style="fill:#292f33;fill-opacity:1;fill-rule:nonzero;stroke:none"/></g><g id="g24" transform="translate(21.3027,25.6108)"><path d="m 0,0 c 0.391,-0.391 0.391,-1.023 0,-1.414 -0.391,-0.391 -1.023,-0.391 -1.414,0 l -9.192,9.192 c -0.391,0.391 -0.391,1.024 0,1.414 0.391,0.391 1.023,0.391 1.414,0 L 0,0 Z" id="path26" style="fill:#292f33;fill-opacity:1;fill-rule:nonzero;stroke:none"/></g><g id="g28" transform="translate(14.6968,25.6108)"><path d="m 0,0 c -0.391,-0.391 -0.391,-1.023 0,-1.414 0.391,-0.391 1.023,-0.391 1.414,0 l 9.192,9.192 c 0.391,0.391 0.391,1.024 0,1.414 -0.391,0.391 -1.024,0.391 -1.414,0 L 0,0 Z" id="path30" style="fill:#292f33;fill-opacity:1;fill-rule:nonzero;stroke:none"/></g><g id="g32" transform="translate(18,25)"><path d="m 0,0 c 8,0 10,-1 11,-2 1,-1 2,-3 2,-8 0,-5 -1,-7 -2,-8 -1,-1 -3,-2 -11,-2 -8,0 -10,1 -11,2 -1,1 -2,3 -2,8 0,5 1,7 2,8 1,1 3,2 11,2" id="path34" style="fill:#55acee;fill-opacity:1;fill-rule:nonzero;stroke:none"/></g><g id="g36" transform="translate(30,4.5)"><path d="M 0,0 C 0,0.829 0.671,1.5 1.5,1.5 2.329,1.5 3,0.829 3,0 3,-0.829 2.329,-1.5 1.5,-1.5 0.671,-1.5 0,-0.829 0,0" id="path38" style="fill:#66757f;fill-opacity:1;fill-rule:nonzero;stroke:none"/></g><g id="g40" transform="translate(3,4.5)"><path d="M 0,0 C 0,0.829 0.671,1.5 1.5,1.5 2.329,1.5 3,0.829 3,0 3,-0.829 2.329,-1.5 1.5,-1.5 0.671,-1.5 0,-0.829 0,0" id="path42" style="fill:#66757f;fill-opacity:1;fill-rule:nonzero;stroke:none"/></g></g></g></g></svg>