<?xml version="1.0" encoding="UTF-8" standalone="no"?><svg xmlns="http://www.w3.org/2000/svg" xmlns:cc="http://creativecommons.org/ns#" xmlns:dc="http://purl.org/dc/elements/1.1/" xmlns:rdf="http://www.w3.org/1999/02/22-rdf-syntax-ns#" xmlns:svg="http://www.w3.org/2000/svg" height="45" id="svg2" style="enable-background:new 0 0 45 45;" version="1.1" viewBox="0 0 45 45" width="45" xml:space="preserve"><metadata id="metadata8"><rdf:RDF><cc:Work rdf:about=""><dc:format>image/svg+xml</dc:format><dc:type rdf:resource="http://purl.org/dc/dcmitype/StillImage"/></cc:Work></rdf:RDF></metadata><defs id="defs6"><clipPath clipPathUnits="userSpaceOnUse" id="clipPath16"><path d="M 0,0 33,0 33,36 0,36 0,0 Z" id="path18"/></clipPath><clipPath clipPathUnits="userSpaceOnUse" id="clipPath108"><path d="M 0,36 36,36 36,0 0,0 0,36 Z" id="path110"/></clipPath></defs><g id="g10" transform="matrix(1.25,0,0,-1.25,0,45)"><g id="g12"><g clip-path="url(#clipPath16)" id="g14"><g id="g20" transform="translate(32,0)"><path d="m 0,0 0,2 c 0,3.314 -2.686,6 -6,6 l -16,0 c -3.313,0 -6,-2.686 -6,-6 l 0,-2 28,0 z" id="path22" style="fill:#77b255;fill-opacity:1;fill-rule:nonzero;stroke:none"/></g><g id="g24" transform="translate(10,8)"><path d="m 0,0 c -3.313,0 -6,-2.686 -6,-6 l 0,-2 8,0 0,8 -2,0 z" id="path26" style="fill:#292f33;fill-opacity:1;fill-rule:nonzero;stroke:none"/></g><g id="g28" transform="translate(26,8)"><path d="m 0,0 -2,0 0,-8 8,0 0,2 C 6,-2.686 3.314,0 0,0" id="path30" style="fill:#292f33;fill-opacity:1;fill-rule:nonzero;stroke:none"/></g><g id="g32" transform="translate(11.8125,8)"><path d="m 0,0 12.375,0 c 0,0 -1.574,-4 -6.188,-4 C 1.574,-4 0,0 0,0" id="path34" style="fill:#5c913b;fill-opacity:1;fill-rule:nonzero;stroke:none"/></g><g id="g36" transform="translate(13.6396,7.8936)"><path d="m 0,0 c 0,-0.894 2.36,-1.992 4.36,-1.992 2,0 4.36,1.098 4.36,1.992 l 0,3.817 L 0,3.817 0,0 Z" id="path38" style="fill:#7c533e;fill-opacity:1;fill-rule:nonzero;stroke:none"/></g><g id="g40" transform="translate(13.6318,10.0273)"><path d="m 0,0 c 1.216,-1.374 2.724,-1.746 4.364,-1.746 1.639,0 3.147,0.373 4.364,1.746 l 0,3.491 L 0,3.491 0,0 Z" id="path42" style="fill:#664131;fill-opacity:1;fill-rule:nonzero;stroke:none"/></g><g id="g44" transform="translate(11.4443,20.0645)"><path d="m 0,0 c 0,-1.448 -0.734,-2.622 -1.639,-2.622 -0.905,0 -1.639,1.174 -1.639,2.622 0,1.448 0.734,2.623 1.639,2.623 C -0.734,2.623 0,1.448 0,0" id="path46" style="fill:#7c533e;fill-opacity:1;fill-rule:nonzero;stroke:none"/></g><g id="g48" transform="translate(27.833,20.0645)"><path d="m 0,0 c 0,-1.448 -0.733,-2.622 -1.639,-2.622 -0.905,0 -1.638,1.174 -1.638,2.622 0,1.448 0.733,2.623 1.638,2.623 C -0.733,2.623 0,1.448 0,0" id="path50" style="fill:#7c533e;fill-opacity:1;fill-rule:nonzero;stroke:none"/></g><g id="g52" transform="translate(9.4775,19.0405)"><path d="m 0,0 c 0,5.589 3.816,10.121 8.523,10.121 4.707,0 8.522,-4.532 8.522,-10.121 0,-5.589 -3.815,-10.121 -8.522,-10.121 C 3.816,-10.121 0,-5.589 0,0" id="path54" style="fill:#7c533e;fill-opacity:1;fill-rule:nonzero;stroke:none"/></g><g id="g56" transform="translate(18,12.1982)"><path d="m 0,0 c -2.754,0 -3.6,0.705 -3.741,0.848 -0.256,0.256 -0.256,0.671 0,0.927 0.248,0.248 0.645,0.254 0.902,0.023 C -2.787,1.761 -2.118,1.311 0,1.311 c 2.2,0 2.836,0.485 2.842,0.49 C 3.098,2.056 3.499,2.044 3.755,1.786 4.011,1.53 3.997,1.104 3.741,0.848 3.6,0.705 2.754,0 0,0" id="path58" style="fill:#3d2e24;fill-opacity:1;fill-rule:nonzero;stroke:none"/></g><g id="g60" transform="translate(18,33)"><path d="m 0,0 c 5.648,0 9.178,-4.647 9.178,-8.121 0,-3.472 -0.971,-4.967 -1.412,-3.472 C 7,-9 6,-9 6,-9 c 0,0 -3.882,-1.538 -5.294,-0.147 0,0 2.118,-4.168 -2.118,0 0,0 0.706,-2.78 -3.53,0.693 0,0 -2.118,0.333 -2.824,-3.139 -0.196,-0.965 -1.412,0 -1.412,3.472 C -9.178,-4.647 -6.354,0 0,0" id="path62" style="fill:#0b0200;fill-opacity:1;fill-rule:nonzero;stroke:none"/></g><g id="g64" transform="translate(14,19)"><path d="m 0,0 0,0 c -0.55,0 -1,0.45 -1,1 l 0,1 C -1,2.55 -0.55,3 0,3 0.55,3 1,2.55 1,2 L 1,1 C 1,0.45 0.55,0 0,0" id="path66" style="fill:#000000;fill-opacity:1;fill-rule:nonzero;stroke:none"/></g><g id="g68" transform="translate(22,19)"><path d="m 0,0 0,0 c -0.55,0 -1,0.45 -1,1 l 0,1 C -1,2.55 -0.55,3 0,3 0.55,3 1,2.55 1,2 L 1,1 C 1,0.45 0.55,0 0,0" id="path70" style="fill:#000000;fill-opacity:1;fill-rule:nonzero;stroke:none"/></g><g id="g72" transform="translate(18.75,16.25)"><path d="m 0,0 -1.5,0 c -0.413,0 -0.75,0.337 -0.75,0.75 0,0.413 0.337,0.75 0.75,0.75 L 0,1.5 C 0.413,1.5 0.75,1.163 0.75,0.75 0.75,0.337 0.413,0 0,0" id="path74" style="fill:#3d2e24;fill-opacity:1;fill-rule:nonzero;stroke:none"/></g><g id="g76" transform="translate(12.3799,8)"><path d="m 0,0 c 0,0 1.542,-5.463 5.62,-7.411 l 0,-0.589 -7,0 0,8 L 0,0 Z" id="path78" style="fill:#292f33;fill-opacity:1;fill-rule:nonzero;stroke:none"/></g><g id="g80" transform="translate(23.6201,8)"><path d="m 0,0 c 0,0 -1.542,-5.463 -5.62,-7.411 l 0,-0.589 7,0 0,8 L 0,0 Z" id="path82" style="fill:#292f33;fill-opacity:1;fill-rule:nonzero;stroke:none"/></g><g id="g84" transform="translate(8.083,2.6592)"><path d="m 0,0 c 0.251,0 0.401,-2.659 0.401,-2.659 l -0.956,0 C -0.555,-2.659 -0.362,0 0,0" id="path86" style="fill:#66757f;fill-opacity:1;fill-rule:nonzero;stroke:none"/></g><g id="g88" transform="translate(11.083,2.6592)"><path d="m 0,0 c 0.251,0 0.401,-2.659 0.401,-2.659 l -0.956,0 C -0.555,-2.659 -0.362,0 0,0" id="path90" style="fill:#66757f;fill-opacity:1;fill-rule:nonzero;stroke:none"/></g><g id="g92" transform="translate(27.9287,2.6592)"><path d="m 0,0 c -0.251,0 -0.401,-2.659 -0.401,-2.659 l 0.956,0 C 0.555,-2.659 0.361,0 0,0" id="path94" style="fill:#66757f;fill-opacity:1;fill-rule:nonzero;stroke:none"/></g><g id="g96" transform="translate(24.9287,2.6592)"><path d="m 0,0 c -0.251,0 -0.401,-2.659 -0.401,-2.659 l 0.956,0 C 0.555,-2.659 0.361,0 0,0" id="path98" style="fill:#66757f;fill-opacity:1;fill-rule:nonzero;stroke:none"/></g></g></g><g id="g100" transform="translate(18,28)"><path d="M 0,0 -14,4 0,7 14,4 0,0 Z" id="path102" style="fill:#292f33;fill-opacity:1;fill-rule:nonzero;stroke:none"/></g><g id="g104"><g clip-path="url(#clipPath108)" id="g106"><g id="g112" transform="translate(6.0625,31.9307)"><path d="M 0,0 11.938,-3.411 23.875,0 11.938,2.558 0,0 Z m 11.938,-4.431 c -0.047,0 -0.093,0.007 -0.138,0.019 l -14,4 c -0.22,0.064 -0.37,0.269 -0.362,0.498 0.007,0.229 0.17,0.424 0.395,0.472 l 14,3 c 0.069,0.015 0.141,0.015 0.209,0 l 14,-3 C 26.267,0.51 26.43,0.315 26.437,0.086 26.445,-0.143 26.296,-0.348 26.075,-0.412 l -14,-4 C 12.03,-4.424 11.983,-4.431 11.938,-4.431" id="path114" style="fill:#292f33;fill-opacity:1;fill-rule:nonzero;stroke:none"/></g><g id="g116" transform="translate(27,28)"><path d="m 0,0 c 0,-2.209 -4.029,-3 -9,-3 -4.971,0 -9,0.791 -9,3 0,5 4.029,5 9,5 4.971,0 9,0 9,-5" id="path118" style="fill:#292f33;fill-opacity:1;fill-rule:nonzero;stroke:none"/></g><g id="g120" transform="translate(18,32.5)"><path d="M 0,0 C -5.429,0 -8.5,-0.209 -8.5,-4.5 -8.5,-6.065 -5.322,-7 0,-7 5.322,-7 8.5,-6.065 8.5,-4.5 8.5,-0.209 5.429,0 0,0 m 0,-8 c -6.215,0 -9.5,1.21 -9.5,3.5 C -9.5,1 -4.885,1 0,1 4.886,1 9.5,1 9.5,-4.5 9.5,-6.79 6.215,-8 0,-8" id="path122" style="fill:#292f33;fill-opacity:1;fill-rule:nonzero;stroke:none"/></g><g id="g124" transform="translate(18,27.5)"><path d="m 0,0 c -0.045,0 -0.091,0.006 -0.137,0.019 l -14,4 c -0.266,0.076 -0.42,0.353 -0.344,0.618 0.076,0.266 0.356,0.417 0.618,0.344 l 14.001,-4 C 0.403,0.905 0.557,0.628 0.48,0.363 0.418,0.143 0.218,0 0,0" id="path126" style="fill:#66757f;fill-opacity:1;fill-rule:nonzero;stroke:none"/></g><g id="g128" transform="translate(17.9995,27.5)"><path d="m 0,0 c -0.217,0 -0.417,0.143 -0.48,0.363 -0.076,0.265 0.078,0.542 0.343,0.618 l 14,4 C 14.131,5.055 14.405,4.902 14.481,4.637 14.557,4.372 14.404,4.095 14.138,4.019 l -14,-4 C 0.092,0.006 0.045,0 0,0" id="path130" style="fill:#66757f;fill-opacity:1;fill-rule:nonzero;stroke:none"/></g><g id="g132" transform="translate(5.9995,30.5)"><path d="m 0,0 c -0.257,0 -0.476,0.197 -0.498,0.458 -0.023,0.276 0.182,0.517 0.457,0.54 l 12,1 c 0.272,0.026 0.516,-0.181 0.54,-0.456 0.023,-0.276 -0.182,-0.517 -0.457,-0.54 l -12,-1 C 0.028,0 0.014,0 0,0" id="path134" style="fill:#ffcc4d;fill-opacity:1;fill-rule:nonzero;stroke:none"/></g><g id="g136" transform="translate(6,20.5625)"><path d="m 0,0 c -0.276,0 -0.5,0.224 -0.5,0.5 l 0,9.938 c 0,0.276 0.224,0.5 0.5,0.5 0.276,0 0.5,-0.224 0.5,-0.5 L 0.5,0.5 C 0.5,0.224 0.276,0 0,0" id="path138" style="fill:#ffcc4d;fill-opacity:1;fill-rule:nonzero;stroke:none"/></g><g id="g140" transform="translate(7,22.5)"><path d="m 0,0 c 0,-2.485 -0.448,-4.5 -1,-4.5 -0.552,0 -1,2.015 -1,4.5 0,2.485 0.448,2.5 1,2.5 0.552,0 1,-0.015 1,-2.5" id="path142" style="fill:#ffcc4d;fill-opacity:1;fill-rule:nonzero;stroke:none"/></g></g></g></g></svg>