<?xml version="1.0" encoding="UTF-8" standalone="no"?><svg xmlns="http://www.w3.org/2000/svg" xmlns:cc="http://creativecommons.org/ns#" xmlns:dc="http://purl.org/dc/elements/1.1/" xmlns:rdf="http://www.w3.org/1999/02/22-rdf-syntax-ns#" xmlns:svg="http://www.w3.org/2000/svg" height="45" id="svg2" style="enable-background:new 0 0 45 45;" version="1.1" viewBox="0 0 45 45" width="45" xml:space="preserve"><metadata id="metadata8"><rdf:RDF><cc:Work rdf:about=""><dc:format>image/svg+xml</dc:format><dc:type rdf:resource="http://purl.org/dc/dcmitype/StillImage"/></cc:Work></rdf:RDF></metadata><defs id="defs6"><clipPath clipPathUnits="userSpaceOnUse" id="clipPath18"><path d="M 0,36 36,36 36,0 0,0 0,36 Z" id="path20"/></clipPath></defs><g id="g10" transform="matrix(1.25,0,0,-1.25,0,45)"><path d="M 0,9 36,9 36,18 0,18 0,9 Z" id="path12" style="fill:#f18f26;fill-opacity:1;fill-rule:nonzero;stroke:none"/><g id="g14"><g clip-path="url(#clipPath18)" id="g16"><g id="g22" transform="translate(36,10)"><path d="m 0,0 c 0,-4.971 -8.059,-9 -18,-9 -9.941,0 -18,4.029 -18,9 0,4.971 8.059,9 18,9 C -8.059,9 0,4.971 0,0" id="path24" style="fill:#f18f26;fill-opacity:1;fill-rule:nonzero;stroke:none"/></g><g id="g26" transform="translate(36,9)"><path d="m 0,0 c 0,-4.971 -8.059,-9 -18,-9 -9.941,0 -18,4.029 -18,9 0,4.971 8.059,9 18,9 C -8.059,9 0,4.971 0,0" id="path28" style="fill:#f18f26;fill-opacity:1;fill-rule:nonzero;stroke:none"/></g><g id="g30" transform="translate(0,26)"><path d="m 0,0 0,-16 0.117,0 c 0.996,-4.499 8.619,-8 17.883,-8 9.264,0 16.887,3.501 17.883,8 L 36,-16 36,0 0,0 Z" id="path32" style="fill:#9d0522;fill-opacity:1;fill-rule:nonzero;stroke:none"/></g><g id="g34" transform="translate(36,25)"><path d="m 0,0 c 0,-4.971 -8.059,-9 -18,-9 -9.941,0 -18,4.029 -18,9 0,4.971 8.059,9 18,9 C -8.059,9 0,4.971 0,0" id="path36" style="fill:#f18f26;fill-opacity:1;fill-rule:nonzero;stroke:none"/></g><g id="g38" transform="translate(36,24)"><path d="m 0,0 c 0,-4.971 -8.059,-9 -18,-9 -9.941,0 -18,4.029 -18,9 0,4.971 8.059,9 18,9 C -8.059,9 0,4.971 0,0" id="path40" style="fill:#f18f26;fill-opacity:1;fill-rule:nonzero;stroke:none"/></g><path d="m 1,24 -1,0 0,2 1,0 0,-2 z" id="path42" style="fill:#f18f26;fill-opacity:1;fill-rule:nonzero;stroke:none"/><path d="m 36,24 -1,0 0,2 1,0 0,-2 z" id="path44" style="fill:#f18f26;fill-opacity:1;fill-rule:nonzero;stroke:none"/><g id="g46" transform="translate(36,26)"><path d="m 0,0 c 0,-4.971 -8.059,-9 -18,-9 -9.941,0 -18,4.029 -18,9 0,4.971 8.059,9 18,9 C -8.059,9 0,4.971 0,0" id="path48" style="fill:#fcab40;fill-opacity:1;fill-rule:nonzero;stroke:none"/></g><g id="g50" transform="translate(35,26)"><path d="m 0,0 c 0,-4.418 -7.611,-8 -17,-8 -9.389,0 -17,3.582 -17,8 0,4.418 7.611,8 17,8 C -7.611,8 0,4.418 0,0" id="path52" style="fill:#f5f8fa;fill-opacity:1;fill-rule:nonzero;stroke:none"/></g><g id="g54" transform="translate(18,33)"><path d="M 0,0 C 9.03,0 16.395,-3.316 16.946,-7.5 16.968,-7.334 17,-7.169 17,-7 17,-2.582 9.389,1 0,1 c -9.389,0 -17,-3.582 -17,-8 0,-0.169 0.032,-0.334 0.054,-0.5 C -16.395,-3.316 -9.03,0 0,0" id="path56" style="fill:#fdd888;fill-opacity:1;fill-rule:nonzero;stroke:none"/></g><g id="g58" transform="translate(28.6011,33.4011)"><path d="M 0,0 C 0.44,0.33 0.53,0.96 0.2,1.4 L -0.4,2.2 C -0.73,2.64 -1.36,2.73 -1.8,2.4 L -14.444,-7.644 c -0.774,0.167 -1.785,-0.083 -2.673,-0.749 -1.326,-0.994 -1.863,-2.516 -1.2,-3.4 0.663,-0.883 2.274,-0.794 3.6,0.2 0.835,0.626 1.355,1.461 1.462,2.215 L 0,0 Z" id="path60" style="fill:#aa695b;fill-opacity:1;fill-rule:nonzero;stroke:none"/></g><g id="g62" transform="translate(34.4695,30.4824)"><path d="m 0,0 -0.509,0.861 c -0.28,0.473 -0.896,0.632 -1.369,0.352 l -13.913,-8.751 c -0.719,0.141 -1.626,-0.023 -2.473,-0.523 -1.426,-0.843 -2.127,-2.297 -1.565,-3.248 0.562,-0.951 2.174,-1.039 3.6,-0.196 1.005,0.594 1.638,1.49 1.735,2.301 L -0.352,-1.37 C 0.121,-1.09 0.28,-0.474 0,0" id="path64" style="fill:#aa695b;fill-opacity:1;fill-rule:nonzero;stroke:none"/></g><g id="g66" transform="translate(2,8)"><path d="m 0,0 0,0 c -0.55,0 -1,0.45 -1,1 l 0,9 c 0,0.55 0.45,1 1,1 l 0,0 c 0.55,0 1,-0.45 1,-1 L 1,1 C 1,0.45 0.55,0 0,0" id="path68" style="fill:#da2f47;fill-opacity:1;fill-rule:nonzero;stroke:none"/></g><g id="g70" transform="translate(11,4)"><path d="m 0,0 0,0 c -0.55,0 -1,0.45 -1,1 l 0,9 c 0,0.55 0.45,1 1,1 l 0,0 c 0.55,0 1,-0.45 1,-1 L 1,1 C 1,0.45 0.55,0 0,0" id="path72" style="fill:#da2f47;fill-opacity:1;fill-rule:nonzero;stroke:none"/></g><g id="g74" transform="translate(23,4)"><path d="m 0,0 0,0 c -0.55,0 -1,0.45 -1,1 l 0,9 c 0,0.55 0.45,1 1,1 l 0,0 c 0.55,0 1,-0.45 1,-1 L 1,1 C 1,0.45 0.55,0 0,0" id="path76" style="fill:#da2f47;fill-opacity:1;fill-rule:nonzero;stroke:none"/></g><g id="g78" transform="translate(34,8)"><path d="m 0,0 0,0 c -0.55,0 -1,0.45 -1,1 l 0,9 c 0,0.55 0.45,1 1,1 0.55,0 1,-0.45 1,-1 L 1,1 C 1,0.45 0.55,0 0,0" id="path80" style="fill:#da2f47;fill-opacity:1;fill-rule:nonzero;stroke:none"/></g></g></g></g></svg>