<?xml version="1.0" encoding="UTF-8" standalone="no"?><svg xmlns="http://www.w3.org/2000/svg" xmlns:cc="http://creativecommons.org/ns#" xmlns:dc="http://purl.org/dc/elements/1.1/" xmlns:rdf="http://www.w3.org/1999/02/22-rdf-syntax-ns#" xmlns:svg="http://www.w3.org/2000/svg" height="45" id="svg2" style="enable-background:new 0 0 45 45;" version="1.1" viewBox="0 0 45 45" width="45" xml:space="preserve"><metadata id="metadata8"><rdf:RDF><cc:Work rdf:about=""><dc:format>image/svg+xml</dc:format><dc:type rdf:resource="http://purl.org/dc/dcmitype/StillImage"/></cc:Work></rdf:RDF></metadata><defs id="defs6"><clipPath clipPathUnits="userSpaceOnUse" id="clipPath16"><path d="M 4,31 C 1.791,31 0,29.209 0,27 L 0,27 0,9 C 0,6.791 1.791,5 4,5 l 0,0 28,0 c 2.209,0 4,1.791 4,4 l 0,0 0,18 c 0,2.209 -1.791,4 -4,4 l 0,0 -28,0 z" id="path18"/></clipPath></defs><g id="g10" transform="matrix(1.25,0,0,-1.25,0,45)"><g id="g12"><g clip-path="url(#clipPath16)" id="g14"><g id="g20" transform="translate(9.3334,7.2533)"><path d="M 0,0 8.667,21.407 17.333,0 0,0 Z m -9.333,-2.253 36,0 0,26 -36,0 0,-26 z" id="path22" style="fill:#66ccff;fill-opacity:1;fill-rule:nonzero;stroke:none"/></g><g id="g24" transform="translate(9.3334,7.2533)"><path d="M 0,0 2.346,2.909 8.667,18.547 14.988,2.909 17.333,0 8.667,21.407 0,0 Z" id="path26" style="fill:#ffffff;fill-opacity:1;fill-rule:nonzero;stroke:none"/></g><g id="g28" transform="translate(24.321,10.162)"><path d="M 0,0 -6.321,15.638 -12.642,0 -6.321,7.838 0,0 Z" id="path30" style="fill:#000000;fill-opacity:1;fill-rule:nonzero;stroke:none"/></g><g id="g32" transform="translate(18,18)"><path d="m 0,0 -6.321,-7.838 -2.346,-2.909 17.334,0 L 6.321,-7.838 0,0 Z" id="path34" style="fill:#fcd116;fill-opacity:1;fill-rule:nonzero;stroke:none"/></g></g></g></g></svg>