<?xml version="1.0" encoding="UTF-8" standalone="no"?><svg xmlns="http://www.w3.org/2000/svg" xmlns:cc="http://creativecommons.org/ns#" xmlns:dc="http://purl.org/dc/elements/1.1/" xmlns:rdf="http://www.w3.org/1999/02/22-rdf-syntax-ns#" xmlns:svg="http://www.w3.org/2000/svg" height="45" id="svg2" style="enable-background:new 0 0 45 45;" version="1.1" viewBox="0 0 45 45" width="45" xml:space="preserve"><metadata id="metadata8"><rdf:RDF><cc:Work rdf:about=""><dc:format>image/svg+xml</dc:format><dc:type rdf:resource="http://purl.org/dc/dcmitype/StillImage"/></cc:Work></rdf:RDF></metadata><defs id="defs6"><clipPath clipPathUnits="userSpaceOnUse" id="clipPath20"><path d="M 0,36 36,36 36,0 0,0 0,36 Z" id="path22"/></clipPath></defs><g id="g10" transform="matrix(1.25,0,0,-1.25,0,45)"><g id="g12" transform="translate(10.6362,14.0498)"><path d="M 0,0 -2.122,2.122 8.485,12.729 10.606,10.607 0,0 Z" id="path14" style="fill:#99aab5;fill-opacity:1;fill-rule:nonzero;stroke:none"/></g><g id="g16"><g clip-path="url(#clipPath20)" id="g18"><g id="g24" transform="translate(8.5146,6.2725)"><path d="m 0,0 c -0.781,-0.781 -2.047,-0.781 -2.828,0 l -4.95,4.949 c -0.781,0.781 -0.781,2.048 0,2.828 l 4.95,4.95 c 0.781,0.781 2.047,0.781 2.828,0 L 4.95,7.777 C 5.731,6.997 5.731,5.73 4.95,4.949 L 0,0 Z" id="path26" style="fill:#55acee;fill-opacity:1;fill-rule:nonzero;stroke:none"/></g><g id="g28" transform="translate(24.7773,22.5352)"><path d="m 0,0 c -0.78,-0.781 -2.047,-0.781 -2.827,0 l -4.95,4.95 c -0.781,0.781 -0.782,2.047 -10e-4,2.828 l 4.951,4.95 c 0.781,0.782 2.047,0.781 2.828,0 L 4.95,7.778 C 5.732,6.998 5.732,5.731 4.951,4.951 L 0,0 Z" id="path30" style="fill:#55acee;fill-opacity:1;fill-rule:nonzero;stroke:none"/></g><g id="g32" transform="translate(12.4038,25.7173)"><path d="M 0,0 C 0,0 -0.707,2.122 -1.414,4.243 -1.862,5.584 -2.829,5.657 -3.536,4.95 -4.243,4.243 -5.657,2.829 -6.364,2.122 -7.071,1.415 -6.999,0.447 -5.657,0 c 2.121,-0.707 4.243,-1.414 4.243,-1.414 L 0,0 Z" id="path34" style="fill:#99aab5;fill-opacity:1;fill-rule:nonzero;stroke:none"/></g><g id="g36" transform="translate(17.708,14.0508)"><path d="M 0,0 C -0.782,-0.781 -2.048,-0.781 -2.829,-0.001 L -9.9,7.07 c -0.781,0.782 -0.781,2.048 0,2.829 l 4.242,4.242 c 0.781,0.781 2.048,0.781 2.829,10e-4 L 4.242,7.07 C 5.022,6.29 5.022,5.023 4.241,4.241 L 0,0 Z" id="path38" style="fill:#ccd6dd;fill-opacity:1;fill-rule:nonzero;stroke:none"/></g><g id="g40" transform="translate(21.0156,14.9453)"><path d="m 0,0 c -1.952,-1.953 -4.802,-2.27 -6.364,-0.708 -1.562,1.563 0.876,2.29 2.829,4.243 1.953,1.953 2.681,4.39 4.243,2.829 C 2.27,4.802 1.953,1.953 0,0" id="path42" style="fill:#ccd6dd;fill-opacity:1;fill-rule:nonzero;stroke:none"/></g><g id="g44" transform="translate(27.96,15.8184)"><path d="m 0,0 c -2.12,2.122 -5.118,1.951 -7.071,0 -1.952,-1.954 -2.121,-4.95 0,-7.071 L 0,0 Z" id="path46" style="fill:#99aab5;fill-opacity:1;fill-rule:nonzero;stroke:none"/></g><g id="g48" transform="translate(25.1318,12.9893)"><path d="M 0,0 2.121,-3.535 -1.414,-1.414 0,0 Z" id="path50" style="fill:#99aab5;fill-opacity:1;fill-rule:nonzero;stroke:none"/></g><g id="g52" transform="translate(27.8135,8.8936)"><path d="m 0,0 c -0.391,-0.391 -1.023,-0.391 -1.414,0 -0.391,0.391 -0.391,1.023 0,1.414 0.391,0.391 1.023,0.391 1.414,0 C 0.391,1.023 0.391,0.391 0,0" id="path54" style="fill:#99aab5;fill-opacity:1;fill-rule:nonzero;stroke:none"/></g><g id="g56" transform="translate(4.272,17.5854)"><path d="M 0,0 1.414,1.415 9.192,-6.364 7.778,-7.778 0,0 Z" id="path58" style="fill:#88c9f9;fill-opacity:1;fill-rule:nonzero;stroke:none"/></g><g id="g60" transform="translate(26.1924,23.9497)"><path d="M 0,0 -1.414,-1.414 -9.192,6.364 -7.778,7.778 0,0 Z" id="path62" style="fill:#88c9f9;fill-opacity:1;fill-rule:nonzero;stroke:none"/></g><g id="g64" transform="translate(0.7368,14.0498)"><path d="M 0,0 1.414,1.415 9.192,-6.363 7.777,-7.777 0,0 Z" id="path66" style="fill:#88c9f9;fill-opacity:1;fill-rule:nonzero;stroke:none"/></g><g id="g68" transform="translate(29.7275,27.4858)"><path d="M 0,0 -1.414,-1.415 -9.192,6.363 -7.777,7.777 0,0 Z" id="path70" style="fill:#88c9f9;fill-opacity:1;fill-rule:nonzero;stroke:none"/></g><g id="g72" transform="translate(8.3066,28.3989)"><path d="m 0,0 c -0.39,-0.39 -1.023,-0.39 -1.414,0 -0.391,0.391 -0.39,1.024 0,1.415 0.391,0.39 1.024,0.39 1.414,0 C 0.391,1.024 0.391,0.391 0,0" id="path74" style="fill:#99aab5;fill-opacity:1;fill-rule:nonzero;stroke:none"/></g><g id="g76" transform="translate(23.6816,5.5693)"><path d="M 0,0 C 0,0.017 0.001,0.034 0.002,0.051 0.029,0.603 0.499,1.027 1.051,1 1.066,0.999 3.207,0.937 4.851,2.58 6.487,4.218 6.429,6.353 6.431,6.381 6.398,6.931 6.828,7.401 7.379,7.43 7.931,7.457 8.4,7.032 8.428,6.48 8.44,6.358 8.551,3.452 6.265,1.166 3.977,-1.121 1.073,-1.004 0.951,-0.998 0.416,-0.971 0,-0.529 0,0" id="path78" style="fill:#ffac33;fill-opacity:1;fill-rule:nonzero;stroke:none"/></g><g id="g80" transform="translate(24.2383,2.0107)"><path d="M 0,0 C 0,0.109 0.018,0.221 0.057,0.33 0.238,0.852 0.809,1.126 1.33,0.943 1.437,0.909 4.207,0.051 7.294,3.139 c 3.127,3.126 2.414,6.126 2.382,6.252 -0.137,0.529 0.184,1.077 0.716,1.216 0.53,0.139 1.073,-0.172 1.216,-0.702 C 11.654,9.735 12.686,5.7 8.708,1.725 4.694,-2.291 0.832,-1.001 0.67,-0.943 0.258,-0.8 0,-0.413 0,0" id="path82" style="fill:#ffac33;fill-opacity:1;fill-rule:nonzero;stroke:none"/></g></g></g></g></svg>