<?xml version="1.0" encoding="UTF-8" standalone="no"?><svg xmlns="http://www.w3.org/2000/svg" xmlns:cc="http://creativecommons.org/ns#" xmlns:dc="http://purl.org/dc/elements/1.1/" xmlns:rdf="http://www.w3.org/1999/02/22-rdf-syntax-ns#" xmlns:svg="http://www.w3.org/2000/svg" height="45" id="svg2" style="enable-background:new 0 0 45 45;" version="1.1" viewBox="0 0 45 45" width="45" xml:space="preserve"><metadata id="metadata8"><rdf:RDF><cc:Work rdf:about=""><dc:format>image/svg+xml</dc:format><dc:type rdf:resource="http://purl.org/dc/dcmitype/StillImage"/></cc:Work></rdf:RDF></metadata><defs id="defs6"><clipPath clipPathUnits="userSpaceOnUse" id="clipPath16"><path d="M 0,36 36,36 36,0 0,0 0,36 Z" id="path18"/></clipPath></defs><g id="g10" transform="matrix(1.25,0,0,-1.25,0,45)"><g id="g12"><g clip-path="url(#clipPath16)" id="g14"><g id="g20" transform="translate(28,34.0005)"><path d="m 0,0 c 2.684,1.342 5,-4 3,-13 -1.106,-4.977 -5,-9 -9,-12 -4.001,-3 -11.001,1 -7.001,5 4,4 8.001,7 10.001,13 1.304,3.912 1,6 3,7" id="path22" style="fill:#ffe8b6;fill-opacity:1;fill-rule:nonzero;stroke:none"/></g><g id="g24" transform="translate(31,28.0005)"><path d="m 0,0 c 0,-3 -1,-9 -4,-13 -3,-4 -7,-5 -4,-1 3,4 5,7 6,11 1,4 2,7 2,3" id="path26" style="fill:#ffd983;fill-opacity:1;fill-rule:nonzero;stroke:none"/></g><g id="g28" transform="translate(22,16)"><path d="m 0,0 c -0.296,-0.592 1.167,3.833 -3.001,6.001 -1.983,1.031 -10,-1 -4,-1 3.001,0 4,-2 2,-4 C -5.292,0.709 -5.489,0.398 -5.623,0.089 -6.039,-0.258 -6.495,-0.621 -7.001,-1 -9.263,-2.697 -12.84,-5.227 -17,-8 c -3,-2 -4,-3 -4,-4 0,-3 9,-3 13.999,-1 C -2,-11 3,-6 3,-6 l 4,4 C 4,2.001 0,0 0,0" id="path30" style="fill:#ffcc4d;fill-opacity:1;fill-rule:nonzero;stroke:none"/></g><g id="g32" transform="translate(22,16)"><path d="m 0,0 c 0,0 1.792,4.729 -3.001,7.001 -4.041,1.915 -8,1 -10.999,-1 -3,-2 -2,-4 -3,-5.001 -1,-1 1,-2 3,0 2,2.001 8.315,4.895 10.999,4.001 C 0,4.001 -1,2.001 0,0" id="path34" style="fill:#ffe8b6;fill-opacity:1;fill-rule:nonzero;stroke:none"/></g><g id="g36" transform="translate(26,1)"><path d="m 0,0 -4,0 c -2,0 -3,-1 -4,-1 -1,0 -2,2 0,2 2,0 4,0 5,1 1,1 5,-2 3,-2" id="path38" style="fill:#a6d388;fill-opacity:1;fill-rule:nonzero;stroke:none"/></g><g id="g40" transform="translate(18.9995,1)"><path d="m 0,0 c 0,-0.553 -0.448,-1 -1,-1 -0.552,0 -1,0.447 -1,1 0,0.553 0.448,1 1,1 0.552,0 1,-0.447 1,-1" id="path42" style="fill:#3e721d;fill-opacity:1;fill-rule:nonzero;stroke:none"/></g><g id="g44" transform="translate(32.2083,8)"><path d="m 0,0 c 0,0 -4.208,-7 -6.208,-7 l -4,0 c -2,0 0,1 1,2 1,1 5,0 5,6 C -4.208,4 0,0 0,0" id="path46" style="fill:#ffcc4d;fill-opacity:1;fill-rule:nonzero;stroke:none"/></g><g id="g48" transform="translate(26,17.0005)"><path d="m 0,0 c 3,0 8,-3.001 7,-9.001 -1,-6 -5,-7 -7,-7 l -2,0 c -2,0 -1,1 0,2 1,1 4,0 4,6 0,3 -4,7 -6,7 0,0 2,1.001 4,1.001" id="path50" style="fill:#ffe8b6;fill-opacity:1;fill-rule:nonzero;stroke:none"/></g><g id="g52" transform="translate(16.9995,15)"><path d="M 0,0 C 3.001,0 5.001,-1 3.001,-3 1.419,-4.581 -3,-8 -7,-9 c -4,-1 -8,-1 -5,1 3,2 9.764,8 12,8" id="path54" style="fill:#ffd983;fill-opacity:1;fill-rule:nonzero;stroke:none"/></g><g id="g56" transform="translate(1.9995,5)"><path d="M 0,0 C 1,0 1,0 1,-0.667 1,-1.333 1,-2 0,-2 c -1,0 -1,1.333 -1,1.333 0,0 0,0.667 1,0.667" id="path58" style="fill:#c1694f;fill-opacity:1;fill-rule:nonzero;stroke:none"/></g></g></g></g></svg>