<?xml version="1.0" encoding="UTF-8" standalone="no"?><svg xmlns="http://www.w3.org/2000/svg" xmlns:cc="http://creativecommons.org/ns#" xmlns:dc="http://purl.org/dc/elements/1.1/" xmlns:rdf="http://www.w3.org/1999/02/22-rdf-syntax-ns#" xmlns:svg="http://www.w3.org/2000/svg" height="45" id="svg2" style="enable-background:new 0 0 45 45;" version="1.1" viewBox="0 0 45 45" width="45" xml:space="preserve"><metadata id="metadata8"><rdf:RDF><cc:Work rdf:about=""><dc:format>image/svg+xml</dc:format><dc:type rdf:resource="http://purl.org/dc/dcmitype/StillImage"/></cc:Work></rdf:RDF></metadata><defs id="defs6"><clipPath clipPathUnits="userSpaceOnUse" id="clipPath16"><path d="M 4,31 C 1.791,31 0,29.209 0,27 L 0,27 0,9 C 0,6.791 1.791,5 4,5 l 0,0 28,0 c 2.209,0 4,1.791 4,4 l 0,0 0,18 c 0,2.209 -1.791,4 -4,4 l 0,0 -28,0 z" id="path18"/></clipPath></defs><g id="g10" transform="matrix(1.25,0,0,-1.25,0,45)"><g id="g12"><g clip-path="url(#clipPath16)" id="g14"><g id="g20" transform="translate(0,31)"><path d="M 0,0 6.923,-5 36,-5 36,0 0,0 Z" id="path22" style="fill:#002a8f;fill-opacity:1;fill-rule:nonzero;stroke:none"/></g><g id="g24" transform="translate(13.8462,21)"><path d="m 0,0 22.154,0 0,5 L -6.923,5 0,0 Z" id="path26" style="fill:#eeeeee;fill-opacity:1;fill-rule:nonzero;stroke:none"/></g><g id="g28" transform="translate(18,18)"><path d="M 0,0 -4.154,-3 18,-3 18,3 -4.154,3 0,0 Z" id="path30" style="fill:#002a8f;fill-opacity:1;fill-rule:nonzero;stroke:none"/></g><g id="g32" transform="translate(6.9231,10)"><path d="m 0,0 29.077,0 0,5 L 6.923,5 0,0 Z" id="path34" style="fill:#eeeeee;fill-opacity:1;fill-rule:nonzero;stroke:none"/></g><g id="g36" transform="translate(0,5)"><path d="M 0,0 36,0 36,5 6.923,5 0,0 Z" id="path38" style="fill:#002a8f;fill-opacity:1;fill-rule:nonzero;stroke:none"/></g><g id="g40" transform="translate(13.8462,15)"><path d="M 0,0 4.154,3 0,6 l -6.923,5 -6.923,5 0,-26 6.923,5 L 0,0 Z" id="path42" style="fill:#cf142b;fill-opacity:1;fill-rule:nonzero;stroke:none"/></g><g id="g44" transform="translate(7.4955,17.3985)"><path d="m 0,0 2.005,1.452 -2.478,0 -0.77,2.362 -0.771,-2.362 -2.481,0 2.006,-1.453 -0.771,-2.361 2.015,1.46 2.014,-1.46 L 0,0 Z" id="path46" style="fill:#ffffff;fill-opacity:1;fill-rule:nonzero;stroke:none"/></g></g></g></g></svg>