<?xml version="1.0" encoding="UTF-8" standalone="no"?><svg xmlns="http://www.w3.org/2000/svg" xmlns:cc="http://creativecommons.org/ns#" xmlns:dc="http://purl.org/dc/elements/1.1/" xmlns:rdf="http://www.w3.org/1999/02/22-rdf-syntax-ns#" xmlns:svg="http://www.w3.org/2000/svg" height="45" id="svg2" style="enable-background:new 0 0 45 45;" version="1.1" viewBox="0 0 45 45" width="45" xml:space="preserve"><metadata id="metadata8"><rdf:RDF><cc:Work rdf:about=""><dc:format>image/svg+xml</dc:format><dc:type rdf:resource="http://purl.org/dc/dcmitype/StillImage"/></cc:Work></rdf:RDF></metadata><defs id="defs6"><clipPath clipPathUnits="userSpaceOnUse" id="clipPath16"><path d="M 0,0 33,0 33,36 0,36 0,0 Z" id="path18"/></clipPath><clipPath clipPathUnits="userSpaceOnUse" id="clipPath94"><path d="M 17.998,36 C 13,36 10.874,34.663 9,32 l 0,0 C 7.007,29.169 9,27 6,25 l 0,0 c -1.861,-1.24 6,-2.313 12,-2.313 l 0,0 c 6,0 13.861,1.073 12,2.313 l 0,0 c -3,2 -1.007,4.169 -3,7 l 0,0 c -1.873,2.663 -5,4 -9.002,4 z" id="path96"/></clipPath></defs><g id="g10" transform="matrix(1.25,0,0,-1.25,0,45)"><g id="g12"><g clip-path="url(#clipPath16)" id="g14"><g id="g20" transform="translate(32,0)"><path d="m 0,0 0,2 c 0,3.314 -2.686,6 -6,6 l -16,0 c -3.313,0 -6,-2.686 -6,-6 l 0,-2 28,0 z" id="path22" style="fill:#f2760f;fill-opacity:1;fill-rule:nonzero;stroke:none"/></g><path d="M 23,5 13,5 13,9 23,9 23,5 Z" id="path24" style="fill:#292f33;fill-opacity:1;fill-rule:nonzero;stroke:none"/><g id="g26" transform="translate(14,9)"><path d="M 0,0 8,0 C 8,0 6.982,-7 4,-7 1.018,-7 0,0 0,0" id="path28" style="fill:#292f33;fill-opacity:1;fill-rule:nonzero;stroke:none"/></g><g id="g30" transform="translate(13.6396,5.9619)"><path d="m 0,0 c 1.745,-1.268 2.849,-1.963 4.36,-1.963 1.512,0 2.616,0.696 4.36,1.963 l 0,5.749 L 0,5.749 0,0 Z" id="path32" style="fill:#d5ab88;fill-opacity:1;fill-rule:nonzero;stroke:none"/></g><g id="g34" transform="translate(13.6318,10.0273)"><path d="m 0,0 c 1.216,-1.374 2.724,-1.746 4.364,-1.746 1.639,0 3.147,0.373 4.364,1.746 l 0,3.491 L 0,3.491 0,0 Z" id="path36" style="fill:#cc9b7a;fill-opacity:1;fill-rule:nonzero;stroke:none"/></g><g id="g38" transform="translate(11.4443,20.0645)"><path d="m 0,0 c 0,-1.448 -0.734,-2.622 -1.639,-2.622 -0.905,0 -1.639,1.174 -1.639,2.622 0,1.448 0.734,2.623 1.639,2.623 C -0.734,2.623 0,1.448 0,0" id="path40" style="fill:#d5ab88;fill-opacity:1;fill-rule:nonzero;stroke:none"/></g><g id="g42" transform="translate(27.834,20.0645)"><path d="m 0,0 c 0,-1.448 -0.734,-2.622 -1.639,-2.622 -0.906,0 -1.638,1.174 -1.638,2.622 0,1.448 0.732,2.623 1.638,2.623 C -0.734,2.623 0,1.448 0,0" id="path44" style="fill:#d5ab88;fill-opacity:1;fill-rule:nonzero;stroke:none"/></g><g id="g46" transform="translate(9.4775,19.0405)"><path d="m 0,0 c 0,5.589 3.816,10.121 8.523,10.121 4.707,0 8.523,-4.532 8.523,-10.121 0,-5.589 -3.816,-10.121 -8.523,-10.121 C 3.816,-10.121 0,-5.589 0,0" id="path48" style="fill:#d5ab88;fill-opacity:1;fill-rule:nonzero;stroke:none"/></g><g id="g50" transform="translate(18,12.1982)"><path d="m 0,0 c -2.754,0 -3.6,0.705 -3.74,0.848 -0.257,0.256 -0.257,0.671 0,0.927 0.248,0.248 0.644,0.254 0.902,0.023 C -2.787,1.761 -2.117,1.311 0,1.311 c 2.201,0 2.836,0.485 2.842,0.49 C 3.098,2.056 3.5,2.044 3.756,1.786 4.012,1.53 3.998,1.104 3.742,0.848 3.6,0.705 2.754,0 0,0" id="path52" style="fill:#c1694f;fill-opacity:1;fill-rule:nonzero;stroke:none"/></g><g id="g54" transform="translate(18,32.5205)"><path d="m 0,0 c 5.648,0 9.178,-4.168 9.178,-7.641 0,-3.473 -0.705,-4.863 -1.412,-3.473 -0.705,1.389 -1.412,2.778 -1.412,2.778 0,0 -4.235,0 -5.647,1.39 0,0 2.117,-4.168 -2.119,0 0,0 0.707,-2.779 -3.53,0.694 0,0 -2.118,-1.389 -2.824,-4.862 -0.196,-0.964 -1.412,0 -1.412,3.473 C -9.178,-4.168 -6.354,0 0,0" id="path56" style="fill:#963b22;fill-opacity:1;fill-rule:nonzero;stroke:none"/></g><g id="g58" transform="translate(14,19)"><path d="m 0,0 0,0 c -0.55,0 -1,0.45 -1,1 l 0,1 C -1,2.55 -0.55,3 0,3 0.551,3 1,2.55 1,2 L 1,1 C 1,0.45 0.551,0 0,0" id="path60" style="fill:#662113;fill-opacity:1;fill-rule:nonzero;stroke:none"/></g><g id="g62" transform="translate(22,19)"><path d="m 0,0 0,0 c -0.549,0 -1,0.45 -1,1 l 0,1 C -1,2.55 -0.549,3 0,3 0.551,3 1,2.55 1,2 L 1,1 C 1,0.45 0.551,0 0,0" id="path64" style="fill:#662113;fill-opacity:1;fill-rule:nonzero;stroke:none"/></g><g id="g66" transform="translate(18.75,16.25)"><path d="m 0,0 -1.5,0 c -0.412,0 -0.75,0.337 -0.75,0.75 0,0.413 0.338,0.75 0.75,0.75 L 0,1.5 C 0.414,1.5 0.75,1.163 0.75,0.75 0.75,0.337 0.414,0 0,0" id="path68" style="fill:#c1694f;fill-opacity:1;fill-rule:nonzero;stroke:none"/></g><g id="g70" transform="translate(30,25)"><path d="m 0,0 c -3,2 -1.008,4.169 -3,7 -1.873,2.663 -5,4 -9.002,4 C -17,11 -19.126,9.663 -21,7 c -1.992,-2.831 0,-5 -3,-7 -1.861,-1.24 6,-2.313 12,-2.313 6,0 13.861,1.073 12,2.313" id="path72" style="fill:#fff75f;fill-opacity:1;fill-rule:nonzero;stroke:none"/></g><g id="g74" transform="translate(19,1.0625)"><path d="m 0,0 -1,-1.062 -1,1 0,3 2,0 L 0,0 Z" id="path76" style="fill:#292f33;fill-opacity:1;fill-rule:nonzero;stroke:none"/></g><path d="M 12,0 9,0 9,8 12,8 12,0 Z" id="path78" style="fill:#fff75f;fill-opacity:1;fill-rule:nonzero;stroke:none"/><path d="m 27,0 -3,0 0,8 3,0 0,-8 z" id="path80" style="fill:#fff75f;fill-opacity:1;fill-rule:nonzero;stroke:none"/><g id="g82" transform="translate(11,8)"><path d="M 0,0 C 0,-1 1,-3 3,-5 4.582,-6.581 7,-8 7,-8 7,-4.937 6,-4 5,-3 4,-2 2,-1 2,1 2,2 0,0 0,0" id="path84" style="fill:#55acee;fill-opacity:1;fill-rule:nonzero;stroke:none"/></g><g id="g86" transform="translate(25,8)"><path d="m 0,0 c 0,-1 -1,-3 -3,-5 -1.58,-1.581 -4,-3 -4,-3 0,3.063 1,4 2,5 1,1 3,2 3,4 0,1 2,-1 2,-1" id="path88" style="fill:#55acee;fill-opacity:1;fill-rule:nonzero;stroke:none"/></g></g></g><g id="g90"><g clip-path="url(#clipPath94)" id="g92"><g id="g98" transform="translate(16,24.5)"><path d="m 0,0 -0.5,0 c -3.604,0 -10.687,1.035 -12.724,2.053 -0.247,0.123 -0.347,0.424 -0.223,0.671 0.124,0.247 0.424,0.346 0.671,0.223 C -10.983,2.05 -4.591,1.093 -1,1.006 L -1,11.5 C -1,11.776 -0.776,12 -0.5,12 -0.224,12 0,11.776 0,11.5 L 0,0 Z" id="path100" style="fill:#ffac33;fill-opacity:1;fill-rule:nonzero;stroke:none"/></g><g id="g102" transform="translate(20.5,24.5)"><path d="m 0,0 -0.5,0 0,11.5 c 0,0.276 0.224,0.5 0.5,0.5 0.276,0 0.5,-0.224 0.5,-0.5 L 0.5,1.004 C 5.042,1.076 14.513,2.065 16.276,2.947 16.524,3.069 16.823,2.971 16.947,2.724 17.07,2.477 16.971,2.176 16.724,2.053 14.603,0.993 3.941,0 0,0" id="path104" style="fill:#ffac33;fill-opacity:1;fill-rule:nonzero;stroke:none"/></g></g></g></g></svg>