<?xml version="1.0" encoding="UTF-8" standalone="no"?><svg xmlns="http://www.w3.org/2000/svg" xmlns:cc="http://creativecommons.org/ns#" xmlns:dc="http://purl.org/dc/elements/1.1/" xmlns:rdf="http://www.w3.org/1999/02/22-rdf-syntax-ns#" xmlns:svg="http://www.w3.org/2000/svg" height="45" id="svg2" style="enable-background:new 0 0 45 45;" version="1.1" viewBox="0 0 45 45" width="45" xml:space="preserve"><metadata id="metadata8"><rdf:RDF><cc:Work rdf:about=""><dc:format>image/svg+xml</dc:format><dc:type rdf:resource="http://purl.org/dc/dcmitype/StillImage"/></cc:Work></rdf:RDF></metadata><defs id="defs6"><clipPath clipPathUnits="userSpaceOnUse" id="clipPath16"><path d="M 0,36 36,36 36,0 0,0 0,36 Z" id="path18"/></clipPath></defs><g id="g10" transform="matrix(1.25,0,0,-1.25,0,45)"><g id="g12"><g clip-path="url(#clipPath16)" id="g14"><g id="g20" transform="translate(32,31)"><path d="m 0,0 -28,0 c -2.209,0 -4,-1.791 -4,-4 l 0,-5 18.016,0 L 4,-9 4,-4 C 4,-1.791 2.209,0 0,0" id="path22" style="fill:#cc212d;fill-opacity:1;fill-rule:nonzero;stroke:none"/></g><g id="g24" transform="translate(15.4228,14)"><path d="M 0,0 5.186,0 2.593,1.884 0,0 Z" id="path26" style="fill:#fbd116;fill-opacity:1;fill-rule:nonzero;stroke:none"/></g><g id="g28" transform="translate(19.0097,18.9414)"><path d="m 0,0 3.215,0 -2.601,-1.89 0.991,-3.051 15.385,0 0,8 -17.984,0 L 0,0 Z" id="path30" style="fill:#fbd116;fill-opacity:1;fill-rule:nonzero;stroke:none"/></g><g id="g32" transform="translate(16.4082,17.0518)"><path d="m 0,0 -2.602,1.89 3.216,0 0.993,3.058 -18.015,0 0,-8 15.416,0 L 0,0 Z" id="path34" style="fill:#fbd116;fill-opacity:1;fill-rule:nonzero;stroke:none"/></g><g id="g36" transform="translate(20.6172,13.9937)"><path d="m 0,0 -0.009,0.006 -5.185,0 L -5.203,0 l 0.002,0.006 -15.416,0 0,-5 c 0,-2.209 1.791,-4 4,-4 l 28,0 c 2.209,0 4,1.791 4,4 l 0,5 -15.385,0 L 0,0 Z" id="path38" style="fill:#288541;fill-opacity:1;fill-rule:nonzero;stroke:none"/></g><g id="g40" transform="translate(13.8066,18.9414)"><path d="M 0,0 2.602,-1.89 1.609,-4.941 1.607,-4.948 1.616,-4.941 4.209,-3.058 6.802,-4.941 6.811,-4.948 6.808,-4.941 5.817,-1.89 8.418,0 5.203,0 4.209,3.059 3.215,0 0,0 Z" id="path42" style="fill:#000000;fill-opacity:1;fill-rule:nonzero;stroke:none"/></g></g></g></g></svg>