<?xml version="1.0" encoding="UTF-8" standalone="no"?><svg xmlns="http://www.w3.org/2000/svg" xmlns:cc="http://creativecommons.org/ns#" xmlns:dc="http://purl.org/dc/elements/1.1/" xmlns:rdf="http://www.w3.org/1999/02/22-rdf-syntax-ns#" xmlns:svg="http://www.w3.org/2000/svg" height="45" id="svg2" style="enable-background:new 0 0 45 45;" version="1.1" viewBox="0 0 45 45" width="45" xml:space="preserve"><metadata id="metadata8"><rdf:RDF><cc:Work rdf:about=""><dc:format>image/svg+xml</dc:format><dc:type rdf:resource="http://purl.org/dc/dcmitype/StillImage"/></cc:Work></rdf:RDF></metadata><defs id="defs6"><clipPath clipPathUnits="userSpaceOnUse" id="clipPath16"><path d="M 0,36 36,36 36,0 0,0 0,36 Z" id="path18"/></clipPath></defs><g id="g10" transform="matrix(1.25,0,0,-1.25,0,45)"><g id="g12"><g clip-path="url(#clipPath16)" id="g14"><g id="g20" transform="translate(11,9)"><path d="m 0,0 c 0,-1.104 -0.895,-2 -2,-2 -1.104,0 -2,0.896 -2,2 l 0,11 c 0,1.105 0.896,2 2,2 1.105,0 2,-0.895 2,-2 L 0,0 Z" id="path22" style="fill:#9aaab4;fill-opacity:1;fill-rule:nonzero;stroke:none"/></g><g id="g24" transform="translate(31,9)"><path d="m 0,0 c 0,-1.104 -0.895,-2 -2,-2 -1.104,0 -2,0.896 -2,2 l 0,11 c 0,1.105 0.896,2 2,2 1.105,0 2,-0.895 2,-2 L 0,0 Z" id="path26" style="fill:#9aaab4;fill-opacity:1;fill-rule:nonzero;stroke:none"/></g><g id="g28" transform="translate(29,2)"><path d="m 0,0 c 0,-1.104 -0.895,-2 -2,-2 -1.104,0 -2,0.896 -2,2 l 0,6 c 0,1.105 0.896,2 2,2 1.105,0 2,-0.895 2,-2 L 0,0 Z" id="path30" style="fill:#67757f;fill-opacity:1;fill-rule:nonzero;stroke:none"/></g><g id="g32" transform="translate(13,2)"><path d="m 0,0 c 0,-1.104 -0.895,-2 -2,-2 -1.104,0 -2,0.896 -2,2 l 0,6 c 0,1.105 0.896,2 2,2 1.105,0 2,-0.895 2,-2 L 0,0 Z" id="path34" style="fill:#67757f;fill-opacity:1;fill-rule:nonzero;stroke:none"/></g><g id="g36" transform="translate(29,18)"><path d="m 0,0 c 0,-2.209 -1.791,-4 -4,-4 l -12,0 c -2.209,0 -4,1.791 -4,4 l 0,14 c 0,2.209 1.791,4 4,4 l 12,0 c 2.209,0 4,-1.791 4,-4 L 0,0 Z" id="path38" style="fill:#4289c1;fill-opacity:1;fill-rule:nonzero;stroke:none"/></g><path d="m 23,28 -8,0 0,8 8,0 0,-8 z" id="path40" style="fill:#e1e8ed;fill-opacity:1;fill-rule:nonzero;stroke:none"/><g id="g42" transform="translate(11,21)"><path d="m 0,0 c 0,-1.104 -0.895,-2 -2,-2 l -2,0 c -1.104,0 -2,0.896 -2,2 0,1.105 0.896,2 2,2 l 2,0 C -0.895,2 0,1.105 0,0" id="path44" style="fill:#ccd6dd;fill-opacity:1;fill-rule:nonzero;stroke:none"/></g><g id="g46" transform="translate(33,21)"><path d="m 0,0 c 0,-1.104 -0.895,-2 -2,-2 l -2,0 c -1.104,0 -2,0.896 -2,2 0,1.105 0.896,2 2,2 l 2,0 C -0.895,2 0,1.105 0,0" id="path48" style="fill:#ccd6dd;fill-opacity:1;fill-rule:nonzero;stroke:none"/></g><g id="g50" transform="translate(29,13)"><path d="m 0,0 c 0,-1.657 -1.343,-3 -3,-3 l -14,0 c -1.657,0 -3,1.343 -3,3 0,1.657 1.343,3 3,3 L -3,3 C -1.343,3 0,1.657 0,0" id="path52" style="fill:#5dadec;fill-opacity:1;fill-rule:nonzero;stroke:none"/></g><path d="M 29,7 9,7 9,13 29,13 29,7 Z" id="path54" style="fill:#2a6797;fill-opacity:1;fill-rule:nonzero;stroke:none"/></g></g></g></svg>