<?xml version="1.0" encoding="UTF-8" standalone="no"?><svg xmlns="http://www.w3.org/2000/svg" xmlns:cc="http://creativecommons.org/ns#" xmlns:dc="http://purl.org/dc/elements/1.1/" xmlns:rdf="http://www.w3.org/1999/02/22-rdf-syntax-ns#" xmlns:svg="http://www.w3.org/2000/svg" height="45" id="svg2" style="enable-background:new 0 0 45 45;" version="1.1" viewBox="0 0 45 45" width="45" xml:space="preserve"><metadata id="metadata8"><rdf:RDF><cc:Work rdf:about=""><dc:format>image/svg+xml</dc:format><dc:type rdf:resource="http://purl.org/dc/dcmitype/StillImage"/></cc:Work></rdf:RDF></metadata><defs id="defs6"><clipPath clipPathUnits="userSpaceOnUse" id="clipPath16"><path d="M 0,36 36,36 36,0 0,0 0,36 Z" id="path18"/></clipPath></defs><g id="g10" transform="matrix(1.25,0,0,-1.25,0,45)"><g id="g12"><g clip-path="url(#clipPath16)" id="g14"><g id="g20" transform="translate(32,31)"><path d="m 0,0 -11.5,0 0,-10.5 15.5,0 0,6.5 C 4,-1.791 2.209,0 0,0" id="path22" style="fill:#eeeeee;fill-opacity:1;fill-rule:nonzero;stroke:none"/></g><g id="g24" transform="translate(20.5,31)"><path d="m 0,0 -5,0 0,-10.5 -15.5,0 0,-5 15.5,0 0,-10.5 5,0 0,10.5 15.5,0 0,5 L 0,-10.5 0,0 Z" id="path26" style="fill:#e8112d;fill-opacity:1;fill-rule:nonzero;stroke:none"/></g><g id="g28" transform="translate(28.9146,26.4145)"><path d="M 0,0 C 0.031,0.623 0.104,1.244 0.221,1.86 -0.367,1.786 -0.962,1.786 -1.55,1.86 -1.433,1.244 -1.36,0.623 -1.329,0 c -0.623,0.031 -1.245,0.104 -1.86,0.221 0.074,-0.588 0.074,-1.183 0,-1.771 0.615,0.117 1.237,0.19 1.86,0.221 -0.031,-0.623 -0.104,-1.244 -0.221,-1.86 0.588,0.074 1.183,0.074 1.771,0 C 0.104,-2.573 0.031,-1.952 0,-1.329 0.623,-1.36 1.244,-1.433 1.86,-1.55 1.786,-0.962 1.786,-0.367 1.86,0.221 1.244,0.104 0.623,0.031 0,0" id="path30" style="fill:#e8112d;fill-opacity:1;fill-rule:nonzero;stroke:none"/></g><g id="g32" transform="translate(15.5,31)"><path d="m 0,0 -11.5,0 c -2.209,0 -4,-1.791 -4,-4 l 0,-6.5 15.5,0 L 0,0 Z" id="path34" style="fill:#eeeeee;fill-opacity:1;fill-rule:nonzero;stroke:none"/></g><g id="g36" transform="translate(8.4146,26.4145)"><path d="M 0,0 C 0.031,0.623 0.104,1.244 0.221,1.86 -0.367,1.786 -0.962,1.786 -1.55,1.86 -1.433,1.244 -1.36,0.623 -1.329,0 c -0.623,0.031 -1.245,0.104 -1.86,0.221 0.074,-0.588 0.074,-1.183 0,-1.771 0.615,0.117 1.237,0.19 1.86,0.221 -0.031,-0.623 -0.104,-1.244 -0.221,-1.86 0.588,0.074 1.183,0.074 1.771,0 C 0.104,-2.573 0.031,-1.952 0,-1.329 0.623,-1.36 1.244,-1.433 1.86,-1.55 1.786,-0.962 1.786,-0.367 1.86,0.221 1.244,0.104 0.623,0.031 0,0" id="path38" style="fill:#e8112d;fill-opacity:1;fill-rule:nonzero;stroke:none"/></g><g id="g40" transform="translate(36,9)"><path d="m 0,0 0,6.5 -15.5,0 0,-10.5 11.5,0 c 2.209,0 4,1.791 4,4" id="path42" style="fill:#eeeeee;fill-opacity:1;fill-rule:nonzero;stroke:none"/></g><g id="g44" transform="translate(28.9146,9.5855)"><path d="m 0,0 c 0.031,-0.623 0.104,-1.244 0.221,-1.86 -0.588,0.074 -1.183,0.074 -1.771,0 0.117,0.616 0.19,1.237 0.221,1.86 -0.623,-0.031 -1.245,-0.104 -1.86,-0.221 0.074,0.588 0.074,1.183 0,1.771 0.615,-0.117 1.237,-0.19 1.86,-0.221 -0.031,0.623 -0.104,1.244 -0.221,1.86 0.588,-0.074 1.183,-0.074 1.771,0 C 0.104,2.573 0.031,1.952 0,1.329 0.623,1.36 1.244,1.433 1.86,1.55 1.786,0.962 1.786,0.367 1.86,-0.221 1.244,-0.104 0.623,-0.031 0,0" id="path46" style="fill:#e8112d;fill-opacity:1;fill-rule:nonzero;stroke:none"/></g><g id="g48" transform="translate(15.5,15.5)"><path d="m 0,0 -15.5,0 0,-6.5 c 0,-2.209 1.791,-4 4,-4 L 0,-10.5 0,0 Z" id="path50" style="fill:#eeeeee;fill-opacity:1;fill-rule:nonzero;stroke:none"/></g><g id="g52" transform="translate(8.4146,9.5855)"><path d="m 0,0 c 0.031,-0.623 0.104,-1.244 0.221,-1.86 -0.588,0.074 -1.183,0.074 -1.771,0 0.117,0.616 0.19,1.237 0.221,1.86 -0.623,-0.031 -1.245,-0.104 -1.86,-0.221 0.074,0.588 0.074,1.183 0,1.771 0.615,-0.117 1.237,-0.19 1.86,-0.221 -0.031,0.623 -0.104,1.244 -0.221,1.86 0.588,-0.074 1.183,-0.074 1.771,0 C 0.104,2.573 0.031,1.952 0,1.329 0.623,1.36 1.244,1.433 1.86,1.55 1.786,0.962 1.786,0.367 1.86,-0.221 1.244,-0.104 0.623,-0.031 0,0" id="path54" style="fill:#e8112d;fill-opacity:1;fill-rule:nonzero;stroke:none"/></g></g></g></g></svg>