<?xml version="1.0" encoding="UTF-8" standalone="no"?><svg xmlns="http://www.w3.org/2000/svg" xmlns:cc="http://creativecommons.org/ns#" xmlns:dc="http://purl.org/dc/elements/1.1/" xmlns:rdf="http://www.w3.org/1999/02/22-rdf-syntax-ns#" xmlns:svg="http://www.w3.org/2000/svg" height="45" id="svg2" style="enable-background:new 0 0 45 45;" version="1.1" viewBox="0 0 45 45" width="45" xml:space="preserve"><metadata id="metadata8"><rdf:RDF><cc:Work rdf:about=""><dc:format>image/svg+xml</dc:format><dc:type rdf:resource="http://purl.org/dc/dcmitype/StillImage"/></cc:Work></rdf:RDF></metadata><defs id="defs6"/><g id="g10" transform="matrix(1.25,0,0,-1.25,0,45)"><path d="m 30,5 -4,0 0,-4 4,0 0,4 z" id="path12" style="fill:#553986;fill-opacity:1;fill-rule:nonzero;stroke:none"/><path d="M 6,1 10,1 10,5 6,5 6,1 Z" id="path14" style="fill:#553986;fill-opacity:1;fill-rule:nonzero;stroke:none"/><path d="m 20,23 4,0 0,-8 -4,0 0,8 z m -4,-8 -4,0 0,8 4,0 0,-8 z m 14,11 -2,0 0,2 -2,0 0,2 -3,0 0,4 -2,0 0,-4 -6,0 0,4 -2,0 0,-4 -3,0 0,-2 -2,0 0,-2 -2,0 0,-7 -4,0 0,-2 4,0 0,-7 4,0 0,-5 5,0 0,5 6,0 0,-5 5,0 0,5 4,0 0,7 4,0 0,2 -4,0 0,7 z" id="path16" style="fill:#553986;fill-opacity:1;fill-rule:nonzero;stroke:none"/><path d="m 34,19 2,0 0,11 -2,0 0,-11 z" id="path18" style="fill:#553986;fill-opacity:1;fill-rule:nonzero;stroke:none"/><path d="M 0,19 2,19 2,30 0,30 0,19 Z" id="path20" style="fill:#553986;fill-opacity:1;fill-rule:nonzero;stroke:none"/></g></svg>