<?xml version="1.0" encoding="UTF-8" standalone="no"?><svg xmlns="http://www.w3.org/2000/svg" xmlns:cc="http://creativecommons.org/ns#" xmlns:dc="http://purl.org/dc/elements/1.1/" xmlns:rdf="http://www.w3.org/1999/02/22-rdf-syntax-ns#" xmlns:svg="http://www.w3.org/2000/svg" height="45" id="svg2" style="enable-background:new 0 0 45 45;" version="1.1" viewBox="0 0 45 45" width="45" xml:space="preserve"><metadata id="metadata8"><rdf:RDF><cc:Work rdf:about=""><dc:format>image/svg+xml</dc:format><dc:type rdf:resource="http://purl.org/dc/dcmitype/StillImage"/></cc:Work></rdf:RDF></metadata><defs id="defs6"><clipPath clipPathUnits="userSpaceOnUse" id="clipPath16"><path d="M 0,36 36,36 36,0 0,0 0,36 Z" id="path18"/></clipPath></defs><g id="g10" transform="matrix(1.25,0,0,-1.25,0,45)"><g id="g12"><g clip-path="url(#clipPath16)" id="g14"><g id="g20" transform="translate(32,31)"><path d="m 0,0 -17,0 0,-13 21,0 0,9 C 4,-1.791 2.209,0 0,0" id="path22" style="fill:#fcd116;fill-opacity:1;fill-rule:nonzero;stroke:none"/></g><g id="g24" transform="translate(15,5)"><path d="m 0,0 17,0 c 2.209,0 4,1.791 4,4 L 21,13 0,13 0,0 Z" id="path26" style="fill:#009e49;fill-opacity:1;fill-rule:nonzero;stroke:none"/></g><g id="g28" transform="translate(10,14)"><path d="M 0,0 -2.547,1.851 -5.094,0 l 0.973,2.994 -2.547,1.851 3.148,0 0.973,2.994 0.973,-2.994 3.148,0 L -0.973,2.994 0,0 Z m 5,17 -11,0 c -2.209,0 -4,-1.791 -4,-4 l 0,-9 0,-9 c 0,-2.209 1.791,-4 4,-4 L 5,-9 5,4 5,17 Z" id="path30" style="fill:#ce1126;fill-opacity:1;fill-rule:nonzero;stroke:none"/></g><g id="g32" transform="translate(8.4258,18.8448)"><path d="M 0,0 -0.973,2.994 -1.946,0 -5.094,0 -2.547,-1.851 -3.52,-4.845 -0.973,-2.994 1.574,-4.845 0.601,-1.851 3.148,0 0,0 Z" id="path34" style="fill:#000000;fill-opacity:1;fill-rule:nonzero;stroke:none"/></g></g></g></g></svg>