<?xml version="1.0" encoding="UTF-8" standalone="no"?><svg xmlns="http://www.w3.org/2000/svg" xmlns:cc="http://creativecommons.org/ns#" xmlns:dc="http://purl.org/dc/elements/1.1/" xmlns:rdf="http://www.w3.org/1999/02/22-rdf-syntax-ns#" xmlns:svg="http://www.w3.org/2000/svg" height="45" id="svg2" style="enable-background:new 0 0 45 45;" version="1.1" viewBox="0 0 45 45" width="45" xml:space="preserve"><metadata id="metadata8"><rdf:RDF><cc:Work rdf:about=""><dc:format>image/svg+xml</dc:format><dc:type rdf:resource="http://purl.org/dc/dcmitype/StillImage"/></cc:Work></rdf:RDF></metadata><defs id="defs6"><clipPath clipPathUnits="userSpaceOnUse" id="clipPath16"><path d="M 0,36 36,36 36,0 0,0 0,36 Z" id="path18"/></clipPath></defs><g id="g10" transform="matrix(1.25,0,0,-1.25,0,45)"><g id="g12"><g clip-path="url(#clipPath16)" id="g14"><g id="g20" transform="translate(12,33)"><path d="M 0,0 12,0 C 12,0 11,-3 6,-3 1,-3 0,0 0,0" id="path22" style="fill:#553788;fill-opacity:1;fill-rule:nonzero;stroke:none"/></g><g id="g24" transform="translate(30.5586,19.1768)"><path d="m 0,0 4.441,5.823 c -4,2 -11,8 -11,8 0,0 -2,-4 -6,-4 -4,0 -6,4 -6,4 0,0 -7,-6 -11,-8 l 4.44,-5.824 4.56,1.824 c 0,0 0.25,-16 -3,-19 0,0 5,-1 11,-1 6,0 11,1 11,1 -3.25,3 -3,19 -3,19 L 0,0 Z" id="path26" style="fill:#aa8dd8;fill-opacity:1;fill-rule:nonzero;stroke:none"/></g><g id="g28" transform="translate(6.0005,19)"><path d="m 0,0 c -0.293,0 -0.584,0.128 -0.781,0.376 l -4,5 c -0.345,0.431 -0.276,1.06 0.156,1.405 0.43,0.345 1.061,0.275 1.405,-0.157 l 4,-5 C 1.125,1.193 1.056,0.564 0.624,0.219 0.44,0.072 0.219,0 0,0" id="path30" style="fill:#9266cc;fill-opacity:1;fill-rule:nonzero;stroke:none"/></g><g id="g32" transform="translate(29.999,19)"><path d="M 0,0 C -0.219,0 -0.439,0.072 -0.624,0.219 -1.055,0.564 -1.125,1.193 -0.78,1.624 l 4,5 C 3.566,7.056 4.193,7.126 4.626,6.781 5.057,6.436 5.127,5.807 4.782,5.376 l -4,-5 C 0.584,0.128 0.294,0 0,0" id="path34" style="fill:#9266cc;fill-opacity:1;fill-rule:nonzero;stroke:none"/></g><g id="g36" transform="translate(24,33)"><path d="m 0,0 c 0,0 -3,-3 -6,-3 -3,0 -6,3 -6,3 l 2,-7 3,2.25 0,-26.25 c 0,-0.553 0.448,-1 1,-1 0.552,0 1,0.447 1,1 L -5,-4.75 -2,-7 0,0 Z" id="path38" style="fill:#9266cc;fill-opacity:1;fill-rule:nonzero;stroke:none"/></g></g></g></g></svg>