<?xml version="1.0" encoding="UTF-8" standalone="no"?><svg xmlns="http://www.w3.org/2000/svg" xmlns:cc="http://creativecommons.org/ns#" xmlns:dc="http://purl.org/dc/elements/1.1/" xmlns:rdf="http://www.w3.org/1999/02/22-rdf-syntax-ns#" xmlns:svg="http://www.w3.org/2000/svg" height="45" id="svg2" style="enable-background:new 0 0 45 45;" version="1.1" viewBox="0 0 45 45" width="45" xml:space="preserve"><metadata id="metadata8"><rdf:RDF><cc:Work rdf:about=""><dc:format>image/svg+xml</dc:format><dc:type rdf:resource="http://purl.org/dc/dcmitype/StillImage"/></cc:Work></rdf:RDF></metadata><defs id="defs6"><clipPath clipPathUnits="userSpaceOnUse" id="clipPath16"><path d="M 0,36 36,36 36,0 0,0 0,36 Z" id="path18"/></clipPath></defs><g id="g10" transform="matrix(1.25,0,0,-1.25,0,45)"><g id="g12"><g clip-path="url(#clipPath16)" id="g14"><g id="g20" transform="translate(17.2559,4.4814)"><path d="m 0,0 c -4.754,-4.754 -11.207,-5.573 -14.683,-2.097 -3.475,3.475 -2.516,10.067 2.099,14.682 3.355,3.356 6.711,3.356 9.228,5.873 2.517,2.517 1.678,5.034 5.454,8.809 4.614,4.613 10.486,5.453 14.261,1.678 3.775,-3.776 2.832,-9.754 -1.677,-14.263 C 10.906,10.907 8.39,11.746 5.873,9.23 3.355,6.712 3.355,3.357 0,0" id="path22" style="fill:#d99e82;fill-opacity:1;fill-rule:nonzero;stroke:none"/></g><g id="g24" transform="translate(8.2104,15.6025)"><path d="m 0,0 c 0.611,0.404 1.3,0.776 2.082,1.106 3.792,1.458 7.291,4.25 8.333,7.667" id="path26" style="fill:none;stroke:#c1694f;stroke-width:2;stroke-linecap:round;stroke-linejoin:miter;stroke-miterlimit:10;stroke-dasharray:none;stroke-opacity:1"/></g><g id="g28" transform="translate(3.167,6.666)"><path d="M 0,0 C 0.042,1.917 0.292,4.417 2.287,6.295" id="path30" style="fill:none;stroke:#c1694f;stroke-width:2;stroke-linecap:round;stroke-linejoin:miter;stroke-miterlimit:10;stroke-dasharray:none;stroke-opacity:1"/></g><g id="g32" transform="translate(7.292,7.375)"><path d="M 0,0 C 0.417,1.625 1.375,4.666 5.25,6.083" id="path34" style="fill:none;stroke:#c1694f;stroke-width:2;stroke-linecap:round;stroke-linejoin:miter;stroke-miterlimit:10;stroke-dasharray:none;stroke-opacity:1"/></g><g id="g36" transform="translate(24.959,18.4165)"><path d="M 0,0 C 4.25,1.5 7.333,4.458 8.5,9.708" id="path38" style="fill:none;stroke:#c1694f;stroke-width:2;stroke-linecap:round;stroke-linejoin:miter;stroke-miterlimit:10;stroke-dasharray:none;stroke-opacity:1"/></g><g id="g40" transform="translate(29.125,26.583)"><path d="M 0,0 C -0.833,-1.875 -2.666,-3.666 -4.666,-4.458" id="path42" style="fill:none;stroke:#c1694f;stroke-width:2;stroke-linecap:round;stroke-linejoin:miter;stroke-miterlimit:10;stroke-dasharray:none;stroke-opacity:1"/></g><g id="g44" transform="translate(15.75,14.916)"><path d="M 0,0 C 1.125,0.459 2.333,1.542 2.75,2.251" id="path46" style="fill:none;stroke:#c1694f;stroke-width:2;stroke-linecap:round;stroke-linejoin:miter;stroke-miterlimit:10;stroke-dasharray:none;stroke-opacity:1"/></g><g id="g48" transform="translate(19.75,27.583)"><path d="M 0,0 C 0.333,0.958 1.042,1.875 1.709,2.292" id="path50" style="fill:none;stroke:#c1694f;stroke-width:2;stroke-linecap:round;stroke-linejoin:miter;stroke-miterlimit:10;stroke-dasharray:none;stroke-opacity:1"/></g><g id="g52" transform="translate(6.542,4.416)"><path d="M 0,0 C -0.083,-0.375 -0.125,-1.041 -0.083,-1.333" id="path54" style="fill:none;stroke:#c1694f;stroke-width:2;stroke-linecap:round;stroke-linejoin:miter;stroke-miterlimit:10;stroke-dasharray:none;stroke-opacity:1"/></g></g></g></g></svg>