<?xml version="1.0" encoding="UTF-8" standalone="no"?><svg xmlns="http://www.w3.org/2000/svg" xmlns:cc="http://creativecommons.org/ns#" xmlns:dc="http://purl.org/dc/elements/1.1/" xmlns:rdf="http://www.w3.org/1999/02/22-rdf-syntax-ns#" xmlns:svg="http://www.w3.org/2000/svg" height="45" id="svg2" style="enable-background:new 0 0 45 45;" version="1.1" viewBox="0 0 45 45" width="45" xml:space="preserve"><metadata id="metadata8"><rdf:RDF><cc:Work rdf:about=""><dc:format>image/svg+xml</dc:format><dc:type rdf:resource="http://purl.org/dc/dcmitype/StillImage"/></cc:Work></rdf:RDF></metadata><defs id="defs6"><clipPath clipPathUnits="userSpaceOnUse" id="clipPath16"><path d="M 0,36 36,36 36,0 0,0 0,36 Z" id="path18"/></clipPath></defs><g id="g10" transform="matrix(1.25,0,0,-1.25,0,45)"><g id="g12"><g clip-path="url(#clipPath16)" id="g14"><g id="g20" transform="translate(36,4)"><path d="m 0,0 c 0,-2.209 -1.791,-4 -4,-4 l -28,0 c -2.209,0 -4,1.791 -4,4 l 0,28 c 0,2.209 1.791,4 4,4 l 28,0 c 2.209,0 4,-1.791 4,-4 L 0,0 Z" id="path22" style="fill:#9266cc;fill-opacity:1;fill-rule:nonzero;stroke:none"/></g><g id="g24" transform="translate(32.6639,17.2955)"><path d="M 0,0 -3.959,1.595 -3.664,5.854 -6.406,2.582 -10.365,4.177 -8.1,0.56 -10.841,-2.712 -6.7,-1.678 -4.436,-5.295 -4.141,-1.037 0,0 Z" id="path26" style="fill:#ffffff;fill-opacity:1;fill-rule:nonzero;stroke:none"/></g><g id="g28" transform="translate(32.6639,17.2955)"><path d="M 0,0 -3.959,1.595 -3.664,5.854 -6.406,2.582 -10.365,4.177 -8.1,0.56 -10.841,-2.712 -6.7,-1.678 -4.436,-5.295 -4.141,-1.037 0,0 Z" id="path30" style="fill:none;stroke:#ffffff;stroke-width:1;stroke-linecap:round;stroke-linejoin:round;stroke-miterlimit:10;stroke-dasharray:none;stroke-opacity:1"/></g><g id="g32" transform="translate(27.0928,7.7908)"><path d="m 0,0 c -1.316,-0.527 -2.693,-0.799 -4.093,-0.799 -6.065,0 -11,4.926 -11,10.992 0,6.065 4.935,10.983 11,10.983 1.402,0 2.779,-0.301 4.092,-0.828 0.122,-0.05 0.385,-0.136 0.393,-0.139 0.64,-0.281 1.859,1.031 0.47,2.015 -2.615,1.953 -5.708,2.985 -8.955,2.985 -8.271,0 -15,-6.729 -15,-15 0,-8.271 6.729,-15 15,-15 3.295,0 6.432,1.062 9.071,3.07 0.398,0.304 0.51,0.854 0.264,1.289 C 0.994,0.003 0.46,0.186 0,0" id="path34" style="fill:#ffffff;fill-opacity:1;fill-rule:nonzero;stroke:none"/></g></g></g></g></svg>