<?xml version="1.0" encoding="UTF-8" standalone="no"?><svg xmlns="http://www.w3.org/2000/svg" xmlns:cc="http://creativecommons.org/ns#" xmlns:dc="http://purl.org/dc/elements/1.1/" xmlns:rdf="http://www.w3.org/1999/02/22-rdf-syntax-ns#" xmlns:svg="http://www.w3.org/2000/svg" height="45" id="svg2" style="enable-background:new 0 0 45 45;" version="1.1" viewBox="0 0 45 45" width="45" xml:space="preserve"><metadata id="metadata8"><rdf:RDF><cc:Work rdf:about=""><dc:format>image/svg+xml</dc:format><dc:type rdf:resource="http://purl.org/dc/dcmitype/StillImage"/></cc:Work></rdf:RDF></metadata><defs id="defs6"><clipPath clipPathUnits="userSpaceOnUse" id="clipPath16"><path d="M 0,36 36,36 36,0 0,0 0,36 Z" id="path18"/></clipPath><clipPath clipPathUnits="userSpaceOnUse" id="clipPath60"><path d="m 25.2188,19.3437 2.4687,0 0,-8.0983 -2.4687,0 0,8.0983 z" id="path62"/></clipPath></defs><g id="g10" transform="matrix(1.25,0,0,-1.25,0,45)"><g id="g12"><g clip-path="url(#clipPath16)" id="g14"><g id="g20" transform="translate(36,13)"><path d="m 0,0 c 0,-5.523 -8.059,-10 -18,-10 -9.941,0 -18,4.477 -18,10 0,5.523 8.059,10 18,10 C -8.059,10 0,5.523 0,0" id="path22" style="fill:#939598;fill-opacity:1;fill-rule:nonzero;stroke:none"/></g><g id="g24" transform="translate(36,15)"><path d="m 0,0 c 0,-5.523 -8.059,-10 -18,-10 -9.941,0 -18,4.477 -18,10 0,5.523 8.059,10 18,10 C -8.059,10 0,5.523 0,0" id="path26" style="fill:#f1f2f2;fill-opacity:1;fill-rule:nonzero;stroke:none"/></g><g id="g28" transform="translate(31,16)"><path d="m 0,0 c 0,-3.988 -5.82,-7.223 -13,-7.223 -7.18,0 -13,3.235 -13,7.223 0,3.988 5.82,7.222 13,7.222 C -5.82,7.222 0,3.988 0,0" id="path30" style="fill:#f4900c;fill-opacity:1;fill-rule:nonzero;stroke:none"/></g><g id="g32" transform="translate(31,18)"><path d="m 0,0 c 0,-3.988 -5.82,-7.223 -13,-7.223 -7.18,0 -13,3.235 -13,7.223 0,3.988 5.82,7.222 13,7.222 C -5.82,7.222 0,3.988 0,0" id="path34" style="fill:#ffac33;fill-opacity:1;fill-rule:nonzero;stroke:none"/></g><g id="g36" transform="translate(31,20)"><path d="m 0,0 c 0,-3.988 -5.82,-7.223 -13,-7.223 -7.18,0 -13,3.235 -13,7.223 0,3.988 5.82,7.222 13,7.222 C -5.82,7.222 0,3.988 0,0" id="path38" style="fill:#f4900c;fill-opacity:1;fill-rule:nonzero;stroke:none"/></g><g id="g40" transform="translate(31,22)"><path d="m 0,0 c 0,-3.988 -5.82,-7.223 -13,-7.223 -7.18,0 -13,3.235 -13,7.223 0,3.988 5.82,7.222 13,7.222 C -5.82,7.222 0,3.988 0,0" id="path42" style="fill:#ffac33;fill-opacity:1;fill-rule:nonzero;stroke:none"/></g><g id="g44" transform="translate(31,24)"><path d="m 0,0 c 0,-3.988 -5.82,-7.223 -13,-7.223 -7.18,0 -13,3.235 -13,7.223 0,3.988 5.82,7.222 13,7.222 C -5.82,7.222 0,3.988 0,0" id="path46" style="fill:#f4900c;fill-opacity:1;fill-rule:nonzero;stroke:none"/></g><g id="g48" transform="translate(16.625,25.2344)"><path d="m 0,0 c 0,-0.009 -0.007,-0.016 -0.016,-0.016 l -0.031,0 c -0.009,0 -0.015,0.007 -0.015,0.016 0,0.009 0.006,0.016 0.015,0.016 l 0.031,0 C -0.007,0.016 0,0.009 0,0" id="path50" style="fill:#ffd983;fill-opacity:1;fill-rule:nonzero;stroke:none"/></g><g id="g52" transform="translate(15.5313,29.0313)"><path d="m 0,0 c -3.688,1.125 -5.242,0.558 -5,-2.344 0.063,-0.75 -0.969,-2 -2,-2.719 -2.398,-1.671 -1.368,-4.465 2.75,-2.406 2.062,1.031 5.07,0.961 8.719,-0.156 3.062,-0.938 4.958,-2.073 5.208,-3.448 1.215,0.398 1.886,0.771 2.479,1.271 -0.252,0.57 -1.375,2.208 -3.156,2.989 -3.369,1.478 -0.115,3.607 2.406,4.125 2.282,0.469 0.032,2.188 -3.437,2.126 C 4.5,-0.625 5.372,-1.639 0,0" id="path54" style="fill:#d3790d;fill-opacity:1;fill-rule:nonzero;stroke:none"/></g><g id="g56"><g id="g58"/><g id="g64"><g clip-path="url(#clipPath60)" id="g66" style="opacity:0.5"><g id="g68" transform="translate(25.2188,18)"><path d="m 0,0 c 0,-2.844 0.062,-4.568 0.062,-5.562 0,-1.938 2.376,-1.594 2.376,1.624 0,3.219 0.031,5.282 0.031,5.282 L 0,0 Z" id="path70" style="fill:#d3790d;fill-opacity:1;fill-rule:nonzero;stroke:none"/></g></g></g></g><g id="g72" transform="translate(21.5352,27.4028)"><path d="m 0,0 c 0.391,-0.223 0.392,-1.583 0,-1.806 l -2.828,-1.612 c -0.391,-0.223 -1.024,-0.223 -1.414,0 l -2.829,1.612 c -0.391,0.223 -0.391,1.583 0,1.806 l 2.829,0.612 c 0.39,0.223 1.023,0.223 1.414,0 L 0,0 Z" id="path74" style="fill:#ffac33;fill-opacity:1;fill-rule:nonzero;stroke:none"/></g><g id="g76" transform="translate(21.5352,27.4028)"><path d="m 0,0 c 0.391,-0.223 0.392,-0.583 0,-0.806 l -2.828,-1.612 c -0.391,-0.223 -1.024,-0.223 -1.414,0 l -2.829,1.612 c -0.391,0.223 -0.391,0.583 0,0.806 l 2.829,1.612 c 0.39,0.223 1.023,0.223 1.414,0 L 0,0 Z" id="path78" style="fill:#ffd983;fill-opacity:1;fill-rule:nonzero;stroke:none"/></g></g></g></g></svg>