<?xml version="1.0" encoding="UTF-8" standalone="no"?><svg xmlns="http://www.w3.org/2000/svg" xmlns:cc="http://creativecommons.org/ns#" xmlns:dc="http://purl.org/dc/elements/1.1/" xmlns:rdf="http://www.w3.org/1999/02/22-rdf-syntax-ns#" xmlns:svg="http://www.w3.org/2000/svg" height="45" id="svg2" style="enable-background:new 0 0 45 45;" version="1.1" viewBox="0 0 45 45" width="45" xml:space="preserve"><metadata id="metadata8"><rdf:RDF><cc:Work rdf:about=""><dc:format>image/svg+xml</dc:format><dc:type rdf:resource="http://purl.org/dc/dcmitype/StillImage"/></cc:Work></rdf:RDF></metadata><defs id="defs6"><clipPath clipPathUnits="userSpaceOnUse" id="clipPath16"><path d="M 0,36 36,36 36,0 0,0 0,36 Z" id="path18"/></clipPath></defs><g id="g10" transform="matrix(1.25,0,0,-1.25,0,45)"><g id="g12"><g clip-path="url(#clipPath16)" id="g14"><g id="g20" transform="translate(1.0625,30.875)"><path d="m 0,0 c 0,0 4.875,5 10,5 6.125,0 7.937,-4.938 7.937,-4.938 0,0 0.625,4 5,4 4.375,0 6.938,-3.125 6.938,-3.125 0,0 -3.563,-2.124 -4.625,-2.562 C 22.449,-2.778 13.875,-5.187 9.875,-4.187 5.875,-3.188 0,0 0,0" id="path22" style="fill:#5c913b;fill-opacity:1;fill-rule:nonzero;stroke:none"/></g><g id="g24" transform="translate(18,30)"><path d="m 0,0 c 0,0 1.042,0.896 6,0.896 6.542,0 12,-4.813 12,-12.927 0,-11.531 -14.958,-17.881 -14.958,-17.881 0,0 -20.042,1.079 -20.042,17.935 C -17,-2.018 -10.25,1 -6,1 -1.042,1 0,0 0,0" id="path26" style="fill:#ff886c;fill-opacity:1;fill-rule:nonzero;stroke:none"/></g><g id="g28" transform="translate(1.0625,30.875)"><path d="m 0,0 c 0,0 4.875,5 10,5 6.125,0 7.937,-4.938 7.937,-4.938 0,0 -4.062,-5.249 -8.062,-4.249 C 5.875,-3.188 0,0 0,0" id="path30" style="fill:#77b255;fill-opacity:1;fill-rule:nonzero;stroke:none"/></g><g id="g32" transform="translate(22.999,6)"><path d="m 0,0 c -0.19,0 -0.383,0.055 -0.554,0.168 -0.46,0.307 -0.584,0.927 -0.277,1.387 0.015,0.022 1.832,2.907 1.832,9.445 0,6.445 -4.578,10.182 -4.625,10.219 -0.431,0.345 -0.501,0.974 -0.156,1.406 0.345,0.43 0.974,0.5 1.406,0.156 C -2.155,22.605 3.001,18.396 3.001,11 3.001,3.78 0.922,0.578 0.833,0.445 0.641,0.156 0.323,0 0,0" id="path34" style="fill:#dd2e44;fill-opacity:1;fill-rule:nonzero;stroke:none"/></g></g></g></g></svg>