<?xml version="1.0" encoding="UTF-8" standalone="no"?><svg xmlns="http://www.w3.org/2000/svg" xmlns:cc="http://creativecommons.org/ns#" xmlns:dc="http://purl.org/dc/elements/1.1/" xmlns:rdf="http://www.w3.org/1999/02/22-rdf-syntax-ns#" xmlns:svg="http://www.w3.org/2000/svg" height="45" id="svg2" style="enable-background:new 0 0 45 45;" version="1.1" viewBox="0 0 45 45" width="45" xml:space="preserve"><metadata id="metadata8"><rdf:RDF><cc:Work rdf:about=""><dc:format>image/svg+xml</dc:format><dc:type rdf:resource="http://purl.org/dc/dcmitype/StillImage"/></cc:Work></rdf:RDF></metadata><defs id="defs6"><clipPath clipPathUnits="userSpaceOnUse" id="clipPath16"><path d="M 0,36 36,36 36,0 0,0 0,36 Z" id="path18"/></clipPath><clipPath clipPathUnits="userSpaceOnUse" id="clipPath28"><path d="M 4,31 C 1.791,31 0,29.209 0,27 L 0,27 0,9 C 0,6.791 1.791,5 4,5 l 0,0 28,0 c 2.209,0 4,1.791 4,4 l 0,0 0,18 c 0,2.209 -1.791,4 -4,4 l 0,0 -28,0 z" id="path30"/></clipPath><clipPath clipPathUnits="userSpaceOnUse" id="clipPath44"><path d="M 4.5,30 C 2.567,30 1,28.433 1,26.5 l 0,0 0,-17 C 1,7.567 2.567,6 4.5,6 l 0,0 25,0 C 31.432,6 33,7.567 33,9.5 l 0,0 0,17 c 0,1.933 -1.568,3.5 -3.5,3.5 l 0,0 -25,0 z" id="path46"/></clipPath><clipPath clipPathUnits="userSpaceOnUse" id="clipPath60"><path d="M 0,36 36,36 36,0 0,0 0,36 Z" id="path62"/></clipPath></defs><g id="g10" transform="matrix(1.25,0,0,-1.25,0,45)"><g id="g12"><g clip-path="url(#clipPath16)" id="g14"><g id="g20" transform="translate(36,9)"><path d="m 0,0 c 0,-2.209 -1.791,-4 -4,-4 l -28,0 c -2.209,0 -4,1.791 -4,4 l 0,18 c 0,2.209 1.791,4 4,4 l 28,0 c 2.209,0 4,-1.791 4,-4 L 0,0 Z" id="path22" style="fill:#eeeeee;fill-opacity:1;fill-rule:nonzero;stroke:none"/></g></g></g><g id="g24"><g clip-path="url(#clipPath28)" id="g26"><g id="g32" transform="translate(0,25)"><path d="M 0,0 0,-20 19,-20 0,0 Z" id="path34" style="fill:#003893;fill-opacity:1;fill-rule:nonzero;stroke:none"/></g><g id="g36" transform="translate(0,31)"><path d="M 0,0 0,-14 19,-14 0,0 Z" id="path38" style="fill:#003893;fill-opacity:1;fill-rule:nonzero;stroke:none"/></g></g></g><g id="g40"><g clip-path="url(#clipPath44)" id="g42"><g id="g48" transform="translate(1,22.8037)"><path d="m 0,0 0,-16.804 15.204,0 L 0,0 Z" id="path50" style="fill:#dd2e44;fill-opacity:1;fill-rule:nonzero;stroke:none"/></g><g id="g52" transform="translate(1,28.8037)"><path d="m 0,0 0,-10.804 15.204,0 L 0,0 Z" id="path54" style="fill:#dd2e44;fill-opacity:1;fill-rule:nonzero;stroke:none"/></g></g></g><g id="g56"><g clip-path="url(#clipPath60)" id="g58"><g id="g64" transform="translate(6.291,11.959)"><path d="m 0,0 0.586,0.816 -1,-0.098 0.1,1 -0.817,-0.586 -0.414,0.916 -0.414,-0.916 -0.817,0.586 0.099,-1 -1,0.098 0.586,-0.816 -0.916,-0.414 0.916,-0.414 -0.586,-0.817 1,0.099 -0.099,-1 0.817,0.586 0.414,-0.916 0.414,0.916 0.817,-0.586 -0.1,1 1,-0.099 L 0,-0.828 0.916,-0.414 0,0 Z" id="path66" style="fill:#ffffff;fill-opacity:1;fill-rule:nonzero;stroke:none"/></g><g id="g68" transform="translate(4.7448,19.1063)"><path d="M 0,0 0.001,-0.002 0.002,0 c 0.006,0 0.011,-0.002 0.017,-0.002 1.469,0 2.66,1.131 2.785,2.567 C 2.455,1.917 1.892,1.405 1.209,1.123 L 1.034,1.367 1.645,1.644 1.034,1.92 1.425,2.465 0.757,2.4 0.824,3.068 0.277,2.677 0.001,3.289 -0.276,2.677 -0.822,3.068 -0.755,2.4 -1.423,2.465 -1.032,1.92 -1.644,1.644 -1.032,1.367 -1.2,1.134 C -1.87,1.418 -2.422,1.926 -2.765,2.565 -2.641,1.136 -1.46,0.01 0,0" id="path70" style="fill:#ffffff;fill-opacity:1;fill-rule:nonzero;stroke:none"/></g></g></g></g></svg>