<?xml version="1.0" encoding="UTF-8" standalone="no"?><svg xmlns="http://www.w3.org/2000/svg" xmlns:cc="http://creativecommons.org/ns#" xmlns:dc="http://purl.org/dc/elements/1.1/" xmlns:rdf="http://www.w3.org/1999/02/22-rdf-syntax-ns#" xmlns:svg="http://www.w3.org/2000/svg" height="45" id="svg2" style="enable-background:new 0 0 45 45;" version="1.1" viewBox="0 0 45 45" width="45" xml:space="preserve"><metadata id="metadata8"><rdf:RDF><cc:Work rdf:about=""><dc:format>image/svg+xml</dc:format><dc:type rdf:resource="http://purl.org/dc/dcmitype/StillImage"/></cc:Work></rdf:RDF></metadata><defs id="defs6"><clipPath clipPathUnits="userSpaceOnUse" id="clipPath16"><path d="M 0,36 36,36 36,0 0,0 0,36 Z" id="path18"/></clipPath></defs><g id="g10" transform="matrix(1.25,0,0,-1.25,0,45)"><g id="g12"><g clip-path="url(#clipPath16)" id="g14"><g id="g20" transform="translate(33,19)"><path d="m 0,0 c 0,-9.389 -2.188,-19 -15,-19 -12.812,0 -15,9.611 -15,19 0,9.389 5.611,14 15,14 C -5.535,14 0,9.299 0,0" id="path22" style="fill:#66757f;fill-opacity:1;fill-rule:nonzero;stroke:none"/></g><g id="g24" transform="translate(32,22.0313)"><path d="m 0,0 c 0,-7.922 -1.937,-16.031 -14,-16.031 -12.062,0 -14,8.109 -14,16.031 0,7.921 5.237,10.969 14,10.969 C -5.237,10.969 0,7.921 0,0" id="path26" style="fill:#99aab5;fill-opacity:1;fill-rule:nonzero;stroke:none"/></g><g id="g28" transform="translate(29,23.5)"><path d="m 0,0 c 0,-5.246 -4.925,-8.5 -11,-8.5 -6.075,0 -11,3.254 -11,8.5 0,5.247 4.925,9.5 11,9.5 C -4.925,9.5 0,5.247 0,0" id="path30" style="fill:#ccd6dd;fill-opacity:1;fill-rule:nonzero;stroke:none"/></g><g id="g32" transform="translate(28,26)"><path d="m 0,0 c 0,-5.523 -4.477,-8 -10,-8 -5.523,0 -10,2.477 -10,8 0,5.523 4.477,10 10,10 C -4.477,10 0,5.523 0,0" id="path34" style="fill:#744eaa;fill-opacity:1;fill-rule:nonzero;stroke:none"/></g><g id="g36" transform="translate(17,13)"><path d="m 0,0 0,-4.75 c 0,-1 -9.672,1 -9.672,6 0,1.375 0.301,1.973 2.316,0.984 C -2.866,0.031 0,0.548 0,0" id="path38" style="fill:#292f33;fill-opacity:1;fill-rule:nonzero;stroke:none"/></g><g id="g40" transform="translate(19,13)"><path d="m 0,0 0,-4.75 c 0,-1 9.672,1 9.672,6 0,1.375 -0.301,1.973 -2.316,0.984 C 2.865,0.031 0,0.548 0,0" id="path42" style="fill:#292f33;fill-opacity:1;fill-rule:nonzero;stroke:none"/></g></g></g></g></svg>