<?xml version="1.0" encoding="UTF-8" standalone="no"?><svg xmlns="http://www.w3.org/2000/svg" xmlns:cc="http://creativecommons.org/ns#" xmlns:dc="http://purl.org/dc/elements/1.1/" xmlns:rdf="http://www.w3.org/1999/02/22-rdf-syntax-ns#" xmlns:svg="http://www.w3.org/2000/svg" height="45" id="svg2" style="enable-background:new 0 0 45 45;" version="1.1" viewBox="0 0 45 45" width="45" xml:space="preserve"><metadata id="metadata8"><rdf:RDF><cc:Work rdf:about=""><dc:format>image/svg+xml</dc:format><dc:type rdf:resource="http://purl.org/dc/dcmitype/StillImage"/></cc:Work></rdf:RDF></metadata><defs id="defs6"><clipPath clipPathUnits="userSpaceOnUse" id="clipPath16"><path d="M 0,36 36,36 36,0 0,0 0,36 Z" id="path18"/></clipPath></defs><g id="g10" transform="matrix(1.25,0,0,-1.25,0,45)"><g id="g12"><g clip-path="url(#clipPath16)" id="g14"><g id="g20" transform="translate(36,17.5)"><path d="M 0,0 C 0,1.639 -0.97,3.004 -2.273,3.385 -3.633,10.842 -10.15,16.5 -18,16.5 -25.85,16.5 -32.367,10.842 -33.727,3.385 -35.03,3.004 -36,1.639 -36,0 c 0,-1.736 1.087,-3.168 2.51,-3.442 1.759,-6.926 8.017,-12.058 15.49,-12.058 7.473,0 13.731,5.132 15.49,12.058 C -1.088,-3.168 0,-1.736 0,0" id="path22" style="fill:#f7dece;fill-opacity:1;fill-rule:nonzero;stroke:none"/></g><g id="g24" transform="translate(18,11)"><path d="m 0,0 c -3,0 -4,1 -4,-1 0,-2 2,-4 4,-4 2,0 4,2 4,4 0,2 -1,1 -4,1" id="path26" style="fill:#662113;fill-opacity:1;fill-rule:nonzero;stroke:none"/></g><g id="g28" transform="translate(25,17.5)"><path d="M 0,0 C 0,-1.381 -1.12,-2.5 -2.5,-2.5 -3.88,-2.5 -5,-1.381 -5,0 -5,1.381 -3.88,2.5 -2.5,2.5 -1.12,2.5 0,1.381 0,0" id="path30" style="fill:#662113;fill-opacity:1;fill-rule:nonzero;stroke:none"/></g><g id="g32" transform="translate(16,17.5)"><path d="M 0,0 C 0,-1.381 -1.12,-2.5 -2.5,-2.5 -3.88,-2.5 -5,-1.381 -5,0 -5,1.381 -3.88,2.5 -2.5,2.5 -1.12,2.5 0,1.381 0,0" id="path34" style="fill:#662113;fill-opacity:1;fill-rule:nonzero;stroke:none"/></g><g id="g36" transform="translate(18,10)"><path d="M 0,0 2,0 2,-1 C 2,-1 2,-2 1,-2 0,-2 0,-1 0,-1 L 0,0 Z" id="path38" style="fill:#ffffff;fill-opacity:1;fill-rule:nonzero;stroke:none"/></g><g id="g40" transform="translate(17.9819,25)"><path d="m 0,0 -0.031,0 c -1.188,0 -2.301,0.458 -3.135,1.304 -0.746,0.756 -1.138,1.787 -1.076,2.847 0.032,0.552 0.491,0.961 1.057,0.935 0.551,-0.032 0.972,-0.507 0.939,-1.059 -0.028,-0.495 0.155,-0.983 0.504,-1.337 0.459,-0.465 1.071,-0.724 1.725,-0.729 0.653,0.036 1.27,0.247 1.735,0.706 1.298,1.28 1.313,3.377 0.033,4.676 -1.699,1.721 -4.48,1.74 -6.203,0.042 -0.394,-0.388 -1.027,-0.383 -1.414,0.01 -0.387,0.393 -0.383,1.026 0.01,1.414 2.506,2.472 6.557,2.444 9.03,-0.061 C 5.229,6.664 5.206,3.316 3.123,1.262 2.285,0.435 1.176,0 0,0" id="path42" style="fill:#d89882;fill-opacity:1;fill-rule:nonzero;stroke:none"/></g></g></g></g></svg>