<?xml version="1.0" encoding="UTF-8" standalone="no"?><svg xmlns="http://www.w3.org/2000/svg" xmlns:cc="http://creativecommons.org/ns#" xmlns:dc="http://purl.org/dc/elements/1.1/" xmlns:rdf="http://www.w3.org/1999/02/22-rdf-syntax-ns#" xmlns:svg="http://www.w3.org/2000/svg" height="45" id="svg2" style="enable-background:new 0 0 45 45;" version="1.1" viewBox="0 0 45 45" width="45" xml:space="preserve"><metadata id="metadata8"><rdf:RDF><cc:Work rdf:about=""><dc:format>image/svg+xml</dc:format><dc:type rdf:resource="http://purl.org/dc/dcmitype/StillImage"/></cc:Work></rdf:RDF></metadata><defs id="defs6"><clipPath clipPathUnits="userSpaceOnUse" id="clipPath16"><path d="M 0,36 36,36 36,0 0,0 0,36 Z" id="path18"/></clipPath><clipPath clipPathUnits="userSpaceOnUse" id="clipPath40"><path d="M 6,24 C 3.791,24 2,22.209 2,20 l 0,0 0,-9 C 2,10 3,8 5,8 l 0,0 26,0 c 2,0 3,2 3,3 l 0,0 0,9 c 0,2.209 -1.791,4 -4,4 l 0,0 -24,0 z" id="path42"/></clipPath><clipPath clipPathUnits="userSpaceOnUse" id="clipPath56"><path d="M 0,36 36,36 36,0 0,0 0,36 Z" id="path58"/></clipPath></defs><g id="g10" transform="matrix(1.25,0,0,-1.25,0,45)"><g id="g12"><g clip-path="url(#clipPath16)" id="g14"><g id="g20" transform="translate(30,23)"><path d="m 0,0 c 0,-1.104 -0.827,-2 -1.846,-2 l -20.308,0 C -23.174,-2 -24,-1.104 -24,0 l 0,8 c 0,1.105 0.826,2 1.846,2 l 20.308,0 C -0.827,10 0,9.105 0,8 L 0,0 Z" id="path22" style="fill:#67757f;fill-opacity:1;fill-rule:nonzero;stroke:none"/></g><g id="g24" transform="translate(30,5)"><path d="m 0,0 c 0,-1.104 -0.895,-2 -2,-2 l -20,0 c -1.104,0 -2,0.896 -2,2 l 0,6 c 0,1.105 0.896,2 2,2 L -2,8 C -0.895,8 0,7.105 0,6 L 0,0 Z" id="path26" style="fill:#67757f;fill-opacity:1;fill-rule:nonzero;stroke:none"/></g><g id="g28" transform="translate(27,20)"><path d="m 0,0 c 0,-1.104 -0.895,-2 -2,-2 l -14,0 c -1.104,0 -2,0.896 -2,2 l 0,14 c 0,1.105 0.896,2 2,2 l 14,0 c 1.105,0 2,-0.895 2,-2 L 0,0 Z" id="path30" style="fill:#e1e8ed;fill-opacity:1;fill-rule:nonzero;stroke:none"/></g><g id="g32" transform="translate(34,11)"><path d="m 0,0 c 0,-1 -1,-3 -3,-3 l -26,0 c -2,0 -3,2 -3,3 l 0,9 c 0,2.209 1.791,4 4,4 l 24,0 c 2.209,0 4,-1.791 4,-4 L 0,0 Z" id="path34" style="fill:#5dadec;fill-opacity:1;fill-rule:nonzero;stroke:none"/></g></g></g><g id="g36"><g clip-path="url(#clipPath40)" id="g38"><g id="g44" transform="translate(30,11)"><path d="M 0,0 C 0,1.105 -0.977,2 -2.182,2 L -21.818,2 C -23.023,2 -24,1.105 -24,0 l 0,-4 c 0,-1.104 0.977,-2 2.182,-2 l 19.636,0 C -0.977,-6 0,-5.104 0,-4 l 0,4 z" id="path46" style="fill:#292f33;fill-opacity:1;fill-rule:nonzero;stroke:none"/></g><g id="g48" transform="translate(30,21)"><path d="m 0,0 c 0,-1.104 -0.895,-2 -2,-2 l -20,0 c -1.104,0 -2,0.896 -2,2 l 0,5 c 0,1.105 0.896,2 2,2 L -2,7 C -0.895,7 0,6.105 0,5 L 0,0 Z" id="path50" style="fill:#4289c1;fill-opacity:1;fill-rule:nonzero;stroke:none"/></g></g></g><g id="g52"><g clip-path="url(#clipPath56)" id="g54"><g id="g60" transform="translate(27,2)"><path d="m 0,0 c 0,-1.104 -0.895,-2 -2,-2 l -14,0 c -1.104,0 -2,0.896 -2,2 l 0,7 c 0,1.105 0.896,2 2,2 L -2,9 C -0.895,9 0,8.105 0,7 L 0,0 Z" id="path62" style="fill:#e1e8ed;fill-opacity:1;fill-rule:nonzero;stroke:none"/></g><g id="g64" transform="translate(25,7)"><path d="m 0,0 c 0,-0.553 -0.447,-1 -1,-1 l -12,0 c -0.552,0 -1,0.447 -1,1 0,0.553 0.448,1 1,1 L -1,1 C -0.447,1 0,0.553 0,0" id="path66" style="fill:#9aaab4;fill-opacity:1;fill-rule:nonzero;stroke:none"/></g><g id="g68" transform="translate(32,16.5)"><path d="M 0,0 C 0,-0.828 -0.672,-1.5 -1.5,-1.5 -2.328,-1.5 -3,-0.828 -3,0 -3,0.828 -2.328,1.5 -1.5,1.5 -0.672,1.5 0,0.828 0,0" id="path70" style="fill:#f5f8fa;fill-opacity:1;fill-rule:nonzero;stroke:none"/></g><g id="g72" transform="translate(25,4)"><path d="m 0,0 c 0,-0.553 -0.447,-1 -1,-1 l -12,0 c -0.552,0 -1,0.447 -1,1 0,0.553 0.448,1 1,1 L -1,1 C -0.447,1 0,0.553 0,0" id="path74" style="fill:#9aaab4;fill-opacity:1;fill-rule:nonzero;stroke:none"/></g><path d="M 27,9 9,9 9,11 27,11 27,9 Z" id="path76" style="fill:#9aaab4;fill-opacity:1;fill-rule:nonzero;stroke:none"/></g></g></g></svg>