<?xml version="1.0" encoding="UTF-8" standalone="no"?><svg xmlns="http://www.w3.org/2000/svg" xmlns:cc="http://creativecommons.org/ns#" xmlns:dc="http://purl.org/dc/elements/1.1/" xmlns:rdf="http://www.w3.org/1999/02/22-rdf-syntax-ns#" xmlns:svg="http://www.w3.org/2000/svg" height="45" id="svg2" style="enable-background:new 0 0 45 45;" version="1.1" viewBox="0 0 45 45" width="45" xml:space="preserve"><metadata id="metadata8"><rdf:RDF><cc:Work rdf:about=""><dc:format>image/svg+xml</dc:format><dc:type rdf:resource="http://purl.org/dc/dcmitype/StillImage"/></cc:Work></rdf:RDF></metadata><defs id="defs6"><clipPath clipPathUnits="userSpaceOnUse" id="clipPath16"><path d="M 0,36 36,36 36,0 0,0 0,36 Z" id="path18"/></clipPath></defs><g id="g10" transform="matrix(1.25,0,0,-1.25,0,45)"><g id="g12"><g clip-path="url(#clipPath16)" id="g14"><g id="g20" transform="translate(8,34)"><path d="M 0,0 C -0.042,-5.625 3,-11 7,-14" id="path22" style="fill:none;stroke:#292f33;stroke-width:2;stroke-linecap:round;stroke-linejoin:round;stroke-miterlimit:10;stroke-dasharray:none;stroke-opacity:1"/></g><g id="g24" transform="translate(16,18)"><path d="M 0,0 C -2,0 -9,1 -12,8" id="path26" style="fill:none;stroke:#292f33;stroke-width:2;stroke-linecap:round;stroke-linejoin:round;stroke-miterlimit:10;stroke-dasharray:none;stroke-opacity:1"/></g><g id="g28" transform="translate(16,16)"><path d="M 0,0 C -1,0 -9,1 -12,-8" id="path30" style="fill:none;stroke:#292f33;stroke-width:2;stroke-linecap:round;stroke-linejoin:round;stroke-miterlimit:10;stroke-dasharray:none;stroke-opacity:1"/></g><g id="g32" transform="translate(16,16)"><path d="M 0,0 C -5,-3 -8,-11 -8,-15" id="path34" style="fill:none;stroke:#292f33;stroke-width:2;stroke-linecap:round;stroke-linejoin:round;stroke-miterlimit:10;stroke-dasharray:none;stroke-opacity:1"/></g><g id="g36" transform="translate(28,34)"><path d="M 0,0 C 0.042,-5.625 -3,-11 -7,-14" id="path38" style="fill:none;stroke:#292f33;stroke-width:2;stroke-linecap:round;stroke-linejoin:round;stroke-miterlimit:10;stroke-dasharray:none;stroke-opacity:1"/></g><g id="g40" transform="translate(20,18)"><path d="M 0,0 C 2,0 9,1 12,8" id="path42" style="fill:none;stroke:#292f33;stroke-width:2;stroke-linecap:round;stroke-linejoin:round;stroke-miterlimit:10;stroke-dasharray:none;stroke-opacity:1"/></g><g id="g44" transform="translate(20,16)"><path d="M 0,0 C 1,0 9,1 12,-8" id="path46" style="fill:none;stroke:#292f33;stroke-width:2;stroke-linecap:round;stroke-linejoin:round;stroke-miterlimit:10;stroke-dasharray:none;stroke-opacity:1"/></g><g id="g48" transform="translate(20,16)"><path d="M 0,0 C 5,-3 8,-11 8,-15" id="path50" style="fill:none;stroke:#292f33;stroke-width:2;stroke-linecap:round;stroke-linejoin:round;stroke-miterlimit:10;stroke-dasharray:none;stroke-opacity:1"/></g><g id="g52" transform="translate(24,10.792)"><path d="m 0,0 c 0,-3.751 -2.688,-6.792 -6,-6.792 -3.314,0 -6,3.041 -6,6.792 0,3.751 2.686,6.792 6,6.792 3.312,0 6,-3.041 6,-6.792" id="path54" style="fill:#292f33;fill-opacity:1;fill-rule:nonzero;stroke:none"/></g><g id="g56" transform="translate(22,19)"><path d="m 0,0 c 0,-3.314 -1.79,-6 -4,-6 -2.208,0 -4,2.686 -4,6 0,3.314 1.792,6 4,6 2.21,0 4,-2.686 4,-6" id="path58" style="fill:#292f33;fill-opacity:1;fill-rule:nonzero;stroke:none"/></g><g id="g60" transform="translate(15,26)"><path d="M 0,0 C 0,-1 0,-2 1,-3" id="path62" style="fill:none;stroke:#292f33;stroke-width:2;stroke-linecap:round;stroke-linejoin:round;stroke-miterlimit:10;stroke-dasharray:none;stroke-opacity:1"/></g><g id="g64" transform="translate(21,26)"><path d="M 0,0 C 0,-1 0,-2 -1,-3" id="path66" style="fill:none;stroke:#292f33;stroke-width:2;stroke-linecap:round;stroke-linejoin:round;stroke-miterlimit:10;stroke-dasharray:none;stroke-opacity:1"/></g></g></g></g></svg>