<?xml version="1.0" encoding="UTF-8" standalone="no"?><svg xmlns="http://www.w3.org/2000/svg" xmlns:cc="http://creativecommons.org/ns#" xmlns:dc="http://purl.org/dc/elements/1.1/" xmlns:rdf="http://www.w3.org/1999/02/22-rdf-syntax-ns#" xmlns:svg="http://www.w3.org/2000/svg" height="45" id="svg2" style="enable-background:new 0 0 45 45;" version="1.1" viewBox="0 0 45 45" width="45" xml:space="preserve"><metadata id="metadata8"><rdf:RDF><cc:Work rdf:about=""><dc:format>image/svg+xml</dc:format><dc:type rdf:resource="http://purl.org/dc/dcmitype/StillImage"/></cc:Work></rdf:RDF></metadata><defs id="defs6"><clipPath clipPathUnits="userSpaceOnUse" id="clipPath16"><path d="M 0,36 36,36 36,0 0,0 0,36 Z" id="path18"/></clipPath></defs><g id="g10" transform="matrix(1.25,0,0,-1.25,0,45)"><g id="g12"><g clip-path="url(#clipPath16)" id="g14"><g id="g20" transform="translate(0,18)"><path d="m 0,0 0,-16 c 0,-1.105 0.896,-2 2,-2 l 32,0 c 1.105,0 2,0.895 2,2 L 36,0 0,0 Z" id="path22" style="fill:#aab8c2;fill-opacity:1;fill-rule:nonzero;stroke:none"/></g><g id="g24" transform="translate(0,18)"><path d="M 0,0 18,6.353 36,0 0,0 Z" id="path26" style="fill:#66757f;fill-opacity:1;fill-rule:nonzero;stroke:none"/></g><path d="m 34,12 -32,0 0,4 32,0 0,-4 z" id="path28" style="fill:#55acee;fill-opacity:1;fill-rule:nonzero;stroke:none"/><path d="M 34,6 2,6 2,10 34,10 34,6 Z" id="path30" style="fill:#55acee;fill-opacity:1;fill-rule:nonzero;stroke:none"/><path d="M 30,1 6,1 6,17 30,17 30,1 Z" id="path32" style="fill:#aab8c2;fill-opacity:1;fill-rule:nonzero;stroke:none"/><path d="M 28,0 8,0 8,31 28,31 28,0 Z" id="path34" style="fill:#ccd6dd;fill-opacity:1;fill-rule:nonzero;stroke:none"/><path d="m 26,12 -16,0 0,4 16,0 0,-4 z" id="path36" style="fill:#55acee;fill-opacity:1;fill-rule:nonzero;stroke:none"/><path d="m 26,6 -16,0 0,4 16,0 0,-4 z" id="path38" style="fill:#55acee;fill-opacity:1;fill-rule:nonzero;stroke:none"/><path d="m 16,5 -2,0 0,18 2,0 0,-18 z" id="path40" style="fill:#ccd6dd;fill-opacity:1;fill-rule:nonzero;stroke:none"/><path d="m 22,5 -2,0 0,18 2,0 0,-18 z" id="path42" style="fill:#ccd6dd;fill-opacity:1;fill-rule:nonzero;stroke:none"/><path d="m 20,0 -4,0 0,4 4,0 0,-4 z" id="path44" style="fill:#3b88c3;fill-opacity:1;fill-rule:nonzero;stroke:none"/><path d="m 23,27 -10,0 0,2 10,0 0,-2 z" id="path46" style="fill:#dd2e44;fill-opacity:1;fill-rule:nonzero;stroke:none"/><g id="g48" transform="translate(13,25)"><path d="m 0,0 0,-2 4,0 0,-4 2,0 0,4 4,0 0,2 -10,0 z" id="path50" style="fill:#dd2e44;fill-opacity:1;fill-rule:nonzero;stroke:none"/></g><g id="g52" transform="translate(8,31)"><path d="M 0,0 10,5 20,0 0,0 Z" id="path54" style="fill:#66757f;fill-opacity:1;fill-rule:nonzero;stroke:none"/></g></g></g></g></svg>