<?xml version="1.0" encoding="UTF-8" standalone="no"?><svg xmlns="http://www.w3.org/2000/svg" xmlns:cc="http://creativecommons.org/ns#" xmlns:dc="http://purl.org/dc/elements/1.1/" xmlns:rdf="http://www.w3.org/1999/02/22-rdf-syntax-ns#" xmlns:svg="http://www.w3.org/2000/svg" height="45" id="svg2" style="enable-background:new 0 0 45 45;" version="1.1" viewBox="0 0 45 45" width="45" xml:space="preserve"><metadata id="metadata8"><rdf:RDF><cc:Work rdf:about=""><dc:format>image/svg+xml</dc:format><dc:type rdf:resource="http://purl.org/dc/dcmitype/StillImage"/></cc:Work></rdf:RDF></metadata><defs id="defs6"><clipPath clipPathUnits="userSpaceOnUse" id="clipPath16"><path d="M 4,36 C 1.791,36 0,34.209 0,32 L 0,32 0,4 C 0,1.791 1.791,0 4,0 l 0,0 28,0 c 2.209,0 4,1.791 4,4 l 0,0 0,28 c 0,2.209 -1.791,4 -4,4 l 0,0 -28,0 z" id="path18"/></clipPath><clipPath clipPathUnits="userSpaceOnUse" id="clipPath28"><path d="M 0,36 36,36 36,0 0,0 0,36 Z" id="path30"/></clipPath></defs><g id="g10" transform="matrix(1.25,0,0,-1.25,0,45)"><g id="g12"><g clip-path="url(#clipPath16)" id="g14"><path d="m 38,10 -39,0 0,-13 39,0 0,13 z" id="path20" style="fill:#78b159;fill-opacity:1;fill-rule:nonzero;stroke:none"/><path d="M 39,8 -2,8 -2,38 39,38 39,8 Z" id="path22" style="fill:#88c9f9;fill-opacity:1;fill-rule:nonzero;stroke:none"/></g></g><g id="g24"><g clip-path="url(#clipPath28)" id="g26"><g id="g32" transform="translate(29.1006,8.4434)"><path d="m 0,0 c 0,-1.918 -0.969,-2.594 -2.163,-2.594 -1.194,0 -2.162,0.676 -2.162,2.594 l 0.54,7.816 c 0,1.917 0.428,1.736 1.622,1.736 1.194,0 1.623,0.181 1.623,-1.736 L 0,0 Z" id="path34" style="fill:#662113;fill-opacity:1;fill-rule:nonzero;stroke:none"/></g><g id="g36" transform="translate(35.5889,22.6782)"><path d="m 0,0 c 0,-6.405 -3.872,-8.698 -8.651,-8.698 -4.778,0 -8.651,2.293 -8.651,8.698 0,6.405 4.865,12.322 8.651,12.322 C -4.866,12.322 0,6.405 0,0" id="path38" style="fill:#5c913b;fill-opacity:1;fill-rule:nonzero;stroke:none"/></g><g id="g40" transform="translate(21.5303,19.7793)"><path d="M 0,0 C 0,0.4 -0.482,0.724 -1.081,0.724 -1.678,0.724 -2.163,0.4 -2.163,0 c 0,-0.4 0.485,-0.725 1.082,-0.725 C -0.482,-0.725 0,-0.4 0,0" id="path42" style="fill:#3e721d;fill-opacity:1;fill-rule:nonzero;stroke:none"/></g><g id="g44" transform="translate(34.5068,19.7793)"><path d="M 0,0 C 0,0.4 -0.483,0.724 -1.081,0.724 -1.678,0.724 -2.163,0.4 -2.163,0 c 0,-0.4 0.485,-0.725 1.082,-0.725 C -0.483,-0.725 0,-0.4 0,0" id="path46" style="fill:#3e721d;fill-opacity:1;fill-rule:nonzero;stroke:none"/></g><g id="g48" transform="translate(23.6943,16.8809)"><path d="M 0,0 C 0,0.401 -0.485,0.724 -1.082,0.724 -1.68,0.724 -2.164,0.401 -2.164,0 c 0,-0.4 0.484,-0.725 1.082,-0.725 C -0.485,-0.725 0,-0.4 0,0" id="path50" style="fill:#3e721d;fill-opacity:1;fill-rule:nonzero;stroke:none"/></g><g id="g52" transform="translate(25.8555,19.0547)"><path d="M 0,0 C 0,0.4 -0.483,0.725 -1.08,0.725 -1.678,0.725 -2.161,0.4 -2.161,0 c 0,-0.4 0.483,-0.726 1.081,-0.726 C -0.483,-0.726 0,-0.4 0,0" id="path54" style="fill:#3e721d;fill-opacity:1;fill-rule:nonzero;stroke:none"/></g><g id="g56" transform="translate(23.6943,23.4038)"><path d="M 0,0 C 0,0.4 -0.485,0.724 -1.082,0.724 -1.68,0.724 -2.164,0.4 -2.164,0 c 0,-0.401 0.484,-0.726 1.082,-0.726 C -0.485,-0.726 0,-0.401 0,0" id="path58" style="fill:#3e721d;fill-opacity:1;fill-rule:nonzero;stroke:none"/></g><g id="g60" transform="translate(22.0723,26.3022)"><path d="m 0,0 c 0,0.401 -0.485,0.725 -1.082,0.725 -0.597,0 -1.081,-0.324 -1.081,-0.725 0,-0.4 0.484,-0.724 1.081,-0.724 C -0.485,-0.724 0,-0.4 0,0" id="path62" style="fill:#3e721d;fill-opacity:1;fill-rule:nonzero;stroke:none"/></g><g id="g64" transform="translate(33.9668,26.3022)"><path d="m 0,0 c 0,0.401 -0.484,0.725 -1.082,0.725 -0.597,0 -1.08,-0.324 -1.08,-0.725 0,-0.4 0.483,-0.724 1.08,-0.724 C -0.484,-0.724 0,-0.4 0,0" id="path66" style="fill:#3e721d;fill-opacity:1;fill-rule:nonzero;stroke:none"/></g><g id="g68" transform="translate(25.8555,27.7524)"><path d="M 0,0 C 0,0.4 -0.483,0.724 -1.08,0.724 -1.678,0.724 -2.161,0.4 -2.161,0 c 0,-0.402 0.483,-0.726 1.081,-0.726 C -0.483,-0.726 0,-0.402 0,0" id="path70" style="fill:#3e721d;fill-opacity:1;fill-rule:nonzero;stroke:none"/></g><g id="g72" transform="translate(30.1826,27.7524)"><path d="M 0,0 C 0,0.4 -0.484,0.724 -1.082,0.724 -1.68,0.724 -2.164,0.4 -2.164,0 c 0,-0.402 0.484,-0.726 1.082,-0.726 C -0.484,-0.726 0,-0.402 0,0" id="path74" style="fill:#3e721d;fill-opacity:1;fill-rule:nonzero;stroke:none"/></g><g id="g76" transform="translate(32.3438,23.4038)"><path d="M 0,0 C 0,0.4 -0.483,0.724 -1.08,0.724 -1.678,0.724 -2.161,0.4 -2.161,0 c 0,-0.401 0.483,-0.726 1.081,-0.726 C -0.483,-0.726 0,-0.401 0,0" id="path78" style="fill:#3e721d;fill-opacity:1;fill-rule:nonzero;stroke:none"/></g><g id="g80" transform="translate(28.0186,22.6782)"><path d="M 0,0 C 0,0.4 -0.483,0.726 -1.081,0.726 -1.678,0.726 -2.163,0.4 -2.163,0 c 0,-0.401 0.485,-0.725 1.082,-0.725 C -0.483,-0.725 0,-0.401 0,0" id="path82" style="fill:#3e721d;fill-opacity:1;fill-rule:nonzero;stroke:none"/></g><g id="g84" transform="translate(30.1826,19.0547)"><path d="M 0,0 C 0,0.4 -0.484,0.725 -1.082,0.725 -1.68,0.725 -2.164,0.4 -2.164,0 c 0,-0.4 0.484,-0.726 1.082,-0.726 C -0.484,-0.726 0,-0.4 0,0" id="path86" style="fill:#3e721d;fill-opacity:1;fill-rule:nonzero;stroke:none"/></g><g id="g88" transform="translate(28.0186,16.1562)"><path d="M 0,0 C 0,0.4 -0.483,0.725 -1.081,0.725 -1.678,0.725 -2.163,0.4 -2.163,0 c 0,-0.402 0.485,-0.725 1.082,-0.725 C -0.483,-0.725 0,-0.402 0,0" id="path90" style="fill:#3e721d;fill-opacity:1;fill-rule:nonzero;stroke:none"/></g><g id="g92" transform="translate(32.3438,16.8809)"><path d="m 0,0 c 0,0.401 -0.483,0.724 -1.08,0.724 -0.598,0 -1.081,-0.323 -1.081,-0.724 0,-0.4 0.483,-0.725 1.081,-0.725 C -0.483,-0.725 0,-0.4 0,0" id="path94" style="fill:#3e721d;fill-opacity:1;fill-rule:nonzero;stroke:none"/></g><g id="g96" transform="translate(14.0288,3)"><path d="m 0,0 c -0.424,0 -0.802,0.267 -0.944,0.666 l -5.012,14.033 c -0.11,0.307 -0.063,0.628 0.124,0.895 0.188,0.266 0.494,0.406 0.82,0.406 l 12.029,0 c 0.402,0 0.764,-0.22 0.922,-0.589 L 13.953,1.388 C 14.086,1.078 14.053,0.727 13.869,0.445 13.682,0.164 13.368,0 13.031,0 L 0,0 Z" id="path98" style="fill:#f4900c;fill-opacity:1;fill-rule:nonzero;stroke:none"/></g><g id="g100" transform="translate(3.0024,3)"><path d="m 0,0 c -0.337,0 -0.652,0.17 -0.837,0.45 -0.185,0.282 -0.217,0.638 -0.084,0.948 l 6.018,14.041 c 0.157,0.368 0.52,0.608 0.921,0.608 0.401,0 0.765,-0.24 0.922,-0.608 L 12.958,1.398 C 13.09,1.088 13.058,0.732 12.873,0.45 12.687,0.17 12.373,0 12.036,0 L 0,0 Z" id="path102" style="fill:#ffcc4d;fill-opacity:1;fill-rule:nonzero;stroke:none"/></g><g id="g104" transform="translate(9.0171,18.0356)"><path d="m 0,0 -2.005,-15.036 4.009,0 L 0,0 Z" id="path106" style="fill:#292f33;fill-opacity:1;fill-rule:nonzero;stroke:none"/></g><g id="g108" transform="translate(13,30)"><path d="M 0,0 C -0.018,0 -0.034,-0.006 -0.052,-0.006 -0.018,0.157 0,0.327 0,0.5 0,1.881 -1.119,3 -2.5,3 -3.391,3 -4.167,2.531 -4.61,1.83 -4.887,1.936 -5.185,2 -5.5,2 -6.775,2 -7.815,1.043 -7.969,-0.189 -8.251,-0.077 -8.552,0 -8.875,0 c -1.381,0 -2.5,-1.119 -2.5,-2.5 0,-1.38 1.119,-2.5 2.5,-2.5 L -8.87,-5 0,-5 c 1.381,0 2.5,1.119 2.5,2.5 C 2.5,-1.119 1.381,0 0,0" id="path110" style="fill:#ffffff;fill-opacity:1;fill-rule:nonzero;stroke:none"/></g></g></g></g></svg>