<?xml version="1.0" encoding="UTF-8" standalone="no"?><svg xmlns="http://www.w3.org/2000/svg" xmlns:cc="http://creativecommons.org/ns#" xmlns:dc="http://purl.org/dc/elements/1.1/" xmlns:rdf="http://www.w3.org/1999/02/22-rdf-syntax-ns#" xmlns:svg="http://www.w3.org/2000/svg" height="45" id="svg2" style="enable-background:new 0 0 45 45;" version="1.1" viewBox="0 0 45 45" width="45" xml:space="preserve"><metadata id="metadata8"><rdf:RDF><cc:Work rdf:about=""><dc:format>image/svg+xml</dc:format><dc:type rdf:resource="http://purl.org/dc/dcmitype/StillImage"/></cc:Work></rdf:RDF></metadata><defs id="defs6"><clipPath clipPathUnits="userSpaceOnUse" id="clipPath16"><path d="M 0,36 36,36 36,0 0,0 0,36 Z" id="path18"/></clipPath><clipPath clipPathUnits="userSpaceOnUse" id="clipPath28"><path d="M 4,36 C 1.791,36 0,34.209 0,32 L 0,32 0,4 C 0,1.791 1.791,0 4,0 l 0,0 28,0 c 2.209,0 4,1.791 4,4 l 0,0 0,28 c 0,2.209 -1.791,4 -4,4 l 0,0 -28,0 z" id="path30"/></clipPath></defs><g id="g10" transform="matrix(1.25,0,0,-1.25,0,45)"><g id="g12"><g clip-path="url(#clipPath16)" id="g14"><g id="g20" transform="translate(36,4)"><path d="m 0,0 c 0,-2.209 -1.791,-4 -4,-4 l -28,0 c -2.209,0 -4,1.791 -4,4 l 0,28 c 0,2.209 1.791,4 4,4 l 28,0 c 2.209,0 4,-1.791 4,-4 L 0,0 Z" id="path22" style="fill:#226699;fill-opacity:1;fill-rule:nonzero;stroke:none"/></g></g></g><g id="g24"><g clip-path="url(#clipPath28)" id="g26"><g id="g32" transform="translate(9,20)"><path d="m 0,0 c -0.03,0 -0.06,0.001 -0.09,0.004 -0.345,0.031 -0.649,0.239 -0.805,0.549 -1.006,2.013 -2.259,4.519 0.063,8.002 1.984,2.976 4.367,4.825 6.22,4.825 C 6.65,13.38 8,12.492 8,10 8,9.735 7.895,9.48 7.707,9.293 7.01,8.596 3.195,3.593 0.8,0.4 0.61,0.147 0.313,0 0,0" id="path34" style="fill:#ffcc4d;fill-opacity:1;fill-rule:nonzero;stroke:none"/></g><g id="g36" transform="translate(12,12)"><path d="M 0,0 C -0.038,0 -0.077,0.002 -0.115,0.007 -0.451,0.046 -0.744,0.251 -0.895,0.553 -2.261,3.286 -1.924,5.769 0.2,8.6 2.19,11.253 3.556,12.385 4.766,12.385 7,12.385 7,9.085 7,8 7,7.735 6.895,7.48 6.707,7.293 5.941,6.527 2.488,2.423 0.768,0.359 0.577,0.131 0.295,0 0,0" id="path38" style="fill:#ffcc4d;fill-opacity:1;fill-rule:nonzero;stroke:none"/></g><g id="g40" transform="translate(4,-1)"><path d="m 0,0 c -0.552,0 -1,0.447 -1,1 0,11.875 5.076,23.49 14.293,32.707 0.391,0.391 1.023,0.391 1.414,0 0.391,-0.391 0.391,-1.023 0,-1.414 C 5.868,23.454 1,12.341 1,1 1,0.447 0.552,0 0,0" id="path42" style="fill:#77b255;fill-opacity:1;fill-rule:nonzero;stroke:none"/></g><g id="g44" transform="translate(4.9995,-1)"><path d="M 0,0 -0.026,0 C -0.567,0 -1,0.445 -1,0.988 c 0,2.42 8.299,17.76 17.515,22.88 0.483,0.269 1.091,0.097 1.359,-0.385 C 18.143,23 17.969,22.393 17.486,22.124 8.825,17.312 1.102,2.836 1,0.98 0.971,0.448 0.53,0 0,0" id="path46" style="fill:#77b255;fill-opacity:1;fill-rule:nonzero;stroke:none"/></g><g id="g48" transform="translate(2.999,-1)"><path d="m 0,0 c -0.475,0 -0.896,0.339 -0.983,0.822 l -0.02,0.111 c -0.892,4.914 -2.572,17.234 1.09,25.473 0.225,0.505 0.814,0.734 1.32,0.508 0.505,-0.225 0.732,-0.815 0.508,-1.32 C -1.521,17.863 0.106,6.021 0.965,1.289 L 0.985,1.178 C 1.083,0.635 0.722,0.114 0.179,0.016 0.119,0.005 0.059,0 0,0" id="path50" style="fill:#77b255;fill-opacity:1;fill-rule:nonzero;stroke:none"/></g><g id="g52" transform="translate(1.001,12)"><path d="M 0,0 C -0.367,0 -0.72,0.202 -0.896,0.553 -1.049,0.861 -1.227,1.26 -1.423,1.703 -1.841,2.648 -2.949,5.149 -3.585,5.345 -3.582,5.322 -3.795,5.175 -4.106,4.553 -4.354,4.06 -4.953,3.859 -5.448,4.105 -5.942,4.353 -6.143,4.78 -5.896,5.274 -5.266,6.534 -4.485,7 -3.575,7 l 0.046,0 C -1.715,7 -0.588,4.585 0.406,2.341 0.587,1.93 0.751,1.646 0.894,1.361 1.141,0.867 0.94,0.31 0.446,0.062 0.303,-0.009 0.15,0 0,0" id="path54" style="fill:#77b255;fill-opacity:1;fill-rule:nonzero;stroke:none"/></g><g id="g56" transform="translate(18,9)"><path d="M 0,0 C -0.552,0 -1,0.447 -1,1 -1,3.023 -1.489,3.47 -1.639,3.558 -2.248,3.921 -3.811,3.055 -4.746,2.538 -5.037,2.378 -5.309,2.227 -5.553,2.105 -6.047,1.859 -6.648,2.059 -6.895,2.553 c -0.247,0.494 -0.046,1.095 0.448,1.342 0.222,0.111 0.47,0.248 0.735,0.394 1.476,0.816 3.499,1.929 5.089,0.991 C 0.469,4.636 1,3.236 1,1 1,0.447 0.552,0 0,0" id="path58" style="fill:#77b255;fill-opacity:1;fill-rule:nonzero;stroke:none"/></g><g id="g60" transform="translate(23,28.5)"><path d="M 0,0 C 0,-3.038 2.463,-5.5 5.5,-5.5 8.537,-5.5 11,-3.038 11,0 11,3.038 8.537,5.5 5.5,5.5 2.463,5.5 0,3.038 0,0" id="path62" style="fill:#e1e8ed;fill-opacity:1;fill-rule:nonzero;stroke:none"/></g><g id="g64" transform="translate(23,5.5)"><path d="M 0,0 C 0,-1.381 1.119,-2.5 2.5,-2.5 3.881,-2.5 5,-1.381 5,0 5,1.381 3.881,2.5 2.5,2.5 1.119,2.5 0,1.381 0,0" id="path66" style="fill:#e1e8ed;fill-opacity:1;fill-rule:nonzero;stroke:none"/></g><g id="g68" transform="translate(19,5.5)"><path d="M 0,0 C 0,-1.381 1.119,-2.5 2.5,-2.5 3.881,-2.5 5,-1.381 5,0 5,1.381 3.881,2.5 2.5,2.5 1.119,2.5 0,1.381 0,0" id="path70" style="fill:#e1e8ed;fill-opacity:1;fill-rule:nonzero;stroke:none"/></g><g id="g72" transform="translate(27,5.5)"><path d="M 0,0 C 0,-1.381 1.119,-2.5 2.5,-2.5 3.881,-2.5 5,-1.381 5,0 5,1.381 3.881,2.5 2.5,2.5 1.119,2.5 0,1.381 0,0" id="path74" style="fill:#e1e8ed;fill-opacity:1;fill-rule:nonzero;stroke:none"/></g><g id="g76" transform="translate(25,9.5)"><path d="M 0,0 C 0,-1.381 1.119,-2.5 2.5,-2.5 3.881,-2.5 5,-1.381 5,0 5,1.381 3.881,2.5 2.5,2.5 1.119,2.5 0,1.381 0,0" id="path78" style="fill:#e1e8ed;fill-opacity:1;fill-rule:nonzero;stroke:none"/></g><g id="g80" transform="translate(21,9.5)"><path d="M 0,0 C 0,-1.381 1.119,-2.5 2.5,-2.5 3.881,-2.5 5,-1.381 5,0 5,1.381 3.881,2.5 2.5,2.5 1.119,2.5 0,1.381 0,0" id="path82" style="fill:#e1e8ed;fill-opacity:1;fill-rule:nonzero;stroke:none"/></g><g id="g84" transform="translate(23,13.5)"><path d="M 0,0 C 0,-1.381 1.119,-2.5 2.5,-2.5 3.881,-2.5 5,-1.381 5,0 5,1.381 3.881,2.5 2.5,2.5 1.119,2.5 0,1.381 0,0" id="path86" style="fill:#e1e8ed;fill-opacity:1;fill-rule:nonzero;stroke:none"/></g><path d="M 18,4 33,4 33,0 18,0 18,4 Z" id="path88" style="fill:#c1694f;fill-opacity:1;fill-rule:nonzero;stroke:none"/></g></g></g></svg>