<?xml version="1.0" encoding="UTF-8" standalone="no"?><svg xmlns="http://www.w3.org/2000/svg" xmlns:cc="http://creativecommons.org/ns#" xmlns:dc="http://purl.org/dc/elements/1.1/" xmlns:rdf="http://www.w3.org/1999/02/22-rdf-syntax-ns#" xmlns:svg="http://www.w3.org/2000/svg" height="45" id="svg2" style="enable-background:new 0 0 45 45;" version="1.1" viewBox="0 0 45 45" width="45" xml:space="preserve"><metadata id="metadata8"><rdf:RDF><cc:Work rdf:about=""><dc:format>image/svg+xml</dc:format><dc:type rdf:resource="http://purl.org/dc/dcmitype/StillImage"/></cc:Work></rdf:RDF></metadata><defs id="defs6"><clipPath clipPathUnits="userSpaceOnUse" id="clipPath16"><path d="M 0,36 36,36 36,0 0,0 0,36 Z" id="path18"/></clipPath><clipPath clipPathUnits="userSpaceOnUse" id="clipPath28"><path d="M 4,36 C 4,36 0,36 0,32 L 0,32 0,4 C 0,0 4,0 4,0 l 0,0 28,0 c 4,0 4,4 4,4 l 0,0 0,28 c 0,0 0,4 -4,4 l 0,0 -28,0 z" id="path30"/></clipPath><clipPath clipPathUnits="userSpaceOnUse" id="clipPath40"><path d="M 16,12 C 9.435,8.249 4.334,3.326 0.387,2.108 l 0,0 C 1.39,0 4,0 4,0 l 0,0 28,0 c 4,0 4,4 4,4 l 0,0 0,12 c -3,2 -5,6 -7,6 l 0,0 C 27,22 23,16 16,12" id="path42"/></clipPath><clipPath clipPathUnits="userSpaceOnUse" id="clipPath52"><path d="M 4,36 C 4,36 0,36 0,32 L 0,32 0,4 C 0,0 4,0 4,0 l 0,0 28,0 c 4,0 4,4 4,4 l 0,0 0,28 c 0,0 0,4 -4,4 l 0,0 -28,0 z" id="path54"/></clipPath><clipPath clipPathUnits="userSpaceOnUse" id="clipPath64"><path d="M 0,15 0,4 C 0,0 4,0 4,0 l 0,0 28,0 c 4,0 4,4 4,4 l 0,0 0,3 c 0,0 -7,4 -13,10 l 0,0 c -4.491,4.49 -8,10 -10,10 l 0,0 C 11,27 4,18 0,15" id="path66"/></clipPath></defs><g id="g10" transform="matrix(1.25,0,0,-1.25,0,45)"><g id="g12"><g clip-path="url(#clipPath16)" id="g14"><g id="g20" transform="translate(36,4)"><path d="m 0,0 c 0,0 0,-4 -4,-4 l -28,0 c 0,0 -4,0 -4,4 l 0,28 c 0,4 4,4 4,4 l 28,0 c 4,0 4,-4 4,-4 L 0,0 Z" id="path22" style="fill:#88c9f9;fill-opacity:1;fill-rule:nonzero;stroke:none"/></g></g></g><g id="g24"><g clip-path="url(#clipPath28)" id="g26"><g id="g32" transform="translate(16,12)"><path d="m 0,0 c 7,4 11,10 13,10 2,0 4,-4 7,-6 1.667,-1.111 0,-20 0,-20 l -36,0 c 0,0 -6.454,4.387 0,6 4,1 9.219,6.125 16,10" id="path34" style="fill:#4b545c;fill-opacity:1;fill-rule:nonzero;stroke:none"/></g></g></g><g id="g36"><g clip-path="url(#clipPath40)" id="g38"><g id="g44" transform="translate(30,24)"><path d="m 0,0 7,-5.833 c 0,0 -1.167,0.583 -2.333,0.583 C 3.5,-5.25 3.5,-7 2.917,-7 2.333,-7 1.75,-5.833 0.583,-5.833 c -0.807,0 -0.8,-0.584 -1.75,-0.584 -0.583,0 -1.166,0.584 -1.75,0.584 -0.583,0 -1.166,-0.459 -1.75,-0.459 C -5.25,-6.292 -5.833,-5 -7,-5 l -3,0 0,0.333 L -2.917,0 0,0 Z" id="path46" style="fill:#ffffff;fill-opacity:1;fill-rule:nonzero;stroke:none"/></g></g></g><g id="g48"><g clip-path="url(#clipPath52)" id="g50"><g id="g56" transform="translate(0,15)"><path d="M 0,0 C 4,3 11,12 13,12 15,12 18.51,6.49 23,2 29,-4 36,-8 36,-8 l 0,-11 -36,0 c 0,0 -1.6,17.8 0,19" id="path58" style="fill:#292f33;fill-opacity:1;fill-rule:nonzero;stroke:none"/></g></g></g><g id="g60"><g clip-path="url(#clipPath64)" id="g62"><g id="g68" transform="translate(12.2344,27)"><path d="m 0,0 -9.234,-7.489 c 0,0 1.539,0.872 3.078,0.872 1.539,0 1.539,-2.257 2.308,-2.257 0.77,0 1.539,1.564 3.078,1.564 1.065,0 1.056,-0.756 2.309,-0.756 0.77,0 1.539,0.776 2.309,0.776 0.769,0 1.538,-1.01 2.308,-1.01 0.77,0 1.538,1.3 3.078,1.3 l 3.532,0 c 1,0 0,1.255 0,1.255 L 3.848,0 0,0 Z" id="path70" style="fill:#ffffff;fill-opacity:1;fill-rule:nonzero;stroke:none"/></g><g id="g72" transform="translate(-1.25,6)"><path d="m 0,0 c 0,0 2.563,-1.5 4.25,-2 1.688,-0.5 4.5,2 5,2 1,0 4,-2 5,-2 2,0 4,1 5,1 1,0 5,-2 6,-2 0.5,0 2.654,2 4,2 1,0 3.5,-1 4,-1 1,0 5,0.749 5,0.833 0,0.084 -1,-6.833 -1,-6.833 L 0.25,-8 0,0 Z" id="path74" style="fill:#5c913b;fill-opacity:1;fill-rule:nonzero;stroke:none"/></g></g></g></g></svg>