<?xml version="1.0" encoding="UTF-8" standalone="no"?><svg xmlns="http://www.w3.org/2000/svg" xmlns:cc="http://creativecommons.org/ns#" xmlns:dc="http://purl.org/dc/elements/1.1/" xmlns:rdf="http://www.w3.org/1999/02/22-rdf-syntax-ns#" xmlns:svg="http://www.w3.org/2000/svg" height="45" id="svg2" style="enable-background:new 0 0 45 45;" version="1.1" viewBox="0 0 45 45" width="45" xml:space="preserve"><metadata id="metadata8"><rdf:RDF><cc:Work rdf:about=""><dc:format>image/svg+xml</dc:format><dc:type rdf:resource="http://purl.org/dc/dcmitype/StillImage"/></cc:Work></rdf:RDF></metadata><defs id="defs6"><clipPath clipPathUnits="userSpaceOnUse" id="clipPath16"><path d="M 0,36 36,36 36,0 0,0 0,36 Z" id="path18"/></clipPath><clipPath clipPathUnits="userSpaceOnUse" id="clipPath52"><path d="M 13,8 0,8 0,4 C 0,3.041 0.352,2.173 0.914,1.483 l 0,0 C 1.648,0.585 2.75,0 4,0 l 0,0 28,0 c 2.209,0 4,1.791 4,4 l 0,0 0,4 -23,0 z" id="path54"/></clipPath></defs><g id="g10" transform="matrix(1.25,0,0,-1.25,0,45)"><g id="g12"><g clip-path="url(#clipPath16)" id="g14"><g id="g20" transform="translate(32,36)"><path d="m 0,0 -28,0 c -2.209,0 -4,-1.791 -4,-4 l 0,-25 36,0 0,25 C 4,-1.791 2.209,0 0,0" id="path22" style="fill:#88c9f9;fill-opacity:1;fill-rule:nonzero;stroke:none"/></g><g id="g24" transform="translate(13,8)"><path d="M 0,0 C -0.61,-1.22 -4.553,-4.299 -12.086,-6.517 -11.352,-7.415 -10.25,-8 -9,-8 l 28,0 c 2.209,0 4,1.791 4,4 L 23,0 0,0 Z" id="path26" style="fill:#ffac33;fill-opacity:1;fill-rule:nonzero;stroke:none"/></g><g id="g28" transform="translate(13,8)"><path d="m 0,0 -13,0 0,-4 c 0,-0.959 0.352,-1.827 0.914,-2.517 C -4.553,-4.299 -0.61,-1.22 0,0" id="path30" style="fill:#3b88c3;fill-opacity:1;fill-rule:nonzero;stroke:none"/></g><g id="g32" transform="translate(18.9741,3.8496)"><path d="m 0,0 c -0.15,-0.692 -0.835,-1.133 -1.527,-0.982 -0.693,0.15 -1.133,0.834 -0.982,1.527 L 2.574,26.53 c 0.15,0.694 0.834,1.133 1.527,0.983 0.691,-0.151 1.133,-0.834 0.981,-1.527 L 0,0 Z" id="path34" style="fill:#66757f;fill-opacity:1;fill-rule:nonzero;stroke:none"/></g><g id="g36" transform="translate(22.7119,29.6895)"><path d="m 0,0 c -7.622,1.654 -14.857,-1.873 -16.16,-7.877 0,0 -0.363,-1.673 0.473,-1.854 0.836,-0.183 2.873,1.128 2.873,1.128 l 20.908,-4.539 c 0,0 1.309,-2.036 2.146,-2.217 0.837,-0.182 1.199,1.491 1.199,1.491 C 12.743,-7.863 7.621,-1.654 0,0" id="path38" style="fill:#dd2e44;fill-opacity:1;fill-rule:nonzero;stroke:none"/></g><g id="g40" transform="translate(22.7119,29.6895)"><path d="m 0,0 c -5.774,1.253 -11.511,-2.599 -12.814,-8.603 0,0 -0.364,-1.673 1.309,-2.036 1.673,-0.363 4.545,0.765 4.545,0.765 l 9.199,-1.997 c 0,0 2.147,-2.217 3.82,-2.581 1.673,-0.362 2.035,1.31 2.035,1.31 C 9.398,-7.137 5.773,-1.253 0,0" id="path42" style="fill:#ffffff;fill-opacity:1;fill-rule:nonzero;stroke:none"/></g><g id="g44" transform="translate(22.7119,29.6895)"><path d="m 0,0 c -3.003,0.651 -5.657,-3.87 -6.96,-9.874 0,0 2.146,-2.218 3.818,-2.58 l 0.837,-0.183 c 1.673,-0.362 4.544,0.766 4.544,0.766 C 3.543,-5.867 3.003,-0.652 0,0" id="path46" style="fill:#dd2e44;fill-opacity:1;fill-rule:nonzero;stroke:none"/></g></g></g><g id="g48"><g clip-path="url(#clipPath52)" id="g50"><g id="g56" transform="translate(15.2188,8)"><path d="m 0,0 c 0,0 -0.75,-0.906 -2.219,-0.906 -0.771,0 -1.25,-1.094 1,-1.094 2.436,0 1.125,-1 -1,-1 -4.312,0 -1.594,-2 -5,-2 l -1,0 c -1.75,0 -2.916,-1 -1,-1 3.667,0 -0.271,-2 -3,-2 l -1,0 c -3.041,0 -3.75,3.08 0,3.08 1.906,0 2.625,1.534 5,1.534 2.125,0 2.886,2.386 4,2.386 1.093,0 2,1 2,1 L 0,0 Z" id="path58" style="fill:#f2f9ff;fill-opacity:1;fill-rule:nonzero;stroke:none"/></g></g></g></g></svg>