<?xml version="1.0" encoding="UTF-8" standalone="no"?><svg xmlns="http://www.w3.org/2000/svg" xmlns:cc="http://creativecommons.org/ns#" xmlns:dc="http://purl.org/dc/elements/1.1/" xmlns:rdf="http://www.w3.org/1999/02/22-rdf-syntax-ns#" xmlns:svg="http://www.w3.org/2000/svg" height="45" id="svg2" style="enable-background:new 0 0 45 45;" version="1.1" viewBox="0 0 45 45" width="45" xml:space="preserve"><metadata id="metadata8"><rdf:RDF><cc:Work rdf:about=""><dc:format>image/svg+xml</dc:format><dc:type rdf:resource="http://purl.org/dc/dcmitype/StillImage"/></cc:Work></rdf:RDF></metadata><defs id="defs6"><clipPath clipPathUnits="userSpaceOnUse" id="clipPath16"><path d="M 0,36 36,36 36,0 0,0 0,36 Z" id="path18"/></clipPath></defs><g id="g10" transform="matrix(1.25,0,0,-1.25,0,45)"><g id="g12"><g clip-path="url(#clipPath16)" id="g14"><g id="g20" transform="translate(30.8828,27.3906)"><path d="m 0,0 c -0.957,-0.956 -2.509,-0.956 -3.464,0 -0.956,0.956 -0.956,2.507 0,3.464 C -2.509,4.42 -0.957,4.42 0,3.464 0.956,2.507 0.956,0.956 0,0 M 1.732,5.195 C -2.572,9.5 -9.551,9.5 -13.855,5.195 -17.246,1.804 -17.953,-3.244 -15.999,-7.34 l -3.916,-3.915 c -0.64,-0.641 -0.841,-1.543 -0.625,-2.359 l -1.974,-1.972 c -0.478,0.481 -1.252,0.481 -1.731,0 l -1.732,-1.732 c -0.478,-0.479 -0.478,-1.253 0,-1.732 l -0.866,-0.864 c -0.478,0.478 -1.253,0.478 -1.731,0 l -0.866,-0.867 c -0.478,-0.479 -0.478,-1.253 0,-1.732 0.015,-0.015 0.036,-0.02 0.051,-0.033 -0.794,-1.189 -0.668,-2.812 0.382,-3.863 1.195,-1.196 3.134,-1.196 4.329,0 l 13.874,13.874 c 4.097,-1.955 9.144,-1.247 12.536,2.145 4.302,4.303 4.302,11.282 0,15.585" id="path22" style="fill:#c1694f;fill-opacity:1;fill-rule:nonzero;stroke:none"/></g></g></g></g></svg>