<?xml version="1.0" encoding="UTF-8" standalone="no"?><svg xmlns="http://www.w3.org/2000/svg" xmlns:cc="http://creativecommons.org/ns#" xmlns:dc="http://purl.org/dc/elements/1.1/" xmlns:rdf="http://www.w3.org/1999/02/22-rdf-syntax-ns#" xmlns:svg="http://www.w3.org/2000/svg" height="45" id="svg2" style="enable-background:new 0 0 45 45;" version="1.1" viewBox="0 0 45 45" width="45" xml:space="preserve"><metadata id="metadata8"><rdf:RDF><cc:Work rdf:about=""><dc:format>image/svg+xml</dc:format><dc:type rdf:resource="http://purl.org/dc/dcmitype/StillImage"/></cc:Work></rdf:RDF></metadata><defs id="defs6"><clipPath clipPathUnits="userSpaceOnUse" id="clipPath24"><path d="M 0,36 36,36 36,0 0,0 0,36 Z" id="path26"/></clipPath></defs><g id="g10" transform="matrix(1.25,0,0,-1.25,0,45)"><g id="g12" transform="translate(6,13)"><path d="m 0,0 -5,3 2,-6 -1,-2 6,-5 7,-2 3,11 -12,1 z" id="path14" style="fill:#ccd6dd;fill-opacity:1;fill-rule:nonzero;stroke:none"/></g><g id="g16" transform="translate(30,13)"><path d="m 0,0 5,3 -2,-6 1,-2 -6,-5 -7,-2 -3,11 12,1 z" id="path18" style="fill:#ccd6dd;fill-opacity:1;fill-rule:nonzero;stroke:none"/></g><g id="g20"><g clip-path="url(#clipPath24)" id="g22"><g id="g28" transform="translate(11,29)"><path d="M 0,0 C 0,-3.866 -3.032,-7 -6.771,-7 -10.51,-7 -7.899,7 -7.899,7 -7.899,7 0,3.866 0,0" id="path30" style="fill:#66757f;fill-opacity:1;fill-rule:nonzero;stroke:none"/></g><g id="g32" transform="translate(24,6)"><path d="m 0,0 c 0,-3.314 -2.686,-6 -6,-6 -3.314,0 -6,2.686 -6,6 0,3.314 2.686,6 6,6 3.314,0 6,-2.686 6,-6" id="path34" style="fill:#66757f;fill-opacity:1;fill-rule:nonzero;stroke:none"/></g><g id="g36" transform="translate(22,6)"><path d="m 0,0 c 0,-2.209 -1.791,-4 -4,-4 -2.209,0 -4,1.791 -4,4 0,2.209 1.791,4 4,4 2.209,0 4,-1.791 4,-4" id="path38" style="fill:#dd2e44;fill-opacity:1;fill-rule:nonzero;stroke:none"/></g><g id="g40" transform="translate(31.7705,22)"><path d="m 0,0 c -3.739,0 -6.771,3.134 -6.771,7 0,3.866 7.9,7 7.9,7 C 1.129,14 3.739,0 0,0" id="path42" style="fill:#66757f;fill-opacity:1;fill-rule:nonzero;stroke:none"/></g><g id="g44" transform="translate(9,28)"><path d="m 0,0 c 0,-2.209 -1.791,-4 -4,-4 -2.209,0 0,8 0,8 0,0 4,-1.791 4,-4" id="path46" style="fill:#e6aaaa;fill-opacity:1;fill-rule:nonzero;stroke:none"/></g><g id="g48" transform="translate(31,24)"><path d="M 0,0 C -2.209,0 -4,1.791 -4,4 -4,6.209 0,8 0,8 0,8 2.209,0 0,0" id="path50" style="fill:#e6aaaa;fill-opacity:1;fill-rule:nonzero;stroke:none"/></g><g id="g52" transform="translate(34,14)"><path d="m 0,0 c 0,-7 -6.923,-7 -6.923,-7 l -18.154,0 c 0,0 -6.923,0 -6.923,7 0,0 1.231,19 16,19 C -1.23,19 0,0 0,0" id="path54" style="fill:#66757f;fill-opacity:1;fill-rule:nonzero;stroke:none"/></g><g id="g56" transform="translate(11,19)"><path d="M 0,0 C 0,0 0,2 2,2 4,2 4,0 4,0 l 0,-2 c 0,0 0,-2 -2,-2 -2,0 -2,2 -2,2 l 0,2 z" id="path58" style="fill:#272b2b;fill-opacity:1;fill-rule:nonzero;stroke:none"/></g><g id="g60" transform="translate(21,19)"><path d="M 0,0 C 0,0 0,2 2,2 4,2 4,0 4,0 l 0,-2 c 0,0 0,-2 -2,-2 -2,0 -2,2 -2,2 l 0,2 z" id="path62" style="fill:#272b2b;fill-opacity:1;fill-rule:nonzero;stroke:none"/></g><g id="g64" transform="translate(32.7148,11.8379)"><path d="M 0,0 1.23,3.162 -1.399,0.496 c -0.388,0.1 -0.823,0.19 -1.316,0.27 l 0,4.396 -2.518,-4.121 c -1.101,0.076 -2.351,0.121 -3.804,0.121 -3.483,0 -1.003,-4.451 -5.762,-4.949 -4.759,0.498 -2.28,4.949 -5.762,4.949 -1.38,0 -2.582,-0.04 -3.643,-0.108 l -2.511,4.108 0,-4.366 c -0.509,-0.077 -0.947,-0.169 -1.348,-0.267 l -2.596,2.633 1.203,-3.093 c -1.688,-0.778 -1.502,-1.864 -0.427,-2.907 5.999,-5.818 9,-6 9.322,-6 2.46,0 4.603,0.998 5.762,2.481 1.159,-1.483 3.303,-2.481 5.762,-2.481 0.322,0 3.323,0.182 9.322,6 C 1.329,-1.825 1.532,-0.773 0,0" id="path66" style="fill:#ccd6dd;fill-opacity:1;fill-rule:nonzero;stroke:none"/></g><g id="g68" transform="translate(15,11)"><path d="M 0,0 C -1,-1 0,-4 3,-4 6,-4 7,-1 6,0 5,1 1,1 0,0" id="path70" style="fill:#272b2b;fill-opacity:1;fill-rule:nonzero;stroke:none"/></g></g></g></g></svg>