<?xml version="1.0" encoding="UTF-8" standalone="no"?><svg xmlns="http://www.w3.org/2000/svg" xmlns:cc="http://creativecommons.org/ns#" xmlns:dc="http://purl.org/dc/elements/1.1/" xmlns:rdf="http://www.w3.org/1999/02/22-rdf-syntax-ns#" xmlns:svg="http://www.w3.org/2000/svg" height="45" id="svg2" style="enable-background:new 0 0 45 45;" version="1.1" viewBox="0 0 45 45" width="45" xml:space="preserve"><metadata id="metadata8"><rdf:RDF><cc:Work rdf:about=""><dc:format>image/svg+xml</dc:format><dc:type rdf:resource="http://purl.org/dc/dcmitype/StillImage"/></cc:Work></rdf:RDF></metadata><defs id="defs6"><clipPath clipPathUnits="userSpaceOnUse" id="clipPath16"><path d="M 0,36 36,36 36,0 0,0 0,36 Z" id="path18"/></clipPath></defs><g id="g10" transform="matrix(1.25,0,0,-1.25,0,45)"><g id="g12"><g clip-path="url(#clipPath16)" id="g14"><g id="g20" transform="translate(36,9)"><path d="m 0,0 c 0,-2.209 -1.791,-4 -4,-4 l -28,0 c -2.209,0 -4,1.791 -4,4 l 0,18 c 0,2.209 1.791,4 4,4 l 28,0 c 2.209,0 4,-1.791 4,-4 L 0,0 Z" id="path22" style="fill:#77b255;fill-opacity:1;fill-rule:nonzero;stroke:none"/></g><path d="M 36,13 0,13 0,23 36,23 36,13 Z" id="path24" style="fill:#dd2e44;fill-opacity:1;fill-rule:nonzero;stroke:none"/><g id="g26" transform="translate(32,31)"><path d="m 0,0 -28,0 c -2.209,0 -4,-1.791 -4,-4 l 0,-4 36,0 0,4 C 4,-1.791 2.209,0 0,0" id="path28" style="fill:#141414;fill-opacity:1;fill-rule:nonzero;stroke:none"/></g><g id="g30" transform="translate(23.1914,24)"><path d="M 0,0 C -1.038,1.792 -2.972,3 -5.192,3 -7.412,3 -9.345,1.792 -10.383,0 L 0,0 Z" id="path32" style="fill:#dd2e44;fill-opacity:1;fill-rule:nonzero;stroke:none"/></g><g id="g34" transform="translate(17.6982,30)"><path d="M 0,0 0.603,0 0.301,-2.163 0,0 Z" id="path36" style="fill:#dd2e44;fill-opacity:1;fill-rule:nonzero;stroke:none"/></g><g id="g38" transform="translate(16.1836,29.8203)"><path d="M 0,0 0.595,0.102 0.662,-2.081 0,0 Z" id="path40" style="fill:#dd2e44;fill-opacity:1;fill-rule:nonzero;stroke:none"/></g><g id="g42" transform="translate(14.7212,29.3872)"><path d="M 0,0 0.569,0.201 1.004,-1.939 0,0 Z" id="path44" style="fill:#dd2e44;fill-opacity:1;fill-rule:nonzero;stroke:none"/></g><g id="g46" transform="translate(13.353,28.7139)"><path d="M 0,0 0.527,0.293 1.317,-1.743 0,0 Z" id="path48" style="fill:#dd2e44;fill-opacity:1;fill-rule:nonzero;stroke:none"/></g><g id="g50" transform="translate(12.1177,27.8188)"><path d="M 0,0 0.471,0.378 1.592,-1.495 0,0 Z" id="path52" style="fill:#dd2e44;fill-opacity:1;fill-rule:nonzero;stroke:none"/></g><g id="g54" transform="translate(11.0513,26.7285)"><path d="M 0,0 0.4,0.453 1.822,-1.205 0,0 Z" id="path56" style="fill:#dd2e44;fill-opacity:1;fill-rule:nonzero;stroke:none"/></g><g id="g58" transform="translate(10.1846,25.4741)"><path d="M 0,0 0.318,0.513 1.999,-0.88 0,0 Z" id="path60" style="fill:#dd2e44;fill-opacity:1;fill-rule:nonzero;stroke:none"/></g><g id="g62" transform="translate(10.8975,24)"><path d="M 0,0 -1.129,0.65 -1.356,0.091 -0.991,0 0,0 Z" id="path64" style="fill:#dd2e44;fill-opacity:1;fill-rule:nonzero;stroke:none"/></g><g id="g66" transform="translate(26.2529,24)"><path d="M 0,0 0.218,0.054 -0.003,0.611 -1.077,0 0,0 Z" id="path68" style="fill:#dd2e44;fill-opacity:1;fill-rule:nonzero;stroke:none"/></g><g id="g70" transform="translate(25.5225,25.9512)"><path d="m 0,0 0.311,-0.512 -2,-0.872 L 0,0 Z" id="path72" style="fill:#dd2e44;fill-opacity:1;fill-rule:nonzero;stroke:none"/></g><g id="g74" transform="translate(24.5791,27.1494)"><path d="M 0,0 0.394,-0.452 -1.432,-1.649 0,0 Z" id="path76" style="fill:#dd2e44;fill-opacity:1;fill-rule:nonzero;stroke:none"/></g><g id="g78" transform="translate(23.4473,28.1719)"><path d="M 0,0 0.464,-0.379 -1.133,-1.867 0,0 Z" id="path80" style="fill:#dd2e44;fill-opacity:1;fill-rule:nonzero;stroke:none"/></g><g id="g82" transform="translate(22.1592,28.9883)"><path d="M 0,0 0.521,-0.296 -0.802,-2.032 0,0 Z" id="path84" style="fill:#dd2e44;fill-opacity:1;fill-rule:nonzero;stroke:none"/></g><g id="g86" transform="translate(20.751,29.5757)"><path d="M 0,0 0.563,-0.204 -0.447,-2.138 0,0 Z" id="path88" style="fill:#dd2e44;fill-opacity:1;fill-rule:nonzero;stroke:none"/></g><g id="g90" transform="translate(19.2637,29.917)"><path d="M 0,0 0.591,-0.106 -0.08,-2.183 0,0 Z" id="path92" style="fill:#dd2e44;fill-opacity:1;fill-rule:nonzero;stroke:none"/></g></g></g></g></svg>