<?xml version="1.0" encoding="UTF-8" standalone="no"?><svg xmlns="http://www.w3.org/2000/svg" xmlns:cc="http://creativecommons.org/ns#" xmlns:dc="http://purl.org/dc/elements/1.1/" xmlns:rdf="http://www.w3.org/1999/02/22-rdf-syntax-ns#" xmlns:svg="http://www.w3.org/2000/svg" height="45" id="svg2" style="enable-background:new 0 0 45 45;" version="1.1" viewBox="0 0 45 45" width="45" xml:space="preserve"><metadata id="metadata8"><rdf:RDF><cc:Work rdf:about=""><dc:format>image/svg+xml</dc:format><dc:type rdf:resource="http://purl.org/dc/dcmitype/StillImage"/></cc:Work></rdf:RDF></metadata><defs id="defs6"><clipPath clipPathUnits="userSpaceOnUse" id="clipPath16"><path d="M 0,36 36,36 36,0 0,0 0,36 Z" id="path18"/></clipPath></defs><g id="g10" transform="matrix(1.25,0,0,-1.25,0,45)"><g id="g12"><g clip-path="url(#clipPath16)" id="g14"><g id="g20" transform="translate(32,36)"><path d="m 0,0 -28,0 c -2.209,0 -4,-1.791 -4,-4 l 0,-28 c 0,-2.209 1.791,-4 4,-4 l 28,0 c 2.209,0 4,1.791 4,4 L 4,-4 C 4,-1.791 2.209,0 0,0" id="path22" style="fill:#3b88c3;fill-opacity:1;fill-rule:nonzero;stroke:none"/></g><g id="g24" transform="translate(19,29)"><path d="m 0,0 -2,0 c -0.552,0 -1,-0.448 -1,-1 l 0,-20 c 0,-0.553 0.448,-1 1,-1 l 2,0 c 0.553,0 1,0.447 1,1 L 1,-1 C 1,-0.448 0.553,0 0,0" id="path26" style="fill:#ffffff;fill-opacity:1;fill-rule:nonzero;stroke:none"/></g><g id="g28" transform="translate(26.6173,24.9097)"><path d="M 0,0 1.105,-1.667 C 1.41,-2.128 1.284,-2.748 0.824,-3.053 l -16.672,-11.048 c -0.461,-0.305 -1.081,-0.179 -1.386,0.282 l -1.105,1.667 c -0.305,0.461 -0.18,1.08 0.281,1.386 L -1.386,0.281 C -0.926,0.586 -0.305,0.461 0,0" id="path30" style="fill:#ffffff;fill-opacity:1;fill-rule:nonzero;stroke:none"/></g><g id="g32" transform="translate(9.3828,24.9097)"><path d="m 0,0 -1.105,-1.667 c -0.305,-0.461 -0.179,-1.081 0.281,-1.386 l 16.672,-11.048 c 0.461,-0.305 1.081,-0.179 1.386,0.282 l 1.105,1.667 c 0.305,0.461 0.18,1.08 -0.281,1.386 L 1.386,0.281 C 0.926,0.586 0.305,0.461 0,0" id="path34" style="fill:#ffffff;fill-opacity:1;fill-rule:nonzero;stroke:none"/></g></g></g></g></svg>