<?xml version="1.0" encoding="UTF-8" standalone="no"?><svg xmlns="http://www.w3.org/2000/svg" xmlns:cc="http://creativecommons.org/ns#" xmlns:dc="http://purl.org/dc/elements/1.1/" xmlns:rdf="http://www.w3.org/1999/02/22-rdf-syntax-ns#" xmlns:svg="http://www.w3.org/2000/svg" height="45" id="svg2" style="enable-background:new 0 0 45 45;" version="1.1" viewBox="0 0 45 45" width="45" xml:space="preserve"><metadata id="metadata8"><rdf:RDF><cc:Work rdf:about=""><dc:format>image/svg+xml</dc:format><dc:type rdf:resource="http://purl.org/dc/dcmitype/StillImage"/></cc:Work></rdf:RDF></metadata><defs id="defs6"><clipPath clipPathUnits="userSpaceOnUse" id="clipPath16"><path d="M 0,36 36,36 36,0 0,0 0,36 Z" id="path18"/></clipPath></defs><g id="g10" transform="matrix(1.25,0,0,-1.25,0,45)"><g id="g12"><g clip-path="url(#clipPath16)" id="g14"><g id="g20" transform="translate(25.0713,25.0713)"><path d="m 0,0 c -0.256,0 -0.512,0.098 -0.707,0.293 -0.391,0.391 -0.391,1.023 0,1.414 l 7.778,7.778 c 0.391,0.39 1.024,0.39 1.414,0 0.391,-0.391 0.391,-1.024 0,-1.414 L 0.707,0.293 C 0.512,0.098 0.256,0 0,0" id="path22" style="fill:#66757f;fill-opacity:1;fill-rule:nonzero;stroke:none"/></g><g id="g24" transform="translate(6.6865,3.4434)"><path d="m 0,0 c -0.781,-0.78 -2.048,-0.78 -2.829,0 l -1.414,1.414 c -0.781,0.781 -0.781,2.048 0,2.829 l 4.95,4.949 c 0.781,0.782 2.047,0.782 2.828,0 L 4.95,7.778 C 5.73,6.997 5.73,5.731 4.95,4.95 L 0,0 Z" id="path26" style="fill:#ccd6dd;fill-opacity:1;fill-rule:nonzero;stroke:none"/></g><g id="g28" transform="translate(26.8389,23.5962)"><path d="m 0,0 c -0.586,-0.586 -1.536,-0.586 -2.121,0 l -2.121,2.121 c -0.586,0.586 -0.586,1.536 0,2.122 0.585,0.586 1.535,0.586 2.121,0 L 0,2.121 C 0.586,1.536 0.586,0.586 0,0" id="path30" style="fill:#99aab5;fill-opacity:1;fill-rule:nonzero;stroke:none"/></g><g id="g32" transform="translate(14.4644,8.3936)"><path d="m 0,0 c -0.781,-0.781 -2.047,-0.781 -2.828,0 l -4.243,4.242 c -0.781,0.781 -0.781,2.048 0,2.829 L 4.95,19.092 c 0.781,0.781 2.047,0.781 2.828,0 l 4.243,-4.243 c 0.781,-0.781 0.781,-2.047 0,-2.828 L 0,0 Z" id="path34" style="fill:#e1e8ed;fill-opacity:1;fill-rule:nonzero;stroke:none"/></g><g id="g36" transform="translate(18.707,12.6357)"><path d="M 0,0 C -0.781,-0.78 -1.34,-0.073 -2.121,0.707 L -6.364,4.95 c -0.781,0.781 -1.488,1.341 -0.707,2.121 l 7.778,7.779 c 0.781,0.78 2.048,0.78 2.828,0 L 7.778,10.607 C 8.56,9.826 8.56,8.56 7.778,7.778 L 0,0 Z" id="path38" style="fill:#dd2e44;fill-opacity:1;fill-rule:nonzero;stroke:none"/></g><g id="g40" transform="translate(14.8179,5.9189)"><path d="m 0,0 c -0.585,-0.586 -1.536,-0.586 -2.121,0 l -7.778,7.777 c -0.586,0.586 -0.586,1.537 0,2.123 0.585,0.585 1.535,0.585 2.121,0 L 0,2.121 C 0.586,1.535 0.586,0.585 0,0" id="path42" style="fill:#99aab5;fill-opacity:1;fill-rule:nonzero;stroke:none"/></g><g id="g44" transform="translate(7.7471,1.6758)"><path d="m 0,0 c -0.585,-0.586 -1.536,-0.586 -2.122,0 l -4.949,4.95 c -0.586,0.586 -0.586,1.535 0,2.121 0.585,0.586 1.535,0.586 2.121,0 L 0,2.121 C 0.585,1.536 0.585,0.586 0,0" id="path46" style="fill:#99aab5;fill-opacity:1;fill-rule:nonzero;stroke:none"/></g><g id="g48" transform="translate(33.8828,19.498)"><path d="M 0,0 C -0.374,0.582 -0.887,1.38 -1.535,2.676 -1.666,2.939 -2.1,2.939 -2.23,2.676 -2.879,1.38 -3.392,0.582 -3.766,0 c -0.523,-0.814 -0.838,-1.306 -0.838,-2.165 0,-1.501 1.22,-2.722 2.721,-2.722 1.501,0 2.722,1.221 2.722,2.722 C 0.839,-1.306 0.523,-0.814 0,0" id="path50" style="fill:#dd2e44;fill-opacity:1;fill-rule:nonzero;stroke:none"/></g><g id="g52" transform="translate(29.8828,10.498)"><path d="M 0,0 C -0.374,0.582 -0.887,1.38 -1.535,2.676 -1.666,2.939 -2.1,2.939 -2.23,2.676 -2.879,1.38 -3.392,0.582 -3.766,0 c -0.523,-0.814 -0.838,-1.307 -0.838,-2.164 0,-1.501 1.22,-2.723 2.721,-2.723 1.501,0 2.722,1.222 2.722,2.723 C 0.839,-1.307 0.523,-0.814 0,0" id="path54" style="fill:#dd2e44;fill-opacity:1;fill-rule:nonzero;stroke:none"/></g></g></g></g></svg>