<?xml version="1.0" encoding="UTF-8" standalone="no"?><svg xmlns="http://www.w3.org/2000/svg" xmlns:cc="http://creativecommons.org/ns#" xmlns:dc="http://purl.org/dc/elements/1.1/" xmlns:rdf="http://www.w3.org/1999/02/22-rdf-syntax-ns#" xmlns:svg="http://www.w3.org/2000/svg" height="45" id="svg2" style="enable-background:new 0 0 45 45;" version="1.1" viewBox="0 0 45 45" width="45" xml:space="preserve"><metadata id="metadata8"><rdf:RDF><cc:Work rdf:about=""><dc:format>image/svg+xml</dc:format><dc:type rdf:resource="http://purl.org/dc/dcmitype/StillImage"/></cc:Work></rdf:RDF></metadata><defs id="defs6"><clipPath clipPathUnits="userSpaceOnUse" id="clipPath16"><path d="M 0,36 36,36 36,0 0,0 0,36 Z" id="path18"/></clipPath></defs><g id="g10" transform="matrix(1.25,0,0,-1.25,0,45)"><g id="g12"><g clip-path="url(#clipPath16)" id="g14"><g id="g20" transform="translate(36,4)"><path d="m 0,0 c 0,-2.209 -1.791,-4 -4,-4 l -28,0 c -2.209,0 -4,1.791 -4,4 l 0,28 c 0,2.209 1.791,4 4,4 l 28,0 c 2.209,0 4,-1.791 4,-4 L 0,0 Z" id="path22" style="fill:#88c9f9;fill-opacity:1;fill-rule:nonzero;stroke:none"/></g><path d="m 16,2 -2,0 0,11 2,0 0,-11 z" id="path24" style="fill:#a0041e;fill-opacity:1;fill-rule:nonzero;stroke:none"/><path d="M 8,2 10,2 10,14 8,14 8,2 Z" id="path26" style="fill:#a0041e;fill-opacity:1;fill-rule:nonzero;stroke:none"/><path d="m 22,15 -2,0 0,-13 2,0 0,13 z" id="path28" style="fill:#a0041e;fill-opacity:1;fill-rule:nonzero;stroke:none"/><path d="m 28,20 -2,0 0,-18 2,0 0,18 z" id="path30" style="fill:#a0041e;fill-opacity:1;fill-rule:nonzero;stroke:none"/><path d="m 34,25 -2,0 0,-23 2,0 0,23 z" id="path32" style="fill:#a0041e;fill-opacity:1;fill-rule:nonzero;stroke:none"/><path d="M 4,2 2,2 2,15 4,15 4,2 Z" id="path34" style="fill:#a0041e;fill-opacity:1;fill-rule:nonzero;stroke:none"/><g id="g36" transform="translate(34,27.7778)"><path d="m 0,0 c -4.107,-4.63 -13.207,-13.778 -21.001,-13.778 -4.635,0 -8.599,1.417 -10.999,2.528 l 0,-2.201 c 2.615,-1.117 6.483,-2.327 10.999,-2.327 7.764,0 16.238,7.691 21.001,12.785 L 0,0 Z" id="path38" style="fill:#dd2e44;fill-opacity:1;fill-rule:nonzero;stroke:none"/></g><g id="g40" transform="translate(26,22)"><path d="m 0,0 c 0,-1.104 -0.447,-2 -1,-2 -0.553,0 -1,0.896 -1,2 0,1.105 0.447,2 1,2 0.553,0 1,-0.895 1,-2" id="path42" style="fill:#66757f;fill-opacity:1;fill-rule:nonzero;stroke:none"/></g><g id="g44" transform="translate(26,25)"><path d="m 0,0 c 0,-0.552 -0.447,-1 -1,-1 -0.553,0 -1,0.448 -1,1 0,0.552 0.447,1 1,1 0.553,0 1,-0.448 1,-1" id="path46" style="fill:#66757f;fill-opacity:1;fill-rule:nonzero;stroke:none"/></g><g id="g48" transform="translate(31,26)"><path d="m 0,0 c 0,-1.104 -0.447,-2 -1,-2 -0.553,0 -1,0.896 -1,2 0,1.104 0.447,2 1,2 0.553,0 1,-0.896 1,-2" id="path50" style="fill:#66757f;fill-opacity:1;fill-rule:nonzero;stroke:none"/></g><g id="g52" transform="translate(30.667,28.6665)"><path d="m 0,0 0.333,-2.667 -1,-1 -1.505,1.505 C -3.124,-3.09 -3.95,-3.836 -4.667,-4.44 l 0,-2.227 -1,-1 -1.391,1.391 c -1.382,-0.96 -2.069,-1.309 -2.609,-2.391 -1,-2 -2.001,-6 1,-4 5.582,3.721 12,10 12,10 l 0,6 C 2.468,2.467 1.175,1.175 0,0" id="path54" style="fill:#ffcc4d;fill-opacity:1;fill-rule:nonzero;stroke:none"/></g><g id="g56" transform="translate(31,29)"><path d="m 0,0 c 0,-0.552 -0.447,-1 -1,-1 -0.553,0 -1,0.448 -1,1 0,0.552 0.447,1 1,1 0.553,0 1,-0.448 1,-1" id="path58" style="fill:#66757f;fill-opacity:1;fill-rule:nonzero;stroke:none"/></g></g></g></g></svg>