<?xml version="1.0" encoding="UTF-8" standalone="no"?><svg xmlns="http://www.w3.org/2000/svg" xmlns:cc="http://creativecommons.org/ns#" xmlns:dc="http://purl.org/dc/elements/1.1/" xmlns:rdf="http://www.w3.org/1999/02/22-rdf-syntax-ns#" xmlns:svg="http://www.w3.org/2000/svg" height="45" id="svg2" style="enable-background:new 0 0 45 45;" version="1.1" viewBox="0 0 45 45" width="45" xml:space="preserve"><metadata id="metadata8"><rdf:RDF><cc:Work rdf:about=""><dc:format>image/svg+xml</dc:format><dc:type rdf:resource="http://purl.org/dc/dcmitype/StillImage"/></cc:Work></rdf:RDF></metadata><defs id="defs6"><clipPath clipPathUnits="userSpaceOnUse" id="clipPath16"><path d="M 0,36 36,36 36,0 0,0 0,36 Z" id="path18"/></clipPath></defs><g id="g10" transform="matrix(1.25,0,0,-1.25,0,45)"><g id="g12"><g clip-path="url(#clipPath16)" id="g14"><g id="g20" transform="translate(36,4)"><path d="m 0,0 c 0,-2.209 -1.791,-4 -4,-4 l -28,0 c -2.209,0 -4,1.791 -4,4 l 0,28 c 0,2.209 1.791,4 4,4 l 28,0 c 2.209,0 4,-1.791 4,-4 L 0,0 Z" id="path22" style="fill:#226699;fill-opacity:1;fill-rule:nonzero;stroke:none"/></g><g id="g24" transform="translate(29,28)"><path d="m 0,0 -2,0 0,-18 2,0 c 1.105,0 2,0.896 2,2 L 2,-2 C 2,-0.895 1.105,0 0,0" id="path26" style="fill:#f5f8fa;fill-opacity:1;fill-rule:nonzero;stroke:none"/></g><g id="g28" transform="translate(7,28)"><path d="m 0,0 c -1.104,0 -2,-0.895 -2,-2 l 0,-14 c 0,-1.104 0.896,-2 2,-2 l 2,0 0,18 -2,0 z" id="path30" style="fill:#f5f8fa;fill-opacity:1;fill-rule:nonzero;stroke:none"/></g><g id="g32" transform="translate(15,30)"><path d="M 0,0 C 0,0.552 0.448,1 1,1 L 5,1 C 5.553,1 6,0.552 6,0 L 6,-2 0,-2 0,0 Z M 8,-2 8,1 C 8,2.105 7.105,3 6,3 L 0,3 C -1.104,3 -2,2.105 -2,1 l 0,-3 -2,0 0,-18 14,0 0,18 -2,0 z" id="path34" style="fill:#f5f8fa;fill-opacity:1;fill-rule:nonzero;stroke:none"/></g><g id="g36" transform="translate(33,8)"><path d="m 0,0 -30,0 c -0.552,0 -1,-0.447 -1,-1 0,-0.553 0.448,-1 1,-1 l 1,0 c 0,-1.104 0.896,-2 2,-2 1.104,0 2,0.896 2,2 l 2,0 c 0,-1.104 0.896,-2 2,-2 1.105,0 2,0.896 2,2 l 2,0 c 0,-1.104 0.896,-2 2,-2 1.105,0 2,0.896 2,2 l 2,0 c 0,-1.104 0.896,-2 2,-2 1.105,0 2,0.896 2,2 l 2,0 c 0,-1.104 0.896,-2 2,-2 1.105,0 2,0.896 2,2 l 1,0 c 0.553,0 1,0.447 1,1 0,0.553 -0.447,1 -1,1" id="path38" style="fill:#f5f8fa;fill-opacity:1;fill-rule:nonzero;stroke:none"/></g></g></g></g></svg>