<?xml version="1.0" encoding="UTF-8" standalone="no"?><svg xmlns="http://www.w3.org/2000/svg" xmlns:cc="http://creativecommons.org/ns#" xmlns:dc="http://purl.org/dc/elements/1.1/" xmlns:rdf="http://www.w3.org/1999/02/22-rdf-syntax-ns#" xmlns:svg="http://www.w3.org/2000/svg" height="45" id="svg2" style="enable-background:new 0 0 45 45;" version="1.1" viewBox="0 0 45 45" width="45" xml:space="preserve"><metadata id="metadata8"><rdf:RDF><cc:Work rdf:about=""><dc:format>image/svg+xml</dc:format><dc:type rdf:resource="http://purl.org/dc/dcmitype/StillImage"/></cc:Work></rdf:RDF></metadata><defs id="defs6"><clipPath clipPathUnits="userSpaceOnUse" id="clipPath16"><path d="M 0,36 36,36 36,0 0,0 0,36 Z" id="path18"/></clipPath><clipPath clipPathUnits="userSpaceOnUse" id="clipPath180"><path d="M 4,31 C 1.791,31 0,29.209 0,27 l 0,0 0,-9 19,0 0,13 -15,0 z" id="path182"/></clipPath><clipPath clipPathUnits="userSpaceOnUse" id="clipPath196"><path d="M 0,36 36,36 36,0 0,0 0,36 Z" id="path198"/></clipPath></defs><g id="g10" transform="matrix(1.25,0,0,-1.25,0,45)"><g id="g12"><g clip-path="url(#clipPath16)" id="g14"><g id="g20" transform="translate(36,9)"><path d="m 0,0 c 0,-2.209 -1.791,-4 -4,-4 l -28,0 c -2.209,0 -4,1.791 -4,4 l 0,18 c 0,2.209 1.791,4 4,4 l 28,0 c 2.209,0 4,-1.791 4,-4 L 0,0 Z" id="path22" style="fill:#00247d;fill-opacity:1;fill-rule:nonzero;stroke:none"/></g><g id="g24" transform="translate(26.917,24.354)"><path d="m 0,0 -5.042,0 0,-9.229 c 0,-1.522 5.042,-3.708 5.042,-3.708 0,0 5.042,2.186 5.042,3.708 L 5.042,0 0,0 Z" id="path26" style="fill:#ffffff;fill-opacity:1;fill-rule:nonzero;stroke:none"/></g><g id="g28" transform="translate(26.917,11.9629)"><path d="m 0,0 c -2.23,0.995 -4.542,2.47 -4.542,3.162 l 0,8.729 9.084,0 0,-8.729 C 4.542,2.469 2.23,0.994 0,0" id="path30" style="fill:#006129;fill-opacity:1;fill-rule:nonzero;stroke:none"/></g><g id="g32" transform="translate(25.0781,18.1094)"><path d="m 0,0 c -0.204,-0.079 -0.266,0.469 0,0.859 0.266,0.391 1.047,1.188 1.219,1.922 0.172,0.735 0.474,0.625 0.62,0.828 0.145,0.204 0.167,0.438 0,0.485 -0.167,0.047 -0.402,0.109 -0.245,0.718 0.156,0.61 0.828,0.547 0.828,0.125 0,-0.421 -0.156,-0.796 0,-1.124 C 2.578,3.484 2.938,3.563 3.156,2.938 3.375,2.313 3.453,1.703 3.313,1.437 3.172,1.172 3.094,0.156 2.906,-0.109 2.719,-0.375 2.469,-0.266 2.516,0.219 2.563,0.703 2.875,1.359 2.969,1.703 3.063,2.047 2.828,2.75 2.484,2.828 2.141,2.906 1.516,2.109 1.234,1.781 0.953,1.453 0.344,1.203 0.312,0.937 0.281,0.672 0.203,0.078 0,0" id="path34" style="fill:#ffc6b5;fill-opacity:1;fill-rule:nonzero;stroke:none"/></g><g id="g36" transform="translate(28.7656,14.125)"><path d="m 0,0 c -0.359,-0.078 -1.156,-0.375 -1.594,-0.266 -0.437,0.11 -1.219,-0.171 -1.328,-0.023 -0.109,0.148 0.109,0.961 0.141,1.336 0.031,0.375 0.078,0.75 0.015,0.75 -0.062,0 -0.326,0 -0.186,0.672 0.139,0.672 0.374,1.906 0.374,1.906 0,0 -0.235,0.094 -0.094,0.469 0.141,0.375 0.313,1.265 0.266,1.468 -0.047,0.204 -0.391,0.141 -0.266,0.454 0.125,0.312 0.219,0.375 0.313,0.609 0.093,0.234 0.286,0.419 0.422,0.359 0.135,-0.059 0.289,-0.234 0.441,-0.14 0.152,0.093 0.168,0.234 0.371,0.218 C -0.922,7.797 -0.487,7.389 -0.578,7.297 -0.669,7.205 -0.834,6.887 -0.862,6.49 -0.891,6.094 -1.141,5.125 -1.219,4.812 -1.297,4.5 -0.953,3.75 -0.766,3.047 -0.578,2.344 0,0 0,0" id="path38" style="fill:#ffffff;fill-opacity:1;fill-rule:nonzero;stroke:none"/></g><g id="g40" transform="translate(26.6816,23.3716)"><path d="m 0,0 c 0.091,0.241 0.537,0.441 0.912,0.144 0.375,-0.297 0.531,-0.844 0.266,-1.172 -0.266,-0.328 -0.42,-0.25 -0.523,0 -0.102,0.25 0.007,0.474 -0.134,0.549 -0.14,0.076 -0.015,0.295 -0.14,0.342 C 0.256,-0.09 -0.131,-0.347 0,0" id="path42" style="fill:#9c5100;fill-opacity:1;fill-rule:nonzero;stroke:none"/></g><g id="g44" transform="translate(23.1143,23.5156)"><path d="m 0,0 c -0.064,0.07 -0.223,-0.22 -0.16,-0.423 0.062,-0.204 0.046,-0.395 0.169,-0.365 0.123,0.031 0.093,0.209 0.174,0.351 0.062,0.109 -0.188,0.078 -0.11,0.203 L 0,0 Z" id="path46" style="fill:#ff0000;fill-opacity:1;fill-rule:nonzero;stroke:none"/></g><g id="g48" transform="translate(22.8594,22.7969)"><path d="m 0,0 0.828,0 c 0,0 0.109,0.375 0.281,0.391 0.172,0.015 0.219,-0.375 0.219,-0.375 0,0 0.391,-0.094 0.563,0.015 0.172,0.11 0.593,-0.015 0.265,-0.203 -0.328,-0.187 -0.14,0.203 -0.328,0 C 1.641,-0.375 1.469,-0.453 1.5,-0.531 c 0.031,-0.078 -0.098,-0.14 -0.361,-0.14 -0.264,0 -0.436,0.062 -0.405,0.187 0.032,0.125 -0.172,0.172 -0.406,0.218 C 0.094,-0.219 0,0 0,0" id="path50" style="fill:#f8c600;fill-opacity:1;fill-rule:nonzero;stroke:none"/></g><g id="g52" transform="translate(23.1143,21.9277)"><path d="m 0,0 c -0.064,0.07 -0.223,-0.22 -0.16,-0.423 0.062,-0.204 0.046,-0.395 0.169,-0.365 0.123,0.031 0.093,0.209 0.174,0.351 0.062,0.109 -0.188,0.078 -0.11,0.203 L 0,0 Z" id="path54" style="fill:#ff0000;fill-opacity:1;fill-rule:nonzero;stroke:none"/></g><g id="g56" transform="translate(22.8594,21.209)"><path d="m 0,0 0.828,0 c 0,0 0.109,0.375 0.281,0.391 0.172,0.015 0.219,-0.375 0.219,-0.375 0,0 0.391,-0.094 0.563,0.015 0.172,0.11 0.593,-0.015 0.265,-0.203 -0.328,-0.187 -0.14,0.203 -0.328,0 C 1.641,-0.375 1.469,-0.453 1.5,-0.531 c 0.031,-0.078 -0.098,-0.14 -0.361,-0.14 -0.264,0 -0.436,0.062 -0.405,0.187 0.032,0.125 -0.172,0.172 -0.406,0.218 C 0.094,-0.219 0,0 0,0" id="path58" style="fill:#f8c600;fill-opacity:1;fill-rule:nonzero;stroke:none"/></g><g id="g60" transform="translate(23.1143,20.1621)"><path d="m 0,0 c -0.064,0.07 -0.223,-0.22 -0.16,-0.423 0.062,-0.204 0.046,-0.395 0.169,-0.365 0.123,0.031 0.093,0.209 0.174,0.351 0.062,0.109 -0.188,0.078 -0.11,0.203 L 0,0 Z" id="path62" style="fill:#ff0000;fill-opacity:1;fill-rule:nonzero;stroke:none"/></g><g id="g64" transform="translate(22.8594,19.4434)"><path d="m 0,0 0.828,0 c 0,0 0.109,0.375 0.281,0.391 0.172,0.015 0.219,-0.375 0.219,-0.375 0,0 0.391,-0.094 0.563,0.015 0.172,0.11 0.593,-0.015 0.265,-0.203 -0.328,-0.187 -0.14,0.203 -0.328,0 C 1.641,-0.375 1.469,-0.453 1.5,-0.531 c 0.031,-0.078 -0.098,-0.14 -0.361,-0.14 -0.264,0 -0.436,0.062 -0.405,0.187 0.032,0.125 -0.172,0.172 -0.406,0.218 C 0.094,-0.219 0,0 0,0" id="path66" style="fill:#f8c600;fill-opacity:1;fill-rule:nonzero;stroke:none"/></g><g id="g68" transform="translate(24.1143,18.4434)"><path d="m 0,0 c -0.064,0.07 -0.223,-0.22 -0.16,-0.423 0.062,-0.204 0.046,-0.395 0.169,-0.365 0.123,0.031 0.093,0.209 0.174,0.351 0.062,0.109 -0.188,0.078 -0.11,0.203 L 0,0 Z" id="path70" style="fill:#ff0000;fill-opacity:1;fill-rule:nonzero;stroke:none"/></g><g id="g72" transform="translate(23.8594,17.7246)"><path d="m 0,0 0.828,0 c 0,0 0.109,0.375 0.281,0.391 0.172,0.015 0.219,-0.375 0.219,-0.375 0,0 0.391,-0.094 0.563,0.015 0.172,0.11 0.593,-0.015 0.265,-0.203 -0.328,-0.187 -0.14,0.203 -0.328,0 C 1.641,-0.375 1.469,-0.453 1.5,-0.531 c 0.031,-0.078 -0.098,-0.14 -0.361,-0.14 -0.264,0 -0.436,0.062 -0.405,0.187 0.032,0.125 -0.172,0.172 -0.406,0.218 C 0.094,-0.219 0,0 0,0" id="path74" style="fill:#f8c600;fill-opacity:1;fill-rule:nonzero;stroke:none"/></g><g id="g76" transform="translate(23.0557,17.043)"><path d="m 0,0 c -0.063,0.07 -0.223,-0.22 -0.16,-0.424 0.062,-0.203 0.046,-0.394 0.169,-0.363 0.123,0.03 0.093,0.208 0.174,0.35 0.062,0.109 -0.188,0.078 -0.11,0.203 L 0,0 Z" id="path78" style="fill:#ff0000;fill-opacity:1;fill-rule:nonzero;stroke:none"/></g><g id="g80" transform="translate(22.8008,16.3242)"><path d="m 0,0 0.828,0 c 0,0 0.109,0.375 0.281,0.391 0.172,0.015 0.219,-0.375 0.219,-0.375 0,0 0.391,-0.094 0.563,0.015 0.172,0.11 0.593,-0.015 0.265,-0.203 -0.328,-0.187 -0.14,0.203 -0.328,0 C 1.641,-0.375 1.469,-0.453 1.5,-0.531 c 0.031,-0.078 -0.098,-0.14 -0.361,-0.14 -0.264,0 -0.436,0.062 -0.405,0.187 0.032,0.125 -0.172,0.172 -0.406,0.218 C 0.094,-0.219 0,0 0,0" id="path82" style="fill:#f8c600;fill-opacity:1;fill-rule:nonzero;stroke:none"/></g><g id="g84" transform="translate(23.0557,15.3711)"><path d="m 0,0 c -0.063,0.07 -0.223,-0.22 -0.16,-0.424 0.062,-0.203 0.046,-0.394 0.169,-0.363 0.123,0.03 0.093,0.208 0.174,0.35 0.062,0.109 -0.188,0.078 -0.11,0.203 L 0,0 Z" id="path86" style="fill:#ff0000;fill-opacity:1;fill-rule:nonzero;stroke:none"/></g><g id="g88" transform="translate(22.8008,14.6523)"><path d="m 0,0 0.828,0 c 0,0 0.109,0.375 0.281,0.391 0.172,0.015 0.219,-0.375 0.219,-0.375 0,0 0.391,-0.094 0.563,0.015 0.172,0.11 0.593,-0.015 0.265,-0.203 -0.328,-0.187 -0.14,0.203 -0.328,0 C 1.641,-0.375 1.469,-0.453 1.5,-0.531 c 0.031,-0.078 -0.098,-0.14 -0.361,-0.14 -0.264,0 -0.436,0.062 -0.405,0.187 0.032,0.125 -0.172,0.172 -0.406,0.218 C 0.094,-0.219 0,0 0,0" id="path90" style="fill:#f8c600;fill-opacity:1;fill-rule:nonzero;stroke:none"/></g><g id="g92" transform="translate(29.0205,15.3711)"><path d="m 0,0 c -0.064,0.07 -0.223,-0.22 -0.16,-0.424 0.062,-0.203 0.046,-0.394 0.169,-0.363 0.123,0.03 0.093,0.208 0.174,0.35 0.062,0.109 -0.188,0.078 -0.11,0.203 L 0,0 Z" id="path94" style="fill:#ff0000;fill-opacity:1;fill-rule:nonzero;stroke:none"/></g><g id="g96" transform="translate(28.7656,14.6523)"><path d="m 0,0 0.828,0 c 0,0 0.109,0.375 0.281,0.391 0.172,0.015 0.219,-0.375 0.219,-0.375 0,0 0.391,-0.094 0.563,0.015 0.172,0.11 0.593,-0.015 0.265,-0.203 -0.328,-0.187 -0.14,0.203 -0.328,0 C 1.641,-0.375 1.469,-0.453 1.5,-0.531 c 0.031,-0.078 -0.098,-0.14 -0.361,-0.14 -0.264,0 -0.436,0.062 -0.405,0.187 0.032,0.125 -0.172,0.172 -0.406,0.218 C 0.094,-0.219 0,0 0,0" id="path98" style="fill:#f8c600;fill-opacity:1;fill-rule:nonzero;stroke:none"/></g><g id="g100" transform="translate(29.0205,16.9414)"><path d="m 0,0 c -0.064,0.07 -0.223,-0.22 -0.16,-0.424 0.062,-0.203 0.046,-0.394 0.169,-0.363 0.123,0.03 0.093,0.208 0.174,0.35 0.062,0.109 -0.188,0.078 -0.11,0.203 L 0,0 Z" id="path102" style="fill:#ff0000;fill-opacity:1;fill-rule:nonzero;stroke:none"/></g><g id="g104" transform="translate(28.7656,16.2227)"><path d="m 0,0 0.828,0 c 0,0 0.109,0.375 0.281,0.391 0.172,0.015 0.219,-0.375 0.219,-0.375 0,0 0.391,-0.094 0.563,0.015 0.172,0.11 0.593,-0.015 0.265,-0.203 -0.328,-0.187 -0.14,0.203 -0.328,0 C 1.641,-0.375 1.469,-0.453 1.5,-0.531 c 0.031,-0.078 -0.098,-0.14 -0.361,-0.14 -0.264,0 -0.436,0.062 -0.405,0.187 0.032,0.125 -0.172,0.172 -0.406,0.218 C 0.094,-0.219 0,0 0,0" id="path106" style="fill:#f8c600;fill-opacity:1;fill-rule:nonzero;stroke:none"/></g><g id="g108" transform="translate(29.0205,18.5483)"><path d="m 0,0 c -0.064,0.07 -0.223,-0.22 -0.16,-0.424 0.062,-0.203 0.046,-0.394 0.169,-0.363 0.123,0.03 0.093,0.208 0.174,0.35 0.062,0.109 -0.188,0.078 -0.11,0.203 L 0,0 Z" id="path110" style="fill:#ff0000;fill-opacity:1;fill-rule:nonzero;stroke:none"/></g><g id="g112" transform="translate(28.7656,17.8296)"><path d="m 0,0 0.828,0 c 0,0 0.109,0.375 0.281,0.391 0.172,0.015 0.219,-0.375 0.219,-0.375 0,0 0.391,-0.094 0.563,0.015 0.172,0.11 0.593,-0.015 0.265,-0.203 -0.328,-0.187 -0.14,0.203 -0.328,0 C 1.641,-0.375 1.469,-0.453 1.5,-0.531 c 0.031,-0.078 -0.098,-0.14 -0.361,-0.14 -0.264,0 -0.436,0.062 -0.405,0.187 0.032,0.125 -0.172,0.172 -0.406,0.218 C 0.094,-0.219 0,0 0,0" id="path114" style="fill:#f8c600;fill-opacity:1;fill-rule:nonzero;stroke:none"/></g><g id="g116" transform="translate(29.0205,20.1621)"><path d="m 0,0 c -0.064,0.07 -0.223,-0.22 -0.16,-0.424 0.062,-0.203 0.046,-0.394 0.169,-0.363 0.123,0.03 0.093,0.208 0.174,0.35 0.062,0.109 -0.188,0.078 -0.11,0.203 L 0,0 Z" id="path118" style="fill:#ff0000;fill-opacity:1;fill-rule:nonzero;stroke:none"/></g><g id="g120" transform="translate(28.7656,19.4434)"><path d="m 0,0 0.828,0 c 0,0 0.109,0.375 0.281,0.391 0.172,0.015 0.219,-0.375 0.219,-0.375 0,0 0.391,-0.094 0.563,0.015 0.172,0.11 0.593,-0.015 0.265,-0.203 -0.328,-0.187 -0.14,0.203 -0.328,0 C 1.641,-0.375 1.469,-0.453 1.5,-0.531 c 0.031,-0.078 -0.098,-0.14 -0.361,-0.14 -0.264,0 -0.436,0.062 -0.405,0.187 0.032,0.125 -0.172,0.172 -0.406,0.218 C 0.094,-0.219 0,0 0,0" id="path122" style="fill:#f8c600;fill-opacity:1;fill-rule:nonzero;stroke:none"/></g><g id="g124" transform="translate(29.0205,21.8262)"><path d="m 0,0 c -0.064,0.07 -0.223,-0.22 -0.16,-0.424 0.062,-0.203 0.046,-0.394 0.169,-0.363 0.123,0.03 0.093,0.208 0.174,0.35 0.062,0.109 -0.188,0.078 -0.11,0.203 L 0,0 Z" id="path126" style="fill:#ff0000;fill-opacity:1;fill-rule:nonzero;stroke:none"/></g><g id="g128" transform="translate(28.7656,21.1074)"><path d="m 0,0 0.828,0 c 0,0 0.109,0.375 0.281,0.391 0.172,0.015 0.219,-0.375 0.219,-0.375 0,0 0.391,-0.094 0.563,0.015 0.172,0.11 0.593,-0.015 0.265,-0.203 -0.328,-0.187 -0.14,0.203 -0.328,0 C 1.641,-0.375 1.469,-0.453 1.5,-0.531 c 0.031,-0.078 -0.098,-0.14 -0.361,-0.14 -0.264,0 -0.436,0.062 -0.405,0.187 0.032,0.125 -0.172,0.172 -0.406,0.218 C 0.094,-0.219 0,0 0,0" id="path130" style="fill:#f8c600;fill-opacity:1;fill-rule:nonzero;stroke:none"/></g><g id="g132" transform="translate(29.0205,23.5156)"><path d="m 0,0 c -0.064,0.07 -0.223,-0.22 -0.16,-0.424 0.062,-0.203 0.046,-0.394 0.169,-0.363 0.123,0.03 0.093,0.208 0.174,0.35 0.062,0.109 -0.188,0.078 -0.11,0.203 L 0,0 Z" id="path134" style="fill:#ff0000;fill-opacity:1;fill-rule:nonzero;stroke:none"/></g><g id="g136" transform="translate(26.917,9.5312)"><path d="M 0,0 C -1.804,0 -3.495,0.668 -5.156,2.04 -5.331,1.897 -5.554,1.778 -5.814,1.778 c -0.193,0 -0.377,0.068 -0.533,0.198 -0.38,0.316 -0.609,0.778 -0.586,1.177 0.017,0.284 0.154,0.523 0.384,0.672 0.281,0.184 0.694,0.577 0.766,0.694 0.282,0.468 0.605,0.566 0.827,0.566 0.162,0 0.402,-0.054 0.622,-0.31 C -4.315,4.754 -2.267,2.578 0,2.578 c 2.267,0 4.315,2.176 4.334,2.197 0.22,0.256 0.46,0.31 0.622,0.31 0.222,0 0.545,-0.098 0.827,-0.566 C 5.854,4.402 6.268,4.009 6.549,3.825 6.779,3.676 6.916,3.437 6.933,3.153 6.956,2.754 6.727,2.292 6.347,1.976 6.191,1.846 6.007,1.778 5.813,1.778 5.554,1.778 5.331,1.897 5.156,2.04 3.495,0.668 1.804,0 0,0" id="path138" style="fill:#ffffff;fill-opacity:1;fill-rule:nonzero;stroke:none"/></g><g id="g140" transform="translate(28.7656,22.7969)"><path d="m 0,0 0.828,0 c 0,0 0.109,0.375 0.281,0.391 0.172,0.015 0.219,-0.375 0.219,-0.375 0,0 0.391,-0.094 0.563,0.015 0.172,0.11 0.593,-0.015 0.265,-0.203 -0.328,-0.187 -0.14,0.203 -0.328,0 C 1.641,-0.375 1.469,-0.453 1.5,-0.531 c 0.031,-0.078 -0.098,-0.14 -0.361,-0.14 -0.264,0 -0.436,0.062 -0.405,0.187 0.032,0.125 -0.172,0.172 -0.406,0.218 C 0.094,-0.219 0,0 0,0" id="path142" style="fill:#f8c600;fill-opacity:1;fill-rule:nonzero;stroke:none"/></g><g id="g144" transform="translate(33.1934,12.9375)"><path d="m 0,0 c -0.312,0.203 -0.797,0.646 -0.922,0.855 -0.125,0.207 -0.375,0.499 -0.64,0.189 -0.266,-0.31 -2.381,-2.372 -4.714,-2.372 -2.333,0 -4.449,2.062 -4.714,2.372 -0.266,0.31 -0.516,0.018 -0.641,-0.189 C -11.756,0.646 -12.24,0.203 -12.553,0 c -0.312,-0.203 -0.125,-0.734 0.25,-1.047 0.375,-0.312 0.828,0.375 0.828,0.375 1.297,-1.156 2.985,-2.234 5.199,-2.234 2.214,0 3.901,1.078 5.198,2.234 0,0 0.453,-0.687 0.828,-0.375 C 0.125,-0.734 0.312,-0.203 0,0" id="path146" style="fill:#f8c600;fill-opacity:1;fill-rule:nonzero;stroke:none"/></g><g id="g148" transform="translate(19,31)"><path d="m 0,0 -15,0 c -2.209,0 -4,-1.791 -4,-4 l 0,-9 19,0 0,13 z" id="path150" style="fill:#00247d;fill-opacity:1;fill-rule:nonzero;stroke:none"/></g><g id="g152" transform="translate(19,18)"><path d="M 0,0 0,2.029 -7.1,7 -12.329,7 -2.332,0 0,0 Z" id="path154" style="fill:#eeeeee;fill-opacity:1;fill-rule:nonzero;stroke:none"/></g><g id="g156" transform="translate(19,19.418)"><path d="m 0,0 -7.971,5.582 -1.743,0 L 0,-1.22 0,0 Z" id="path158" style="fill:#cf1b2b;fill-opacity:1;fill-rule:nonzero;stroke:none"/></g><g id="g160" transform="translate(8.0996,25)"><path d="M 0,0 -8.1,-5.766 -8.1,-7 -4.768,-7 5.23,0 0,0 Z" id="path162" style="fill:#eeeeee;fill-opacity:1;fill-rule:nonzero;stroke:none"/></g><g id="g164" transform="translate(10.7139,25)"><path d="m 0,0 -9.98,-7 0.266,0 1.461,0 L 1.744,0 0,0 Z" id="path166" style="fill:#cf1b2b;fill-opacity:1;fill-rule:nonzero;stroke:none"/></g><g id="g168" transform="translate(16.6689,31)"><path d="m 0,0 -9.997,-7 5.229,0 7.099,4.971 L 2.331,0 0,0 Z" id="path170" style="fill:#eeeeee;fill-opacity:1;fill-rule:nonzero;stroke:none"/></g><g id="g172" transform="translate(17.5391,31)"><path d="m 0,0 -9.996,-7 1.743,0 9.714,6.802 L 1.461,0 0,0 Z" id="path174" style="fill:#cf1b2b;fill-opacity:1;fill-rule:nonzero;stroke:none"/></g></g></g><g id="g176"><g clip-path="url(#clipPath180)" id="g178"><g id="g184" transform="translate(10,24)"><path d="M 0,0 3.328,0 -6.668,7 -9,7 -9.625,5.406 0,-1.331 0,0 Z" id="path186" style="fill:#eeeeee;fill-opacity:1;fill-rule:nonzero;stroke:none"/></g><g id="g188" transform="translate(10,24)"><path d="M 0,0 0.714,0 -9,6.802 -9.5,5.937 0,-0.722 0,0 Z" id="path190" style="fill:#cf1b2b;fill-opacity:1;fill-rule:nonzero;stroke:none"/></g></g></g><g id="g192"><g clip-path="url(#clipPath196)" id="g194"><g id="g200" transform="translate(19,27)"><path d="m 0,0 -7,0 0,4 -5,0 0,-4 -7,0 0,-5 7,0 0,-4 5,0 0,4 7,0 0,5 z" id="path202" style="fill:#eeeeee;fill-opacity:1;fill-rule:nonzero;stroke:none"/></g><path d="m 11,18 -3,0 0,13 3,0 0,-13 z" id="path204" style="fill:#cf1b2b;fill-opacity:1;fill-rule:nonzero;stroke:none"/><path d="m 19,23 -19,0 0,3 19,0 0,-3 z" id="path206" style="fill:#cf1b2b;fill-opacity:1;fill-rule:nonzero;stroke:none"/></g></g></g></svg>