<?xml version="1.0" encoding="UTF-8" standalone="no"?><svg xmlns="http://www.w3.org/2000/svg" xmlns:cc="http://creativecommons.org/ns#" xmlns:dc="http://purl.org/dc/elements/1.1/" xmlns:rdf="http://www.w3.org/1999/02/22-rdf-syntax-ns#" xmlns:svg="http://www.w3.org/2000/svg" height="45" id="svg2" style="enable-background:new 0 0 45 45;" version="1.1" viewBox="0 0 45 45" width="45" xml:space="preserve"><metadata id="metadata8"><rdf:RDF><cc:Work rdf:about=""><dc:format>image/svg+xml</dc:format><dc:type rdf:resource="http://purl.org/dc/dcmitype/StillImage"/></cc:Work></rdf:RDF></metadata><defs id="defs6"><clipPath clipPathUnits="userSpaceOnUse" id="clipPath16"><path d="M 0,36 36,36 36,0 0,0 0,36 Z" id="path18"/></clipPath></defs><g id="g10" transform="matrix(1.25,0,0,-1.25,0,45)"><g id="g12"><g clip-path="url(#clipPath16)" id="g14"><g id="g20" transform="translate(4.167,3.2705)"><path d="m 0,0 c 0.292,-0.167 0.626,-0.27 0.987,-0.27 1.105,0 2,0.895 2,2 0,1.104 -0.895,2 -2,2 -1.104,0 -2,-0.896 -2,-2 0,-0.362 0.104,-0.696 0.271,-0.988 l -3.147,-3.146 0.876,7.134 9,7 5,-5 -7,-9 L -3.146,-3.146 0,0 Z" id="path22" style="fill:#99aab5;fill-opacity:1;fill-rule:nonzero;stroke:none"/></g><g id="g24" transform="translate(22.5107,30.6919)"><path d="m 0,0 c -1.151,-1.151 -1.151,-3.016 0,-4.167 l 4.167,-4.167 c 1.151,-1.151 3.017,-1.151 4.167,0 l 4.168,4.167 c 1.15,1.151 1.15,3.016 0,4.167 L 8.334,4.167 c -1.15,1.151 -3.016,1.151 -4.167,0 L 0,0 Z" id="path26" style="fill:#66757f;fill-opacity:1;fill-rule:nonzero;stroke:none"/></g><g id="g28" transform="translate(9.5107,17.6914)"><path d="M 0,0 17.202,17.203 25.536,8.868 8.334,-8.334 c -1.15,-1.15 -3.016,-1.15 -4.168,0 L 0,-4.166 C -1.15,-3.016 -1.15,-1.15 0,0" id="path30" style="fill:#292f33;fill-opacity:1;fill-rule:nonzero;stroke:none"/></g><g id="g32" transform="translate(19.5942,27.7754)"><path d="M 0,0 8.334,-8.334 6.209,-10.46 -2.125,-2.124 0,0 Z" id="path34" style="fill:#66757f;fill-opacity:1;fill-rule:nonzero;stroke:none"/></g></g></g></g></svg>