<?xml version="1.0" encoding="UTF-8" standalone="no"?><svg xmlns="http://www.w3.org/2000/svg" xmlns:cc="http://creativecommons.org/ns#" xmlns:dc="http://purl.org/dc/elements/1.1/" xmlns:rdf="http://www.w3.org/1999/02/22-rdf-syntax-ns#" xmlns:svg="http://www.w3.org/2000/svg" height="45" id="svg2" style="enable-background:new 0 0 45 45;" version="1.1" viewBox="0 0 45 45" width="45" xml:space="preserve"><metadata id="metadata8"><rdf:RDF><cc:Work rdf:about=""><dc:format>image/svg+xml</dc:format><dc:type rdf:resource="http://purl.org/dc/dcmitype/StillImage"/></cc:Work></rdf:RDF></metadata><defs id="defs6"><clipPath clipPathUnits="userSpaceOnUse" id="clipPath48"><path d="M 0,36 36,36 36,0 0,0 0,36 Z" id="path50"/></clipPath></defs><g id="g10" transform="matrix(1.25,0,0,-1.25,0,45)"><g id="g12" transform="translate(31,24)"><path d="M 0,0 -4,0 -3,5 0,5 0,0 Z" id="path14" style="fill:#dd2e44;fill-opacity:1;fill-rule:nonzero;stroke:none"/></g><g id="g16" transform="translate(33,24)"><path d="M 0,0 -8,0 -7.113,3 -0.59,3 0,0 Z" id="path18" style="fill:#ccd6dd;fill-opacity:1;fill-rule:nonzero;stroke:none"/></g><g id="g20" transform="translate(8.3421,27)"><path d="m 0,0 -0.342,-1 1,0 -0.45,-1 -1.179,0 -0.371,-1 1,0 -2,-6 28.531,0 0.454,0.968 -0.386,3.032 0.984,0 -0.182,1 -1,0 -0.401,2 -2,0 -14,0 -1,2 L 0,0 Z" id="path22" style="fill:#ccd6dd;fill-opacity:1;fill-rule:nonzero;stroke:none"/></g><g id="g24" transform="translate(15,26)"><path d="M 0,0 -4,0 -3,3 0,3 0,0 Z" id="path26" style="fill:#ccd6dd;fill-opacity:1;fill-rule:nonzero;stroke:none"/></g><g id="g28" transform="translate(9,26.0001)"><path d="M 0,0 -0.45,-1 5.291,-1 5,0 0,0 Z" id="path30" style="fill:#226699;fill-opacity:1;fill-rule:nonzero;stroke:none"/></g><g id="g32" transform="translate(8.7498,24.0003)"><path d="M 0,0 -0.328,-1 26.626,-1 26.45,0 0,0 Z" id="path34" style="fill:#226699;fill-opacity:1;fill-rule:nonzero;stroke:none"/></g><g id="g36" transform="translate(8.0937,21.9996)"><path d="M 0,0 -0.344,-1 26.625,-1 26.506,0 0,0 Z" id="path38" style="fill:#226699;fill-opacity:1;fill-rule:nonzero;stroke:none"/></g><g id="g40" transform="translate(7.4502,19.9998)"><path d="M 0,0 -0.325,-1 27.55,-1 27.425,0 0,0 Z" id="path42" style="fill:#226699;fill-opacity:1;fill-rule:nonzero;stroke:none"/></g><g id="g44"><g clip-path="url(#clipPath48)" id="g46"><g id="g52" transform="translate(33,12.0361)"><path d="m 0,0 c 0,0 2,2.964 2,6.964 l -34,0 c 1,-2 4,-3 5,-5.818 C -24.728,-5.254 0,0 0,0" id="path54" style="fill:#226699;fill-opacity:1;fill-rule:nonzero;stroke:none"/></g><g id="g56" transform="translate(4.9365,15)"><path d="m 0,0 29.417,0 c 0.358,1.114 0.646,2.481 0.646,4 l -34,0 C -3.187,2.5 -1.312,1.562 0,0" id="path58" style="fill:#ccd6dd;fill-opacity:1;fill-rule:nonzero;stroke:none"/></g><path d="M 36,12 0,12 0,0 36,0 36,12 Z" id="path60" style="fill:#55acee;fill-opacity:1;fill-rule:nonzero;stroke:none"/><g id="g62" transform="translate(16,18)"><path d="M 0,0 0,-0.229 C 0,-0.655 0.345,-1 0.771,-1 l 1.458,0 C 2.655,-1 3,-0.655 3,-0.229 L 3,0 0,0 Z" id="path64" style="fill:#ffac33;fill-opacity:1;fill-rule:nonzero;stroke:none"/></g><g id="g66" transform="translate(19,18)"><path d="M 0,0 0,-0.229 C 0,-0.655 0.346,-1 0.771,-1 l 1.458,0 C 2.654,-1 3,-0.655 3,-0.229 L 3,0 0,0 Z" id="path68" style="fill:#ffac33;fill-opacity:1;fill-rule:nonzero;stroke:none"/></g><g id="g70" transform="translate(22,18)"><path d="M 0,0 0,-0.229 C 0,-0.655 0.346,-1 0.771,-1 l 1.458,0 C 2.654,-1 3,-0.655 3,-0.229 L 3,0 0,0 Z" id="path72" style="fill:#ffac33;fill-opacity:1;fill-rule:nonzero;stroke:none"/></g><g id="g74" transform="translate(26,18)"><path d="M 0,0 0,-0.229 C 0,-0.655 0.346,-1 0.771,-1 l 1.458,0 C 2.654,-1 3,-0.655 3,-0.229 L 3,0 0,0 Z" id="path76" style="fill:#ffac33;fill-opacity:1;fill-rule:nonzero;stroke:none"/></g><g id="g78" transform="translate(29,18)"><path d="M 0,0 0,-0.229 C 0,-0.655 0.346,-1 0.771,-1 l 1.458,0 C 2.654,-1 3,-0.655 3,-0.229 L 3,0 0,0 Z" id="path80" style="fill:#ffac33;fill-opacity:1;fill-rule:nonzero;stroke:none"/></g></g></g></g></svg>