<?xml version="1.0" encoding="UTF-8" standalone="no"?><svg xmlns="http://www.w3.org/2000/svg" xmlns:cc="http://creativecommons.org/ns#" xmlns:dc="http://purl.org/dc/elements/1.1/" xmlns:rdf="http://www.w3.org/1999/02/22-rdf-syntax-ns#" xmlns:svg="http://www.w3.org/2000/svg" height="45" id="svg2" style="enable-background:new 0 0 45 45;" version="1.1" viewBox="0 0 45 45" width="45" xml:space="preserve"><metadata id="metadata8"><rdf:RDF><cc:Work rdf:about=""><dc:format>image/svg+xml</dc:format><dc:type rdf:resource="http://purl.org/dc/dcmitype/StillImage"/></cc:Work></rdf:RDF></metadata><defs id="defs6"><clipPath clipPathUnits="userSpaceOnUse" id="clipPath16"><path d="M 0,36 36,36 36,0 0,0 0,36 Z" id="path18"/></clipPath></defs><g id="g10" transform="matrix(1.25,0,0,-1.25,0,45)"><g id="g12"><g clip-path="url(#clipPath16)" id="g14"><g id="g20" transform="translate(32,24)"><path d="m 0,0 c 2.122,2.122 5,-14.313 -3,-21 -2.757,-2.305 -6,-2.969 -8,-2.969 -2.371,0 -10.029,-0.031 -13,-0.031 -7.18,0 -8,4.925 -8,11 0,6.075 0.82,11 8,11 6,0 10,-2 13,-3.996 4.977,-3.312 5.992,-3.861 8,-2.004 3.213,2.97 1,6 3,8" id="path22" style="fill:#744eaa;fill-opacity:1;fill-rule:nonzero;stroke:none"/></g><g id="g24" transform="translate(34.0029,13)"><path d="m 0,0 c -0.465,-3.727 -2.041,-7.523 -5.003,-10 -2.757,-2.305 -6,-2.969 -8,-2.969 -2.371,0 -10.029,-0.031 -13,-0.031 -4.035,0 -6.061,1.555 -7.062,3.996 -0.781,1.902 3.062,-0.996 14.062,-0.996 14,0 17,5 19.003,10" id="path26" style="fill:#aa8dd8;fill-opacity:1;fill-rule:nonzero;stroke:none"/></g><g id="g28" transform="translate(32,22)"><path d="M 0,0 C 4.123,0 4,5 4,7 4,9 2,6 -1,5 -4,4 -8,7 -7,5 -6,3 -4,0 0,0" id="path30" style="fill:#744eaa;fill-opacity:1;fill-rule:nonzero;stroke:none"/></g><g id="g32" transform="translate(10,29)"><path d="m 0,0 c 0,-2.209 -0.895,-6 -2,-6 -1.104,0 -2,3.791 -2,6 0,2.209 0.896,2 2,2 1.105,0 2,0.209 2,-2" id="path34" style="fill:#55acee;fill-opacity:1;fill-rule:nonzero;stroke:none"/></g><g id="g36" transform="translate(8,31)"><path d="m 0,0 c 0,3 -6,2 -6,0 0,-2 3,-1 4,-3 1,-2 2,3 2,3" id="path38" style="fill:#55acee;fill-opacity:1;fill-rule:nonzero;stroke:none"/></g><g id="g40" transform="translate(8,31)"><path d="M 0,0 C 0,3 6,2 6,0 6,-2 3,-1 2,-3 1,-5 0,0 0,0" id="path42" style="fill:#55acee;fill-opacity:1;fill-rule:nonzero;stroke:none"/></g><g id="g44" transform="translate(8,10.5)"><path d="M 0,0 C 0,-0.828 -0.671,-1.5 -1.5,-1.5 -2.329,-1.5 -3,-0.828 -3,0 -3,0.828 -2.329,1.5 -1.5,1.5 -0.671,1.5 0,0.828 0,0" id="path46" style="fill:#292f33;fill-opacity:1;fill-rule:nonzero;stroke:none"/></g></g></g></g></svg>