<?xml version="1.0" encoding="UTF-8" standalone="no"?><svg xmlns="http://www.w3.org/2000/svg" xmlns:cc="http://creativecommons.org/ns#" xmlns:dc="http://purl.org/dc/elements/1.1/" xmlns:rdf="http://www.w3.org/1999/02/22-rdf-syntax-ns#" xmlns:svg="http://www.w3.org/2000/svg" height="45" id="svg2" style="enable-background:new 0 0 45 45;" version="1.1" viewBox="0 0 45 45" width="45" xml:space="preserve"><metadata id="metadata8"><rdf:RDF><cc:Work rdf:about=""><dc:format>image/svg+xml</dc:format><dc:type rdf:resource="http://purl.org/dc/dcmitype/StillImage"/></cc:Work></rdf:RDF></metadata><defs id="defs6"><clipPath clipPathUnits="userSpaceOnUse" id="clipPath16"><path d="M 0,36 36,36 36,0 0,0 0,36 Z" id="path18"/></clipPath></defs><g id="g10" transform="matrix(1.25,0,0,-1.25,0,45)"><g id="g12"><g clip-path="url(#clipPath16)" id="g14"><g id="g20" transform="translate(31,6.5)"><path d="M 0,0 C 0,-0.828 -0.672,-1.5 -1.5,-1.5 -2.328,-1.5 -3,-0.828 -3,0 l 0,24 c 0,0.829 0.672,1.5 1.5,1.5 C -0.672,25.5 0,24.829 0,24 L 0,0 Z" id="path22" style="fill:#ccd6dd;fill-opacity:1;fill-rule:nonzero;stroke:none"/></g><g id="g24" transform="translate(34.8818,4)"><path d="m 0,0 c 0.037,0.164 0.062,0.33 0.062,0.5 0,1.933 -2.462,3.5 -5.499,3.5 -3.038,0 -5.501,-1.567 -5.501,-3.5 0,-0.17 0.026,-0.336 0.063,-0.5 L 0,0 Z" id="path26" style="fill:#ccd6dd;fill-opacity:1;fill-rule:nonzero;stroke:none"/></g><g id="g28" transform="translate(35.9443,27)"><path d="m 0,0 c 0.334,-1.125 -0.896,-2 -2,-2 l -9,0 c -1.105,0 -2.291,1 -2,2 l 2,7 c 0.25,1.083 0.895,2 2,2 l 5,0 c 1.104,0 1.75,-1.125 2,-2 L 0,0 Z" id="path30" style="fill:#fcab40;fill-opacity:1;fill-rule:nonzero;stroke:none"/></g><g id="g32" transform="translate(29.0059,6.8994)"><path d="m 0,0 c 0,-1.215 -1.017,-2.199 -2.271,-2.199 l -20.439,0 c -1.254,0 -2.271,0.984 -2.271,2.199 l 0,9.9 c 0,1.215 1.017,2.201 2.271,2.201 l 10.735,0 9.704,0 C -1.017,12.101 0,11.115 0,9.9 L 0,0 Z" id="path34" style="fill:#5d9040;fill-opacity:1;fill-rule:nonzero;stroke:none"/></g><g id="g36" transform="translate(27.5,4.7002)"><path d="m 0,0 c 0,-1.215 -0.985,-2.2 -2.2,-2.2 l -18.7,0 c -1.215,0 -2.2,0.985 -2.2,2.2 l 0,1.1 c 0,1.214 0.985,2.2 2.2,2.2 l 18.7,0 C -0.985,3.3 0,2.314 0,1.1 L 0,0 Z" id="path38" style="fill:#3f7123;fill-opacity:1;fill-rule:nonzero;stroke:none"/></g><g id="g40" transform="translate(29,16.875)"><path d="m 0,0 c 0,-3.383 -5.589,-6.125 -12.484,-6.125 -6.895,0 -12.485,2.742 -12.485,6.125 0,3.382 5.59,6.125 12.485,6.125 C -5.589,6.125 0,3.382 0,0" id="path42" style="fill:#5d9040;fill-opacity:1;fill-rule:nonzero;stroke:none"/></g><g id="g44" transform="translate(6.6001,12.3994)"><path d="m 0,0 c 0,-1.822 -1.478,-3.3 -3.3,-3.3 -1.823,0 -3.3,1.478 -3.3,3.3 0,1.823 1.477,3.301 3.3,3.301 C -1.478,3.301 0,1.823 0,0" id="path46" style="fill:#78b159;fill-opacity:1;fill-rule:nonzero;stroke:none"/></g><g id="g48" transform="translate(6.6001,2.5)"><path d="m 0,0 c 0,-1.215 -0.985,-2.2 -2.2,-2.2 -1.215,0 -2.2,0.985 -2.2,2.2 l 0,9.899 c 0,1.215 0.985,2.201 2.2,2.201 1.215,0 2.2,-0.986 2.2,-2.201 L 0,0 Z" id="path50" style="fill:#78b159;fill-opacity:1;fill-rule:nonzero;stroke:none"/></g><g id="g52" transform="translate(26.4004,12.3994)"><path d="M 0,0 C 0,-1.822 1.477,-3.3 3.3,-3.3 5.121,-3.3 6.6,-1.822 6.6,0 6.6,1.823 5.121,3.301 3.3,3.301 1.477,3.301 0,1.823 0,0" id="path54" style="fill:#78b159;fill-opacity:1;fill-rule:nonzero;stroke:none"/></g><g id="g56" transform="translate(26.4004,2.5)"><path d="m 0,0 c 0,-1.215 0.984,-2.2 2.199,-2.2 1.215,0 2.2,0.985 2.2,2.2 l 0,9.899 c 0,1.215 -0.985,2.201 -2.2,2.201 C 0.984,12.1 0,11.114 0,9.899 L 0,0 Z" id="path58" style="fill:#78b159;fill-opacity:1;fill-rule:nonzero;stroke:none"/></g><g id="g60" transform="translate(16.5,8)"><path d="m 0,0 c 0,-1.215 -0.985,-2.2 -2.2,-2.2 l -5.5,0 c -1.215,0 -2.2,0.985 -2.2,2.2 0,1.215 0.985,2.2 2.2,2.2 l 5.5,0 C -0.985,2.2 0,1.215 0,0" id="path62" style="fill:#78b159;fill-opacity:1;fill-rule:nonzero;stroke:none"/></g><g id="g64" transform="translate(26.4004,8)"><path d="m 0,0 c 0,-1.215 -0.985,-2.2 -2.2,-2.2 l -5.5,0 c -1.216,0 -2.2,0.985 -2.2,2.2 0,1.215 0.984,2.2 2.2,2.2 l 5.5,0 C -0.985,2.2 0,1.215 0,0" id="path66" style="fill:#78b159;fill-opacity:1;fill-rule:nonzero;stroke:none"/></g><path d="M 27,5 6,5 6,8 27,8 27,5 Z" id="path68" style="fill:#78b159;fill-opacity:1;fill-rule:nonzero;stroke:none"/></g></g></g></svg>