<?xml version="1.0" encoding="UTF-8" standalone="no"?><svg xmlns="http://www.w3.org/2000/svg" xmlns:cc="http://creativecommons.org/ns#" xmlns:dc="http://purl.org/dc/elements/1.1/" xmlns:rdf="http://www.w3.org/1999/02/22-rdf-syntax-ns#" xmlns:svg="http://www.w3.org/2000/svg" height="45" id="svg2" style="enable-background:new 0 0 45 45;" version="1.1" viewBox="0 0 45 45" width="45" xml:space="preserve"><metadata id="metadata8"><rdf:RDF><cc:Work rdf:about=""><dc:format>image/svg+xml</dc:format><dc:type rdf:resource="http://purl.org/dc/dcmitype/StillImage"/></cc:Work></rdf:RDF></metadata><defs id="defs6"><clipPath clipPathUnits="userSpaceOnUse" id="clipPath16"><path d="M 0,36 36,36 36,0 0,0 0,36 Z" id="path18"/></clipPath><clipPath clipPathUnits="userSpaceOnUse" id="clipPath28"><path d="M 11,36 C 9.896,36 9,35.105 9,34 l 0,0 0,-11 c 0,0 0,-1 1,-2 l 0,0 7,-5.444 L 17,15 c 0,-0.104 -0.104,-1 1,-1 l 0,0 c 1.104,0 1,0.896 1,1 l 0,0 0,0.556 7,5.444 c 1,1 1,2 1,2 l 0,0 0,11 c 0,1.105 -0.895,2 -2,2 l 0,0 -14,0 z" id="path30"/></clipPath><clipPath clipPathUnits="userSpaceOnUse" id="clipPath40"><path d="M 0,36 36,36 36,0 0,0 0,36 Z" id="path42"/></clipPath></defs><g id="g10" transform="matrix(1.25,0,0,-1.25,0,45)"><g id="g12"><g clip-path="url(#clipPath16)" id="g14"><g id="g20" transform="translate(25,36)"><path d="m 0,0 -7,0 -7,0 c -1.104,0 -2,-0.896 -2,-2 l 0,-11 c 0,0 0,-1 1,-2 l 7,-5.444 0,-0.556 c 0,-0.104 -0.104,-1 1,-1 1.105,0 1,0.896 1,1 l 0,0.556 7,5.444 c 1,1 1,2 1,2 L 2,-2 C 2,-0.896 1.105,0 0,0" id="path22" style="fill:#55acee;fill-opacity:1;fill-rule:nonzero;stroke:none"/></g></g></g><g id="g24"><g clip-path="url(#clipPath28)" id="g26"><path d="m 24,16 -12,0 0,20 12,0 0,-20 z" id="path32" style="fill:#e1e8ed;fill-opacity:1;fill-rule:nonzero;stroke:none"/><path d="m 22,16 -8,0 0,20 8,0 0,-20 z" id="path34" style="fill:#dd2e44;fill-opacity:1;fill-rule:nonzero;stroke:none"/></g></g><g id="g36"><g clip-path="url(#clipPath40)" id="g38"><g id="g44" transform="translate(22,15.5)"><path d="m 0,0 c 0,-0.828 -0.672,-1.5 -1.5,-1.5 l -5,0 c -0.829,0 -1.5,0.672 -1.5,1.5 0,0.828 0.671,1.5 1.5,1.5 l 5,0 C -0.672,1.5 0,0.828 0,0" id="path46" style="fill:#ffac33;fill-opacity:1;fill-rule:nonzero;stroke:none"/></g><g id="g48" transform="translate(26,8)"><path d="m 0,0 c 0,-4.418 -3.582,-8 -8,-8 -4.419,0 -8,3.582 -8,8 0,4.418 3.581,8 8,8 4.418,0 8,-3.582 8,-8" id="path50" style="fill:#ffac33;fill-opacity:1;fill-rule:nonzero;stroke:none"/></g><g id="g52" transform="translate(24,8)"><path d="m 0,0 c 0,-3.314 -2.686,-6 -6,-6 -3.314,0 -6,2.686 -6,6 0,3.314 2.686,6 6,6 3.314,0 6,-2.686 6,-6" id="path54" style="fill:#ffd983;fill-opacity:1;fill-rule:nonzero;stroke:none"/></g></g></g></g></svg>