<?xml version="1.0" encoding="UTF-8" standalone="no"?><svg xmlns="http://www.w3.org/2000/svg" xmlns:cc="http://creativecommons.org/ns#" xmlns:dc="http://purl.org/dc/elements/1.1/" xmlns:rdf="http://www.w3.org/1999/02/22-rdf-syntax-ns#" xmlns:svg="http://www.w3.org/2000/svg" height="45" id="svg2" style="enable-background:new 0 0 45 45;" version="1.1" viewBox="0 0 45 45" width="45" xml:space="preserve"><metadata id="metadata8"><rdf:RDF><cc:Work rdf:about=""><dc:format>image/svg+xml</dc:format><dc:type rdf:resource="http://purl.org/dc/dcmitype/StillImage"/></cc:Work></rdf:RDF></metadata><defs id="defs6"><clipPath clipPathUnits="userSpaceOnUse" id="clipPath16"><path d="M 0,36 36,36 36,0 0,0 0,36 Z" id="path18"/></clipPath></defs><g id="g10" transform="matrix(1.25,0,0,-1.25,0,45)"><g id="g12"><g clip-path="url(#clipPath16)" id="g14"><g id="g20" transform="translate(28,14)"><path d="m 0,0 c -0.553,0 -1,0.447 -1,1 l 0,6 c 0,6.065 -4.037,11 -9,11 -4.962,0 -9,-4.935 -9,-11 l 0,-6 c 0,-0.553 -0.448,-1 -1,-1 -0.552,0 -1,0.447 -1,1 l 0,6 c 0,7.168 4.935,13 11,13 C -3.935,20 1,14.168 1,7 L 1,1 C 1,0.447 0.553,0 0,0" id="path22" style="fill:#ffac33;fill-opacity:1;fill-rule:nonzero;stroke:none"/></g><g id="g24" transform="translate(33.3857,23.0278)"><path d="m 0,0 c -0.26,2.185 -2.271,3.972 -4.472,3.972 l -21.828,0 c -2.2,0 -4.212,-1.787 -4.471,-3.972 l -2.143,-18.056 c -0.26,-2.185 1.328,-3.972 3.528,-3.972 l 28,0 c 2.2,0 3.788,1.787 3.529,3.972 L 0,0 Z" id="path26" style="fill:#9266cc;fill-opacity:1;fill-rule:nonzero;stroke:none"/></g><g id="g28" transform="translate(28,16)"><path d="m 0,0 c -0.553,0 -1,0.447 -1,1 l 0,6 c 0,6.065 -4.037,11 -9,11 -4.962,0 -9,-4.935 -9,-11 l 0,-6 c 0,-0.553 -0.448,-1 -1,-1 -0.552,0 -1,0.447 -1,1 l 0,6 c 0,7.168 4.935,13 11,13 C -3.935,20 1,14.168 1,7 L 1,1 C 1,0.447 0.553,0 0,0" id="path30" style="fill:#ffd983;fill-opacity:1;fill-rule:nonzero;stroke:none"/></g></g></g></g></svg>