<?xml version="1.0" encoding="UTF-8" standalone="no"?><svg xmlns="http://www.w3.org/2000/svg" xmlns:cc="http://creativecommons.org/ns#" xmlns:dc="http://purl.org/dc/elements/1.1/" xmlns:rdf="http://www.w3.org/1999/02/22-rdf-syntax-ns#" xmlns:svg="http://www.w3.org/2000/svg" height="45" id="svg2" style="enable-background:new 0 0 45 45;" version="1.1" viewBox="0 0 45 45" width="45" xml:space="preserve"><metadata id="metadata8"><rdf:RDF><cc:Work rdf:about=""><dc:format>image/svg+xml</dc:format><dc:type rdf:resource="http://purl.org/dc/dcmitype/StillImage"/></cc:Work></rdf:RDF></metadata><defs id="defs6"><clipPath clipPathUnits="userSpaceOnUse" id="clipPath16"><path d="M 0,36 36,36 36,0 0,0 0,36 Z" id="path18"/></clipPath><clipPath clipPathUnits="userSpaceOnUse" id="clipPath36"><path d="M 7,22 C 4,22 0,17.625 0,15.625 l 0,0 C 0,13.625 2,12 2,12 l 0,0 c 0,0 2.171,1 5,1 l 0,0 3,0 1,-10 C 11,3 10,2 9,2 L 9,2 C 8,2 8,0 8,0 l 0,0 6,0 1,8 3,0 c 2,0 6,1 6,1 l 0,0 C 26,6 28,5 28,5 L 28,5 28,3 26,2 C 24,1 25,0 25,0 l 0,0 6,0 c 0,0 1,8 2,13 l 0,0 c 1,5 0,6 -2,7 l 0,0 c -2,1 -5,0 -9,0 l 0,0 c -2,0 -3.901,3 -9,3 l 0,0 c -1,0 -3,-1 -6,-1" id="path38"/></clipPath></defs><g id="g10" transform="matrix(1.25,0,0,-1.25,0,45)"><g id="g12"><g clip-path="url(#clipPath16)" id="g14"><g id="g20" transform="translate(32.3379,19.1479)"><path d="m 0,0 c -0.367,0.33 -0.818,0.592 -1.338,0.852 -2,1 -5,0 -9,0 -2,0 -3.901,3 -9,3 -0.801,0 -2.256,-0.635 -4.341,-0.89 -0.039,1.053 -0.614,1.89 -1.326,1.89 -0.736,0 -1.333,-0.895 -1.333,-2 0,-0.051 0.007,-0.099 0.01,-0.15 -2.819,-0.766 -6.01,-4.439 -6.01,-6.225 0,-2 2,-3.625 2,-3.625 0,0 2.171,1 5,1 l 3,0 1,-10 c 0,0 -1,-1 -2,-1 -1,0 -1,-2 -1,-2 l 6,0 1,8 3,0 c 2,0 6,1 6,1 2,-3 4,-4 4,-4 l 0,-2 -2,-1 c -2,-1 -1,-2 -1,-2 l 6,0 c 0,0 1,8 2,13 0.233,1.162 0.353,2.101 0.382,2.881 0.396,-0.549 0.618,-1.183 0.618,-1.881 0,-2.93 0,-5.697 -1.832,-8.445 -0.307,-0.46 -0.183,-1.08 0.277,-1.387 0.171,-0.113 0.364,-0.168 0.554,-0.168 0.323,0 0.641,0.156 0.833,0.445 2.168,3.252 2.168,6.456 2.168,9.555 C 3.662,-2.851 2.267,-1.011 0,0" id="path22" style="fill:#ffac33;fill-opacity:1;fill-rule:nonzero;stroke:none"/></g><g id="g24" transform="translate(6,19)"><path d="m 0,0 c 0,-0.552 -0.448,-1 -1,-1 -0.552,0 -1,0.448 -1,1 0,0.552 0.448,1 1,1 0.552,0 1,-0.448 1,-1" id="path26" style="fill:#292f33;fill-opacity:1;fill-rule:nonzero;stroke:none"/></g><g id="g28" transform="translate(0,16)"><path d="M 0,0 C 0,0 0,-2 1,-2 1,0 2,0 2,0 2,0 1,1 0,0" id="path30" style="fill:#292f33;fill-opacity:1;fill-rule:nonzero;stroke:none"/></g></g></g><g id="g32"><g clip-path="url(#clipPath36)" id="g34"><g id="g40" transform="translate(16,23)"><path d="M 0,0 C 0,0 2,-6 0,-12 3,-8 3,0 3,0 3,0 1,1 0,0" id="path42" style="fill:#292f33;fill-opacity:1;fill-rule:nonzero;stroke:none"/></g><g id="g44" transform="translate(19,22)"><path d="M 0,0 C 0,0 2,-4 1,-9 3,-6 3,0 3,0 3,0 1,1 0,0" id="path46" style="fill:#292f33;fill-opacity:1;fill-rule:nonzero;stroke:none"/></g><g id="g48" transform="translate(22,23)"><path d="M 0,0 C 0,0 2,-4 1,-9 3,-6 3,0 3,0 3,0 1,1 0,0" id="path50" style="fill:#292f33;fill-opacity:1;fill-rule:nonzero;stroke:none"/></g><g id="g52" transform="translate(25,24)"><path d="M 0,0 C 0,0 2,-4 1,-9 3,-6 3,0 3,0 3,0 1,1 0,0" id="path54" style="fill:#292f33;fill-opacity:1;fill-rule:nonzero;stroke:none"/></g><g id="g56" transform="translate(28,21.5557)"><path d="M 0,0 C 0,0 2,-4 1,-9 3,-6 3,0 3,0 3,0 1,1 0,0" id="path58" style="fill:#292f33;fill-opacity:1;fill-rule:nonzero;stroke:none"/></g><g id="g60" transform="translate(12,24)"><path d="M 0,0 C 0,0 2,-4 1,-9 3,-6 3,0 3,0 3,0 1,1 0,0" id="path62" style="fill:#292f33;fill-opacity:1;fill-rule:nonzero;stroke:none"/></g></g></g></g></svg>