<?xml version="1.0" encoding="UTF-8" standalone="no"?><svg xmlns="http://www.w3.org/2000/svg" xmlns:cc="http://creativecommons.org/ns#" xmlns:dc="http://purl.org/dc/elements/1.1/" xmlns:rdf="http://www.w3.org/1999/02/22-rdf-syntax-ns#" xmlns:svg="http://www.w3.org/2000/svg" height="45" id="svg2" style="enable-background:new 0 0 45 45;" version="1.1" viewBox="0 0 45 45" width="45" xml:space="preserve"><metadata id="metadata8"><rdf:RDF><cc:Work rdf:about=""><dc:format>image/svg+xml</dc:format><dc:type rdf:resource="http://purl.org/dc/dcmitype/StillImage"/></cc:Work></rdf:RDF></metadata><defs id="defs6"><clipPath clipPathUnits="userSpaceOnUse" id="clipPath16"><path d="M 0,36 36,36 36,0 0,0 0,36 Z" id="path18"/></clipPath></defs><g id="g10" transform="matrix(1.25,0,0,-1.25,0,45)"><g id="g12"><g clip-path="url(#clipPath16)" id="g14"><g id="g20" transform="translate(10.9995,36)"><path d="M 0,0 C -1.264,0 -2.435,-0.393 -3.402,-1.061 -3.598,-1.031 -3.795,-1 -3.999,-1 c -2.209,0 -4,-1.791 -4,-4 l 0,-6 c 0,-3.866 3.133,-7 7,-7 3.866,0 7,3.134 7,7 l 0,4.999 C 6.001,-2.686 3.314,0 0,0" id="path22" style="fill:#ffe51e;fill-opacity:1;fill-rule:nonzero;stroke:none"/></g><path d="M 9,1 6,1 6,9 9,9 9,1 Z" id="path24" style="fill:#f3d2a2;fill-opacity:1;fill-rule:nonzero;stroke:none"/><path d="m 14,1 -3,0 0,8 3,0 0,-8 z" id="path26" style="fill:#f3d2a2;fill-opacity:1;fill-rule:nonzero;stroke:none"/><path d="M 9,8 6,8 6,9 9,9 9,8 Z" id="path28" style="fill:#e2c196;fill-opacity:1;fill-rule:nonzero;stroke:none"/><path d="m 14,8 -3,0 0,1 3,0 0,-1 z" id="path30" style="fill:#e2c196;fill-opacity:1;fill-rule:nonzero;stroke:none"/><g id="g32" transform="translate(5,0)"><path d="M 0,0 0,1 C 0,1 0,2 2,2 4,2 4,1 4,1 L 4,0 0,0 Z" id="path34" style="fill:#292f33;fill-opacity:1;fill-rule:nonzero;stroke:none"/></g><g id="g36" transform="translate(11,0)"><path d="M 0,0 0,1 C 0,1 0,2 2,2 4,2 4,1 4,1 L 4,0 0,0 Z" id="path38" style="fill:#292f33;fill-opacity:1;fill-rule:nonzero;stroke:none"/></g><g id="g40" transform="translate(0.999,10)"><path d="m 0,0 c -0.164,0 -0.331,0.04 -0.485,0.126 -0.482,0.269 -0.657,0.877 -0.388,1.359 l 5,9.001 c 0.268,0.482 0.876,0.657 1.36,0.388 0.482,-0.268 0.657,-0.877 0.388,-1.36 l -5,-8.999 C 0.692,0.186 0.352,0 0,0" id="path42" style="fill:#f3d2a2;fill-opacity:1;fill-rule:nonzero;stroke:none"/></g><g id="g44" transform="translate(19.001,10)"><path d="m 0,0 c -0.352,0 -0.692,0.186 -0.875,0.515 l -5,8.999 c -0.269,0.483 -0.094,1.092 0.388,1.36 0.484,0.269 1.092,0.094 1.36,-0.388 l 5,-9.001 C 1.142,1.003 0.968,0.395 0.484,0.126 0.331,0.04 0.164,0 0,0" id="path46" style="fill:#f3d2a2;fill-opacity:1;fill-rule:nonzero;stroke:none"/></g><g id="g48" transform="translate(4.0005,9)"><path d="m 0,0 12,0 -2,6 0,4 2,0 0,1 c 0,1.105 -0.896,2 -2,2 L 8,13 4,13 2,13 C 0.895,13 0,12.105 0,11 L 0,10 2,10 2,6 0,0 Z" id="path50" style="fill:#e75a70;fill-opacity:1;fill-rule:nonzero;stroke:none"/></g><path d="m 14.001,15 -8,0 0,2 8,0 0,-2 z" id="path52" style="fill:#da2f47;fill-opacity:1;fill-rule:nonzero;stroke:none"/><g id="g54" transform="translate(8,25)"><path d="m 0,0 0,-4 c 0,-1.104 0.896,-2 2,-2 1.105,0 2,0.896 2,2 L 4,0 0,0 Z" id="path56" style="fill:#f3d2a2;fill-opacity:1;fill-rule:nonzero;stroke:none"/></g><g id="g58" transform="translate(12,25)"><path d="M 0,0 -4,-0.019 -4,-4 c 0,0 2,-1 4,0 l 0,4 z" id="path60" style="fill:#e2c196;fill-opacity:1;fill-rule:nonzero;stroke:none"/></g><g id="g62" transform="translate(15,33)"><path d="m 0,0 -10,0 0,-6 0,-0.001 C -10,-8.763 -7.762,-11 -5.001,-11 -2.239,-11 0,-8.763 0,-6.001 L 0,-6 0,0 Z" id="path64" style="fill:#f3d2a2;fill-opacity:1;fill-rule:nonzero;stroke:none"/></g><g id="g66" transform="translate(8,33)"><path d="M 0,0 C 0,0 0,-4 8,-4 L 8,0 0,0 Z" id="path68" style="fill:#ffe51e;fill-opacity:1;fill-rule:nonzero;stroke:none"/></g><g id="g70" transform="translate(8,33)"><path d="m 0,0 c 0,0 0,-4 -4,-4 l 0,4 4,0 z" id="path72" style="fill:#ffe51e;fill-opacity:1;fill-rule:nonzero;stroke:none"/></g><g id="g74" transform="translate(12,24)"><path d="m 0,0 -2,0 -2,0 c 0,0 0,-1 2,-1 2,0 2,1 2,1" id="path76" style="fill:#df1f32;fill-opacity:1;fill-rule:nonzero;stroke:none"/></g><g id="g78" transform="translate(8,27.5)"><path d="M 0,0 C 0,-0.276 -0.224,-0.5 -0.5,-0.5 -0.776,-0.5 -1,-0.276 -1,0 -1,0.276 -0.776,0.5 -0.5,0.5 -0.224,0.5 0,0.276 0,0" id="path80" style="fill:#662113;fill-opacity:1;fill-rule:nonzero;stroke:none"/></g><g id="g82" transform="translate(13,27.5)"><path d="M 0,0 C 0,-0.276 -0.224,-0.5 -0.5,-0.5 -0.776,-0.5 -1,-0.276 -1,0 -1,0.276 -0.776,0.5 -0.5,0.5 -0.224,0.5 0,0.276 0,0" id="path84" style="fill:#662113;fill-opacity:1;fill-rule:nonzero;stroke:none"/></g><g id="g86" transform="translate(9,26)"><path d="M 0,0 1,0 2,0 C 2,0 1.999,-1 1,-1 0,-1 0,0 0,0" id="path88" style="fill:#c1694f;fill-opacity:1;fill-rule:nonzero;stroke:none"/></g><g id="g90" transform="translate(26.5,36)"><path d="M 0,0 C -1.186,0 -2.282,-0.379 -3.181,-1.018 -5.027,-1.114 -6.5,-2.629 -6.5,-4.5 c 0,-1.542 0.007,-3.484 2.038,-4.208 C -3.464,-10.094 -1.84,-11 0,-11 3.037,-11 5.5,-8.538 5.5,-5.501 5.5,-2.463 3.037,0 0,0" id="path92" style="fill:#ffe51e;fill-opacity:1;fill-rule:nonzero;stroke:none"/></g><g id="g94" transform="translate(27,13)"><path d="m 0,0 -2,0 -3,0 0,-12 3,0 0,8 2,0 0,-8 3,0 0,12 -3,0 z" id="path96" style="fill:#aab8c2;fill-opacity:1;fill-rule:nonzero;stroke:none"/></g><g id="g98" transform="translate(21,0)"><path d="M 0,0 0,1 C 0,1 0,2 2,2 4,2 4,1 4,1 L 4,0 0,0 Z" id="path100" style="fill:#292f33;fill-opacity:1;fill-rule:nonzero;stroke:none"/></g><g id="g102" transform="translate(27,0)"><path d="M 0,0 0,1 C 0,1 0,2 2,2 4,2 4,1 4,1 L 4,0 0,0 Z" id="path104" style="fill:#292f33;fill-opacity:1;fill-rule:nonzero;stroke:none"/></g><g id="g106" transform="translate(16.999,10)"><path d="m 0,0 c -0.164,0 -0.331,0.04 -0.485,0.126 -0.482,0.269 -0.657,0.877 -0.388,1.359 l 5,9.001 c 0.268,0.482 0.878,0.657 1.359,0.388 0.484,-0.268 0.658,-0.877 0.389,-1.36 l -5,-8.999 C 0.692,0.186 0.352,0 0,0" id="path108" style="fill:#f3d2a2;fill-opacity:1;fill-rule:nonzero;stroke:none"/></g><g id="g110" transform="translate(35.001,10)"><path d="m 0,0 c -0.352,0 -0.692,0.186 -0.875,0.515 l -5,8.999 c -0.269,0.483 -0.095,1.092 0.389,1.36 0.482,0.269 1.091,0.094 1.359,-0.388 l 5,-9.001 C 1.142,1.003 0.968,0.395 0.484,0.126 0.331,0.04 0.164,0 0,0" id="path112" style="fill:#f3d2a2;fill-opacity:1;fill-rule:nonzero;stroke:none"/></g><g id="g114" transform="translate(32,20)"><path d="m 0,0 c 0,1.105 -0.895,2 -2,2 l -2,0 -4,0 -2,0 c -1.104,0 -2,-0.895 -2,-2 l 0,-1 2,0 0,-7 8,0 0,7 2,0 0,1 z" id="path116" style="fill:#4289c1;fill-opacity:1;fill-rule:nonzero;stroke:none"/></g><g id="g118" transform="translate(24,25)"><path d="m 0,0 0,-4 c 0,-1.104 0.896,-2 2,-2 1.105,0 2,0.896 2,2 L 4,0 0,0 Z" id="path120" style="fill:#f3d2a2;fill-opacity:1;fill-rule:nonzero;stroke:none"/></g><g id="g122" transform="translate(28,25)"><path d="M 0,0 -4,-0.019 -4,-4 c 0,0 2,-1 4,0 l 0,4 z" id="path124" style="fill:#e2c196;fill-opacity:1;fill-rule:nonzero;stroke:none"/></g><g id="g126" transform="translate(31,33)"><path d="m 0,0 -10,0 0,-6 0,-0.001 c 0,-2.762 2.238,-4.999 5,-4.999 2.762,0 5,2.237 5,4.999 L 0,-6 0,0 Z" id="path128" style="fill:#f3d2a2;fill-opacity:1;fill-rule:nonzero;stroke:none"/></g><g id="g130" transform="translate(24,33)"><path d="m 0,0 -3,0 0,-4 c 2.333,0 2.85,2.412 2.965,3.488 C 0.004,-1.588 0.779,-4 7,-4 L 7,0 0,0 Z" id="path132" style="fill:#ffe51e;fill-opacity:1;fill-rule:nonzero;stroke:none"/></g><g id="g134" transform="translate(28,24)"><path d="m 0,0 -2,0 -2,0 c 0,0 0,-1 2,-1 2,0 2,1 2,1" id="path136" style="fill:#c1694f;fill-opacity:1;fill-rule:nonzero;stroke:none"/></g><g id="g138" transform="translate(24,27.5)"><path d="M 0,0 C 0,-0.276 -0.224,-0.5 -0.5,-0.5 -0.776,-0.5 -1,-0.276 -1,0 -1,0.276 -0.776,0.5 -0.5,0.5 -0.224,0.5 0,0.276 0,0" id="path140" style="fill:#662113;fill-opacity:1;fill-rule:nonzero;stroke:none"/></g><g id="g142" transform="translate(29,27.5)"><path d="M 0,0 C 0,-0.276 -0.224,-0.5 -0.5,-0.5 -0.776,-0.5 -1,-0.276 -1,0 -1,0.276 -0.776,0.5 -0.5,0.5 -0.224,0.5 0,0.276 0,0" id="path144" style="fill:#662113;fill-opacity:1;fill-rule:nonzero;stroke:none"/></g><g id="g146" transform="translate(25,26)"><path d="M 0,0 1,0 2,0 C 2,0 2,-1 1,-1 0,-1 0,0 0,0" id="path148" style="fill:#c1694f;fill-opacity:1;fill-rule:nonzero;stroke:none"/></g></g></g></g></svg>