<?xml version="1.0" encoding="UTF-8" standalone="no"?><svg xmlns="http://www.w3.org/2000/svg" xmlns:cc="http://creativecommons.org/ns#" xmlns:dc="http://purl.org/dc/elements/1.1/" xmlns:rdf="http://www.w3.org/1999/02/22-rdf-syntax-ns#" xmlns:svg="http://www.w3.org/2000/svg" height="45" id="svg2" style="enable-background:new 0 0 45 45;" version="1.1" viewBox="0 0 45 45" width="45" xml:space="preserve"><metadata id="metadata8"><rdf:RDF><cc:Work rdf:about=""><dc:format>image/svg+xml</dc:format><dc:type rdf:resource="http://purl.org/dc/dcmitype/StillImage"/></cc:Work></rdf:RDF></metadata><defs id="defs6"><clipPath clipPathUnits="userSpaceOnUse" id="clipPath16"><path d="M 4,36 C 1.791,36 0,34.209 0,32 L 0,32 0,4 C 0,1.791 1.791,0 4,0 l 0,0 28,0 c 2.209,0 4,1.791 4,4 l 0,0 0,28 c 0,2.209 -1.791,4 -4,4 l 0,0 -28,0 z" id="path18"/></clipPath></defs><g id="g10" transform="matrix(1.25,0,0,-1.25,0,45)"><g id="g12"><g clip-path="url(#clipPath16)" id="g14"><path d="m 36,-2 -38,0 0,38 38,0 0,-38 z" id="path20" style="fill:#004a77;fill-opacity:1;fill-rule:nonzero;stroke:none"/><g id="g22" transform="translate(-2,9)"><path d="m 0,0 0,2 c 0.117,0.049 11.263,4.451 18,16 l 2,-1 C 12.911,4.847 0.503,0.206 0,0" id="path24" style="fill:#fe5011;fill-opacity:1;fill-rule:nonzero;stroke:none"/></g><g id="g26" transform="translate(20,27)"><path d="M 0,0 C 0,0 0,2 -2,2 -4,2 -4,0 -4,0 l 0,-28 4,0 0,28 z" id="path28" style="fill:#fe5011;fill-opacity:1;fill-rule:nonzero;stroke:none"/></g><path d="M 36,5 0,5 0,9 36,9 36,5 Z" id="path30" style="fill:#fe5011;fill-opacity:1;fill-rule:nonzero;stroke:none"/><g id="g32" transform="translate(38,9)"><path d="m 0,0 0,2 c -0.117,0.049 -11.264,4.451 -18,16 l -2,-1 C -12.91,4.847 -0.503,0.206 0,0" id="path34" style="fill:#fe5011;fill-opacity:1;fill-rule:nonzero;stroke:none"/></g><path d="m 10,8 2,0 0,11 -2,0 0,-11 z" id="path36" style="fill:#fe5011;fill-opacity:1;fill-rule:nonzero;stroke:none"/><path d="m 26,8 -2,0 0,11 2,0 0,-11 z" id="path38" style="fill:#fe5011;fill-opacity:1;fill-rule:nonzero;stroke:none"/><path d="M 4,8 6,8 6,14 4,14 4,8 Z" id="path40" style="fill:#fe5011;fill-opacity:1;fill-rule:nonzero;stroke:none"/><path d="m 32,7 -2,0 0,7 2,0 0,-7 z" id="path42" style="fill:#fe5011;fill-opacity:1;fill-rule:nonzero;stroke:none"/><g id="g44" transform="translate(6.5,29)"><path d="m 0,0 c -1.381,0 -2.5,1.119 -2.5,2.5 0,1.13 0.755,2.074 1.784,2.383 C -0.967,4.952 -1.227,5 -1.5,5 c -1.657,0 -3,-1.343 -3,-3 0,-1.657 1.343,-3 3,-3 0.959,0 1.803,0.458 2.353,1.159 C 0.585,0.062 0.301,0 0,0" id="path46" style="fill:#ffffff;fill-opacity:1;fill-rule:nonzero;stroke:none"/></g><g id="g48" transform="translate(11,33.5)"><path d="M 0,0 C 0,-0.276 -0.224,-0.5 -0.5,-0.5 -0.776,-0.5 -1,-0.276 -1,0 -1,0.276 -0.776,0.5 -0.5,0.5 -0.224,0.5 0,0.276 0,0" id="path50" style="fill:#ffffff;fill-opacity:1;fill-rule:nonzero;stroke:none"/></g><g id="g52" transform="translate(27,24.5)"><path d="M 0,0 C 0,-0.276 -0.224,-0.5 -0.5,-0.5 -0.776,-0.5 -1,-0.276 -1,0 -1,0.276 -0.776,0.5 -0.5,0.5 -0.224,0.5 0,0.276 0,0" id="path54" style="fill:#ffffff;fill-opacity:1;fill-rule:nonzero;stroke:none"/></g><g id="g56" transform="translate(8,24.5)"><path d="M 0,0 C 0,-0.276 -0.224,-0.5 -0.5,-0.5 -0.776,-0.5 -1,-0.276 -1,0 -1,0.276 -0.776,0.5 -0.5,0.5 -0.224,0.5 0,0.276 0,0" id="path58" style="fill:#ffffff;fill-opacity:1;fill-rule:nonzero;stroke:none"/></g><g id="g60" transform="translate(23,31)"><path d="m 0,0 c 0,-0.552 -0.447,-1 -1,-1 -0.553,0 -1,0.448 -1,1 0,0.552 0.447,1 1,1 0.553,0 1,-0.448 1,-1" id="path62" style="fill:#ffffff;fill-opacity:1;fill-rule:nonzero;stroke:none"/></g><g id="g64" transform="translate(5,19)"><path d="m 0,0 c 0,-0.552 -0.447,-1 -1,-1 -0.553,0 -1,0.448 -1,1 0,0.552 0.447,1 1,1 0.553,0 1,-0.448 1,-1" id="path66" style="fill:#ffffff;fill-opacity:1;fill-rule:nonzero;stroke:none"/></g><g id="g68" transform="translate(13,29)"><path d="m 0,0 c 0,-0.552 -0.447,-1 -1,-1 -0.553,0 -1,0.448 -1,1 0,0.552 0.447,1 1,1 0.553,0 1,-0.448 1,-1" id="path70" style="fill:#ffffff;fill-opacity:1;fill-rule:nonzero;stroke:none"/></g><g id="g72" transform="translate(33,19)"><path d="m 0,0 c 0,-0.552 -0.447,-1 -1,-1 -0.553,0 -1,0.448 -1,1 0,0.552 0.447,1 1,1 0.553,0 1,-0.448 1,-1" id="path74" style="fill:#ffffff;fill-opacity:1;fill-rule:nonzero;stroke:none"/></g><g id="g76" transform="translate(27,30.5)"><path d="M 0,0 C 0,-0.276 -0.224,-0.5 -0.5,-0.5 -0.776,-0.5 -1,-0.276 -1,0 -1,0.276 -0.776,0.5 -0.5,0.5 -0.224,0.5 0,0.276 0,0" id="path78" style="fill:#ffffff;fill-opacity:1;fill-rule:nonzero;stroke:none"/></g><g id="g80" transform="translate(32,33)"><path d="m 0,0 c 0,-0.552 -0.447,-1 -1,-1 -0.553,0 -1,0.448 -1,1 0,0.552 0.447,1 1,1 0.553,0 1,-0.448 1,-1" id="path82" style="fill:#ffffff;fill-opacity:1;fill-rule:nonzero;stroke:none"/></g><g id="g84" transform="translate(32,28.5)"><path d="M 0,0 C 0,-0.276 -0.224,-0.5 -0.5,-0.5 -0.776,-0.5 -1,-0.276 -1,0 -1,0.276 -0.776,0.5 -0.5,0.5 -0.224,0.5 0,0.276 0,0" id="path86" style="fill:#ffffff;fill-opacity:1;fill-rule:nonzero;stroke:none"/></g></g></g></g></svg>