<?xml version="1.0" encoding="UTF-8" standalone="no"?><svg xmlns="http://www.w3.org/2000/svg" xmlns:cc="http://creativecommons.org/ns#" xmlns:dc="http://purl.org/dc/elements/1.1/" xmlns:rdf="http://www.w3.org/1999/02/22-rdf-syntax-ns#" xmlns:svg="http://www.w3.org/2000/svg" height="45" id="svg2" style="enable-background:new 0 0 45 45;" version="1.1" viewBox="0 0 45 45" width="45" xml:space="preserve"><metadata id="metadata8"><rdf:RDF><cc:Work rdf:about=""><dc:format>image/svg+xml</dc:format><dc:type rdf:resource="http://purl.org/dc/dcmitype/StillImage"/></cc:Work></rdf:RDF></metadata><defs id="defs6"><clipPath clipPathUnits="userSpaceOnUse" id="clipPath16"><path d="M 0,36 36,36 36,0 0,0 0,36 Z" id="path18"/></clipPath></defs><g id="g10" transform="matrix(1.25,0,0,-1.25,0,45)"><g id="g12"><g clip-path="url(#clipPath16)" id="g14"><g id="g20" transform="translate(34.999,18.001)"><path d="m 0,0 c 0,-9.389 -7.611,-17 -17,-17 -9.389,0 -16.999,7.611 -16.999,17 0,9.389 7.61,16.999 16.999,16.999 9.389,0 17,-7.61 17,-16.999" id="path22" style="fill:#000000;fill-opacity:1;fill-rule:nonzero;stroke:none"/></g><g id="g24" transform="translate(23,28.5)"><path d="m 0,0 c 0,-1.933 -1.344,-3.5 -3,-3.5 -1.656,0 -3,1.567 -3,3.5 0,1.933 1.344,3.5 3,3.5 1.656,0 3,-1.567 3,-3.5" id="path26" style="fill:#ffffff;fill-opacity:1;fill-rule:nonzero;stroke:none"/></g><g id="g28" transform="translate(26,23)"><path d="m 0,0 c 0,0 0,2 -2,2 l -7,0 c -1,0 -2,-1 -2,-1 l -2,-2 -4,0 c 0,0 -1,0 -1,-1 0,-1 1,-1 1,-1 l 3,0 2,0 2,1.171 0,-16.171 c 0,0 0,-1 1,-1 l 1,0 c 0,0 1,0 1,1 l 0,8 c 0,0 0,1 1,1 1,0 1,-1 1,-1 l 0,-8 c 0,0 0,-1 1,-1 l 1,0 c 0,0 1,0 1,1 l 0,9 c 0,0 2,0 2,2 l 0,7 z" id="path30" style="fill:#ffffff;fill-opacity:1;fill-rule:nonzero;stroke:none"/></g><g id="g32" transform="translate(9.2417,16.5332)"><path d="m 0,0 c 0,-0.847 -0.726,-1.533 -1.621,-1.533 -0.895,0 -1.621,0.686 -1.621,1.533 0,0.847 0.726,1.533 1.621,1.533 C -0.726,1.533 0,0.847 0,0" id="path34" style="fill:#ffffff;fill-opacity:1;fill-rule:nonzero;stroke:none"/></g><g id="g36" transform="translate(13.2417,13.5332)"><path d="m 0,0 c 0,-0.847 -0.726,-1.533 -1.621,-1.533 -0.895,0 -1.621,0.686 -1.621,1.533 0,0.847 0.726,1.533 1.621,1.533 C -0.726,1.533 0,0.847 0,0" id="path38" style="fill:#ffffff;fill-opacity:1;fill-rule:nonzero;stroke:none"/></g><g id="g40" transform="translate(11.2417,9.5332)"><path d="m 0,0 c 0,-0.847 -0.726,-1.533 -1.621,-1.533 -0.895,0 -1.621,0.686 -1.621,1.533 0,0.847 0.726,1.533 1.621,1.533 C -0.726,1.533 0,0.847 0,0" id="path42" style="fill:#ffffff;fill-opacity:1;fill-rule:nonzero;stroke:none"/></g><g id="g44" transform="translate(2,17.9995)"><path d="M 0,0 C 0,3.968 1.453,7.592 3.845,10.388 L 26.388,-12.156 C 23.592,-14.547 19.968,-15.999 16,-15.999 7.164,-15.999 0,-8.836 0,0 m 32,0 c 0,-3.968 -1.453,-7.591 -3.845,-10.388 L 5.612,12.155 C 8.409,14.547 12.032,16 16,16 24.837,16 32,8.836 32,0 M 16,18 C 6.059,18 -2,9.941 -2,0 c 0,-9.941 8.059,-17.999 18,-17.999 9.941,0 18,8.058 18,17.999 0,9.941 -8.059,18 -18,18" id="path46" style="fill:#dd2e44;fill-opacity:1;fill-rule:nonzero;stroke:none"/></g></g></g></g></svg>