<?xml version="1.0" encoding="UTF-8" standalone="no"?><svg xmlns="http://www.w3.org/2000/svg" xmlns:cc="http://creativecommons.org/ns#" xmlns:dc="http://purl.org/dc/elements/1.1/" xmlns:rdf="http://www.w3.org/1999/02/22-rdf-syntax-ns#" xmlns:svg="http://www.w3.org/2000/svg" height="45" id="svg2" style="enable-background:new 0 0 45 45;" version="1.1" viewBox="0 0 45 45" width="45" xml:space="preserve"><metadata id="metadata8"><rdf:RDF><cc:Work rdf:about=""><dc:format>image/svg+xml</dc:format><dc:type rdf:resource="http://purl.org/dc/dcmitype/StillImage"/></cc:Work></rdf:RDF></metadata><defs id="defs6"><clipPath clipPathUnits="userSpaceOnUse" id="clipPath16"><path d="M 0,36 36,36 36,0 0,0 0,36 Z" id="path18"/></clipPath></defs><g id="g10" transform="matrix(1.25,0,0,-1.25,0,45)"><g id="g12"><g clip-path="url(#clipPath16)" id="g14"><g id="g20" transform="translate(32,5.4707)"><path d="M 0,0 C 0,-2.469 -2.031,-4.471 -4.5,-4.471 -6.969,-4.471 -9,-2.469 -9,0 l 0,11.941 c 0,2.469 2.031,5.588 4.5,5.588 2.469,0 4.5,-3.119 4.5,-5.588 L 0,0 Z" id="path22" style="fill:#77b255;fill-opacity:1;fill-rule:nonzero;stroke:none"/></g><g id="g24" transform="translate(21.4561,30.4116)"><path d="m 0,0 c 0,-2.198 -1.337,-3.98 -2.985,-3.98 -1.649,0 -2.986,1.782 -2.986,3.98 0,2.198 1.337,3.98 2.986,3.98 C -1.337,3.98 0,2.198 0,0" id="path26" style="fill:#ffe8b6;fill-opacity:1;fill-rule:nonzero;stroke:none"/></g><g id="g28" transform="translate(23,5.4707)"><path d="M 0,0 C 0,-2.469 -2.031,-4.471 -4.5,-4.471 -6.969,-4.471 -9,-2.469 -9,0 l 0,24.941 c 0,2.469 2.031,5.588 4.5,5.588 2.469,0 4.5,-3.119 4.5,-5.588 L 0,0 Z" id="path30" style="fill:#77b255;fill-opacity:1;fill-rule:nonzero;stroke:none"/></g><g id="g32" transform="translate(21.4561,30.4116)"><path d="m 0,0 c 0,-2.198 -1.337,-3.98 -2.985,-3.98 -1.649,0 -2.986,1.782 -2.986,3.98 0,2.198 1.337,3.98 2.986,3.98 C -1.337,3.98 0,2.198 0,0" id="path34" style="fill:#ffe8b6;fill-opacity:1;fill-rule:nonzero;stroke:none"/></g><g id="g36" transform="translate(30.4561,17.4116)"><path d="m 0,0 c 0,-2.199 -1.337,-3.98 -2.985,-3.98 -1.649,0 -2.986,1.781 -2.986,3.98 0,2.198 1.337,3.98 2.986,3.98 C -1.337,3.98 0,2.198 0,0" id="path38" style="fill:#ffe8b6;fill-opacity:1;fill-rule:nonzero;stroke:none"/></g><g id="g40" transform="translate(14,5.4707)"><path d="M 0,0 C 0,-2.469 -2.031,-4.471 -4.5,-4.471 -6.969,-4.471 -9,-2.469 -9,0 l 0,18.941 c 0,2.469 2.031,5.588 4.5,5.588 2.469,0 4.5,-3.119 4.5,-5.588 L 0,0 Z" id="path42" style="fill:#77b255;fill-opacity:1;fill-rule:nonzero;stroke:none"/></g><g id="g44" transform="translate(12.4561,24.4116)"><path d="m 0,0 c 0,-2.198 -1.337,-3.98 -2.985,-3.98 -1.649,0 -2.986,1.782 -2.986,3.98 0,2.198 1.337,3.98 2.986,3.98 C -1.337,3.98 0,2.198 0,0" id="path46" style="fill:#ffe8b6;fill-opacity:1;fill-rule:nonzero;stroke:none"/></g><g id="g48" transform="translate(24,14)"><path d="m 0,0 c 0,-0.553 -0.447,-1 -1,-1 l -9,0 c -0.552,0 -1,0.447 -1,1 0,0.553 0.448,1 1,1 l 9,0 C -0.447,1 0,0.553 0,0" id="path50" style="fill:#5c913b;fill-opacity:1;fill-rule:nonzero;stroke:none"/></g><g id="g52" transform="translate(24,22)"><path d="m 0,0 c 0,-0.552 -0.447,-1 -1,-1 l -9,0 c -0.552,0 -1,0.448 -1,1 0,0.552 0.448,1 1,1 l 9,0 C -0.447,1 0,0.552 0,0" id="path54" style="fill:#5c913b;fill-opacity:1;fill-rule:nonzero;stroke:none"/></g><g id="g56" transform="translate(15,18)"><path d="m 0,0 c 0,-0.553 -0.447,-1 -1,-1 l -9,0 c -0.552,0 -1,0.447 -1,1 0,0.553 0.448,1 1,1 l 9,0 C -0.447,1 0,0.553 0,0" id="path58" style="fill:#5c913b;fill-opacity:1;fill-rule:nonzero;stroke:none"/></g><g id="g60" transform="translate(35,3.5)"><path d="m 0,0 c 0,-1.381 -1.119,-2.5 -2.5,-2.5 l -28,0 c -1.381,0 -2.5,1.119 -2.5,2.5 0,1.381 1.119,2.5 2.5,2.5 l 28,0 C -1.119,2.5 0,1.381 0,0" id="path62" style="fill:#d99e82;fill-opacity:1;fill-rule:nonzero;stroke:none"/></g><g id="g64" transform="translate(31,9)"><path d="m 0,0 c 0,0 -1.229,0.565 -3.272,1.176 -0.645,-1.426 -1.299,-2.785 -1.561,-3.426 -0.519,-1.27 -1.125,-0.875 -0.925,0.169 0.102,0.532 0.461,2.616 0.737,3.729 -1.987,0.487 -4.45,0.909 -7.162,0.996 -0.15,-1.727 -0.402,-3.219 -0.484,-4.144 -0.125,-1.417 -1.5,-1.333 -1.625,-0.042 -0.067,0.702 -0.163,2.683 -0.26,4.171 -2.026,-0.092 -4.149,-0.399 -6.292,-1.016 0.091,-1.013 0.304,-2.884 0.386,-3.53 0.185,-1.469 -0.554,-1.086 -0.834,-0.291 -0.178,0.507 -0.819,2.217 -1.266,3.259 C -23.374,0.75 -24.189,0.405 -25,0 c -2,-1 -4,-3 -4,-4 l 0,-1 4,0 25,0 4,0 0,1 c 0,1 -2,3 -4,4" id="path66" style="fill:#5c913b;fill-opacity:1;fill-rule:nonzero;stroke:none"/></g></g></g></g></svg>