<?xml version="1.0" encoding="UTF-8" standalone="no"?><svg xmlns="http://www.w3.org/2000/svg" xmlns:cc="http://creativecommons.org/ns#" xmlns:dc="http://purl.org/dc/elements/1.1/" xmlns:rdf="http://www.w3.org/1999/02/22-rdf-syntax-ns#" xmlns:svg="http://www.w3.org/2000/svg" height="45" id="svg2" style="enable-background:new 0 0 45 45;" version="1.1" viewBox="0 0 45 45" width="45" xml:space="preserve"><metadata id="metadata8"><rdf:RDF><cc:Work rdf:about=""><dc:format>image/svg+xml</dc:format><dc:type rdf:resource="http://purl.org/dc/dcmitype/StillImage"/></cc:Work></rdf:RDF></metadata><defs id="defs6"><clipPath clipPathUnits="userSpaceOnUse" id="clipPath16"><path d="M 0,0 36,0 36,36 0,36 0,0 Z" id="path18"/></clipPath><clipPath clipPathUnits="userSpaceOnUse" id="clipPath46"><path d="M 0,36 36,36 36,0 0,0 0,36 Z" id="path48"/></clipPath><clipPath clipPathUnits="userSpaceOnUse" id="clipPath62"><path d="M 0,0 36,0 36,36 0,36 0,0 Z" id="path64"/></clipPath><clipPath clipPathUnits="userSpaceOnUse" id="clipPath92"><path d="M 0,36 36,36 36,0 0,0 0,36 Z" id="path94"/></clipPath></defs><g id="g10" transform="matrix(1.25,0,0,-1.25,0,45)"><g id="g12"><g clip-path="url(#clipPath16)" id="g14"><g id="g20" transform="translate(3,36)"><path d="M 0,0 C -1.721,0 -3.343,-0.406 -4.793,-1.111 -5.186,-1.042 -5.588,-1 -6,-1 c -3.866,0 -7,-3.134 -7,-7 l 0,-12 0.018,0 c 0.183,-6.467 5.471,-11.656 11.982,-11.656 6.511,0 11.799,5.189 11.982,11.656 l 0.018,0 0,9 C 11,-4.925 6.075,0 0,0" id="path22" style="fill:#ffac33;fill-opacity:1;fill-rule:nonzero;stroke:none"/></g><g id="g24" transform="translate(11,9)"><path d="m 0,0 -1,0 -16,0 -1,0 c -2.209,0 -4,-1.791 -4,-4 l 0,-5 5,0 16,0 5,0 0,5 C 4,-1.791 2.209,0 0,0" id="path26" style="fill:#9268ca;fill-opacity:1;fill-rule:nonzero;stroke:none"/></g><path d="m 11,0 -1,0 0,4 1,0 0,-4 z" id="path28" style="fill:#7450a8;fill-opacity:1;fill-rule:nonzero;stroke:none"/><g id="g30" transform="translate(4.9995,8.0049)"><path d="m 0,0 0,4.995 -6,0 0,-5 0,0 c 0,-1.657 1.344,-3 3,-3 1.658,0 3,1.343 3,3 0,0.002 0,0.003 0,0.005" id="path32" style="fill:#ffdc5d;fill-opacity:1;fill-rule:nonzero;stroke:none"/></g><g id="g34" transform="translate(-2,31)"><path d="m 0,0 -5,0 0,-12 c 0,-4.971 4.029,-9 9,-9 4.971,0 9,4.029 9,9 l 0,5.019 C 1.89,-6.605 0,0 0,0" id="path36" style="fill:#ffdc5d;fill-opacity:1;fill-rule:nonzero;stroke:none"/></g><g id="g38" transform="translate(6,14)"><path d="m 0,0 -4,0 -4,0 c 0,0 1,-2 4,-2 3,0 4,2 4,2" id="path40" style="fill:#df1f32;fill-opacity:1;fill-rule:nonzero;stroke:none"/></g></g></g><g id="g42"><g clip-path="url(#clipPath46)" id="g44"><g id="g50" transform="translate(6,20)"><path d="m 0,0 c -0.552,0 -1,0.448 -1,1 l 0,1 C -1,2.552 -0.552,3 0,3 0.552,3 1,2.552 1,2 L 1,1 C 1,0.448 0.552,0 0,0" id="path52" style="fill:#662113;fill-opacity:1;fill-rule:nonzero;stroke:none"/></g><g id="g54" transform="translate(3,16.5)"><path d="M 0,0 -2,0 C -2.276,0 -2.5,0.224 -2.5,0.5 -2.5,0.776 -2.276,1 -2,1 L 0,1 C 0.276,1 0.5,0.776 0.5,0.5 0.5,0.224 0.276,0 0,0" id="path56" style="fill:#c1694f;fill-opacity:1;fill-rule:nonzero;stroke:none"/></g></g></g><g id="g58"><g clip-path="url(#clipPath62)" id="g60"><g id="g66" transform="translate(44,25)"><path d="m 0,0 c 0,-6.075 -4.925,-11 -11,-11 -6.075,0 -11,4.925 -11,11 0,6.075 4.925,11 11,11 C -4.925,11 0,6.075 0,0" id="path68" style="fill:#ffac33;fill-opacity:1;fill-rule:nonzero;stroke:none"/></g><g id="g70" transform="translate(37,9)"><path d="M 0,0 0,5 -6,5 -6,0 -8,0 -8,-8 2,-8 2,0 0,0 Z" id="path72" style="fill:#ffdc5d;fill-opacity:1;fill-rule:nonzero;stroke:none"/></g><g id="g74" transform="translate(42,31)"><path d="m 0,0 0,-7 c -8.453,0 -11.94,3.471 -13.266,5.524 -0.42,-1.803 -1.437,-4.699 -3.734,-5.368 L -17,-12 c 0,-4.971 4.029,-9 9,-9 4.971,0 9,4.029 9,9 L 1,0 0,0 Z" id="path76" style="fill:#ffdc5d;fill-opacity:1;fill-rule:nonzero;stroke:none"/></g><g id="g78" transform="translate(25,9)"><path d="M 0,0 6,0 9,-5 12,0.094 18,0 c 2.209,0 4,-1.791 4,-4 l 0,-5 -5,0 -16,0 -5,0 0,5 c 0,2.209 1.791,4 4,4" id="path80" style="fill:#4289c1;fill-opacity:1;fill-rule:nonzero;stroke:none"/></g><path d="m 25,0 1,0 0,4 -1,0 0,-4 z" id="path82" style="fill:#2a6797;fill-opacity:1;fill-rule:nonzero;stroke:none"/><g id="g84" transform="translate(30,14)"><path d="M 0,0 4,0 8,0 C 8,0 7,-2 4,-2 1,-2 0,0 0,0" id="path86" style="fill:#c1694f;fill-opacity:1;fill-rule:nonzero;stroke:none"/></g></g></g><g id="g88"><g clip-path="url(#clipPath92)" id="g90"><g id="g96" transform="translate(30,20)"><path d="m 0,0 c -0.553,0 -1,0.448 -1,1 l 0,1 C -1,2.552 -0.553,3 0,3 0.553,3 1,2.552 1,2 L 1,1 C 1,0.448 0.553,0 0,0" id="path98" style="fill:#662113;fill-opacity:1;fill-rule:nonzero;stroke:none"/></g><g id="g100" transform="translate(35,16.5)"><path d="M 0,0 -2,0 C -2.276,0 -2.5,0.224 -2.5,0.5 -2.5,0.776 -2.276,1 -2,1 L 0,1 C 0.276,1 0.5,0.776 0.5,0.5 0.5,0.224 0.276,0 0,0" id="path102" style="fill:#c1694f;fill-opacity:1;fill-rule:nonzero;stroke:none"/></g><g id="g104" transform="translate(26.5385,31.2891)"><path d="m 0,0 c 0,2.601 -2.109,4.711 -4.711,4.711 -1.579,0 -2.972,-0.78 -3.828,-1.972 -0.855,1.192 -2.249,1.972 -3.827,1.972 -2.602,0 -4.711,-2.11 -4.711,-4.711 0,-0.369 0.047,-0.727 0.127,-1.07 0.654,-4.065 5.173,-8.353 8.411,-9.53 3.238,1.177 7.758,5.465 8.412,9.529 C -0.047,-0.727 0,-0.369 0,0" id="path106" style="fill:#e75a70;fill-opacity:1;fill-rule:nonzero;stroke:none"/></g></g></g></g></svg>