<?xml version="1.0" encoding="UTF-8" standalone="no"?><svg xmlns="http://www.w3.org/2000/svg" xmlns:cc="http://creativecommons.org/ns#" xmlns:dc="http://purl.org/dc/elements/1.1/" xmlns:rdf="http://www.w3.org/1999/02/22-rdf-syntax-ns#" xmlns:svg="http://www.w3.org/2000/svg" height="45" id="svg2" style="enable-background:new 0 0 45 45;" version="1.1" viewBox="0 0 45 45" width="45" xml:space="preserve"><metadata id="metadata8"><rdf:RDF><cc:Work rdf:about=""><dc:format>image/svg+xml</dc:format><dc:type rdf:resource="http://purl.org/dc/dcmitype/StillImage"/></cc:Work></rdf:RDF></metadata><defs id="defs6"><clipPath clipPathUnits="userSpaceOnUse" id="clipPath16"><path d="M 0,0 36,0 36,36 0,36 0,0 Z" id="path18"/></clipPath><clipPath clipPathUnits="userSpaceOnUse" id="clipPath64"><path d="M 0,36 36,36 36,0 0,0 0,36 Z" id="path66"/></clipPath></defs><g id="g10" transform="matrix(1.25,0,0,-1.25,0,45)"><g id="g12"><g clip-path="url(#clipPath16)" id="g14"><g id="g20" transform="translate(30.1689,27.8496)"><path d="m 0,0 -14.849,-14.85 c 0,0 -0.707,2.121 0.707,3.536 1.415,1.415 12.728,12.728 12.728,12.728 L 0,0 Z" id="path22" style="fill:#9aaab4;fill-opacity:1;fill-rule:nonzero;stroke:none"/></g><g id="g24" transform="translate(30.1689,27.8496)"><path d="M 0,0 C 1.172,1.172 2.439,1.805 2.829,1.414 3.221,1.023 2.586,-0.242 1.414,-1.414 0.243,-2.586 -1.022,-3.219 -1.414,-2.828 -1.805,-2.438 -1.171,-1.172 0,0 M -1.414,1.414 C -3.366,-0.539 -4,-3.07 -2.828,-4.242 -1.656,-5.414 0.877,-4.781 2.829,-2.828 4.781,-0.876 5.415,1.656 4.243,2.828 3.071,4 0.539,3.367 -1.414,1.414" id="path26" style="fill:#67757f;fill-opacity:1;fill-rule:nonzero;stroke:none"/></g><g id="g28" transform="translate(20,25)"><path d="m 0,0 c 0,6.075 -4.925,11 -11,11 -1.721,0 -3.343,-0.406 -4.793,-1.111 C -16.186,9.958 -16.588,10 -17,10 c -3.866,0 -7,-3.134 -7,-7 l 0,-12 0.018,0 c 0.183,-6.467 5.471,-11.656 11.982,-11.656 3.358,0 6.384,1.387 8.559,3.612 C 2.426,-17.507 9,-25 9,-25 l 7,9 C 1,-10 0,0 0,0" id="path30" style="fill:#0b0200;fill-opacity:1;fill-rule:nonzero;stroke:none"/></g><g id="g32" transform="translate(17,9)"><path d="m 0,0 -1,0 -16,0 -1,0 c -2.209,0 -4,-1.791 -4,-4 l 0,-5 5,0 16,0 5,0 0,5 C 4,-1.791 2.209,0 0,0" id="path34" style="fill:#9268ca;fill-opacity:1;fill-rule:nonzero;stroke:none"/></g><path d="m 17,0 -1,0 0,4 1,0 0,-4 z" id="path36" style="fill:#7450a8;fill-opacity:1;fill-rule:nonzero;stroke:none"/><path d="M 0,0 -1,0 -1,4 0,4 0,0 Z" id="path38" style="fill:#7450a8;fill-opacity:1;fill-rule:nonzero;stroke:none"/><g id="g40" transform="translate(10.9995,8.0049)"><path d="m 0,0 0,3.995 -6,0 0,-4 0.001,0 c 0,-1.657 1.343,-3 3,-3 1.657,0 3,1.343 3,3 C 0.001,-0.003 0,-0.002 0,0" id="path42" style="fill:#7c533e;fill-opacity:1;fill-rule:nonzero;stroke:none"/></g><g id="g44" transform="translate(4,31)"><path d="M 0,0 C 0,0 -0.003,-5.308 -5,-5.936 L -5,-12 c 0,-4.971 4.029,-9 9,-9 4.971,0 9,4.029 9,9 l 0,5.019 C 1.89,-6.605 0,0 0,0" id="path46" style="fill:#7c533e;fill-opacity:1;fill-rule:nonzero;stroke:none"/></g><g id="g48" transform="translate(12,15)"><path d="m 0,0 -4,0 -4,0 c 0,0 1,-2 4,-2 3,0 4,2 4,2" id="path50" style="fill:#df1f32;fill-opacity:1;fill-rule:nonzero;stroke:none"/></g><g id="g52" transform="translate(24,30)"><path d="m 0,0 0,-21 c 0,0 2,1 2,3 L 2,0 0,0 Z" id="path54" style="fill:#9aaab4;fill-opacity:1;fill-rule:nonzero;stroke:none"/></g><g id="g56" transform="translate(23,27)"><path d="M 0,0 C -0.553,0 -1,1.343 -1,3 -1,4.657 -0.553,6 0,6 0.553,6 1,4.657 1,3 1,1.343 0.553,0 0,0 M 0,8 C -1.657,8 -3,5.761 -3,3 -3,0.239 -1.657,-2 0,-2 1.657,-2 3,0.239 3,3 3,5.761 1.657,8 0,8" id="path58" style="fill:#67757f;fill-opacity:1;fill-rule:nonzero;stroke:none"/></g></g></g><g id="g60"><g clip-path="url(#clipPath64)" id="g62"><g id="g68" transform="translate(26,24)"><path d="m 0,0 c 0,-0.552 -0.447,-1 -1,-1 -0.553,0 -1,0.448 -1,1 0,0.552 0.447,1 1,1 0.553,0 1,-0.448 1,-1" id="path70" style="fill:#67757f;fill-opacity:1;fill-rule:nonzero;stroke:none"/></g><g id="g72" transform="translate(9,16.5)"><path d="M 0,0 -2,0 C -2.276,0 -2.5,0.224 -2.5,0.5 -2.5,0.776 -2.276,1 -2,1 L 0,1 C 0.276,1 0.5,0.776 0.5,0.5 0.5,0.224 0.276,0 0,0" id="path74" style="fill:#3d2e24;fill-opacity:1;fill-rule:nonzero;stroke:none"/></g><g id="g76" transform="translate(4,20)"><path d="m 0,0 c -0.552,0 -1,0.448 -1,1 l 0,1 C -1,2.552 -0.552,3 0,3 0.552,3 1,2.552 1,2 L 1,1 C 1,0.448 0.552,0 0,0" id="path78" style="fill:#000000;fill-opacity:1;fill-rule:nonzero;stroke:none"/></g><g id="g80" transform="translate(12,20)"><path d="m 0,0 c -0.552,0 -1,0.448 -1,1 l 0,1 C -1,2.552 -0.552,3 0,3 0.552,3 1,2.552 1,2 L 1,1 C 1,0.448 0.552,0 0,0" id="path82" style="fill:#000000;fill-opacity:1;fill-rule:nonzero;stroke:none"/></g></g></g></g></svg>