<?xml version="1.0" encoding="UTF-8" standalone="no"?><svg xmlns="http://www.w3.org/2000/svg" xmlns:cc="http://creativecommons.org/ns#" xmlns:dc="http://purl.org/dc/elements/1.1/" xmlns:rdf="http://www.w3.org/1999/02/22-rdf-syntax-ns#" xmlns:svg="http://www.w3.org/2000/svg" height="45" id="svg2" style="enable-background:new 0 0 45 45;" version="1.1" viewBox="0 0 45 45" width="45" xml:space="preserve"><metadata id="metadata8"><rdf:RDF><cc:Work rdf:about=""><dc:format>image/svg+xml</dc:format><dc:type rdf:resource="http://purl.org/dc/dcmitype/StillImage"/></cc:Work></rdf:RDF></metadata><defs id="defs6"><clipPath clipPathUnits="userSpaceOnUse" id="clipPath16"><path d="M 0,36 36,36 36,0 0,0 0,36 Z" id="path18"/></clipPath></defs><g id="g10" transform="matrix(1.25,0,0,-1.25,0,45)"><g id="g12"><g clip-path="url(#clipPath16)" id="g14"><g id="g20" transform="translate(20.1426,3.7852)"><path d="m 0,0 c 0,-1.183 -0.959,-2.143 -2.143,-2.143 -1.183,0 -2.143,0.96 -2.143,2.143 0,1.184 0.96,2.144 2.143,2.144 C -0.959,2.144 0,1.184 0,0" id="path22" style="fill:#e1e8ed;fill-opacity:1;fill-rule:nonzero;stroke:none"/></g><g id="g24" transform="translate(27.6426,20.3569)"><path d="m 0,0 c 0,5.326 -4.318,9.643 -9.643,9.643 -5.325,0 -9.643,-4.317 -9.643,-9.643 0,-5.357 -1.071,-16.572 -1.071,-16.572 0,-1.182 0.96,-2.142 2.143,-2.142 1.183,0 2.143,0.96 2.143,2.142 0,-1.182 0.959,-2.142 2.143,-2.142 1.183,0 2.142,0.96 2.142,2.142 l 4.286,0 c 0,-1.182 0.96,-2.142 2.144,-2.142 1.182,0 2.142,0.96 2.142,2.142 0,-1.182 0.959,-2.142 2.143,-2.142 1.183,0 2.142,0.96 2.142,2.142 C 1.071,-16.572 0,-5.357 0,0" id="path26" style="fill:#e1e8ed;fill-opacity:1;fill-rule:nonzero;stroke:none"/></g><g id="g28" transform="translate(20,33)"><path d="m 0,0 c 0,-2.209 -1.447,-6 -2,-6 -0.552,0 -2,3.791 -2,6 0,2.209 1.448,3 2,3 0.553,0 2,-0.791 2,-3" id="path30" style="fill:#dd2e44;fill-opacity:1;fill-rule:nonzero;stroke:none"/></g><g id="g32" transform="translate(15.6348,3)"><path d="M 0,0 C 0,2.612 1.711,8 2.365,8 3.019,8 4.73,2.612 4.73,0 4.73,-2.612 3.018,-3 2.365,-3 1.711,-3 0,-2.612 0,0" id="path34" style="fill:#dd2e44;fill-opacity:1;fill-rule:nonzero;stroke:none"/></g><g id="g36" transform="translate(25,13.5)"><path d="m 0,0 c 0,-1.5 -4.791,-4.5 -7,-4.5 -2.209,0 -7,3 -7,4.5 0,1.5 4.791,4.5 7,4.5 2.209,0 7,-3 7,-4.5" id="path38" style="fill:#f4900c;fill-opacity:1;fill-rule:nonzero;stroke:none"/></g><g id="g40" transform="translate(25,13.5)"><path d="m 0,0 c 0,-1.5 -14,-1.5 -14,0 0,1.5 4.791,4.5 7,4.5 2.209,0 7,-3 7,-4.5" id="path42" style="fill:#ffac33;fill-opacity:1;fill-rule:nonzero;stroke:none"/></g><g id="g44" transform="translate(13,17.5)"><path d="M 0,0 C 0,-0.828 -0.671,-1.5 -1.5,-1.5 -2.329,-1.5 -3,-0.828 -3,0 -3,0.829 -2.329,1.5 -1.5,1.5 -0.671,1.5 0,0.829 0,0" id="path46" style="fill:#292f33;fill-opacity:1;fill-rule:nonzero;stroke:none"/></g><g id="g48" transform="translate(26,17.5)"><path d="M 0,0 C 0,-0.828 -0.672,-1.5 -1.5,-1.5 -2.328,-1.5 -3,-0.828 -3,0 -3,0.829 -2.328,1.5 -1.5,1.5 -0.672,1.5 0,0.829 0,0" id="path50" style="fill:#292f33;fill-opacity:1;fill-rule:nonzero;stroke:none"/></g></g></g></g></svg>