<?xml version="1.0" encoding="UTF-8" standalone="no"?><svg xmlns="http://www.w3.org/2000/svg" xmlns:cc="http://creativecommons.org/ns#" xmlns:dc="http://purl.org/dc/elements/1.1/" xmlns:rdf="http://www.w3.org/1999/02/22-rdf-syntax-ns#" xmlns:svg="http://www.w3.org/2000/svg" height="45" id="svg2" style="enable-background:new 0 0 45 45;" version="1.1" viewBox="0 0 45 45" width="45" xml:space="preserve"><metadata id="metadata8"><rdf:RDF><cc:Work rdf:about=""><dc:format>image/svg+xml</dc:format><dc:type rdf:resource="http://purl.org/dc/dcmitype/StillImage"/></cc:Work></rdf:RDF></metadata><defs id="defs6"><clipPath clipPathUnits="userSpaceOnUse" id="clipPath16"><path d="M 0,36 36,36 36,0 0,0 0,36 Z" id="path18"/></clipPath></defs><g id="g10" transform="matrix(1.25,0,0,-1.25,0,45)"><g id="g12"><g clip-path="url(#clipPath16)" id="g14"><g id="g20" transform="translate(13,32.9995)"><path d="m 0,0 c -5.523,0 -10,-4.477 -10,-9.999 l 0,-10 4,0 0,10 C -6,-6.686 -3.314,-4 0,-4 3.314,-4 6,-6.686 6,-9.999 l 0,-10 4,0 0,10 C 10,-4.477 5.523,0 0,0" id="path22" style="fill:#aab8c2;fill-opacity:1;fill-rule:nonzero;stroke:none"/></g><g id="g24" transform="translate(26,4)"><path d="m 0,0 c 0,-2.209 -1.791,-4 -4,-4 l -18,0 c -2.209,0 -4,1.791 -4,4 l 0,12 c 0,2.209 1.791,4 4,4 l 18,0 c 2.209,0 4,-1.791 4,-4 L 0,0 Z" id="path26" style="fill:#ffac33;fill-opacity:1;fill-rule:nonzero;stroke:none"/></g><g id="g28" transform="translate(32,14)"><path d="M 0,0 -16,3.999 -27,-3 l 12.184,0 c 0.413,1.163 1.511,2 2.816,2 1.656,0 3,-1.343 3,-3 0,-1.657 -1.344,-3 -3,-3 -1.305,0 -2.403,0.837 -2.816,2 L -27,-5 l 11,-7 16,4 -1,4 1,4 z" id="path30" style="fill:#66757f;fill-opacity:1;fill-rule:nonzero;stroke:none"/></g><g id="g32" transform="translate(36,17.9995)"><path d="m 0,0 -3,0 c -0.55,0 -1.201,-0.402 -1.447,-0.894 l -3.106,-6.211 c -0.246,-0.492 -0.246,-1.297 0,-1.789 l 3.106,-6.211 c 0.246,-0.492 0.897,-0.894 1.447,-0.894 l 3,0 L 0,0 Z" id="path34" style="fill:#292f33;fill-opacity:1;fill-rule:nonzero;stroke:none"/></g></g></g></g></svg>