<?xml version="1.0" encoding="UTF-8" standalone="no"?><svg xmlns="http://www.w3.org/2000/svg" xmlns:cc="http://creativecommons.org/ns#" xmlns:dc="http://purl.org/dc/elements/1.1/" xmlns:rdf="http://www.w3.org/1999/02/22-rdf-syntax-ns#" xmlns:svg="http://www.w3.org/2000/svg" height="45" id="svg2" style="enable-background:new 0 0 45 45;" version="1.1" viewBox="0 0 45 45" width="45" xml:space="preserve"><metadata id="metadata8"><rdf:RDF><cc:Work rdf:about=""><dc:format>image/svg+xml</dc:format><dc:type rdf:resource="http://purl.org/dc/dcmitype/StillImage"/></cc:Work></rdf:RDF></metadata><defs id="defs6"><clipPath clipPathUnits="userSpaceOnUse" id="clipPath16"><path d="M 0,36 36,36 36,0 0,0 0,36 Z" id="path18"/></clipPath></defs><g id="g10" transform="matrix(1.25,0,0,-1.25,0,45)"><g id="g12"><g clip-path="url(#clipPath16)" id="g14"><g id="g20" transform="translate(14.0171,25.6323)"><path d="m 0,0 -5.844,5.844 c 0.846,1.017 0.804,2.525 -0.15,3.479 -1.011,1.011 -2.65,1.011 -3.662,0 -0.621,-0.621 -0.856,-1.479 -0.715,-2.282 -0.804,0.141 -1.661,-0.095 -2.282,-0.716 -1.011,-1.011 -1.011,-2.651 0,-3.662 0.954,-0.954 2.462,-0.995 3.479,-0.149 L -3.33,-3.33 0,0 Z" id="path22" style="fill:#ffd983;fill-opacity:1;fill-rule:nonzero;stroke:none"/></g><g id="g24" transform="translate(32.9541,3.3643)"><path d="m 0,0 c 1.665,1.665 5.874,8.809 0.046,14.636 -4.059,4.058 -7.328,3.826 -13.416,5.335 -2.497,0.832 -5.752,3.832 -6.584,4.665 -0.833,-0.833 -0.542,-3.874 -0.542,-3.874 0,0 -3.626,-0.294 -4.458,-1.126 0.832,-0.833 4.699,-4.49 5.375,-6.207 1.821,-5.775 1.613,-8.711 5.671,-12.77 C -7.248,-6 -1.664,-1.664 0,0" id="path26" style="fill:#c1694f;fill-opacity:1;fill-rule:nonzero;stroke:none"/></g></g></g></g></svg>