<?xml version="1.0" encoding="UTF-8" standalone="no"?><svg xmlns="http://www.w3.org/2000/svg" xmlns:cc="http://creativecommons.org/ns#" xmlns:dc="http://purl.org/dc/elements/1.1/" xmlns:rdf="http://www.w3.org/1999/02/22-rdf-syntax-ns#" xmlns:svg="http://www.w3.org/2000/svg" height="45" id="svg2" style="enable-background:new 0 0 45 45;" version="1.1" viewBox="0 0 45 45" width="45" xml:space="preserve"><metadata id="metadata8"><rdf:RDF><cc:Work rdf:about=""><dc:format>image/svg+xml</dc:format><dc:type rdf:resource="http://purl.org/dc/dcmitype/StillImage"/></cc:Work></rdf:RDF></metadata><defs id="defs6"><clipPath clipPathUnits="userSpaceOnUse" id="clipPath16"><path d="M 0,36 36,36 36,0 0,0 0,36 Z" id="path18"/></clipPath></defs><g id="g10" transform="matrix(1.25,0,0,-1.25,0,45)"><g id="g12"><g clip-path="url(#clipPath16)" id="g14"><g id="g20" transform="translate(36,15.6367)"><path d="m 0,0 c -1.352,0.427 -3.842,3.363 -6,3.363 -3,0 -3,7 -4,9 -1,2 -3,4 -3,5 0,1 -3,2 -8,0 -5,-2 -8,-2 -10,-2 -2,0 -3,-2 -4,-4 -1,-2 0,-2 0,-2 1,-1 2,2 4,3 2,1 3,-1 5,0 1.493,0.747 4.658,-0.178 7,0.137 0.794,0.106 1.493,0.356 2,0.863 0,0 0,-8 2,-11 0,0 -1,-1 -2,-4 -1,-3 -2,0 -2,2 0,2 -1,5 -5,7 -1.789,0.895 -5.658,0.683 -7,-2 -2,-4 0,-8 2,-9 2,-1 3,-2 7,-2 1.943,0 17.813,-0.48 22,-0.364 L 0,0 Z" id="path22" style="fill:#f7dece;fill-opacity:1;fill-rule:nonzero;stroke:none"/></g><g id="g24" transform="translate(8.1816,19.5947)"><path d="M 0,0 C 2.186,1.941 5.633,1.687 8.025,-0.472 7.309,0.901 6.02,2.305 3.818,3.405 c -1.789,0.895 -5.658,0.683 -7,-2 -2,-4 0,-8 2,-9 0.24,-0.119 0.463,-0.239 0.681,-0.356 C -2.314,-5.33 -2.166,-1.926 0,0" id="path26" style="fill:#4289c1;fill-opacity:1;fill-rule:nonzero;stroke:none"/></g><g id="g28" transform="translate(12,17.5)"><path d="m 0,0 c -0.128,0 -0.256,0.049 -0.354,0.146 -0.195,0.196 -0.195,0.512 0,0.708 C 0.78,1.987 1.951,2 2,2 2.276,2 2.5,1.776 2.5,1.5 2.5,1.224 2.276,1 2,1 1.972,0.999 1.179,0.972 0.354,0.146 0.256,0.049 0.128,0 0,0" id="path30" style="fill:#d89882;fill-opacity:1;fill-rule:nonzero;stroke:none"/></g><g id="g32" transform="translate(8,14.5)"><path d="m 0,0 c -0.128,0 -0.256,0.049 -0.354,0.146 -0.195,0.196 -0.195,0.512 0,0.708 C 0.78,1.987 1.951,2 2,2 2.276,2 2.5,1.776 2.5,1.5 2.5,1.224 2.276,1 2,1 1.972,0.999 1.179,0.972 0.354,0.146 0.256,0.049 0.128,0 0,0" id="path34" style="fill:#d89882;fill-opacity:1;fill-rule:nonzero;stroke:none"/></g><path d="M 36,12 0,12 0,0 36,0 36,12 Z" id="path36" style="fill:#55acee;fill-opacity:1;fill-rule:nonzero;stroke:none"/><g id="g38" transform="translate(6,12)"><path d="M 0,0 C 3,2 7,5 6,3 5,1 4.999,0 7,1 c 2,1 5,2 4,0 -1,-2 2,-1 3,0 1,1 4,0 3,-1 C 16,-1 8,-2 5,-2 2,-2 0,0 0,0" id="path40" style="fill:#55acee;fill-opacity:1;fill-rule:nonzero;stroke:none"/></g></g></g></g></svg>