<?xml version="1.0" encoding="UTF-8" standalone="no"?><svg xmlns="http://www.w3.org/2000/svg" xmlns:cc="http://creativecommons.org/ns#" xmlns:dc="http://purl.org/dc/elements/1.1/" xmlns:rdf="http://www.w3.org/1999/02/22-rdf-syntax-ns#" xmlns:svg="http://www.w3.org/2000/svg" height="45" id="svg2" style="enable-background:new 0 0 45 45;" version="1.1" viewBox="0 0 45 45" width="45" xml:space="preserve"><metadata id="metadata8"><rdf:RDF><cc:Work rdf:about=""><dc:format>image/svg+xml</dc:format><dc:type rdf:resource="http://purl.org/dc/dcmitype/StillImage"/></cc:Work></rdf:RDF></metadata><defs id="defs6"><clipPath clipPathUnits="userSpaceOnUse" id="clipPath16"><path d="M 4,31 C 1.791,31 0,29.209 0,27 L 0,27 0,9 C 0,6.791 1.791,5 4,5 l 0,0 28,0 c 2.209,0 4,1.791 4,4 l 0,0 0,18 c 0,2.209 -1.791,4 -4,4 l 0,0 -28,0 z" id="path18"/></clipPath></defs><g id="g10" transform="matrix(1.25,0,0,-1.25,0,45)"><g id="g12"><g clip-path="url(#clipPath16)" id="g14"><g id="g20" transform="translate(13.5886,18.7051)"><path d="M 0,0 -1.308,0.95 -2.616,0 l 0.5,1.538 -1.309,0.95 1.617,0 0.5,1.538 0.5,-1.538 1.616,0 L -0.5,1.538 0,0 Z m -4.393,3.766 -1.308,0.95 -1.308,-0.95 0.499,1.537 -1.308,0.951 1.617,0 0.5,1.537 0.499,-1.537 1.617,0 -1.308,-0.951 0.5,-1.537 z m -4.893,5.303 0.5,-1.538 -1.308,0.95 -1.309,-0.95 0.5,1.538 -1.308,0.95 1.617,0 0.5,1.538 0.499,-1.538 1.617,0 -1.308,-0.95 z M -8.786,0 -10.094,0.95 -11.403,0 l 0.5,1.538 -1.308,0.95 1.617,0 0.5,1.538 0.499,-1.538 1.617,0 -1.308,-0.95 0.5,-1.538 z m 6.978,10.019 0.5,1.538 0.5,-1.538 1.616,0 L -0.5,9.069 0,7.531 l -1.308,0.95 -1.308,-0.95 0.5,1.538 -1.309,0.95 1.617,0 z m -11.781,2.276 0,-24.655 33.983,24.655 -33.983,0 z" id="path22" style="fill:#0051ba;fill-opacity:1;fill-rule:nonzero;stroke:none"/></g><g id="g24" transform="translate(36,5)"><path d="M 0,0 0,24.655 -33.983,0 0,0 Z" id="path26" style="fill:#215b33;fill-opacity:1;fill-rule:nonzero;stroke:none"/></g><g id="g28" transform="translate(33.9828,31)"><path d="m 0,0 -33.983,-24.655 0,-1.345 2.018,0 33.982,24.655 0,1.345 0,0 L 0,0 Z" id="path30" style="fill:#fcd116;fill-opacity:1;fill-rule:nonzero;stroke:none"/></g><g id="g32" transform="translate(8.387,24.9226)"><path d="M 0,0 -0.5,1.538 -0.999,0 l -1.617,0 1.308,-0.95 -0.5,-1.538 1.308,0.95 1.308,-0.95 L 0.309,-0.95 1.617,0 0,0 Z" id="path34" style="fill:#ffffff;fill-opacity:1;fill-rule:nonzero;stroke:none"/></g><g id="g36" transform="translate(3.4941,30.2258)"><path d="m 0,0 -0.5,-1.538 -1.617,0 1.309,-0.95 -0.5,-1.538 1.308,0.95 1.308,-0.95 -0.5,1.538 1.308,0.95 -1.616,0 L 0,0 Z" id="path38" style="fill:#ffffff;fill-opacity:1;fill-rule:nonzero;stroke:none"/></g><g id="g40" transform="translate(12.7803,21.1571)"><path d="M 0,0 -0.5,1.538 -0.999,0 l -1.617,0 1.308,-0.95 -0.5,-1.538 1.308,0.95 1.308,-0.95 L 0.309,-0.95 1.617,0 0,0 Z" id="path42" style="fill:#ffffff;fill-opacity:1;fill-rule:nonzero;stroke:none"/></g><g id="g44" transform="translate(3.9937,21.1571)"><path d="M 0,0 -0.5,1.538 -0.999,0 l -1.617,0 1.308,-0.95 -0.5,-1.538 1.308,0.95 1.308,-0.95 L 0.309,-0.95 1.617,0 0,0 Z" id="path46" style="fill:#ffffff;fill-opacity:1;fill-rule:nonzero;stroke:none"/></g><g id="g48" transform="translate(10.9725,26.2)"><path d="M 0,0 1.308,0.95 2.616,0 2.117,1.538 l 1.308,0.95 -1.617,0 -0.5,1.538 -0.5,-1.538 -1.616,0 L 0.5,1.538 0,0 Z" id="path50" style="fill:#ffffff;fill-opacity:1;fill-rule:nonzero;stroke:none"/></g></g></g></g></svg>