<?xml version="1.0" encoding="UTF-8" standalone="no"?><svg xmlns="http://www.w3.org/2000/svg" xmlns:cc="http://creativecommons.org/ns#" xmlns:dc="http://purl.org/dc/elements/1.1/" xmlns:rdf="http://www.w3.org/1999/02/22-rdf-syntax-ns#" xmlns:svg="http://www.w3.org/2000/svg" height="45" id="svg2" style="enable-background:new 0 0 45 45;" version="1.1" viewBox="0 0 45 45" width="45" xml:space="preserve"><metadata id="metadata8"><rdf:RDF><cc:Work rdf:about=""><dc:format>image/svg+xml</dc:format><dc:type rdf:resource="http://purl.org/dc/dcmitype/StillImage"/></cc:Work></rdf:RDF></metadata><defs id="defs6"><clipPath clipPathUnits="userSpaceOnUse" id="clipPath16"><path d="M 0,36 36,36 36,0 0,0 0,36 Z" id="path18"/></clipPath><clipPath clipPathUnits="userSpaceOnUse" id="clipPath40"><path d="m 11,29 0,-14 c 0,0 0,-2 2,-2 l 0,0 10,0 c 0,0 2,0 2,2 l 0,0 0,14 -14,0 z" id="path42"/></clipPath><clipPath clipPathUnits="userSpaceOnUse" id="clipPath56"><path d="M 0,36 36,36 36,0 0,0 0,36 Z" id="path58"/></clipPath></defs><g id="g10" transform="matrix(1.25,0,0,-1.25,0,45)"><g id="g12"><g clip-path="url(#clipPath16)" id="g14"><g id="g20" transform="translate(31,11)"><path d="m 0,0 c 0,-2.209 -1.791,-4 -4,-4 l -18,0 c -2.209,0 -4,1.791 -4,4 l 0,21 c 0,2.209 1.791,4 4,4 l 18,0 c 2.209,0 4,-1.791 4,-4 L 0,0 Z" id="path22" style="fill:#dd2e44;fill-opacity:1;fill-rule:nonzero;stroke:none"/></g><g id="g24" transform="translate(7,26)"><path d="m 0,0 0,4 c 0,0 0,2 2,2 l 18,0 c 0,0 2,0 2,-2 L 22,0 0,0 Z" id="path26" style="fill:#a0041e;fill-opacity:1;fill-rule:nonzero;stroke:none"/></g><g id="g28" transform="translate(27,24)"><path d="m 0,0 -18,0 c 0,0 -2,0 -2,2 L -20,5 2,5 2,2 C 2,0 0,0 0,0" id="path30" style="fill:#292f33;fill-opacity:1;fill-rule:nonzero;stroke:none"/></g><g id="g32" transform="translate(11,29)"><path d="m 0,0 0,-14 c 0,0 0,-2 2,-2 l 10,0 c 0,0 2,0 2,2 L 14,0 0,0 Z" id="path34" style="fill:#e1e8ed;fill-opacity:1;fill-rule:nonzero;stroke:none"/></g></g></g><g id="g36"><g clip-path="url(#clipPath40)" id="g38"><g id="g44" transform="translate(24,12)"><path d="m 0,0 -9,11 6,6 -11,0 0,-17 14,0 z" id="path46" style="fill:#ccd6dd;fill-opacity:1;fill-rule:nonzero;stroke:none"/></g><g id="g48" transform="translate(23,12)"><path d="m 0,0 c 0,0 -7,9 -8,10 -1,1 0,2 0,2 l 6,6 1,-1 L -7,11 1,1 0,0 Z" id="path50" style="fill:#66757f;fill-opacity:1;fill-rule:nonzero;stroke:none"/></g></g></g><g id="g52"><g clip-path="url(#clipPath56)" id="g54"><path d="m 23,7 -9,0 0,-7 9,0 0,7 z" id="path60" style="fill:#66757f;fill-opacity:1;fill-rule:nonzero;stroke:none"/></g></g></g></svg>