<?xml version="1.0" encoding="UTF-8" standalone="no"?><svg xmlns="http://www.w3.org/2000/svg" xmlns:cc="http://creativecommons.org/ns#" xmlns:dc="http://purl.org/dc/elements/1.1/" xmlns:rdf="http://www.w3.org/1999/02/22-rdf-syntax-ns#" xmlns:svg="http://www.w3.org/2000/svg" height="45" id="svg2" style="enable-background:new 0 0 45 45;" version="1.1" viewBox="0 0 45 45" width="45" xml:space="preserve"><metadata id="metadata8"><rdf:RDF><cc:Work rdf:about=""><dc:format>image/svg+xml</dc:format><dc:type rdf:resource="http://purl.org/dc/dcmitype/StillImage"/></cc:Work></rdf:RDF></metadata><defs id="defs6"><clipPath clipPathUnits="userSpaceOnUse" id="clipPath28"><path d="M 0,36 36,36 36,0 0,0 0,36 Z" id="path30"/></clipPath></defs><g id="g10" transform="matrix(1.25,0,0,-1.25,0,45)"><g id="g12" transform="translate(9.6246,17.0001)"><path d="m 0,0 -9.625,-17 28,0 L 8.751,0 0,0 Z" id="path14" style="fill:#a7a9ac;fill-opacity:1;fill-rule:nonzero;stroke:none"/></g><g id="g16" transform="translate(11.3751,17.0001)"><path d="M 0,0 -8.75,-17 13.999,-17 5.25,0 0,0 Z" id="path18" style="fill:#58595b;fill-opacity:1;fill-rule:nonzero;stroke:none"/></g><g id="g20" transform="translate(13.1247,17.0001)"><path d="M 0,0 -7.875,-17 9.626,-17 1.751,0 0,0 Z" id="path22" style="fill:#808285;fill-opacity:1;fill-rule:nonzero;stroke:none"/></g><g id="g24"><g clip-path="url(#clipPath28)" id="g26"><g id="g32" transform="translate(24,1)"><path d="m 0,0 c 0,-0.553 -0.447,-1 -1,-1 l -18,0 c -0.552,0 -1,0.447 -1,1 0,0.553 0.448,1 1,1 L -1,1 C -0.447,1 0,0.553 0,0" id="path34" style="fill:#a7a9ac;fill-opacity:1;fill-rule:nonzero;stroke:none"/></g><g id="g36" transform="translate(22,5)"><path d="m 0,0 c 0,-0.553 -0.447,-1 -1,-1 l -14,0 c -0.552,0 -1,0.447 -1,1 0,0.553 0.448,1 1,1 L -1,1 C -0.447,1 0,0.553 0,0" id="path38" style="fill:#a7a9ac;fill-opacity:1;fill-rule:nonzero;stroke:none"/></g><g id="g40" transform="translate(20,9)"><path d="m 0,0 c 0,-0.553 -0.447,-1 -1,-1 l -10,0 c -0.552,0 -1,0.447 -1,1 0,0.553 0.448,1 1,1 L -1,1 C -0.447,1 0,0.553 0,0" id="path42" style="fill:#a7a9ac;fill-opacity:1;fill-rule:nonzero;stroke:none"/></g><g id="g44" transform="translate(6.896,12.1797)"><path d="m 0,0 c 0.984,-1.226 2.29,-2.18 3.604,-2.18 l 7,0 c 1.314,0 2.62,0.955 3.605,2.18 L 11.978,3.938 C 10.789,3.841 9.223,3.82 7.104,3.82 4.947,3.82 3.364,3.797 2.167,3.828 L 0,0 Z" id="path46" style="fill:#58595b;fill-opacity:1;fill-rule:nonzero;stroke:none"/></g><g id="g48" transform="translate(15,33)"><path d="m 0,0 c 0,-0.552 -0.448,-1 -1,-1 -0.552,0 -1,0.448 -1,1 l 0,1 c 0,0.552 0.448,1 1,1 0.552,0 1,-0.448 1,-1 L 0,0 Z" id="path50" style="fill:#414042;fill-opacity:1;fill-rule:nonzero;stroke:none"/></g><g id="g52" transform="translate(18,31)"><path d="m 0,0 c 0,-1.104 -0.895,-2 -2,-2 l -4,0 c -1.104,0 -2,0.896 -2,2 0,1.104 0.896,2 2,2 l 4,0 C -0.895,2 0,1.104 0,0" id="path54" style="fill:#6d6e71;fill-opacity:1;fill-rule:nonzero;stroke:none"/></g><g id="g56" transform="translate(23,18)"><path d="m 0,0 c 0,-2.209 -3.412,-5 -5.4,-5 l -7.2,0 c -1.988,0 -5.4,2.791 -5.4,5 l 0,10 c 0,2.209 1.612,4 3.6,4 l 10.8,0 C -1.612,14 0,12.209 0,10 L 0,0 Z" id="path58" style="fill:#d1d3d4;fill-opacity:1;fill-rule:nonzero;stroke:none"/></g><g id="g60" transform="translate(21,20)"><path d="m 0,0 c 0,-2.209 -1.791,-4 -4,-4 l -6,0 c -2.209,0 -4,1.791 -4,4 l 0,5 c 0,2.209 1.791,3 4,3 l 6,0 C -1.791,8 0,7.209 0,5 L 0,0 Z" id="path62" style="fill:#808285;fill-opacity:1;fill-rule:nonzero;stroke:none"/></g><g id="g64" transform="translate(11,21)"><path d="m 0,0 6,0 c 2.209,0 4,1.791 4,4 L 10,5 -4,5 -4,4 C -4,1.791 -2.209,0 0,0" id="path66" style="fill:#55acee;fill-opacity:1;fill-rule:nonzero;stroke:none"/></g><g id="g68" transform="translate(14,16)"><path d="M 0,0 C -6.3,0 -7.878,1.801 -9,3.242 L -9,2 c 0,-2.209 2.7,-6 5.4,-6 l 7.2,0 C 6.3,-4 9,-0.209 9,2 L 9,3.891 C 7.879,2.161 6.3,0 0,0" id="path70" style="fill:#5c913b;fill-opacity:1;fill-rule:nonzero;stroke:none"/></g><g id="g72" transform="translate(11,18.5)"><path d="M 0,0 C 0,-0.828 -0.672,-1.5 -1.5,-1.5 -2.329,-1.5 -3,-0.828 -3,0 -3,0.829 -2.329,1.501 -1.5,1.501 -0.672,1.501 0,0.829 0,0" id="path74" style="fill:#ffd983;fill-opacity:1;fill-rule:nonzero;stroke:none"/></g><g id="g76" transform="translate(20,18.5)"><path d="M 0,0 C 0,-0.828 -0.672,-1.5 -1.5,-1.5 -2.328,-1.5 -3,-0.828 -3,0 -3,0.829 -2.328,1.501 -1.5,1.501 -0.672,1.501 0,0.829 0,0" id="path78" style="fill:#ffd983;fill-opacity:1;fill-rule:nonzero;stroke:none"/></g><g id="g80" transform="translate(21,26)"><path d="m 0,0 0,2 c 0,1.104 -0.895,2 -2,2 l -10,0 c -1.104,0 -2,-0.896 -2,-2 l 0,-2 14,0 z" id="path82" style="fill:#292f33;fill-opacity:1;fill-rule:nonzero;stroke:none"/></g><g id="g84" transform="translate(17,28)"><path d="m 0,0 c 0,-0.552 -0.447,-1 -1,-1 l -4,0 c -0.552,0 -1,0.448 -1,1 0,0.552 0.448,1 1,1 l 4,0 C -0.447,1 0,0.552 0,0" id="path86" style="fill:#6d6e71;fill-opacity:1;fill-rule:nonzero;stroke:none"/></g><g id="g88" transform="translate(23,13.0605)"><path d="m 0,0 9,-13.061 4,0 0,5 -4,0 -9,10 L 0,0 Z" id="path90" style="fill:#58595b;fill-opacity:1;fill-rule:nonzero;stroke:none"/></g><g id="g92" transform="translate(36,5)"><path d="M 0,0 0,10 -13,10 -4,0 0,0 Z" id="path94" style="fill:#a7a9ac;fill-opacity:1;fill-rule:nonzero;stroke:none"/></g><g id="g96" transform="translate(33,12)"><path d="m 0,0 c 0,-1 0,-1 -1,-1 -1,0 -1,0 -1,1 l 0,11 c 0,0.552 0.447,1 1,1 0.553,0 1,-0.448 1,-1 L 0,0 Z" id="path98" style="fill:#6d6e71;fill-opacity:1;fill-rule:nonzero;stroke:none"/></g><g id="g100" transform="translate(33,19)"><path d="m 0,0 c 0,-0.999 0,-1 -1,-1 -1,0 -1,0.001 -1,1 l 0,7 c 0,0.552 0.447,1 1,1 0.553,0 1,-0.448 1,-1 L 0,0 Z" id="path102" style="fill:#939598;fill-opacity:1;fill-rule:nonzero;stroke:none"/></g><g id="g104" transform="translate(36,25)"><path d="m 0,0 c 0,-1.104 -0.895,-2 -2,-2 l -4,0 c -1.104,0 -2,0.896 -2,2 l 0,2 c 0,1.104 0.896,2 2,2 l 4,0 C -0.895,4 0,3.104 0,2 L 0,0 Z" id="path106" style="fill:#58595b;fill-opacity:1;fill-rule:nonzero;stroke:none"/></g><g id="g108" transform="translate(34,26)"><path d="m 0,0 c 0,-0.552 -0.447,-1 -1,-1 l -2,0 c -0.553,0 -1,0.448 -1,1 0,0.552 0.447,1 1,1 l 2,0 C -0.447,1 0,0.552 0,0" id="path110" style="fill:#939598;fill-opacity:1;fill-rule:nonzero;stroke:none"/></g></g></g></g></svg>