<?xml version="1.0" encoding="UTF-8" standalone="no"?><svg xmlns="http://www.w3.org/2000/svg" xmlns:cc="http://creativecommons.org/ns#" xmlns:dc="http://purl.org/dc/elements/1.1/" xmlns:rdf="http://www.w3.org/1999/02/22-rdf-syntax-ns#" xmlns:svg="http://www.w3.org/2000/svg" height="45" id="svg2" style="enable-background:new 0 0 45 45;" version="1.1" viewBox="0 0 45 45" width="45" xml:space="preserve"><metadata id="metadata8"><rdf:RDF><cc:Work rdf:about=""><dc:format>image/svg+xml</dc:format><dc:type rdf:resource="http://purl.org/dc/dcmitype/StillImage"/></cc:Work></rdf:RDF></metadata><defs id="defs6"><clipPath clipPathUnits="userSpaceOnUse" id="clipPath16"><path d="M 0,36 36,36 36,0 0,0 0,36 Z" id="path18"/></clipPath><clipPath clipPathUnits="userSpaceOnUse" id="clipPath32"><path d="M 18,36 C 8.059,36 0,27.941 0,18 l 0,0 C 0,8.059 8.059,0 18,0 l 0,0 c 9.941,0 18,8.059 18,18 l 0,0 c 0,9.941 -8.059,18 -18,18 z" id="path34"/></clipPath></defs><g id="g10" transform="matrix(1.25,0,0,-1.25,0,45)"><g id="g12"><g clip-path="url(#clipPath16)" id="g14"><g id="g20" transform="translate(36,18)"><path d="m 0,0 c 0,-9.941 -8.059,-18 -18,-18 -9.941,0 -18,8.059 -18,18 0,9.941 8.059,18 18,18 C -8.059,18 0,9.941 0,0" id="path22" style="fill:#f4900c;fill-opacity:1;fill-rule:nonzero;stroke:none"/></g><path d="m 19,0 -2,0 0,36 2,0 0,-36 z" id="path24" style="fill:#231f20;fill-opacity:1;fill-rule:nonzero;stroke:none"/><path d="m 0,19 36,0 0,-2 -36,0 0,2 z" id="path26" style="fill:#231f20;fill-opacity:1;fill-rule:nonzero;stroke:none"/></g></g><g id="g28"><g clip-path="url(#clipPath32)" id="g30"><g id="g36" transform="translate(2,30)"><path d="m 0,0 c -4.318,0 -7,-4.598 -7,-12 0,-7.402 2.682,-12 7,-12 4.318,0 7,4.598 7,12 C 7,-4.598 4.318,0 0,0 m 0,-26 c -4.351,0 -9,3.678 -9,14 0,10.322 4.649,14 9,14 4.351,0 9,-3.678 9,-14 0,-10.322 -4.649,-14 -9,-14" id="path38" style="fill:#231f20;fill-opacity:1;fill-rule:nonzero;stroke:none"/></g><g id="g40" transform="translate(34,30)"><path d="m 0,0 c -4.317,0 -7,-4.598 -7,-12 0,-7.402 2.683,-12 7,-12 4.317,0 7,4.598 7,12 C 7,-4.598 4.317,0 0,0 m 0,-26 c -4.351,0 -9,3.678 -9,14 0,10.322 4.649,14 9,14 4.351,0 9,-3.678 9,-14 0,-10.322 -4.649,-14 -9,-14" id="path42" style="fill:#231f20;fill-opacity:1;fill-rule:nonzero;stroke:none"/></g></g></g></g></svg>