<?xml version="1.0" encoding="UTF-8" standalone="no"?><svg xmlns="http://www.w3.org/2000/svg" xmlns:cc="http://creativecommons.org/ns#" xmlns:dc="http://purl.org/dc/elements/1.1/" xmlns:rdf="http://www.w3.org/1999/02/22-rdf-syntax-ns#" xmlns:svg="http://www.w3.org/2000/svg" height="45" id="svg2" style="enable-background:new 0 0 45 45;" version="1.1" viewBox="0 0 45 45" width="45" xml:space="preserve"><metadata id="metadata8"><rdf:RDF><cc:Work rdf:about=""><dc:format>image/svg+xml</dc:format><dc:type rdf:resource="http://purl.org/dc/dcmitype/StillImage"/></cc:Work></rdf:RDF></metadata><defs id="defs6"><clipPath clipPathUnits="userSpaceOnUse" id="clipPath16"><path d="M 0,36 36,36 36,0 0,0 0,36 Z" id="path18"/></clipPath></defs><g id="g10" transform="matrix(1.25,0,0,-1.25,0,45)"><g id="g12"><g clip-path="url(#clipPath16)" id="g14"><g id="g20" transform="translate(33.8838,0.7705)"><path d="m 0,0 c -0.314,0 -0.629,0.12 -0.869,0.36 l -30.685,30.685 c -0.48,0.48 -0.48,1.258 0,1.738 0.48,0.481 1.259,0.481 1.739,0 L 0.869,2.099 C 1.35,1.619 1.35,0.84 0.869,0.36 0.629,0.12 0.314,0 0,0" id="path22" style="fill:#d99e82;fill-opacity:1;fill-rule:nonzero;stroke:none"/></g><g id="g24" transform="translate(6.7285,32.9541)"><path d="m 0,0 c -2.651,0.536 -4.261,-1.167 -3.578,-3.784 l 1.843,-7.055 c 0.684,-2.617 2.808,-3.193 4.72,-1.28 l 6.103,6.102 C 11,-4.104 10.396,-2.101 7.745,-1.565 L 0,0 Z" id="path26" style="fill:#66757f;fill-opacity:1;fill-rule:nonzero;stroke:none"/></g><g id="g28" transform="translate(22.6143,20.0317)"><path d="m 0,0 c 0,-3.734 -3.027,-6.761 -6.762,-6.761 -3.735,0 -6.762,3.027 -6.762,6.761 0,3.734 3.027,6.762 6.762,6.762 C -3.027,6.762 0,3.734 0,0" id="path30" style="fill:#d99e82;fill-opacity:1;fill-rule:nonzero;stroke:none"/></g><g id="g32" transform="translate(22.0518,5.293)"><path d="m 0,0 c -0.96,-0.96 -2.518,-0.96 -3.477,0 l -3.478,3.478 c -0.959,0.959 -0.959,2.516 0,3.476 l 8.693,8.693 c 0.961,0.96 2.518,0.96 3.478,0 L 8.693,12.17 c 0.96,-0.96 0.96,-2.517 0,-3.478 L 0,0 Z" id="path34" style="fill:#ccd6dd;fill-opacity:1;fill-rule:nonzero;stroke:none"/></g><g id="g36" transform="translate(33.8838,0.7705)"><path d="m 0,0 c -0.314,0 -0.629,0.12 -0.869,0.36 l -9.118,9.119 c -0.481,0.479 -0.481,1.258 0,1.738 0.48,0.48 1.257,0.48 1.738,0 L 0.869,2.099 C 1.35,1.619 1.35,0.84 0.869,0.36 0.629,0.12 0.314,0 0,0" id="path38" style="fill:#d99e82;fill-opacity:1;fill-rule:nonzero;stroke:none"/></g></g></g></g></svg>