<?xml version="1.0" encoding="UTF-8" standalone="no"?><svg xmlns="http://www.w3.org/2000/svg" xmlns:cc="http://creativecommons.org/ns#" xmlns:dc="http://purl.org/dc/elements/1.1/" xmlns:rdf="http://www.w3.org/1999/02/22-rdf-syntax-ns#" xmlns:svg="http://www.w3.org/2000/svg" height="45" id="svg2" style="enable-background:new 0 0 45 45;" version="1.1" viewBox="0 0 45 45" width="45" xml:space="preserve"><metadata id="metadata8"><rdf:RDF><cc:Work rdf:about=""><dc:format>image/svg+xml</dc:format><dc:type rdf:resource="http://purl.org/dc/dcmitype/StillImage"/></cc:Work></rdf:RDF></metadata><defs id="defs6"><clipPath clipPathUnits="userSpaceOnUse" id="clipPath16"><path d="M 0,36 36,36 36,0 0,0 0,36 Z" id="path18"/></clipPath></defs><g id="g10" transform="matrix(1.25,0,0,-1.25,0,45)"><g id="g12"><g clip-path="url(#clipPath16)" id="g14"><g id="g20" transform="translate(36,12)"><path d="m 0,0 c 0,-0.553 -0.447,-1 -1,-1 l -1,0 c -0.553,0 -1,0.447 -1,1 l 0,6 c 0,0.553 0.447,1 1,1 l 1,0 C -0.447,7 0,6.553 0,6 L 0,0 Z" id="path22" style="fill:#292f33;fill-opacity:1;fill-rule:nonzero;stroke:none"/></g><g id="g24" transform="translate(5,5)"><path d="m 0,0 26,0 c 1,0 3,1 3,4 0,2 0,8 -1,9 -1,1 0,7 -4,7 L 10,20 C 7,20 4,13 4,13 L 0,12 C 0,12 -4,11 -4,8 L -4,5 C -4,5 -5,4.662 -5,3.043 -5,1.424 -4,1 -4,1 L 0,0 Z" id="path26" style="fill:#3b88c3;fill-opacity:1;fill-rule:nonzero;stroke:none"/></g><g id="g28" transform="translate(13,5)"><path d="m 0,0 c 0,-2.209 -1.791,-4 -4,-4 -2.209,0 -4,1.791 -4,4 0,2.209 1.791,4 4,4 2.209,0 4,-1.791 4,-4" id="path30" style="fill:#292f33;fill-opacity:1;fill-rule:nonzero;stroke:none"/></g><g id="g32" transform="translate(11,5)"><path d="m 0,0 c 0,-1.105 -0.895,-2 -2,-2 -1.104,0 -2,0.895 -2,2 0,1.105 0.896,2 2,2 1.105,0 2,-0.895 2,-2" id="path34" style="fill:#ccd6dd;fill-opacity:1;fill-rule:nonzero;stroke:none"/></g><g id="g36" transform="translate(31,5)"><path d="m 0,0 c 0,-2.209 -1.791,-4 -4,-4 -2.209,0 -4,1.791 -4,4 0,2.209 1.791,4 4,4 2.209,0 4,-1.791 4,-4" id="path38" style="fill:#292f33;fill-opacity:1;fill-rule:nonzero;stroke:none"/></g><g id="g40" transform="translate(29,5)"><path d="m 0,0 c 0,-1.105 -0.895,-2 -2,-2 -1.104,0 -2,0.895 -2,2 0,1.105 0.896,2 2,2 1.105,0 2,-0.895 2,-2" id="path42" style="fill:#ccd6dd;fill-opacity:1;fill-rule:nonzero;stroke:none"/></g><g id="g44" transform="translate(24,19)"><path d="m 0,0 c 0,-0.552 0.447,-1 1,-1 l 4,0 c 0.553,0 1,0.448 1,1 L 6,3 C 6,3.552 5.553,4 5,4 L 1,4 C 0.447,4 0,3.552 0,3 L 0,0 Z" id="path46" style="fill:#bbddf5;fill-opacity:1;fill-rule:nonzero;stroke:none"/></g><g id="g48" transform="translate(13,19)"><path d="m 0,0 c 0,-1 0.448,-1 1,-1 l 7,0 c 0.553,0 1,0.448 1,1 L 9,3 C 9,3.552 8.553,4 8,4 L 3,4 C 2,4 0,1 0,0" id="path50" style="fill:#bbddf5;fill-opacity:1;fill-rule:nonzero;stroke:none"/></g><g id="g52" transform="translate(32,12.5)"><path d="m 0,0 c 0,-0.828 -0.672,-1.5 -1.5,-1.5 l -22,0 c -0.829,0 -1.5,0.672 -1.5,1.5 0,0.829 0.671,1.5 1.5,1.5 l 22,0 C -0.672,1.5 0,0.829 0,0" id="path54" style="fill:#55acee;fill-opacity:1;fill-rule:nonzero;stroke:none"/></g></g></g></g></svg>