<?xml version="1.0" encoding="UTF-8" standalone="no"?><svg xmlns="http://www.w3.org/2000/svg" xmlns:cc="http://creativecommons.org/ns#" xmlns:dc="http://purl.org/dc/elements/1.1/" xmlns:rdf="http://www.w3.org/1999/02/22-rdf-syntax-ns#" xmlns:svg="http://www.w3.org/2000/svg" height="45" id="svg2" style="enable-background:new 0 0 45 45;" version="1.1" viewBox="0 0 45 45" width="45" xml:space="preserve"><metadata id="metadata8"><rdf:RDF><cc:Work rdf:about=""><dc:format>image/svg+xml</dc:format><dc:type rdf:resource="http://purl.org/dc/dcmitype/StillImage"/></cc:Work></rdf:RDF></metadata><defs id="defs6"><clipPath clipPathUnits="userSpaceOnUse" id="clipPath16"><path d="M 0,36 36,36 36,0 0,0 0,36 Z" id="path18"/></clipPath></defs><g id="g10" transform="matrix(1.25,0,0,-1.25,0,45)"><g id="g12"><g clip-path="url(#clipPath16)" id="g14"><g id="g20" transform="translate(11.8584,19.7363)"><path d="m 0,0 c 0.389,-0.389 0.389,-1.025 0,-1.414 -0.389,-0.389 -1.025,-0.389 -1.414,0 l -8.485,8.486 c -0.389,0.389 -0.389,1.025 0,1.414 0.388,0.388 1.025,0.388 1.414,0 L 0,0 Z" id="path22" style="fill:#9aaab4;fill-opacity:1;fill-rule:nonzero;stroke:none"/></g><g id="g24" transform="translate(18.9297,26.8071)"><path d="m 0,0 c 0.389,-0.389 0.389,-1.025 0,-1.414 -0.389,-0.389 -1.025,-0.389 -1.414,0 L -9.9,7.072 c -0.389,0.389 -0.389,1.025 0,1.414 0.388,0.388 1.025,0.388 1.414,0 L 0,0 Z" id="path26" style="fill:#9aaab4;fill-opacity:1;fill-rule:nonzero;stroke:none"/></g><g id="g28" transform="translate(34,0)"><path d="m 0,0 c 0,4.966 -2.56,8.581 -4.561,10.65 0.898,1.533 0.704,3.53 -0.611,4.844 l -1.098,1.099 c 0.351,1.332 0.021,2.806 -1.023,3.85 l -4.949,4.95 c 0.78,0.781 0.78,2.047 0,2.828 -0.781,0.781 -2.049,0.781 -2.829,0.001 l -2.826,-2.826 c -0.001,-0.001 -0.002,-0.002 -0.003,-0.003 l -4.243,-4.243 -2.828,-2.828 c -0.781,-0.781 -0.781,-2.047 0,-2.828 0.782,-0.781 2.047,-0.781 2.828,0 l 4.951,-4.95 c 1.044,-1.044 2.518,-1.373 3.849,-1.021 l 1.101,-1.101 C -10.924,7.104 -8.919,6.912 -7.385,7.82 -5.901,6.274 -4,3.596 -4,0 l 4,0 z" id="path30" style="fill:#292f33;fill-opacity:1;fill-rule:nonzero;stroke:none"/></g></g></g></g></svg>