<?xml version="1.0" encoding="UTF-8" standalone="no"?><svg xmlns="http://www.w3.org/2000/svg" xmlns:cc="http://creativecommons.org/ns#" xmlns:dc="http://purl.org/dc/elements/1.1/" xmlns:rdf="http://www.w3.org/1999/02/22-rdf-syntax-ns#" xmlns:svg="http://www.w3.org/2000/svg" height="45" id="svg2" style="enable-background:new 0 0 45 45;" version="1.1" viewBox="0 0 45 45" width="45" xml:space="preserve"><metadata id="metadata8"><rdf:RDF><cc:Work rdf:about=""><dc:format>image/svg+xml</dc:format><dc:type rdf:resource="http://purl.org/dc/dcmitype/StillImage"/></cc:Work></rdf:RDF></metadata><defs id="defs6"><clipPath clipPathUnits="userSpaceOnUse" id="clipPath16"><path d="M 0,36 36,36 36,0 0,0 0,36 Z" id="path18"/></clipPath></defs><g id="g10" transform="matrix(1.25,0,0,-1.25,0,45)"><g id="g12"><g clip-path="url(#clipPath16)" id="g14"><g id="g20" transform="translate(33,5)"><path d="m 0,0 c 0,-2.2 -1.8,-4 -4,-4 l -22,0 c -2.2,0 -4,1.8 -4,4 l 0,17 c 0,2.2 1.8,4 4,4 l 22,0 c 2.2,0 4,-1.8 4,-4 L 0,0 Z" id="path22" style="fill:#fdd888;fill-opacity:1;fill-rule:nonzero;stroke:none"/></g><g id="g24" transform="translate(36,25)"><path d="m 0,0 c 0,-2.2 -1.8,-4 -4,-4 l -28,0 c -2.2,0 -4,1.8 -4,4 0,2.2 1.8,4 4,4 L -4,4 C -1.8,4 0,2.2 0,0" id="path26" style="fill:#fdd888;fill-opacity:1;fill-rule:nonzero;stroke:none"/></g><path d="m 33,19 -30,0 0,2 30,0 0,-2 z" id="path28" style="fill:#fcab40;fill-opacity:1;fill-rule:nonzero;stroke:none"/><g id="g30" transform="translate(19,32.9995)"><path d="m 0,0 -1.999,0 c -1.657,0 -3,-1.343 -3,-3 L -5,-3 l 0,-28.999 8,0 L 3,-3 C 3,-1.343 1.657,0 0,0" id="path32" style="fill:#da2f47;fill-opacity:1;fill-rule:nonzero;stroke:none"/></g><g id="g34" transform="translate(16,29)"><path d="M 0,0 C 1.1,0 1.263,0.516 0.361,1.147 L -6.361,5.853 C -7.263,6.484 -8.446,6.219 -8.992,5.264 L -11.008,1.736 C -11.554,0.781 -11.1,0 -10,0 L 0,0 Z" id="path36" style="fill:#da2f47;fill-opacity:1;fill-rule:nonzero;stroke:none"/></g><g id="g38" transform="translate(20,29)"><path d="M 0,0 C -1.1,0 -1.263,0.516 -0.361,1.147 L 6.361,5.853 C 7.263,6.484 8.446,6.219 8.992,5.264 L 11.008,1.736 C 11.554,0.781 11.1,0 10,0 L 0,0 Z" id="path40" style="fill:#da2f47;fill-opacity:1;fill-rule:nonzero;stroke:none"/></g></g></g></g></svg>