<?xml version="1.0" encoding="UTF-8" standalone="no"?><svg xmlns="http://www.w3.org/2000/svg" xmlns:cc="http://creativecommons.org/ns#" xmlns:dc="http://purl.org/dc/elements/1.1/" xmlns:rdf="http://www.w3.org/1999/02/22-rdf-syntax-ns#" xmlns:svg="http://www.w3.org/2000/svg" height="45" id="svg2" style="enable-background:new 0 0 45 45;" version="1.1" viewBox="0 0 45 45" width="45" xml:space="preserve"><metadata id="metadata8"><rdf:RDF><cc:Work rdf:about=""><dc:format>image/svg+xml</dc:format><dc:type rdf:resource="http://purl.org/dc/dcmitype/StillImage"/></cc:Work></rdf:RDF></metadata><defs id="defs6"><clipPath clipPathUnits="userSpaceOnUse" id="clipPath16"><path d="M 0,36 36,36 36,0 0,0 0,36 Z" id="path18"/></clipPath></defs><g id="g10" transform="matrix(1.25,0,0,-1.25,0,45)"><g id="g12"><g clip-path="url(#clipPath16)" id="g14"><g id="g20" transform="translate(36,9)"><path d="m 0,0 c 0,-2.209 -1.791,-4 -4,-4 l -28,0 c -2.209,0 -4,1.791 -4,4 l 0,18 c 0,2.209 1.791,4 4,4 l 28,0 c 2.209,0 4,-1.791 4,-4 L 0,0 Z" id="path22" style="fill:#75aadb;fill-opacity:1;fill-rule:nonzero;stroke:none"/></g><path d="M 36,13 0,13 0,23 36,23 36,13 Z" id="path24" style="fill:#eeeeee;fill-opacity:1;fill-rule:nonzero;stroke:none"/><g id="g26" transform="translate(17.5771,15.874)"><path d="m 0,0 -1.236,-1.879 0.455,2.203 -1.862,-1.263 1.264,1.861 -2.203,-0.455 1.878,1.236 -2.209,0.423 2.21,0.423 L -3.582,3.785 -1.379,3.33 -2.643,5.191 -0.781,3.928 -1.236,6.131 0,4.252 0.423,6.461 0.846,4.253 2.082,6.131 1.627,3.928 3.488,5.191 2.225,3.33 4.428,3.785 2.549,2.549 4.758,2.126 2.549,1.703 4.428,0.467 2.225,0.922 3.487,-0.938 1.627,0.324 2.082,-1.879 0.846,0 0.423,-2.209 0,0 Z" id="path28" style="fill:#fcbf49;fill-opacity:1;fill-rule:nonzero;stroke:none"/></g><g id="g30" transform="translate(22.6191,20)"><path d="M 0,0 0.005,0 0,0 Z m -1.084,2 0.005,0 -0.005,0 z M -2.705,3 -2.7,3 -2.705,3 Z m -1.914,0 -0.488,-2.548 -1.425,2.167 0.524,-2.54 -2.147,1.457 1.457,-2.147 -2.54,0.524 2.167,-1.425 -2.548,-0.488 2.548,-0.488 -2.167,-1.426 2.54,0.525 -1.457,-2.146 2.147,1.457 -0.524,-2.541 1.425,2.167 0.488,-2.548 0.488,2.548 1.426,-2.167 -0.525,2.541 2.146,-1.457 -1.457,2.146 L 0,-3.914 -2.167,-2.488 0.381,-2 -2.167,-1.512 0,-0.087 -2.541,-0.611 -1.084,1.536 -3.23,0.079 -2.705,2.619 -4.131,0.452 -4.619,3 Z m 0,-1.33 0.242,-1.265 0.116,-0.605 0.339,0.515 0.707,1.076 -0.26,-1.262 -0.125,-0.604 0.51,0.347 1.066,0.723 -0.724,-1.066 -0.346,-0.509 0.604,0.124 1.261,0.26 -1.076,-0.707 -0.514,-0.339 0.605,-0.116 1.266,-0.242 -1.266,-0.242 -0.604,-0.116 0.513,-0.339 1.076,-0.707 -1.261,0.26 -0.604,0.125 0.346,-0.51 0.724,-1.066 -1.066,0.724 -0.51,0.346 0.125,-0.604 0.26,-1.262 -0.707,1.077 -0.339,0.513 -0.116,-0.604 -0.242,-1.266 -0.242,1.266 -0.116,0.605 -0.339,-0.514 -0.707,-1.077 0.26,1.262 0.124,0.604 -0.509,-0.346 -1.066,-0.724 0.723,1.066 0.346,0.51 -0.603,-0.125 -1.262,-0.26 1.076,0.707 0.515,0.339 -0.605,0.116 -1.265,0.242 1.265,0.242 0.605,0.116 -0.515,0.339 -1.076,0.707 1.262,-0.26 0.603,-0.124 -0.346,0.509 -0.723,1.066 1.066,-0.723 0.509,-0.346 -0.124,0.603 -0.26,1.262 0.707,-1.076 0.339,-0.515 0.116,0.605 0.242,1.265 z" id="path32" style="fill:#843511;fill-opacity:1;fill-rule:nonzero;stroke:none"/></g><g id="g34" transform="translate(16,18)"><path d="M 0,0 C 0,1.105 0.896,2 2,2 3.105,2 4,1.105 4,0 4,-1.104 3.105,-2 2,-2 0.896,-2 0,-1.104 0,0" id="path36" style="fill:#fcbf49;fill-opacity:1;fill-rule:nonzero;stroke:none"/></g><g id="g38" transform="translate(16,18)"><path d="M 0,0 C 0,1.105 0.896,2 2,2 3.105,2 4,1.105 4,0 4,-1.104 3.105,-2 2,-2 0.896,-2 0,-1.104 0,0 Z" id="path40" style="fill:none;stroke:#843511;stroke-width:0.25;stroke-linecap:butt;stroke-linejoin:miter;stroke-miterlimit:10;stroke-dasharray:none;stroke-opacity:1"/></g><g id="g42" transform="translate(17.8013,18.2261)"><path d="m 0,0 c 0,-0.155 -0.261,-0.28 -0.583,-0.28 -0.323,0 -0.584,0.125 -0.584,0.28 0,0.155 0.261,0.28 0.584,0.28 C -0.261,0.28 0,0.155 0,0" id="path44" style="fill:#c16540;fill-opacity:1;fill-rule:nonzero;stroke:none"/></g><g id="g46" transform="translate(19.3545,18.25)"><path d="m 0,0 c 0,0.161 -0.266,0.292 -0.594,0.292 -0.328,0 -0.593,-0.131 -0.593,-0.292 0,-0.161 0.265,-0.292 0.593,-0.292 C -0.266,-0.292 0,-0.161 0,0" id="path48" style="fill:#c16540;fill-opacity:1;fill-rule:nonzero;stroke:none"/></g><g id="g50" transform="translate(17.4629,17.126)"><path d="M 0,0 C 0,0.126 0.246,0.229 0.548,0.229 0.851,0.229 1.097,0.126 1.097,0 1.097,-0.126 0.851,-0.229 0.548,-0.229 0.246,-0.229 0,-0.126 0,0" id="path52" style="fill:#ed8662;fill-opacity:1;fill-rule:nonzero;stroke:none"/></g></g></g></g></svg>