<?xml version="1.0" encoding="UTF-8" standalone="no"?><svg xmlns="http://www.w3.org/2000/svg" xmlns:cc="http://creativecommons.org/ns#" xmlns:dc="http://purl.org/dc/elements/1.1/" xmlns:rdf="http://www.w3.org/1999/02/22-rdf-syntax-ns#" xmlns:svg="http://www.w3.org/2000/svg" height="45" id="svg2" style="enable-background:new 0 0 45 45;" version="1.1" viewBox="0 0 45 45" width="45" xml:space="preserve"><metadata id="metadata8"><rdf:RDF><cc:Work rdf:about=""><dc:format>image/svg+xml</dc:format><dc:type rdf:resource="http://purl.org/dc/dcmitype/StillImage"/></cc:Work></rdf:RDF></metadata><defs id="defs6"><clipPath clipPathUnits="userSpaceOnUse" id="clipPath20"><path d="M 0,36 36,36 36,0 0,0 0,36 Z" id="path22"/></clipPath></defs><g id="g10" transform="matrix(1.25,0,0,-1.25,0,45)"><g id="g12" transform="translate(23.6514,12.7031)"><path d="M 0,0 -10.95,10.949 -1.563,18.77 7.821,9.385 0,0 Z" id="path14" style="fill:#be1931;fill-opacity:1;fill-rule:nonzero;stroke:none"/></g><g id="g16"><g clip-path="url(#clipPath20)" id="g18"><g id="g24" transform="translate(34.5996,22.0879)"><path d="m 0,0 c -1.727,-1.729 -4.528,-1.729 -6.255,0 l -6.257,6.256 c -1.729,1.727 -1.729,4.53 0,6.258 1.726,1.727 4.529,1.727 6.257,0 L 0,6.256 C 1.728,4.529 1.728,1.727 0,0" id="path26" style="fill:#dd2e44;fill-opacity:1;fill-rule:nonzero;stroke:none"/></g><g id="g28" transform="translate(14,18.1772)"><path d="M 0,0 C 0,0 -14.593,-17.206 -13.812,-17.99 -13.03,-18.773 4.177,-4.177 4.177,-4.177 L 0,0 Z" id="path30" style="fill:#99aab5;fill-opacity:1;fill-rule:nonzero;stroke:none"/></g><g id="g32" transform="translate(25.2148,8.0088)"><path d="m 0,0 c -1.727,-1.729 -4.528,-1.729 -6.258,0 l -10.948,10.951 c -1.727,1.727 -1.727,4.528 0,6.256 1.728,1.729 4.531,1.729 6.258,0 L 0,6.258 C 1.729,4.528 1.729,1.73 0,0" id="path34" style="fill:#dd2e44;fill-opacity:1;fill-rule:nonzero;stroke:none"/></g></g></g></g></svg>