<?xml version="1.0" encoding="UTF-8" standalone="no"?><svg xmlns="http://www.w3.org/2000/svg" xmlns:cc="http://creativecommons.org/ns#" xmlns:dc="http://purl.org/dc/elements/1.1/" xmlns:rdf="http://www.w3.org/1999/02/22-rdf-syntax-ns#" xmlns:svg="http://www.w3.org/2000/svg" height="45" id="svg2" style="enable-background:new 0 0 45 45;" version="1.1" viewBox="0 0 45 45" width="45" xml:space="preserve"><metadata id="metadata8"><rdf:RDF><cc:Work rdf:about=""><dc:format>image/svg+xml</dc:format><dc:type rdf:resource="http://purl.org/dc/dcmitype/StillImage"/></cc:Work></rdf:RDF></metadata><defs id="defs6"><clipPath clipPathUnits="userSpaceOnUse" id="clipPath16"><path d="M 0,36 36,36 36,0 0,0 0,36 Z" id="path18"/></clipPath></defs><g id="g10" transform="matrix(1.25,0,0,-1.25,0,45)"><g id="g12"><g clip-path="url(#clipPath16)" id="g14"><g id="g20" transform="translate(36,17.9995)"><path d="m 0,0 c 0,-9.941 -8.059,-17.999 -18,-17.999 -9.941,0 -18,8.058 -18,17.999 0,9.941 8.059,18 18,18 C -8.059,18 0,9.941 0,0" id="path22" style="fill:#f4900c;fill-opacity:1;fill-rule:nonzero;stroke:none"/></g><g id="g24" transform="translate(17.2588,13.4785)"><path d="m 0,0 c 0.546,0 0.806,0.156 0.806,0.729 l 0,6.37 C 0.806,7.671 0.546,7.827 0,7.827 l -5.304,0 c -0.52,0 -0.78,-0.156 -0.78,-0.728 l 0,-6.37 C -6.084,0.156 -5.824,0 -5.304,0 L 0,0 Z m 2.808,0.443 c 0,-1.664 -0.728,-2.314 -2.366,-2.314 l -6.136,0 c -1.664,0 -2.392,0.65 -2.392,2.314 l 0,6.942 c 0,1.664 0.728,2.314 2.392,2.314 l 6.136,0 c 1.638,0 2.366,-0.65 2.366,-2.314 l 0,-6.942 z m -13.079,12.532 c -0.494,0 -0.779,0.39 -0.779,0.962 0,0.546 0.285,0.936 0.779,0.936 l 22.049,0 c 0.468,0 0.754,-0.39 0.754,-0.936 0,-0.546 -0.286,-0.962 -0.754,-0.962 l -2.599,0 0,-17.914 c 0,-1.899 -0.859,-2.653 -3.277,-2.653 -1.092,0 -2.391,0.131 -3.406,0.365 -0.494,0.104 -0.78,0.467 -0.78,0.936 0,0.078 0,0.182 0.026,0.285 0.105,0.522 0.416,0.807 0.859,0.807 0.078,0 0.181,0 0.259,-0.026 0.884,-0.234 2.028,-0.39 2.834,-0.39 1.092,0 1.405,0.234 1.405,1.248 l 0,17.342 -17.37,0 z" id="path26" style="fill:#ffffff;fill-opacity:1;fill-rule:nonzero;stroke:none"/></g></g></g></g></svg>