<?xml version="1.0" encoding="UTF-8" standalone="no"?><svg xmlns="http://www.w3.org/2000/svg" xmlns:cc="http://creativecommons.org/ns#" xmlns:dc="http://purl.org/dc/elements/1.1/" xmlns:rdf="http://www.w3.org/1999/02/22-rdf-syntax-ns#" xmlns:svg="http://www.w3.org/2000/svg" height="45" id="svg2" style="enable-background:new 0 0 45 45;" version="1.1" viewBox="0 0 45 45" width="45" xml:space="preserve"><metadata id="metadata8"><rdf:RDF><cc:Work rdf:about=""><dc:format>image/svg+xml</dc:format><dc:type rdf:resource="http://purl.org/dc/dcmitype/StillImage"/></cc:Work></rdf:RDF></metadata><defs id="defs6"><clipPath clipPathUnits="userSpaceOnUse" id="clipPath16"><path d="M 0,36 36,36 36,0 0,0 0,36 Z" id="path18"/></clipPath></defs><g id="g10" transform="matrix(1.25,0,0,-1.25,0,45)"><g id="g12"><g clip-path="url(#clipPath16)" id="g14"><g id="g20" transform="translate(19.6023,17.0582)"><path d="m 0,0 0.99,-3.048 -2.592,1.884 -2.593,-1.884 0.99,3.048 -1.296,0.942 -15.101,0 0,-9 c 0,-2.209 1.791,-4 4,-4 l 28,0 c 2.209,0 4,1.791 4,4 l 0,9 -15.102,0 L 0,0 Z" id="path22" style="fill:#009e49;fill-opacity:1;fill-rule:nonzero;stroke:none"/></g><g id="g24" transform="translate(32,31)"><path d="m 0,0 -28,0 c -2.209,0 -4,-1.791 -4,-4 l 0,-9 15.101,0 -1.296,0.942 3.205,0 0.99,3.048 0.99,-3.048 3.205,0 L -11.101,-13 4,-13 4,-4 C 4,-1.791 2.209,0 0,0" id="path26" style="fill:#ef2b2d;fill-opacity:1;fill-rule:nonzero;stroke:none"/></g><g id="g28" transform="translate(15.4075,14.0104)"><path d="M 0,0 2.593,1.884 5.185,0 4.195,3.048 5.491,3.99 l 1.296,0.941 -3.204,0 -0.99,3.048 -0.991,-3.048 -3.204,0 L -0.306,3.99 0.99,3.048 0,0 Z" id="path30" style="fill:#fcd116;fill-opacity:1;fill-rule:nonzero;stroke:none"/></g></g></g></g></svg>