<?xml version="1.0" encoding="UTF-8" standalone="no"?><svg xmlns="http://www.w3.org/2000/svg" xmlns:cc="http://creativecommons.org/ns#" xmlns:dc="http://purl.org/dc/elements/1.1/" xmlns:rdf="http://www.w3.org/1999/02/22-rdf-syntax-ns#" xmlns:svg="http://www.w3.org/2000/svg" height="45" id="svg2" style="enable-background:new 0 0 45 45;" version="1.1" viewBox="0 0 45 45" width="45" xml:space="preserve"><metadata id="metadata8"><rdf:RDF><cc:Work rdf:about=""><dc:format>image/svg+xml</dc:format><dc:type rdf:resource="http://purl.org/dc/dcmitype/StillImage"/></cc:Work></rdf:RDF></metadata><defs id="defs6"><clipPath clipPathUnits="userSpaceOnUse" id="clipPath16"><path d="M 0,36 36,36 36,0 0,0 0,36 Z" id="path18"/></clipPath><clipPath clipPathUnits="userSpaceOnUse" id="clipPath98"><path d="M 9.5,13 C 8.119,13 7,11.881 7,10.5 l 0,0 C 7,9.119 8.119,8 9.5,8 l 0,0 17,0 c 1.381,0 2.5,1.119 2.5,2.5 l 0,0 c 0,1.381 -1.119,2.5 -2.5,2.5 l 0,0 -17,0 z" id="path100"/></clipPath><clipPath clipPathUnits="userSpaceOnUse" id="clipPath110"><path d="M 0,36 36,36 36,0 0,0 0,36 Z" id="path112"/></clipPath></defs><g id="g10" transform="matrix(1.25,0,0,-1.25,0,45)"><g id="g12"><g clip-path="url(#clipPath16)" id="g14"><g id="g20" transform="translate(36,21.5)"><path d="M 0,0 C 0,-1.933 -1.119,-3.5 -2.5,-3.5 -3.881,-3.5 -5,-1.933 -5,0 -5,1.933 -3.881,3.5 -2.5,3.5 -1.119,3.5 0,1.933 0,0" id="path22" style="fill:#f4900c;fill-opacity:1;fill-rule:nonzero;stroke:none"/></g><g id="g24" transform="translate(5,21.5)"><path d="M 0,0 C 0,-1.933 -1.119,-3.5 -2.5,-3.5 -3.881,-3.5 -5,-1.933 -5,0 -5,1.933 -3.881,3.5 -2.5,3.5 -1.119,3.5 0,1.933 0,0" id="path26" style="fill:#f4900c;fill-opacity:1;fill-rule:nonzero;stroke:none"/></g><g id="g28" transform="translate(34,17)"><path d="m 0,0 c 0,-0.553 -0.447,-1 -1,-1 l -3,0 c -0.553,0 -1,0.447 -1,1 l 0,9 c 0,0.552 0.447,1 1,1 l 3,0 C -0.447,10 0,9.552 0,9 L 0,0 Z" id="path30" style="fill:#ffac33;fill-opacity:1;fill-rule:nonzero;stroke:none"/></g><g id="g32" transform="translate(7,17)"><path d="m 0,0 c 0,-0.553 -0.448,-1 -1,-1 l -3,0 c -0.552,0 -1,0.447 -1,1 l 0,9 c 0,0.552 0.448,1 1,1 l 3,0 C -0.448,10 0,9.552 0,9 L 0,0 Z" id="path34" style="fill:#ffac33;fill-opacity:1;fill-rule:nonzero;stroke:none"/></g><g id="g36" transform="translate(28,31)"><path d="m 0,0 c 0,-2.761 -4.477,-4 -10,-4 -5.523,0 -10,1.239 -10,4 0,2.761 4.477,5 10,5 C -4.477,5 0,2.761 0,0" id="path38" style="fill:#ffcc4d;fill-opacity:1;fill-rule:nonzero;stroke:none"/></g><g id="g40" transform="translate(25,31.9165)"><path d="m 0,0 c 0,-1.611 -3.135,-2.917 -7,-2.917 -3.866,0 -7,1.306 -7,2.917 0,1.611 3.134,2.917 7,2.917 3.865,0 7,-1.306 7,-2.917" id="path42" style="fill:#f4900c;fill-opacity:1;fill-rule:nonzero;stroke:none"/></g><g id="g44" transform="translate(30,30.5)"><path d="m 0,0 c 0,-1.381 -1.119,-1.5 -2.5,-1.5 l -19,0 c -1.381,0 -2.5,0.119 -2.5,1.5 0,1.381 1.119,2.5 2.5,2.5 l 19,0 C -1.119,2.5 0,1.381 0,0" id="path46" style="fill:#226699;fill-opacity:1;fill-rule:nonzero;stroke:none"/></g><g id="g48" transform="translate(32,6)"><path d="m 0,0 c 0,-1.104 -0.895,-2 -2,-2 l -24,0 c -1.104,0 -2,0.896 -2,2 l 0,22 c 0,1.104 0.896,2 2,2 l 24,0 c 1.105,0 2,-0.896 2,-2 L 0,0 Z" id="path50" style="fill:#55acee;fill-opacity:1;fill-rule:nonzero;stroke:none"/></g><g id="g52" transform="translate(35,3)"><path d="m 0,0 c 0,-1.105 0.105,-2 -1,-2 l -32,0 c -1.104,0 -1,0.895 -1,2 l 0,1 c 0,1.105 0.896,2 2,2 L -2,3 C -0.895,3 0,2.105 0,1 L 0,0 Z" id="path54" style="fill:#3b88c3;fill-opacity:1;fill-rule:nonzero;stroke:none"/></g><g id="g56" transform="translate(18.707,2.6357)"><path d="m 0,0 c -0.391,-0.391 -1.023,-0.391 -1.414,0 l -5.657,5.657 c -0.39,0.391 -0.391,1.024 0,1.414 l 5.657,4.658 c 0.391,0.39 1.023,0.39 1.414,0 L 5.656,7.071 c 0.391,-0.39 0.392,-1.023 0,-1.414 L 0,0 Z" id="path58" style="fill:#55acee;fill-opacity:1;fill-rule:nonzero;stroke:none"/></g><g id="g60" transform="translate(16,21.5)"><path d="M 0,0 C 0,-2.485 -2.015,-4.5 -4.5,-4.5 -6.985,-4.5 -9,-2.485 -9,0 -9,2.485 -6.985,4.5 -4.5,4.5 -2.015,4.5 0,2.485 0,0" id="path62" style="fill:#ffffff;fill-opacity:1;fill-rule:nonzero;stroke:none"/></g><g id="g64" transform="translate(29,21.5)"><path d="M 0,0 C 0,-2.485 -2.015,-4.5 -4.5,-4.5 -6.985,-4.5 -9,-2.485 -9,0 -9,2.485 -6.985,4.5 -4.5,4.5 -2.015,4.5 0,2.485 0,0" id="path66" style="fill:#ffffff;fill-opacity:1;fill-rule:nonzero;stroke:none"/></g><g id="g68" transform="translate(12,22)"><path d="M 0,0 Z" id="path70" style="fill:#66757f;fill-opacity:1;fill-rule:nonzero;stroke:none"/></g><g id="g72" transform="translate(12,22)"><path d="M 0,0 Z" id="path74" style="fill:#66757f;fill-opacity:1;fill-rule:nonzero;stroke:none"/></g><g id="g76" transform="translate(26,19)"><path d="m 0,0 c 0,-0.553 -0.447,-1 -1,-1 l -1,0 c -0.553,0 -1,0.447 -1,1 l 0,5 c 0,0.552 0.447,1 1,1 l 1,0 C -0.447,6 0,5.552 0,5 L 0,0 Z" id="path78" style="fill:#dd2e44;fill-opacity:1;fill-rule:nonzero;stroke:none"/></g><g id="g80" transform="translate(13,19)"><path d="m 0,0 c 0,-0.553 -0.448,-1 -1,-1 l -1,0 c -0.552,0 -1,0.447 -1,1 l 0,5 c 0,0.552 0.448,1 1,1 l 1,0 C -0.448,6 0,5.552 0,5 L 0,0 Z" id="path82" style="fill:#dd2e44;fill-opacity:1;fill-rule:nonzero;stroke:none"/></g><g id="g84" transform="translate(29,10.5)"><path d="m 0,0 c 0,-1.381 -1.119,-2.5 -2.5,-2.5 l -17,0 c -1.381,0 -2.5,1.119 -2.5,2.5 0,1.381 1.119,2.5 2.5,2.5 l 17,0 C -1.119,2.5 0,1.381 0,0" id="path86" style="fill:#f5f8fa;fill-opacity:1;fill-rule:nonzero;stroke:none"/></g><path d="m 19,8 -2,0 0,5 2,0 0,-5 z" id="path88" style="fill:#ccd6dd;fill-opacity:1;fill-rule:nonzero;stroke:none"/><path d="m 14,8 -2,0 0,5 2,0 0,-5 z" id="path90" style="fill:#ccd6dd;fill-opacity:1;fill-rule:nonzero;stroke:none"/><path d="m 24,8 -2,0 0,5 2,0 0,-5 z" id="path92" style="fill:#ccd6dd;fill-opacity:1;fill-rule:nonzero;stroke:none"/></g></g><g id="g94"><g clip-path="url(#clipPath98)" id="g96"><path d="M 9,8 7,8 7,13 9,13 9,8 Z" id="path102" style="fill:#ccd6dd;fill-opacity:1;fill-rule:nonzero;stroke:none"/><path d="m 29,8 -2,0 0,5 2,0 0,-5 z" id="path104" style="fill:#ccd6dd;fill-opacity:1;fill-rule:nonzero;stroke:none"/></g></g><g id="g106"><g clip-path="url(#clipPath110)" id="g108"><g id="g114" transform="translate(30,3)"><path d="M 0,0 Z" id="path116" style="fill:#55acee;fill-opacity:1;fill-rule:nonzero;stroke:none"/></g><g id="g118" transform="translate(30,3)"><path d="M 0,0 Z" id="path120" style="fill:#55acee;fill-opacity:1;fill-rule:nonzero;stroke:none"/></g></g></g></g></svg>