<?xml version="1.0" encoding="UTF-8" standalone="no"?><svg xmlns="http://www.w3.org/2000/svg" xmlns:cc="http://creativecommons.org/ns#" xmlns:dc="http://purl.org/dc/elements/1.1/" xmlns:rdf="http://www.w3.org/1999/02/22-rdf-syntax-ns#" xmlns:svg="http://www.w3.org/2000/svg" height="45" id="svg2" style="enable-background:new 0 0 45 45;" version="1.1" viewBox="0 0 45 45" width="45" xml:space="preserve"><metadata id="metadata8"><rdf:RDF><cc:Work rdf:about=""><dc:format>image/svg+xml</dc:format><dc:type rdf:resource="http://purl.org/dc/dcmitype/StillImage"/></cc:Work></rdf:RDF></metadata><defs id="defs6"><clipPath clipPathUnits="userSpaceOnUse" id="clipPath16"><path d="M 0,36 36,36 36,0 0,0 0,36 Z" id="path18"/></clipPath></defs><g id="g10" transform="matrix(1.25,0,0,-1.25,0,45)"><g id="g12"><g clip-path="url(#clipPath16)" id="g14"><g id="g20" transform="translate(30,14)"><path d="m 0,0 c -3,0 -7,-8 -7,-10 0,-3 2,-4 2,-4 l 11,0 0,10 C 6,-4 2,0 0,0" id="path22" style="fill:#2a6797;fill-opacity:1;fill-rule:nonzero;stroke:none"/></g><g id="g24" transform="translate(6,14)"><path d="m 0,0 c 3,0 7,-8 7,-10 0,-3 -2,-4 -2,-4 l -11,0 0,10 c 0,0 4,4 6,4" id="path26" style="fill:#2a6797;fill-opacity:1;fill-rule:nonzero;stroke:none"/></g><g id="g28" transform="translate(25,25)"><path d="M 0,0 C 0,1.105 -0.895,2 -2,2 -3.104,2 -4,1.105 -4,0 l 0,7.277 c 0.596,0.347 1,0.985 1,1.723 0,1.105 -0.895,2 -2,2 -1.104,0 -2,-0.895 -2,-2 0,1.105 -0.895,2 -2,2 -1.104,0 -2,-0.895 -2,-2 0,-0.738 0.405,-1.376 1,-1.723 L -10,0 c 0,1.105 -0.895,2 -2,2 -1.104,0 -2,-0.895 -2,-2 l -1,-11.526 0,-4.474 5,0 0,-1 6,0 0,1 5,0 0,4.474 L 0,0 Z" id="path30" style="fill:#f9ca55;fill-opacity:1;fill-rule:nonzero;stroke:none"/></g><g id="g32" transform="translate(24,20)"><path d="m 0,0 -1,12 c 0,1.105 -0.895,2 -2,2 -1.104,0 -2,-0.895 -2,-2 l 0,-20 c 0,-6 6,-9 6,-9 0,0 6,4 6,9 L 0,0 Z" id="path34" style="fill:#ffdc5d;fill-opacity:1;fill-rule:nonzero;stroke:none"/></g><g id="g36" transform="translate(15,34)"><path d="m 0,0 c -1.104,0 -2,-0.895 -2,-2 l -1,-12 -7,-8 c 0,-5 6,-9 6,-9 0,0 6,3 6,9 L 2,-2 C 2,-0.895 1.105,0 0,0" id="path38" style="fill:#ffdc5d;fill-opacity:1;fill-rule:nonzero;stroke:none"/></g></g></g></g></svg>