<?xml version="1.0" encoding="UTF-8" standalone="no"?><svg xmlns="http://www.w3.org/2000/svg" xmlns:cc="http://creativecommons.org/ns#" xmlns:dc="http://purl.org/dc/elements/1.1/" xmlns:rdf="http://www.w3.org/1999/02/22-rdf-syntax-ns#" xmlns:svg="http://www.w3.org/2000/svg" height="45" id="svg2" style="enable-background:new 0 0 45 45;" version="1.1" viewBox="0 0 45 45" width="45" xml:space="preserve"><metadata id="metadata8"><rdf:RDF><cc:Work rdf:about=""><dc:format>image/svg+xml</dc:format><dc:type rdf:resource="http://purl.org/dc/dcmitype/StillImage"/></cc:Work></rdf:RDF></metadata><defs id="defs6"><clipPath clipPathUnits="userSpaceOnUse" id="clipPath16"><path d="M 0,36 36,36 36,0 0,0 0,36 Z" id="path18"/></clipPath></defs><g id="g10" transform="matrix(1.25,0,0,-1.25,0,45)"><g id="g12"><g clip-path="url(#clipPath16)" id="g14"><g id="g20" transform="translate(0,9)"><path d="m 0,0 c 0,-2.209 1.791,-4 4,-4 l 28,0 c 2.209,0 4,1.791 4,4 L 36,1 0,1 0,0 Z" id="path22" style="fill:#0038a8;fill-opacity:1;fill-rule:nonzero;stroke:none"/></g><path d="m 0,13 36,0 0,4 -36,0 0,-4 z" id="path24" style="fill:#0038a8;fill-opacity:1;fill-rule:nonzero;stroke:none"/><path d="m 0,10 36,0 0,3 -36,0 0,-3 z" id="path26" style="fill:#eeeeee;fill-opacity:1;fill-rule:nonzero;stroke:none"/><g id="g28" transform="translate(36,27)"><path d="M 0,0 C 0,2.209 -1.791,4 -4,4 L -20,4 -20,0 0,0 Z" id="path30" style="fill:#0038a8;fill-opacity:1;fill-rule:nonzero;stroke:none"/></g><path d="m 16,20 20,0 0,4 -20,0 0,-4 z" id="path32" style="fill:#0038a8;fill-opacity:1;fill-rule:nonzero;stroke:none"/><g id="g34" transform="translate(16,27)"><path d="M 0,0 0,4 -0.5,4 -12,4 c -2.209,0 -4,-1.791 -4,-4 l 0,-9.25 0,-0.75 16,0 20,0 0,3 -20,0 0,4 20,0 0,3 -20,0 z" id="path36" style="fill:#eeeeee;fill-opacity:1;fill-rule:nonzero;stroke:none"/></g><g id="g38" transform="translate(13,24)"><path d="m 0,0 c 0,2.762 -2.238,5 -5,5 -2.762,0 -5.001,-2.238 -5.001,-5 0,-2.761 2.239,-5 5.001,-5 2.762,0 5,2.239 5,5" id="path40" style="fill:#ffd983;fill-opacity:1;fill-rule:nonzero;stroke:none"/></g><g id="g42" transform="translate(12,24)"><path d="m 0,0 c 0,2.209 -1.79,4 -4,4 -2.21,0 -4.001,-1.791 -4.001,-4 0,-2.208 1.791,-4 4.001,-4 2.21,0 4,1.792 4,4" id="path44" style="fill:#ffcc4d;fill-opacity:1;fill-rule:nonzero;stroke:none"/></g><g id="g46" transform="translate(8,30.4033)"><path d="M 0,0 0.633,-4.041 3.202,-0.858 1.729,-4.674 5.545,-3.202 2.362,-5.771 6.403,-6.403 2.362,-7.036 5.545,-9.605 1.729,-8.133 3.202,-11.949 0.633,-8.766 0,-12.807 l -0.633,4.041 -2.569,-3.183 1.473,3.816 -3.816,-1.472 3.183,2.569 -4.041,0.633 4.041,0.632 -3.183,2.569 3.816,-1.472 -1.473,3.816 2.569,-3.183 L 0,0 Z" id="path48" style="fill:#ffac33;fill-opacity:1;fill-rule:nonzero;stroke:none"/></g><g id="g50" transform="translate(11,24)"><path d="m 0,0 c 0,1.657 -1.343,3 -3,3 -1.658,0 -3.001,-1.343 -3.001,-3 0,-1.656 1.343,-3 3.001,-3 1.657,0 3,1.344 3,3" id="path52" style="fill:#c1694f;fill-opacity:1;fill-rule:nonzero;stroke:none"/></g><g id="g54" transform="translate(5.834,23.9961)"><path d="M 0,0 C 0,1.19 0.964,2.154 2.153,2.154 3.343,2.154 4.307,1.19 4.307,0 4.307,-1.188 3.343,-2.152 2.153,-2.152 0.964,-2.152 0,-1.188 0,0" id="path56" style="fill:#ffac33;fill-opacity:1;fill-rule:nonzero;stroke:none"/></g></g></g></g></svg>