<?xml version="1.0" encoding="UTF-8" standalone="no"?><svg xmlns="http://www.w3.org/2000/svg" xmlns:cc="http://creativecommons.org/ns#" xmlns:dc="http://purl.org/dc/elements/1.1/" xmlns:rdf="http://www.w3.org/1999/02/22-rdf-syntax-ns#" xmlns:svg="http://www.w3.org/2000/svg" height="45" id="svg2" style="enable-background:new 0 0 45 45;" version="1.1" viewBox="0 0 45 45" width="45" xml:space="preserve"><metadata id="metadata8"><rdf:RDF><cc:Work rdf:about=""><dc:format>image/svg+xml</dc:format><dc:type rdf:resource="http://purl.org/dc/dcmitype/StillImage"/></cc:Work></rdf:RDF></metadata><defs id="defs6"><clipPath clipPathUnits="userSpaceOnUse" id="clipPath16"><path d="M 0,36 36,36 36,0 0,0 0,36 Z" id="path18"/></clipPath></defs><g id="g10" transform="matrix(1.25,0,0,-1.25,0,45)"><g id="g12"><g clip-path="url(#clipPath16)" id="g14"><g id="g20" transform="translate(30.0107,15.8174)"><path d="M 0,0 C 0,0 0.093,2.362 -1.792,3.068 -3.459,3.693 -4.1,2.446 -4.1,2.446 c 0,0 0.058,1.914 -1.942,2.622 -1.885,0.668 -2.984,-0.773 -2.984,-0.773 0,0 -0.073,1.686 -2.058,2.232 C -12.755,6.986 -14,5.36 -14,5.36 l 0,0.823 c 0,0.959 -0.542,2.575 -2.543,2.576 C -18.543,8.761 -19,7.1 -19,6.183 l 0,-1.615 c 0,-1.323 -0.948,-0.198 -1.636,-0.823 -1.57,-1.427 -2.269,-6.431 -1.187,-10.5 1.312,-4.937 4.062,-9.1 9.694,-9.1 8.132,0 12.124,5.297 12.129,11.923 L 0,0 Z" id="path22" style="fill:#af7e57;fill-opacity:1;fill-rule:nonzero;stroke:none"/></g><g id="g24" transform="translate(21,17.5)"><path d="M 0,0 C 0,-1.381 -1.119,-2.5 -2.5,-2.5 -3.881,-2.5 -5,-1.381 -5,0 l 0,16 c 0,1.381 1.119,2.5 2.5,2.5 C -1.119,18.5 0,17.381 0,16 L 0,0 Z" id="path26" style="fill:#af7e57;fill-opacity:1;fill-rule:nonzero;stroke:none"/></g><g id="g28" transform="translate(12.25,20)"><path d="m 0,0 c -0.378,0 -2.001,-0.003 -2.313,-0.003 -1.625,0 -2.14,-0.466 -2.812,-3.122 -0.437,-1.729 -0.984,-2.547 -0.984,-4.391 0,-2.906 4.594,-12.347 11.359,-12.39 L 0,0 Z" id="path30" style="fill:#af7e57;fill-opacity:1;fill-rule:nonzero;stroke:none"/></g><g id="g32" transform="translate(10,10.4795)"><path d="m 0,0 c 0,-0.252 0.204,-0.48 0.456,-0.48 l 0.088,0 C 0.796,-0.48 1,-0.275 1,-0.023 L 1,9.52 0.031,9.52 0,0 Z" id="path34" style="fill:#845636;fill-opacity:1;fill-rule:nonzero;stroke:none"/></g></g></g></g></svg>