<?xml version="1.0" encoding="UTF-8" standalone="no"?><svg xmlns="http://www.w3.org/2000/svg" xmlns:cc="http://creativecommons.org/ns#" xmlns:dc="http://purl.org/dc/elements/1.1/" xmlns:rdf="http://www.w3.org/1999/02/22-rdf-syntax-ns#" xmlns:svg="http://www.w3.org/2000/svg" height="45" id="svg2" style="enable-background:new 0 0 45 45;" version="1.1" viewBox="0 0 45 45" width="45" xml:space="preserve"><metadata id="metadata8"><rdf:RDF><cc:Work rdf:about=""><dc:format>image/svg+xml</dc:format><dc:type rdf:resource="http://purl.org/dc/dcmitype/StillImage"/></cc:Work></rdf:RDF></metadata><defs id="defs6"><clipPath clipPathUnits="userSpaceOnUse" id="clipPath16"><path d="M 0,36 36,36 36,0 0,0 0,36 Z" id="path18"/></clipPath></defs><g id="g10" transform="matrix(1.25,0,0,-1.25,0,45)"><g id="g12"><g clip-path="url(#clipPath16)" id="g14"><g id="g20" transform="translate(35.8452,4)"><path d="m 0,0 c 0,-2.2 -1.8,-4 -4,-4 l -26,0 c -2.2,0 -4,1.8 -4,4 l 0,13 c 0,2.2 1.8,4 4,4 l 26,0 c 2.2,0 4,-1.8 4,-4 L 0,0 Z" id="path22" style="fill:#3f7123;fill-opacity:1;fill-rule:nonzero;stroke:none"/></g><path d="m 35.845,15 -34,0 0,6 34,0 0,-6 z" id="path24" style="fill:#3f7123;fill-opacity:1;fill-rule:nonzero;stroke:none"/><path d="m 35.845,14 -34,0 0,7 34,0 0,-7 z" id="path26" style="fill:#ccd6dd;fill-opacity:1;fill-rule:nonzero;stroke:none"/><g id="g28" transform="translate(26.8452,21)"><path d="m 0,0 -4,-7 7,0 4,7 -7,0 z m -14,0 -4,-7 7,0 4,7 -7,0 z m -11,0 4,0 -4,-7 0,7 z" id="path30" style="fill:#292f33;fill-opacity:1;fill-rule:nonzero;stroke:none"/></g><g id="g32" transform="translate(34.8393,29.2075)"><path d="M 0,0 -32.994,-8.208 -34.685,-1.415 -1.689,6.793 0,0 Z" id="path34" style="fill:#ccd6dd;fill-opacity:1;fill-rule:nonzero;stroke:none"/></g><g id="g36" transform="translate(32.8989,28.7246)"><path d="M 0,0 -5.572,5.828 -12.365,4.138 -6.793,-1.689 0,0 Z m -13.586,-3.379 -5.572,5.827 -6.793,-1.69 5.572,-5.827 6.793,1.69 z m -19.158,2.447 5.572,-5.827 -3.882,-0.966 -1.69,6.793 z" id="path38" style="fill:#292f33;fill-opacity:1;fill-rule:nonzero;stroke:none"/></g></g></g></g></svg>