<?xml version="1.0" encoding="UTF-8" standalone="no"?><svg xmlns="http://www.w3.org/2000/svg" xmlns:cc="http://creativecommons.org/ns#" xmlns:dc="http://purl.org/dc/elements/1.1/" xmlns:rdf="http://www.w3.org/1999/02/22-rdf-syntax-ns#" xmlns:svg="http://www.w3.org/2000/svg" height="45" id="svg2" style="enable-background:new 0 0 45 45;" version="1.1" viewBox="0 0 45 45" width="45" xml:space="preserve"><metadata id="metadata8"><rdf:RDF><cc:Work rdf:about=""><dc:format>image/svg+xml</dc:format><dc:type rdf:resource="http://purl.org/dc/dcmitype/StillImage"/></cc:Work></rdf:RDF></metadata><defs id="defs6"><clipPath clipPathUnits="userSpaceOnUse" id="clipPath18"><path d="M 0,36 36,36 36,0 0,0 0,36 Z" id="path20"/></clipPath></defs><g id="g10" transform="matrix(1.25,0,0,-1.25,0,45)"><path d="M 33,20 3,20 3,2 33,2 33,20 Z" id="path12" style="fill:#66757f;fill-opacity:1;fill-rule:nonzero;stroke:none"/><g id="g14"><g clip-path="url(#clipPath18)" id="g16"><g id="g22" transform="translate(2,2)"><path d="m 0,0 32,0 c 1.105,0 2,-0.895 2,-2 l -36,0 c 0,1.105 0.896,2 2,2" id="path24" style="fill:#ccd6dd;fill-opacity:1;fill-rule:nonzero;stroke:none"/></g><g id="g26" transform="translate(18,13)"><path d="m 0,0 c -1.657,0 -3,-1.343 -3,-3 l 0,-6 6,0 0,6 C 3,-1.343 1.657,0 0,0" id="path28" style="fill:#292f33;fill-opacity:1;fill-rule:nonzero;stroke:none"/></g><path d="M 7,15 3,15 3,4 7,4 7,15 Z" id="path30" style="fill:#ccd6dd;fill-opacity:1;fill-rule:nonzero;stroke:none"/><path d="M 13,15 9,15 9,4 13,4 13,15 Z" id="path32" style="fill:#ccd6dd;fill-opacity:1;fill-rule:nonzero;stroke:none"/><path d="m 33,15 -4,0 0,-11 4,0 0,11 z" id="path34" style="fill:#ccd6dd;fill-opacity:1;fill-rule:nonzero;stroke:none"/><path d="m 27,15 -4,0 0,-11 4,0 0,11 z" id="path36" style="fill:#ccd6dd;fill-opacity:1;fill-rule:nonzero;stroke:none"/><path d="M 34,2 2,2 2,4 34,4 34,2 Z" id="path38" style="fill:#aab8c2;fill-opacity:1;fill-rule:nonzero;stroke:none"/><g id="g40" transform="translate(36,25)"><path d="M 0,0 -18,11 -36,0 0,0 Z" id="path42" style="fill:#66757f;fill-opacity:1;fill-rule:nonzero;stroke:none"/></g><g id="g44" transform="translate(18,33.5996)"><path d="m 0,0 -16,-9.6 0,-4 32,0 0,4 L 0,0 Z" id="path46" style="fill:#ccd6dd;fill-opacity:1;fill-rule:nonzero;stroke:none"/></g><path d="m 7,15 -4,0 0,2 4,0 0,-2 z" id="path48" style="fill:#8899a6;fill-opacity:1;fill-rule:nonzero;stroke:none"/><path d="m 13,15 -4,0 0,2 4,0 0,-2 z" id="path50" style="fill:#8899a6;fill-opacity:1;fill-rule:nonzero;stroke:none"/><path d="m 27,15 -4,0 0,2 4,0 0,-2 z" id="path52" style="fill:#8899a6;fill-opacity:1;fill-rule:nonzero;stroke:none"/><path d="m 33,15 -4,0 0,2 4,0 0,-2 z" id="path54" style="fill:#8899a6;fill-opacity:1;fill-rule:nonzero;stroke:none"/><path d="m 35,19 -34,0 0,5 34,0 0,-5 z" id="path56" style="fill:#ccd6dd;fill-opacity:1;fill-rule:nonzero;stroke:none"/><g id="g58" transform="translate(36,24)"><path d="m 0,0 c 0,-0.552 -0.447,-1 -1,-1 l -34,0 c -0.552,0 -1,0.448 -1,1 l 0,1 c 0,0.552 0.448,1 1,1 L -1,2 C -0.447,2 0,1.552 0,1 L 0,0 Z" id="path60" style="fill:#aab8c2;fill-opacity:1;fill-rule:nonzero;stroke:none"/></g><g id="g62" transform="translate(36,18)"><path d="m 0,0 c 0,-0.552 -0.447,-1 -1,-1 l -34,0 c -0.552,0 -1,0.448 -1,1 l 0,1 c 0,0.552 0.448,1 1,1 L -1,2 C -0.447,2 0,1.552 0,1 L 0,0 Z" id="path64" style="fill:#aab8c2;fill-opacity:1;fill-rule:nonzero;stroke:none"/></g><path d="M 23,2 13,2 13,4 23,4 23,2 Z" id="path66" style="fill:#e1e8ed;fill-opacity:1;fill-rule:nonzero;stroke:none"/><path d="M 25,0 11,0 11,2 25,2 25,0 Z" id="path68" style="fill:#f5f8fa;fill-opacity:1;fill-rule:nonzero;stroke:none"/></g></g></g></svg>