<?xml version="1.0" encoding="UTF-8" standalone="no"?><svg xmlns="http://www.w3.org/2000/svg" xmlns:cc="http://creativecommons.org/ns#" xmlns:dc="http://purl.org/dc/elements/1.1/" xmlns:rdf="http://www.w3.org/1999/02/22-rdf-syntax-ns#" xmlns:svg="http://www.w3.org/2000/svg" height="45" id="svg2" style="enable-background:new 0 0 45 45;" version="1.1" viewBox="0 0 45 45" width="45" xml:space="preserve"><metadata id="metadata8"><rdf:RDF><cc:Work rdf:about=""><dc:format>image/svg+xml</dc:format><dc:type rdf:resource="http://purl.org/dc/dcmitype/StillImage"/></cc:Work></rdf:RDF></metadata><defs id="defs6"><clipPath clipPathUnits="userSpaceOnUse" id="clipPath16"><path d="M 0,36 36,36 36,0 0,0 0,36 Z" id="path18"/></clipPath></defs><g id="g10" transform="matrix(1.25,0,0,-1.25,0,45)"><g id="g12"><g clip-path="url(#clipPath16)" id="g14"><g id="g20" transform="translate(36,0)"><path d="m 0,0 0,2 c 0,3.314 -2.686,6 -6,6 l -16,0 c -3.313,0 -6,-2.686 -6,-6 l 0,-2 28,0 z" id="path22" style="fill:#292f33;fill-opacity:1;fill-rule:nonzero;stroke:none"/></g><g id="g24" transform="translate(17,8)"><path d="M 0,0 5,-2 5,-8 2,-8 0,0 Z" id="path26" style="fill:#e1e8ed;fill-opacity:1;fill-rule:nonzero;stroke:none"/></g><g id="g28" transform="translate(26.9286,8)"><path d="m 0,0 -5,-2 0,-6 3,0 2,8 z" id="path30" style="fill:#e1e8ed;fill-opacity:1;fill-rule:nonzero;stroke:none"/></g><g id="g32" transform="translate(17.6397,7.899)"><path d="m 0,0 c 1.744,-1.267 2.848,-1.962 4.36,-1.962 1.512,0 2.616,0.696 4.36,1.962 l 0,3.811 L 0,3.811 0,0 Z" id="path34" style="fill:#ffdc5d;fill-opacity:1;fill-rule:nonzero;stroke:none"/></g><g id="g36" transform="translate(17.6318,10.0272)"><path d="m 0,0 c 1.216,-1.374 2.724,-1.746 4.364,-1.746 1.639,0 3.147,0.373 4.364,1.746 l 0,3.491 L 0,3.491 0,0 Z" id="path38" style="fill:#f9ca55;fill-opacity:1;fill-rule:nonzero;stroke:none"/></g><g id="g40" transform="translate(15.4444,20.0646)"><path d="m 0,0 c 0,-1.448 -0.734,-2.622 -1.639,-2.622 -0.905,0 -1.639,1.174 -1.639,2.622 0,1.448 0.734,2.623 1.639,2.623 C -0.734,2.623 0,1.448 0,0" id="path42" style="fill:#ffdc5d;fill-opacity:1;fill-rule:nonzero;stroke:none"/></g><g id="g44" transform="translate(31.8334,20.0646)"><path d="m 0,0 c 0,-1.448 -0.734,-2.622 -1.639,-2.622 -0.905,0 -1.639,1.174 -1.639,2.622 0,1.448 0.734,2.623 1.639,2.623 C -0.734,2.623 0,1.448 0,0" id="path46" style="fill:#ffdc5d;fill-opacity:1;fill-rule:nonzero;stroke:none"/></g><g id="g48" transform="translate(13.4777,19.0403)"><path d="m 0,0 c 0,5.589 3.816,10.121 8.522,10.121 4.707,0 8.523,-4.532 8.523,-10.121 0,-5.589 -3.816,-10.12 -8.523,-10.12 C 3.816,-10.12 0,-5.589 0,0" id="path50" style="fill:#ffdc5d;fill-opacity:1;fill-rule:nonzero;stroke:none"/></g><g id="g52" transform="translate(26.5245,14.6537)"><path d="M 0,0 -1.267,0.275 C -1.671,0.368 -2.44,0.346 -2.802,0.346 l -1.722,0 -1.967,0 c -0.362,0 -1.131,0.022 -1.536,-0.071 L -9.294,0 c -0.348,-0.1 -0.549,-0.392 -0.45,-0.74 0.083,-0.288 0.345,-0.44 0.63,-0.44 0.06,0 0.121,0.026 0.181,0.043 l 1.266,0.37 c -0.142,-0.192 -0.18,-0.447 -0.066,-0.675 0.115,-0.23 0.346,-0.361 0.587,-0.361 0.098,0 0.198,0.024 0.293,0.071 l 1.033,0.517 c 0.024,-0.214 0.14,-0.413 0.347,-0.516 0.094,-0.047 0.194,-0.069 0.292,-0.069 0.241,0 0.472,0.132 0.587,0.362 l 0.07,0.138 -0.054,-0.138 c 0.115,-0.23 0.224,-0.362 0.465,-0.362 0.098,0 0.199,0.022 0.293,0.069 0.206,0.103 0.323,0.302 0.346,0.516 l 1.034,-0.517 c 0.094,-0.047 0.194,-0.071 0.292,-0.071 0.241,0 0.473,0.131 0.588,0.361 0.114,0.228 0.076,0.483 -0.066,0.675 l 1.266,-0.37 c 0.06,-0.017 0.121,-0.043 0.18,-0.043 0.285,0 0.548,0.152 0.63,0.44 C 0.55,-0.392 0.348,-0.1 0,0" id="path54" style="fill:#6d6e71;fill-opacity:1;fill-rule:nonzero;stroke:none"/></g><g id="g56" transform="translate(22,32.5205)"><path d="m 0,0 c 5.648,0 9.178,-4.168 9.178,-7.641 0,-3.473 -0.706,-4.863 -1.412,-3.473 -0.706,1.389 -1.412,2.778 -1.412,2.778 0,0 -4.236,0 -5.648,1.39 0,0 2.118,-4.168 -2.118,0 0,0 0.706,-2.779 -3.53,0.694 0,0 -2.118,-1.389 -2.824,-4.862 -0.196,-0.964 -1.412,0 -1.412,3.473 C -9.178,-4.168 -6.354,0 0,0" id="path58" style="fill:#6d6e71;fill-opacity:1;fill-rule:nonzero;stroke:none"/></g><g id="g60" transform="translate(18,19)"><path d="m 0,0 0,0 c -0.55,0 -1,0.45 -1,1 l 0,1 c 0,0.55 0.45,1 1,1 L 0,3 C 0.55,3 1,2.55 1,2 L 1,1 C 1,0.45 0.55,0 0,0" id="path62" style="fill:#662113;fill-opacity:1;fill-rule:nonzero;stroke:none"/></g><g id="g64" transform="translate(26,19)"><path d="m 0,0 0,0 c -0.55,0 -1,0.45 -1,1 l 0,1 c 0,0.55 0.45,1 1,1 L 0,3 C 0.55,3 1,2.55 1,2 L 1,1 C 1,0.45 0.55,0 0,0" id="path66" style="fill:#662113;fill-opacity:1;fill-rule:nonzero;stroke:none"/></g><g id="g68" transform="translate(22.75,16.25)"><path d="m 0,0 -1.5,0 c -0.413,0 -0.75,0.337 -0.75,0.75 0,0.413 0.337,0.75 0.75,0.75 L 0,1.5 C 0.413,1.5 0.75,1.163 0.75,0.75 0.75,0.337 0.413,0 0,0" id="path70" style="fill:#c1694f;fill-opacity:1;fill-rule:nonzero;stroke:none"/></g><g id="g72" transform="translate(22.0008,5.1223)"><path d="M 0,0 C 0,0 3.381,-2.494 4.093,-2.779 4.249,-2.841 3.727,0.878 3.727,0.878 l -7.454,0 c 0,0 -0.524,-3.782 -0.232,-3.625 C -3.32,-2.405 0,0 0,0" id="path74" style="fill:#99aab5;fill-opacity:1;fill-rule:nonzero;stroke:none"/></g><g id="g76" transform="translate(23.3125,2.5625)"><path d="m 0,0 c 0,0 0.375,0.625 0.531,0.906 0.183,0.329 0.453,1.571 0.453,1.571 l -2.187,0.961 c 0,0.007 -0.16,-0.005 -0.16,-0.005 L -1.547,3.391 -1.719,3.328 C -1.937,3.258 -1.625,3.32 -1.625,3.313 L -3.599,2.477 c 0,0 0.287,-1.242 0.47,-1.571 C -2.973,0.625 -2.601,0 -2.601,0 c 0,0 -0.753,-0.562 -1.035,-2.563 l 2.324,0 0.02,0 2.323,0 C 0.75,-0.969 0,0 0,0" id="path78" style="fill:#226699;fill-opacity:1;fill-rule:nonzero;stroke:none"/></g><g id="g80" transform="translate(17.2917,9.375)"><path d="m 0,0 c 0.566,-0.566 4.709,-3.383 4.709,-3.383 0,0 -2.126,-1.242 -4.084,-3.534 -0.197,-0.23 -1.542,4.625 -1.583,5.709 C -0.97,-0.905 -0.271,0.271 0,0" id="path82" style="fill:#f5f8fa;fill-opacity:1;fill-rule:nonzero;stroke:none"/></g><g id="g84" transform="translate(26.7301,9.375)"><path d="m 0,0 c -0.566,-0.566 -4.709,-3.383 -4.709,-3.383 0,0 2.126,-1.242 4.084,-3.534 0.197,-0.23 1.542,4.625 1.583,5.709 C 0.97,-0.905 0.271,0.271 0,0" id="path86" style="fill:#f5f8fa;fill-opacity:1;fill-rule:nonzero;stroke:none"/></g><g id="g88" transform="translate(16.3799,8)"><path d="m 0,0 c 0,0 1.542,-5.463 5.62,-7.411 l 0,-0.589 -7,0 0,8 L 0,0 Z" id="path90" style="fill:#292f33;fill-opacity:1;fill-rule:nonzero;stroke:none"/></g><g id="g92" transform="translate(27.6201,8)"><path d="m 0,0 c 0,0 -1.542,-5.463 -5.62,-7.411 l 0,-0.589 7,0 0,8 L 0,0 Z" id="path94" style="fill:#292f33;fill-opacity:1;fill-rule:nonzero;stroke:none"/></g><g id="g96" transform="translate(12.0829,2.6591)"><path d="m 0,0 c 0.251,0 0.401,-2.659 0.401,-2.659 l -0.956,0 C -0.555,-2.659 -0.362,0 0,0" id="path98" style="fill:#66757f;fill-opacity:1;fill-rule:nonzero;stroke:none"/></g><g id="g100" transform="translate(15.0829,2.6591)"><path d="m 0,0 c 0.251,0 0.401,-2.659 0.401,-2.659 l -0.956,0 C -0.555,-2.659 -0.362,0 0,0" id="path102" style="fill:#66757f;fill-opacity:1;fill-rule:nonzero;stroke:none"/></g><g id="g104" transform="translate(31.9285,2.6591)"><path d="m 0,0 c -0.251,0 -0.401,-2.659 -0.401,-2.659 l 0.956,0 C 0.555,-2.659 0.362,0 0,0" id="path106" style="fill:#66757f;fill-opacity:1;fill-rule:nonzero;stroke:none"/></g><g id="g108" transform="translate(28.9285,2.6591)"><path d="m 0,0 c -0.251,0 -0.401,-2.659 -0.401,-2.659 l 0.956,0 C 0.555,-2.659 0.362,0 0,0" id="path110" style="fill:#66757f;fill-opacity:1;fill-rule:nonzero;stroke:none"/></g><g id="g112" transform="translate(7.3819,0)"><path d="m 0,0 1.71,0 -3.667,9.707 c -0.155,0.412 -0.619,0.621 -1.031,0.466 -0.411,-0.156 -0.621,-0.62 -0.465,-1.031 L 0,0 Z" id="path114" style="fill:#662113;fill-opacity:1;fill-rule:nonzero;stroke:none"/></g><g id="g116" transform="translate(7.8534,12.3348)"><path d="m 0,0 c 0.468,-1.24 0.178,-2.498 -0.649,-2.811 -0.826,-0.312 -1.876,0.44 -2.345,1.68 -0.468,1.24 -0.178,2.498 0.649,2.811 C -1.518,1.992 -0.468,1.24 0,0" id="path118" style="fill:#c1694f;fill-opacity:1;fill-rule:nonzero;stroke:none"/></g><g id="g120" transform="translate(5.8632,9.3025)"><path d="m 0,0 -1.996,-0.754 c -1.097,-0.415 -2.335,0.144 -2.749,1.242 l 0,0 c -0.415,1.098 0.144,2.335 1.242,2.749 l 1.995,0.754 C -0.41,4.406 0.827,3.847 1.242,2.75 l 0,0 C 1.656,1.652 1.098,0.415 0,0" id="path122" style="fill:#662113;fill-opacity:1;fill-rule:nonzero;stroke:none"/></g><g id="g124" transform="translate(3.3631,10.6385)"><path d="m 0,0 c 0.468,-1.24 0.178,-2.498 -0.649,-2.811 -0.826,-0.312 -1.876,0.44 -2.345,1.68 -0.468,1.24 -0.178,2.498 0.649,2.811 C -1.518,1.992 -0.468,1.24 0,0" id="path126" style="fill:#c1694f;fill-opacity:1;fill-rule:nonzero;stroke:none"/></g><g id="g128" transform="translate(11.3178,0)"><path d="M 0,0 -0.466,1.588 C -0.829,2.827 -2.139,3.543 -3.377,3.18 L -4.632,2.812 C -5.837,2.458 -6.539,1.208 -6.242,0 L 0,0 Z" id="path130" style="fill:#ffdc5d;fill-opacity:1;fill-rule:nonzero;stroke:none"/></g></g></g></g></svg>