<?xml version="1.0" encoding="UTF-8" standalone="no"?><svg xmlns="http://www.w3.org/2000/svg" xmlns:cc="http://creativecommons.org/ns#" xmlns:dc="http://purl.org/dc/elements/1.1/" xmlns:rdf="http://www.w3.org/1999/02/22-rdf-syntax-ns#" xmlns:svg="http://www.w3.org/2000/svg" height="45" id="svg2" style="enable-background:new 0 0 45 45;" version="1.1" viewBox="0 0 45 45" width="45" xml:space="preserve"><metadata id="metadata8"><rdf:RDF><cc:Work rdf:about=""><dc:format>image/svg+xml</dc:format><dc:type rdf:resource="http://purl.org/dc/dcmitype/StillImage"/></cc:Work></rdf:RDF></metadata><defs id="defs6"><clipPath clipPathUnits="userSpaceOnUse" id="clipPath16"><path d="M 0,36 36,36 36,0 0,0 0,36 Z" id="path18"/></clipPath></defs><g id="g10" transform="matrix(1.25,0,0,-1.25,0,45)"><g id="g12"><g clip-path="url(#clipPath16)" id="g14"><g id="g20" transform="translate(9.4445,31)"><path d="m 0,0 -5.444,0 c -2.21,0 -4,-1.791 -4,-4 l 0,-5.5 L 0,-9.5 0,0 Z" id="path22" style="fill:#eeeeee;fill-opacity:1;fill-rule:nonzero;stroke:none"/></g><g id="g24" transform="translate(36,21.5)"><path d="m 0,0 0,5.5 c 0,2.209 -1.791,4 -4,4 l -15.5,0 0,-9.5 L 0,0 Z" id="path26" style="fill:#eeeeee;fill-opacity:1;fill-rule:nonzero;stroke:none"/></g><g id="g28" transform="translate(36,20)"><path d="m 0,0 0,1.5 -19.5,0 0,9.5 -1.5,0 0,-11 21,0 z" id="path30" style="fill:#0065bd;fill-opacity:1;fill-rule:nonzero;stroke:none"/></g><g id="g32" transform="translate(11,31)"><path d="m 0,0 -1.556,0 0,-9.5 -9.444,0 0,-1.5 11,0 0,11 z" id="path34" style="fill:#0065bd;fill-opacity:1;fill-rule:nonzero;stroke:none"/></g><g id="g36" transform="translate(0,14.5)"><path d="M 0,0 0,-2.021 0,-4.562 0,-5.5 c 0,-2.209 1.791,-4 4,-4 l 5.444,0 0,4.938 0,2.541 L 9.444,0 0,0 Z" id="path38" style="fill:#eeeeee;fill-opacity:1;fill-rule:nonzero;stroke:none"/></g><g id="g40" transform="translate(16.5,14.5)"><path d="m 0,0 0,-9.5 15.5,0 c 2.209,0 4,1.791 4,4 L 19.5,0 0,0 Z" id="path42" style="fill:#eeeeee;fill-opacity:1;fill-rule:nonzero;stroke:none"/></g><g id="g44" transform="translate(15,20)"><path d="m 0,0 0,11 -4,0 0,-11 -11,0 0,-4 11,0 0,-11 4,0 0,11 21,0 0,4 -21,0 z" id="path46" style="fill:#ed2939;fill-opacity:1;fill-rule:nonzero;stroke:none"/></g><g id="g48" transform="translate(15,16)"><path d="m 0,0 0,-11 1.5,0 0,9.5 19.5,0 L 21,0 0,0 Z" id="path50" style="fill:#0065bd;fill-opacity:1;fill-rule:nonzero;stroke:none"/></g><g id="g52" transform="translate(11,16)"><path d="m 0,0 -11,0 0,-1.5 9.444,0 0,-9.5 L 0,-11 0,0 Z" id="path54" style="fill:#0065bd;fill-opacity:1;fill-rule:nonzero;stroke:none"/></g></g></g></g></svg>