<?xml version="1.0" encoding="UTF-8" standalone="no"?><svg xmlns="http://www.w3.org/2000/svg" xmlns:cc="http://creativecommons.org/ns#" xmlns:dc="http://purl.org/dc/elements/1.1/" xmlns:rdf="http://www.w3.org/1999/02/22-rdf-syntax-ns#" xmlns:svg="http://www.w3.org/2000/svg" height="45" id="svg2" style="enable-background:new 0 0 45 45;" version="1.1" viewBox="0 0 45 45" width="45" xml:space="preserve"><metadata id="metadata8"><rdf:RDF><cc:Work rdf:about=""><dc:format>image/svg+xml</dc:format><dc:type rdf:resource="http://purl.org/dc/dcmitype/StillImage"/></cc:Work></rdf:RDF></metadata><defs id="defs6"><clipPath clipPathUnits="userSpaceOnUse" id="clipPath16"><path d="M 0,36 36,36 36,0 0,0 0,36 Z" id="path18"/></clipPath></defs><g id="g10" transform="matrix(1.25,0,0,-1.25,0,45)"><g id="g12"><g clip-path="url(#clipPath16)" id="g14"><g id="g20" transform="translate(36,18)"><path d="m 0,0 c 0,-9.941 -8.059,-18 -18,-18 -9.941,0 -18,8.059 -18,18 0,9.941 8.059,18 18,18 C -8.059,18 0,9.941 0,0" id="path22" style="fill:#ffcc4d;fill-opacity:1;fill-rule:nonzero;stroke:none"/></g><g id="g24" transform="translate(6.999,19)"><path d="M 0,0 C -0.15,0 -0.303,0.034 -0.446,0.105 -0.94,0.353 -1.141,0.954 -0.894,1.447 -0.841,1.552 0.425,4 4.001,4 7.579,4 8.843,1.551 8.895,1.447 9.143,0.953 8.942,0.353 8.448,0.105 7.957,-0.141 7.363,0.057 7.112,0.542 7.068,0.622 6.281,2 4.001,2 1.684,2 0.902,0.567 0.896,0.553 0.72,0.202 0.367,0 0,0" id="path26" style="fill:#664500;fill-opacity:1;fill-rule:nonzero;stroke:none"/></g><g id="g28" transform="translate(29,19)"><path d="M 0,0 C 0.15,0 0.303,0.034 0.446,0.105 0.94,0.353 1.141,0.954 0.894,1.447 0.841,1.552 -0.425,4 -4.001,4 -7.579,4 -8.843,1.551 -8.895,1.447 -9.143,0.953 -8.942,0.353 -8.448,0.105 -7.957,-0.141 -7.363,0.057 -7.112,0.542 -7.068,0.622 -6.281,2 -4.001,2 -1.684,2 -0.902,0.567 -0.895,0.553 -0.72,0.202 -0.367,0 0,0" id="path30" style="fill:#664500;fill-opacity:1;fill-rule:nonzero;stroke:none"/></g><g id="g32" transform="translate(33.1748,8.6914)"><path d="M 0,0 -3.671,3.789 C -4.486,1.904 -6.53,-1.548 -10.86,-3.006 l 3.685,-3.685 c 1.728,-1.728 5,-2 7,0 2,2 1.904,4.962 0.175,6.691" id="path34" style="fill:#e75a70;fill-opacity:1;fill-rule:nonzero;stroke:none"/></g><g id="g36" transform="translate(29.5035,12.4803)"><path d="M 0,0 C 0.324,0.749 0.461,1.257 0.466,1.277 0.6,1.812 0.276,2.353 -0.258,2.488 -0.794,2.623 -1.335,2.299 -1.473,1.765 -1.548,1.469 -3.422,-5.48 -11.503,-5.48 c -8.082,0 -9.956,6.949 -10.031,7.245 -0.138,0.534 -0.678,0.858 -1.215,0.723 -0.534,-0.135 -0.858,-0.676 -0.724,-1.211 0.021,-0.087 2.301,-8.757 11.97,-8.757 1.649,0 3.069,0.266 4.314,0.685 C -2.858,-5.337 -0.814,-1.885 0,0" id="path38" style="fill:#664500;fill-opacity:1;fill-rule:nonzero;stroke:none"/></g></g></g></g></svg>