<?xml version="1.0" encoding="UTF-8" standalone="no"?><svg xmlns="http://www.w3.org/2000/svg" xmlns:cc="http://creativecommons.org/ns#" xmlns:dc="http://purl.org/dc/elements/1.1/" xmlns:rdf="http://www.w3.org/1999/02/22-rdf-syntax-ns#" xmlns:svg="http://www.w3.org/2000/svg" height="45" id="svg2" style="enable-background:new 0 0 45 45;" version="1.1" viewBox="0 0 45 45" width="45" xml:space="preserve"><metadata id="metadata8"><rdf:RDF><cc:Work rdf:about=""><dc:format>image/svg+xml</dc:format><dc:type rdf:resource="http://purl.org/dc/dcmitype/StillImage"/></cc:Work></rdf:RDF></metadata><defs id="defs6"><clipPath clipPathUnits="userSpaceOnUse" id="clipPath16"><path d="M 0,36 36,36 36,0 0,0 0,36 Z" id="path18"/></clipPath><clipPath clipPathUnits="userSpaceOnUse" id="clipPath28"><path d="M 4,31 C 1.791,31 0,29.209 0,27 L 0,27 0,9 C 0,6.791 1.791,5 4,5 l 0,0 28,0 c 2.209,0 4,1.791 4,4 l 0,0 0,18 c 0,2.209 -1.791,4 -4,4 l 0,0 -28,0 z" id="path30"/></clipPath><clipPath clipPathUnits="userSpaceOnUse" id="clipPath44"><path d="M 0,36 36,36 36,0 0,0 0,36 Z" id="path46"/></clipPath></defs><g id="g10" transform="matrix(1.25,0,0,-1.25,0,45)"><g id="g12"><g clip-path="url(#clipPath16)" id="g14"><g id="g20" transform="translate(36,9)"><path d="m 0,0 c 0,-2.209 -1.791,-4 -4,-4 l -28,0 c -2.209,0 -4,1.791 -4,4 l 0,18 c 0,2.209 1.791,4 4,4 l 28,0 c 2.209,0 4,-1.791 4,-4 L 0,0 Z" id="path22" style="fill:#d90000;fill-opacity:1;fill-rule:nonzero;stroke:none"/></g></g></g><g id="g24"><g clip-path="url(#clipPath28)" id="g26"><path d="m 36,10 -36,0 0,4 36,0 0,-4 z" id="path32" style="fill:#fcdc02;fill-opacity:1;fill-rule:nonzero;stroke:none"/><path d="m 36,26 -36,0 0,5 36,0 0,-5 z" id="path34" style="fill:#141414;fill-opacity:1;fill-rule:nonzero;stroke:none"/><path d="m 36,22 -36,0 0,4 36,0 0,-4 z" id="path36" style="fill:#fcdc02;fill-opacity:1;fill-rule:nonzero;stroke:none"/><path d="m 36,14 -36,0 0,4 36,0 0,-4 z" id="path38" style="fill:#141414;fill-opacity:1;fill-rule:nonzero;stroke:none"/></g></g><g id="g40"><g clip-path="url(#clipPath44)" id="g42"><g id="g48" transform="translate(22,18)"><path d="m 0,0 c 0,-2.209 -1.791,-4 -4,-4 -2.209,0 -4,1.791 -4,4 0,2.209 1.791,4 4,4 2.209,0 4,-1.791 4,-4" id="path50" style="fill:#ffffff;fill-opacity:1;fill-rule:nonzero;stroke:none"/></g><g id="g52" transform="translate(17.3438,20.9687)"><path d="m 0,0 -0.267,0.703 c 0,0 0.579,0.203 1.142,0 C 1.304,0.548 1.344,0 1.344,0 L 0.673,-0.203 0,0 Z" id="path54" style="fill:#d90000;fill-opacity:1;fill-rule:nonzero;stroke:none"/></g><g id="g56" transform="translate(17.5938,21.0781)"><path d="m 0,0 0,0.684 c 0,0 0.111,0.044 0.423,0 C 0.734,0.641 0.875,0.422 0.875,0.422 L 0.437,-0.109 0,0 Z" id="path58" style="fill:#fcdc02;fill-opacity:1;fill-rule:nonzero;stroke:none"/></g><g id="g60" transform="translate(18.4741,16.3955)"><path d="m 0,0 -0.229,0 0.083,0.417 C -0.146,0.417 0.146,0 0,0 m -0.729,2.708 c -0.083,0.146 0,1 0.239,1.063 0.239,0.062 0.698,0.812 0,1.062 -0.698,0.25 -0.844,-0.479 -0.844,-0.479 0,0 -0.689,-0.203 -0.603,-0.375 0.083,-0.166 0.666,0.063 0.791,-0.083 C -1.021,3.75 -1.209,3.542 -1.709,2.958 -2.209,2.375 -1.875,1.583 -1.646,1.38 -1.417,1.176 -1.146,1.021 -0.937,0.833 -0.729,0.646 -0.49,0.542 -0.49,0.542 l 0,-0.604 c 0,0 -0.697,-0.063 -1.031,-0.021 -0.334,0.042 -0.563,-0.188 -0.646,-0.458 -0.083,-0.271 0.125,-0.417 0.125,-0.209 0,0.208 0.083,0.084 0.103,-0.083 0.019,-0.167 0.168,-0.104 0.168,0.104 0,0.209 0.084,0.125 0.104,0.021 0.021,-0.104 0.167,0.042 0.188,0.167 0.021,0.125 0.208,0.187 0.375,0.229 0.167,0.041 0.614,-0.042 0.614,-0.042 l 0,-1.104 c 0,0 -0.927,-0.063 -1.01,-0.188 -0.084,-0.125 0.563,-0.104 0.563,-0.104 0,0 -0.188,-0.354 -0.105,-0.375 0.084,-0.022 0.667,0.354 0.896,0.396 0.229,0.042 0.583,-0.104 0.625,0 0.041,0.105 -0.563,0.25 -0.625,0.354 -0.063,0.103 -0.188,1.061 -0.188,1.061 0,0 0.272,0.023 0.605,0.002 0.333,-0.022 0.25,0.271 0.041,0.562 -0.208,0.291 -0.021,0.375 0.334,0.312 0.354,-0.063 0.625,0 0.625,0.563 0,0.563 -1.917,1.438 -2,1.583" id="path62" style="fill:#141414;fill-opacity:1;fill-rule:nonzero;stroke:none"/></g><g id="g64" transform="translate(17.4741,20.1875)"><path d="M 0,0 C 0.029,0.249 -0.376,0.229 -0.396,0 -0.417,-0.229 -0.042,-0.354 0,0" id="path66" style="fill:#d90000;fill-opacity:1;fill-rule:nonzero;stroke:none"/></g><g id="g68" transform="translate(17.75,18.9531)"><path d="m 0,0 c 0.115,0.041 1.406,-0.547 1.75,-0.703 0.344,-0.156 0.303,-0.75 0.245,-1.109 -0.058,-0.36 -0.261,-0.469 -0.261,-0.469 0,0 -0.224,0.58 -0.937,0.859 C -0.161,-1.047 -0.437,-0.156 0,0" id="path70" style="fill:#9ca69c;fill-opacity:1;fill-rule:nonzero;stroke:none"/></g><g id="g72" transform="translate(19.2031,18.2656)"><path d="M 0,0 C 0.421,-0.11 1.312,-0.312 1.391,-1.219 1.469,-2.125 0.542,-2.656 0.542,-2.656 l 0.155,0.281 -0.275,-0.094 0.12,0.203 -0.433,-0.093 c 0,0 0.725,0.578 0.472,1.093 0.02,-0.429 -0.269,-0.546 -0.269,-0.546 0,0 0.249,0.595 -0.828,1.25 0.125,0.031 0.282,0.072 0.282,0.072 L -0.516,-0.266 0.078,-0.49 -0.203,-0.141 0.359,-0.359 0,0 Z" id="path74" style="fill:#d90000;fill-opacity:1;fill-rule:nonzero;stroke:none"/></g><g id="g76" transform="translate(17.5938,20.6641)"><path d="m 0,0 c 0,-0.056 -0.046,-0.102 -0.102,-0.102 -0.056,0 -0.101,0.046 -0.101,0.102 0,0.056 0.045,0.101 0.101,0.101 C -0.046,0.101 0,0.056 0,0" id="path78" style="fill:#9ca69c;fill-opacity:1;fill-rule:nonzero;stroke:none"/></g></g></g></g></svg>