<?xml version="1.0" encoding="UTF-8" standalone="no"?><svg xmlns="http://www.w3.org/2000/svg" xmlns:cc="http://creativecommons.org/ns#" xmlns:dc="http://purl.org/dc/elements/1.1/" xmlns:rdf="http://www.w3.org/1999/02/22-rdf-syntax-ns#" xmlns:svg="http://www.w3.org/2000/svg" height="45" id="svg2" style="enable-background:new 0 0 45 45;" version="1.1" viewBox="0 0 45 45" width="45" xml:space="preserve"><metadata id="metadata8"><rdf:RDF><cc:Work rdf:about=""><dc:format>image/svg+xml</dc:format><dc:type rdf:resource="http://purl.org/dc/dcmitype/StillImage"/></cc:Work></rdf:RDF></metadata><defs id="defs6"><clipPath clipPathUnits="userSpaceOnUse" id="clipPath16"><path d="M 0,36 36,36 36,0 0,0 0,36 Z" id="path18"/></clipPath></defs><g id="g10" transform="matrix(1.25,0,0,-1.25,0,45)"><g id="g12"><g clip-path="url(#clipPath16)" id="g14"><g id="g20" transform="translate(0,18)"><path d="m 0,0 c 0,-9.94 8.059,-18 18,-18 9.941,0 18,8.06 18,18 C 36,9.941 27.941,18 18,18 8.059,18 0,9.941 0,0" id="path22" style="fill:#99aab5;fill-opacity:1;fill-rule:nonzero;stroke:none"/></g><g id="g24" transform="translate(32,18)"><path d="m 0,0 c 0,-7.732 -6.268,-14 -14,-14 -7.732,0 -14,6.268 -14,14 0,7.732 6.268,14 14,14 C -6.268,14 0,7.732 0,0" id="path26" style="fill:#e1e8ed;fill-opacity:1;fill-rule:nonzero;stroke:none"/></g><g id="g28" transform="translate(18,5)"><path d="m 0,0 c -0.552,0 -1,0.447 -1,1 l 0,12 c 0,0.552 0.448,1 1,1 0.553,0 1,-0.448 1,-1 L 1,1 C 1,0.447 0.553,0 0,0" id="path30" style="fill:#67757f;fill-opacity:1;fill-rule:nonzero;stroke:none"/></g><g id="g32" transform="translate(18.001,17)"><path d="m 0,0 c -0.312,0 -0.62,0.146 -0.815,0.419 -0.321,0.449 -0.217,1.074 0.233,1.395 l 7,5 C 6.866,7.134 7.491,7.031 7.812,6.581 8.134,6.132 8.029,5.507 7.58,5.186 l -7,-4.999 C 0.404,0.061 0.201,0 0,0" id="path34" style="fill:#67757f;fill-opacity:1;fill-rule:nonzero;stroke:none"/></g></g></g></g></svg>