<?xml version="1.0" encoding="UTF-8" standalone="no"?><svg xmlns="http://www.w3.org/2000/svg" xmlns:cc="http://creativecommons.org/ns#" xmlns:dc="http://purl.org/dc/elements/1.1/" xmlns:rdf="http://www.w3.org/1999/02/22-rdf-syntax-ns#" xmlns:svg="http://www.w3.org/2000/svg" height="45" id="svg2" style="enable-background:new 0 0 45 45;" version="1.1" viewBox="0 0 45 45" width="45" xml:space="preserve"><metadata id="metadata8"><rdf:RDF><cc:Work rdf:about=""><dc:format>image/svg+xml</dc:format><dc:type rdf:resource="http://purl.org/dc/dcmitype/StillImage"/></cc:Work></rdf:RDF></metadata><defs id="defs6"><clipPath clipPathUnits="userSpaceOnUse" id="clipPath20"><path d="M 0,36 36,36 36,0 0,0 0,36 Z" id="path22"/></clipPath></defs><g id="g10" transform="matrix(1.25,0,0,-1.25,0,45)"><path d="M 0,0 36,0 36,2 0,2 0,0 Z" id="path12" style="fill:#939598;fill-opacity:1;fill-rule:nonzero;stroke:none"/><path d="M 35,4 6,4 6,9 35,9 35,4 Z" id="path14" style="fill:#231f20;fill-opacity:1;fill-rule:nonzero;stroke:none"/><g id="g16"><g clip-path="url(#clipPath20)" id="g18"><g id="g24" transform="translate(3.999,4)"><path d="M 0,0 C 0,1.656 1.343,3 3,3 4.657,3 6,1.656 6,0 6,-1.656 4.657,-3 3,-3 1.343,-3 0,-1.656 0,0" id="path26" style="fill:#58595b;fill-opacity:1;fill-rule:nonzero;stroke:none"/></g><g id="g28" transform="translate(9.999,4)"><path d="M 0,0 C 0,1.657 1.343,3 3,3 4.657,3 6,1.657 6,0 6,-1.657 4.657,-3 3,-3 1.343,-3 0,-1.657 0,0" id="path30" style="fill:#58595b;fill-opacity:1;fill-rule:nonzero;stroke:none"/></g><g id="g32" transform="translate(5.499,4)"><path d="M 0,0 C 0,0.829 0.672,1.5 1.5,1.5 2.328,1.5 3,0.829 3,0 3,-0.829 2.328,-1.5 1.5,-1.5 0.672,-1.5 0,-0.829 0,0" id="path34" style="fill:#a0041e;fill-opacity:1;fill-rule:nonzero;stroke:none"/></g><g id="g36" transform="translate(11.499,4)"><path d="M 0,0 C 0,0.83 0.671,1.5 1.5,1.5 2.329,1.5 3,0.83 3,0 3,-0.83 2.329,-1.5 1.5,-1.5 0.671,-1.5 0,-0.83 0,0" id="path38" style="fill:#a0041e;fill-opacity:1;fill-rule:nonzero;stroke:none"/></g><g id="g40" transform="translate(5,3)"><path d="m 0,0 -4,0 c -1,0 -1.5,0.5 0,2 L 0,6 C 1,7 2,8.001 2,6 L 2,2 C 2,0 1.999,0 0,0" id="path42" style="fill:#dd2e44;fill-opacity:1;fill-rule:nonzero;stroke:none"/></g><g id="g44" transform="translate(7.9995,16)"><path d="m 0,0 c 0,-3.314 -1.343,-6 -3,-6 -1.657,0 -3,2.686 -3,6 0,3.314 1.343,6.001 3,6.001 1.657,0 3,-2.687 3,-6.001" id="path46" style="fill:#231f20;fill-opacity:1;fill-rule:nonzero;stroke:none"/></g><g id="g48" transform="translate(11,21)"><path d="M 0,0 -4,0 -6,8 2,8 0,0 Z" id="path50" style="fill:#6d6e71;fill-opacity:1;fill-rule:nonzero;stroke:none"/></g><g id="g52" transform="translate(26,11)"><path d="m 0,0 c 0,-1.104 -0.895,-2 -2,-2 l -18,0 c -1.104,0 -2,0.896 -2,2 l 0,10 c 0,1.105 0.896,2 2,2 l 18,0 c 1.105,0 2,-0.895 2,-2 L 0,0 Z" id="path54" style="fill:#414042;fill-opacity:1;fill-rule:nonzero;stroke:none"/></g><g id="g56" transform="translate(13,10)"><path d="m 0,0 c 0,-0.553 -0.448,-1 -1,-1 -0.552,0 -1,0.447 -1,1 l 0,13 c 0,0.552 0.448,1 1,1 0.552,0 1,-0.448 1,-1 L 0,0 Z" id="path58" style="fill:#c1694f;fill-opacity:1;fill-rule:nonzero;stroke:none"/></g><g id="g60" transform="translate(19,10)"><path d="m 0,0 c 0,-0.553 -0.447,-1 -1,-1 -0.553,0 -1,0.447 -1,1 l 0,13 c 0,0.552 0.447,1 1,1 0.553,0 1,-0.448 1,-1 L 0,0 Z" id="path62" style="fill:#c1694f;fill-opacity:1;fill-rule:nonzero;stroke:none"/></g><g id="g64" transform="translate(36,10)"><path d="m 0,0 c 0,-0.553 -0.447,-1 -1,-1 l -28,0 c -0.552,0 -1,0.447 -1,1 0,0.553 0.448,1 1,1 L -1,1 C -0.447,1 0,0.553 0,0" id="path66" style="fill:#808285;fill-opacity:1;fill-rule:nonzero;stroke:none"/></g><g id="g68" transform="translate(25.999,5)"><path d="M 0,0 C 0,2.209 1.791,4 4,4 6.209,4 8,2.209 8,0 8,-2.209 6.209,-4 4,-4 1.791,-4 0,-2.209 0,0" id="path70" style="fill:#58595b;fill-opacity:1;fill-rule:nonzero;stroke:none"/></g><g id="g72" transform="translate(17.999,5)"><path d="M 0,0 C 0,2.209 1.791,4 4,4 6.209,4 8,2.209 8,0 8,-2.209 6.209,-4 4,-4 1.791,-4 0,-2.209 0,0" id="path74" style="fill:#58595b;fill-opacity:1;fill-rule:nonzero;stroke:none"/></g><g id="g76" transform="translate(27.999,5)"><path d="M 0,0 C 0,1.105 0.895,2 2,2 3.104,2 4,1.105 4,0 4,-1.105 3.104,-2 2,-2 0.895,-2 0,-1.105 0,0" id="path78" style="fill:#a0041e;fill-opacity:1;fill-rule:nonzero;stroke:none"/></g><g id="g80" transform="translate(19.999,5)"><path d="M 0,0 C 0,1.105 0.895,2 2,2 3.104,2 4,1.105 4,0 4,-1.105 3.104,-2 2,-2 0.895,-2 0,-1.105 0,0" id="path82" style="fill:#a0041e;fill-opacity:1;fill-rule:nonzero;stroke:none"/></g><g id="g84" transform="translate(12,33)"><path d="m 0,0 -6,0 c -0.552,0 -1,-0.448 -1,-1 l 0,-3 8,0 0,3 C 1,-0.448 0.552,0 0,0" id="path86" style="fill:#414042;fill-opacity:1;fill-rule:nonzero;stroke:none"/></g><path d="m 35,29 -12,0 0,-18 12,0 0,18 z" id="path88" style="fill:#be1931;fill-opacity:1;fill-rule:nonzero;stroke:none"/><g id="g90" transform="translate(36,30)"><path d="m 0,0 c 0,-0.552 -0.447,-1 -1,-1 l -12,0 c -0.553,0 -1,0.448 -1,1 0,0.552 0.447,1 1,1 L -1,1 C -0.447,1 0,0.552 0,0" id="path92" style="fill:#a0041e;fill-opacity:1;fill-rule:nonzero;stroke:none"/></g><path d="m 33,13 -8,0 0,5 8,0 0,-5 z" id="path94" style="fill:#ea596e;fill-opacity:1;fill-rule:nonzero;stroke:none"/><g id="g96" transform="translate(30,4)"><path d="M 0,0 -8,0 C -8.127,0 -8.253,0.024 -8.371,0.071 L -13.193,2 -20,2 c -0.552,0 -1,0.447 -1,1 0,0.553 0.448,1 1,1 l 6.999,0 c 0.128,0 0.254,-0.024 0.372,-0.071 L -7.808,2 0,2 C 0.553,2 1,1.553 1,1 1,0.447 0.553,0 0,0" id="path98" style="fill:#f4900c;fill-opacity:1;fill-rule:nonzero;stroke:none"/></g><g id="g100" transform="translate(33,26)"><path d="M 0,0 C 0,0.552 -0.447,1 -1,1 L -7,1 C -7.553,1 -8,0.552 -8,0 l 0,-5 c 0,-0.552 0.447,-1 1,-1 l 6,0 c 0.553,0 1,0.448 1,1 l 0,5 z" id="path102" style="fill:#55acee;fill-opacity:1;fill-rule:nonzero;stroke:none"/></g></g></g></g></svg>