<?xml version="1.0" encoding="UTF-8" standalone="no"?><svg xmlns="http://www.w3.org/2000/svg" xmlns:cc="http://creativecommons.org/ns#" xmlns:dc="http://purl.org/dc/elements/1.1/" xmlns:rdf="http://www.w3.org/1999/02/22-rdf-syntax-ns#" xmlns:svg="http://www.w3.org/2000/svg" height="45" id="svg2" style="enable-background:new 0 0 45 45;" version="1.1" viewBox="0 0 45 45" width="45" xml:space="preserve"><metadata id="metadata8"><rdf:RDF><cc:Work rdf:about=""><dc:format>image/svg+xml</dc:format><dc:type rdf:resource="http://purl.org/dc/dcmitype/StillImage"/></cc:Work></rdf:RDF></metadata><defs id="defs6"><clipPath clipPathUnits="userSpaceOnUse" id="clipPath16"><path d="M 0,36 36,36 36,0 0,0 0,36 Z" id="path18"/></clipPath></defs><g id="g10" transform="matrix(1.25,0,0,-1.25,0,45)"><g id="g12"><g clip-path="url(#clipPath16)" id="g14"><g id="g20" transform="translate(35,18)"><path d="m 0,0 c 0,9.389 -7.611,17 -16.999,17 -9.389,0 -17,-7.611 -17,-17 0,-9.389 7.611,-17 17,-17 C -7.611,-17 0,-9.389 0,0" id="path22" style="fill:#000000;fill-opacity:1;fill-rule:nonzero;stroke:none"/></g><g id="g24" transform="translate(13.0005,5)"><path d="m 0,0 c 0,0 -3,0 -3.001,3 0,2 10e-4,20 10e-4,20 0,0 0,3 3,3 l 9.999,0 c 0,0 3,0 3,-3 l 0,-20 c 0,0 0,-3 -3,-3 L 0,0 Z" id="path26" style="fill:#ffffff;fill-opacity:1;fill-rule:nonzero;stroke:none"/></g><path d="M 12,9 24,9 24,27 12,27 12,9 Z" id="path28" style="fill:#000000;fill-opacity:1;fill-rule:nonzero;stroke:none"/><g id="g30" transform="translate(29.6797,7.0879)"><path d="m 0,0 -22.591,22.591 c 2.86,2.673 6.689,4.321 10.911,4.321 8.837,0 16,-7.163 16,-16 C 4.32,6.689 2.672,2.859 0,0 m -11.68,-5.088 c -8.836,0 -15.999,7.163 -15.999,16 0,3.712 1.276,7.121 3.397,9.835 L -1.845,-1.69 C -4.56,-3.813 -7.967,-5.088 -11.68,-5.088 m 10e-4,34 c -9.941,0 -18,-8.059 -18,-18 0,-9.941 8.059,-18 18,-18 9.941,0 17.999,8.059 17.999,18 0,9.941 -8.058,18 -17.999,18" id="path32" style="fill:#dd2e44;fill-opacity:1;fill-rule:nonzero;stroke:none"/></g></g></g></g></svg>