<?xml version="1.0" encoding="UTF-8" standalone="no"?><svg xmlns="http://www.w3.org/2000/svg" xmlns:cc="http://creativecommons.org/ns#" xmlns:dc="http://purl.org/dc/elements/1.1/" xmlns:rdf="http://www.w3.org/1999/02/22-rdf-syntax-ns#" xmlns:svg="http://www.w3.org/2000/svg" height="45" id="svg2" style="enable-background:new 0 0 45 45;" version="1.1" viewBox="0 0 45 45" width="45" xml:space="preserve"><metadata id="metadata8"><rdf:RDF><cc:Work rdf:about=""><dc:format>image/svg+xml</dc:format><dc:type rdf:resource="http://purl.org/dc/dcmitype/StillImage"/></cc:Work></rdf:RDF></metadata><defs id="defs6"><clipPath clipPathUnits="userSpaceOnUse" id="clipPath16"><path d="M 0,36 36,36 36,0 0,0 0,36 Z" id="path18"/></clipPath></defs><g id="g10" transform="matrix(1.25,0,0,-1.25,0,45)"><g id="g12"><g clip-path="url(#clipPath16)" id="g14"><g id="g20" transform="translate(0,7)"><path d="m 0,0 c 0,-2.209 1.791,-4 4,-4 l 24,0 c 2.209,0 4,1.791 4,4 l 0,17 c 0,2.209 -1.791,4 -4,4 l -9,0 c -3.562,0 -3,5 -8.437,5 L 4,26 C 1.791,26 0,24.209 0,22 L 0,0 Z" id="path22" style="fill:#226699;fill-opacity:1;fill-rule:nonzero;stroke:none"/></g><g id="g24" transform="translate(32.3359,24)"><path d="M 0,0 -6.562,0 C -12,0 -11.945,-5 -15.508,-5 l -9,0 c -2.209,0 -4.181,-1.791 -4.406,-4 l -0.492,-3.874 0,0 -0.524,-4.126 -0.02,0.002 c -0.115,-0.606 -0.672,-0.999 -1.3,-0.999 -0.643,0 -1.106,0.507 -1.074,1.143 -0.002,-0.049 -0.012,-0.096 -0.012,-0.146 0,-2.004 1.478,-3.648 3.4,-3.939 0.177,-0.038 0.372,-0.061 0.6,-0.061 l 26,0 c 2.209,0 4.182,1.791 4.406,4 L 3.594,-4 C 3.818,-1.791 2.209,0 0,0" id="path26" style="fill:#55acee;fill-opacity:1;fill-rule:nonzero;stroke:none"/></g></g></g></g></svg>