<?xml version="1.0" encoding="UTF-8" standalone="no"?><svg xmlns="http://www.w3.org/2000/svg" xmlns:cc="http://creativecommons.org/ns#" xmlns:dc="http://purl.org/dc/elements/1.1/" xmlns:rdf="http://www.w3.org/1999/02/22-rdf-syntax-ns#" xmlns:svg="http://www.w3.org/2000/svg" height="45" id="svg2" style="enable-background:new 0 0 45 45;" version="1.1" viewBox="0 0 45 45" width="45" xml:space="preserve"><metadata id="metadata8"><rdf:RDF><cc:Work rdf:about=""><dc:format>image/svg+xml</dc:format><dc:type rdf:resource="http://purl.org/dc/dcmitype/StillImage"/></cc:Work></rdf:RDF></metadata><defs id="defs6"><clipPath clipPathUnits="userSpaceOnUse" id="clipPath16"><path d="M 0,36 36,36 36,0 0,0 0,36 Z" id="path18"/></clipPath></defs><g id="g10" transform="matrix(1.25,0,0,-1.25,0,45)"><g id="g12"><g clip-path="url(#clipPath16)" id="g14"><g id="g20" transform="translate(36,4)"><path d="m 0,0 c 0,-2.209 -1.791,-4 -4,-4 l -28,0 c -2.209,0 -4,1.791 -4,4 l 0,28 c 0,2.209 1.791,4 4,4 l 28,0 c 2.209,0 4,-1.791 4,-4 L 0,0 Z" id="path22" style="fill:#9266cc;fill-opacity:1;fill-rule:nonzero;stroke:none"/></g><g id="g24" transform="translate(9.8345,26.7314)"><path d="m 0,0 c -0.923,-0.654 -1.556,-1.598 -1.556,-2.731 0,-1.232 1.214,-2.721 2.722,-2.721 1.627,0 2.72,1.407 2.72,2.721 0,1.056 -0.269,1.812 -0.799,2.246 C 2.118,0.31 0.494,0.115 0.478,0.112 0.336,0.083 0.166,0.065 0,0 m 1.166,-8.01 c -2.813,0 -5.281,2.467 -5.281,5.279 0,3.878 3.779,6.279 7.281,6.279 13.633,0 17.006,-6.433 17.144,-6.707 0.316,-0.632 0.06,-1.4 -0.572,-1.716 -0.626,-0.315 -1.39,-0.064 -1.71,0.559 C 17.968,-4.208 15.354,0.36 5.281,0.931 6.054,0.018 6.445,-1.21 6.445,-2.731 6.445,-5.27 4.426,-8.01 1.166,-8.01" id="path26" style="fill:#ffffff;fill-opacity:1;fill-rule:nonzero;stroke:none"/></g><g id="g28" transform="translate(24.999,14.7207)"><path d="m 0,0 c -1.628,0 -2.721,-1.407 -2.721,-2.721 0,-1.055 0.269,-1.811 0.799,-2.247 0.97,-0.794 2.673,-0.599 2.689,-0.596 0.141,0.029 0.234,0.062 0.399,0.112 0.923,0.653 1.556,1.597 1.556,2.731 C 2.722,-1.488 1.508,0 0,0 m -2,-9 c -13.634,0 -17.007,6.434 -17.144,6.707 -0.316,0.632 -0.06,1.4 0.572,1.717 0.627,0.312 1.39,0.062 1.71,-0.56 0.059,-0.108 2.674,-4.676 12.746,-5.247 -0.773,0.913 -1.163,2.141 -1.163,3.662 0,2.539 2.018,5.28 5.279,5.28 2.813,0 5.28,-2.467 5.28,-5.28 C 5.28,-6.6 1.501,-9 -2,-9" id="path30" style="fill:#ffffff;fill-opacity:1;fill-rule:nonzero;stroke:none"/></g><g id="g32" transform="translate(14.002,24.0103)"><path d="m 0,0 c 0,1.68 -1.361,3.041 -3.041,3.041 -1.68,0 -3.041,-1.361 -3.041,-3.041 0,-1.68 1.361,-3.041 3.041,-3.041 C -1.361,-3.041 0,-1.68 0,0" id="path34" style="fill:#9266cc;fill-opacity:1;fill-rule:nonzero;stroke:none"/></g><g id="g36" transform="translate(28.002,12.0098)"><path d="m 0,0 c 0,1.68 -1.361,3.041 -3.041,3.041 -1.68,0 -3.041,-1.361 -3.041,-3.041 0,-1.68 1.361,-3.041 3.041,-3.041 C -1.361,-3.041 0,-1.68 0,0" id="path38" style="fill:#9266cc;fill-opacity:1;fill-rule:nonzero;stroke:none"/></g></g></g></g></svg>