<?xml version="1.0" encoding="UTF-8" standalone="no"?><svg xmlns="http://www.w3.org/2000/svg" xmlns:cc="http://creativecommons.org/ns#" xmlns:dc="http://purl.org/dc/elements/1.1/" xmlns:rdf="http://www.w3.org/1999/02/22-rdf-syntax-ns#" xmlns:svg="http://www.w3.org/2000/svg" height="45" id="svg2" style="enable-background:new 0 0 45 45;" version="1.1" viewBox="0 0 45 45" width="45" xml:space="preserve"><metadata id="metadata8"><rdf:RDF><cc:Work rdf:about=""><dc:format>image/svg+xml</dc:format><dc:type rdf:resource="http://purl.org/dc/dcmitype/StillImage"/></cc:Work></rdf:RDF></metadata><defs id="defs6"><clipPath clipPathUnits="userSpaceOnUse" id="clipPath16"><path d="M 0,36 36,36 36,0 0,0 0,36 Z" id="path18"/></clipPath></defs><g id="g10" transform="matrix(1.25,0,0,-1.25,0,45)"><g id="g12"><g clip-path="url(#clipPath16)" id="g14"><g id="g20" transform="translate(33.5355,33.5355)"><path d="m 0,0 c -1.953,1.953 -5.118,1.953 -7.071,0 l -1.197,-1.199 2.842,-2.842 c 0.39,-0.391 0.39,-1.024 0,-1.414 -0.195,-0.196 -0.451,-0.293 -0.707,-0.293 -0.256,0 -0.512,0.097 -0.707,0.293 l -2.841,2.841 -2.109,-2.111 2.84,-2.84 c 0.391,-0.39 0.391,-1.023 0,-1.414 -0.195,-0.195 -0.451,-0.293 -0.707,-0.293 -0.255,0 -0.511,0.098 -0.707,0.293 l -2.839,2.839 -2.12,-2.123 2.837,-2.837 c 0.391,-0.391 0.391,-1.024 0,-1.415 -0.195,-0.195 -0.451,-0.292 -0.707,-0.292 -0.256,0 -0.511,0.097 -0.707,0.292 l -2.836,2.837 -2.121,-2.122 2.836,-2.836 c 0.391,-0.391 0.391,-1.024 0,-1.414 -0.195,-0.195 -0.451,-0.293 -0.707,-0.293 -0.256,0 -0.512,0.098 -0.707,0.293 l -2.835,2.835 -2.12,-2.123 2.833,-2.833 c 0.391,-0.391 0.391,-1.024 0,-1.414 -0.195,-0.196 -0.451,-0.293 -0.707,-0.293 -0.255,0 -0.511,0.097 -0.707,0.293 l -2.832,2.832 -1.783,-1.785 c -3.842,-0.027 -6.95,-3.148 -6.95,-6.998 0,-3.865 3.135,-7 7,-7 3.833,0 6.942,3.081 6.995,6.901 L 0,-7.071 C 1.953,-5.118 1.953,-1.953 0,0" id="path22" style="fill:#ccd6dd;fill-opacity:1;fill-rule:nonzero;stroke:none"/></g><g id="g24" transform="translate(30.938,30.9086)"><path d="m 0,0 c -0.781,0.781 -2.047,0.781 -2.828,0 l -19.065,-19.065 c -1.338,0.362 -2.823,0.035 -3.873,-1.015 -1.563,-1.562 -1.563,-4.095 0,-5.657 1.562,-1.562 4.094,-1.562 5.656,0 1.039,1.038 1.371,2.502 1.029,3.828 L 0,-2.828 C 0.781,-2.047 0.781,-0.781 0,0" id="path26" style="fill:#dd2e44;fill-opacity:1;fill-rule:nonzero;stroke:none"/></g><g id="g28" transform="translate(13.272,13.6572)"><path d="m 0,0 c 0.256,0 0.512,0.098 0.707,0.293 0.391,0.391 0.391,1.023 0,1.414 L -2.126,4.54 -3.54,3.125 -0.707,0.293 C -0.512,0.098 -0.256,0 0,0" id="path30" style="fill:#292f33;fill-opacity:1;fill-rule:nonzero;stroke:none"/></g><g id="g32" transform="translate(16.8076,17.1924)"><path d="m 0,0 c 0.256,0 0.512,0.098 0.707,0.293 0.391,0.391 0.391,1.023 0,1.414 L -2.129,4.543 -3.542,3.128 -0.707,0.293 C -0.512,0.098 -0.256,0 0,0" id="path34" style="fill:#292f33;fill-opacity:1;fill-rule:nonzero;stroke:none"/></g><g id="g36" transform="translate(20.3428,20.728)"><path d="m 0,0 c 0.256,0 0.512,0.098 0.707,0.293 0.391,0.39 0.391,1.023 0,1.414 L -2.13,4.545 -3.544,3.13 -0.707,0.293 C -0.512,0.098 -0.256,0 0,0" id="path38" style="fill:#292f33;fill-opacity:1;fill-rule:nonzero;stroke:none"/></g><g id="g40" transform="translate(23.8789,24.2637)"><path d="m 0,0 c 0.256,0 0.512,0.098 0.707,0.293 0.391,0.391 0.391,1.024 0,1.414 l -2.841,2.84 -1.413,-1.415 2.84,-2.839 C -0.512,0.098 -0.256,0 0,0" id="path42" style="fill:#292f33;fill-opacity:1;fill-rule:nonzero;stroke:none"/></g><g id="g44" transform="translate(27.4023,27.7871)"><path d="m 0,0 c 0.256,0 0.512,0.098 0.707,0.293 0.391,0.39 0.391,1.023 0,1.414 L -2.135,4.55 -3.548,3.135 -0.707,0.293 C -0.512,0.098 -0.256,0 0,0" id="path46" style="fill:#292f33;fill-opacity:1;fill-rule:nonzero;stroke:none"/></g></g></g></g></svg>