<?xml version="1.0" encoding="UTF-8" standalone="no"?><svg xmlns="http://www.w3.org/2000/svg" xmlns:cc="http://creativecommons.org/ns#" xmlns:dc="http://purl.org/dc/elements/1.1/" xmlns:rdf="http://www.w3.org/1999/02/22-rdf-syntax-ns#" xmlns:svg="http://www.w3.org/2000/svg" height="45" id="svg2" style="enable-background:new 0 0 45 45;" version="1.1" viewBox="0 0 45 45" width="45" xml:space="preserve"><metadata id="metadata8"><rdf:RDF><cc:Work rdf:about=""><dc:format>image/svg+xml</dc:format><dc:type rdf:resource="http://purl.org/dc/dcmitype/StillImage"/></cc:Work></rdf:RDF></metadata><defs id="defs6"><clipPath clipPathUnits="userSpaceOnUse" id="clipPath16"><path d="M 0,36 36,36 36,0 0,0 0,36 Z" id="path18"/></clipPath><clipPath clipPathUnits="userSpaceOnUse" id="clipPath30"><path d="m 11,3 14,0 0,21.001 -14,0 L 11,3 Z" id="path32"/></clipPath><clipPath clipPathUnits="userSpaceOnUse" id="clipPath62"><path d="M 0,36 36,36 36,0 0,0 0,36 Z" id="path64"/></clipPath></defs><g id="g10" transform="matrix(1.25,0,0,-1.25,0,45)"><g id="g12"><g clip-path="url(#clipPath16)" id="g14"><g id="g20" transform="translate(24,30)"><path d="m 0,0 c 0,-3.313 -2.686,-6 -6,-6 -3.314,0 -6,2.687 -6,6 0,3.313 2.686,6 6,6 3.314,0 6,-2.687 6,-6" id="path22" style="fill:#ccd6dd;fill-opacity:1;fill-rule:nonzero;stroke:none"/></g><path d="M 25,3 11,3 11,24 25,24 25,3 Z" id="path24" style="fill:#ccd6dd;fill-opacity:1;fill-rule:nonzero;stroke:none"/></g></g><g id="g26"><g clip-path="url(#clipPath30)" id="g28"><g id="g34" transform="translate(33.1914,14.4902)"><path d="m 0,0 -23.368,11.399 1.755,3.596 L 1.754,3.595 0,0 Z" id="path36" style="fill:#dd2e44;fill-opacity:1;fill-rule:nonzero;stroke:none"/></g><g id="g38" transform="translate(26.1758,0.1094)"><path d="m 0,0 -23.367,11.4 1.753,3.595 L 1.754,3.596 0,0 Z" id="path40" style="fill:#dd2e44;fill-opacity:1;fill-rule:nonzero;stroke:none"/></g><g id="g42" transform="translate(31.4375,10.8945)"><path d="m 0,0 -23.367,11.401 1.753,3.594 L 1.754,3.596 0,0 Z" id="path44" style="fill:#ffffff;fill-opacity:1;fill-rule:nonzero;stroke:none"/></g><g id="g46" transform="translate(27.9297,3.7051)"><path d="m 0,0 -23.368,11.399 1.755,3.596 L 1.754,3.595 0,0 Z" id="path48" style="fill:#ffffff;fill-opacity:1;fill-rule:nonzero;stroke:none"/></g><g id="g50" transform="translate(24.4219,-3.4854)"><path d="m 0,0 -23.367,11.4 1.754,3.595 L 1.754,3.595 0,0 Z" id="path52" style="fill:#ffffff;fill-opacity:1;fill-rule:nonzero;stroke:none"/></g><g id="g54" transform="translate(29.6836,7.2998)"><path d="m 0,0 -23.367,11.4 1.754,3.596 L 1.754,3.595 0,0 Z" id="path56" style="fill:#55acee;fill-opacity:1;fill-rule:nonzero;stroke:none"/></g></g></g><g id="g58"><g clip-path="url(#clipPath62)" id="g60"><g id="g66" transform="translate(27,25)"><path d="m 0,0 c 0,-1.104 -0.895,-2 -2,-2 l -14,0 c -1.104,0 -2,0.896 -2,2 0,1.104 0.896,2 2,2 L -2,2 C -0.895,2 0,1.104 0,0" id="path68" style="fill:#99aab5;fill-opacity:1;fill-rule:nonzero;stroke:none"/></g><g id="g70" transform="translate(27,2)"><path d="m 0,0 c 0,-1.105 -0.895,-2 -2,-2 l -14,0 c -1.104,0 -2,0.895 -2,2 0,1.105 0.896,2 2,2 L -2,2 C -0.895,2 0,1.105 0,0" id="path72" style="fill:#99aab5;fill-opacity:1;fill-rule:nonzero;stroke:none"/></g></g></g></g></svg>