<?xml version="1.0" encoding="UTF-8" standalone="no"?><svg xmlns="http://www.w3.org/2000/svg" xmlns:cc="http://creativecommons.org/ns#" xmlns:dc="http://purl.org/dc/elements/1.1/" xmlns:rdf="http://www.w3.org/1999/02/22-rdf-syntax-ns#" xmlns:svg="http://www.w3.org/2000/svg" height="45" id="svg2" style="enable-background:new 0 0 45 45;" version="1.1" viewBox="0 0 45 45" width="45" xml:space="preserve"><metadata id="metadata8"><rdf:RDF><cc:Work rdf:about=""><dc:format>image/svg+xml</dc:format><dc:type rdf:resource="http://purl.org/dc/dcmitype/StillImage"/></cc:Work></rdf:RDF></metadata><defs id="defs6"><clipPath clipPathUnits="userSpaceOnUse" id="clipPath20"><path d="M 0,36 36,36 36,0 0,0 0,36 Z" id="path22"/></clipPath></defs><g id="g10" transform="matrix(1.25,0,0,-1.25,0,45)"><g id="g12" transform="translate(19,24)"><path d="m 0,0 0,7 -2,0 0,-7 -3,0 0,-3 8,0 0,3 -3,0 z" id="path14" style="fill:#58595b;fill-opacity:1;fill-rule:nonzero;stroke:none"/></g><g id="g16"><g clip-path="url(#clipPath20)" id="g18"><g id="g24" transform="translate(33.2129,25.0225)"><path d="m 0,0 -29.943,8.023 c -0.534,0.144 -0.85,0.692 -0.707,1.226 0.142,0.533 0.691,0.85 1.224,0.707 L 0.518,1.933 C 1.052,1.789 1.368,1.241 1.225,0.708 1.082,0.174 0.534,-0.144 0,0" id="path26" style="fill:#6d6e71;fill-opacity:1;fill-rule:nonzero;stroke:none"/></g><g id="g28" transform="translate(23.3477,31.6387)"><path d="M 0,0 -1.933,0.518 -1.674,1.482 -7.469,3.035 -7.728,2.07 -9.66,2.588 c -1.067,0.285 -2.163,-0.348 -2.449,-1.415 -0.287,-1.067 0.347,-2.163 1.414,-2.449 l 9.66,-2.588 C 0.031,-4.15 1.128,-3.517 1.414,-2.45 1.699,-1.384 1.066,-0.286 0,0" id="path30" style="fill:#a7a9ac;fill-opacity:1;fill-rule:nonzero;stroke:none"/></g><g id="g32" transform="translate(13.8774,31.0693)"><path d="m 0,0 c -0.286,-1.066 -1.383,-1.7 -2.45,-1.414 -1.066,0.286 -1.7,1.383 -1.414,2.449 0.286,1.068 1.383,1.7 2.45,1.415 C -0.348,2.164 0.286,1.067 0,0" id="path34" style="fill:#808285;fill-opacity:1;fill-rule:nonzero;stroke:none"/></g><g id="g36" transform="translate(25.4688,27.9639)"><path d="m 0,0 c -0.286,-1.067 -1.383,-1.7 -2.449,-1.414 -1.068,0.286 -1.7,1.382 -1.414,2.449 0.285,1.068 1.382,1.7 2.449,1.414 C -0.348,2.163 0.286,1.066 0,0" id="path38" style="fill:#808285;fill-opacity:1;fill-rule:nonzero;stroke:none"/></g><g id="g40" transform="translate(6,4)"><path d="m 0,0 c 0,-2.209 1.791,-4 4,-4 l 16,0 c 2.209,0 4,1.791 4,4 L 24,5 0,5 0,0 Z" id="path42" style="fill:#dd2e44;fill-opacity:1;fill-rule:nonzero;stroke:none"/></g><g id="g44" transform="translate(26,22)"><path d="m 0,0 -16,0 c -1.477,0 -2.752,-0.809 -3.445,-2 l 22.89,0 C 2.752,-0.809 1.477,0 0,0" id="path46" style="fill:#dd2e44;fill-opacity:1;fill-rule:nonzero;stroke:none"/></g><path d="M 6,9 30,9 30,18 6,18 6,9 Z" id="path48" style="fill:#88c9f9;fill-opacity:1;fill-rule:nonzero;stroke:none"/><g id="g50" transform="translate(6.5549,20)"><path d="m 0,0 c -0.344,-0.59 -0.555,-1.268 -0.555,-2 l 24,0 c 0,0.732 -0.211,1.41 -0.555,2 L 0,0 Z" id="path52" style="fill:#55acee;fill-opacity:1;fill-rule:nonzero;stroke:none"/></g><path d="m 14,9 -2,0 0,11 2,0 0,-11 z" id="path54" style="fill:#231f20;fill-opacity:1;fill-rule:nonzero;stroke:none"/><path d="m 23,9 -2,0 0,11 2,0 0,-11 z" id="path56" style="fill:#231f20;fill-opacity:1;fill-rule:nonzero;stroke:none"/></g></g></g></svg>