<?xml version="1.0" encoding="UTF-8" standalone="no"?><svg xmlns="http://www.w3.org/2000/svg" xmlns:cc="http://creativecommons.org/ns#" xmlns:dc="http://purl.org/dc/elements/1.1/" xmlns:rdf="http://www.w3.org/1999/02/22-rdf-syntax-ns#" xmlns:svg="http://www.w3.org/2000/svg" height="45" id="svg2" style="enable-background:new 0 0 45 45;" version="1.1" viewBox="0 0 45 45" width="45" xml:space="preserve"><metadata id="metadata8"><rdf:RDF><cc:Work rdf:about=""><dc:format>image/svg+xml</dc:format><dc:type rdf:resource="http://purl.org/dc/dcmitype/StillImage"/></cc:Work></rdf:RDF></metadata><defs id="defs6"><clipPath clipPathUnits="userSpaceOnUse" id="clipPath16"><path d="M 0,36 36,36 36,0 0,0 0,36 Z" id="path18"/></clipPath></defs><g id="g10" transform="matrix(1.25,0,0,-1.25,0,45)"><g id="g12"><g clip-path="url(#clipPath16)" id="g14"><g id="g20" transform="translate(22.0879,3.1699)"><path d="m 0,0 c 0,-1.997 -1.619,-2.712 -3.616,-2.712 -1.997,0 -3.616,0.715 -3.616,2.712 l 0.904,8.136 c 0,1.996 0.715,1.807 2.712,1.807 1.997,0 2.712,0.189 2.712,-1.807 L 0,0 Z" id="path22" style="fill:#662113;fill-opacity:1;fill-rule:nonzero;stroke:none"/></g><g id="g24" transform="translate(30.5898,8.3252)"><path d="m 0,0 c -6.294,5.392 -8.843,13.112 -12.118,13.112 -3.275,0 -5.824,-7.72 -12.118,-13.112 -2.644,-2.266 -1.385,-3.577 2.241,-3.314 3.232,0.232 6.255,0.965 9.877,0.965 3.622,0 6.645,-0.733 9.876,-0.965 C 1.385,-3.577 2.645,-2.266 0,0" id="path26" style="fill:#5c913b;fill-opacity:1;fill-rule:nonzero;stroke:none"/></g><g id="g28" transform="translate(28.5459,10.4619)"><path d="m 0,0 c -4.837,4.435 -7.555,10.787 -10.074,10.787 -2.517,0 -5.237,-6.352 -10.073,-10.787 -3.844,-3.524 5.037,-4.315 10.073,0 C -5.04,-4.315 3.843,-3.524 0,0" id="path30" style="fill:#3e721d;fill-opacity:1;fill-rule:nonzero;stroke:none"/></g><g id="g32" transform="translate(28.5459,14.0547)"><path d="m 0,0 c -4.837,4.143 -7.555,10.077 -10.074,10.077 -2.517,0 -5.237,-5.934 -10.073,-10.077 -3.844,-3.292 5.037,-4.031 10.073,0 C -5.04,-4.031 3.843,-3.292 0,0" id="path34" style="fill:#5c913b;fill-opacity:1;fill-rule:nonzero;stroke:none"/></g><g id="g36" transform="translate(26.3359,16.9971)"><path d="m 0,0 c -3.775,3.235 -5.897,7.868 -7.864,7.868 -1.966,0 -4.089,-4.633 -7.865,-7.868 -3,-2.57 3.933,-3.146 7.865,0 C -3.934,-3.146 3.001,-2.57 0,0" id="path38" style="fill:#3e721d;fill-opacity:1;fill-rule:nonzero;stroke:none"/></g><g id="g40" transform="translate(26.3359,19.689)"><path d="m 0,0 c -3.775,3.235 -5.897,7.867 -7.864,7.867 -1.966,0 -4.089,-4.632 -7.865,-7.867 -3,-2.571 3.933,-3.147 7.865,0 C -3.934,-3.147 3.001,-2.571 0,0" id="path42" style="fill:#5c913b;fill-opacity:1;fill-rule:nonzero;stroke:none"/></g><g id="g44" transform="translate(24.8184,22.0796)"><path d="M 0,0 C -3.047,2.61 -4.76,6.349 -6.347,6.349 -7.933,6.349 -9.646,2.61 -12.694,0 -15.116,-2.075 -9.52,-2.54 -6.347,0 -3.174,-2.54 2.423,-2.075 0,0" id="path46" style="fill:#3e721d;fill-opacity:1;fill-rule:nonzero;stroke:none"/></g><g id="g48" transform="translate(24.8184,24.106)"><path d="M 0,0 C -3.047,2.61 -4.76,6.349 -6.347,6.349 -7.933,6.349 -9.646,2.61 -12.694,0 -15.116,-2.075 -9.52,-2.54 -6.347,0 -3.174,-2.54 2.423,-2.075 0,0" id="path50" style="fill:#5c913b;fill-opacity:1;fill-rule:nonzero;stroke:none"/></g><g id="g52" transform="translate(23.3008,27.0889)"><path d="M 0,0 C -2.317,1.986 -3.621,4.831 -4.829,4.831 -6.036,4.831 -7.34,1.986 -9.659,0 -11.501,-1.579 -7.244,-1.933 -4.829,0 -2.415,-1.933 1.844,-1.579 0,0" id="path54" style="fill:#3e721d;fill-opacity:1;fill-rule:nonzero;stroke:none"/></g><g id="g56" transform="translate(23.3008,28.1685)"><path d="M 0,0 C -2.317,1.986 -3.621,4.832 -4.829,4.832 -6.036,4.832 -7.34,1.986 -9.659,0 -11.501,-1.579 -7.244,-1.933 -4.829,0 -2.415,-1.933 1.844,-1.579 0,0" id="path58" style="fill:#5c913b;fill-opacity:1;fill-rule:nonzero;stroke:none"/></g><g id="g60" transform="translate(18,23.958)"><path d="M 0,0 C 0,-0.829 -0.671,-1.5 -1.5,-1.5 -2.329,-1.5 -3,-0.829 -3,0 -3,0.829 -2.329,1.5 -1.5,1.5 -0.671,1.5 0,0.829 0,0" id="path62" style="fill:#ffcc4d;fill-opacity:1;fill-rule:nonzero;stroke:none"/></g><g id="g64" transform="translate(22,11)"><path d="m 0,0 c 0,-1.104 -0.895,-2 -2,-2 -1.104,0 -2,0.896 -2,2 0,1.105 0.896,2 2,2 1.105,0 2,-0.895 2,-2" id="path66" style="fill:#ffcc4d;fill-opacity:1;fill-rule:nonzero;stroke:none"/></g><g id="g68" transform="translate(25,20.5)"><path d="M 0,0 C 0,-1.381 -1.12,-2.5 -2.5,-2.5 -3.88,-2.5 -5,-1.381 -5,0 -5,1.381 -3.88,2.5 -2.5,2.5 -1.12,2.5 0,1.381 0,0" id="path70" style="fill:#dd2e44;fill-opacity:1;fill-rule:nonzero;stroke:none"/></g><g id="g72" transform="translate(12,10)"><path d="m 0,0 c 0,-1.104 -0.896,-2 -2,-2 -1.104,0 -2,0.896 -2,2 0,1.105 0.896,2 2,2 1.104,0 2,-0.895 2,-2" id="path74" style="fill:#dd2e44;fill-opacity:1;fill-rule:nonzero;stroke:none"/></g><g id="g76" transform="translate(16,17)"><path d="m 0,0 c 0,-1.104 -0.896,-2 -2,-2 -1.104,0 -2,0.896 -2,2 0,1.105 0.896,2 2,2 1.104,0 2,-0.895 2,-2" id="path78" style="fill:#a6d388;fill-opacity:1;fill-rule:nonzero;stroke:none"/></g><g id="g80" transform="translate(28,13)"><path d="m 0,0 c 0,-1.104 -0.896,-2 -2,-2 -1.104,0 -2,0.896 -2,2 0,1.105 0.896,2 2,2 1.104,0 2,-0.895 2,-2" id="path82" style="fill:#a6d388;fill-opacity:1;fill-rule:nonzero;stroke:none"/></g><g id="g84" transform="translate(19.3789,34.3213)"><path d="M 0,0 C 0.143,-0.275 0.512,-0.549 0.817,-0.609 L 2.196,-0.878 C 2.501,-0.937 2.573,-1.168 2.355,-1.39 L 1.372,-2.395 C 1.155,-2.617 1.007,-3.051 1.046,-3.36 l 0.17,-1.394 C 1.254,-5.062 1.057,-5.202 0.777,-5.064 l -1.257,0.625 c -0.279,0.138 -0.738,0.144 -1.02,0.012 l -1.273,-0.594 c -0.283,-0.13 -0.476,0.014 -0.431,0.322 l 0.205,1.39 c 0.046,0.307 -0.09,0.745 -0.302,0.973 l -0.958,1.028 c -0.212,0.227 -0.135,0.457 0.172,0.509 l 1.385,0.234 c 0.307,0.051 0.681,0.316 0.832,0.588 l 0.681,1.229 c 0.152,0.272 0.394,0.269 0.538,-0.006 L 0,0 Z" id="path86" style="fill:#ffac33;fill-opacity:1;fill-rule:nonzero;stroke:none"/></g></g></g></g></svg>