<?xml version="1.0" encoding="UTF-8" standalone="no"?><svg xmlns="http://www.w3.org/2000/svg" xmlns:cc="http://creativecommons.org/ns#" xmlns:dc="http://purl.org/dc/elements/1.1/" xmlns:rdf="http://www.w3.org/1999/02/22-rdf-syntax-ns#" xmlns:svg="http://www.w3.org/2000/svg" height="45" id="svg2" style="enable-background:new 0 0 45 45;" version="1.1" viewBox="0 0 45 45" width="45" xml:space="preserve"><metadata id="metadata8"><rdf:RDF><cc:Work rdf:about=""><dc:format>image/svg+xml</dc:format><dc:type rdf:resource="http://purl.org/dc/dcmitype/StillImage"/></cc:Work></rdf:RDF></metadata><defs id="defs6"><clipPath clipPathUnits="userSpaceOnUse" id="clipPath16"><path d="M 0,36 36,36 36,0 0,0 0,36 Z" id="path18"/></clipPath></defs><g id="g10" transform="matrix(1.25,0,0,-1.25,0,45)"><g id="g12"><g clip-path="url(#clipPath16)" id="g14"><g id="g20" transform="translate(17,0)"><path d="m 0,0 c -0.512,0 -1.024,0.195 -1.414,0.586 l -11,11 C -12.789,11.961 -13,12.47 -13,13 l 0,21 c 0,0.809 0.487,1.538 1.235,1.848 0.747,0.31 1.608,0.138 2.179,-0.434 L 0,25.829 9.586,35.414 c 0.572,0.573 1.431,0.744 2.18,0.434 C 12.513,35.538 13,34.809 13,34 l 0,-21 c 0,-0.53 -0.211,-1.039 -0.586,-1.414 l -11,-11 C 1.024,0.195 0.512,0 0,0" id="path22" style="fill:#66757f;fill-opacity:1;fill-rule:nonzero;stroke:none"/></g><g id="g24" transform="translate(17,23)"><path d="M 0,0 11,11 11,-10 0,-21 0,0 Z" id="path26" style="fill:#47ded4;fill-opacity:1;fill-rule:nonzero;stroke:none"/></g><g id="g28" transform="translate(6,34)"><path d="M 0,0 11,-11 11,-32 0,-21 0,0 Z" id="path30" style="fill:#ffff87;fill-opacity:1;fill-rule:nonzero;stroke:none"/></g></g></g></g></svg>