<?xml version="1.0" encoding="UTF-8" standalone="no"?><svg xmlns="http://www.w3.org/2000/svg" xmlns:cc="http://creativecommons.org/ns#" xmlns:dc="http://purl.org/dc/elements/1.1/" xmlns:rdf="http://www.w3.org/1999/02/22-rdf-syntax-ns#" xmlns:svg="http://www.w3.org/2000/svg" height="45" id="svg2" style="enable-background:new 0 0 45 45;" version="1.1" viewBox="0 0 45 45" width="45" xml:space="preserve"><metadata id="metadata8"><rdf:RDF><cc:Work rdf:about=""><dc:format>image/svg+xml</dc:format><dc:type rdf:resource="http://purl.org/dc/dcmitype/StillImage"/></cc:Work></rdf:RDF></metadata><defs id="defs6"><clipPath clipPathUnits="userSpaceOnUse" id="clipPath16"><path d="M 0,36 36,36 36,0 0,0 0,36 Z" id="path18"/></clipPath></defs><g id="g10" transform="matrix(1.25,0,0,-1.25,0,45)"><g id="g12"><g clip-path="url(#clipPath16)" id="g14"><g id="g20" transform="translate(22.123,22.2222)"><path d="m 0,0 -4.444,0 c -1.793,0 -3.333,-1.541 -3.333,-3.333 l 0,-18.889 10.654,0 0,8.956 0.457,1.752 0,8.181 C 3.334,-1.541 1.793,0 0,0" id="path22" style="fill:#9268ca;fill-opacity:1;fill-rule:nonzero;stroke:none"/></g><g id="g24" transform="translate(18,19.5)"><path d="M 0,0 C -2.485,0 -4.5,-2.015 -4.5,-4.5 -4.5,-6.985 -2.485,-9 0,-9 l 0,9 z" id="path26" style="fill:#7450a8;fill-opacity:1;fill-rule:nonzero;stroke:none"/></g><g id="g28" transform="translate(18,18.5)"><path d="M 0,0 C -1.933,0 -3.5,-1.567 -3.5,-3.5 -3.5,-5.433 -1.933,-7 0,-7 l 0,7 z" id="path30" style="fill:#9268ca;fill-opacity:1;fill-rule:nonzero;stroke:none"/></g><g id="g32" transform="translate(20,19.5)"><path d="M 0,0 C -2.485,0 -4.5,-2.015 -4.5,-4.5 -4.5,-6.985 -2.485,-9 0,-9 l 0,9 z" id="path34" style="fill:#7450a8;fill-opacity:1;fill-rule:nonzero;stroke:none"/></g><g id="g36" transform="translate(20,18.5)"><path d="M 0,0 C -1.933,0 -3.5,-1.567 -3.5,-3.5 -3.5,-5.433 -1.933,-7 0,-7 l 0,7 z" id="path38" style="fill:#9268ca;fill-opacity:1;fill-rule:nonzero;stroke:none"/></g><g id="g40" transform="translate(11.8135,0)"><path d="m 0,0 7.154,0 0,14.25 c -0.453,0.076 -0.916,0.125 -1.391,0.125 -4.61,0 -8.347,-3.737 -8.347,-8.347 C -2.584,3.656 -1.589,1.52 0,0" id="path42" style="fill:#7450a8;fill-opacity:1;fill-rule:nonzero;stroke:none"/></g><g id="g44" transform="translate(18.79,17.8294)"><path d="m 0,0 0,-4.491 c -0.396,0.066 -0.799,0.109 -1.213,0.109 -4.098,0 -7.42,-3.321 -7.42,-7.419 0,-2.486 1.228,-4.682 3.106,-6.028 l 10.696,0 0,20.667 L 0,0 Z" id="path46" style="fill:#9268ca;fill-opacity:1;fill-rule:nonzero;stroke:none"/></g><g id="g48" transform="translate(24.4375,20)"><path d="m 0,0 4.851,-5.114 -4.289,-4.511 -0.001,-3.046 -3.941,-2.674 -2.641,4.139 5.646,5.81 -1.939,1.923 L 0,0 Z" id="path50" style="fill:#7450a8;fill-opacity:1;fill-rule:nonzero;stroke:none"/></g><g id="g52" transform="translate(24.4375,21.25)"><path d="m 0,0 5.464,-5.694 c 0,0 1.897,-1.529 0,-3.333 -1.139,-1.083 -8.277,-5.89 -8.277,-5.89 l -2.221,2.222 6.054,5.889 -3.334,3.334 L 0,0 Z" id="path54" style="fill:#9268ca;fill-opacity:1;fill-rule:nonzero;stroke:none"/></g><g id="g56" transform="translate(20.3311,8.4678)"><path d="M 0,0 C -1.124,0.535 -2.19,0.461 -3.221,-0.142 -3.713,-0.431 -3.915,-0.971 -3.16,-1.149 -2.402,-1.327 0,0 0,0" id="path58" style="fill:#eec2ad;fill-opacity:1;fill-rule:nonzero;stroke:none"/></g><g id="g60" transform="translate(21.8447,6.5508)"><path d="m 0,0 c 0.139,-1.765 -2.227,-3.414 -4.02,-3.199 -1.282,0.154 -2.397,3.608 -0.877,4.053 1.357,0.396 1.731,1.627 3.34,1.167 C -0.278,1.656 -0.051,0.678 0,0" id="path62" style="fill:#f7dece;fill-opacity:1;fill-rule:nonzero;stroke:none"/></g><g id="g64" transform="translate(20.6592,5.8682)"><path d="m 0,0 -0.212,0.441 c 0,0 -0.77,-1.147 -1.843,-1.589 -0.813,-0.332 -1.498,-0.366 -1.857,-0.306 0.154,-0.293 0.157,-0.343 0.359,-0.53 C -2.436,-2.024 -0.651,-1.425 0,0" id="path66" style="fill:#e0aa94;fill-opacity:1;fill-rule:nonzero;stroke:none"/></g><g id="g68" transform="translate(18.4419,5.9072)"><path d="M 0,0 C 0.99,0.678 1.279,1.326 1.279,1.326 L 0.956,1.735 c 0,0 -1.145,-1.776 -3.177,-1.684 0.015,-0.248 -0.006,-0.296 0.068,-0.55 C -1.88,-0.509 -0.804,-0.55 0,0" id="path70" style="fill:#e0aa94;fill-opacity:1;fill-rule:nonzero;stroke:none"/></g><g id="g72" transform="translate(15.5732,31.1909)"><path d="m 0,0 c 0.576,-1.385 -0.072,-2.969 -1.446,-3.54 -1.376,-0.571 -2.956,0.087 -3.531,1.472 -0.575,1.384 0.072,2.969 1.448,3.54 C -2.154,2.044 -0.574,1.385 0,0" id="path74" style="fill:#292f33;fill-opacity:1;fill-rule:nonzero;stroke:none"/></g><g id="g76" transform="translate(20.9832,24.2014)"><path d="m 0,0 c 1.203,1.435 1.921,3.269 1.304,4.751 l -1.02,2.457 c -5.514,-2.076 -7.782,0.773 -7.782,0.773 0,0 1.079,-2.598 -1.239,-3.922 l 1.233,-2.967 c 1.009,-2.424 2.382,-4.161 4.803,-3.165 L -2.618,-2.4 c 0.205,-0.816 0.055,-1.478 1.258,-1.524 0.841,-0.032 1.976,1.47 1.771,2.287 L 0,0 Z" id="path78" style="fill:#f7dece;fill-opacity:1;fill-rule:nonzero;stroke:none"/></g><g id="g80" transform="translate(27.4102,30.5884)"><path d="m 0,0 c 0.824,2.202 -1.159,3.876 -2.847,4.048 -1.024,0.104 -1.947,-0.549 -2.398,-1.331 -2.051,3.434 -5.119,2.625 -7.07,1.938 -2.069,-0.727 -5.145,-2.868 -3.938,-5.17 1.207,-2.301 5.238,-1.312 5.238,-1.312 l 1.46,-2.352 c -0.394,2.024 0.949,2.476 1.571,2.035 0.654,-0.465 0.219,-1.957 0.517,-2.544 0.298,-0.588 1.33,-1.394 1.33,-1.394 0.634,0.805 2.635,3.578 1.7,6.935 0.387,0.145 0.968,0.047 1.438,-0.198 1.192,-0.618 0.253,-3.702 1.911,-4.677 1.589,-0.935 2.522,0.35 2.522,0.35 C -0.196,-3.727 -0.787,-2.105 0,0" id="path82" style="fill:#292f33;fill-opacity:1;fill-rule:nonzero;stroke:none"/></g><g id="g84" transform="translate(14.3418,24.2183)"><path d="m 0,0 -0.308,-0.128 c -0.135,-0.056 -0.291,0.006 -0.347,0.143 -0.055,0.135 0.009,0.29 0.143,0.346 l 0.309,0.128 C -0.067,0.546 0.088,0.481 0.144,0.347 0.2,0.21 0.135,0.057 0,0" id="path86" style="fill:#bf6952;fill-opacity:1;fill-rule:nonzero;stroke:none"/></g><g id="g88" transform="translate(14.4932,26.2886)"><path d="m 0,0 c -0.27,-0.112 -0.58,0.017 -0.692,0.286 l -0.205,0.491 c -0.112,0.268 0.017,0.58 0.287,0.692 0.271,0.112 0.582,-0.017 0.694,-0.285 L 0.287,0.693 C 0.399,0.423 0.272,0.112 0,0" id="path90" style="fill:#662113;fill-opacity:1;fill-rule:nonzero;stroke:none"/></g><g id="g92" transform="translate(14.7612,23.0171)"><path d="M 0,0 C 0.243,-0.295 0.509,-0.541 0.796,-0.733 1.852,-0.125 1.925,0.8 1.925,0.8 1.925,0.8 0.989,0.411 0.051,0.02 0.032,0.013 0.019,0.008 0,0" id="path94" style="fill:#df1f32;fill-opacity:1;fill-rule:nonzero;stroke:none"/></g></g></g></g></svg>