<?xml version="1.0" encoding="UTF-8" standalone="no"?><svg xmlns="http://www.w3.org/2000/svg" xmlns:cc="http://creativecommons.org/ns#" xmlns:dc="http://purl.org/dc/elements/1.1/" xmlns:rdf="http://www.w3.org/1999/02/22-rdf-syntax-ns#" xmlns:svg="http://www.w3.org/2000/svg" height="45" id="svg2" style="enable-background:new 0 0 45 45;" version="1.1" viewBox="0 0 45 45" width="45" xml:space="preserve"><metadata id="metadata8"><rdf:RDF><cc:Work rdf:about=""><dc:format>image/svg+xml</dc:format><dc:type rdf:resource="http://purl.org/dc/dcmitype/StillImage"/></cc:Work></rdf:RDF></metadata><defs id="defs6"><clipPath clipPathUnits="userSpaceOnUse" id="clipPath16"><path d="M 4,36 C 1.791,36 0,34.209 0,32 L 0,32 0,4 C 0,1.791 1.791,0 4,0 l 0,0 28,0 c 2.209,0 4,1.791 4,4 l 0,0 0,28 c 0,2.209 -1.791,4 -4,4 l 0,0 -28,0 z" id="path18"/></clipPath><clipPath clipPathUnits="userSpaceOnUse" id="clipPath28"><path d="M 0,36 36,36 36,0 0,0 0,36 Z" id="path30"/></clipPath></defs><g id="g10" transform="matrix(1.25,0,0,-1.25,0,45)"><g id="g12"><g clip-path="url(#clipPath16)" id="g14"><path d="m 38,10 -39,0 0,-13 39,0 0,13 z" id="path20" style="fill:#3b88c3;fill-opacity:1;fill-rule:nonzero;stroke:none"/><path d="M 39,8 -2,8 -2,38 39,38 39,8 Z" id="path22" style="fill:#88c9f9;fill-opacity:1;fill-rule:nonzero;stroke:none"/></g></g><g id="g24"><g clip-path="url(#clipPath28)" id="g26"><g id="g32" transform="translate(7,7)"><path d="M 0,0 C 0,1 1,5 11,5 23,5 26,1 26,0 26,-1 26,-2 12,-2 0,-2 0,-1 0,0" id="path34" style="fill:#f4900c;fill-opacity:1;fill-rule:nonzero;stroke:none"/></g><g id="g36" transform="translate(24.6172,26.6377)"><path d="m 0,0 c 0,0 -2.449,2.24 -5.929,2.859 -3.482,0.62 -5.529,-0.858 -5.529,-0.858 0,0 2.582,4.857 6.934,4.082 C 0.685,5.155 0,0 0,0" id="path38" style="fill:#3e721d;fill-opacity:1;fill-rule:nonzero;stroke:none"/></g><g id="g40" transform="translate(23.9766,27.5112)"><path d="m 0,0 c 0,0 1.823,2.773 5.045,4.23 3.222,1.457 5.386,0.462 5.386,0.462 0,0 -3.073,4.189 -7.1,2.367 C -1.49,4.878 0,0 0,0" id="path42" style="fill:#3e721d;fill-opacity:1;fill-rule:nonzero;stroke:none"/></g><g id="g44" transform="translate(21,11.4443)"><path d="M 0,0 C 0,-0.351 0.25,-1.007 2,-1.444 4.736,-2.128 5,-1 5,-1 5,-1 6,2 6,8 6,13.416 3.75,17.417 3.75,17.417 L 1.167,17.084 c 0,0 1.333,-2.751 1.416,-8.168 C 2.645,4.916 0,0.351 0,0" id="path46" style="fill:#662113;fill-opacity:1;fill-rule:nonzero;stroke:none"/></g><g id="g48" transform="translate(15.7246,16.2285)"><path d="m 0,0 c 0,0 -3.107,5.537 0.387,10.016 4.079,5.228 9.207,2.877 9.207,2.877 0,0 -3.26,-2.601 -5.717,-5.557 C 1.075,3.965 0,0 0,0" id="path50" style="fill:#5c913b;fill-opacity:1;fill-rule:nonzero;stroke:none"/></g><g id="g52" transform="translate(34.6445,20.9858)"><path d="m 0,0 c 0,0 1.42,6.059 -3.598,8.709 -5.047,2.667 -8.235,-1.325 -8.235,-1.325 0,0 3.313,-0.094 6.532,-1.893 C -1.633,3.44 0,0 0,0" id="path54" style="fill:#5c913b;fill-opacity:1;fill-rule:nonzero;stroke:none"/></g><g id="g56" transform="translate(12,29)"><path d="m 0,0 c 0,-2.762 -2.238,-5 -5,-5 -2.762,0 -5,2.238 -5,5 0,2.762 2.238,5 5,5 2.762,0 5,-2.238 5,-5" id="path58" style="fill:#ffcc4d;fill-opacity:1;fill-rule:nonzero;stroke:none"/></g><g id="g60" transform="translate(11,29)"><path d="m 0,0 c 0,-2.209 -1.791,-4 -4,-4 -2.209,0 -4,1.791 -4,4 0,2.209 1.791,4 4,4 2.209,0 4,-1.791 4,-4" id="path62" style="fill:#ffac33;fill-opacity:1;fill-rule:nonzero;stroke:none"/></g></g></g></g></svg>