<?xml version="1.0" encoding="UTF-8" standalone="no"?><svg xmlns="http://www.w3.org/2000/svg" xmlns:cc="http://creativecommons.org/ns#" xmlns:dc="http://purl.org/dc/elements/1.1/" xmlns:rdf="http://www.w3.org/1999/02/22-rdf-syntax-ns#" xmlns:svg="http://www.w3.org/2000/svg" height="45" id="svg2" style="enable-background:new 0 0 45 45;" version="1.1" viewBox="0 0 45 45" width="45" xml:space="preserve"><metadata id="metadata8"><rdf:RDF><cc:Work rdf:about=""><dc:format>image/svg+xml</dc:format><dc:type rdf:resource="http://purl.org/dc/dcmitype/StillImage"/></cc:Work></rdf:RDF></metadata><defs id="defs6"><clipPath clipPathUnits="userSpaceOnUse" id="clipPath16"><path d="M 0,36 36,36 36,0 0,0 0,36 Z" id="path18"/></clipPath></defs><g id="g10" transform="matrix(1.25,0,0,-1.25,0,45)"><g id="g12"><g clip-path="url(#clipPath16)" id="g14"><g id="g20" transform="translate(31,25)"><path d="m 0,0 c 0,6 -13,11 -13,11 l 0,-25 c 0,0 13,8 13,14" id="path22" style="fill:#ea596e;fill-opacity:1;fill-rule:nonzero;stroke:none"/></g><g id="g24" transform="translate(5.0024,25)"><path d="m 0,0 c 0,6 13,11 13,11 l 0,-25 C 13,-14 0,-6 0,0" id="path26" style="fill:#ea596e;fill-opacity:1;fill-rule:nonzero;stroke:none"/></g><g id="g28" transform="translate(27,25)"><path d="m 0,0 c 0,-3.833 -9,-12 -9,-12 0,0 -9,8.167 -9,12 0,5 9,11 9,11 0,0 9,-6 9,-11" id="path30" style="fill:#f4abba;fill-opacity:1;fill-rule:nonzero;stroke:none"/></g><g id="g32" transform="translate(13,20.1328)"><path d="m 0,0 c 2.552,-4.254 -1.806,-9.096 -4.357,-8.245 -2.553,0.85 -3.403,-1.701 -0.851,-2.552 2.552,-0.85 8.051,0.396 11.059,3.402 0.85,0.851 1.701,0.851 1.701,0.851 L 0,0 Z" id="path34" style="fill:#be1931;fill-opacity:1;fill-rule:nonzero;stroke:none"/></g><g id="g36" transform="translate(23,20.1328)"><path d="m 0,0 c -2.552,-4.254 1.806,-9.096 4.357,-8.245 2.553,0.85 3.404,-1.701 0.851,-2.552 -2.552,-0.85 -8.052,0.396 -11.059,3.402 -0.85,0.851 -1.701,0.851 -1.701,0.851 L 0,0 Z" id="path38" style="fill:#be1931;fill-opacity:1;fill-rule:nonzero;stroke:none"/></g><g id="g40" transform="translate(9,19)"><path d="m 0,0 c 2.552,-4.254 -1.369,-11.366 -3.921,-10.515 -2.552,0.851 -3.403,-1.702 -0.85,-2.552 2.552,-0.851 8.051,0.395 11.059,3.403 0.85,0.85 1.701,0.85 1.701,0.85 L 0,0 Z" id="path42" style="fill:#ea596e;fill-opacity:1;fill-rule:nonzero;stroke:none"/></g><g id="g44" transform="translate(26.9893,19)"><path d="m 0,0 c -2.553,-4.254 1.368,-11.366 3.921,-10.515 2.552,0.851 3.402,-1.702 0.85,-2.552 -2.552,-0.851 -8.051,0.395 -11.059,3.403 -0.851,0.85 -1.701,0.85 -1.701,0.85 L 0,0 Z" id="path46" style="fill:#ea596e;fill-opacity:1;fill-rule:nonzero;stroke:none"/></g><g id="g48" transform="translate(30.9209,3.6504)"><path d="m 0,0 c -2.322,-0.774 -6.921,5.35 -5.921,11.35 2,5 -4,7.482 -4,9.983 0,6.108 -2.031,9.735 -3.031,9.735 -1,0 -2.969,-3.627 -2.969,-9.735 0,-2.501 -6,-4.983 -4,-9.983 1,-6 -3.599,-12.124 -5.921,-11.35 -2.552,0.851 -3.403,-2.552 -0.85,-3.402 2.552,-0.851 7.068,0.533 10.208,3.402 1.862,1.702 3.563,1.702 3.563,1.702 0,0 1.701,0 3.564,-1.702 3.138,-2.869 7.656,-4.253 10.208,-3.402 C 3.402,-2.552 2.552,0.851 0,0" id="path50" style="fill:#f4abba;fill-opacity:1;fill-rule:nonzero;stroke:none"/></g><g id="g52" transform="translate(17,12.5)"><path d="M 0,0 C 0,-1.381 -1.119,-2.5 -2.5,-2.5 -3.881,-2.5 -5,-1.381 -5,0 -5,1.381 -3.881,2.5 -2.5,2.5 -1.119,2.5 0,1.381 0,0" id="path54" style="fill:#292f33;fill-opacity:1;fill-rule:nonzero;stroke:none"/></g><g id="g56" transform="translate(24,12.5)"><path d="M 0,0 C 0,-1.381 -1.119,-2.5 -2.5,-2.5 -3.881,-2.5 -5,-1.381 -5,0 -5,1.381 -3.881,2.5 -2.5,2.5 -1.119,2.5 0,1.381 0,0" id="path58" style="fill:#292f33;fill-opacity:1;fill-rule:nonzero;stroke:none"/></g></g></g></g></svg>