<?xml version="1.0" encoding="UTF-8" standalone="no"?><svg xmlns="http://www.w3.org/2000/svg" xmlns:cc="http://creativecommons.org/ns#" xmlns:dc="http://purl.org/dc/elements/1.1/" xmlns:rdf="http://www.w3.org/1999/02/22-rdf-syntax-ns#" xmlns:svg="http://www.w3.org/2000/svg" height="45" id="svg2" style="enable-background:new 0 0 45 45;" version="1.1" viewBox="0 0 45 45" width="45" xml:space="preserve"><metadata id="metadata8"><rdf:RDF><cc:Work rdf:about=""><dc:format>image/svg+xml</dc:format><dc:type rdf:resource="http://purl.org/dc/dcmitype/StillImage"/></cc:Work></rdf:RDF></metadata><defs id="defs6"><clipPath clipPathUnits="userSpaceOnUse" id="clipPath16"><path d="M 0,36 36,36 36,0 0,0 0,36 Z" id="path18"/></clipPath></defs><g id="g10" transform="matrix(1.25,0,0,-1.25,0,45)"><g id="g12"><g clip-path="url(#clipPath16)" id="g14"><g id="g20" transform="translate(32,18)"><path d="m 0,0 c 0,-8.836 -7.164,-16 -16,-16 -8.836,0 -16,7.164 -16,16 0,8.836 7.164,16 16,16 C -7.164,16 0,8.836 0,0" id="path22" style="fill:#ffcc4d;fill-opacity:1;fill-rule:nonzero;stroke:none"/></g><g id="g24" transform="translate(11.4707,22.4707)"><path d="m 0,0 c 0,-1.706 -0.987,-3.088 -2.206,-3.088 -1.218,0 -2.206,1.382 -2.206,3.088 0,1.705 0.988,3.088 2.206,3.088 C -0.987,3.088 0,1.705 0,0" id="path26" style="fill:#664500;fill-opacity:1;fill-rule:nonzero;stroke:none"/></g><g id="g28" transform="translate(23,22.4707)"><path d="m 0,0 c 0,-1.706 -0.987,-3.088 -2.206,-3.088 -1.218,0 -2.206,1.382 -2.206,3.088 0,1.705 0.988,3.088 2.206,3.088 C -0.987,3.088 0,1.705 0,0" id="path30" style="fill:#664500;fill-opacity:1;fill-rule:nonzero;stroke:none"/></g><g id="g32" transform="translate(10.1177,6.6177)"><path d="M 0,0 C 1.765,4.412 11.471,4.412 11.471,2.647 11.471,1.765 4.412,3.529 0,0" id="path34" style="fill:#664500;fill-opacity:1;fill-rule:nonzero;stroke:none"/></g><g id="g36" transform="translate(32.2617,18.5)"><path d="m 0,0 -15.262,0 c -1.51,0 -2.734,-1.344 -2.734,-3 0,-1.657 1.224,-3 2.734,-3 L 0,-6 c 1.513,0 2.738,1.343 2.738,3 0,1.656 -1.225,3 -2.738,3" id="path38" style="fill:#f4900c;fill-opacity:1;fill-rule:nonzero;stroke:none"/></g></g></g></g></svg>