<?xml version="1.0" encoding="UTF-8" standalone="no"?><svg xmlns="http://www.w3.org/2000/svg" xmlns:cc="http://creativecommons.org/ns#" xmlns:dc="http://purl.org/dc/elements/1.1/" xmlns:rdf="http://www.w3.org/1999/02/22-rdf-syntax-ns#" xmlns:svg="http://www.w3.org/2000/svg" height="45" id="svg2" style="enable-background:new 0 0 45 45;" version="1.1" viewBox="0 0 45 45" width="45" xml:space="preserve"><metadata id="metadata8"><rdf:RDF><cc:Work rdf:about=""><dc:format>image/svg+xml</dc:format><dc:type rdf:resource="http://purl.org/dc/dcmitype/StillImage"/></cc:Work></rdf:RDF></metadata><defs id="defs6"><clipPath clipPathUnits="userSpaceOnUse" id="clipPath100"><path d="M 0,36 36,36 36,0 0,0 0,36 Z" id="path102"/></clipPath></defs><g id="g10" transform="matrix(1.25,0,0,-1.25,0,45)"><g id="g12" transform="translate(10.3077,27)"><path d="M 0,0 -4.615,0 -4.769,-2 0.154,-2 0,0 Z" id="path14" style="fill:#be1931;fill-opacity:1;fill-rule:nonzero;stroke:none"/></g><g id="g16" transform="translate(10,31)"><path d="M 0,0 -4,0 -4.154,-2 0.154,-2 0,0 Z" id="path18" style="fill:#be1931;fill-opacity:1;fill-rule:nonzero;stroke:none"/></g><g id="g20" transform="translate(10.6154,23)"><path d="M 0,0 -5.231,0 -5.385,-2 0.154,-2 0,0 Z" id="path22" style="fill:#be1931;fill-opacity:1;fill-rule:nonzero;stroke:none"/></g><g id="g24" transform="translate(5.0769,18.9999)"><path d="m 0,0 -0.077,-1 6,0 L 5.846,0 0,0 Z" id="path26" style="fill:#be1931;fill-opacity:1;fill-rule:nonzero;stroke:none"/></g><g id="g28" transform="translate(20.6154,23)"><path d="M 0,0 -5.231,0 -5.385,-2 0.154,-2 0,0 Z" id="path30" style="fill:#be1931;fill-opacity:1;fill-rule:nonzero;stroke:none"/></g><g id="g32" transform="translate(15.0768,18.9999)"><path d="M 0,0 -0.076,-1 5.923,-1 5.846,0 0,0 Z" id="path34" style="fill:#be1931;fill-opacity:1;fill-rule:nonzero;stroke:none"/></g><g id="g36" transform="translate(20.3077,27)"><path d="M 0,0 -4.615,0 -4.769,-2 0.154,-2 0,0 Z" id="path38" style="fill:#be1931;fill-opacity:1;fill-rule:nonzero;stroke:none"/></g><g id="g40" transform="translate(20,31)"><path d="M 0,0 -4,0 -4.154,-2 0.154,-2 0,0 Z" id="path42" style="fill:#be1931;fill-opacity:1;fill-rule:nonzero;stroke:none"/></g><g id="g44" transform="translate(30.3077,27)"><path d="M 0,0 -4.615,0 -4.769,-2 0.154,-2 0,0 Z" id="path46" style="fill:#be1931;fill-opacity:1;fill-rule:nonzero;stroke:none"/></g><g id="g48" transform="translate(25.0767,18.9999)"><path d="m 0,0 -0.077,-1 6,0 L 5.846,0 0,0 Z" id="path50" style="fill:#be1931;fill-opacity:1;fill-rule:nonzero;stroke:none"/></g><g id="g52" transform="translate(30.6154,23)"><path d="M 0,0 -5.231,0 -5.385,-2 0.154,-2 0,0 Z" id="path54" style="fill:#be1931;fill-opacity:1;fill-rule:nonzero;stroke:none"/></g><g id="g56" transform="translate(30,31)"><path d="M 0,0 -4,0 -4.154,-2 0.154,-2 0,0 Z" id="path58" style="fill:#be1931;fill-opacity:1;fill-rule:nonzero;stroke:none"/></g><g id="g60" transform="translate(10.4615,25)"><path d="M 0,0 -4.923,0 -5.077,-2 0.154,-2 0,0 Z" id="path62" style="fill:#e6e7e8;fill-opacity:1;fill-rule:nonzero;stroke:none"/></g><g id="g64" transform="translate(10.1539,29)"><path d="M 0,0 -4.308,0 -4.462,-2 0.154,-2 0,0 Z" id="path66" style="fill:#e6e7e8;fill-opacity:1;fill-rule:nonzero;stroke:none"/></g><g id="g68" transform="translate(5.2308,21)"><path d="M 0,0 -0.154,-2 5.692,-2 5.538,0 0,0 Z" id="path70" style="fill:#e6e7e8;fill-opacity:1;fill-rule:nonzero;stroke:none"/></g><g id="g72" transform="translate(20.4615,25)"><path d="M 0,0 -4.923,0 -5.077,-2 0.154,-2 0,0 Z" id="path74" style="fill:#e6e7e8;fill-opacity:1;fill-rule:nonzero;stroke:none"/></g><g id="g76" transform="translate(20.1539,29)"><path d="M 0,0 -4.308,0 -4.462,-2 0.154,-2 0,0 Z" id="path78" style="fill:#e6e7e8;fill-opacity:1;fill-rule:nonzero;stroke:none"/></g><g id="g80" transform="translate(15.2308,21)"><path d="M 0,0 -0.154,-2 5.692,-2 5.538,0 0,0 Z" id="path82" style="fill:#e6e7e8;fill-opacity:1;fill-rule:nonzero;stroke:none"/></g><g id="g84" transform="translate(30.4615,25)"><path d="M 0,0 -4.923,0 -5.077,-2 0.154,-2 0,0 Z" id="path86" style="fill:#e6e7e8;fill-opacity:1;fill-rule:nonzero;stroke:none"/></g><g id="g88" transform="translate(30.7692,21)"><path d="M 0,0 -5.538,0 -5.692,-2 0.154,-2 0,0 Z" id="path90" style="fill:#e6e7e8;fill-opacity:1;fill-rule:nonzero;stroke:none"/></g><g id="g92" transform="translate(30.1539,29)"><path d="M 0,0 -4.308,0 -4.462,-2 0.154,-2 0,0 Z" id="path94" style="fill:#e6e7e8;fill-opacity:1;fill-rule:nonzero;stroke:none"/></g><g id="g96"><g clip-path="url(#clipPath100)" id="g98"><g id="g104" transform="translate(35,2)"><path d="m 0,0 c 0,-1.105 -0.895,-2 -2,-2 l -30,0 c -1.104,0 -2,0.895 -2,2 l 0,14 c 0,1.105 0.896,2 2,2 l 30,0 c 1.105,0 2,-0.895 2,-2 L 0,0 Z" id="path106" style="fill:#a0041e;fill-opacity:1;fill-rule:nonzero;stroke:none"/></g><path d="m 35,14 -34,0 0,2 34,0 0,-2 z" id="path108" style="fill:#c1694f;fill-opacity:1;fill-rule:nonzero;stroke:none"/><path d="m 10,8 -4,0 0,4 4,0 0,-4 z" id="path110" style="fill:#aab8c2;fill-opacity:1;fill-rule:nonzero;stroke:none"/><path d="m 20,8 -4,0 0,4 4,0 0,-4 z" id="path112" style="fill:#aab8c2;fill-opacity:1;fill-rule:nonzero;stroke:none"/><path d="m 30,8 -4,0 0,4 4,0 0,-4 z" id="path114" style="fill:#aab8c2;fill-opacity:1;fill-rule:nonzero;stroke:none"/><path d="M 10,2 6,2 6,6 10,6 10,2 Z" id="path116" style="fill:#aab8c2;fill-opacity:1;fill-rule:nonzero;stroke:none"/><path d="m 20,2 -4,0 0,4 4,0 0,-4 z" id="path118" style="fill:#aab8c2;fill-opacity:1;fill-rule:nonzero;stroke:none"/><path d="m 30,2 -4,0 0,4 4,0 0,-4 z" id="path120" style="fill:#aab8c2;fill-opacity:1;fill-rule:nonzero;stroke:none"/><g id="g122" transform="translate(9,36)"><path d="m 0,0 c -1.104,0 -2,-0.896 -2,-2 0,-0.457 0.159,-0.873 0.417,-1.209 C -1.83,-3.392 -2,-3.67 -2,-4 c 0,-0.552 0.448,-1 1,-1 0.552,0 1,0.448 1,1 1.105,0 2,0.896 2,2 0,1.104 -0.895,2 -2,2" id="path124" style="fill:#d1d3d4;fill-opacity:1;fill-rule:nonzero;stroke:none"/></g><g id="g126" transform="translate(19,36)"><path d="m 0,0 c -1.104,0 -2,-0.896 -2,-2 0,-0.457 0.159,-0.873 0.417,-1.209 C -1.83,-3.392 -2,-3.67 -2,-4 c 0,-0.552 0.448,-1 1,-1 0.552,0 1,0.448 1,1 1.105,0 2,0.896 2,2 0,1.104 -0.895,2 -2,2" id="path128" style="fill:#d1d3d4;fill-opacity:1;fill-rule:nonzero;stroke:none"/></g><g id="g130" transform="translate(29,36)"><path d="m 0,0 c -1.104,0 -2,-0.896 -2,-2 0,-0.457 0.159,-0.873 0.417,-1.209 C -1.83,-3.392 -2,-3.67 -2,-4 c 0,-0.552 0.447,-1 1,-1 0.553,0 1,0.448 1,1 1.105,0 2,0.896 2,2 0,1.104 -0.895,2 -2,2" id="path132" style="fill:#d1d3d4;fill-opacity:1;fill-rule:nonzero;stroke:none"/></g></g></g></g></svg>