<?xml version="1.0" encoding="UTF-8" standalone="no"?><svg xmlns="http://www.w3.org/2000/svg" xmlns:cc="http://creativecommons.org/ns#" xmlns:dc="http://purl.org/dc/elements/1.1/" xmlns:rdf="http://www.w3.org/1999/02/22-rdf-syntax-ns#" xmlns:svg="http://www.w3.org/2000/svg" height="45" id="svg2" style="enable-background:new 0 0 45 45;" version="1.1" viewBox="0 0 45 45" width="45" xml:space="preserve"><metadata id="metadata8"><rdf:RDF><cc:Work rdf:about=""><dc:format>image/svg+xml</dc:format><dc:type rdf:resource="http://purl.org/dc/dcmitype/StillImage"/></cc:Work></rdf:RDF></metadata><defs id="defs6"><clipPath clipPathUnits="userSpaceOnUse" id="clipPath16"><path d="M 0,36 36,36 36,0 0,0 0,36 Z" id="path18"/></clipPath></defs><g id="g10" transform="matrix(1.25,0,0,-1.25,0,45)"><g id="g12"><g clip-path="url(#clipPath16)" id="g14"><g id="g20" transform="translate(32,14)"><path d="m 0,0 c 0,0 -2,8 -5,8 l -11,0 c -3,0 -7,-7 -7,-7 0,0 -8,-1 -8,-5 l 0,-2 c 0,-0.09 0.021,-0.175 0.026,-0.263 C -31.583,-6.605 -32,-7.251 -32,-8 c 0,-1.104 0.896,-2 2,-2 l 3,0 2,0 25,0 c 2.209,0 4,1.791 4,4 l 0,2 C 4,-1.791 2.209,0 0,0" id="path22" style="fill:#e1e8ed;fill-opacity:1;fill-rule:nonzero;stroke:none"/></g><g id="g24" transform="translate(1,10)"><path d="M 0,0 0,-2 C 0,-2.09 0.021,-2.175 0.026,-2.263 -0.583,-2.605 -1,-3.251 -1,-4 c 0,-1.104 0.896,-2 2,-2 l 3,0 2,0 25,0 c 2.209,0 4,1.791 4,4 l 0,2 c 0,0.348 -0.059,0.679 -0.142,1 L 0.201,1 C 0.083,0.687 0,0.359 0,0" id="path26" style="fill:#292f33;fill-opacity:1;fill-rule:nonzero;stroke:none"/></g><g id="g28" transform="translate(15.9102,4)"><path d="m 0,0 c 0.055,0.326 0.09,0.658 0.09,1 0,3.314 -2.687,6 -6,6 -3.314,0 -6,-2.686 -6,-6 0,-0.342 0.035,-0.674 0.09,-1 L 0,0 Z" id="path30" style="fill:#66757f;fill-opacity:1;fill-rule:nonzero;stroke:none"/></g><g id="g32" transform="translate(32.9102,4)"><path d="m 0,0 c 0.055,0.326 0.09,0.658 0.09,1 0,3.314 -2.687,6 -6,6 -3.314,0 -6,-2.686 -6,-6 0,-0.342 0.035,-0.674 0.09,-1 L 0,0 Z" id="path34" style="fill:#66757f;fill-opacity:1;fill-rule:nonzero;stroke:none"/></g><g id="g36" transform="translate(14,5)"><path d="m 0,0 c 0,-2.209 -1.791,-4 -4,-4 -2.209,0 -4,1.791 -4,4 0,2.209 1.791,4 4,4 2.209,0 4,-1.791 4,-4" id="path38" style="fill:#292f33;fill-opacity:1;fill-rule:nonzero;stroke:none"/></g><g id="g40" transform="translate(12,5)"><path d="m 0,0 c 0,-1.105 -0.895,-2 -2,-2 -1.104,0 -2,0.895 -2,2 0,1.105 0.896,2 2,2 1.105,0 2,-0.895 2,-2" id="path42" style="fill:#e1e8ed;fill-opacity:1;fill-rule:nonzero;stroke:none"/></g><g id="g44" transform="translate(31,5)"><path d="m 0,0 c 0,-2.209 -1.791,-4 -4,-4 -2.209,0 -4,1.791 -4,4 0,2.209 1.791,4 4,4 2.209,0 4,-1.791 4,-4" id="path46" style="fill:#292f33;fill-opacity:1;fill-rule:nonzero;stroke:none"/></g><g id="g48" transform="translate(29,5)"><path d="m 0,0 c 0,-1.105 -0.895,-2 -2,-2 -1.104,0 -2,0.895 -2,2 0,1.105 0.896,2 2,2 1.105,0 2,-0.895 2,-2" id="path50" style="fill:#e1e8ed;fill-opacity:1;fill-rule:nonzero;stroke:none"/></g><g id="g52" transform="translate(21,23)"><path d="m 0,0 c 0,-0.552 -0.447,-1 -1,-1 l -3,0 c -0.552,0 -1,0.448 -1,1 0,0.552 0.448,1 1,1 l 3,0 C -0.447,1 0,0.552 0,0" id="path54" style="fill:#dd2e44;fill-opacity:1;fill-rule:nonzero;stroke:none"/></g><g id="g56" transform="translate(22,23)"><path d="m 0,0 c 0,-0.552 -0.447,-1 -1,-1 l -2,0 c -0.552,0 -1,0.448 -1,1 0,0.552 0.448,1 1,1 l 2,0 C -0.447,1 0,0.552 0,0" id="path58" style="fill:#55acee;fill-opacity:1;fill-rule:nonzero;stroke:none"/></g><g id="g60" transform="translate(23,15)"><path d="M 0,0 7,0 C 7,0 5,5 4,5 L 0,5 0,0 Z" id="path62" style="fill:#55acee;fill-opacity:1;fill-rule:nonzero;stroke:none"/></g><g id="g64" transform="translate(21,20)"><path d="m 0,0 -5,0 c -2,0 -5,-5 -5,-5 l 10,0 0,5 z" id="path66" style="fill:#55acee;fill-opacity:1;fill-rule:nonzero;stroke:none"/></g></g></g></g></svg>