<?xml version="1.0" encoding="UTF-8" standalone="no"?><svg xmlns="http://www.w3.org/2000/svg" xmlns:cc="http://creativecommons.org/ns#" xmlns:dc="http://purl.org/dc/elements/1.1/" xmlns:rdf="http://www.w3.org/1999/02/22-rdf-syntax-ns#" xmlns:svg="http://www.w3.org/2000/svg" height="45" id="svg2" style="enable-background:new 0 0 45 45;" version="1.1" viewBox="0 0 45 45" width="45" xml:space="preserve"><metadata id="metadata8"><rdf:RDF><cc:Work rdf:about=""><dc:format>image/svg+xml</dc:format><dc:type rdf:resource="http://purl.org/dc/dcmitype/StillImage"/></cc:Work></rdf:RDF></metadata><defs id="defs6"><clipPath clipPathUnits="userSpaceOnUse" id="clipPath16"><path d="M 0,36 36,36 36,0 0,0 0,36 Z" id="path18"/></clipPath></defs><g id="g10" transform="matrix(1.25,0,0,-1.25,0,45)"><g id="g12"><g clip-path="url(#clipPath16)" id="g14"><g id="g20" transform="translate(36,9)"><path d="m 0,0 c 0,-2.209 -1.791,-4 -4,-4 l -28,0 c -2.209,0 -4,1.791 -4,4 l 0,18 c 0,2.209 1.791,4 4,4 l 28,0 c 2.209,0 4,-1.791 4,-4 L 0,0 Z" id="path22" style="fill:#292f33;fill-opacity:1;fill-rule:nonzero;stroke:none"/></g><g id="g24" transform="translate(11,12)"><path d="m 0,0 c 0,-2.209 -0.791,-3 -3,-3 l -4,0 c -2.209,0 -3,0.791 -3,3 l 0,12 c 0,2.209 0.791,3 3,3 l 4,0 c 2.209,0 3,-0.791 3,-3 L 0,0 Z" id="path26" style="fill:#ccd6dd;fill-opacity:1;fill-rule:nonzero;stroke:none"/></g><g id="g28" transform="translate(23,12)"><path d="m 0,0 c 0,-2.209 -0.791,-3 -3,-3 l -4,0 c -2.209,0 -3,0.791 -3,3 l 0,12 c 0,2.209 0.791,3 3,3 l 4,0 c 2.209,0 3,-0.791 3,-3 L 0,0 Z" id="path30" style="fill:#ccd6dd;fill-opacity:1;fill-rule:nonzero;stroke:none"/></g><g id="g32" transform="translate(35,12)"><path d="m 0,0 c 0,-2.209 -0.791,-3 -3,-3 l -4,0 c -2.209,0 -3,0.791 -3,3 l 0,12 c 0,2.209 0.791,3 3,3 l 4,0 c 2.209,0 3,-0.791 3,-3 L 0,0 Z" id="path34" style="fill:#ccd6dd;fill-opacity:1;fill-rule:nonzero;stroke:none"/></g><path d="M 11,13 1,13 1,23 11,23 11,13 Z" id="path36" style="fill:#e1e8ed;fill-opacity:1;fill-rule:nonzero;stroke:none"/><path d="m 23,13 -10,0 0,10 10,0 0,-10 z" id="path38" style="fill:#e1e8ed;fill-opacity:1;fill-rule:nonzero;stroke:none"/><path d="m 35,13 -10,0 0,10 10,0 0,-10 z" id="path40" style="fill:#e1e8ed;fill-opacity:1;fill-rule:nonzero;stroke:none"/><g id="g42" transform="translate(30.7949,20.3149)"><path d="M 0,0 -2.816,0 C -3.41,0 -3.63,0.385 -3.63,0.759 c 0,0.385 0.209,0.759 0.814,0.759 l 3.983,0 C 1.729,1.518 1.959,1.012 1.959,0.726 1.959,0.506 1.838,0.275 1.706,0 l -2.728,-5.545 c -0.308,-0.616 -0.429,-0.836 -0.925,-0.836 -0.605,0 -0.912,0.463 -0.912,0.781 0,0.133 0.033,0.231 0.109,0.385 L 0,0 Z" id="path44" style="fill:#be1931;fill-opacity:1;fill-rule:nonzero;stroke:none"/></g><g id="g46" transform="translate(18.7954,20.3149)"><path d="M 0,0 -2.816,0 C -3.41,0 -3.63,0.385 -3.63,0.759 c 0,0.385 0.209,0.759 0.814,0.759 l 3.983,0 C 1.728,1.518 1.959,1.012 1.959,0.726 1.959,0.506 1.837,0.275 1.706,0 l -2.729,-5.545 c -0.308,-0.616 -0.429,-0.836 -0.924,-0.836 -0.605,0 -0.913,0.463 -0.913,0.781 0,0.133 0.033,0.231 0.11,0.385 L 0,0 Z" id="path48" style="fill:#be1931;fill-opacity:1;fill-rule:nonzero;stroke:none"/></g><g id="g50" transform="translate(6.7954,20.3149)"><path d="M 0,0 -2.816,0 C -3.41,0 -3.63,0.385 -3.63,0.759 c 0,0.385 0.209,0.759 0.814,0.759 l 3.983,0 C 1.728,1.518 1.958,1.012 1.958,0.726 1.958,0.506 1.837,0.275 1.706,0 l -2.729,-5.545 c -0.308,-0.616 -0.429,-0.836 -0.924,-0.836 -0.605,0 -0.913,0.463 -0.913,0.781 0,0.133 0.033,0.231 0.11,0.385 L 0,0 Z" id="path52" style="fill:#be1931;fill-opacity:1;fill-rule:nonzero;stroke:none"/></g><g id="g54" transform="translate(3.0605,27)"><path d="m 0,0 c -0.04,-0.162 -0.061,-0.329 -0.061,-0.5 0,-1.381 1.344,-2.5 3,-2.5 1.657,0 3,1.119 3,2.5 0,0.171 -0.021,0.338 -0.06,0.5 L 0,0 Z" id="path56" style="fill:#9266cc;fill-opacity:1;fill-rule:nonzero;stroke:none"/></g><g id="g58" transform="translate(15.0605,27)"><path d="m 0,0 c -0.04,-0.162 -0.061,-0.329 -0.061,-0.5 0,-1.381 1.344,-2.5 3,-2.5 1.657,0 3,1.119 3,2.5 0,0.171 -0.021,0.338 -0.06,0.5 L 0,0 Z" id="path60" style="fill:#9266cc;fill-opacity:1;fill-rule:nonzero;stroke:none"/></g><g id="g62" transform="translate(27.0605,27)"><path d="m 0,0 c -0.039,-0.162 -0.061,-0.329 -0.061,-0.5 0,-1.381 1.344,-2.5 3,-2.5 1.657,0 3,1.119 3,2.5 0,0.171 -0.021,0.338 -0.06,0.5 L 0,0 Z" id="path64" style="fill:#9266cc;fill-opacity:1;fill-rule:nonzero;stroke:none"/></g><g id="g66" transform="translate(8.8164,9)"><path d="m 0,0 c 0.111,0.157 0.184,0.324 0.184,0.5 0,0.828 -1.344,1.5 -3,1.5 -1.657,0 -3,-0.672 -3,-1.5 0,-0.176 0.072,-0.343 0.183,-0.5 L 0,0 Z" id="path68" style="fill:#f4900c;fill-opacity:1;fill-rule:nonzero;stroke:none"/></g><g id="g70" transform="translate(20.8164,9)"><path d="m 0,0 c 0.111,0.157 0.184,0.324 0.184,0.5 0,0.828 -1.344,1.5 -3,1.5 -1.657,0 -3,-0.672 -3,-1.5 0,-0.176 0.072,-0.343 0.183,-0.5 L 0,0 Z" id="path72" style="fill:#f4900c;fill-opacity:1;fill-rule:nonzero;stroke:none"/></g><g id="g74" transform="translate(32.8164,9)"><path d="m 0,0 c 0.111,0.157 0.184,0.324 0.184,0.5 0,0.828 -1.344,1.5 -3,1.5 -1.657,0 -3,-0.672 -3,-1.5 0,-0.176 0.072,-0.343 0.183,-0.5 L 0,0 Z" id="path76" style="fill:#f4900c;fill-opacity:1;fill-rule:nonzero;stroke:none"/></g></g></g></g></svg>