<?xml version="1.0" encoding="UTF-8" standalone="no"?><svg xmlns="http://www.w3.org/2000/svg" xmlns:cc="http://creativecommons.org/ns#" xmlns:dc="http://purl.org/dc/elements/1.1/" xmlns:rdf="http://www.w3.org/1999/02/22-rdf-syntax-ns#" xmlns:svg="http://www.w3.org/2000/svg" height="45" id="svg2" style="enable-background:new 0 0 45 45;" version="1.1" viewBox="0 0 45 45" width="45" xml:space="preserve"><metadata id="metadata8"><rdf:RDF><cc:Work rdf:about=""><dc:format>image/svg+xml</dc:format><dc:type rdf:resource="http://purl.org/dc/dcmitype/StillImage"/></cc:Work></rdf:RDF></metadata><defs id="defs6"><clipPath clipPathUnits="userSpaceOnUse" id="clipPath16"><path d="M 0,36 36,36 36,0 0,0 0,36 Z" id="path18"/></clipPath></defs><g id="g10" transform="matrix(1.25,0,0,-1.25,0,45)"><g id="g12"><g clip-path="url(#clipPath16)" id="g14"><g id="g20" transform="translate(18,4)"><path d="m 0,0 c -4.419,0 -8,3.582 -8,8 0,4.418 3.581,8 8,8 C 4.418,16 8,12.418 8,8 8,3.582 4.418,0 0,0 M 0,20 C -6.627,20 -12,14.627 -12,8 -12,1.373 -6.627,-4 0,-4 6.627,-4 12,1.373 12,8 12,14.627 6.627,20 0,20" id="path22" style="fill:#9aaab4;fill-opacity:1;fill-rule:nonzero;stroke:none"/></g><g id="g24" transform="translate(29,31)"><path d="m 0,0 -4,5 -7,0 -7,0 -4,-5 11,-9 11,9 z" id="path26" style="fill:#5dadec;fill-opacity:1;fill-rule:nonzero;stroke:none"/></g><g id="g28" transform="translate(29,31)"><path d="m 0,0 -4,5 -7,0 -7,0 -4,-5 11,0 11,0 z" id="path30" style="fill:#8ccaf7;fill-opacity:1;fill-rule:nonzero;stroke:none"/></g><g id="g32" transform="translate(29,31)"><path d="m 0,0 -4,5 -6,0 -1,0 0,-5 1,0 10,0 z" id="path34" style="fill:#5dadec;fill-opacity:1;fill-rule:nonzero;stroke:none"/></g><g id="g36" transform="translate(18,31)"><path d="M 0,0 11,0 0,-9 0,0 Z" id="path38" style="fill:#8ccaf7;fill-opacity:1;fill-rule:nonzero;stroke:none"/></g><g id="g40" transform="translate(25,23)"><path d="m 0,0 c 0,-1.657 -1.343,-3 -3,-3 l -8,0 c -1.657,0 -3,1.343 -3,3 0,1.657 1.343,3 3,3 l 8,0 C -1.343,3 0,1.657 0,0" id="path42" style="fill:#9aaab4;fill-opacity:1;fill-rule:nonzero;stroke:none"/></g></g></g></g></svg>