<?xml version="1.0" encoding="UTF-8" standalone="no"?><svg xmlns="http://www.w3.org/2000/svg" xmlns:cc="http://creativecommons.org/ns#" xmlns:dc="http://purl.org/dc/elements/1.1/" xmlns:rdf="http://www.w3.org/1999/02/22-rdf-syntax-ns#" xmlns:svg="http://www.w3.org/2000/svg" height="45" id="svg2" style="enable-background:new 0 0 45 45;" version="1.1" viewBox="0 0 45 45" width="45" xml:space="preserve"><metadata id="metadata8"><rdf:RDF><cc:Work rdf:about=""><dc:format>image/svg+xml</dc:format><dc:type rdf:resource="http://purl.org/dc/dcmitype/StillImage"/></cc:Work></rdf:RDF></metadata><defs id="defs6"><clipPath clipPathUnits="userSpaceOnUse" id="clipPath16"><path d="M 0,36 36,36 36,0 0,0 0,36 Z" id="path18"/></clipPath></defs><g id="g10" transform="matrix(1.25,0,0,-1.25,0,45)"><g id="g12"><g clip-path="url(#clipPath16)" id="g14"><g id="g20" transform="translate(30.3115,35.2236)"><path d="m 0,0 c 1.688,-18.224 -10.312,-31.224 -29.535,-29.536 8.199,-7.717 21.091,-7.588 29.107,0.429 C 7.589,-21.091 7.719,-8.198 0,0" id="path22" style="fill:#ccd6dd;fill-opacity:1;fill-rule:nonzero;stroke:none"/></g><g id="g24" transform="translate(30.7051,20.085)"><path d="m 0,0 c -0.453,-0.454 -0.453,-1.189 0,-1.644 0.454,-0.453 1.189,-0.453 1.644,0 0.454,0.455 0.455,1.19 0,1.644 C 1.189,0.454 0.454,0.454 0,0" id="path26" style="fill:#b8c5cd;fill-opacity:1;fill-rule:nonzero;stroke:none"/></g><g id="g28" transform="translate(14.6831,5.7051)"><path d="m 0,0 c -0.682,-0.681 -0.682,-1.783 0,-2.465 0.68,-0.681 1.784,-0.681 2.464,0 0.681,0.682 0.681,1.784 0,2.465 C 1.784,0.682 0.68,0.682 0,0" id="path30" style="fill:#b8c5cd;fill-opacity:1;fill-rule:nonzero;stroke:none"/></g><g id="g32" transform="translate(28.6514,7.8516)"><path d="m 0,0 c -1.135,-1.135 -2.974,-1.135 -4.108,0 -1.135,1.135 -1.135,2.975 0,4.107 1.134,1.136 2.973,1.136 4.108,0 C 1.135,2.975 1.135,1.135 0,0" id="path34" style="fill:#b8c5cd;fill-opacity:1;fill-rule:nonzero;stroke:none"/></g></g></g></g></svg>