<?xml version="1.0" encoding="UTF-8" standalone="no"?><svg xmlns="http://www.w3.org/2000/svg" xmlns:cc="http://creativecommons.org/ns#" xmlns:dc="http://purl.org/dc/elements/1.1/" xmlns:rdf="http://www.w3.org/1999/02/22-rdf-syntax-ns#" xmlns:svg="http://www.w3.org/2000/svg" height="45" id="svg2" style="enable-background:new 0 0 45 45;" version="1.1" viewBox="0 0 45 45" width="45" xml:space="preserve"><metadata id="metadata8"><rdf:RDF><cc:Work rdf:about=""><dc:format>image/svg+xml</dc:format><dc:type rdf:resource="http://purl.org/dc/dcmitype/StillImage"/></cc:Work></rdf:RDF></metadata><defs id="defs6"><clipPath clipPathUnits="userSpaceOnUse" id="clipPath16"><path d="M 0,36 36,36 36,0 0,0 0,36 Z" id="path18"/></clipPath><clipPath clipPathUnits="userSpaceOnUse" id="clipPath32"><path d="M 4,24 C 3,24 2,22 2,19 l 0,0 c 0,-3 1,-5 2,-5 l 0,0 6,0 c 1,0 1,1 1,1 l 0,0 0,8 c 0,1 -1,1 -1,1 l 0,0 -6,0 z" id="path34"/></clipPath><clipPath clipPathUnits="userSpaceOnUse" id="clipPath48"><path d="M 0,36 36,36 36,0 0,0 0,36 Z" id="path50"/></clipPath><clipPath clipPathUnits="userSpaceOnUse" id="clipPath60"><path d="m 26,24 c 0,0 -1,0 -1,-1 l 0,0 0,-8 c 0,0 0,-1 1,-1 l 0,0 6,0 c 1,0 2,2 2,5 l 0,0 c 0,3 -1,5 -2,5 l 0,0 -6,0 z" id="path62"/></clipPath><clipPath clipPathUnits="userSpaceOnUse" id="clipPath76"><path d="M 0,36 36,36 36,0 0,0 0,36 Z" id="path78"/></clipPath></defs><g id="g10" transform="matrix(1.25,0,0,-1.25,0,45)"><g id="g12"><g clip-path="url(#clipPath16)" id="g14"><g id="g20" transform="translate(36,11)"><path d="m 0,0 c 0,0 0,-4 -4,-4 l -28,0 c 0,0 -4,0 -4,4 l 0,15 c 0,4 4,4 4,4 l 28,0 c 0,0 4,0 4,-4 L 0,0 Z" id="path22" style="fill:#292f33;fill-opacity:1;fill-rule:nonzero;stroke:none"/></g><g id="g24" transform="translate(4,24)"><path d="m 0,0 6,0 c 0,0 1,0 1,-1 l 0,-8 c 0,0 0,-1 -1,-1 l -6,0 c -1,0 -2,2 -2,5 0,3 1,5 2,5" id="path26" style="fill:#ccd6dd;fill-opacity:1;fill-rule:nonzero;stroke:none"/></g></g></g><g id="g28"><g clip-path="url(#clipPath32)" id="g30"><g id="g36" transform="translate(18,19)"><path d="m 0,0 c 0,-3.865 -3.134,-7 -7,-7 -3.866,0 -7,3.135 -7,7 0,3.866 3.134,7 7,7 3.866,0 7,-3.134 7,-7" id="path38" style="fill:#000000;fill-opacity:1;fill-rule:nonzero;stroke:none"/></g><g id="g40" transform="translate(14,19)"><path d="m 0,0 c 0,-1.657 -1.343,-3 -3,-3 -1.657,0 -3,1.343 -3,3 0,1.657 1.343,3 3,3 1.657,0 3,-1.343 3,-3" id="path42" style="fill:#66757f;fill-opacity:1;fill-rule:nonzero;stroke:none"/></g></g></g><g id="g44"><g clip-path="url(#clipPath48)" id="g46"><g id="g52" transform="translate(32,24)"><path d="m 0,0 -6,0 c 0,0 -1,0 -1,-1 l 0,-8 c 0,0 0,-1 1,-1 l 6,0 c 1,0 2,2 2,5 0,3 -1,5 -2,5" id="path54" style="fill:#ccd6dd;fill-opacity:1;fill-rule:nonzero;stroke:none"/></g></g></g><g id="g56"><g clip-path="url(#clipPath60)" id="g58"><g id="g64" transform="translate(32,19)"><path d="m 0,0 c 0,-3.867 -3.133,-7 -7,-7 -3.867,0 -7,3.133 -7,7 0,3.865 3.133,7 7,7 3.867,0 7,-3.135 7,-7" id="path66" style="fill:#000000;fill-opacity:1;fill-rule:nonzero;stroke:none"/></g><g id="g68" transform="translate(28,19)"><path d="m 0,0 c 0,-1.657 -1.344,-3 -3,-3 -1.656,0 -3,1.343 -3,3 0,1.657 1.344,3 3,3 1.656,0 3,-1.343 3,-3" id="path70" style="fill:#66757f;fill-opacity:1;fill-rule:nonzero;stroke:none"/></g></g></g><g id="g72"><g clip-path="url(#clipPath76)" id="g74"><g id="g80" transform="translate(13,22)"><path d="m 0,0 c 0,0 0,1 1,1 l 8,0 c 0,0 1,0 1,-1 l 0,-6 c 0,0 0,-1 -1,-1 l -8,0 c 0,0 -1,0 -1,1 l 0,6 z" id="path82" style="fill:#88c9f9;fill-opacity:1;fill-rule:nonzero;stroke:none"/></g><g id="g84" transform="translate(34,10)"><path d="m 0,0 c 0,-0.553 -0.447,-1 -1,-1 l -30,0 c -0.552,0 -1,0.447 -1,1 0,0.553 0.448,1 1,1 L -1,1 C -0.447,1 0,0.553 0,0" id="path86" style="fill:#000000;fill-opacity:1;fill-rule:nonzero;stroke:none"/></g></g></g></g></svg>