<?xml version="1.0" encoding="UTF-8" standalone="no"?><svg xmlns="http://www.w3.org/2000/svg" xmlns:cc="http://creativecommons.org/ns#" xmlns:dc="http://purl.org/dc/elements/1.1/" xmlns:rdf="http://www.w3.org/1999/02/22-rdf-syntax-ns#" xmlns:svg="http://www.w3.org/2000/svg" height="45" id="svg2" style="enable-background:new 0 0 45 45;" version="1.1" viewBox="0 0 45 45" width="45" xml:space="preserve"><metadata id="metadata8"><rdf:RDF><cc:Work rdf:about=""><dc:format>image/svg+xml</dc:format><dc:type rdf:resource="http://purl.org/dc/dcmitype/StillImage"/></cc:Work></rdf:RDF></metadata><defs id="defs6"><clipPath clipPathUnits="userSpaceOnUse" id="clipPath16"><path d="M 0,36 36,36 36,0 0,0 0,36 Z" id="path18"/></clipPath></defs><g id="g10" transform="matrix(1.25,0,0,-1.25,0,45)"><g id="g12"><g clip-path="url(#clipPath16)" id="g14"><g id="g20" transform="translate(14.9756,25.9287)"><path d="m 0,0 c 0.781,-0.781 0.781,-2.047 0,-2.828 l -2.828,-2.828 c -0.781,-0.781 -2.048,-0.782 -2.829,-0.001 l -8.485,8.486 c -0.781,0.78 -0.781,2.047 0,2.828 l 2.829,2.828 c 0.781,0.782 2.046,0.781 2.828,0 L 0,0 Z" id="path22" style="fill:#292f33;fill-opacity:1;fill-rule:nonzero;stroke:none"/></g><g id="g24" transform="translate(21.5117,3.8857)"><path d="m 0,0 c 7.07,-4.243 13.488,-2.886 13.488,-2.886 0,0 1,0 0.654,1 0,0 -2.154,5.5 -17.654,21 -1,1 -2.243,0.882 -3.024,0.101 l -6.39,-6.101 c -0.781,-0.781 -0.781,-2.047 0,-2.828 L 0,0 Z" id="path26" style="fill:#ccd6dd;fill-opacity:1;fill-rule:nonzero;stroke:none"/></g></g></g></g></svg>