<?xml version="1.0" encoding="UTF-8" standalone="no"?><svg xmlns="http://www.w3.org/2000/svg" xmlns:cc="http://creativecommons.org/ns#" xmlns:dc="http://purl.org/dc/elements/1.1/" xmlns:rdf="http://www.w3.org/1999/02/22-rdf-syntax-ns#" xmlns:svg="http://www.w3.org/2000/svg" height="45" id="svg2" style="enable-background:new 0 0 45 45;" version="1.1" viewBox="0 0 45 45" width="45" xml:space="preserve"><metadata id="metadata8"><rdf:RDF><cc:Work rdf:about=""><dc:format>image/svg+xml</dc:format><dc:type rdf:resource="http://purl.org/dc/dcmitype/StillImage"/></cc:Work></rdf:RDF></metadata><defs id="defs6"><clipPath clipPathUnits="userSpaceOnUse" id="clipPath16"><path d="M 0,36 36,36 36,0 0,0 0,36 Z" id="path18"/></clipPath></defs><g id="g10" transform="matrix(1.25,0,0,-1.25,0,45)"><g id="g12"><g clip-path="url(#clipPath16)" id="g14"><g id="g20" transform="translate(27,15)"><path d="m 0,0 -18,0 c -2.209,0 -4,-1.791 -4,-4 l 0,-11 5,0 16,0 5,0 0,11 C 4,-1.791 2.209,0 0,0" id="path22" style="fill:#4289c1;fill-opacity:1;fill-rule:nonzero;stroke:none"/></g><path d="m 10,9 1,0 0,-9 -1,0 0,9 z" id="path24" style="fill:#2a6797;fill-opacity:1;fill-rule:nonzero;stroke:none"/><g id="g26" transform="translate(4.7021,9.5049)"><path d="m 0,0 -0.283,0.059 -0.511,0 c 0,0.057 0.023,0.112 0.035,0.169 -0.347,0.214 -0.546,0.625 -0.458,1.047 0.113,0.542 0.643,0.89 1.186,0.78 l 2.091,-0.433 1.675,0 c 0.864,0 1.563,-0.7 1.563,-1.563 l 0,-0.783 0,-0.781 -3.747,0 C 1.551,-1.505 0.07,-0.836 0,0" id="path28" style="fill:#fcab40;fill-opacity:1;fill-rule:nonzero;stroke:none"/></g><g id="g30" transform="translate(0,10.3447)"><path d="M 0,0 C 0,0.432 0.35,0.782 0.781,0.782 L 5.472,0 9.219,0 C 9.65,0 10,-0.351 10,-0.781 l 0,-1.564 -1.401,0 -3.599,0 -4.219,1.564 C 0.781,-0.781 0,-0.432 0,0" id="path32" style="fill:#ffdc5d;fill-opacity:1;fill-rule:nonzero;stroke:none"/></g><g id="g34" transform="translate(4,0)"><path d="M 0,0 6,0 6,8 1,8 0,0 Z" id="path36" style="fill:#4289c1;fill-opacity:1;fill-rule:nonzero;stroke:none"/></g><path d="m 26,9 -1,0 0,-9 1,0 0,9 z" id="path38" style="fill:#2a6797;fill-opacity:1;fill-rule:nonzero;stroke:none"/><g id="g40" transform="translate(31.2979,9.5049)"><path d="m 0,0 0.283,0.059 0.511,0 c 0,0.057 -0.023,0.112 -0.035,0.169 0.347,0.214 0.546,0.625 0.458,1.047 -0.113,0.542 -0.643,0.89 -1.186,0.78 l -2.091,-0.433 -1.675,0 c -0.864,0 -1.563,-0.7 -1.563,-1.563 l 0,-0.783 0,-0.781 3.747,0 c 0,0 1.481,0.669 1.551,1.505" id="path42" style="fill:#fcab40;fill-opacity:1;fill-rule:nonzero;stroke:none"/></g><g id="g44" transform="translate(36,10.3447)"><path d="M 0,0 C 0,0.432 -0.35,0.782 -0.781,0.782 L -5.472,0 -9.219,0 C -9.65,0 -10,-0.351 -10,-0.781 l 0,-1.564 1.401,0 3.599,0 4.219,1.564 C -0.781,-0.781 0,-0.432 0,0" id="path46" style="fill:#ffdc5d;fill-opacity:1;fill-rule:nonzero;stroke:none"/></g><g id="g48" transform="translate(32,0)"><path d="m 0,0 -6,0 0,8 5,0 1,-8 z" id="path50" style="fill:#4289c1;fill-opacity:1;fill-rule:nonzero;stroke:none"/></g><g id="g52" transform="translate(9,29)"><path d="m 0,0 0,-10 c 0,-4.971 4.029,-9 9,-9 4.971,0 9,4.029 9,9 L 18,0 0,0 Z" id="path54" style="fill:#ffdc5d;fill-opacity:1;fill-rule:nonzero;stroke:none"/></g><g id="g56" transform="translate(10.8472,22.2848)"><path d="m 0,0 c 0,-1.58 -0.801,-2.861 -1.788,-2.861 -0.988,0 -1.788,1.281 -1.788,2.861 0,1.58 0.8,2.861 1.788,2.861 C -0.801,2.861 0,1.58 0,0" id="path58" style="fill:#ffdc5d;fill-opacity:1;fill-rule:nonzero;stroke:none"/></g><g id="g60" transform="translate(28.7292,22.2848)"><path d="m 0,0 c 0,-1.58 -0.8,-2.861 -1.788,-2.861 -0.988,0 -1.788,1.281 -1.788,2.861 0,1.58 0.8,2.861 1.788,2.861 C -0.8,2.861 0,1.58 0,0" id="path62" style="fill:#ffdc5d;fill-opacity:1;fill-rule:nonzero;stroke:none"/></g><g id="g64" transform="translate(18,35.1772)"><path d="m 0,0 c -7.019,0 -10.139,-4.684 -10.139,-8.588 0,-3.903 1.343,-4.986 1.56,-3.903 0.78,3.903 3.119,5.102 3.119,5.102 4.68,-3.904 3.9,-0.781 3.9,-0.781 4.68,-4.684 2.34,0 2.34,0 1.56,-1.562 6.239,-1.562 6.239,-1.562 0,0 0.78,-1.198 1.56,-2.759 0.78,-1.561 1.56,0 1.56,3.903 C 10.139,-4.684 6.239,0 0,0" id="path66" style="fill:#ffac33;fill-opacity:1;fill-rule:nonzero;stroke:none"/></g><g id="g68" transform="translate(19,16.5)"><path d="M 0,0 -2,0 C -2.276,0 -2.5,0.224 -2.5,0.5 -2.5,0.776 -2.276,1 -2,1 L 0,1 C 0.276,1 0.5,0.776 0.5,0.5 0.5,0.224 0.276,0 0,0" id="path70" style="fill:#bf6952;fill-opacity:1;fill-rule:nonzero;stroke:none"/></g><g id="g72" transform="translate(20.5,13)"><path d="M 0,0 -0.5,0 C -0.776,0 -1,0.224 -1,0.5 -1,0.776 -0.776,1 -0.5,1 L 0,1 C 0.276,1 0.5,0.776 0.5,0.5 0.5,0.224 0.276,0 0,0" id="path74" style="fill:#bf6952;fill-opacity:1;fill-rule:nonzero;stroke:none"/></g><g id="g76" transform="translate(14,20)"><path d="m 0,0 c -0.552,0 -1,0.448 -1,1 l 0,1 C -1,2.552 -0.552,3 0,3 0.552,3 1,2.552 1,2 L 1,1 C 1,0.448 0.552,0 0,0" id="path78" style="fill:#662113;fill-opacity:1;fill-rule:nonzero;stroke:none"/></g><g id="g80" transform="translate(22,20)"><path d="m 0,0 c -0.553,0 -1,0.448 -1,1 l 0,1 C -1,2.552 -0.553,3 0,3 0.553,3 1,2.552 1,2 L 1,1 C 1,0.448 0.553,0 0,0" id="path82" style="fill:#662113;fill-opacity:1;fill-rule:nonzero;stroke:none"/></g></g></g></g></svg>