<?xml version="1.0" encoding="UTF-8" standalone="no"?><svg xmlns="http://www.w3.org/2000/svg" xmlns:cc="http://creativecommons.org/ns#" xmlns:dc="http://purl.org/dc/elements/1.1/" xmlns:rdf="http://www.w3.org/1999/02/22-rdf-syntax-ns#" xmlns:svg="http://www.w3.org/2000/svg" height="45" id="svg2" style="enable-background:new 0 0 45 45;" version="1.1" viewBox="0 0 45 45" width="45" xml:space="preserve"><metadata id="metadata8"><rdf:RDF><cc:Work rdf:about=""><dc:format>image/svg+xml</dc:format><dc:type rdf:resource="http://purl.org/dc/dcmitype/StillImage"/></cc:Work></rdf:RDF></metadata><defs id="defs6"><clipPath clipPathUnits="userSpaceOnUse" id="clipPath16"><path d="M 0,36 36,36 36,0 0,0 0,36 Z" id="path18"/></clipPath></defs><g id="g10" transform="matrix(1.25,0,0,-1.25,0,45)"><g id="g12"><g clip-path="url(#clipPath16)" id="g14"><g id="g20" transform="translate(5,0)"><path d="m 0,0 c -1.104,0 -2,0.896 -2,2 l 0,31 c 0,1.104 0.896,2 2,2 1.104,0 2,-0.896 2,-2 L 2,2 C 2,0.896 1.104,0 0,0" id="path22" style="fill:#8899a6;fill-opacity:1;fill-rule:nonzero;stroke:none"/></g><g id="g24" transform="translate(5,35)"><path d="m 0,0 c -1.105,0 -2,-0.895 -2,-2 l 0,-31 c 0,-0.276 0.224,-0.5 0.5,-0.5 0.276,0 0.5,0.224 0.5,0.5 l 0,29.586 C -1,-2.633 -0.367,-2 0.414,-2 L 2,-2 C 2,-0.895 1.105,0 0,0" id="path26" style="fill:#aab8c2;fill-opacity:1;fill-rule:nonzero;stroke:none"/></g><g id="g28" transform="translate(5,0)"><path d="m 0,0 c -1.104,0 -2,0.896 -2,2 l 0,31 c 0,1.104 0.896,2 2,2 1.104,0 2,-0.896 2,-2 L 2,2 C 2,0.896 1.104,0 0,0" id="path30" style="fill:#8899a6;fill-opacity:1;fill-rule:nonzero;stroke:none"/></g><g id="g32" transform="translate(5,35)"><path d="m 0,0 c -1.105,0 -2,-0.895 -2,-2 l 0,-31 c 0,-0.276 0.224,-0.5 0.5,-0.5 0.276,0 0.5,0.224 0.5,0.5 l 0,29.586 C -1,-2.633 -0.367,-2 0.414,-2 L 2,-2 C 2,-0.895 1.105,0 0,0" id="path34" style="fill:#aab8c2;fill-opacity:1;fill-rule:nonzero;stroke:none"/></g><g id="g36" transform="translate(32.415,32.9097)"><path d="m 0,0 c -1.752,0.799 -3.615,1.187 -5.698,1.187 -2.518,0 -5.02,-0.57 -7.439,-1.122 -2.418,-0.551 -4.702,-1.071 -6.995,-1.071 -1.79,0 -3.382,0.329 -4.868,1.006 -0.309,0.142 -0.67,0.115 -0.956,-0.068 -0.286,-0.184 -0.459,-0.501 -0.459,-0.842 l 0,-19 c 0,-0.391 0.228,-0.747 0.585,-0.91 1.752,-0.799 3.616,-1.186 5.698,-1.186 2.518,0 5.02,0.57 7.439,1.122 2.418,0.551 4.702,1.071 6.995,1.071 1.79,0 3.383,-0.329 4.868,-1.007 0.31,-0.139 0.67,-0.115 0.956,0.07 0.286,0.183 0.459,0.5 0.459,0.84 l 0,19 C 0.585,-0.518 0.356,-0.162 0,0" id="path38" style="fill:#292f33;fill-opacity:1;fill-rule:nonzero;stroke:none"/></g></g></g></g></svg>