<?xml version="1.0" encoding="UTF-8" standalone="no"?><svg xmlns="http://www.w3.org/2000/svg" xmlns:cc="http://creativecommons.org/ns#" xmlns:dc="http://purl.org/dc/elements/1.1/" xmlns:rdf="http://www.w3.org/1999/02/22-rdf-syntax-ns#" xmlns:svg="http://www.w3.org/2000/svg" height="45" id="svg2" style="enable-background:new 0 0 45 45;" version="1.1" viewBox="0 0 45 45" width="45" xml:space="preserve"><metadata id="metadata8"><rdf:RDF><cc:Work rdf:about=""><dc:format>image/svg+xml</dc:format><dc:type rdf:resource="http://purl.org/dc/dcmitype/StillImage"/></cc:Work></rdf:RDF></metadata><defs id="defs6"><clipPath clipPathUnits="userSpaceOnUse" id="clipPath16"><path d="M 0,36 36,36 36,0 0,0 0,36 Z" id="path18"/></clipPath></defs><g id="g10" transform="matrix(1.25,0,0,-1.25,0,45)"><g id="g12"><g clip-path="url(#clipPath16)" id="g14"><g id="g20" transform="translate(36,4)"><path d="m 0,0 c 0,-2.209 -1.791,-4 -4,-4 l -28,0 c -2.209,0 -4,1.791 -4,4 l 0,28 c 0,2.209 1.791,4 4,4 l 28,0 c 2.209,0 4,-1.791 4,-4 L 0,0 Z" id="path22" style="fill:#3b88c3;fill-opacity:1;fill-rule:nonzero;stroke:none"/></g><g id="g24" transform="translate(15.3042,18.8135)"><path d="m 0,0 -5.022,6.821 c -0.311,0.403 -0.497,0.868 -0.497,1.365 0,1.364 1.023,2.263 2.357,2.263 0.775,0 1.581,-0.527 2.015,-1.147 L 2.698,3.845 6.542,9.302 c 0.435,0.62 1.241,1.147 2.015,1.147 1.334,0 2.358,-0.899 2.358,-2.263 0,-0.497 -0.186,-0.962 -0.496,-1.365 L 5.395,0 11.534,-8.248 c 0.248,-0.341 0.527,-0.93 0.527,-1.581 0,-1.303 -0.992,-2.17 -2.355,-2.17 -0.838,0 -1.457,0.371 -1.923,1.022 l -5.085,7.07 -5.085,-7.07 c -0.465,-0.651 -1.086,-1.022 -1.923,-1.022 -1.364,0 -2.356,0.867 -2.356,2.17 0,0.651 0.279,1.24 0.527,1.581 L 0,0 Z" id="path26" style="fill:#ffffff;fill-opacity:1;fill-rule:nonzero;stroke:none"/></g></g></g></g></svg>