<?xml version="1.0" encoding="UTF-8" standalone="no"?><svg xmlns="http://www.w3.org/2000/svg" xmlns:cc="http://creativecommons.org/ns#" xmlns:dc="http://purl.org/dc/elements/1.1/" xmlns:rdf="http://www.w3.org/1999/02/22-rdf-syntax-ns#" xmlns:svg="http://www.w3.org/2000/svg" height="45" id="svg2" style="enable-background:new 0 0 45 45;" version="1.1" viewBox="0 0 45 45" width="45" xml:space="preserve"><metadata id="metadata8"><rdf:RDF><cc:Work rdf:about=""><dc:format>image/svg+xml</dc:format><dc:type rdf:resource="http://purl.org/dc/dcmitype/StillImage"/></cc:Work></rdf:RDF></metadata><defs id="defs6"><clipPath clipPathUnits="userSpaceOnUse" id="clipPath16"><path d="M 0,36 36,36 36,0 0,0 0,36 Z" id="path18"/></clipPath><clipPath clipPathUnits="userSpaceOnUse" id="clipPath28"><path d="m 3,29 0,-4 c 0,-3.314 2.686,-6 6,-6 l 0,0 c 3.314,0 6,2.686 6,6 l 0,0 0,4 c 0,3.314 -2.686,6 -6,6 l 0,0 C 5.686,35 3,32.314 3,29 m 3,-4 0,4 c 0,1.657 1.344,3 3,3 l 0,0 c 1.656,0 3,-1.343 3,-3 l 0,0 0,-4 c 0,-1.658 -1.344,-3 -3,-3 l 0,0 c -1.656,0 -3,1.342 -3,3" id="path30"/></clipPath><clipPath clipPathUnits="userSpaceOnUse" id="clipPath50"><path d="M 0,36 36,36 36,0 0,0 0,36 Z" id="path52"/></clipPath><clipPath clipPathUnits="userSpaceOnUse" id="clipPath62"><path d="M 3,11 3,7 C 3,3.686 5.686,1 9,1 l 0,0 c 3.314,0 6,2.686 6,6 l 0,0 0,4 c 0,3.314 -2.686,6 -6,6 l 0,0 C 5.686,17 3,14.314 3,11 m 3,-4 0,4 c 0,1.657 1.344,3 3,3 l 0,0 c 1.656,0 3,-1.343 3,-3 l 0,0 0,-4 C 12,5.342 10.656,4 9,4 L 9,4 C 7.344,4 6,5.342 6,7" id="path64"/></clipPath><clipPath clipPathUnits="userSpaceOnUse" id="clipPath84"><path d="M 0,36 36,36 36,0 0,0 0,36 Z" id="path86"/></clipPath><clipPath clipPathUnits="userSpaceOnUse" id="clipPath96"><path d="m 3,29 0,-4 c 0,-3.314 2.686,-6 6,-6 l 0,0 c 3.314,0 6,2.686 6,6 l 0,0 0,4 c 0,3.314 -2.686,6 -6,6 l 0,0 C 5.686,35 3,32.314 3,29 m 3,-4 0,4 c 0,1.657 1.344,3 3,3 l 0,0 c 1.656,0 3,-1.343 3,-3 l 0,0 0,-4 c 0,-1.658 -1.344,-3 -3,-3 l 0,0 c -1.656,0 -3,1.342 -3,3" id="path98"/></clipPath><clipPath clipPathUnits="userSpaceOnUse" id="clipPath118"><path d="M 0,36 36,36 36,0 0,0 0,36 Z" id="path120"/></clipPath><clipPath clipPathUnits="userSpaceOnUse" id="clipPath130"><path d="m 7,6 0,-6 4,0 0,6 C 11,7.105 10.104,8 9,8 L 9,8 C 7.896,8 7,7.105 7,6" id="path132"/></clipPath><clipPath clipPathUnits="userSpaceOnUse" id="clipPath140"><path d="M 0,36 36,36 36,0 0,0 0,36 Z" id="path142"/></clipPath><clipPath clipPathUnits="userSpaceOnUse" id="clipPath152"><path d="m 7,36 0,-6 c 0,-1.105 0.896,-2 2,-2 l 0,0 c 1.104,0 2,0.895 2,2 l 0,0 0,6 -4,0 z" id="path154"/></clipPath><clipPath clipPathUnits="userSpaceOnUse" id="clipPath162"><path d="M 0,36 36,36 36,0 0,0 0,36 Z" id="path164"/></clipPath><clipPath clipPathUnits="userSpaceOnUse" id="clipPath174"><path d="m 21,20 0,-4 c 0,-3.314 2.686,-6 6,-6 l 0,0 c 3.314,0 6,2.686 6,6 l 0,0 0,4 c 0,3.314 -2.686,6 -6,6 l 0,0 c -3.314,0 -6,-2.686 -6,-6 m 3,-4 0,4 c 0,1.657 1.344,3 3,3 l 0,0 c 1.656,0 3,-1.343 3,-3 l 0,0 0,-4 c 0,-1.658 -1.344,-3 -3,-3 l 0,0 c -1.656,0 -3,1.342 -3,3" id="path176"/></clipPath><clipPath clipPathUnits="userSpaceOnUse" id="clipPath196"><path d="M 0,36 36,36 36,0 0,0 0,36 Z" id="path198"/></clipPath><clipPath clipPathUnits="userSpaceOnUse" id="clipPath208"><path d="m 30,36 0,-2 c 0,-1.658 -1.344,-3 -3,-3 l 0,0 c -1.656,0 -3,1.342 -3,3 l 0,0 0,2 -3,0 0,-2 c 0,-3.314 2.686,-6 6,-6 l 0,0 c 3.314,0 6,2.686 6,6 l 0,0 0,2 -3,0 z" id="path210"/></clipPath><clipPath clipPathUnits="userSpaceOnUse" id="clipPath226"><path d="M 0,36 36,36 36,0 0,0 0,36 Z" id="path228"/></clipPath><clipPath clipPathUnits="userSpaceOnUse" id="clipPath238"><path d="m 21,2 0,-2 3,0 0,2 c 0,1.658 1.344,3 3,3 l 0,0 c 1.656,0 3,-1.342 3,-3 l 0,0 0,-2 3,0 0,2 c 0,3.314 -2.686,6 -6,6 l 0,0 C 23.686,8 21,5.314 21,2" id="path240"/></clipPath><clipPath clipPathUnits="userSpaceOnUse" id="clipPath256"><path d="M 0,36 36,36 36,0 0,0 0,36 Z" id="path258"/></clipPath><clipPath clipPathUnits="userSpaceOnUse" id="clipPath268"><path d="M 25,15 25,3 c 0,-1.105 0.896,-2 2,-2 l 0,0 c 1.104,0 2,0.895 2,2 l 0,0 0,12 c 0,1.105 -0.896,2 -2,2 l 0,0 c -1.104,0 -2,-0.895 -2,-2" id="path270"/></clipPath><clipPath clipPathUnits="userSpaceOnUse" id="clipPath278"><path d="M 0,36 36,36 36,0 0,0 0,36 Z" id="path280"/></clipPath><clipPath clipPathUnits="userSpaceOnUse" id="clipPath290"><path d="m 7.125,24 0,-12 c 0,-1.105 0.896,-2 2,-2 l 0,0 c 1.104,0 2,0.895 2,2 l 0,0 0,12 c 0,1.105 -0.896,2 -2,2 l 0,0 c -1.104,0 -2,-0.895 -2,-2" id="path292"/></clipPath><clipPath clipPathUnits="userSpaceOnUse" id="clipPath300"><path d="M 0,36 36,36 36,0 0,0 0,36 Z" id="path302"/></clipPath><clipPath clipPathUnits="userSpaceOnUse" id="clipPath312"><path d="m 25,33 0,-12 c 0,-1.105 0.896,-2 2,-2 l 0,0 c 1.104,0 2,0.895 2,2 l 0,0 0,12 c 0,1.105 -0.896,2 -2,2 l 0,0 c -1.104,0 -2,-0.895 -2,-2" id="path314"/></clipPath></defs><g id="g10" transform="matrix(1.25,0,0,-1.25,0,45)"><g id="g12"><g clip-path="url(#clipPath16)" id="g14"><g id="g20" transform="translate(12,25)"><path d="m 0,0 c 0,-1.657 -1.344,-3 -3,-3 -1.656,0 -3,1.343 -3,3 l 0,4 c 0,1.657 1.344,3 3,3 1.656,0 3,-1.343 3,-3 L 0,0 Z M -3,10 C -6.313,10 -9,7.314 -9,4 l 0,-4 c 0,-3.313 2.687,-6 6,-6 3.314,0 6,2.687 6,6 l 0,4 c 0,3.314 -2.686,6 -6,6" id="path22" style="fill:#c6d5db;fill-opacity:1;fill-rule:nonzero;stroke:none"/></g></g></g><g id="g24"><g clip-path="url(#clipPath28)" id="g26"><path d="M 9,18 1,18 1,35 9,35 9,18 Z" id="path32" style="fill:#e1e8ed;fill-opacity:1;fill-rule:nonzero;stroke:none"/><g id="g34" transform="translate(13,24.5)"><path d="M 0,0 C 0,-1.933 -1.567,-3.5 -3.5,-3.5 -5.433,-3.5 -7,-1.933 -7,0 l 0,5 c 0,1.933 1.567,3.5 3.5,3.5 C -1.567,8.5 0,6.933 0,5 L 0,0 Z" id="path36" style="fill:#e1e8ed;fill-opacity:1;fill-rule:nonzero;stroke:none"/></g><g id="g38" transform="translate(11,24.5)"><path d="m 0,0 c 0,-1.933 -1.344,-3.5 -3,-3.5 -1.656,0 -3,1.567 -3,3.5 l 0,5 c 0,1.933 1.344,3.5 3,3.5 1.656,0 3,-1.567 3,-3.5 L 0,0 Z" id="path40" style="fill:#c6d5db;fill-opacity:1;fill-rule:nonzero;stroke:none"/></g><path d="m 12,29 -3,0 0,5 3,0 0,-5 z" id="path42" style="fill:#c6d5db;fill-opacity:1;fill-rule:nonzero;stroke:none"/><path d="m 12,29 -3,0 0,5 3,0 0,-5 z" id="path44" style="fill:#c6d5db;fill-opacity:1;fill-rule:nonzero;stroke:none"/></g></g><g id="g46"><g clip-path="url(#clipPath50)" id="g48"><g id="g54" transform="translate(12,7)"><path d="m 0,0 c 0,-1.657 -1.344,-3 -3,-3 -1.656,0 -3,1.343 -3,3 l 0,4 c 0,1.656 1.344,3 3,3 1.656,0 3,-1.344 3,-3 L 0,0 Z M -3,10 C -6.313,10 -9,7.314 -9,4 l 0,-4 c 0,-3.313 2.687,-6 6,-6 3.314,0 6,2.687 6,6 l 0,4 c 0,3.314 -2.686,6 -6,6" id="path56" style="fill:#c6d5db;fill-opacity:1;fill-rule:nonzero;stroke:none"/></g></g></g><g id="g58"><g clip-path="url(#clipPath62)" id="g60"><path d="M 9,0 1,0 1,17 9,17 9,0 Z" id="path66" style="fill:#e1e8ed;fill-opacity:1;fill-rule:nonzero;stroke:none"/><g id="g68" transform="translate(13,6.5)"><path d="M 0,0 C 0,-1.933 -1.567,-3.5 -3.5,-3.5 -5.433,-3.5 -7,-1.933 -7,0 l 0,5 c 0,1.934 1.567,3.5 3.5,3.5 C -1.567,8.5 0,6.934 0,5 L 0,0 Z" id="path70" style="fill:#e1e8ed;fill-opacity:1;fill-rule:nonzero;stroke:none"/></g><g id="g72" transform="translate(11,6.5)"><path d="m 0,0 c 0,-1.933 -1.344,-3.5 -3,-3.5 -1.656,0 -3,1.567 -3,3.5 l 0,5 c 0,1.934 1.344,3.5 3,3.5 1.656,0 3,-1.566 3,-3.5 L 0,0 Z" id="path74" style="fill:#c6d5db;fill-opacity:1;fill-rule:nonzero;stroke:none"/></g><path d="m 12,11 -3,0 0,5 3,0 0,-5 z" id="path76" style="fill:#c6d5db;fill-opacity:1;fill-rule:nonzero;stroke:none"/><path d="m 12,11 -3,0 0,5 3,0 0,-5 z" id="path78" style="fill:#c6d5db;fill-opacity:1;fill-rule:nonzero;stroke:none"/></g></g><g id="g80"><g clip-path="url(#clipPath84)" id="g82"><g id="g88" transform="translate(12,25)"><path d="m 0,0 c 0,-1.657 -1.344,-3 -3,-3 -1.656,0 -3,1.343 -3,3 l 0,4 c 0,1.657 1.344,3 3,3 1.656,0 3,-1.343 3,-3 L 0,0 Z M -3,10 C -6.313,10 -9,7.314 -9,4 l 0,-4 c 0,-3.313 2.687,-6 6,-6 3.314,0 6,2.687 6,6 l 0,4 c 0,3.314 -2.686,6 -6,6" id="path90" style="fill:#c6d5db;fill-opacity:1;fill-rule:nonzero;stroke:none"/></g></g></g><g id="g92"><g clip-path="url(#clipPath96)" id="g94"><path d="M 9,18 1,18 1,35 9,35 9,18 Z" id="path100" style="fill:#e1e8ed;fill-opacity:1;fill-rule:nonzero;stroke:none"/><g id="g102" transform="translate(13,24.5)"><path d="M 0,0 C 0,-1.933 -1.567,-3.5 -3.5,-3.5 -5.433,-3.5 -7,-1.933 -7,0 l 0,5 c 0,1.933 1.567,3.5 3.5,3.5 C -1.567,8.5 0,6.933 0,5 L 0,0 Z" id="path104" style="fill:#e1e8ed;fill-opacity:1;fill-rule:nonzero;stroke:none"/></g><g id="g106" transform="translate(11,24.5)"><path d="m 0,0 c 0,-1.933 -1.344,-3.5 -3,-3.5 -1.656,0 -3,1.567 -3,3.5 l 0,5 c 0,1.933 1.344,3.5 3,3.5 1.656,0 3,-1.567 3,-3.5 L 0,0 Z" id="path108" style="fill:#c6d5db;fill-opacity:1;fill-rule:nonzero;stroke:none"/></g><path d="m 12,29 -3,0 0,5 3,0 0,-5 z" id="path110" style="fill:#c6d5db;fill-opacity:1;fill-rule:nonzero;stroke:none"/><path d="m 12,29 -3,0 0,5 3,0 0,-5 z" id="path112" style="fill:#c6d5db;fill-opacity:1;fill-rule:nonzero;stroke:none"/></g></g><g id="g114"><g clip-path="url(#clipPath118)" id="g116"><g id="g122" transform="translate(7,0)"><path d="M 0,0 0,6 C 0,7.104 0.896,8 2,8 3.105,8 4,7.104 4,6 L 4,0 0,0 Z" id="path124" style="fill:#c6d5db;fill-opacity:1;fill-rule:nonzero;stroke:none"/></g></g></g><g id="g126"><g clip-path="url(#clipPath130)" id="g128"><path d="M 5.875,10 9,10 9,-9 l -3.125,0 0,19 z" id="path134" style="fill:#edf1f4;fill-opacity:1;fill-rule:nonzero;stroke:none"/></g></g><g id="g136"><g clip-path="url(#clipPath140)" id="g138"><g id="g144" transform="translate(7,36)"><path d="m 0,0 0,-6 c 0,-1.104 0.896,-2 2,-2 1.105,0 2,0.896 2,2 L 4,0 0,0 Z" id="path146" style="fill:#c6d5db;fill-opacity:1;fill-rule:nonzero;stroke:none"/></g></g></g><g id="g148"><g clip-path="url(#clipPath152)" id="g150"><path d="M 5.875,26 9,26 l 0,19 -3.125,0 0,-19 z" id="path156" style="fill:#edf1f4;fill-opacity:1;fill-rule:nonzero;stroke:none"/></g></g><g id="g158"><g clip-path="url(#clipPath162)" id="g160"><g id="g166" transform="translate(30,16)"><path d="m 0,0 c 0,-1.657 -1.344,-3 -3,-3 -1.656,0 -3,1.343 -3,3 l 0,4 c 0,1.657 1.344,3 3,3 1.656,0 3,-1.343 3,-3 L 0,0 Z M -3,10 C -6.313,10 -9,7.314 -9,4 l 0,-4 c 0,-3.314 2.687,-6 6,-6 3.314,0 6,2.686 6,6 l 0,4 c 0,3.314 -2.686,6 -6,6" id="path168" style="fill:#c6d5db;fill-opacity:1;fill-rule:nonzero;stroke:none"/></g></g></g><g id="g170"><g clip-path="url(#clipPath174)" id="g172"><path d="m 27,9 -8,0 0,17 8,0 0,-17 z" id="path178" style="fill:#e1e8ed;fill-opacity:1;fill-rule:nonzero;stroke:none"/><g id="g180" transform="translate(31,15.5)"><path d="M 0,0 C 0,-1.933 -1.567,-3.5 -3.5,-3.5 -5.433,-3.5 -7,-1.933 -7,0 l 0,5 c 0,1.933 1.567,3.5 3.5,3.5 C -1.567,8.5 0,6.933 0,5 L 0,0 Z" id="path182" style="fill:#e1e8ed;fill-opacity:1;fill-rule:nonzero;stroke:none"/></g><g id="g184" transform="translate(29,15.5)"><path d="m 0,0 c 0,-1.933 -1.344,-3.5 -3,-3.5 -1.656,0 -3,1.567 -3,3.5 l 0,5 c 0,1.933 1.344,3.5 3,3.5 1.656,0 3,-1.567 3,-3.5 L 0,0 Z" id="path186" style="fill:#c6d5db;fill-opacity:1;fill-rule:nonzero;stroke:none"/></g><path d="m 30,20 -3,0 0,5 3,0 0,-5 z" id="path188" style="fill:#c6d5db;fill-opacity:1;fill-rule:nonzero;stroke:none"/><path d="m 30,20 -3,0 0,5 3,0 0,-5 z" id="path190" style="fill:#c6d5db;fill-opacity:1;fill-rule:nonzero;stroke:none"/></g></g><g id="g192"><g clip-path="url(#clipPath196)" id="g194"><g id="g200" transform="translate(30,36)"><path d="m 0,0 0,-2 c 0,-1.657 -1.344,-3 -3,-3 -1.656,0 -3,1.343 -3,3 l 0,2 -3,0 0,-2 c 0,-3.313 2.687,-6 6,-6 3.314,0 6,2.687 6,6 L 3,0 0,0 Z" id="path202" style="fill:#c6d5db;fill-opacity:1;fill-rule:nonzero;stroke:none"/></g></g></g><g id="g204"><g clip-path="url(#clipPath208)" id="g206"><path d="m 27,27 -7.042,0 0,10 7.042,0 0,-10 z" id="path212" style="fill:#e1e8ed;fill-opacity:1;fill-rule:nonzero;stroke:none"/><g id="g214" transform="translate(29,33.5)"><path d="m 0,0 c 0,-1.933 -1.344,-3.5 -3,-3.5 -1.656,0 -3,1.567 -3,3.5 l 0,5 c 0,1.933 1.344,3.5 3,3.5 1.656,0 3,-1.567 3,-3.5 L 0,0 Z" id="path216" style="fill:#c6d5db;fill-opacity:1;fill-rule:nonzero;stroke:none"/></g><g id="g218" transform="translate(27.5,42)"><path d="m 0,0 c -0.171,0 -0.335,-0.027 -0.5,-0.05 l 0,-11.9 C -0.335,-11.974 -0.171,-12 0,-12 c 1.933,0 3.5,1.567 3.5,3.5 l 0,5 C 3.5,-1.567 1.933,0 0,0" id="path220" style="fill:#e1e8ed;fill-opacity:1;fill-rule:nonzero;stroke:none"/></g></g></g><g id="g222"><g clip-path="url(#clipPath226)" id="g224"><g id="g230" transform="translate(30,0)"><path d="M 0,0 0,2 C 0,3.657 -1.344,5 -3,5 -4.656,5 -6,3.657 -6,2 l 0,-2 -3,0 0,2 c 0,3.313 2.687,6 6,6 C 0.314,8 3,5.313 3,2 L 3,0 0,0 Z" id="path232" style="fill:#c6d5db;fill-opacity:1;fill-rule:nonzero;stroke:none"/></g></g></g><g id="g234"><g clip-path="url(#clipPath238)" id="g236"><path d="m 27,9 -7.042,0 0,-10 7.042,0 0,10 z" id="path242" style="fill:#e1e8ed;fill-opacity:1;fill-rule:nonzero;stroke:none"/><g id="g244" transform="translate(29,2.5)"><path d="M 0,0 C 0,1.933 -1.344,3.5 -3,3.5 -4.656,3.5 -6,1.933 -6,0 l 0,-5 c 0,-1.934 1.344,-3.5 3,-3.5 1.656,0 3,1.566 3,3.5 l 0,5 z" id="path246" style="fill:#c6d5db;fill-opacity:1;fill-rule:nonzero;stroke:none"/></g><g id="g248" transform="translate(27.5,-6)"><path d="m 0,0 c -0.171,0 -0.335,0.027 -0.5,0.051 l 0,11.898 C -0.335,11.974 -0.171,12 0,12 1.933,12 3.5,10.433 3.5,8.5 l 0,-5 C 3.5,1.566 1.933,0 0,0" id="path250" style="fill:#e1e8ed;fill-opacity:1;fill-rule:nonzero;stroke:none"/></g></g></g><g id="g252"><g clip-path="url(#clipPath256)" id="g254"><g id="g260" transform="translate(29,3)"><path d="m 0,0 c 0,-1.104 -0.895,-2 -2,-2 -1.104,0 -2,0.896 -2,2 l 0,12 c 0,1.105 0.896,2 2,2 1.105,0 2,-0.895 2,-2 L 0,0 Z" id="path262" style="fill:#c6d5db;fill-opacity:1;fill-rule:nonzero;stroke:none"/></g></g></g><g id="g264"><g clip-path="url(#clipPath268)" id="g266"><path d="M 23.875,0 27,0 l 0,19 -3.125,0 0,-19 z" id="path272" style="fill:#edf1f4;fill-opacity:1;fill-rule:nonzero;stroke:none"/></g></g><g id="g274"><g clip-path="url(#clipPath278)" id="g276"><g id="g282" transform="translate(11.125,12)"><path d="m 0,0 c 0,-1.104 -0.895,-2 -2,-2 -1.104,0 -2,0.896 -2,2 l 0,12 c 0,1.105 0.896,2 2,2 1.105,0 2,-0.895 2,-2 L 0,0 Z" id="path284" style="fill:#c6d5db;fill-opacity:1;fill-rule:nonzero;stroke:none"/></g></g></g><g id="g286"><g clip-path="url(#clipPath290)" id="g288"><path d="m 6,9 3.125,0 0,19 L 6,28 6,9 Z" id="path294" style="fill:#edf1f4;fill-opacity:1;fill-rule:nonzero;stroke:none"/></g></g><g id="g296"><g clip-path="url(#clipPath300)" id="g298"><g id="g304" transform="translate(29,21)"><path d="m 0,0 c 0,-1.104 -0.895,-2 -2,-2 -1.104,0 -2,0.896 -2,2 l 0,12 c 0,1.105 0.896,2 2,2 1.105,0 2,-0.895 2,-2 L 0,0 Z" id="path306" style="fill:#c6d5db;fill-opacity:1;fill-rule:nonzero;stroke:none"/></g></g></g><g id="g308"><g clip-path="url(#clipPath312)" id="g310"><path d="m 23.875,18 3.125,0 0,19 -3.125,0 0,-19 z" id="path316" style="fill:#edf1f4;fill-opacity:1;fill-rule:nonzero;stroke:none"/></g></g></g></svg>