<?xml version="1.0" encoding="UTF-8" standalone="no"?><svg xmlns="http://www.w3.org/2000/svg" xmlns:cc="http://creativecommons.org/ns#" xmlns:dc="http://purl.org/dc/elements/1.1/" xmlns:rdf="http://www.w3.org/1999/02/22-rdf-syntax-ns#" xmlns:svg="http://www.w3.org/2000/svg" height="45" id="svg2" style="enable-background:new 0 0 45 45;" version="1.1" viewBox="0 0 45 45" width="45" xml:space="preserve"><metadata id="metadata8"><rdf:RDF><cc:Work rdf:about=""><dc:format>image/svg+xml</dc:format><dc:type rdf:resource="http://purl.org/dc/dcmitype/StillImage"/></cc:Work></rdf:RDF></metadata><defs id="defs6"><clipPath clipPathUnits="userSpaceOnUse" id="clipPath16"><path d="M 0,36 36,36 36,0 0,0 0,36 Z" id="path18"/></clipPath></defs><g id="g10" transform="matrix(1.25,0,0,-1.25,0,45)"><g id="g12"><g clip-path="url(#clipPath16)" id="g14"><g id="g20" transform="translate(16.7056,19.8867)"><path d="m 0,0 c 0,-4.483 -2.554,-2.038 -5.706,-2.038 -3.151,0 -5.705,-2.445 -5.705,2.038 0,2.926 2.554,6.113 5.705,6.113 C -2.554,6.113 0,2.926 0,0" id="path22" style="fill:#662113;fill-opacity:1;fill-rule:nonzero;stroke:none"/></g><g id="g24" transform="translate(5.0742,27.9634)"><path d="m 0,0 c 0.393,-1.335 0.007,-2.625 -0.862,-2.881 -0.87,-0.256 -1.893,0.619 -2.286,1.954 -0.394,1.335 -0.008,2.625 0.862,2.882 C -1.417,2.21 -0.393,1.335 0,0" id="path26" style="fill:#662113;fill-opacity:1;fill-rule:nonzero;stroke:none"/></g><g id="g28" transform="translate(20.0742,27.0186)"><path d="m 0,0 c -0.407,-1.332 -1.442,-2.196 -2.312,-1.93 -0.869,0.265 -1.244,1.561 -0.836,2.893 0.407,1.331 1.442,2.196 2.311,1.93 C 0.032,2.627 0.407,1.332 0,0" id="path30" style="fill:#662113;fill-opacity:1;fill-rule:nonzero;stroke:none"/></g><g id="g32" transform="translate(9.9639,31.8779)"><path d="M 0,0 C 0.366,-1.898 -0.217,-3.606 -1.302,-3.815 -2.387,-4.023 -3.563,-2.654 -3.928,-0.756 -4.293,1.142 -3.71,2.85 -2.625,3.059 -1.541,3.268 -0.365,1.898 0,0" id="path34" style="fill:#662113;fill-opacity:1;fill-rule:nonzero;stroke:none"/></g><g id="g36" transform="translate(15.9595,31.0996)"><path d="m 0,0 c -0.387,-1.894 -1.578,-3.25 -2.66,-3.029 -1.082,0.221 -1.646,1.936 -1.259,3.83 0.387,1.893 1.578,3.25 2.66,3.029 C -0.177,3.608 0.387,1.894 0,0" id="path38" style="fill:#662113;fill-opacity:1;fill-rule:nonzero;stroke:none"/></g><g id="g40" transform="translate(30.7061,3.8867)"><path d="m 0,0 c 0,-4.483 -2.555,-2.038 -5.706,-2.038 -3.151,0 -5.706,-2.445 -5.706,2.038 0,2.926 2.555,6.113 5.706,6.113 C -2.555,6.113 0,2.926 0,0" id="path42" style="fill:#662113;fill-opacity:1;fill-rule:nonzero;stroke:none"/></g><g id="g44" transform="translate(19.0742,11.9639)"><path d="m 0,0 c 0.394,-1.336 0.007,-2.626 -0.862,-2.882 -0.87,-0.256 -1.893,0.619 -2.286,1.954 -0.394,1.336 -0.008,2.626 0.862,2.882 C -1.417,2.21 -0.393,1.335 0,0" id="path46" style="fill:#662113;fill-opacity:1;fill-rule:nonzero;stroke:none"/></g><g id="g48" transform="translate(34.0742,11.0186)"><path d="m 0,0 c -0.407,-1.332 -1.442,-2.196 -2.312,-1.93 -0.869,0.266 -1.244,1.561 -0.836,2.893 0.407,1.332 1.442,2.196 2.311,1.93 C 0.032,2.627 0.407,1.332 0,0" id="path50" style="fill:#662113;fill-opacity:1;fill-rule:nonzero;stroke:none"/></g><g id="g52" transform="translate(23.9639,15.8779)"><path d="m 0,0 c 0.365,-1.897 -0.218,-3.606 -1.302,-3.814 -1.085,-0.209 -2.261,1.16 -2.626,3.058 C -4.293,1.142 -3.71,2.85 -2.626,3.059 -1.541,3.268 -0.365,1.898 0,0" id="path54" style="fill:#662113;fill-opacity:1;fill-rule:nonzero;stroke:none"/></g><g id="g56" transform="translate(29.96,15.0996)"><path d="m 0,0 c -0.388,-1.893 -1.578,-3.25 -2.66,-3.029 -1.082,0.221 -1.647,1.936 -1.26,3.83 0.388,1.894 1.578,3.25 2.66,3.029 C -0.178,3.608 0.387,1.894 0,0" id="path58" style="fill:#662113;fill-opacity:1;fill-rule:nonzero;stroke:none"/></g></g></g></g></svg>