<?xml version="1.0" encoding="UTF-8" standalone="no"?><svg xmlns="http://www.w3.org/2000/svg" xmlns:cc="http://creativecommons.org/ns#" xmlns:dc="http://purl.org/dc/elements/1.1/" xmlns:rdf="http://www.w3.org/1999/02/22-rdf-syntax-ns#" xmlns:svg="http://www.w3.org/2000/svg" height="45" id="svg2" style="enable-background:new 0 0 45 45;" version="1.1" viewBox="0 0 45 45" width="45" xml:space="preserve"><metadata id="metadata8"><rdf:RDF><cc:Work rdf:about=""><dc:format>image/svg+xml</dc:format><dc:type rdf:resource="http://purl.org/dc/dcmitype/StillImage"/></cc:Work></rdf:RDF></metadata><defs id="defs6"><clipPath clipPathUnits="userSpaceOnUse" id="clipPath26"><path d="M 0,36 36,36 36,0 0,0 0,36 Z" id="path28"/></clipPath></defs><g id="g10" transform="matrix(1.25,0,0,-1.25,0,45)"><g id="g12" transform="translate(20.1996,16.191)"><path d="M 0,0 0.933,0 0.466,0.809 0,0 Z" id="path14" style="fill:#edecec;fill-opacity:1;fill-rule:nonzero;stroke:none"/></g><g id="g16" transform="translate(17.5329,15.1911)"><path d="M 0,0 0.467,-0.809 0.934,0 0,0 Z" id="path18" style="fill:#edecec;fill-opacity:1;fill-rule:nonzero;stroke:none"/></g><path d="M 0,11 36,11 36,25 0,25 0,11 Z" id="path20" style="fill:#eeeeee;fill-opacity:1;fill-rule:nonzero;stroke:none"/><g id="g22"><g clip-path="url(#clipPath26)" id="g24"><g id="g30" transform="translate(0.2935,28.5)"><path d="m 0,0 35.413,0 c -0.594,1.465 -2.028,2.5 -3.707,2.5 l -28,0 C 2.028,2.5 0.594,1.465 0,0" id="path32" style="fill:#eeeeee;fill-opacity:1;fill-rule:nonzero;stroke:none"/></g><g id="g34" transform="translate(21.1328,19.8086)"><path d="M 0,0 -0.934,0 -0.467,-0.808 0,0 Z" id="path36" style="fill:#edecec;fill-opacity:1;fill-rule:nonzero;stroke:none"/></g><g id="g38" transform="translate(15.8007,19.8086)"><path d="M 0,0 -0.934,0 -0.467,-0.808 0,0 Z" id="path40" style="fill:#edecec;fill-opacity:1;fill-rule:nonzero;stroke:none"/></g><g id="g42" transform="translate(19.0445,16.1914)"><path d="M 0,0 1.044,1.809 0,3.617 -2.089,3.617 -3.133,1.809 -2.089,0 0,0 Z" id="path44" style="fill:#edecec;fill-opacity:1;fill-rule:nonzero;stroke:none"/></g><g id="g46" transform="translate(15.3339,16.9998)"><path d="m 0,0 -0.467,-0.808 0.934,0 L 0,0 Z" id="path48" style="fill:#edecec;fill-opacity:1;fill-rule:nonzero;stroke:none"/></g><g id="g50" transform="translate(18,21.6177)"><path d="m 0,0 -0.467,-0.809 0.934,0 L 0,0 Z" id="path52" style="fill:#edecec;fill-opacity:1;fill-rule:nonzero;stroke:none"/></g><g id="g54" transform="translate(0.2935,28.5)"><path d="m 0,0 c -0.188,-0.464 -0.294,-0.969 -0.294,-1.5 l 0,-2 36,0 0,2 c 0,0.531 -0.105,1.036 -0.293,1.5 L 0,0 Z" id="path56" style="fill:#0038b8;fill-opacity:1;fill-rule:nonzero;stroke:none"/></g><g id="g58" transform="translate(0.2935,7.5)"><path d="m 0,0 35.413,0 c -0.594,-1.465 -2.028,-2.5 -3.707,-2.5 l -28,0 C 2.028,-2.5 0.594,-1.465 0,0" id="path60" style="fill:#eeeeee;fill-opacity:1;fill-rule:nonzero;stroke:none"/></g><g id="g62" transform="translate(0.2935,7.5)"><path d="m 0,0 c -0.188,0.464 -0.294,0.969 -0.294,1.5 l 0,2 36,0 0,-2 C 35.706,0.969 35.601,0.464 35.413,0 L 0,0 Z" id="path64" style="fill:#0038b8;fill-opacity:1;fill-rule:nonzero;stroke:none"/></g><g id="g66" transform="translate(15.3339,16.9998)"><path d="m 0,0 0.467,-0.808 -0.934,0 L 0,0 Z M 0.467,2.809 0,2 l -0.467,0.809 0.934,0 z m 1.155,0 2.089,0 L 4.755,1 3.711,-0.808 1.622,-0.808 0.577,1 1.622,2.809 Z m 1.044,1.809 0.467,-0.809 -0.934,0 0.467,0.809 z M 5.332,0 5.799,-0.808 4.865,-0.808 5.332,0 Z M 5.799,2.809 5.332,2 4.865,2.809 l 0.934,0 z m -3.133,-5.426 -0.467,0.809 0.934,0 -0.467,-0.809 z m -1.622,0.809 1.622,-2.809 1.622,2.809 3.243,0 L 5.91,1 l 1.621,2.809 -3.243,0 -1.622,2.809 -1.622,-2.809 -3.243,0 1.621,-2.809 -1.621,-2.808 3.243,0 z" id="path68" style="fill:#0038b8;fill-opacity:1;fill-rule:nonzero;stroke:none"/></g></g></g></g></svg>