<?xml version="1.0" encoding="UTF-8" standalone="no"?><svg xmlns="http://www.w3.org/2000/svg" xmlns:cc="http://creativecommons.org/ns#" xmlns:dc="http://purl.org/dc/elements/1.1/" xmlns:rdf="http://www.w3.org/1999/02/22-rdf-syntax-ns#" xmlns:svg="http://www.w3.org/2000/svg" height="45" id="svg2" style="enable-background:new 0 0 45 45;" version="1.1" viewBox="0 0 45 45" width="45" xml:space="preserve"><metadata id="metadata8"><rdf:RDF><cc:Work rdf:about=""><dc:format>image/svg+xml</dc:format><dc:type rdf:resource="http://purl.org/dc/dcmitype/StillImage"/></cc:Work></rdf:RDF></metadata><defs id="defs6"><clipPath clipPathUnits="userSpaceOnUse" id="clipPath16"><path d="M 0,36 36,36 36,0 0,0 0,36 Z" id="path18"/></clipPath></defs><g id="g10" transform="matrix(1.25,0,0,-1.25,0,45)"><g id="g12"><g clip-path="url(#clipPath16)" id="g14"><g id="g20" transform="translate(33.875,0.7725)"><path d="M 0,0 C -0.314,0 -0.628,0.12 -0.868,0.359 L -31.509,31 c -0.48,0.48 -0.48,1.257 0,1.737 0.479,0.479 1.257,0.479 1.736,0 L 0.868,2.096 c 0.48,-0.48 0.48,-1.257 0,-1.737 C 0.628,0.12 0.314,0 0,0" id="path22" style="fill:#d99e82;fill-opacity:1;fill-rule:nonzero;stroke:none"/></g><g id="g24" transform="translate(15.2544,27.3726)"><path d="m 0,0 c 0,-3.729 -3.023,-6.752 -6.752,-6.752 -3.729,0 -6.752,3.023 -6.752,6.752 0,3.729 3.023,6.752 6.752,6.752 C -3.023,6.752 0,3.729 0,0" id="path26" style="fill:#fcb1e3;fill-opacity:1;fill-rule:nonzero;stroke:none"/></g><g id="g28" transform="translate(22.6211,20.0063)"><path d="m 0,0 c 0,-3.729 -3.023,-6.752 -6.752,-6.752 -3.73,0 -6.753,3.023 -6.753,6.752 0,3.729 3.023,6.752 6.753,6.752 C -3.023,6.752 0,3.729 0,0" id="path30" style="fill:#ffd983;fill-opacity:1;fill-rule:nonzero;stroke:none"/></g><g id="g32" transform="translate(29.9873,12.6406)"><path d="m 0,0 c 0,-3.729 -3.024,-6.753 -6.753,-6.753 -3.728,0 -6.752,3.024 -6.752,6.753 0,3.729 3.024,6.752 6.752,6.752 C -3.024,6.752 0,3.729 0,0" id="path34" style="fill:#a6d388;fill-opacity:1;fill-rule:nonzero;stroke:none"/></g><g id="g36" transform="translate(33.875,0.7725)"><path d="m 0,0 c -0.314,0 -0.628,0.12 -0.868,0.359 l -7.52,7.52 c -0.479,0.479 -0.479,1.257 0,1.736 0.481,0.479 1.256,0.479 1.737,0 L 0.868,2.096 c 0.48,-0.48 0.48,-1.257 0,-1.737 C 0.628,0.12 0.314,0 0,0" id="path38" style="fill:#d99e82;fill-opacity:1;fill-rule:nonzero;stroke:none"/></g></g></g></g></svg>