<?xml version="1.0" encoding="UTF-8" standalone="no"?><svg xmlns="http://www.w3.org/2000/svg" xmlns:cc="http://creativecommons.org/ns#" xmlns:dc="http://purl.org/dc/elements/1.1/" xmlns:rdf="http://www.w3.org/1999/02/22-rdf-syntax-ns#" xmlns:svg="http://www.w3.org/2000/svg" height="45" id="svg2" style="enable-background:new 0 0 45 45;" version="1.1" viewBox="0 0 45 45" width="45" xml:space="preserve"><metadata id="metadata8"><rdf:RDF><cc:Work rdf:about=""><dc:format>image/svg+xml</dc:format><dc:type rdf:resource="http://purl.org/dc/dcmitype/StillImage"/></cc:Work></rdf:RDF></metadata><defs id="defs6"><clipPath clipPathUnits="userSpaceOnUse" id="clipPath16"><path d="M 0,36 36,36 36,0 0,0 0,36 Z" id="path18"/></clipPath></defs><g id="g10" transform="matrix(1.25,0,0,-1.25,0,45)"><g id="g12"><g clip-path="url(#clipPath16)" id="g14"><g id="g20" transform="translate(36,4)"><path d="m 0,0 c 0,-2.209 -1.791,-4 -4,-4 l -28,0 c -2.209,0 -4,1.791 -4,4 l 0,28 c 0,2.209 1.791,4 4,4 l 28,0 c 2.209,0 4,-1.791 4,-4 L 0,0 Z" id="path22" style="fill:#88c9f9;fill-opacity:1;fill-rule:nonzero;stroke:none"/></g><g id="g24" transform="translate(18,9)"><path d="m 0,0 c -6.076,0 -11,4.925 -11,11 0,6.075 4.924,11 11,11 C 6.075,22 11,17.075 11,11 11,4.925 6.075,0 0,0 M -0.001,24 C -7.18,24 -13,18.18 -13,11 -13,3.82 -7.18,-2 -0.001,-2 7.18,-2 13,3.82 13,11 13,18.18 7.18,24 -0.001,24" id="path26" style="fill:#ffe8b6;fill-opacity:1;fill-rule:nonzero;stroke:none"/></g><g id="g28" transform="translate(21,29.5)"><path d="m 0,0 c 0,-1.381 -1.119,-2.5 -2.5,-2.5 l -1,0 c -1.381,0 -2.5,1.119 -2.5,2.5 0,1.381 1.119,2.5 2.5,2.5 l 1,0 C -1.119,2.5 0,1.381 0,0" id="path30" style="fill:#ea596e;fill-opacity:1;fill-rule:nonzero;stroke:none"/></g><g id="g32" transform="translate(12,26.5)"><path d="m 0,0 c 0,-1.381 -1.119,-2.5 -2.5,-2.5 l -1,0 c -1.381,0 -2.5,1.119 -2.5,2.5 0,1.381 1.119,2.5 2.5,2.5 l 1,0 C -1.119,2.5 0,1.381 0,0" id="path34" style="fill:#ea596e;fill-opacity:1;fill-rule:nonzero;stroke:none"/></g><g id="g36" transform="translate(30,26.5)"><path d="m 0,0 c 0,-1.381 -1.119,-2.5 -2.5,-2.5 l -1,0 c -1.381,0 -2.5,1.119 -2.5,2.5 0,1.381 1.119,2.5 2.5,2.5 l 1,0 C -1.119,2.5 0,1.381 0,0" id="path38" style="fill:#ea596e;fill-opacity:1;fill-rule:nonzero;stroke:none"/></g><g id="g40" transform="translate(33,17.5)"><path d="m 0,0 c 0,-1.381 -1.119,-2.5 -2.5,-2.5 l -1,0 c -1.381,0 -2.5,1.119 -2.5,2.5 0,1.381 1.119,2.5 2.5,2.5 l 1,0 C -1.119,2.5 0,1.381 0,0" id="path42" style="fill:#ea596e;fill-opacity:1;fill-rule:nonzero;stroke:none"/></g><g id="g44" transform="translate(9,17.5)"><path d="m 0,0 c 0,-1.381 -1.119,-2.5 -2.5,-2.5 l -1,0 c -1.381,0 -2.5,1.119 -2.5,2.5 0,1.381 1.119,2.5 2.5,2.5 l 1,0 C -1.119,2.5 0,1.381 0,0" id="path46" style="fill:#ea596e;fill-opacity:1;fill-rule:nonzero;stroke:none"/></g><g id="g48" transform="translate(12,9.5)"><path d="m 0,0 c 0,-1.381 -1.119,-2.5 -2.5,-2.5 l -1,0 c -1.381,0 -2.5,1.119 -2.5,2.5 0,1.381 1.119,2.5 2.5,2.5 l 1,0 C -1.119,2.5 0,1.381 0,0" id="path50" style="fill:#ea596e;fill-opacity:1;fill-rule:nonzero;stroke:none"/></g><g id="g52" transform="translate(30,9.5)"><path d="m 0,0 c 0,-1.381 -1.119,-2.5 -2.5,-2.5 l -1,0 c -1.381,0 -2.5,1.119 -2.5,2.5 0,1.381 1.119,2.5 2.5,2.5 l 1,0 C -1.119,2.5 0,1.381 0,0" id="path54" style="fill:#ea596e;fill-opacity:1;fill-rule:nonzero;stroke:none"/></g><g id="g56" transform="translate(21,5.5)"><path d="m 0,0 c 0,-1.381 -1.119,-2.5 -2.5,-2.5 l -1,0 c -1.381,0 -2.5,1.119 -2.5,2.5 0,1.381 1.119,2.5 2.5,2.5 l 1,0 C -1.119,2.5 0,1.381 0,0" id="path58" style="fill:#ea596e;fill-opacity:1;fill-rule:nonzero;stroke:none"/></g><g id="g60" transform="translate(20.9492,6)"><path d="m 0,0 c -0.231,1.142 -1.239,2 -2.449,2 l -1,0 C -4.659,2 -5.667,1.142 -5.899,0 L 0,0 Z" id="path62" style="fill:#ffffff;fill-opacity:1;fill-rule:nonzero;stroke:none"/></g><g id="g64" transform="translate(11.9492,10)"><path d="m 0,0 c -0.231,1.142 -1.239,2 -2.449,2 l -1,0 C -4.659,2 -5.667,1.142 -5.899,0 L 0,0 Z" id="path66" style="fill:#ffffff;fill-opacity:1;fill-rule:nonzero;stroke:none"/></g><g id="g68" transform="translate(8.9492,18)"><path d="m 0,0 c -0.231,1.142 -1.239,2 -2.449,2 l -1,0 C -4.659,2 -5.667,1.142 -5.899,0 L 0,0 Z" id="path70" style="fill:#ffffff;fill-opacity:1;fill-rule:nonzero;stroke:none"/></g><g id="g72" transform="translate(32.9492,18)"><path d="m 0,0 c -0.231,1.142 -1.239,2 -2.449,2 l -1,0 C -4.658,2 -5.667,1.142 -5.898,0 L 0,0 Z" id="path74" style="fill:#ffffff;fill-opacity:1;fill-rule:nonzero;stroke:none"/></g><g id="g76" transform="translate(29.9492,10)"><path d="m 0,0 c -0.231,1.142 -1.239,2 -2.449,2 l -1,0 C -4.658,2 -5.667,1.142 -5.898,0 L 0,0 Z" id="path78" style="fill:#ffffff;fill-opacity:1;fill-rule:nonzero;stroke:none"/></g><g id="g80" transform="translate(29.9492,27)"><path d="m 0,0 c -0.231,1.142 -1.239,2 -2.449,2 l -1,0 C -4.658,2 -5.667,1.142 -5.898,0 L 0,0 Z" id="path82" style="fill:#ffffff;fill-opacity:1;fill-rule:nonzero;stroke:none"/></g><g id="g84" transform="translate(20.9492,30)"><path d="m 0,0 c -0.231,1.142 -1.239,2 -2.449,2 l -1,0 C -4.659,2 -5.667,1.142 -5.899,0 L 0,0 Z" id="path86" style="fill:#ffffff;fill-opacity:1;fill-rule:nonzero;stroke:none"/></g><g id="g88" transform="translate(11.9492,27)"><path d="m 0,0 c -0.231,1.142 -1.239,2 -2.449,2 l -1,0 C -4.659,2 -5.667,1.142 -5.899,0 L 0,0 Z" id="path90" style="fill:#ffffff;fill-opacity:1;fill-rule:nonzero;stroke:none"/></g><g id="g92" transform="translate(26.001,2)"><path d="M 0,0 C -0.376,0 -0.735,0.212 -0.906,0.574 L -8.001,15.651 -15.097,0.574 c -0.236,-0.5 -0.831,-0.713 -1.33,-0.479 -0.5,0.235 -0.715,0.831 -0.479,1.331 l 8,17 c 0.165,0.35 0.518,0.574 0.905,0.574 0.387,0 0.74,-0.224 0.905,-0.574 l 8,-17 C 1.139,0.926 0.925,0.33 0.425,0.095 0.287,0.03 0.143,0 0,0" id="path94" style="fill:#414042;fill-opacity:1;fill-rule:nonzero;stroke:none"/></g><g id="g96" transform="translate(14.9995,20)"><path d="M 0,0 C 0,1.657 1.343,3 3,3 4.657,3 6.001,1.657 6.001,0 6.001,-1.657 4.657,-3 3,-3 1.343,-3 0,-1.657 0,0" id="path98" style="fill:#414042;fill-opacity:1;fill-rule:nonzero;stroke:none"/></g></g></g></g></svg>