<?xml version="1.0" encoding="UTF-8" standalone="no"?><svg xmlns="http://www.w3.org/2000/svg" xmlns:cc="http://creativecommons.org/ns#" xmlns:dc="http://purl.org/dc/elements/1.1/" xmlns:rdf="http://www.w3.org/1999/02/22-rdf-syntax-ns#" xmlns:svg="http://www.w3.org/2000/svg" height="45" id="svg2" style="enable-background:new 0 0 45 45;" version="1.1" viewBox="0 0 45 45" width="45" xml:space="preserve"><metadata id="metadata8"><rdf:RDF><cc:Work rdf:about=""><dc:format>image/svg+xml</dc:format><dc:type rdf:resource="http://purl.org/dc/dcmitype/StillImage"/></cc:Work></rdf:RDF></metadata><defs id="defs6"><clipPath clipPathUnits="userSpaceOnUse" id="clipPath16"><path d="M 0,36 36,36 36,0 0,0 0,36 Z" id="path18"/></clipPath></defs><g id="g10" transform="matrix(1.25,0,0,-1.25,0,45)"><g id="g12"><g clip-path="url(#clipPath16)" id="g14"><g id="g20" transform="translate(30.3848,7)"><path d="m 0,0 c 0.382,-0.382 0.382,-1.002 0,-1.385 -0.383,-0.382 -1.003,-0.382 -1.385,0 l -13.5,13.501 c -0.382,0.383 -0.382,1.002 0,1.384 0.382,0.382 1.002,0.382 1.384,0 L 0,0 Z" id="path22" style="fill:#55acee;fill-opacity:1;fill-rule:nonzero;stroke:none"/></g><g id="g24" transform="translate(35.5605,2.5605)"><path d="m 0,0 c 0.586,-0.586 0.586,-1.536 0,-2.121 -0.585,-0.586 -1.535,-0.586 -2.121,0 l -5.656,5.656 c -0.586,0.586 -0.586,1.536 0,2.121 0.585,0.586 1.535,0.586 2.121,0 L 0,0 Z" id="path26" style="fill:#292f33;fill-opacity:1;fill-rule:nonzero;stroke:none"/></g><g id="g28" transform="translate(15.1768,19.4878)"><path d="m 0,0 -0.707,-0.708 -12.021,12.022 0.707,0.707 L 0,0 Z" id="path30" style="fill:#99aab5;fill-opacity:1;fill-rule:nonzero;stroke:none"/></g><g id="g32" transform="translate(4.5703,34.3369)"><path d="m 0,0 -0.707,-0.707 12.728,-12.728 0.707,0.707 L 0,0 Z" id="path34" style="fill:#99aab5;fill-opacity:1;fill-rule:nonzero;stroke:none"/></g><g id="g36" transform="translate(10.2271,34.3369)"><path d="M 0,0 -8.485,-8.485 -9.192,-7.778 -0.707,0.707 0,0 Z" id="path38" style="fill:#99aab5;fill-opacity:1;fill-rule:nonzero;stroke:none"/></g><g id="g40" transform="translate(13.0557,32.9229)"><path d="M 0,0 -10.606,-10.606 -11.314,-9.899 -0.707,0.707 0,0 Z" id="path42" style="fill:#99aab5;fill-opacity:1;fill-rule:nonzero;stroke:none"/></g><g id="g44" transform="translate(15.8838,31.5088)"><path d="m 0,0 -11.313,-11.314 -0.708,0.707 L -0.707,0.707 0,0 Z" id="path46" style="fill:#99aab5;fill-opacity:1;fill-rule:nonzero;stroke:none"/></g><g id="g48" transform="translate(17.2983,28.6802)"><path d="m 0,0 -9.899,-9.9 -0.708,0.708 9.9,9.899 L 0,0 Z" id="path50" style="fill:#99aab5;fill-opacity:1;fill-rule:nonzero;stroke:none"/></g><g id="g52" transform="translate(18.7124,25.8516)"><path d="M 0,0 -8.485,-8.485 -9.192,-7.778 -0.707,0.707 0,0 Z" id="path54" style="fill:#99aab5;fill-opacity:1;fill-rule:nonzero;stroke:none"/></g><g id="g56" transform="translate(12.3486,18.0732)"><path d="M 0,0 -0.707,-0.707 -11.314,9.9 -10.607,10.607 0,0 Z" id="path58" style="fill:#99aab5;fill-opacity:1;fill-rule:nonzero;stroke:none"/></g><g id="g60" transform="translate(8.106,35.0439)"><path d="M 0,0 -0.707,-0.707 9.899,-11.313 10.606,-10.606 0,0 Z" id="path62" style="fill:#99aab5;fill-opacity:1;fill-rule:nonzero;stroke:none"/></g><g id="g64" transform="translate(15.314,20.6855)"><path d="m 0,0 c -2.733,-2.733 -7.535,-2.364 -10.725,0.825 -3.189,3.189 -3.557,7.991 -0.824,10.724 2.734,2.734 7.535,2.365 10.724,-0.824 C 2.364,7.535 2.734,2.734 0,0 m -12.846,12.846 c -3.471,-3.471 -3.119,-9.451 0.786,-13.356 3.906,-3.906 9.885,-4.258 13.356,-0.786 3.472,3.472 3.121,9.45 -0.786,13.356 -3.905,3.905 -9.884,4.258 -13.356,0.786" id="path66" style="fill:#55acee;fill-opacity:1;fill-rule:nonzero;stroke:none"/></g><g id="g68" transform="translate(17.2983,21.6089)"><path d="m 0,0 c 0.391,-0.391 0.39,-1.023 0,-1.414 l -1.414,-1.415 c -0.391,-0.389 -1.024,-0.39 -1.415,0 -0.39,0.391 -0.39,1.024 0,1.415 L -1.414,0 C -1.024,0.391 -0.391,0.391 0,0" id="path70" style="fill:#226699;fill-opacity:1;fill-rule:nonzero;stroke:none"/></g><g id="g72" transform="translate(18.0054,19.4878)"><path d="m 0,0 c 0.391,-0.391 0.391,-1.024 0,-1.415 -0.391,-0.39 -1.023,-0.39 -1.414,0 l -0.708,0.707 c -0.39,0.392 -0.39,1.024 0,1.415 0.391,0.391 1.024,0.391 1.415,0 L 0,0 Z" id="path74" style="fill:#226699;fill-opacity:1;fill-rule:nonzero;stroke:none"/></g><g id="g76" transform="translate(29.5605,8.5605)"><path d="m 0,0 c 0.586,-0.585 -0.122,-0.828 -0.707,-1.414 -0.586,-0.585 -0.829,-1.292 -1.414,-0.707 -0.586,0.586 -0.586,1.536 0,2.121 0.585,0.586 1.535,0.586 2.121,0" id="path78" style="fill:#226699;fill-opacity:1;fill-rule:nonzero;stroke:none"/></g><g id="g80" transform="translate(21.8105,32.8179)"><path d="m 0,0 c -0.781,-0.781 -0.781,-2.047 0,-2.828 l 0.707,-0.707 0.707,0.707 1.414,1.414 0.709,0.707 L 2.828,0 C 2.049,0.781 0.781,0.781 0,0" id="path82" style="fill:#be1931;fill-opacity:1;fill-rule:nonzero;stroke:none"/></g><g id="g84" transform="translate(26.0547,31.4038)"><path d="m 0,0 -2.83,-2.828 -0.707,0.707 2.83,2.828 L 0,0 Z" id="path86" style="fill:#99aab5;fill-opacity:1;fill-rule:nonzero;stroke:none"/></g><g id="g88" transform="translate(23.2246,28.5757)"><path d="m 0,0 2.83,2.828 c 1.473,-0.488 9.125,-5.069 8.861,-5.334 -0.757,-0.759 -1.912,-0.201 -1.912,-0.201 0,0 0.844,-0.806 0.118,-1.532 -0.727,-0.727 -1.532,0.118 -1.532,0.118 0,0 0.969,-0.741 0.149,-1.564 -0.827,-0.826 -1.563,0.149 -1.563,0.149 0,0 0.729,-0.981 0.098,-1.613 -0.633,-0.631 -1.514,0.199 -1.514,0.199 0,0 0.418,-0.998 -0.342,-1.756 C 4.832,-9.069 0.586,-1.376 0,0" id="path90" style="fill:#e1e8ed;fill-opacity:1;fill-rule:nonzero;stroke:none"/></g><g id="g92" transform="translate(26.4141,28.1772)"><path d="M 0,0 C 0.578,0.683 5.432,-3.727 4.58,-4.579 3.726,-5.431 -0.695,-0.82 0,0" id="path94" style="fill:#ccd6dd;fill-opacity:1;fill-rule:nonzero;stroke:none"/></g><g id="g96" transform="translate(28.1191,20.729)"><path d="M 0,0 C 0.68,0.443 -3.072,5.816 -3.535,5.427 -3.566,5.4 -3.58,5.354 -3.588,5.301 -2.705,3.675 -1.582,1.707 -0.764,0.434 -0.428,0.092 -0.148,-0.096 0,0" id="path98" style="fill:#ccd6dd;fill-opacity:1;fill-rule:nonzero;stroke:none"/></g><g id="g100" transform="translate(28.3906,29.9624)"><path d="m 0,0 c -0.391,-0.463 4.984,-4.215 5.428,-3.535 0.115,0.178 -0.17,0.541 -0.656,0.97 C 3.557,-1.783 1.916,-0.799 0.486,0.006 0.246,0.07 0.068,0.08 0,0" id="path102" style="fill:#ccd6dd;fill-opacity:1;fill-rule:nonzero;stroke:none"/></g><g id="g104" transform="translate(25.4023,27.103)"><path d="M 0,0 C 0.426,0.429 4.641,-4.589 4.002,-5.093 3.363,-5.593 -0.514,-0.517 0,0" id="path106" style="fill:#ccd6dd;fill-opacity:1;fill-rule:nonzero;stroke:none"/></g><g id="g108" transform="translate(27.4434,29.144)"><path d="M 0,0 C -0.428,-0.426 4.59,-4.64 5.092,-4.002 5.594,-3.363 0.518,0.514 0,0" id="path110" style="fill:#ccd6dd;fill-opacity:1;fill-rule:nonzero;stroke:none"/></g></g></g></g></svg>