<?xml version="1.0" encoding="UTF-8" standalone="no"?><svg xmlns="http://www.w3.org/2000/svg" xmlns:cc="http://creativecommons.org/ns#" xmlns:dc="http://purl.org/dc/elements/1.1/" xmlns:rdf="http://www.w3.org/1999/02/22-rdf-syntax-ns#" xmlns:svg="http://www.w3.org/2000/svg" height="45" id="svg2" style="enable-background:new 0 0 45 45;" version="1.1" viewBox="0 0 45 45" width="45" xml:space="preserve"><metadata id="metadata8"><rdf:RDF><cc:Work rdf:about=""><dc:format>image/svg+xml</dc:format><dc:type rdf:resource="http://purl.org/dc/dcmitype/StillImage"/></cc:Work></rdf:RDF></metadata><defs id="defs6"><clipPath clipPathUnits="userSpaceOnUse" id="clipPath16"><path d="M 0,0 33,0 33,36 0,36 0,0 Z" id="path18"/></clipPath><clipPath clipPathUnits="userSpaceOnUse" id="clipPath28"><path d="M 9.99,8 C 6.677,8 3.991,5.314 3.991,2 l 0,0 0,-2 27.999,0 0,2 c 0,3.314 -2.685,6 -6,6 l 0,0 -16,0 z" id="path30"/></clipPath><clipPath clipPathUnits="userSpaceOnUse" id="clipPath40"><path d="M 0,0 33,0 33,36 0,36 0,0 Z" id="path42"/></clipPath><clipPath clipPathUnits="userSpaceOnUse" id="clipPath80"><path d="M 0,36 36,36 36,0 0,0 0,36 Z" id="path82"/></clipPath></defs><g id="g10" transform="matrix(1.25,0,0,-1.25,0,45)"><g id="g12"><g clip-path="url(#clipPath16)" id="g14"><g id="g20" transform="translate(31.9902,0)"><path d="m 0,0 0,2 c 0,3.314 -2.686,6 -6,6 l -16,0 c -3.313,0 -6,-2.686 -6,-6 l 0,-2 28,0 z" id="path22" style="fill:#77b255;fill-opacity:1;fill-rule:nonzero;stroke:none"/></g></g></g><g id="g24"><g clip-path="url(#clipPath28)" id="g26"><g id="g32" transform="translate(11,-1.75)"><path d="m 0,0 c -0.19,0 -0.38,0.072 -0.526,0.216 -0.295,0.291 -0.299,0.765 -0.008,1.06 5.537,5.617 12.459,9.607 17.223,9.93 0.416,0.015 0.772,-0.284 0.799,-0.697 C 17.517,10.096 17.204,9.737 16.791,9.71 13.108,9.46 6.653,6.43 0.534,0.224 0.387,0.074 0.194,0 0,0" id="path34" style="fill:#5c913b;fill-opacity:1;fill-rule:nonzero;stroke:none"/></g></g></g><g id="g36"><g clip-path="url(#clipPath40)" id="g38"><g id="g44" transform="translate(13.6299,7.8994)"><path d="m 0,0 c 1.744,-1.268 2.848,-1.963 4.36,-1.963 1.512,0 2.616,0.696 4.36,1.963 l 0,3.811 L 0,3.811 0,0 Z" id="path46" style="fill:#af7e57;fill-opacity:1;fill-rule:nonzero;stroke:none"/></g><g id="g48" transform="translate(13.6221,10.0273)"><path d="m 0,0 c 1.216,-1.374 2.724,-1.746 4.364,-1.746 1.639,0 3.147,0.373 4.363,1.746 l 0,3.491 L 0,3.491 0,0 Z" id="path50" style="fill:#ffac33;fill-opacity:1;fill-rule:nonzero;stroke:none"/></g><g id="g52" transform="translate(11.4346,20.0645)"><path d="m 0,0 c 0,-1.448 -0.734,-2.622 -1.639,-2.622 -0.905,0 -1.639,1.174 -1.639,2.622 0,1.448 0.734,2.623 1.639,2.623 C -0.734,2.623 0,1.448 0,0" id="path54" style="fill:#af7e57;fill-opacity:1;fill-rule:nonzero;stroke:none"/></g><g id="g56" transform="translate(27.8232,20.0645)"><path d="m 0,0 c 0,-1.448 -0.733,-2.622 -1.639,-2.622 -0.905,0 -1.638,1.174 -1.638,2.622 0,1.448 0.733,2.623 1.638,2.623 C -0.733,2.623 0,1.448 0,0" id="path58" style="fill:#af7e57;fill-opacity:1;fill-rule:nonzero;stroke:none"/></g><g id="g60" transform="translate(9.4678,19.0405)"><path d="m 0,0 c 0,5.589 3.733,11.001 8.439,11.001 4.707,0 8.606,-5.412 8.606,-11.001 0,-5.589 -3.816,-10.121 -8.523,-10.121 C 3.816,-10.121 0,-5.589 0,0" id="path62" style="fill:#af7e57;fill-opacity:1;fill-rule:nonzero;stroke:none"/></g><g id="g64" transform="translate(13.9902,19)"><path d="m 0,0 0,0 c -0.55,0 -1,0.45 -1,1 l 0,1 C -1,2.55 -0.55,3 0,3 0.55,3 1,2.55 1,2 L 1,1 C 1,0.45 0.55,0 0,0" id="path66" style="fill:#60352a;fill-opacity:1;fill-rule:nonzero;stroke:none"/></g><g id="g68" transform="translate(21.9902,19)"><path d="m 0,0 0,0 c -0.55,0 -1,0.45 -1,1 l 0,1 C -1,2.55 -0.55,3 0,3 0.55,3 1,2.55 1,2 L 1,1 C 1,0.45 0.55,0 0,0" id="path70" style="fill:#60352a;fill-opacity:1;fill-rule:nonzero;stroke:none"/></g><g id="g72" transform="translate(18.7402,16.25)"><path d="m 0,0 -1.5,0 c -0.413,0 -0.75,0.337 -0.75,0.75 0,0.413 0.337,0.75 0.75,0.75 L 0,1.5 C 0.413,1.5 0.75,1.163 0.75,0.75 0.75,0.337 0.413,0 0,0" id="path74" style="fill:#915a34;fill-opacity:1;fill-rule:nonzero;stroke:none"/></g></g></g><g id="g76"><g clip-path="url(#clipPath80)" id="g78"><g id="g84" transform="translate(18,26.0659)"><path d="M 0,0 C 0,0 7.149,-1.858 8.245,-5.204 8.723,-4.183 9,-1.947 9,-0.686 9,3.153 6,5.934 1.125,5.934 l -2.25,0 C -5.25,5.934 -9,3.153 -9,-0.686 -9,-1.947 -8.723,-4.349 -8.246,-5.37 -7.149,-2.022 0,0 0,0" id="path86" style="fill:#e6e7e8;fill-opacity:1;fill-rule:nonzero;stroke:none"/></g><g id="g88" transform="translate(26.9766,24.8242)"><path d="M 0,0 C -1.397,1.115 -3.035,2.036 -4.604,2.558 -4.969,2.68 -5.358,2.482 -5.48,2.121 -5.601,1.758 -5.404,1.366 -5.042,1.245 -3.376,0.689 -1.557,-0.411 -0.169,-1.68 -0.085,-1.098 -0.028,-0.514 0,0" id="path90" style="fill:#d1d3d4;fill-opacity:1;fill-rule:nonzero;stroke:none"/></g><g id="g92" transform="translate(9.1167,23.6895)"><path d="M 0,0 C 2.007,1.436 8.667,5.74 16.341,5.8 15.908,6.3 15.4,6.746 14.831,7.126 8.126,6.628 2.392,3.287 -0.111,1.605 -0.102,1.15 -0.065,0.592 0,0" id="path94" style="fill:#d1d3d4;fill-opacity:1;fill-rule:nonzero;stroke:none"/></g><g id="g96" transform="translate(26.3906,28.0938)"><path d="m 0,0 c -0.028,0.004 -0.054,0.016 -0.083,0.016 -2.835,0 -5.703,-0.71 -8.528,-2.108 0.14,0.042 0.22,0.064 0.22,0.064 0,0 0.816,-0.212 1.937,-0.62 2.126,0.844 4.263,1.28 6.371,1.28 0.203,0 0.381,0.091 0.509,0.229 C 0.323,-0.744 0.18,-0.363 0,0" id="path98" style="fill:#d1d3d4;fill-opacity:1;fill-rule:nonzero;stroke:none"/></g><g id="g100" transform="translate(9.1875,26.9644)"><path d="M 0,0 C 2.477,1.586 7.19,3.888 12.431,4.8 11.636,5.036 10.796,5.036 9.938,5.036 l -1.765,0 C 5.448,3.977 3.021,3.179 1.15,2.149 0.615,1.47 0.216,0.834 0,0" id="path102" style="fill:#d1d3d4;fill-opacity:1;fill-rule:nonzero;stroke:none"/></g><g id="g104" transform="translate(26.4229,15.7266)"><path d="m 0,0 c 0,1.576 -1.617,0.557 -2.115,0 -0.704,-0.789 -2.115,-2.366 -3.527,-1.577 -1.993,1.114 -2.82,0.788 -2.82,0.788 0,0 -0.826,0.326 -2.82,-0.788 -1.41,-0.789 -2.82,0.788 -3.526,1.577 -0.498,0.557 -2.115,1.576 -2.115,0 0,-2.366 1.41,-3.943 1.41,-3.943 1.411,-3.942 4.231,-3.942 4.231,-3.942 0.705,-0.789 4.936,-0.789 5.64,0 0,0 2.823,0 4.231,3.942 0,0 1.411,1.577 1.411,3.943" id="path106" style="fill:#60352a;fill-opacity:1;fill-rule:nonzero;stroke:none"/></g><g id="g108" transform="translate(18,13.5)"><path d="M 0,0 C 5,0 3,-1.381 0,-1.381 -3,-1.381 -5,0 0,0" id="path110" style="fill:#af7e57;fill-opacity:1;fill-rule:nonzero;stroke:none"/></g></g></g></g></svg>