<?xml version="1.0" encoding="UTF-8" standalone="no"?><svg xmlns="http://www.w3.org/2000/svg" xmlns:cc="http://creativecommons.org/ns#" xmlns:dc="http://purl.org/dc/elements/1.1/" xmlns:rdf="http://www.w3.org/1999/02/22-rdf-syntax-ns#" xmlns:svg="http://www.w3.org/2000/svg" height="45" id="svg2" style="enable-background:new 0 0 45 45;" version="1.1" viewBox="0 0 45 45" width="45" xml:space="preserve"><metadata id="metadata8"><rdf:RDF><cc:Work rdf:about=""><dc:format>image/svg+xml</dc:format><dc:type rdf:resource="http://purl.org/dc/dcmitype/StillImage"/></cc:Work></rdf:RDF></metadata><defs id="defs6"><clipPath clipPathUnits="userSpaceOnUse" id="clipPath16"><path d="M 0,36 36,36 36,0 0,0 0,36 Z" id="path18"/></clipPath><clipPath clipPathUnits="userSpaceOnUse" id="clipPath28"><path d="M 6,29 6,12 C 6,5.373 11.372,0 18,0 l 0,0 c 6.627,0 12,5.373 12,12 l 0,0 0,17 c 0,2.016 -2,5 -12,5 l 0,0 C 8,34 6,31.016 6,29" id="path30"/></clipPath><clipPath clipPathUnits="userSpaceOnUse" id="clipPath42"><path d="M 0,36 36,36 36,0 0,0 0,36 Z" id="path44"/></clipPath></defs><g id="g10" transform="matrix(1.25,0,0,-1.25,0,45)"><g id="g12"><g clip-path="url(#clipPath16)" id="g14"><g id="g20" transform="translate(18,34)"><path d="m 0,0 c -10,0 -12,-2.984 -12,-5 l 0,-17 c 0,-6.627 5.373,-12 12,-12 6.627,0 12,5.373 12,12 l 0,17 c 0,2.016 -2,5 -12,5" id="path22" style="fill:#99aab5;fill-opacity:1;fill-rule:nonzero;stroke:none"/></g></g></g><g id="g24"><g clip-path="url(#clipPath28)" id="g26"><path d="m 22,26 -8,0 0,8 8,0 0,-8 z" id="path32" style="fill:#292f33;fill-opacity:1;fill-rule:nonzero;stroke:none"/><g id="g34" transform="translate(18,27)"><path d="m 0,0 c -10,0 -12,-2.984 -12,-5 l 0,-2 c 0,2.016 2,5 12,5 10,0 12,-2.984 12,-5 l 0,2 c 0,2.016 -2,5 -12,5" id="path36" style="fill:#292f33;fill-opacity:1;fill-rule:nonzero;stroke:none"/></g></g></g><g id="g38"><g clip-path="url(#clipPath42)" id="g40"><g id="g46" transform="translate(22,25.5)"><path d="m 0,0 c 0,-1.381 -1.79,-2.5 -4,-2.5 -2.209,0 -4,1.119 -4,2.5 0,1.381 1.791,2.5 4,2.5 2.21,0 4,-1.119 4,-2.5" id="path48" style="fill:#292f33;fill-opacity:1;fill-rule:nonzero;stroke:none"/></g><g id="g50" transform="translate(20,27)"><path d="m 0,0 c 0,-1.104 -0.895,-2 -2,-2 -1.104,0 -2,0.896 -2,2 l 0,7 c 0,1.105 0.896,2 2,2 1.105,0 2,-0.895 2,-2 L 0,0 Z" id="path52" style="fill:#99aab5;fill-opacity:1;fill-rule:nonzero;stroke:none"/></g></g></g></g></svg>