<?xml version="1.0" encoding="UTF-8" standalone="no"?><svg xmlns="http://www.w3.org/2000/svg" xmlns:cc="http://creativecommons.org/ns#" xmlns:dc="http://purl.org/dc/elements/1.1/" xmlns:rdf="http://www.w3.org/1999/02/22-rdf-syntax-ns#" xmlns:svg="http://www.w3.org/2000/svg" height="45" id="svg2" style="enable-background:new 0 0 45 45;" version="1.1" viewBox="0 0 45 45" width="45" xml:space="preserve"><metadata id="metadata8"><rdf:RDF><cc:Work rdf:about=""><dc:format>image/svg+xml</dc:format><dc:type rdf:resource="http://purl.org/dc/dcmitype/StillImage"/></cc:Work></rdf:RDF></metadata><defs id="defs6"><clipPath clipPathUnits="userSpaceOnUse" id="clipPath16"><path d="M 0,36 36,36 36,0 0,0 0,36 Z" id="path18"/></clipPath></defs><g id="g10" transform="matrix(1.25,0,0,-1.25,0,45)"><g id="g12"><g clip-path="url(#clipPath16)" id="g14"><g id="g20" transform="translate(11,34)"><path d="m 0,0 c -3,0 -11,-2 -11,-4 0,-2 1,-7 2,-9 1,-2 8,0 9,1 1,1 2,12 0,12" id="path22" style="fill:#3b88c3;fill-opacity:1;fill-rule:nonzero;stroke:none"/></g><g id="g24" transform="translate(1,31.2832)"><path d="m 0,0 c -0.648,-0.371 -1,-0.849 -1,-1.283 0,-2 1,-7 2,-9 0.281,-0.563 1.039,-0.778 2,-0.85 C 2,-8.283 1,-4.283 0,0" id="path26" style="fill:#55acee;fill-opacity:1;fill-rule:nonzero;stroke:none"/></g><g id="g28" transform="translate(25,34)"><path d="m 0,0 c 3,0 11,-2 11,-4 0,-2 -1,-7 -2,-9 -1,-2 -8,0 -9,1 -1,1 -2,12 0,12" id="path30" style="fill:#3b88c3;fill-opacity:1;fill-rule:nonzero;stroke:none"/></g><g id="g32" transform="translate(35,31.2832)"><path d="m 0,0 c 0.648,-0.371 1,-0.849 1,-1.283 0,-2 -1,-7 -2,-9 -0.281,-0.563 -1.039,-0.778 -2,-0.85 1,2.85 2,6.85 3,11.133" id="path34" style="fill:#55acee;fill-opacity:1;fill-rule:nonzero;stroke:none"/></g><g id="g36" transform="translate(25,34)"><path d="M 0,0 -1.068,0 C -1.485,-1.695 -3.979,-3 -7,-3 c -3.021,0 -5.515,1.305 -5.932,3 L -14,0 c -2.209,0 -5,-1.791 -5,-4 0,0 0,-20 -1,-24 -1,-4 1.791,-4 4,-4 l 18,0 c 2.209,0 5,0 4,4 -1,4 -1,24 -1,24 0,2.209 -2.791,4 -5,4" id="path38" style="fill:#3b88c3;fill-opacity:1;fill-rule:nonzero;stroke:none"/></g><g id="g40" transform="translate(18,29)"><path d="M 0,0 C 3.866,0 7,2.239 7,5 L 5.932,5 C 5.515,3.305 3.021,2 0,2 -3.021,2 -5.515,3.305 -5.932,5 L -7,5 C -7,2.239 -3.866,0 0,0" id="path42" style="fill:#55acee;fill-opacity:1;fill-rule:nonzero;stroke:none"/></g></g></g></g></svg>