<?xml version="1.0" encoding="UTF-8" standalone="no"?><svg xmlns="http://www.w3.org/2000/svg" xmlns:cc="http://creativecommons.org/ns#" xmlns:dc="http://purl.org/dc/elements/1.1/" xmlns:rdf="http://www.w3.org/1999/02/22-rdf-syntax-ns#" xmlns:svg="http://www.w3.org/2000/svg" height="45" id="svg2" style="enable-background:new 0 0 45 45;" version="1.1" viewBox="0 0 45 45" width="45" xml:space="preserve"><metadata id="metadata8"><rdf:RDF><cc:Work rdf:about=""><dc:format>image/svg+xml</dc:format><dc:type rdf:resource="http://purl.org/dc/dcmitype/StillImage"/></cc:Work></rdf:RDF></metadata><defs id="defs6"><clipPath clipPathUnits="userSpaceOnUse" id="clipPath16"><path d="M 0,36 36,36 36,0 0,0 0,36 Z" id="path18"/></clipPath></defs><g id="g10" transform="matrix(1.25,0,0,-1.25,0,45)"><g id="g12"><g clip-path="url(#clipPath16)" id="g14"><g id="g20" transform="translate(36,9)"><path d="m 0,0 c 0,-2.209 -1.791,-4 -4,-4 l -28,0 c -2.209,0 -4,1.791 -4,4 l 0,18 c 0,2.209 1.791,4 4,4 l 28,0 c 2.209,0 4,-1.791 4,-4 L 0,0 Z" id="path22" style="fill:#20603d;fill-opacity:1;fill-rule:nonzero;stroke:none"/></g><path d="m 36,10 -36,0 0,7 36,0 0,-7 z" id="path24" style="fill:#fad201;fill-opacity:1;fill-rule:nonzero;stroke:none"/><g id="g26" transform="translate(32,31)"><path d="m 0,0 -28,0 c -2.209,0 -4,-1.791 -4,-4 l 0,-12 36,0 0,12 C 4,-1.791 2.209,0 0,0" id="path28" style="fill:#00a1de;fill-opacity:1;fill-rule:nonzero;stroke:none"/></g><g id="g30" transform="translate(26,31)"><path d="M 0,0 0.523,-4.034 2.07,-0.272 1.531,-4.304 4,-1.072 2.436,-4.827 5.656,-2.343 3.173,-5.565 6.929,-4 3.695,-6.469 7.728,-5.929 3.966,-7.477 8,-8 3.966,-8.522 7.728,-10.07 3.695,-9.531 6.929,-12 3.173,-10.435 5.656,-13.657 2.436,-11.173 4,-14.929 1.531,-11.695 2.07,-15.727 0.523,-11.966 0,-16 l -0.522,4.034 -1.549,-3.761 0.54,4.032 -2.469,-3.234 1.564,3.756 -3.22,-2.484 2.482,3.222 -3.755,-1.565 3.233,2.469 -4.031,-0.539 3.76,1.548 L -8,-8 l 4.033,0.523 -3.76,1.548 4.031,-0.54 -3.233,2.469 3.755,-1.565 -2.482,3.222 3.22,-2.484 -1.564,3.755 2.469,-3.232 -0.54,4.032 1.549,-3.762 L 0,0 Z" id="path32" style="fill:#fad201;fill-opacity:1;fill-rule:nonzero;stroke:none"/></g><g id="g34" transform="translate(30,22.9995)"><path d="m 0,0 c 0,-2.209 -1.791,-4 -4,-4 -2.21,0 -4,1.791 -4,4 0,2.21 1.79,4 4,4 2.209,0 4,-1.79 4,-4" id="path36" style="fill:#00a1de;fill-opacity:1;fill-rule:nonzero;stroke:none"/></g><g id="g38" transform="translate(29,23)"><path d="m 0,0 c 0,-1.657 -1.343,-3 -3,-3 -1.657,0 -3,1.343 -3,3 0,1.657 1.343,3 3,3 1.657,0 3,-1.343 3,-3" id="path40" style="fill:#fad201;fill-opacity:1;fill-rule:nonzero;stroke:none"/></g></g></g></g></svg>