<?xml version="1.0" encoding="UTF-8" standalone="no"?><svg xmlns="http://www.w3.org/2000/svg" xmlns:cc="http://creativecommons.org/ns#" xmlns:dc="http://purl.org/dc/elements/1.1/" xmlns:rdf="http://www.w3.org/1999/02/22-rdf-syntax-ns#" xmlns:svg="http://www.w3.org/2000/svg" height="45" id="svg2" style="enable-background:new 0 0 45 45;" version="1.1" viewBox="0 0 45 45" width="45" xml:space="preserve"><metadata id="metadata8"><rdf:RDF><cc:Work rdf:about=""><dc:format>image/svg+xml</dc:format><dc:type rdf:resource="http://purl.org/dc/dcmitype/StillImage"/></cc:Work></rdf:RDF></metadata><defs id="defs6"><clipPath clipPathUnits="userSpaceOnUse" id="clipPath16"><path d="M 0,36 36,36 36,0 0,0 0,36 Z" id="path18"/></clipPath><clipPath clipPathUnits="userSpaceOnUse" id="clipPath28"><path d="M 0.193,4 C 0.193,2 2,0 4,0 l 0,0 28,0 c 2,0 3.731,2 3.731,4 l 0,0 c 0,4.356 -4.634,11 -17.731,11 l 0,0 C 4.508,15 0.193,8.541 0.193,4" id="path30"/></clipPath><clipPath clipPathUnits="userSpaceOnUse" id="clipPath40"><path d="M 0,36 36,36 36,0 0,0 0,36 Z" id="path42"/></clipPath></defs><g id="g10" transform="matrix(1.25,0,0,-1.25,0,45)"><g id="g12"><g clip-path="url(#clipPath16)" id="g14"><g id="g20" transform="translate(4,0)"><path d="m 0,0 28,0 c 2,0 3.73,2 3.73,4 C 31.73,8.355 27.097,15 14,15 0.508,15 -3.807,8.541 -3.807,4 -3.807,2 -2,0 0,0" id="path22" style="fill:#77b255;fill-opacity:1;fill-rule:nonzero;stroke:none"/></g></g></g><g id="g24"><g clip-path="url(#clipPath28)" id="g26"><g id="g32" transform="translate(11.2915,6.5)"><path d="m 0,0 c 1.125,3.75 9.751,7.666 14.333,7.625 5,-0.045 2.625,-0.792 1.625,-0.792 -1,0 -11.791,-2.625 -14,-7.5 C 0.958,-0.667 0,0 0,0" id="path34" style="fill:#5c913b;fill-opacity:1;fill-rule:nonzero;stroke:none"/></g></g></g><g id="g36"><g clip-path="url(#clipPath40)" id="g38"><g id="g44" transform="translate(19,5.5)"><path d="m 0,0 c 0,-1.381 -2.91,-2.5 -6.5,-2.5 -3.59,0 -6.5,1.119 -6.5,2.5 0,1.381 2.91,2.5 6.5,2.5 C -2.91,2.5 0,1.381 0,0" id="path46" style="fill:#292f33;fill-opacity:1;fill-rule:nonzero;stroke:none"/></g><g id="g48" transform="translate(10,32)"><path d="m 0,0 0,-26 c 0,-0.553 0.448,-0.844 1,-0.844 0.552,0 1,0.291 1,0.844 L 2,0 0,0 Z" id="path50" style="fill:#ffac33;fill-opacity:1;fill-rule:nonzero;stroke:none"/></g><g id="g52" transform="translate(10,33)"><path d="m 0,0 c 0,2.2 1.695,3.395 3.767,2.655 l 9.466,-3.381 c 2.072,-0.74 2.072,-1.951 0,-2.691 L 3.767,-6.798 C 1.695,-7.538 0,-6.343 0,-4.143 L 0,0 Z" id="path54" style="fill:#dd2e44;fill-opacity:1;fill-rule:nonzero;stroke:none"/></g></g></g></g></svg>