<?xml version="1.0" encoding="UTF-8" standalone="no"?><svg xmlns="http://www.w3.org/2000/svg" xmlns:cc="http://creativecommons.org/ns#" xmlns:dc="http://purl.org/dc/elements/1.1/" xmlns:rdf="http://www.w3.org/1999/02/22-rdf-syntax-ns#" xmlns:svg="http://www.w3.org/2000/svg" height="45" id="svg2" style="enable-background:new 0 0 45 45;" version="1.1" viewBox="0 0 45 45" width="45" xml:space="preserve"><metadata id="metadata8"><rdf:RDF><cc:Work rdf:about=""><dc:format>image/svg+xml</dc:format><dc:type rdf:resource="http://purl.org/dc/dcmitype/StillImage"/></cc:Work></rdf:RDF></metadata><defs id="defs6"/><g id="g10" transform="matrix(1.25,0,0,-1.25,0,45)"><path d="M 31,13 5,13 5,6 31,6 31,13 Z" id="path12" style="fill:#d1d3d4;fill-opacity:1;fill-rule:nonzero;stroke:none"/><g id="g14" transform="translate(3.9996,7.0002)"><path d="M 0,0 -4,-7 32,-7 28.001,0 0,0 Z" id="path16" style="fill:#d99e82;fill-opacity:1;fill-rule:nonzero;stroke:none"/></g><g id="g18" transform="translate(30,16)"><path d="M 0,0 -24,0 -29,-4 5,-4 0,0 Z" id="path20" style="fill:#66757f;fill-opacity:1;fill-rule:nonzero;stroke:none"/></g><g id="g22" transform="translate(18,26.1182)"><path d="m 0,0 -8.236,-4.118 16.472,0 L 0,0 Z" id="path24" style="fill:#d1d3d4;fill-opacity:1;fill-rule:nonzero;stroke:none"/></g><g id="g26" transform="translate(18,26.1182)"><path d="m 0,0 8.236,-4.118 -16.472,0 L 0,0 Z m 12,-4.118 -1,5 -22,0 -1,-5 -4,-3 32,0 -4,3 z" id="path28" style="fill:#66757f;fill-opacity:1;fill-rule:nonzero;stroke:none"/></g><path d="m 30,19 -24,0 0,-3 24,0 0,3 z" id="path30" style="fill:#d1d3d4;fill-opacity:1;fill-rule:nonzero;stroke:none"/><g id="g32" transform="translate(24,27)"><path d="m 0,0 0,4 -12,0 0,-4 -2,0 0,-2 16,0 0,2 -2,0 z" id="path34" style="fill:#d1d3d4;fill-opacity:1;fill-rule:nonzero;stroke:none"/></g><g id="g36" transform="translate(12,34)"><path d="m 0,0 12,0 0,-2 2,-2 -16,0 2,2 0,2 z" id="path38" style="fill:#66757f;fill-opacity:1;fill-rule:nonzero;stroke:none"/></g><g id="g40" transform="translate(23.0004,36)"><path d="m 0,0 0,-1 -10.001,0 0,1 -1,0 0,-1 0,-1 1,0 L 0,-2 1,-2 1,-1 1,0 0,0 Z" id="path42" style="fill:#99aab5;fill-opacity:1;fill-rule:nonzero;stroke:none"/></g><g id="g44" transform="translate(12,22)"><path d="M 0,0 6,3 12,0 0,0 Z m 18,-0.764 -5.105,2.553 -6,3 L 6,5.236 5.105,4.789 l -6,-3 L -6,-0.764 -6,-2 l 6,0 12,0 6,0 0,1.236 z" id="path46" style="fill:#66757f;fill-opacity:1;fill-rule:nonzero;stroke:none"/></g><path d="M 31,7 5,7 5,9 31,9 31,7 Z" id="path48" style="fill:#6d6e71;fill-opacity:1;fill-rule:nonzero;stroke:none"/></g></svg>