<?xml version="1.0" encoding="UTF-8" standalone="no"?><svg xmlns="http://www.w3.org/2000/svg" xmlns:cc="http://creativecommons.org/ns#" xmlns:dc="http://purl.org/dc/elements/1.1/" xmlns:rdf="http://www.w3.org/1999/02/22-rdf-syntax-ns#" xmlns:svg="http://www.w3.org/2000/svg" height="45" id="svg2" style="enable-background:new 0 0 45 45;" version="1.1" viewBox="0 0 45 45" width="45" xml:space="preserve"><metadata id="metadata8"><rdf:RDF><cc:Work rdf:about=""><dc:format>image/svg+xml</dc:format><dc:type rdf:resource="http://purl.org/dc/dcmitype/StillImage"/></cc:Work></rdf:RDF></metadata><defs id="defs6"><clipPath clipPathUnits="userSpaceOnUse" id="clipPath16"><path d="M 0,36 36,36 36,0 0,0 0,36 Z" id="path18"/></clipPath></defs><g id="g10" transform="matrix(1.25,0,0,-1.25,0,45)"><g id="g12"><g clip-path="url(#clipPath16)" id="g14"><g id="g20" transform="translate(32.7686,2.6406)"><path d="m 0,0 c -2.739,3.286 -3.903,6.569 -4.397,8.746 -0.065,0.283 -0.249,0.525 -0.506,0.661 -0.257,0.137 -0.56,0.155 -0.83,0.05 l -7.113,-2.749 c -0.302,-0.117 -0.53,-0.374 -0.609,-0.688 -0.079,-0.316 -0.019,-0.666 0.211,-0.896 5.968,-5.98 12.421,-6.765 12.475,-6.765 0.355,0 0.688,0.189 0.868,0.503 C 0.307,-0.775 0.268,-0.321 0,0" id="path22" style="fill:#292f33;fill-opacity:1;fill-rule:nonzero;stroke:none"/></g><g id="g24" transform="translate(18,34)"><path d="m 0,0 c -9.941,0 -18,-10 -18,-14 0,-4 8.059,-14 18,-14 9.941,0 18,10 18,14 0,4 -8.059,14 -18,14" id="path26" style="fill:#292f33;fill-opacity:1;fill-rule:nonzero;stroke:none"/></g><g id="g28" transform="translate(18,25)"><path d="m 0,0 c -2.761,0 -5,-2.239 -5,-5 0,-2.761 2.239,-5 5,-5 2.761,0 5,2.239 5,5 0,2.761 -2.239,5 -5,5" id="path30" style="fill:#292f33;fill-opacity:1;fill-rule:nonzero;stroke:none"/></g><g id="g32" transform="translate(18,15)"><path d="m 0,0 c -2.761,0 -5,2.239 -5,5 0,2.761 2.239,5 5,5 C 2.761,10 5,7.761 5,5 5,2.239 2.761,0 0,0 m 0,14 c -4.963,0 -9,-4.037 -9,-9 0,-4.963 4.037,-9 9,-9 4.963,0 9,4.037 9,9 0,4.963 -4.037,9 -9,9" id="path34" style="fill:#ffffff;fill-opacity:1;fill-rule:nonzero;stroke:none"/></g></g></g></g></svg>