<?xml version="1.0" encoding="UTF-8" standalone="no"?><svg xmlns="http://www.w3.org/2000/svg" xmlns:cc="http://creativecommons.org/ns#" xmlns:dc="http://purl.org/dc/elements/1.1/" xmlns:rdf="http://www.w3.org/1999/02/22-rdf-syntax-ns#" xmlns:svg="http://www.w3.org/2000/svg" height="45" id="svg2" style="enable-background:new 0 0 45 45;" version="1.1" viewBox="0 0 45 45" width="45" xml:space="preserve"><metadata id="metadata8"><rdf:RDF><cc:Work rdf:about=""><dc:format>image/svg+xml</dc:format><dc:type rdf:resource="http://purl.org/dc/dcmitype/StillImage"/></cc:Work></rdf:RDF></metadata><defs id="defs6"><clipPath clipPathUnits="userSpaceOnUse" id="clipPath16"><path d="M 0,36 36,36 36,0 0,0 0,36 Z" id="path18"/></clipPath></defs><g id="g10" transform="matrix(1.25,0,0,-1.25,0,45)"><g id="g12"><g clip-path="url(#clipPath16)" id="g14"><g id="g20" transform="translate(35,17)"><path d="m 0,0 c 0,-0.553 -0.447,-1 -1,-1 l -3,0 c -0.553,0 -1,0.447 -1,1 l 0,2 c 0,0.552 0.447,1 1,1 l 3,0 C -0.447,3 0,2.552 0,2 L 0,0 Z" id="path22" style="fill:#66757f;fill-opacity:1;fill-rule:nonzero;stroke:none"/></g><path d="m 32,11 2,0 0,7 -2,0 0,-7 z" id="path24" style="fill:#66757f;fill-opacity:1;fill-rule:nonzero;stroke:none"/><g id="g26" transform="translate(6,16.7812)"><path d="m 0,0 c 0,0 5,4.219 10,4.219 l 0.029,0 -0.029,-5 c 0,0 0,-1 -4,-1 C 2,-1.781 0,0 0,0" id="path28" style="fill:#e1e8ed;fill-opacity:1;fill-rule:nonzero;stroke:none"/></g><g id="g30" transform="translate(7.2476,16.8994)"><path d="m 0,0 c 3.55,2.691 6.752,3.058 7.752,3.058 l 0,-3.957 C 7.752,-4.061 0,0 0,0" id="path32" style="fill:#3b88c3;fill-opacity:1;fill-rule:nonzero;stroke:none"/></g><g id="g34" transform="translate(33,11.0361)"><path d="m 0,0 c 0,0 0.5,4.013 -1,5.731 l -31,1.147 c 0,0 2,-3.439 6,-5.732 C -22,-1.146 0,0 0,0" id="path36" style="fill:#ccd6dd;fill-opacity:1;fill-rule:nonzero;stroke:none"/></g><g id="g38" transform="translate(7,12.1826)"><path d="m 0,0 c 4,-2.292 26,-1.146 26,-1.146 0,0 0.288,2.334 -0.24,4.206 L -4.922,4.229 C -3.945,3.023 -2.308,1.323 0,0" id="path40" style="fill:#f4900c;fill-opacity:1;fill-rule:nonzero;stroke:none"/></g><path d="M 36,12 0,12 0,0 36,0 36,12 Z" id="path42" style="fill:#55acee;fill-opacity:1;fill-rule:nonzero;stroke:none"/></g></g></g></svg>