<?xml version="1.0" encoding="UTF-8" standalone="no"?><svg xmlns="http://www.w3.org/2000/svg" xmlns:cc="http://creativecommons.org/ns#" xmlns:dc="http://purl.org/dc/elements/1.1/" xmlns:rdf="http://www.w3.org/1999/02/22-rdf-syntax-ns#" xmlns:svg="http://www.w3.org/2000/svg" height="45" id="svg2" style="enable-background:new 0 0 45 45;" version="1.1" viewBox="0 0 45 45" width="45" xml:space="preserve"><metadata id="metadata8"><rdf:RDF><cc:Work rdf:about=""><dc:format>image/svg+xml</dc:format><dc:type rdf:resource="http://purl.org/dc/dcmitype/StillImage"/></cc:Work></rdf:RDF></metadata><defs id="defs6"><clipPath clipPathUnits="userSpaceOnUse" id="clipPath16"><path d="M 0,36 36,36 36,0 0,0 0,36 Z" id="path18"/></clipPath></defs><g id="g10" transform="matrix(1.25,0,0,-1.25,0,45)"><g id="g12"><g clip-path="url(#clipPath16)" id="g14"><g id="g20" transform="translate(36,4)"><path d="m 0,0 c 0,-4 -4,-4 -4,-4 l -28,0 c -4,0 -4,4 -4,4 l 0,28 c 0,4 4,4 4,4 l 28,0 c 0,0 4,0 4,-4 L 0,0 Z" id="path22" style="fill:#f4900c;fill-opacity:1;fill-rule:nonzero;stroke:none"/></g><g id="g24" transform="translate(14.8413,19.0845)"><path d="M 0,0 C 0,1.728 -0.9,3.285 -2.685,3.285 -4.47,3.285 -5.37,1.728 -5.37,0 c 0,-1.743 0.872,-3.285 2.685,-3.285 C -0.871,-3.285 0,-1.743 0,0 m -7.598,0 c 0,2.971 1.999,5.256 4.913,5.256 2.871,0 4.913,-2.357 4.913,-5.256 0,-2.957 -1.985,-5.256 -4.913,-5.256 -2.899,0 -4.913,2.299 -4.913,5.256" id="path26" style="fill:#ffffff;fill-opacity:1;fill-rule:nonzero;stroke:none"/></g><g id="g28" transform="translate(18.5264,23.0547)"><path d="m 0,0 c 0,0.586 0.4,1.114 1.114,1.114 l 3.657,0 c 0.627,0 0.957,-0.485 0.957,-0.985 0,-0.486 -0.315,-0.986 -0.957,-0.986 l -2.628,0 0,-2.085 2.213,0 c 0.686,0 1.029,-0.486 1.029,-0.971 0,-0.5 -0.343,-1 -1.029,-1 l -2.213,0 0,-3.113 C 2.143,-8.74 1.686,-9.141 1.071,-9.141 0.457,-9.141 0,-8.74 0,-8.026 L 0,0 Z" id="path30" style="fill:#ffffff;fill-opacity:1;fill-rule:nonzero;stroke:none"/></g><g id="g32" transform="translate(26.2969,23.0547)"><path d="m 0,0 c 0,0.586 0.4,1.114 1.114,1.114 l 3.656,0 c 0.628,0 0.957,-0.485 0.957,-0.985 0,-0.486 -0.314,-0.986 -0.957,-0.986 l -2.627,0 0,-2.085 2.213,0 c 0.686,0 1.029,-0.486 1.029,-0.971 0,-0.5 -0.343,-1 -1.029,-1 l -2.213,0 0,-3.113 C 2.143,-8.74 1.686,-9.141 1.071,-9.141 0.457,-9.141 0,-8.74 0,-8.026 L 0,0 Z" id="path34" style="fill:#ffffff;fill-opacity:1;fill-rule:nonzero;stroke:none"/></g><g id="g36" transform="translate(19,12)"><path d="m 0,0 0,-4 -14,0 0,20 14,0 0,-2 2,0 0,4 c 0,3 -3,3 -3,3 l -12,0 c -3,0 -3,-3 -3,-3 l 0,-24 c 0,-3 3,-3 3,-3 l 12,0 c 3,0 3,3 3,3 L 2,0 0,0 Z" id="path38" style="fill:#ffffff;fill-opacity:1;fill-rule:nonzero;stroke:none"/></g></g></g></g></svg>