<?xml version="1.0" encoding="UTF-8" standalone="no"?><svg xmlns="http://www.w3.org/2000/svg" xmlns:cc="http://creativecommons.org/ns#" xmlns:dc="http://purl.org/dc/elements/1.1/" xmlns:rdf="http://www.w3.org/1999/02/22-rdf-syntax-ns#" xmlns:svg="http://www.w3.org/2000/svg" height="45" id="svg2" style="enable-background:new 0 0 45 45;" version="1.1" viewBox="0 0 45 45" width="45" xml:space="preserve"><metadata id="metadata8"><rdf:RDF><cc:Work rdf:about=""><dc:format>image/svg+xml</dc:format><dc:type rdf:resource="http://purl.org/dc/dcmitype/StillImage"/></cc:Work></rdf:RDF></metadata><defs id="defs6"><clipPath clipPathUnits="userSpaceOnUse" id="clipPath16"><path d="M 0,36 36,36 36,0 0,0 0,36 Z" id="path18"/></clipPath></defs><g id="g10" transform="matrix(1.25,0,0,-1.25,0,45)"><g id="g12"><g clip-path="url(#clipPath16)" id="g14"><g id="g20" transform="translate(15,5)"><path d="m 0,0 c 0,-2.209 -0.791,-4 -3,-4 l -7,0 c -4,0 -4,14 0,14 l 7,0 C -0.791,10 0,8.209 0,6 L 0,0 Z" id="path22" style="fill:#553788;fill-opacity:1;fill-rule:nonzero;stroke:none"/></g><g id="g24" transform="translate(34,3)"><path d="m 0,0 -1,0 0,10 1,0 c 0.553,0 1,0.447 1,1 0,0.553 -0.447,1 -1,1 l -24,0 c -4,0 -4,-14 0,-14 l 24,0 c 0.553,0 1,0.447 1,1 0,0.553 -0.447,1 -1,1" id="path26" style="fill:#9266cc;fill-opacity:1;fill-rule:nonzero;stroke:none"/></g><g id="g28" transform="translate(34.1719,3)"><path d="m 0,0 -23.172,0 c -2,0 -2,10 0,10 L 0,10 C 1.104,10 1.104,0 0,0" id="path30" style="fill:#ccd6dd;fill-opacity:1;fill-rule:nonzero;stroke:none"/></g><g id="g32" transform="translate(11.5,11)"><path d="M 0,0 23.35,0 C 23.215,1.175 22.989,2 22.672,2 L -0.5,2 C -2.151,2 -2.438,-4.808 -1.363,-7.187 -1.755,-4.229 -1.301,0 0,0" id="path34" style="fill:#99aab5;fill-opacity:1;fill-rule:nonzero;stroke:none"/></g><g id="g36" transform="translate(12,28)"><path d="m 0,0 c 0,-2.209 -1.791,-4 -4,-4 l -4,0 c -4,0 -4,11 0,11 l 4,0 C -1.791,7 0,5.209 0,3 L 0,0 Z" id="path38" style="fill:#226699;fill-opacity:1;fill-rule:nonzero;stroke:none"/></g><g id="g40" transform="translate(31,26)"><path d="m 0,0 -1,0 0,7 1,0 C 0.553,7 1,7.447 1,8 1,8.553 0.553,9 0,9 l -24,0 c -4,0 -4,-11 0,-11 l 24,0 c 0.553,0 1,0.447 1,1 0,0.553 -0.447,1 -1,1" id="path42" style="fill:#55acee;fill-opacity:1;fill-rule:nonzero;stroke:none"/></g><g id="g44" transform="translate(31.1719,26)"><path d="m 0,0 -23.172,0 c -2,0 -2,7 0,7 L 0,7 C 1.104,7 1.104,0 0,0" id="path46" style="fill:#ccd6dd;fill-opacity:1;fill-rule:nonzero;stroke:none"/></g><g id="g48" transform="translate(8,31)"><path d="M 0,0 23.925,0 C 23.811,1.126 23.561,2 23.172,2 L 0,2 C -1.193,2 -1.669,-0.489 -1.438,-2.5 -1.282,-1.142 -0.807,0 0,0" id="path50" style="fill:#99aab5;fill-opacity:1;fill-rule:nonzero;stroke:none"/></g><g id="g52" transform="translate(20,19)"><path d="m 0,0 c 0,-2.209 -1.791,-4 -4,-4 l -10,0 c -4,0 -4,9 0,9 L -4,5 C -1.791,5 0,3.209 0,1 L 0,0 Z" id="path54" style="fill:#f4900c;fill-opacity:1;fill-rule:nonzero;stroke:none"/></g><g id="g56" transform="translate(35,17)"><path d="m 0,0 -1,0 0,5 1,0 C 0.553,5 1,5.447 1,6 1,6.553 0.553,7 0,7 l -20,0 c -4,0 -4,-9 0,-9 l 20,0 c 0.553,0 1,0.447 1,1 0,0.553 -0.447,1 -1,1" id="path58" style="fill:#ffac33;fill-opacity:1;fill-rule:nonzero;stroke:none"/></g><g id="g60" transform="translate(35.1719,17)"><path d="m 0,0 -19.172,0 c -2,0 -2,5 0,5 L 0,5 C 1.104,5 1.104,0 0,0" id="path62" style="fill:#ccd6dd;fill-opacity:1;fill-rule:nonzero;stroke:none"/></g><g id="g64" transform="translate(16,20)"><path d="M 0,0 19.984,0 C 19.92,1.062 19.65,2 19.172,2 L 0,2 C -1.274,2 -1.733,-0.027 -1.383,-1.5 -1.185,-0.661 -0.726,0 0,0" id="path66" style="fill:#99aab5;fill-opacity:1;fill-rule:nonzero;stroke:none"/></g></g></g></g></svg>